%TF.GenerationSoftware,KiCad,Pcbnew,5.1.5+dfsg1-2~bpo10+1*%
%TF.CreationDate,Date%
%TF.ProjectId,osw,6f73772e-6b69-4636-9164-5f7063625858,1.0*%
%TF.SameCoordinates,Original*%
%TF.FileFunction,Copper,L2,Inr*%
%TF.FilePolarity,Positive*%
%FSLAX46Y46*%
G04 Gerber Fmt 4.6, Leading zero omitted, Abs format (unit mm)*
G04 Created by KiCad*
%MOMM*%
%LPD*%
G04 APERTURE LIST*
%TA.AperFunction,ViaPad*%
%ADD10O,1.500000X2.000000*%
%TD*%
%TA.AperFunction,ViaPad*%
%ADD11C,0.800000*%
%TD*%
%TA.AperFunction,Conductor*%
%ADD12C,0.200000*%
%TD*%
%TA.AperFunction,Conductor*%
%ADD13C,0.300000*%
%TD*%
%TA.AperFunction,Conductor*%
%ADD14C,0.400000*%
%TD*%
%ADD15C,0.350000*%
%ADD16O,0.999999X0.999999*%
%ADD17O,0.750000X1.200000*%
G04 APERTURE END LIST*
D10*
%TO.N,*%
%TO.C,U5*%
X163048000Y-128627000D03*
X156952000Y-128627000D03*
%TD*%
D11*
%TO.N,/EN*%
X179380560Y-118594144D03*
X167309800Y-124815600D03*
%TO.N,+3V3*%
X171018200Y-118592600D03*
X166344600Y-118592600D03*
X154635200Y-124612400D03*
X158191200Y-118745000D03*
X152603200Y-94945200D03*
X154559000Y-105765001D03*
X170789600Y-104419400D03*
X169892624Y-107424576D03*
X169875200Y-110185200D03*
X181875000Y-100558600D03*
X179060300Y-103235300D03*
%TO.N,/FLASH*%
X166827200Y-108534200D03*
X153085800Y-124180600D03*
%TO.N,GND*%
X138379200Y-118999000D03*
X138379200Y-120523000D03*
X138379200Y-121996200D03*
X138379200Y-123494800D03*
X174447788Y-101481207D03*
X176974500Y-103251000D03*
X166141400Y-90125000D03*
X166141400Y-91262200D03*
X166141400Y-92278200D03*
X166141400Y-93294200D03*
X166141400Y-99263200D03*
X166141400Y-98298000D03*
X153847800Y-90125000D03*
X153847800Y-91287600D03*
X153847800Y-94259400D03*
X153847800Y-95300800D03*
X153847800Y-97282000D03*
X153847800Y-98247200D03*
X158013400Y-104368600D03*
X162026600Y-104368600D03*
X165684200Y-105816400D03*
X164490400Y-118364000D03*
X148310600Y-119786400D03*
X145567400Y-119151400D03*
X146380200Y-119151400D03*
X146380200Y-119964200D03*
X145567400Y-119964200D03*
X143840200Y-122478800D03*
X141121136Y-118997736D03*
X157886400Y-115519200D03*
X154609800Y-126695200D03*
X161323206Y-124781113D03*
X158191200Y-122706998D03*
X161318496Y-122719989D03*
X168452800Y-124942600D03*
X169621200Y-121691400D03*
X179959000Y-121716800D03*
X181152800Y-106654600D03*
X161569400Y-120523000D03*
X159969200Y-120497600D03*
X152349200Y-119303800D03*
X149453600Y-105003600D03*
X146939000Y-108254800D03*
X147650200Y-108839000D03*
X154127200Y-104495600D03*
X157835600Y-105816400D03*
X157810200Y-107340400D03*
X141859000Y-95453200D03*
X142595600Y-99237800D03*
X143408400Y-98298000D03*
X138125000Y-94525000D03*
X165658800Y-113538000D03*
X164665778Y-107917098D03*
X172567600Y-125603000D03*
X171754800Y-126238000D03*
X172567600Y-124536200D03*
X154940000Y-129692400D03*
X161874200Y-129819400D03*
X158191200Y-129768600D03*
X165277800Y-129895600D03*
X146558000Y-125018800D03*
X148336000Y-126136400D03*
X139141200Y-94538800D03*
X138176000Y-95504000D03*
X181864000Y-99110800D03*
X181864000Y-94538800D03*
X177469800Y-94691200D03*
X141224000Y-115595400D03*
X181216000Y-121712000D03*
%TO.N,Net-(D1-Pad1)*%
X147108574Y-120895774D03*
X148615400Y-122148600D03*
%TO.N,/LEDK*%
X149352000Y-106070400D03*
%TO.N,/BTN2*%
X150977600Y-98221800D03*
X175082200Y-107462002D03*
%TO.N,/BTN3*%
X169824400Y-105054400D03*
X178333400Y-104978200D03*
%TO.N,/RX*%
X169595800Y-117627400D03*
X167513000Y-122682000D03*
%TO.N,/SCL*%
X174625000Y-103378000D03*
X180340000Y-100012500D03*
X178943000Y-95313500D03*
X169443400Y-119684800D03*
%TO.N,/SDA*%
X178943000Y-96583500D03*
X169595800Y-116586000D03*
X175190685Y-104267000D03*
X178816000Y-99466400D03*
%TO.N,/PIN_LED*%
X158800800Y-114300000D03*
X177317400Y-107619800D03*
%TO.N,/STAT_PWR*%
X168681400Y-106527600D03*
X142189200Y-117271800D03*
%TO.N,/MOSI*%
X166852600Y-120726200D03*
X149453600Y-111658400D03*
%TO.N,/MISO*%
X154076400Y-103479600D03*
X166725600Y-114630200D03*
%TO.N,/IO34*%
X180218731Y-103117636D03*
X181216000Y-116632000D03*
%TO.N,/IO35*%
X181218721Y-103122356D03*
X181216000Y-115616000D03*
%TO.N,Net-(R1-Pad2)*%
X155336142Y-108544458D03*
%TO.N,Net-(R15-Pad1)*%
X141757400Y-122047000D03*
X145542000Y-123977400D03*
%TO.N,/B_MON*%
X145973800Y-97510600D03*
X181216000Y-112568000D03*
%TO.N,/RTC_INT*%
X173761400Y-99237800D03*
X179882800Y-114452400D03*
%TO.N,/TFT_DC*%
X154099398Y-109623087D03*
X179755800Y-108508800D03*
%TO.N,/TFT_CS*%
X149453600Y-110261400D03*
X166852600Y-112572800D03*
%TO.N,/TFT_RST*%
X179082800Y-113639600D03*
%TO.N,/SD_CS*%
X166827200Y-109550200D03*
X154102110Y-108623089D03*
%TO.N,/SCK*%
X153263600Y-111023400D03*
X167289200Y-113584000D03*
%TO.N,/VCC*%
X139379465Y-116515052D03*
X147040600Y-118186200D03*
%TO.N,/3V3_2*%
X155587600Y-107391200D03*
%TO.N,/GPS_RX3V3*%
X161544000Y-105943400D03*
X180140001Y-109432050D03*
%TO.N,/GPS_TX3V3*%
X179959000Y-105689400D03*
X169011600Y-103936800D03*
%TO.N,/GPS_TX2V8*%
X163880800Y-103581200D03*
X166446200Y-104013000D03*
%TO.N,/D2_P*%
X155999000Y-121732000D03*
X159838372Y-124623840D03*
%TO.N,/D2_N*%
X159349999Y-126896865D03*
X156083000Y-124485400D03*
%TD*%
D12*
%TO.N,/BTN2*%
X170966052Y-107462002D02*
X175082200Y-107462002D01*
X150977600Y-98787485D02*
X157258716Y-105068601D01*
X150977600Y-98221800D02*
X150977600Y-98787485D01*
X168572651Y-105068601D02*
X170966052Y-107462002D01*
X157258716Y-105068601D02*
X168572651Y-105068601D01*
%TO.N,/BTN3*%
X177857201Y-105454399D02*
X178333400Y-104978200D01*
X170224399Y-105454399D02*
X177857201Y-105454399D01*
X169824400Y-105054400D02*
X170224399Y-105454399D01*
D13*
%TO.N,/RX*%
X167912999Y-119310201D02*
X169595800Y-117627400D01*
X167912999Y-122282001D02*
X167912999Y-119310201D01*
X167513000Y-122682000D02*
X167912999Y-122282001D01*
D12*
%TO.N,/SCL*%
X180340000Y-96710500D02*
X178943000Y-95313500D01*
X180340000Y-100921502D02*
X180340000Y-96710500D01*
X176294501Y-104967001D02*
X180340000Y-100921502D01*
X174288999Y-104967001D02*
X176294501Y-104967001D01*
X173924999Y-104603001D02*
X174288999Y-104967001D01*
X173924999Y-103512316D02*
X173924999Y-104603001D01*
X174059315Y-103378000D02*
X173924999Y-103512316D01*
X174625000Y-103378000D02*
X174059315Y-103378000D01*
%TO.N,/SDA*%
X175190685Y-103998813D02*
X178816000Y-100373498D01*
X178816000Y-100373498D02*
X178816000Y-99466400D01*
X175190685Y-104267000D02*
X175190685Y-103998813D01*
X178816000Y-99466400D02*
X178943000Y-96583500D01*
D14*
%TO.N,/PIN_LED*%
X171557990Y-111982210D02*
X171557990Y-109689308D01*
X171557990Y-109689308D02*
X172138488Y-109108810D01*
X160312199Y-115811399D02*
X167728801Y-115811399D01*
X167728801Y-115811399D02*
X171557990Y-111982210D01*
X178632759Y-109108810D02*
X179756000Y-110232051D01*
X180940002Y-108509000D02*
X180050802Y-107619800D01*
X180524002Y-110232051D02*
X180940002Y-109816051D01*
X180940002Y-109816051D02*
X180940002Y-108509000D01*
X179756000Y-110232051D02*
X180524002Y-110232051D01*
X180050802Y-107619800D02*
X177317400Y-107619800D01*
X158800800Y-114300000D02*
X160312199Y-115811399D01*
X172138488Y-109108810D02*
X178632759Y-109108810D01*
%TO.N,/MOSI*%
X162887397Y-117944999D02*
X165668598Y-120726200D01*
X165668598Y-120726200D02*
X166852600Y-120726200D01*
X155740199Y-117944999D02*
X162887397Y-117944999D01*
X149453600Y-111658400D02*
X155740199Y-117944999D01*
%TO.N,/TFT_DC*%
X169052602Y-108508800D02*
X179755800Y-108508800D01*
X167211201Y-110350201D02*
X169052602Y-108508800D01*
X154826512Y-110350201D02*
X167211201Y-110350201D01*
X154099398Y-109623087D02*
X154826512Y-110350201D01*
%TO.N,/TFT_CS*%
X151317598Y-110261400D02*
X149453600Y-110261400D01*
X153568400Y-112572800D02*
X151317598Y-110261400D01*
X166852600Y-112572800D02*
X153568400Y-112572800D01*
%TO.N,/SD_CS*%
X155210513Y-109550200D02*
X154283402Y-108623089D01*
X154283402Y-108623089D02*
X154102110Y-108623089D01*
X166827200Y-109550200D02*
X155210513Y-109550200D01*
%TO.N,/SCK*%
X166487202Y-111023400D02*
X153263600Y-111023400D01*
X167652601Y-112188799D02*
X166487202Y-111023400D01*
X167652601Y-113379884D02*
X167652601Y-112188799D01*
X167289200Y-113584000D02*
X167418285Y-113614200D01*
X167418285Y-113614200D02*
X167652601Y-113379884D01*
%TO.N,/D2_P*%
X155999000Y-121732000D02*
X155999000Y-123029800D01*
X155999000Y-123029800D02*
X157581600Y-124612400D01*
X159826932Y-124612400D02*
X159838372Y-124623840D01*
X157581600Y-124612400D02*
X159826932Y-124612400D01*
%TO.N,/D2_N*%
X157102099Y-125504499D02*
X156083000Y-124485400D01*
X158523318Y-125504499D02*
X157102099Y-125504499D01*
X159349999Y-126331180D02*
X158523318Y-125504499D01*
X159349999Y-126896865D02*
X159349999Y-126331180D01*
%TD*%
D15*
X179380560Y-118594144D03*
X167309800Y-124815600D03*
X171018200Y-118592600D03*
X166344600Y-118592600D03*
X154635200Y-124612400D03*
X158191200Y-118745000D03*
X152603200Y-94945200D03*
X154559000Y-105765001D03*
X170789600Y-104419400D03*
X169892624Y-107424576D03*
X169875200Y-110185200D03*
X181875000Y-100558600D03*
X179060300Y-103235300D03*
X166827200Y-108534200D03*
X153085800Y-124180600D03*
X138379200Y-118999000D03*
X138379200Y-120523000D03*
X138379200Y-121996200D03*
X138379200Y-123494800D03*
X174447788Y-101481207D03*
X176974500Y-103251000D03*
X166141400Y-90125000D03*
X166141400Y-91262200D03*
X166141400Y-92278200D03*
X166141400Y-93294200D03*
X166141400Y-99263200D03*
X166141400Y-98298000D03*
X153847800Y-90125000D03*
X153847800Y-91287600D03*
X153847800Y-94259400D03*
X153847800Y-95300800D03*
X153847800Y-97282000D03*
X153847800Y-98247200D03*
X158013400Y-104368600D03*
X162026600Y-104368600D03*
X165684200Y-105816400D03*
X164490400Y-118364000D03*
X148310600Y-119786400D03*
X145567400Y-119151400D03*
X146380200Y-119151400D03*
X146380200Y-119964200D03*
X145567400Y-119964200D03*
X143840200Y-122478800D03*
X141121136Y-118997736D03*
X157886400Y-115519200D03*
X154609800Y-126695200D03*
X161323206Y-124781113D03*
X158191200Y-122706998D03*
X161318496Y-122719989D03*
X168452800Y-124942600D03*
X169621200Y-121691400D03*
X179959000Y-121716800D03*
X181152800Y-106654600D03*
X161569400Y-120523000D03*
X159969200Y-120497600D03*
X152349200Y-119303800D03*
X149453600Y-105003600D03*
X146939000Y-108254800D03*
X147650200Y-108839000D03*
X154127200Y-104495600D03*
X157835600Y-105816400D03*
X157810200Y-107340400D03*
X141859000Y-95453200D03*
X142595600Y-99237800D03*
X143408400Y-98298000D03*
X138125000Y-94525000D03*
X165658800Y-113538000D03*
X164665778Y-107917098D03*
X172567600Y-125603000D03*
X171754800Y-126238000D03*
X172567600Y-124536200D03*
X154940000Y-129692400D03*
X161874200Y-129819400D03*
X158191200Y-129768600D03*
X165277800Y-129895600D03*
X146558000Y-125018800D03*
X148336000Y-126136400D03*
X139141200Y-94538800D03*
X138176000Y-95504000D03*
X181864000Y-99110800D03*
X181864000Y-94538800D03*
X177469800Y-94691200D03*
X141224000Y-115595400D03*
X181216000Y-121712000D03*
X147108574Y-120895774D03*
X148615400Y-122148600D03*
X149352000Y-106070400D03*
X150977600Y-98221800D03*
X175082200Y-107462002D03*
X169824400Y-105054400D03*
X178333400Y-104978200D03*
X169595800Y-117627400D03*
X167513000Y-122682000D03*
X174625000Y-103378000D03*
X180340000Y-100012500D03*
X178943000Y-95313500D03*
X169443400Y-119684800D03*
X178943000Y-96583500D03*
X169595800Y-116586000D03*
X175190685Y-104267000D03*
X178816000Y-99466400D03*
X158800800Y-114300000D03*
X177317400Y-107619800D03*
X168681400Y-106527600D03*
X142189200Y-117271800D03*
X166852600Y-120726200D03*
X149453600Y-111658400D03*
X154076400Y-103479600D03*
X166725600Y-114630200D03*
X180218731Y-103117636D03*
X181216000Y-116632000D03*
X181218721Y-103122356D03*
X181216000Y-115616000D03*
X155336142Y-108544458D03*
X141757400Y-122047000D03*
X145542000Y-123977400D03*
X145973800Y-97510600D03*
X181216000Y-112568000D03*
X173761400Y-99237800D03*
X179882800Y-114452400D03*
X154099398Y-109623087D03*
X179755800Y-108508800D03*
X149453600Y-110261400D03*
X166852600Y-112572800D03*
X179082800Y-113639600D03*
X166827200Y-109550200D03*
X154102110Y-108623089D03*
X153263600Y-111023400D03*
X167289200Y-113584000D03*
X139379465Y-116515052D03*
X147040600Y-118186200D03*
X155587600Y-107391200D03*
X161544000Y-105943400D03*
X180140001Y-109432050D03*
X179959000Y-105689400D03*
X169011600Y-103936800D03*
X163880800Y-103581200D03*
X166446200Y-104013000D03*
X155999000Y-121732000D03*
X159838372Y-124623840D03*
X159349999Y-126896865D03*
X156083000Y-124485400D03*
X171020589Y-94309865D03*
X169530784Y-93227459D03*
X150539658Y-92967369D03*
X149012986Y-93997122D03*
X150918815Y-127387791D03*
X152445487Y-128417544D03*
X167577766Y-128331569D03*
X169122178Y-127328616D03*
X142200000Y-110850000D03*
X142200000Y-102870000D03*
D16*
X162286000Y-126404500D03*
X157714000Y-126404500D03*
D17*
X163048000Y-128627000D03*
X156952000Y-128627000D03*
M02*
