M48
; DRILL file {KiCad 5.1.5+dfsg1-2~bpo10+1} date Tue Nov 10 17:19:22 2020
; FORMAT={-:-/ absolute / metric / decimal}
; #@! TF.CreationDate,2020-11-10T17:19:22+00:00
; #@! TF.GenerationSoftware,Kicad,Pcbnew,5.1.5+dfsg1-2~bpo10+1
; #@! TF.FileFunction,Plated,1,4,PTH
FMAT,2
METRIC
T1C0.330
T2C0.400
T3C0.750
%
G90
G05
T1
X138.125Y-115.778
X141.034Y-115.633
X141.249Y-106.045
X142.367Y-120.396
X143.637Y-118.237
X143.827Y-121.221
X143.827Y-122.047
X144.272Y-100.076
X146.202Y-119.863
X146.558Y-117.538
X147.777Y-120.548
X147.777Y-121.463
X148.021Y-107.559
X148.631Y-106.791
X148.92Y-120.523
X148.92Y-121.463
X149.022Y-114.021
X149.145Y-108.706
X149.415Y-109.601
X149.415Y-110.299
X149.415Y-113.093
X149.454Y-111.227
X149.479Y-105.346
X150.431Y-95.567
X150.749Y-93.662
X150.749Y-99.949
X151.003Y-124.523
X151.257Y-104.521
X151.257Y-119.697
X152.092Y-96.021
X152.146Y-97.853
X152.151Y-126.533
X152.209Y-116.205
X152.629Y-122.809
X153.01Y-119.024
X153.41Y-111.801
X153.822Y-119.024
X153.848Y-103.378
X153.924Y-90.043
X153.924Y-91.249
X153.924Y-92.265
X153.924Y-94.234
X153.924Y-95.25
X153.924Y-97.282
X153.924Y-98.298
X154.277Y-107.613
X154.661Y-119.024
X154.749Y-116.078
X154.752Y-111.999
X154.813Y-121.31
X155.004Y-126.428
X155.829Y-108.941
X156.489Y-121.234
X156.515Y-120.167
X156.528Y-124.523
X157.226Y-110.744
X157.251Y-119.456
X157.29Y-106.807
X157.413Y-109.713
X157.543Y-113.983
X157.543Y-116.713
X157.886Y-119.101
X157.988Y-104.267
X158.471Y-119.482
X159.36Y-124.663
X159.687Y-110.171
X159.817Y-111.176
X159.842Y-113.166
X159.868Y-115.214
X160.245Y-124.647
X161.138Y-101.355
X161.29Y-124.46
X161.607Y-109.728
X161.671Y-111.252
X161.988Y-104.267
X163.22Y-114.046
X163.398Y-103.683
X163.512Y-115.125
X163.542Y-113.166
X164.147Y-125.031
X164.681Y-110.35
X164.693Y-108.786
X165.633Y-114.579
X166.052Y-90.106
X166.052Y-91.313
X166.052Y-92.265
X166.052Y-93.281
X166.052Y-94.297
X166.052Y-95.25
X166.052Y-98.234
X166.052Y-99.251
X166.243Y-107.188
X166.244Y-108.801
X166.25Y-110.35
X166.787Y-125.05
X167.632Y-120.668
X167.914Y-102.773
X168.123Y-108.534
X168.173Y-113.589
X168.173Y-114.605
X168.199Y-107.493
X168.216Y-117.648
X168.224Y-112.547
X168.275Y-122.809
X169.113Y-102.54
X169.169Y-124.597
X169.174Y-100.513
X169.489Y-117.003
X169.825Y-110.091
X169.989Y-98.425
X170.434Y-102.235
X170.444Y-111.476
X171.018Y-107.493
X171.039Y-100.366
X171.12Y-105.131
X171.767Y-96.584
X171.767Y-102.235
X171.932Y-119.684
X171.948Y-107.625
X171.968Y-103.287
X173.418Y-100.012
X173.418Y-103.441
X173.482Y-96.647
X174.422Y-103.876
X175.641Y-100.076
X176.24Y-106.1
X176.925Y-99.922
X177.521Y-101.585
X177.673Y-103.06
X177.698Y-98.161
X178.562Y-113.741
X178.705Y-108.483
X179.07Y-97.853
X179.07Y-99.123
X179.106Y-114.63
X179.324Y-105.623
X179.553Y-115.621
X179.832Y-120.713
X179.832Y-121.666
X180.037Y-103.85
X180.171Y-106.724
X180.243Y-116.637
X180.721Y-101.6
X181.37Y-105.232
X181.8Y-106.426
X181.864Y-103.251
T2
G00X168.166Y-92.297
M15
G01X168.518Y-91.812
M16
G05
G00X172.276Y-95.283
M15
G01X172.628Y-94.798
M16
G05
G00X165.843Y-129.091
M15
G01X166.169Y-129.595
M16
G05
G00X170.103Y-126.325
M15
G01X170.43Y-126.828
M16
G05
G00X149.922Y-126.288
M15
G01X149.587Y-126.786
M16
G05
G00X154.134Y-129.129
M15
G01X153.798Y-129.626
M16
G05
G00X147.672Y-94.962
M15
G01X147.337Y-94.464
M16
G05
G00X151.884Y-92.121
M15
G01X151.548Y-91.624
M16
G05
T3
G00X156.952Y-128.402
M15
G01X156.952Y-128.852
M16
G05
G00X163.048Y-128.402
M15
G01X163.048Y-128.852
M16
G05
T0
M30
