%TF.GenerationSoftware,KiCad,Pcbnew,5.1.5+dfsg1-2~bpo10+1*%
%TF.CreationDate,Date%
%TF.ProjectId,osw,6f73772e-6b69-4636-9164-5f7063625858,1.0*%
%TF.SameCoordinates,Original*%
%TF.FileFunction,Other,Fab,Bot*%
%FSLAX46Y46*%
G04 Gerber Fmt 4.6, Leading zero omitted, Abs format (unit mm)*
G04 Created by KiCad*
%MOMM*%
%LPD*%
G04 APERTURE LIST*
%ADD10C,0.120000*%
%ADD11C,0.100000*%
G04 APERTURE END LIST*
D10*
%TO.C,U4*%
X152180000Y-114070000D02*
X150380000Y-114070000D01*
X150080000Y-113770000D02*
X150080000Y-104770000D01*
X152180000Y-104370000D02*
X150480000Y-104370000D01*
X152180000Y-114070000D02*
X152180000Y-104370000D01*
X150080000Y-104770000D02*
G75*
G02X150480000Y-104370000I400000J0D01*
G01*
X150380000Y-114070000D02*
G75*
G02X150080000Y-113770000I0J300000D01*
G01*
%TD*%
%TO.C,U4*%
D11*
X139180000Y-105862857D02*
X139156190Y-105815238D01*
X139156190Y-105743809D01*
X139180000Y-105672380D01*
X139227619Y-105624761D01*
X139275238Y-105600952D01*
X139370476Y-105577142D01*
X139441904Y-105577142D01*
X139537142Y-105600952D01*
X139584761Y-105624761D01*
X139632380Y-105672380D01*
X139656190Y-105743809D01*
X139656190Y-105791428D01*
X139632380Y-105862857D01*
X139608571Y-105886666D01*
X139441904Y-105886666D01*
X139441904Y-105791428D01*
X139608571Y-106386666D02*
X139632380Y-106362857D01*
X139656190Y-106291428D01*
X139656190Y-106243809D01*
X139632380Y-106172380D01*
X139584761Y-106124761D01*
X139537142Y-106100952D01*
X139441904Y-106077142D01*
X139370476Y-106077142D01*
X139275238Y-106100952D01*
X139227619Y-106124761D01*
X139180000Y-106172380D01*
X139156190Y-106243809D01*
X139156190Y-106291428D01*
X139180000Y-106362857D01*
X139203809Y-106386666D01*
X139656190Y-106624761D02*
X139656190Y-106719999D01*
X139632380Y-106767619D01*
X139608571Y-106791428D01*
X139537142Y-106839047D01*
X139441904Y-106862857D01*
X139251428Y-106862857D01*
X139203809Y-106839047D01*
X139180000Y-106815238D01*
X139156190Y-106767619D01*
X139156190Y-106672380D01*
X139180000Y-106624761D01*
X139203809Y-106600952D01*
X139251428Y-106577142D01*
X139370476Y-106577142D01*
X139418095Y-106600952D01*
X139441904Y-106624761D01*
X139465714Y-106672380D01*
X139465714Y-106767619D01*
X139441904Y-106815238D01*
X139418095Y-106839047D01*
X139370476Y-106862857D01*
X139513333Y-107053333D02*
X139513333Y-107291428D01*
X139656190Y-107005714D02*
X139156190Y-107172380D01*
X139656190Y-107339047D01*
X139156190Y-107600952D02*
X139156190Y-107648571D01*
X139180000Y-107696190D01*
X139203809Y-107719999D01*
X139251428Y-107743809D01*
X139346666Y-107767619D01*
X139465714Y-107767619D01*
X139560952Y-107743809D01*
X139608571Y-107719999D01*
X139632380Y-107696190D01*
X139656190Y-107648571D01*
X139656190Y-107600952D01*
X139632380Y-107553333D01*
X139608571Y-107529523D01*
X139560952Y-107505714D01*
X139465714Y-107481904D01*
X139346666Y-107481904D01*
X139251428Y-107505714D01*
X139203809Y-107529523D01*
X139180000Y-107553333D01*
X139156190Y-107600952D01*
X139656190Y-108243809D02*
X139656190Y-107958095D01*
X139656190Y-108100952D02*
X139156190Y-108100952D01*
X139227619Y-108053333D01*
X139275238Y-108005714D01*
X139299047Y-107958095D01*
X139703809Y-108339047D02*
X139703809Y-108719999D01*
X139656190Y-108839047D02*
X139156190Y-108839047D01*
X139656190Y-109077142D02*
X139156190Y-109077142D01*
X139156190Y-109267619D01*
X139180000Y-109315238D01*
X139203809Y-109339047D01*
X139251428Y-109362857D01*
X139322857Y-109362857D01*
X139370476Y-109339047D01*
X139394285Y-109315238D01*
X139418095Y-109267619D01*
X139418095Y-109077142D01*
X139632380Y-109553333D02*
X139656190Y-109624761D01*
X139656190Y-109743809D01*
X139632380Y-109791428D01*
X139608571Y-109815238D01*
X139560952Y-109839047D01*
X139513333Y-109839047D01*
X139465714Y-109815238D01*
X139441904Y-109791428D01*
X139418095Y-109743809D01*
X139394285Y-109648571D01*
X139370476Y-109600952D01*
X139346666Y-109577142D01*
X139299047Y-109553333D01*
X139251428Y-109553333D01*
X139203809Y-109577142D01*
X139180000Y-109600952D01*
X139156190Y-109648571D01*
X139156190Y-109767619D01*
X139180000Y-109839047D01*
X139703809Y-109934285D02*
X139703809Y-110315238D01*
X139656190Y-110648571D02*
X139156190Y-110648571D01*
X139632380Y-110648571D02*
X139656190Y-110600952D01*
X139656190Y-110505714D01*
X139632380Y-110458095D01*
X139608571Y-110434285D01*
X139560952Y-110410476D01*
X139418095Y-110410476D01*
X139370476Y-110434285D01*
X139346666Y-110458095D01*
X139322857Y-110505714D01*
X139322857Y-110600952D01*
X139346666Y-110648571D01*
X139656190Y-110886666D02*
X139322857Y-110886666D01*
X139156190Y-110886666D02*
X139180000Y-110862857D01*
X139203809Y-110886666D01*
X139180000Y-110910476D01*
X139156190Y-110886666D01*
X139203809Y-110886666D01*
X139632380Y-111100952D02*
X139656190Y-111148571D01*
X139656190Y-111243809D01*
X139632380Y-111291428D01*
X139584761Y-111315238D01*
X139560952Y-111315238D01*
X139513333Y-111291428D01*
X139489523Y-111243809D01*
X139489523Y-111172380D01*
X139465714Y-111124761D01*
X139418095Y-111100952D01*
X139394285Y-111100952D01*
X139346666Y-111124761D01*
X139322857Y-111172380D01*
X139322857Y-111243809D01*
X139346666Y-111291428D01*
X139322857Y-111529523D02*
X139822857Y-111529523D01*
X139346666Y-111529523D02*
X139322857Y-111577142D01*
X139322857Y-111672380D01*
X139346666Y-111719999D01*
X139370476Y-111743809D01*
X139418095Y-111767619D01*
X139560952Y-111767619D01*
X139608571Y-111743809D01*
X139632380Y-111719999D01*
X139656190Y-111672380D01*
X139656190Y-111577142D01*
X139632380Y-111529523D01*
X139656190Y-112053333D02*
X139632380Y-112005714D01*
X139584761Y-111981904D01*
X139156190Y-111981904D01*
X139656190Y-112458095D02*
X139394285Y-112458095D01*
X139346666Y-112434285D01*
X139322857Y-112386666D01*
X139322857Y-112291428D01*
X139346666Y-112243809D01*
X139632380Y-112458095D02*
X139656190Y-112410476D01*
X139656190Y-112291428D01*
X139632380Y-112243809D01*
X139584761Y-112219999D01*
X139537142Y-112219999D01*
X139489523Y-112243809D01*
X139465714Y-112291428D01*
X139465714Y-112410476D01*
X139441904Y-112458095D01*
X139322857Y-112648571D02*
X139656190Y-112767619D01*
X139322857Y-112886666D02*
X139656190Y-112767619D01*
X139775238Y-112719999D01*
X139799047Y-112696190D01*
X139822857Y-112648571D01*
%TD*%
M02*
