%TF.GenerationSoftware,KiCad,Pcbnew,5.1.5+dfsg1-2~bpo10+1*%
%TF.CreationDate,Date%
%TF.ProjectId,osw,6f73772e-6b69-4636-9164-5f7063625858,1.0*%
%TF.SameCoordinates,Original*%
%TF.FileFunction,Soldermask,Top*%
%TF.FilePolarity,Negative*%
%FSLAX46Y46*%
G04 Gerber Fmt 4.6, Leading zero omitted, Abs format (unit mm)*
G04 Created by KiCad*
%MOMM*%
%LPD*%
G04 APERTURE LIST*
%ADD10R,3.502000X1.802000*%
%ADD11C,0.652000*%
%ADD12C,0.100000*%
%ADD13R,0.802000X1.602000*%
%ADD14R,1.602000X0.802000*%
%ADD15R,2.302000X1.302000*%
%ADD16R,1.502000X1.702000*%
%ADD17R,1.502000X1.302000*%
%ADD18R,1.702000X0.802000*%
%ADD19R,0.752000X1.162000*%
%ADD20R,1.162000X0.752000*%
%ADD21R,0.477000X0.452000*%
%ADD22R,0.452000X0.477000*%
%ADD23R,0.452000X0.602000*%
%ADD24R,1.502000X0.402000*%
%ADD25R,1.002000X0.902000*%
%ADD26O,1.100000X1.100000*%
%ADD27R,0.500000X1.450000*%
%ADD28O,1.600000X2.100000*%
%ADD29R,2.100000X2.100000*%
%ADD30R,0.702000X1.626000*%
%ADD31R,1.626000X0.702000*%
%ADD32R,5.102000X5.102000*%
G04 APERTURE END LIST*
D10*
%TO.C,J1*%
X139890500Y-95440500D03*
X139890500Y-97980500D03*
%TD*%
D11*
%TO.C,SW2*%
X171020589Y-94309865D03*
X169530784Y-93227459D03*
D12*
G36*
X167897302Y-94650622D02*
G01*
X167410274Y-94296776D01*
X168175570Y-93243436D01*
X168662598Y-93597282D01*
X167897302Y-94650622D01*
G37*
G36*
X170607509Y-96619703D02*
G01*
X170120481Y-96265857D01*
X170885777Y-95212517D01*
X171372805Y-95566363D01*
X170607509Y-96619703D01*
G37*
G36*
X168768555Y-93007405D02*
G01*
X167715215Y-92242109D01*
X168480511Y-91188769D01*
X169533851Y-91954065D01*
X168768555Y-93007405D01*
G37*
G36*
X172467381Y-95694760D02*
G01*
X171414041Y-94929464D01*
X172179337Y-93876124D01*
X173232677Y-94641420D01*
X172467381Y-95694760D01*
G37*
%TD*%
D11*
%TO.C,SW1*%
X150539658Y-92967369D03*
X149012986Y-93997122D03*
D12*
G36*
X149791638Y-96018843D02*
G01*
X149292557Y-96355478D01*
X148564488Y-95276071D01*
X149063569Y-94939436D01*
X149791638Y-96018843D01*
G37*
G36*
X152568914Y-94145547D02*
G01*
X152069833Y-94482182D01*
X151341764Y-93402775D01*
X151840845Y-93066140D01*
X152568914Y-94145547D01*
G37*
G36*
X148545506Y-94638121D02*
G01*
X147466099Y-95366190D01*
X146738030Y-94286783D01*
X147817437Y-93558714D01*
X148545506Y-94638121D01*
G37*
G36*
X152335865Y-92081491D02*
G01*
X151256458Y-92809560D01*
X150528389Y-91730153D01*
X151607796Y-91002084D01*
X152335865Y-92081491D01*
G37*
%TD*%
D11*
%TO.C,SW5*%
X150918815Y-127387791D03*
X152445487Y-128417544D03*
D12*
G36*
X154028306Y-126938240D02*
G01*
X154527387Y-127274875D01*
X153799318Y-128354282D01*
X153300237Y-128017647D01*
X154028306Y-126938240D01*
G37*
G36*
X151251030Y-125064944D02*
G01*
X151750111Y-125401579D01*
X151022042Y-126480986D01*
X150522961Y-126144351D01*
X151251030Y-125064944D01*
G37*
G36*
X153214931Y-128610862D02*
G01*
X154294338Y-129338931D01*
X153566269Y-130418338D01*
X152486862Y-129690269D01*
X153214931Y-128610862D01*
G37*
G36*
X149424572Y-126054232D02*
G01*
X150503979Y-126782301D01*
X149775910Y-127861708D01*
X148696503Y-127133639D01*
X149424572Y-126054232D01*
G37*
%TD*%
D11*
%TO.C,SW4*%
X167577766Y-128331569D03*
X169122178Y-127328616D03*
D12*
G36*
X168378928Y-125293613D02*
G01*
X168883808Y-124965740D01*
X169592928Y-126057689D01*
X169088048Y-126385562D01*
X168378928Y-125293613D01*
G37*
G36*
X165569381Y-127118154D02*
G01*
X166074261Y-126790281D01*
X166783381Y-127882230D01*
X166278501Y-128210103D01*
X165569381Y-127118154D01*
G37*
G36*
X169600773Y-126695874D02*
G01*
X170692723Y-125986754D01*
X171401843Y-127078704D01*
X170309893Y-127787824D01*
X169600773Y-126695874D01*
G37*
G36*
X165766372Y-129185963D02*
G01*
X166858322Y-128476843D01*
X167567442Y-129568793D01*
X166475492Y-130277913D01*
X165766372Y-129185963D01*
G37*
%TD*%
D13*
%TO.C,U8*%
X160000000Y-103000000D03*
X161000000Y-103000000D03*
X162000000Y-103000000D03*
X159000000Y-103000000D03*
X158000000Y-103000000D03*
D14*
X155220000Y-102275000D03*
X155220000Y-101275000D03*
X155220000Y-100275000D03*
X155220000Y-99275000D03*
X155220000Y-98275000D03*
X155220000Y-97275000D03*
X155220000Y-96275000D03*
X155220000Y-95275000D03*
X155220000Y-94275000D03*
X155220000Y-93275000D03*
X155220000Y-92275000D03*
X155220000Y-91275000D03*
X155220000Y-90125000D03*
X164780000Y-90125000D03*
X164780000Y-93275000D03*
X164780000Y-102275000D03*
X164780000Y-91275000D03*
X164780000Y-98275000D03*
X164780000Y-92275000D03*
X164780000Y-97275000D03*
X164780000Y-94275000D03*
X164780000Y-95275000D03*
X164780000Y-100275000D03*
X164780000Y-96275000D03*
X164780000Y-101275000D03*
X164780000Y-99275000D03*
%TD*%
D12*
%TO.C,R18*%
G36*
X171489491Y-98687576D02*
G01*
X171513201Y-98691093D01*
X171536452Y-98696917D01*
X171559020Y-98704992D01*
X171580689Y-98715241D01*
X171601248Y-98727564D01*
X171620501Y-98741842D01*
X171638261Y-98757939D01*
X171654358Y-98775699D01*
X171668636Y-98794952D01*
X171680959Y-98815511D01*
X171691208Y-98837180D01*
X171699283Y-98859748D01*
X171705107Y-98882999D01*
X171708624Y-98906709D01*
X171709800Y-98930650D01*
X171709800Y-99494150D01*
X171708624Y-99518091D01*
X171705107Y-99541801D01*
X171699283Y-99565052D01*
X171691208Y-99587620D01*
X171680959Y-99609289D01*
X171668636Y-99629848D01*
X171654358Y-99649101D01*
X171638261Y-99666861D01*
X171620501Y-99682958D01*
X171601248Y-99697236D01*
X171580689Y-99709559D01*
X171559020Y-99719808D01*
X171536452Y-99727883D01*
X171513201Y-99733707D01*
X171489491Y-99737224D01*
X171465550Y-99738400D01*
X170977050Y-99738400D01*
X170953109Y-99737224D01*
X170929399Y-99733707D01*
X170906148Y-99727883D01*
X170883580Y-99719808D01*
X170861911Y-99709559D01*
X170841352Y-99697236D01*
X170822099Y-99682958D01*
X170804339Y-99666861D01*
X170788242Y-99649101D01*
X170773964Y-99629848D01*
X170761641Y-99609289D01*
X170751392Y-99587620D01*
X170743317Y-99565052D01*
X170737493Y-99541801D01*
X170733976Y-99518091D01*
X170732800Y-99494150D01*
X170732800Y-98930650D01*
X170733976Y-98906709D01*
X170737493Y-98882999D01*
X170743317Y-98859748D01*
X170751392Y-98837180D01*
X170761641Y-98815511D01*
X170773964Y-98794952D01*
X170788242Y-98775699D01*
X170804339Y-98757939D01*
X170822099Y-98741842D01*
X170841352Y-98727564D01*
X170861911Y-98715241D01*
X170883580Y-98704992D01*
X170906148Y-98696917D01*
X170929399Y-98691093D01*
X170953109Y-98687576D01*
X170977050Y-98686400D01*
X171465550Y-98686400D01*
X171489491Y-98687576D01*
G37*
G36*
X173064491Y-98687576D02*
G01*
X173088201Y-98691093D01*
X173111452Y-98696917D01*
X173134020Y-98704992D01*
X173155689Y-98715241D01*
X173176248Y-98727564D01*
X173195501Y-98741842D01*
X173213261Y-98757939D01*
X173229358Y-98775699D01*
X173243636Y-98794952D01*
X173255959Y-98815511D01*
X173266208Y-98837180D01*
X173274283Y-98859748D01*
X173280107Y-98882999D01*
X173283624Y-98906709D01*
X173284800Y-98930650D01*
X173284800Y-99494150D01*
X173283624Y-99518091D01*
X173280107Y-99541801D01*
X173274283Y-99565052D01*
X173266208Y-99587620D01*
X173255959Y-99609289D01*
X173243636Y-99629848D01*
X173229358Y-99649101D01*
X173213261Y-99666861D01*
X173195501Y-99682958D01*
X173176248Y-99697236D01*
X173155689Y-99709559D01*
X173134020Y-99719808D01*
X173111452Y-99727883D01*
X173088201Y-99733707D01*
X173064491Y-99737224D01*
X173040550Y-99738400D01*
X172552050Y-99738400D01*
X172528109Y-99737224D01*
X172504399Y-99733707D01*
X172481148Y-99727883D01*
X172458580Y-99719808D01*
X172436911Y-99709559D01*
X172416352Y-99697236D01*
X172397099Y-99682958D01*
X172379339Y-99666861D01*
X172363242Y-99649101D01*
X172348964Y-99629848D01*
X172336641Y-99609289D01*
X172326392Y-99587620D01*
X172318317Y-99565052D01*
X172312493Y-99541801D01*
X172308976Y-99518091D01*
X172307800Y-99494150D01*
X172307800Y-98930650D01*
X172308976Y-98906709D01*
X172312493Y-98882999D01*
X172318317Y-98859748D01*
X172326392Y-98837180D01*
X172336641Y-98815511D01*
X172348964Y-98794952D01*
X172363242Y-98775699D01*
X172379339Y-98757939D01*
X172397099Y-98741842D01*
X172416352Y-98727564D01*
X172436911Y-98715241D01*
X172458580Y-98704992D01*
X172481148Y-98696917D01*
X172504399Y-98691093D01*
X172528109Y-98687576D01*
X172552050Y-98686400D01*
X173040550Y-98686400D01*
X173064491Y-98687576D01*
G37*
%TD*%
%TO.C,C11*%
G36*
X171489491Y-97112776D02*
G01*
X171513201Y-97116293D01*
X171536452Y-97122117D01*
X171559020Y-97130192D01*
X171580689Y-97140441D01*
X171601248Y-97152764D01*
X171620501Y-97167042D01*
X171638261Y-97183139D01*
X171654358Y-97200899D01*
X171668636Y-97220152D01*
X171680959Y-97240711D01*
X171691208Y-97262380D01*
X171699283Y-97284948D01*
X171705107Y-97308199D01*
X171708624Y-97331909D01*
X171709800Y-97355850D01*
X171709800Y-97919350D01*
X171708624Y-97943291D01*
X171705107Y-97967001D01*
X171699283Y-97990252D01*
X171691208Y-98012820D01*
X171680959Y-98034489D01*
X171668636Y-98055048D01*
X171654358Y-98074301D01*
X171638261Y-98092061D01*
X171620501Y-98108158D01*
X171601248Y-98122436D01*
X171580689Y-98134759D01*
X171559020Y-98145008D01*
X171536452Y-98153083D01*
X171513201Y-98158907D01*
X171489491Y-98162424D01*
X171465550Y-98163600D01*
X170977050Y-98163600D01*
X170953109Y-98162424D01*
X170929399Y-98158907D01*
X170906148Y-98153083D01*
X170883580Y-98145008D01*
X170861911Y-98134759D01*
X170841352Y-98122436D01*
X170822099Y-98108158D01*
X170804339Y-98092061D01*
X170788242Y-98074301D01*
X170773964Y-98055048D01*
X170761641Y-98034489D01*
X170751392Y-98012820D01*
X170743317Y-97990252D01*
X170737493Y-97967001D01*
X170733976Y-97943291D01*
X170732800Y-97919350D01*
X170732800Y-97355850D01*
X170733976Y-97331909D01*
X170737493Y-97308199D01*
X170743317Y-97284948D01*
X170751392Y-97262380D01*
X170761641Y-97240711D01*
X170773964Y-97220152D01*
X170788242Y-97200899D01*
X170804339Y-97183139D01*
X170822099Y-97167042D01*
X170841352Y-97152764D01*
X170861911Y-97140441D01*
X170883580Y-97130192D01*
X170906148Y-97122117D01*
X170929399Y-97116293D01*
X170953109Y-97112776D01*
X170977050Y-97111600D01*
X171465550Y-97111600D01*
X171489491Y-97112776D01*
G37*
G36*
X173064491Y-97112776D02*
G01*
X173088201Y-97116293D01*
X173111452Y-97122117D01*
X173134020Y-97130192D01*
X173155689Y-97140441D01*
X173176248Y-97152764D01*
X173195501Y-97167042D01*
X173213261Y-97183139D01*
X173229358Y-97200899D01*
X173243636Y-97220152D01*
X173255959Y-97240711D01*
X173266208Y-97262380D01*
X173274283Y-97284948D01*
X173280107Y-97308199D01*
X173283624Y-97331909D01*
X173284800Y-97355850D01*
X173284800Y-97919350D01*
X173283624Y-97943291D01*
X173280107Y-97967001D01*
X173274283Y-97990252D01*
X173266208Y-98012820D01*
X173255959Y-98034489D01*
X173243636Y-98055048D01*
X173229358Y-98074301D01*
X173213261Y-98092061D01*
X173195501Y-98108158D01*
X173176248Y-98122436D01*
X173155689Y-98134759D01*
X173134020Y-98145008D01*
X173111452Y-98153083D01*
X173088201Y-98158907D01*
X173064491Y-98162424D01*
X173040550Y-98163600D01*
X172552050Y-98163600D01*
X172528109Y-98162424D01*
X172504399Y-98158907D01*
X172481148Y-98153083D01*
X172458580Y-98145008D01*
X172436911Y-98134759D01*
X172416352Y-98122436D01*
X172397099Y-98108158D01*
X172379339Y-98092061D01*
X172363242Y-98074301D01*
X172348964Y-98055048D01*
X172336641Y-98034489D01*
X172326392Y-98012820D01*
X172318317Y-97990252D01*
X172312493Y-97967001D01*
X172308976Y-97943291D01*
X172307800Y-97919350D01*
X172307800Y-97355850D01*
X172308976Y-97331909D01*
X172312493Y-97308199D01*
X172318317Y-97284948D01*
X172326392Y-97262380D01*
X172336641Y-97240711D01*
X172348964Y-97220152D01*
X172363242Y-97200899D01*
X172379339Y-97183139D01*
X172397099Y-97167042D01*
X172416352Y-97152764D01*
X172436911Y-97140441D01*
X172458580Y-97130192D01*
X172481148Y-97122117D01*
X172504399Y-97116293D01*
X172528109Y-97112776D01*
X172552050Y-97111600D01*
X173040550Y-97111600D01*
X173064491Y-97112776D01*
G37*
%TD*%
%TO.C,C21*%
G36*
X169279791Y-97112776D02*
G01*
X169303501Y-97116293D01*
X169326752Y-97122117D01*
X169349320Y-97130192D01*
X169370989Y-97140441D01*
X169391548Y-97152764D01*
X169410801Y-97167042D01*
X169428561Y-97183139D01*
X169444658Y-97200899D01*
X169458936Y-97220152D01*
X169471259Y-97240711D01*
X169481508Y-97262380D01*
X169489583Y-97284948D01*
X169495407Y-97308199D01*
X169498924Y-97331909D01*
X169500100Y-97355850D01*
X169500100Y-97919350D01*
X169498924Y-97943291D01*
X169495407Y-97967001D01*
X169489583Y-97990252D01*
X169481508Y-98012820D01*
X169471259Y-98034489D01*
X169458936Y-98055048D01*
X169444658Y-98074301D01*
X169428561Y-98092061D01*
X169410801Y-98108158D01*
X169391548Y-98122436D01*
X169370989Y-98134759D01*
X169349320Y-98145008D01*
X169326752Y-98153083D01*
X169303501Y-98158907D01*
X169279791Y-98162424D01*
X169255850Y-98163600D01*
X168767350Y-98163600D01*
X168743409Y-98162424D01*
X168719699Y-98158907D01*
X168696448Y-98153083D01*
X168673880Y-98145008D01*
X168652211Y-98134759D01*
X168631652Y-98122436D01*
X168612399Y-98108158D01*
X168594639Y-98092061D01*
X168578542Y-98074301D01*
X168564264Y-98055048D01*
X168551941Y-98034489D01*
X168541692Y-98012820D01*
X168533617Y-97990252D01*
X168527793Y-97967001D01*
X168524276Y-97943291D01*
X168523100Y-97919350D01*
X168523100Y-97355850D01*
X168524276Y-97331909D01*
X168527793Y-97308199D01*
X168533617Y-97284948D01*
X168541692Y-97262380D01*
X168551941Y-97240711D01*
X168564264Y-97220152D01*
X168578542Y-97200899D01*
X168594639Y-97183139D01*
X168612399Y-97167042D01*
X168631652Y-97152764D01*
X168652211Y-97140441D01*
X168673880Y-97130192D01*
X168696448Y-97122117D01*
X168719699Y-97116293D01*
X168743409Y-97112776D01*
X168767350Y-97111600D01*
X169255850Y-97111600D01*
X169279791Y-97112776D01*
G37*
G36*
X167704791Y-97112776D02*
G01*
X167728501Y-97116293D01*
X167751752Y-97122117D01*
X167774320Y-97130192D01*
X167795989Y-97140441D01*
X167816548Y-97152764D01*
X167835801Y-97167042D01*
X167853561Y-97183139D01*
X167869658Y-97200899D01*
X167883936Y-97220152D01*
X167896259Y-97240711D01*
X167906508Y-97262380D01*
X167914583Y-97284948D01*
X167920407Y-97308199D01*
X167923924Y-97331909D01*
X167925100Y-97355850D01*
X167925100Y-97919350D01*
X167923924Y-97943291D01*
X167920407Y-97967001D01*
X167914583Y-97990252D01*
X167906508Y-98012820D01*
X167896259Y-98034489D01*
X167883936Y-98055048D01*
X167869658Y-98074301D01*
X167853561Y-98092061D01*
X167835801Y-98108158D01*
X167816548Y-98122436D01*
X167795989Y-98134759D01*
X167774320Y-98145008D01*
X167751752Y-98153083D01*
X167728501Y-98158907D01*
X167704791Y-98162424D01*
X167680850Y-98163600D01*
X167192350Y-98163600D01*
X167168409Y-98162424D01*
X167144699Y-98158907D01*
X167121448Y-98153083D01*
X167098880Y-98145008D01*
X167077211Y-98134759D01*
X167056652Y-98122436D01*
X167037399Y-98108158D01*
X167019639Y-98092061D01*
X167003542Y-98074301D01*
X166989264Y-98055048D01*
X166976941Y-98034489D01*
X166966692Y-98012820D01*
X166958617Y-97990252D01*
X166952793Y-97967001D01*
X166949276Y-97943291D01*
X166948100Y-97919350D01*
X166948100Y-97355850D01*
X166949276Y-97331909D01*
X166952793Y-97308199D01*
X166958617Y-97284948D01*
X166966692Y-97262380D01*
X166976941Y-97240711D01*
X166989264Y-97220152D01*
X167003542Y-97200899D01*
X167019639Y-97183139D01*
X167037399Y-97167042D01*
X167056652Y-97152764D01*
X167077211Y-97140441D01*
X167098880Y-97130192D01*
X167121448Y-97122117D01*
X167144699Y-97116293D01*
X167168409Y-97112776D01*
X167192350Y-97111600D01*
X167680850Y-97111600D01*
X167704791Y-97112776D01*
G37*
%TD*%
%TO.C,C22*%
G36*
X157430791Y-106866376D02*
G01*
X157454501Y-106869893D01*
X157477752Y-106875717D01*
X157500320Y-106883792D01*
X157521989Y-106894041D01*
X157542548Y-106906364D01*
X157561801Y-106920642D01*
X157579561Y-106936739D01*
X157595658Y-106954499D01*
X157609936Y-106973752D01*
X157622259Y-106994311D01*
X157632508Y-107015980D01*
X157640583Y-107038548D01*
X157646407Y-107061799D01*
X157649924Y-107085509D01*
X157651100Y-107109450D01*
X157651100Y-107672950D01*
X157649924Y-107696891D01*
X157646407Y-107720601D01*
X157640583Y-107743852D01*
X157632508Y-107766420D01*
X157622259Y-107788089D01*
X157609936Y-107808648D01*
X157595658Y-107827901D01*
X157579561Y-107845661D01*
X157561801Y-107861758D01*
X157542548Y-107876036D01*
X157521989Y-107888359D01*
X157500320Y-107898608D01*
X157477752Y-107906683D01*
X157454501Y-107912507D01*
X157430791Y-107916024D01*
X157406850Y-107917200D01*
X156918350Y-107917200D01*
X156894409Y-107916024D01*
X156870699Y-107912507D01*
X156847448Y-107906683D01*
X156824880Y-107898608D01*
X156803211Y-107888359D01*
X156782652Y-107876036D01*
X156763399Y-107861758D01*
X156745639Y-107845661D01*
X156729542Y-107827901D01*
X156715264Y-107808648D01*
X156702941Y-107788089D01*
X156692692Y-107766420D01*
X156684617Y-107743852D01*
X156678793Y-107720601D01*
X156675276Y-107696891D01*
X156674100Y-107672950D01*
X156674100Y-107109450D01*
X156675276Y-107085509D01*
X156678793Y-107061799D01*
X156684617Y-107038548D01*
X156692692Y-107015980D01*
X156702941Y-106994311D01*
X156715264Y-106973752D01*
X156729542Y-106954499D01*
X156745639Y-106936739D01*
X156763399Y-106920642D01*
X156782652Y-106906364D01*
X156803211Y-106894041D01*
X156824880Y-106883792D01*
X156847448Y-106875717D01*
X156870699Y-106869893D01*
X156894409Y-106866376D01*
X156918350Y-106865200D01*
X157406850Y-106865200D01*
X157430791Y-106866376D01*
G37*
G36*
X155855791Y-106866376D02*
G01*
X155879501Y-106869893D01*
X155902752Y-106875717D01*
X155925320Y-106883792D01*
X155946989Y-106894041D01*
X155967548Y-106906364D01*
X155986801Y-106920642D01*
X156004561Y-106936739D01*
X156020658Y-106954499D01*
X156034936Y-106973752D01*
X156047259Y-106994311D01*
X156057508Y-107015980D01*
X156065583Y-107038548D01*
X156071407Y-107061799D01*
X156074924Y-107085509D01*
X156076100Y-107109450D01*
X156076100Y-107672950D01*
X156074924Y-107696891D01*
X156071407Y-107720601D01*
X156065583Y-107743852D01*
X156057508Y-107766420D01*
X156047259Y-107788089D01*
X156034936Y-107808648D01*
X156020658Y-107827901D01*
X156004561Y-107845661D01*
X155986801Y-107861758D01*
X155967548Y-107876036D01*
X155946989Y-107888359D01*
X155925320Y-107898608D01*
X155902752Y-107906683D01*
X155879501Y-107912507D01*
X155855791Y-107916024D01*
X155831850Y-107917200D01*
X155343350Y-107917200D01*
X155319409Y-107916024D01*
X155295699Y-107912507D01*
X155272448Y-107906683D01*
X155249880Y-107898608D01*
X155228211Y-107888359D01*
X155207652Y-107876036D01*
X155188399Y-107861758D01*
X155170639Y-107845661D01*
X155154542Y-107827901D01*
X155140264Y-107808648D01*
X155127941Y-107788089D01*
X155117692Y-107766420D01*
X155109617Y-107743852D01*
X155103793Y-107720601D01*
X155100276Y-107696891D01*
X155099100Y-107672950D01*
X155099100Y-107109450D01*
X155100276Y-107085509D01*
X155103793Y-107061799D01*
X155109617Y-107038548D01*
X155117692Y-107015980D01*
X155127941Y-106994311D01*
X155140264Y-106973752D01*
X155154542Y-106954499D01*
X155170639Y-106936739D01*
X155188399Y-106920642D01*
X155207652Y-106906364D01*
X155228211Y-106894041D01*
X155249880Y-106883792D01*
X155272448Y-106875717D01*
X155295699Y-106869893D01*
X155319409Y-106866376D01*
X155343350Y-106865200D01*
X155831850Y-106865200D01*
X155855791Y-106866376D01*
G37*
%TD*%
%TO.C,C20*%
G36*
X169279791Y-98687576D02*
G01*
X169303501Y-98691093D01*
X169326752Y-98696917D01*
X169349320Y-98704992D01*
X169370989Y-98715241D01*
X169391548Y-98727564D01*
X169410801Y-98741842D01*
X169428561Y-98757939D01*
X169444658Y-98775699D01*
X169458936Y-98794952D01*
X169471259Y-98815511D01*
X169481508Y-98837180D01*
X169489583Y-98859748D01*
X169495407Y-98882999D01*
X169498924Y-98906709D01*
X169500100Y-98930650D01*
X169500100Y-99494150D01*
X169498924Y-99518091D01*
X169495407Y-99541801D01*
X169489583Y-99565052D01*
X169481508Y-99587620D01*
X169471259Y-99609289D01*
X169458936Y-99629848D01*
X169444658Y-99649101D01*
X169428561Y-99666861D01*
X169410801Y-99682958D01*
X169391548Y-99697236D01*
X169370989Y-99709559D01*
X169349320Y-99719808D01*
X169326752Y-99727883D01*
X169303501Y-99733707D01*
X169279791Y-99737224D01*
X169255850Y-99738400D01*
X168767350Y-99738400D01*
X168743409Y-99737224D01*
X168719699Y-99733707D01*
X168696448Y-99727883D01*
X168673880Y-99719808D01*
X168652211Y-99709559D01*
X168631652Y-99697236D01*
X168612399Y-99682958D01*
X168594639Y-99666861D01*
X168578542Y-99649101D01*
X168564264Y-99629848D01*
X168551941Y-99609289D01*
X168541692Y-99587620D01*
X168533617Y-99565052D01*
X168527793Y-99541801D01*
X168524276Y-99518091D01*
X168523100Y-99494150D01*
X168523100Y-98930650D01*
X168524276Y-98906709D01*
X168527793Y-98882999D01*
X168533617Y-98859748D01*
X168541692Y-98837180D01*
X168551941Y-98815511D01*
X168564264Y-98794952D01*
X168578542Y-98775699D01*
X168594639Y-98757939D01*
X168612399Y-98741842D01*
X168631652Y-98727564D01*
X168652211Y-98715241D01*
X168673880Y-98704992D01*
X168696448Y-98696917D01*
X168719699Y-98691093D01*
X168743409Y-98687576D01*
X168767350Y-98686400D01*
X169255850Y-98686400D01*
X169279791Y-98687576D01*
G37*
G36*
X167704791Y-98687576D02*
G01*
X167728501Y-98691093D01*
X167751752Y-98696917D01*
X167774320Y-98704992D01*
X167795989Y-98715241D01*
X167816548Y-98727564D01*
X167835801Y-98741842D01*
X167853561Y-98757939D01*
X167869658Y-98775699D01*
X167883936Y-98794952D01*
X167896259Y-98815511D01*
X167906508Y-98837180D01*
X167914583Y-98859748D01*
X167920407Y-98882999D01*
X167923924Y-98906709D01*
X167925100Y-98930650D01*
X167925100Y-99494150D01*
X167923924Y-99518091D01*
X167920407Y-99541801D01*
X167914583Y-99565052D01*
X167906508Y-99587620D01*
X167896259Y-99609289D01*
X167883936Y-99629848D01*
X167869658Y-99649101D01*
X167853561Y-99666861D01*
X167835801Y-99682958D01*
X167816548Y-99697236D01*
X167795989Y-99709559D01*
X167774320Y-99719808D01*
X167751752Y-99727883D01*
X167728501Y-99733707D01*
X167704791Y-99737224D01*
X167680850Y-99738400D01*
X167192350Y-99738400D01*
X167168409Y-99737224D01*
X167144699Y-99733707D01*
X167121448Y-99727883D01*
X167098880Y-99719808D01*
X167077211Y-99709559D01*
X167056652Y-99697236D01*
X167037399Y-99682958D01*
X167019639Y-99666861D01*
X167003542Y-99649101D01*
X166989264Y-99629848D01*
X166976941Y-99609289D01*
X166966692Y-99587620D01*
X166958617Y-99565052D01*
X166952793Y-99541801D01*
X166949276Y-99518091D01*
X166948100Y-99494150D01*
X166948100Y-98930650D01*
X166949276Y-98906709D01*
X166952793Y-98882999D01*
X166958617Y-98859748D01*
X166966692Y-98837180D01*
X166976941Y-98815511D01*
X166989264Y-98794952D01*
X167003542Y-98775699D01*
X167019639Y-98757939D01*
X167037399Y-98741842D01*
X167056652Y-98727564D01*
X167077211Y-98715241D01*
X167098880Y-98704992D01*
X167121448Y-98696917D01*
X167144699Y-98691093D01*
X167168409Y-98687576D01*
X167192350Y-98686400D01*
X167680850Y-98686400D01*
X167704791Y-98687576D01*
G37*
%TD*%
D15*
%TO.C,XS1*%
X142600000Y-115550000D03*
X142600000Y-100050000D03*
D16*
X152200000Y-114650000D03*
D17*
X152200000Y-100050000D03*
D18*
X152700000Y-101200000D03*
X152700000Y-103400000D03*
X152700000Y-102300000D03*
X152700000Y-104500000D03*
X152700000Y-105600000D03*
X152700000Y-106700000D03*
X152700000Y-110000000D03*
X152700000Y-108900000D03*
X152700000Y-107800000D03*
%TD*%
D12*
%TO.C,R5*%
G36*
X153757957Y-92903033D02*
G01*
X153774751Y-92905524D01*
X153791219Y-92909649D01*
X153807204Y-92915369D01*
X153822552Y-92922628D01*
X153837114Y-92931356D01*
X153850750Y-92941469D01*
X153863329Y-92952871D01*
X153874731Y-92965450D01*
X153884844Y-92979086D01*
X153893572Y-92993648D01*
X153900831Y-93008996D01*
X153906551Y-93024981D01*
X153910676Y-93041449D01*
X153913167Y-93058243D01*
X153914000Y-93075200D01*
X153914000Y-93421200D01*
X153913167Y-93438157D01*
X153910676Y-93454951D01*
X153906551Y-93471419D01*
X153900831Y-93487404D01*
X153893572Y-93502752D01*
X153884844Y-93517314D01*
X153874731Y-93530950D01*
X153863329Y-93543529D01*
X153850750Y-93554931D01*
X153837114Y-93565044D01*
X153822552Y-93573772D01*
X153807204Y-93581031D01*
X153791219Y-93586751D01*
X153774751Y-93590876D01*
X153757957Y-93593367D01*
X153741000Y-93594200D01*
X153345000Y-93594200D01*
X153328043Y-93593367D01*
X153311249Y-93590876D01*
X153294781Y-93586751D01*
X153278796Y-93581031D01*
X153263448Y-93573772D01*
X153248886Y-93565044D01*
X153235250Y-93554931D01*
X153222671Y-93543529D01*
X153211269Y-93530950D01*
X153201156Y-93517314D01*
X153192428Y-93502752D01*
X153185169Y-93487404D01*
X153179449Y-93471419D01*
X153175324Y-93454951D01*
X153172833Y-93438157D01*
X153172000Y-93421200D01*
X153172000Y-93075200D01*
X153172833Y-93058243D01*
X153175324Y-93041449D01*
X153179449Y-93024981D01*
X153185169Y-93008996D01*
X153192428Y-92993648D01*
X153201156Y-92979086D01*
X153211269Y-92965450D01*
X153222671Y-92952871D01*
X153235250Y-92941469D01*
X153248886Y-92931356D01*
X153263448Y-92922628D01*
X153278796Y-92915369D01*
X153294781Y-92909649D01*
X153311249Y-92905524D01*
X153328043Y-92903033D01*
X153345000Y-92902200D01*
X153741000Y-92902200D01*
X153757957Y-92903033D01*
G37*
G36*
X153757957Y-91933033D02*
G01*
X153774751Y-91935524D01*
X153791219Y-91939649D01*
X153807204Y-91945369D01*
X153822552Y-91952628D01*
X153837114Y-91961356D01*
X153850750Y-91971469D01*
X153863329Y-91982871D01*
X153874731Y-91995450D01*
X153884844Y-92009086D01*
X153893572Y-92023648D01*
X153900831Y-92038996D01*
X153906551Y-92054981D01*
X153910676Y-92071449D01*
X153913167Y-92088243D01*
X153914000Y-92105200D01*
X153914000Y-92451200D01*
X153913167Y-92468157D01*
X153910676Y-92484951D01*
X153906551Y-92501419D01*
X153900831Y-92517404D01*
X153893572Y-92532752D01*
X153884844Y-92547314D01*
X153874731Y-92560950D01*
X153863329Y-92573529D01*
X153850750Y-92584931D01*
X153837114Y-92595044D01*
X153822552Y-92603772D01*
X153807204Y-92611031D01*
X153791219Y-92616751D01*
X153774751Y-92620876D01*
X153757957Y-92623367D01*
X153741000Y-92624200D01*
X153345000Y-92624200D01*
X153328043Y-92623367D01*
X153311249Y-92620876D01*
X153294781Y-92616751D01*
X153278796Y-92611031D01*
X153263448Y-92603772D01*
X153248886Y-92595044D01*
X153235250Y-92584931D01*
X153222671Y-92573529D01*
X153211269Y-92560950D01*
X153201156Y-92547314D01*
X153192428Y-92532752D01*
X153185169Y-92517404D01*
X153179449Y-92501419D01*
X153175324Y-92484951D01*
X153172833Y-92468157D01*
X153172000Y-92451200D01*
X153172000Y-92105200D01*
X153172833Y-92088243D01*
X153175324Y-92071449D01*
X153179449Y-92054981D01*
X153185169Y-92038996D01*
X153192428Y-92023648D01*
X153201156Y-92009086D01*
X153211269Y-91995450D01*
X153222671Y-91982871D01*
X153235250Y-91971469D01*
X153248886Y-91961356D01*
X153263448Y-91952628D01*
X153278796Y-91945369D01*
X153294781Y-91939649D01*
X153311249Y-91935524D01*
X153328043Y-91933033D01*
X153345000Y-91932200D01*
X153741000Y-91932200D01*
X153757957Y-91933033D01*
G37*
%TD*%
D19*
%TO.C,U13*%
X162918100Y-109047100D03*
X164818100Y-109047100D03*
X164818100Y-111247100D03*
X163868100Y-111247100D03*
X162918100Y-111247100D03*
%TD*%
D20*
%TO.C,U12*%
X155999000Y-122682000D03*
X155999000Y-123632000D03*
X155999000Y-121732000D03*
X158199000Y-121732000D03*
X158199000Y-122682000D03*
X158199000Y-123632000D03*
%TD*%
%TO.C,U10*%
X158199000Y-117922000D03*
X158199000Y-119822000D03*
X155999000Y-119822000D03*
X155999000Y-118872000D03*
X155999000Y-117922000D03*
%TD*%
D12*
%TO.C,R22*%
G36*
X155855791Y-115019776D02*
G01*
X155879501Y-115023293D01*
X155902752Y-115029117D01*
X155925320Y-115037192D01*
X155946989Y-115047441D01*
X155967548Y-115059764D01*
X155986801Y-115074042D01*
X156004561Y-115090139D01*
X156020658Y-115107899D01*
X156034936Y-115127152D01*
X156047259Y-115147711D01*
X156057508Y-115169380D01*
X156065583Y-115191948D01*
X156071407Y-115215199D01*
X156074924Y-115238909D01*
X156076100Y-115262850D01*
X156076100Y-115826350D01*
X156074924Y-115850291D01*
X156071407Y-115874001D01*
X156065583Y-115897252D01*
X156057508Y-115919820D01*
X156047259Y-115941489D01*
X156034936Y-115962048D01*
X156020658Y-115981301D01*
X156004561Y-115999061D01*
X155986801Y-116015158D01*
X155967548Y-116029436D01*
X155946989Y-116041759D01*
X155925320Y-116052008D01*
X155902752Y-116060083D01*
X155879501Y-116065907D01*
X155855791Y-116069424D01*
X155831850Y-116070600D01*
X155343350Y-116070600D01*
X155319409Y-116069424D01*
X155295699Y-116065907D01*
X155272448Y-116060083D01*
X155249880Y-116052008D01*
X155228211Y-116041759D01*
X155207652Y-116029436D01*
X155188399Y-116015158D01*
X155170639Y-115999061D01*
X155154542Y-115981301D01*
X155140264Y-115962048D01*
X155127941Y-115941489D01*
X155117692Y-115919820D01*
X155109617Y-115897252D01*
X155103793Y-115874001D01*
X155100276Y-115850291D01*
X155099100Y-115826350D01*
X155099100Y-115262850D01*
X155100276Y-115238909D01*
X155103793Y-115215199D01*
X155109617Y-115191948D01*
X155117692Y-115169380D01*
X155127941Y-115147711D01*
X155140264Y-115127152D01*
X155154542Y-115107899D01*
X155170639Y-115090139D01*
X155188399Y-115074042D01*
X155207652Y-115059764D01*
X155228211Y-115047441D01*
X155249880Y-115037192D01*
X155272448Y-115029117D01*
X155295699Y-115023293D01*
X155319409Y-115019776D01*
X155343350Y-115018600D01*
X155831850Y-115018600D01*
X155855791Y-115019776D01*
G37*
G36*
X157430791Y-115019776D02*
G01*
X157454501Y-115023293D01*
X157477752Y-115029117D01*
X157500320Y-115037192D01*
X157521989Y-115047441D01*
X157542548Y-115059764D01*
X157561801Y-115074042D01*
X157579561Y-115090139D01*
X157595658Y-115107899D01*
X157609936Y-115127152D01*
X157622259Y-115147711D01*
X157632508Y-115169380D01*
X157640583Y-115191948D01*
X157646407Y-115215199D01*
X157649924Y-115238909D01*
X157651100Y-115262850D01*
X157651100Y-115826350D01*
X157649924Y-115850291D01*
X157646407Y-115874001D01*
X157640583Y-115897252D01*
X157632508Y-115919820D01*
X157622259Y-115941489D01*
X157609936Y-115962048D01*
X157595658Y-115981301D01*
X157579561Y-115999061D01*
X157561801Y-116015158D01*
X157542548Y-116029436D01*
X157521989Y-116041759D01*
X157500320Y-116052008D01*
X157477752Y-116060083D01*
X157454501Y-116065907D01*
X157430791Y-116069424D01*
X157406850Y-116070600D01*
X156918350Y-116070600D01*
X156894409Y-116069424D01*
X156870699Y-116065907D01*
X156847448Y-116060083D01*
X156824880Y-116052008D01*
X156803211Y-116041759D01*
X156782652Y-116029436D01*
X156763399Y-116015158D01*
X156745639Y-115999061D01*
X156729542Y-115981301D01*
X156715264Y-115962048D01*
X156702941Y-115941489D01*
X156692692Y-115919820D01*
X156684617Y-115897252D01*
X156678793Y-115874001D01*
X156675276Y-115850291D01*
X156674100Y-115826350D01*
X156674100Y-115262850D01*
X156675276Y-115238909D01*
X156678793Y-115215199D01*
X156684617Y-115191948D01*
X156692692Y-115169380D01*
X156702941Y-115147711D01*
X156715264Y-115127152D01*
X156729542Y-115107899D01*
X156745639Y-115090139D01*
X156763399Y-115074042D01*
X156782652Y-115059764D01*
X156803211Y-115047441D01*
X156824880Y-115037192D01*
X156847448Y-115029117D01*
X156870699Y-115023293D01*
X156894409Y-115019776D01*
X156918350Y-115018600D01*
X157406850Y-115018600D01*
X157430791Y-115019776D01*
G37*
%TD*%
%TO.C,R21*%
G36*
X157430791Y-113495776D02*
G01*
X157454501Y-113499293D01*
X157477752Y-113505117D01*
X157500320Y-113513192D01*
X157521989Y-113523441D01*
X157542548Y-113535764D01*
X157561801Y-113550042D01*
X157579561Y-113566139D01*
X157595658Y-113583899D01*
X157609936Y-113603152D01*
X157622259Y-113623711D01*
X157632508Y-113645380D01*
X157640583Y-113667948D01*
X157646407Y-113691199D01*
X157649924Y-113714909D01*
X157651100Y-113738850D01*
X157651100Y-114302350D01*
X157649924Y-114326291D01*
X157646407Y-114350001D01*
X157640583Y-114373252D01*
X157632508Y-114395820D01*
X157622259Y-114417489D01*
X157609936Y-114438048D01*
X157595658Y-114457301D01*
X157579561Y-114475061D01*
X157561801Y-114491158D01*
X157542548Y-114505436D01*
X157521989Y-114517759D01*
X157500320Y-114528008D01*
X157477752Y-114536083D01*
X157454501Y-114541907D01*
X157430791Y-114545424D01*
X157406850Y-114546600D01*
X156918350Y-114546600D01*
X156894409Y-114545424D01*
X156870699Y-114541907D01*
X156847448Y-114536083D01*
X156824880Y-114528008D01*
X156803211Y-114517759D01*
X156782652Y-114505436D01*
X156763399Y-114491158D01*
X156745639Y-114475061D01*
X156729542Y-114457301D01*
X156715264Y-114438048D01*
X156702941Y-114417489D01*
X156692692Y-114395820D01*
X156684617Y-114373252D01*
X156678793Y-114350001D01*
X156675276Y-114326291D01*
X156674100Y-114302350D01*
X156674100Y-113738850D01*
X156675276Y-113714909D01*
X156678793Y-113691199D01*
X156684617Y-113667948D01*
X156692692Y-113645380D01*
X156702941Y-113623711D01*
X156715264Y-113603152D01*
X156729542Y-113583899D01*
X156745639Y-113566139D01*
X156763399Y-113550042D01*
X156782652Y-113535764D01*
X156803211Y-113523441D01*
X156824880Y-113513192D01*
X156847448Y-113505117D01*
X156870699Y-113499293D01*
X156894409Y-113495776D01*
X156918350Y-113494600D01*
X157406850Y-113494600D01*
X157430791Y-113495776D01*
G37*
G36*
X155855791Y-113495776D02*
G01*
X155879501Y-113499293D01*
X155902752Y-113505117D01*
X155925320Y-113513192D01*
X155946989Y-113523441D01*
X155967548Y-113535764D01*
X155986801Y-113550042D01*
X156004561Y-113566139D01*
X156020658Y-113583899D01*
X156034936Y-113603152D01*
X156047259Y-113623711D01*
X156057508Y-113645380D01*
X156065583Y-113667948D01*
X156071407Y-113691199D01*
X156074924Y-113714909D01*
X156076100Y-113738850D01*
X156076100Y-114302350D01*
X156074924Y-114326291D01*
X156071407Y-114350001D01*
X156065583Y-114373252D01*
X156057508Y-114395820D01*
X156047259Y-114417489D01*
X156034936Y-114438048D01*
X156020658Y-114457301D01*
X156004561Y-114475061D01*
X155986801Y-114491158D01*
X155967548Y-114505436D01*
X155946989Y-114517759D01*
X155925320Y-114528008D01*
X155902752Y-114536083D01*
X155879501Y-114541907D01*
X155855791Y-114545424D01*
X155831850Y-114546600D01*
X155343350Y-114546600D01*
X155319409Y-114545424D01*
X155295699Y-114541907D01*
X155272448Y-114536083D01*
X155249880Y-114528008D01*
X155228211Y-114517759D01*
X155207652Y-114505436D01*
X155188399Y-114491158D01*
X155170639Y-114475061D01*
X155154542Y-114457301D01*
X155140264Y-114438048D01*
X155127941Y-114417489D01*
X155117692Y-114395820D01*
X155109617Y-114373252D01*
X155103793Y-114350001D01*
X155100276Y-114326291D01*
X155099100Y-114302350D01*
X155099100Y-113738850D01*
X155100276Y-113714909D01*
X155103793Y-113691199D01*
X155109617Y-113667948D01*
X155117692Y-113645380D01*
X155127941Y-113623711D01*
X155140264Y-113603152D01*
X155154542Y-113583899D01*
X155170639Y-113566139D01*
X155188399Y-113550042D01*
X155207652Y-113535764D01*
X155228211Y-113523441D01*
X155249880Y-113513192D01*
X155272448Y-113505117D01*
X155295699Y-113499293D01*
X155319409Y-113495776D01*
X155343350Y-113494600D01*
X155831850Y-113494600D01*
X155855791Y-113495776D01*
G37*
%TD*%
%TO.C,R20*%
G36*
X164911091Y-114003776D02*
G01*
X164934801Y-114007293D01*
X164958052Y-114013117D01*
X164980620Y-114021192D01*
X165002289Y-114031441D01*
X165022848Y-114043764D01*
X165042101Y-114058042D01*
X165059861Y-114074139D01*
X165075958Y-114091899D01*
X165090236Y-114111152D01*
X165102559Y-114131711D01*
X165112808Y-114153380D01*
X165120883Y-114175948D01*
X165126707Y-114199199D01*
X165130224Y-114222909D01*
X165131400Y-114246850D01*
X165131400Y-114810350D01*
X165130224Y-114834291D01*
X165126707Y-114858001D01*
X165120883Y-114881252D01*
X165112808Y-114903820D01*
X165102559Y-114925489D01*
X165090236Y-114946048D01*
X165075958Y-114965301D01*
X165059861Y-114983061D01*
X165042101Y-114999158D01*
X165022848Y-115013436D01*
X165002289Y-115025759D01*
X164980620Y-115036008D01*
X164958052Y-115044083D01*
X164934801Y-115049907D01*
X164911091Y-115053424D01*
X164887150Y-115054600D01*
X164398650Y-115054600D01*
X164374709Y-115053424D01*
X164350999Y-115049907D01*
X164327748Y-115044083D01*
X164305180Y-115036008D01*
X164283511Y-115025759D01*
X164262952Y-115013436D01*
X164243699Y-114999158D01*
X164225939Y-114983061D01*
X164209842Y-114965301D01*
X164195564Y-114946048D01*
X164183241Y-114925489D01*
X164172992Y-114903820D01*
X164164917Y-114881252D01*
X164159093Y-114858001D01*
X164155576Y-114834291D01*
X164154400Y-114810350D01*
X164154400Y-114246850D01*
X164155576Y-114222909D01*
X164159093Y-114199199D01*
X164164917Y-114175948D01*
X164172992Y-114153380D01*
X164183241Y-114131711D01*
X164195564Y-114111152D01*
X164209842Y-114091899D01*
X164225939Y-114074139D01*
X164243699Y-114058042D01*
X164262952Y-114043764D01*
X164283511Y-114031441D01*
X164305180Y-114021192D01*
X164327748Y-114013117D01*
X164350999Y-114007293D01*
X164374709Y-114003776D01*
X164398650Y-114002600D01*
X164887150Y-114002600D01*
X164911091Y-114003776D01*
G37*
G36*
X163336091Y-114003776D02*
G01*
X163359801Y-114007293D01*
X163383052Y-114013117D01*
X163405620Y-114021192D01*
X163427289Y-114031441D01*
X163447848Y-114043764D01*
X163467101Y-114058042D01*
X163484861Y-114074139D01*
X163500958Y-114091899D01*
X163515236Y-114111152D01*
X163527559Y-114131711D01*
X163537808Y-114153380D01*
X163545883Y-114175948D01*
X163551707Y-114199199D01*
X163555224Y-114222909D01*
X163556400Y-114246850D01*
X163556400Y-114810350D01*
X163555224Y-114834291D01*
X163551707Y-114858001D01*
X163545883Y-114881252D01*
X163537808Y-114903820D01*
X163527559Y-114925489D01*
X163515236Y-114946048D01*
X163500958Y-114965301D01*
X163484861Y-114983061D01*
X163467101Y-114999158D01*
X163447848Y-115013436D01*
X163427289Y-115025759D01*
X163405620Y-115036008D01*
X163383052Y-115044083D01*
X163359801Y-115049907D01*
X163336091Y-115053424D01*
X163312150Y-115054600D01*
X162823650Y-115054600D01*
X162799709Y-115053424D01*
X162775999Y-115049907D01*
X162752748Y-115044083D01*
X162730180Y-115036008D01*
X162708511Y-115025759D01*
X162687952Y-115013436D01*
X162668699Y-114999158D01*
X162650939Y-114983061D01*
X162634842Y-114965301D01*
X162620564Y-114946048D01*
X162608241Y-114925489D01*
X162597992Y-114903820D01*
X162589917Y-114881252D01*
X162584093Y-114858001D01*
X162580576Y-114834291D01*
X162579400Y-114810350D01*
X162579400Y-114246850D01*
X162580576Y-114222909D01*
X162584093Y-114199199D01*
X162589917Y-114175948D01*
X162597992Y-114153380D01*
X162608241Y-114131711D01*
X162620564Y-114111152D01*
X162634842Y-114091899D01*
X162650939Y-114074139D01*
X162668699Y-114058042D01*
X162687952Y-114043764D01*
X162708511Y-114031441D01*
X162730180Y-114021192D01*
X162752748Y-114013117D01*
X162775999Y-114007293D01*
X162799709Y-114003776D01*
X162823650Y-114002600D01*
X163312150Y-114002600D01*
X163336091Y-114003776D01*
G37*
%TD*%
%TO.C,R12*%
G36*
X159571791Y-106828276D02*
G01*
X159595501Y-106831793D01*
X159618752Y-106837617D01*
X159641320Y-106845692D01*
X159662989Y-106855941D01*
X159683548Y-106868264D01*
X159702801Y-106882542D01*
X159720561Y-106898639D01*
X159736658Y-106916399D01*
X159750936Y-106935652D01*
X159763259Y-106956211D01*
X159773508Y-106977880D01*
X159781583Y-107000448D01*
X159787407Y-107023699D01*
X159790924Y-107047409D01*
X159792100Y-107071350D01*
X159792100Y-107634850D01*
X159790924Y-107658791D01*
X159787407Y-107682501D01*
X159781583Y-107705752D01*
X159773508Y-107728320D01*
X159763259Y-107749989D01*
X159750936Y-107770548D01*
X159736658Y-107789801D01*
X159720561Y-107807561D01*
X159702801Y-107823658D01*
X159683548Y-107837936D01*
X159662989Y-107850259D01*
X159641320Y-107860508D01*
X159618752Y-107868583D01*
X159595501Y-107874407D01*
X159571791Y-107877924D01*
X159547850Y-107879100D01*
X159059350Y-107879100D01*
X159035409Y-107877924D01*
X159011699Y-107874407D01*
X158988448Y-107868583D01*
X158965880Y-107860508D01*
X158944211Y-107850259D01*
X158923652Y-107837936D01*
X158904399Y-107823658D01*
X158886639Y-107807561D01*
X158870542Y-107789801D01*
X158856264Y-107770548D01*
X158843941Y-107749989D01*
X158833692Y-107728320D01*
X158825617Y-107705752D01*
X158819793Y-107682501D01*
X158816276Y-107658791D01*
X158815100Y-107634850D01*
X158815100Y-107071350D01*
X158816276Y-107047409D01*
X158819793Y-107023699D01*
X158825617Y-107000448D01*
X158833692Y-106977880D01*
X158843941Y-106956211D01*
X158856264Y-106935652D01*
X158870542Y-106916399D01*
X158886639Y-106898639D01*
X158904399Y-106882542D01*
X158923652Y-106868264D01*
X158944211Y-106855941D01*
X158965880Y-106845692D01*
X158988448Y-106837617D01*
X159011699Y-106831793D01*
X159035409Y-106828276D01*
X159059350Y-106827100D01*
X159547850Y-106827100D01*
X159571791Y-106828276D01*
G37*
G36*
X161146791Y-106828276D02*
G01*
X161170501Y-106831793D01*
X161193752Y-106837617D01*
X161216320Y-106845692D01*
X161237989Y-106855941D01*
X161258548Y-106868264D01*
X161277801Y-106882542D01*
X161295561Y-106898639D01*
X161311658Y-106916399D01*
X161325936Y-106935652D01*
X161338259Y-106956211D01*
X161348508Y-106977880D01*
X161356583Y-107000448D01*
X161362407Y-107023699D01*
X161365924Y-107047409D01*
X161367100Y-107071350D01*
X161367100Y-107634850D01*
X161365924Y-107658791D01*
X161362407Y-107682501D01*
X161356583Y-107705752D01*
X161348508Y-107728320D01*
X161338259Y-107749989D01*
X161325936Y-107770548D01*
X161311658Y-107789801D01*
X161295561Y-107807561D01*
X161277801Y-107823658D01*
X161258548Y-107837936D01*
X161237989Y-107850259D01*
X161216320Y-107860508D01*
X161193752Y-107868583D01*
X161170501Y-107874407D01*
X161146791Y-107877924D01*
X161122850Y-107879100D01*
X160634350Y-107879100D01*
X160610409Y-107877924D01*
X160586699Y-107874407D01*
X160563448Y-107868583D01*
X160540880Y-107860508D01*
X160519211Y-107850259D01*
X160498652Y-107837936D01*
X160479399Y-107823658D01*
X160461639Y-107807561D01*
X160445542Y-107789801D01*
X160431264Y-107770548D01*
X160418941Y-107749989D01*
X160408692Y-107728320D01*
X160400617Y-107705752D01*
X160394793Y-107682501D01*
X160391276Y-107658791D01*
X160390100Y-107634850D01*
X160390100Y-107071350D01*
X160391276Y-107047409D01*
X160394793Y-107023699D01*
X160400617Y-107000448D01*
X160408692Y-106977880D01*
X160418941Y-106956211D01*
X160431264Y-106935652D01*
X160445542Y-106916399D01*
X160461639Y-106898639D01*
X160479399Y-106882542D01*
X160498652Y-106868264D01*
X160519211Y-106855941D01*
X160540880Y-106845692D01*
X160563448Y-106837617D01*
X160586699Y-106831793D01*
X160610409Y-106828276D01*
X160634350Y-106827100D01*
X161122850Y-106827100D01*
X161146791Y-106828276D01*
G37*
%TD*%
%TO.C,R3*%
G36*
X169279791Y-103411976D02*
G01*
X169303501Y-103415493D01*
X169326752Y-103421317D01*
X169349320Y-103429392D01*
X169370989Y-103439641D01*
X169391548Y-103451964D01*
X169410801Y-103466242D01*
X169428561Y-103482339D01*
X169444658Y-103500099D01*
X169458936Y-103519352D01*
X169471259Y-103539911D01*
X169481508Y-103561580D01*
X169489583Y-103584148D01*
X169495407Y-103607399D01*
X169498924Y-103631109D01*
X169500100Y-103655050D01*
X169500100Y-104218550D01*
X169498924Y-104242491D01*
X169495407Y-104266201D01*
X169489583Y-104289452D01*
X169481508Y-104312020D01*
X169471259Y-104333689D01*
X169458936Y-104354248D01*
X169444658Y-104373501D01*
X169428561Y-104391261D01*
X169410801Y-104407358D01*
X169391548Y-104421636D01*
X169370989Y-104433959D01*
X169349320Y-104444208D01*
X169326752Y-104452283D01*
X169303501Y-104458107D01*
X169279791Y-104461624D01*
X169255850Y-104462800D01*
X168767350Y-104462800D01*
X168743409Y-104461624D01*
X168719699Y-104458107D01*
X168696448Y-104452283D01*
X168673880Y-104444208D01*
X168652211Y-104433959D01*
X168631652Y-104421636D01*
X168612399Y-104407358D01*
X168594639Y-104391261D01*
X168578542Y-104373501D01*
X168564264Y-104354248D01*
X168551941Y-104333689D01*
X168541692Y-104312020D01*
X168533617Y-104289452D01*
X168527793Y-104266201D01*
X168524276Y-104242491D01*
X168523100Y-104218550D01*
X168523100Y-103655050D01*
X168524276Y-103631109D01*
X168527793Y-103607399D01*
X168533617Y-103584148D01*
X168541692Y-103561580D01*
X168551941Y-103539911D01*
X168564264Y-103519352D01*
X168578542Y-103500099D01*
X168594639Y-103482339D01*
X168612399Y-103466242D01*
X168631652Y-103451964D01*
X168652211Y-103439641D01*
X168673880Y-103429392D01*
X168696448Y-103421317D01*
X168719699Y-103415493D01*
X168743409Y-103411976D01*
X168767350Y-103410800D01*
X169255850Y-103410800D01*
X169279791Y-103411976D01*
G37*
G36*
X167704791Y-103411976D02*
G01*
X167728501Y-103415493D01*
X167751752Y-103421317D01*
X167774320Y-103429392D01*
X167795989Y-103439641D01*
X167816548Y-103451964D01*
X167835801Y-103466242D01*
X167853561Y-103482339D01*
X167869658Y-103500099D01*
X167883936Y-103519352D01*
X167896259Y-103539911D01*
X167906508Y-103561580D01*
X167914583Y-103584148D01*
X167920407Y-103607399D01*
X167923924Y-103631109D01*
X167925100Y-103655050D01*
X167925100Y-104218550D01*
X167923924Y-104242491D01*
X167920407Y-104266201D01*
X167914583Y-104289452D01*
X167906508Y-104312020D01*
X167896259Y-104333689D01*
X167883936Y-104354248D01*
X167869658Y-104373501D01*
X167853561Y-104391261D01*
X167835801Y-104407358D01*
X167816548Y-104421636D01*
X167795989Y-104433959D01*
X167774320Y-104444208D01*
X167751752Y-104452283D01*
X167728501Y-104458107D01*
X167704791Y-104461624D01*
X167680850Y-104462800D01*
X167192350Y-104462800D01*
X167168409Y-104461624D01*
X167144699Y-104458107D01*
X167121448Y-104452283D01*
X167098880Y-104444208D01*
X167077211Y-104433959D01*
X167056652Y-104421636D01*
X167037399Y-104407358D01*
X167019639Y-104391261D01*
X167003542Y-104373501D01*
X166989264Y-104354248D01*
X166976941Y-104333689D01*
X166966692Y-104312020D01*
X166958617Y-104289452D01*
X166952793Y-104266201D01*
X166949276Y-104242491D01*
X166948100Y-104218550D01*
X166948100Y-103655050D01*
X166949276Y-103631109D01*
X166952793Y-103607399D01*
X166958617Y-103584148D01*
X166966692Y-103561580D01*
X166976941Y-103539911D01*
X166989264Y-103519352D01*
X167003542Y-103500099D01*
X167019639Y-103482339D01*
X167037399Y-103466242D01*
X167056652Y-103451964D01*
X167077211Y-103439641D01*
X167098880Y-103429392D01*
X167121448Y-103421317D01*
X167144699Y-103415493D01*
X167168409Y-103411976D01*
X167192350Y-103410800D01*
X167680850Y-103410800D01*
X167704791Y-103411976D01*
G37*
%TD*%
%TO.C,R2*%
G36*
X161146791Y-105304276D02*
G01*
X161170501Y-105307793D01*
X161193752Y-105313617D01*
X161216320Y-105321692D01*
X161237989Y-105331941D01*
X161258548Y-105344264D01*
X161277801Y-105358542D01*
X161295561Y-105374639D01*
X161311658Y-105392399D01*
X161325936Y-105411652D01*
X161338259Y-105432211D01*
X161348508Y-105453880D01*
X161356583Y-105476448D01*
X161362407Y-105499699D01*
X161365924Y-105523409D01*
X161367100Y-105547350D01*
X161367100Y-106110850D01*
X161365924Y-106134791D01*
X161362407Y-106158501D01*
X161356583Y-106181752D01*
X161348508Y-106204320D01*
X161338259Y-106225989D01*
X161325936Y-106246548D01*
X161311658Y-106265801D01*
X161295561Y-106283561D01*
X161277801Y-106299658D01*
X161258548Y-106313936D01*
X161237989Y-106326259D01*
X161216320Y-106336508D01*
X161193752Y-106344583D01*
X161170501Y-106350407D01*
X161146791Y-106353924D01*
X161122850Y-106355100D01*
X160634350Y-106355100D01*
X160610409Y-106353924D01*
X160586699Y-106350407D01*
X160563448Y-106344583D01*
X160540880Y-106336508D01*
X160519211Y-106326259D01*
X160498652Y-106313936D01*
X160479399Y-106299658D01*
X160461639Y-106283561D01*
X160445542Y-106265801D01*
X160431264Y-106246548D01*
X160418941Y-106225989D01*
X160408692Y-106204320D01*
X160400617Y-106181752D01*
X160394793Y-106158501D01*
X160391276Y-106134791D01*
X160390100Y-106110850D01*
X160390100Y-105547350D01*
X160391276Y-105523409D01*
X160394793Y-105499699D01*
X160400617Y-105476448D01*
X160408692Y-105453880D01*
X160418941Y-105432211D01*
X160431264Y-105411652D01*
X160445542Y-105392399D01*
X160461639Y-105374639D01*
X160479399Y-105358542D01*
X160498652Y-105344264D01*
X160519211Y-105331941D01*
X160540880Y-105321692D01*
X160563448Y-105313617D01*
X160586699Y-105307793D01*
X160610409Y-105304276D01*
X160634350Y-105303100D01*
X161122850Y-105303100D01*
X161146791Y-105304276D01*
G37*
G36*
X159571791Y-105304276D02*
G01*
X159595501Y-105307793D01*
X159618752Y-105313617D01*
X159641320Y-105321692D01*
X159662989Y-105331941D01*
X159683548Y-105344264D01*
X159702801Y-105358542D01*
X159720561Y-105374639D01*
X159736658Y-105392399D01*
X159750936Y-105411652D01*
X159763259Y-105432211D01*
X159773508Y-105453880D01*
X159781583Y-105476448D01*
X159787407Y-105499699D01*
X159790924Y-105523409D01*
X159792100Y-105547350D01*
X159792100Y-106110850D01*
X159790924Y-106134791D01*
X159787407Y-106158501D01*
X159781583Y-106181752D01*
X159773508Y-106204320D01*
X159763259Y-106225989D01*
X159750936Y-106246548D01*
X159736658Y-106265801D01*
X159720561Y-106283561D01*
X159702801Y-106299658D01*
X159683548Y-106313936D01*
X159662989Y-106326259D01*
X159641320Y-106336508D01*
X159618752Y-106344583D01*
X159595501Y-106350407D01*
X159571791Y-106353924D01*
X159547850Y-106355100D01*
X159059350Y-106355100D01*
X159035409Y-106353924D01*
X159011699Y-106350407D01*
X158988448Y-106344583D01*
X158965880Y-106336508D01*
X158944211Y-106326259D01*
X158923652Y-106313936D01*
X158904399Y-106299658D01*
X158886639Y-106283561D01*
X158870542Y-106265801D01*
X158856264Y-106246548D01*
X158843941Y-106225989D01*
X158833692Y-106204320D01*
X158825617Y-106181752D01*
X158819793Y-106158501D01*
X158816276Y-106134791D01*
X158815100Y-106110850D01*
X158815100Y-105547350D01*
X158816276Y-105523409D01*
X158819793Y-105499699D01*
X158825617Y-105476448D01*
X158833692Y-105453880D01*
X158843941Y-105432211D01*
X158856264Y-105411652D01*
X158870542Y-105392399D01*
X158886639Y-105374639D01*
X158904399Y-105358542D01*
X158923652Y-105344264D01*
X158944211Y-105331941D01*
X158965880Y-105321692D01*
X158988448Y-105313617D01*
X159011699Y-105307793D01*
X159035409Y-105304276D01*
X159059350Y-105303100D01*
X159547850Y-105303100D01*
X159571791Y-105304276D01*
G37*
%TD*%
%TO.C,C19*%
G36*
X164898291Y-105304276D02*
G01*
X164922001Y-105307793D01*
X164945252Y-105313617D01*
X164967820Y-105321692D01*
X164989489Y-105331941D01*
X165010048Y-105344264D01*
X165029301Y-105358542D01*
X165047061Y-105374639D01*
X165063158Y-105392399D01*
X165077436Y-105411652D01*
X165089759Y-105432211D01*
X165100008Y-105453880D01*
X165108083Y-105476448D01*
X165113907Y-105499699D01*
X165117424Y-105523409D01*
X165118600Y-105547350D01*
X165118600Y-106110850D01*
X165117424Y-106134791D01*
X165113907Y-106158501D01*
X165108083Y-106181752D01*
X165100008Y-106204320D01*
X165089759Y-106225989D01*
X165077436Y-106246548D01*
X165063158Y-106265801D01*
X165047061Y-106283561D01*
X165029301Y-106299658D01*
X165010048Y-106313936D01*
X164989489Y-106326259D01*
X164967820Y-106336508D01*
X164945252Y-106344583D01*
X164922001Y-106350407D01*
X164898291Y-106353924D01*
X164874350Y-106355100D01*
X164385850Y-106355100D01*
X164361909Y-106353924D01*
X164338199Y-106350407D01*
X164314948Y-106344583D01*
X164292380Y-106336508D01*
X164270711Y-106326259D01*
X164250152Y-106313936D01*
X164230899Y-106299658D01*
X164213139Y-106283561D01*
X164197042Y-106265801D01*
X164182764Y-106246548D01*
X164170441Y-106225989D01*
X164160192Y-106204320D01*
X164152117Y-106181752D01*
X164146293Y-106158501D01*
X164142776Y-106134791D01*
X164141600Y-106110850D01*
X164141600Y-105547350D01*
X164142776Y-105523409D01*
X164146293Y-105499699D01*
X164152117Y-105476448D01*
X164160192Y-105453880D01*
X164170441Y-105432211D01*
X164182764Y-105411652D01*
X164197042Y-105392399D01*
X164213139Y-105374639D01*
X164230899Y-105358542D01*
X164250152Y-105344264D01*
X164270711Y-105331941D01*
X164292380Y-105321692D01*
X164314948Y-105313617D01*
X164338199Y-105307793D01*
X164361909Y-105304276D01*
X164385850Y-105303100D01*
X164874350Y-105303100D01*
X164898291Y-105304276D01*
G37*
G36*
X163323291Y-105304276D02*
G01*
X163347001Y-105307793D01*
X163370252Y-105313617D01*
X163392820Y-105321692D01*
X163414489Y-105331941D01*
X163435048Y-105344264D01*
X163454301Y-105358542D01*
X163472061Y-105374639D01*
X163488158Y-105392399D01*
X163502436Y-105411652D01*
X163514759Y-105432211D01*
X163525008Y-105453880D01*
X163533083Y-105476448D01*
X163538907Y-105499699D01*
X163542424Y-105523409D01*
X163543600Y-105547350D01*
X163543600Y-106110850D01*
X163542424Y-106134791D01*
X163538907Y-106158501D01*
X163533083Y-106181752D01*
X163525008Y-106204320D01*
X163514759Y-106225989D01*
X163502436Y-106246548D01*
X163488158Y-106265801D01*
X163472061Y-106283561D01*
X163454301Y-106299658D01*
X163435048Y-106313936D01*
X163414489Y-106326259D01*
X163392820Y-106336508D01*
X163370252Y-106344583D01*
X163347001Y-106350407D01*
X163323291Y-106353924D01*
X163299350Y-106355100D01*
X162810850Y-106355100D01*
X162786909Y-106353924D01*
X162763199Y-106350407D01*
X162739948Y-106344583D01*
X162717380Y-106336508D01*
X162695711Y-106326259D01*
X162675152Y-106313936D01*
X162655899Y-106299658D01*
X162638139Y-106283561D01*
X162622042Y-106265801D01*
X162607764Y-106246548D01*
X162595441Y-106225989D01*
X162585192Y-106204320D01*
X162577117Y-106181752D01*
X162571293Y-106158501D01*
X162567776Y-106134791D01*
X162566600Y-106110850D01*
X162566600Y-105547350D01*
X162567776Y-105523409D01*
X162571293Y-105499699D01*
X162577117Y-105476448D01*
X162585192Y-105453880D01*
X162595441Y-105432211D01*
X162607764Y-105411652D01*
X162622042Y-105392399D01*
X162638139Y-105374639D01*
X162655899Y-105358542D01*
X162675152Y-105344264D01*
X162695711Y-105331941D01*
X162717380Y-105321692D01*
X162739948Y-105313617D01*
X162763199Y-105307793D01*
X162786909Y-105304276D01*
X162810850Y-105303100D01*
X163299350Y-105303100D01*
X163323291Y-105304276D01*
G37*
%TD*%
%TO.C,C18*%
G36*
X161849691Y-119299176D02*
G01*
X161873401Y-119302693D01*
X161896652Y-119308517D01*
X161919220Y-119316592D01*
X161940889Y-119326841D01*
X161961448Y-119339164D01*
X161980701Y-119353442D01*
X161998461Y-119369539D01*
X162014558Y-119387299D01*
X162028836Y-119406552D01*
X162041159Y-119427111D01*
X162051408Y-119448780D01*
X162059483Y-119471348D01*
X162065307Y-119494599D01*
X162068824Y-119518309D01*
X162070000Y-119542250D01*
X162070000Y-120030750D01*
X162068824Y-120054691D01*
X162065307Y-120078401D01*
X162059483Y-120101652D01*
X162051408Y-120124220D01*
X162041159Y-120145889D01*
X162028836Y-120166448D01*
X162014558Y-120185701D01*
X161998461Y-120203461D01*
X161980701Y-120219558D01*
X161961448Y-120233836D01*
X161940889Y-120246159D01*
X161919220Y-120256408D01*
X161896652Y-120264483D01*
X161873401Y-120270307D01*
X161849691Y-120273824D01*
X161825750Y-120275000D01*
X161262250Y-120275000D01*
X161238309Y-120273824D01*
X161214599Y-120270307D01*
X161191348Y-120264483D01*
X161168780Y-120256408D01*
X161147111Y-120246159D01*
X161126552Y-120233836D01*
X161107299Y-120219558D01*
X161089539Y-120203461D01*
X161073442Y-120185701D01*
X161059164Y-120166448D01*
X161046841Y-120145889D01*
X161036592Y-120124220D01*
X161028517Y-120101652D01*
X161022693Y-120078401D01*
X161019176Y-120054691D01*
X161018000Y-120030750D01*
X161018000Y-119542250D01*
X161019176Y-119518309D01*
X161022693Y-119494599D01*
X161028517Y-119471348D01*
X161036592Y-119448780D01*
X161046841Y-119427111D01*
X161059164Y-119406552D01*
X161073442Y-119387299D01*
X161089539Y-119369539D01*
X161107299Y-119353442D01*
X161126552Y-119339164D01*
X161147111Y-119326841D01*
X161168780Y-119316592D01*
X161191348Y-119308517D01*
X161214599Y-119302693D01*
X161238309Y-119299176D01*
X161262250Y-119298000D01*
X161825750Y-119298000D01*
X161849691Y-119299176D01*
G37*
G36*
X161849691Y-117724176D02*
G01*
X161873401Y-117727693D01*
X161896652Y-117733517D01*
X161919220Y-117741592D01*
X161940889Y-117751841D01*
X161961448Y-117764164D01*
X161980701Y-117778442D01*
X161998461Y-117794539D01*
X162014558Y-117812299D01*
X162028836Y-117831552D01*
X162041159Y-117852111D01*
X162051408Y-117873780D01*
X162059483Y-117896348D01*
X162065307Y-117919599D01*
X162068824Y-117943309D01*
X162070000Y-117967250D01*
X162070000Y-118455750D01*
X162068824Y-118479691D01*
X162065307Y-118503401D01*
X162059483Y-118526652D01*
X162051408Y-118549220D01*
X162041159Y-118570889D01*
X162028836Y-118591448D01*
X162014558Y-118610701D01*
X161998461Y-118628461D01*
X161980701Y-118644558D01*
X161961448Y-118658836D01*
X161940889Y-118671159D01*
X161919220Y-118681408D01*
X161896652Y-118689483D01*
X161873401Y-118695307D01*
X161849691Y-118698824D01*
X161825750Y-118700000D01*
X161262250Y-118700000D01*
X161238309Y-118698824D01*
X161214599Y-118695307D01*
X161191348Y-118689483D01*
X161168780Y-118681408D01*
X161147111Y-118671159D01*
X161126552Y-118658836D01*
X161107299Y-118644558D01*
X161089539Y-118628461D01*
X161073442Y-118610701D01*
X161059164Y-118591448D01*
X161046841Y-118570889D01*
X161036592Y-118549220D01*
X161028517Y-118526652D01*
X161022693Y-118503401D01*
X161019176Y-118479691D01*
X161018000Y-118455750D01*
X161018000Y-117967250D01*
X161019176Y-117943309D01*
X161022693Y-117919599D01*
X161028517Y-117896348D01*
X161036592Y-117873780D01*
X161046841Y-117852111D01*
X161059164Y-117831552D01*
X161073442Y-117812299D01*
X161089539Y-117794539D01*
X161107299Y-117778442D01*
X161126552Y-117764164D01*
X161147111Y-117751841D01*
X161168780Y-117741592D01*
X161191348Y-117733517D01*
X161214599Y-117727693D01*
X161238309Y-117724176D01*
X161262250Y-117723000D01*
X161825750Y-117723000D01*
X161849691Y-117724176D01*
G37*
%TD*%
%TO.C,C17*%
G36*
X164898291Y-106891776D02*
G01*
X164922001Y-106895293D01*
X164945252Y-106901117D01*
X164967820Y-106909192D01*
X164989489Y-106919441D01*
X165010048Y-106931764D01*
X165029301Y-106946042D01*
X165047061Y-106962139D01*
X165063158Y-106979899D01*
X165077436Y-106999152D01*
X165089759Y-107019711D01*
X165100008Y-107041380D01*
X165108083Y-107063948D01*
X165113907Y-107087199D01*
X165117424Y-107110909D01*
X165118600Y-107134850D01*
X165118600Y-107698350D01*
X165117424Y-107722291D01*
X165113907Y-107746001D01*
X165108083Y-107769252D01*
X165100008Y-107791820D01*
X165089759Y-107813489D01*
X165077436Y-107834048D01*
X165063158Y-107853301D01*
X165047061Y-107871061D01*
X165029301Y-107887158D01*
X165010048Y-107901436D01*
X164989489Y-107913759D01*
X164967820Y-107924008D01*
X164945252Y-107932083D01*
X164922001Y-107937907D01*
X164898291Y-107941424D01*
X164874350Y-107942600D01*
X164385850Y-107942600D01*
X164361909Y-107941424D01*
X164338199Y-107937907D01*
X164314948Y-107932083D01*
X164292380Y-107924008D01*
X164270711Y-107913759D01*
X164250152Y-107901436D01*
X164230899Y-107887158D01*
X164213139Y-107871061D01*
X164197042Y-107853301D01*
X164182764Y-107834048D01*
X164170441Y-107813489D01*
X164160192Y-107791820D01*
X164152117Y-107769252D01*
X164146293Y-107746001D01*
X164142776Y-107722291D01*
X164141600Y-107698350D01*
X164141600Y-107134850D01*
X164142776Y-107110909D01*
X164146293Y-107087199D01*
X164152117Y-107063948D01*
X164160192Y-107041380D01*
X164170441Y-107019711D01*
X164182764Y-106999152D01*
X164197042Y-106979899D01*
X164213139Y-106962139D01*
X164230899Y-106946042D01*
X164250152Y-106931764D01*
X164270711Y-106919441D01*
X164292380Y-106909192D01*
X164314948Y-106901117D01*
X164338199Y-106895293D01*
X164361909Y-106891776D01*
X164385850Y-106890600D01*
X164874350Y-106890600D01*
X164898291Y-106891776D01*
G37*
G36*
X163323291Y-106891776D02*
G01*
X163347001Y-106895293D01*
X163370252Y-106901117D01*
X163392820Y-106909192D01*
X163414489Y-106919441D01*
X163435048Y-106931764D01*
X163454301Y-106946042D01*
X163472061Y-106962139D01*
X163488158Y-106979899D01*
X163502436Y-106999152D01*
X163514759Y-107019711D01*
X163525008Y-107041380D01*
X163533083Y-107063948D01*
X163538907Y-107087199D01*
X163542424Y-107110909D01*
X163543600Y-107134850D01*
X163543600Y-107698350D01*
X163542424Y-107722291D01*
X163538907Y-107746001D01*
X163533083Y-107769252D01*
X163525008Y-107791820D01*
X163514759Y-107813489D01*
X163502436Y-107834048D01*
X163488158Y-107853301D01*
X163472061Y-107871061D01*
X163454301Y-107887158D01*
X163435048Y-107901436D01*
X163414489Y-107913759D01*
X163392820Y-107924008D01*
X163370252Y-107932083D01*
X163347001Y-107937907D01*
X163323291Y-107941424D01*
X163299350Y-107942600D01*
X162810850Y-107942600D01*
X162786909Y-107941424D01*
X162763199Y-107937907D01*
X162739948Y-107932083D01*
X162717380Y-107924008D01*
X162695711Y-107913759D01*
X162675152Y-107901436D01*
X162655899Y-107887158D01*
X162638139Y-107871061D01*
X162622042Y-107853301D01*
X162607764Y-107834048D01*
X162595441Y-107813489D01*
X162585192Y-107791820D01*
X162577117Y-107769252D01*
X162571293Y-107746001D01*
X162567776Y-107722291D01*
X162566600Y-107698350D01*
X162566600Y-107134850D01*
X162567776Y-107110909D01*
X162571293Y-107087199D01*
X162577117Y-107063948D01*
X162585192Y-107041380D01*
X162595441Y-107019711D01*
X162607764Y-106999152D01*
X162622042Y-106979899D01*
X162638139Y-106962139D01*
X162655899Y-106946042D01*
X162675152Y-106931764D01*
X162695711Y-106919441D01*
X162717380Y-106909192D01*
X162739948Y-106901117D01*
X162763199Y-106895293D01*
X162786909Y-106891776D01*
X162810850Y-106890600D01*
X163299350Y-106890600D01*
X163323291Y-106891776D01*
G37*
%TD*%
%TO.C,C16*%
G36*
X160262191Y-119299176D02*
G01*
X160285901Y-119302693D01*
X160309152Y-119308517D01*
X160331720Y-119316592D01*
X160353389Y-119326841D01*
X160373948Y-119339164D01*
X160393201Y-119353442D01*
X160410961Y-119369539D01*
X160427058Y-119387299D01*
X160441336Y-119406552D01*
X160453659Y-119427111D01*
X160463908Y-119448780D01*
X160471983Y-119471348D01*
X160477807Y-119494599D01*
X160481324Y-119518309D01*
X160482500Y-119542250D01*
X160482500Y-120030750D01*
X160481324Y-120054691D01*
X160477807Y-120078401D01*
X160471983Y-120101652D01*
X160463908Y-120124220D01*
X160453659Y-120145889D01*
X160441336Y-120166448D01*
X160427058Y-120185701D01*
X160410961Y-120203461D01*
X160393201Y-120219558D01*
X160373948Y-120233836D01*
X160353389Y-120246159D01*
X160331720Y-120256408D01*
X160309152Y-120264483D01*
X160285901Y-120270307D01*
X160262191Y-120273824D01*
X160238250Y-120275000D01*
X159674750Y-120275000D01*
X159650809Y-120273824D01*
X159627099Y-120270307D01*
X159603848Y-120264483D01*
X159581280Y-120256408D01*
X159559611Y-120246159D01*
X159539052Y-120233836D01*
X159519799Y-120219558D01*
X159502039Y-120203461D01*
X159485942Y-120185701D01*
X159471664Y-120166448D01*
X159459341Y-120145889D01*
X159449092Y-120124220D01*
X159441017Y-120101652D01*
X159435193Y-120078401D01*
X159431676Y-120054691D01*
X159430500Y-120030750D01*
X159430500Y-119542250D01*
X159431676Y-119518309D01*
X159435193Y-119494599D01*
X159441017Y-119471348D01*
X159449092Y-119448780D01*
X159459341Y-119427111D01*
X159471664Y-119406552D01*
X159485942Y-119387299D01*
X159502039Y-119369539D01*
X159519799Y-119353442D01*
X159539052Y-119339164D01*
X159559611Y-119326841D01*
X159581280Y-119316592D01*
X159603848Y-119308517D01*
X159627099Y-119302693D01*
X159650809Y-119299176D01*
X159674750Y-119298000D01*
X160238250Y-119298000D01*
X160262191Y-119299176D01*
G37*
G36*
X160262191Y-117724176D02*
G01*
X160285901Y-117727693D01*
X160309152Y-117733517D01*
X160331720Y-117741592D01*
X160353389Y-117751841D01*
X160373948Y-117764164D01*
X160393201Y-117778442D01*
X160410961Y-117794539D01*
X160427058Y-117812299D01*
X160441336Y-117831552D01*
X160453659Y-117852111D01*
X160463908Y-117873780D01*
X160471983Y-117896348D01*
X160477807Y-117919599D01*
X160481324Y-117943309D01*
X160482500Y-117967250D01*
X160482500Y-118455750D01*
X160481324Y-118479691D01*
X160477807Y-118503401D01*
X160471983Y-118526652D01*
X160463908Y-118549220D01*
X160453659Y-118570889D01*
X160441336Y-118591448D01*
X160427058Y-118610701D01*
X160410961Y-118628461D01*
X160393201Y-118644558D01*
X160373948Y-118658836D01*
X160353389Y-118671159D01*
X160331720Y-118681408D01*
X160309152Y-118689483D01*
X160285901Y-118695307D01*
X160262191Y-118698824D01*
X160238250Y-118700000D01*
X159674750Y-118700000D01*
X159650809Y-118698824D01*
X159627099Y-118695307D01*
X159603848Y-118689483D01*
X159581280Y-118681408D01*
X159559611Y-118671159D01*
X159539052Y-118658836D01*
X159519799Y-118644558D01*
X159502039Y-118628461D01*
X159485942Y-118610701D01*
X159471664Y-118591448D01*
X159459341Y-118570889D01*
X159449092Y-118549220D01*
X159441017Y-118526652D01*
X159435193Y-118503401D01*
X159431676Y-118479691D01*
X159430500Y-118455750D01*
X159430500Y-117967250D01*
X159431676Y-117943309D01*
X159435193Y-117919599D01*
X159441017Y-117896348D01*
X159449092Y-117873780D01*
X159459341Y-117852111D01*
X159471664Y-117831552D01*
X159485942Y-117812299D01*
X159502039Y-117794539D01*
X159519799Y-117778442D01*
X159539052Y-117764164D01*
X159559611Y-117751841D01*
X159581280Y-117741592D01*
X159603848Y-117733517D01*
X159627099Y-117727693D01*
X159650809Y-117724176D01*
X159674750Y-117723000D01*
X160238250Y-117723000D01*
X160262191Y-117724176D01*
G37*
%TD*%
%TO.C,C15*%
G36*
X164911091Y-112428976D02*
G01*
X164934801Y-112432493D01*
X164958052Y-112438317D01*
X164980620Y-112446392D01*
X165002289Y-112456641D01*
X165022848Y-112468964D01*
X165042101Y-112483242D01*
X165059861Y-112499339D01*
X165075958Y-112517099D01*
X165090236Y-112536352D01*
X165102559Y-112556911D01*
X165112808Y-112578580D01*
X165120883Y-112601148D01*
X165126707Y-112624399D01*
X165130224Y-112648109D01*
X165131400Y-112672050D01*
X165131400Y-113235550D01*
X165130224Y-113259491D01*
X165126707Y-113283201D01*
X165120883Y-113306452D01*
X165112808Y-113329020D01*
X165102559Y-113350689D01*
X165090236Y-113371248D01*
X165075958Y-113390501D01*
X165059861Y-113408261D01*
X165042101Y-113424358D01*
X165022848Y-113438636D01*
X165002289Y-113450959D01*
X164980620Y-113461208D01*
X164958052Y-113469283D01*
X164934801Y-113475107D01*
X164911091Y-113478624D01*
X164887150Y-113479800D01*
X164398650Y-113479800D01*
X164374709Y-113478624D01*
X164350999Y-113475107D01*
X164327748Y-113469283D01*
X164305180Y-113461208D01*
X164283511Y-113450959D01*
X164262952Y-113438636D01*
X164243699Y-113424358D01*
X164225939Y-113408261D01*
X164209842Y-113390501D01*
X164195564Y-113371248D01*
X164183241Y-113350689D01*
X164172992Y-113329020D01*
X164164917Y-113306452D01*
X164159093Y-113283201D01*
X164155576Y-113259491D01*
X164154400Y-113235550D01*
X164154400Y-112672050D01*
X164155576Y-112648109D01*
X164159093Y-112624399D01*
X164164917Y-112601148D01*
X164172992Y-112578580D01*
X164183241Y-112556911D01*
X164195564Y-112536352D01*
X164209842Y-112517099D01*
X164225939Y-112499339D01*
X164243699Y-112483242D01*
X164262952Y-112468964D01*
X164283511Y-112456641D01*
X164305180Y-112446392D01*
X164327748Y-112438317D01*
X164350999Y-112432493D01*
X164374709Y-112428976D01*
X164398650Y-112427800D01*
X164887150Y-112427800D01*
X164911091Y-112428976D01*
G37*
G36*
X163336091Y-112428976D02*
G01*
X163359801Y-112432493D01*
X163383052Y-112438317D01*
X163405620Y-112446392D01*
X163427289Y-112456641D01*
X163447848Y-112468964D01*
X163467101Y-112483242D01*
X163484861Y-112499339D01*
X163500958Y-112517099D01*
X163515236Y-112536352D01*
X163527559Y-112556911D01*
X163537808Y-112578580D01*
X163545883Y-112601148D01*
X163551707Y-112624399D01*
X163555224Y-112648109D01*
X163556400Y-112672050D01*
X163556400Y-113235550D01*
X163555224Y-113259491D01*
X163551707Y-113283201D01*
X163545883Y-113306452D01*
X163537808Y-113329020D01*
X163527559Y-113350689D01*
X163515236Y-113371248D01*
X163500958Y-113390501D01*
X163484861Y-113408261D01*
X163467101Y-113424358D01*
X163447848Y-113438636D01*
X163427289Y-113450959D01*
X163405620Y-113461208D01*
X163383052Y-113469283D01*
X163359801Y-113475107D01*
X163336091Y-113478624D01*
X163312150Y-113479800D01*
X162823650Y-113479800D01*
X162799709Y-113478624D01*
X162775999Y-113475107D01*
X162752748Y-113469283D01*
X162730180Y-113461208D01*
X162708511Y-113450959D01*
X162687952Y-113438636D01*
X162668699Y-113424358D01*
X162650939Y-113408261D01*
X162634842Y-113390501D01*
X162620564Y-113371248D01*
X162608241Y-113350689D01*
X162597992Y-113329020D01*
X162589917Y-113306452D01*
X162584093Y-113283201D01*
X162580576Y-113259491D01*
X162579400Y-113235550D01*
X162579400Y-112672050D01*
X162580576Y-112648109D01*
X162584093Y-112624399D01*
X162589917Y-112601148D01*
X162597992Y-112578580D01*
X162608241Y-112556911D01*
X162620564Y-112536352D01*
X162634842Y-112517099D01*
X162650939Y-112499339D01*
X162668699Y-112483242D01*
X162687952Y-112468964D01*
X162708511Y-112456641D01*
X162730180Y-112446392D01*
X162752748Y-112438317D01*
X162775999Y-112432493D01*
X162799709Y-112428976D01*
X162823650Y-112427800D01*
X163312150Y-112427800D01*
X163336091Y-112428976D01*
G37*
%TD*%
%TO.C,C14*%
G36*
X154636091Y-119781776D02*
G01*
X154659801Y-119785293D01*
X154683052Y-119791117D01*
X154705620Y-119799192D01*
X154727289Y-119809441D01*
X154747848Y-119821764D01*
X154767101Y-119836042D01*
X154784861Y-119852139D01*
X154800958Y-119869899D01*
X154815236Y-119889152D01*
X154827559Y-119909711D01*
X154837808Y-119931380D01*
X154845883Y-119953948D01*
X154851707Y-119977199D01*
X154855224Y-120000909D01*
X154856400Y-120024850D01*
X154856400Y-120513350D01*
X154855224Y-120537291D01*
X154851707Y-120561001D01*
X154845883Y-120584252D01*
X154837808Y-120606820D01*
X154827559Y-120628489D01*
X154815236Y-120649048D01*
X154800958Y-120668301D01*
X154784861Y-120686061D01*
X154767101Y-120702158D01*
X154747848Y-120716436D01*
X154727289Y-120728759D01*
X154705620Y-120739008D01*
X154683052Y-120747083D01*
X154659801Y-120752907D01*
X154636091Y-120756424D01*
X154612150Y-120757600D01*
X154048650Y-120757600D01*
X154024709Y-120756424D01*
X154000999Y-120752907D01*
X153977748Y-120747083D01*
X153955180Y-120739008D01*
X153933511Y-120728759D01*
X153912952Y-120716436D01*
X153893699Y-120702158D01*
X153875939Y-120686061D01*
X153859842Y-120668301D01*
X153845564Y-120649048D01*
X153833241Y-120628489D01*
X153822992Y-120606820D01*
X153814917Y-120584252D01*
X153809093Y-120561001D01*
X153805576Y-120537291D01*
X153804400Y-120513350D01*
X153804400Y-120024850D01*
X153805576Y-120000909D01*
X153809093Y-119977199D01*
X153814917Y-119953948D01*
X153822992Y-119931380D01*
X153833241Y-119909711D01*
X153845564Y-119889152D01*
X153859842Y-119869899D01*
X153875939Y-119852139D01*
X153893699Y-119836042D01*
X153912952Y-119821764D01*
X153933511Y-119809441D01*
X153955180Y-119799192D01*
X153977748Y-119791117D01*
X154000999Y-119785293D01*
X154024709Y-119781776D01*
X154048650Y-119780600D01*
X154612150Y-119780600D01*
X154636091Y-119781776D01*
G37*
G36*
X154636091Y-118206776D02*
G01*
X154659801Y-118210293D01*
X154683052Y-118216117D01*
X154705620Y-118224192D01*
X154727289Y-118234441D01*
X154747848Y-118246764D01*
X154767101Y-118261042D01*
X154784861Y-118277139D01*
X154800958Y-118294899D01*
X154815236Y-118314152D01*
X154827559Y-118334711D01*
X154837808Y-118356380D01*
X154845883Y-118378948D01*
X154851707Y-118402199D01*
X154855224Y-118425909D01*
X154856400Y-118449850D01*
X154856400Y-118938350D01*
X154855224Y-118962291D01*
X154851707Y-118986001D01*
X154845883Y-119009252D01*
X154837808Y-119031820D01*
X154827559Y-119053489D01*
X154815236Y-119074048D01*
X154800958Y-119093301D01*
X154784861Y-119111061D01*
X154767101Y-119127158D01*
X154747848Y-119141436D01*
X154727289Y-119153759D01*
X154705620Y-119164008D01*
X154683052Y-119172083D01*
X154659801Y-119177907D01*
X154636091Y-119181424D01*
X154612150Y-119182600D01*
X154048650Y-119182600D01*
X154024709Y-119181424D01*
X154000999Y-119177907D01*
X153977748Y-119172083D01*
X153955180Y-119164008D01*
X153933511Y-119153759D01*
X153912952Y-119141436D01*
X153893699Y-119127158D01*
X153875939Y-119111061D01*
X153859842Y-119093301D01*
X153845564Y-119074048D01*
X153833241Y-119053489D01*
X153822992Y-119031820D01*
X153814917Y-119009252D01*
X153809093Y-118986001D01*
X153805576Y-118962291D01*
X153804400Y-118938350D01*
X153804400Y-118449850D01*
X153805576Y-118425909D01*
X153809093Y-118402199D01*
X153814917Y-118378948D01*
X153822992Y-118356380D01*
X153833241Y-118334711D01*
X153845564Y-118314152D01*
X153859842Y-118294899D01*
X153875939Y-118277139D01*
X153893699Y-118261042D01*
X153912952Y-118246764D01*
X153933511Y-118234441D01*
X153955180Y-118224192D01*
X153977748Y-118216117D01*
X154000999Y-118210293D01*
X154024709Y-118206776D01*
X154048650Y-118205600D01*
X154612150Y-118205600D01*
X154636091Y-118206776D01*
G37*
%TD*%
%TO.C,C6*%
G36*
X161413304Y-110955302D02*
G01*
X161439552Y-110959196D01*
X161465293Y-110965643D01*
X161490278Y-110974583D01*
X161514266Y-110985928D01*
X161537026Y-110999571D01*
X161558340Y-111015378D01*
X161578002Y-111033198D01*
X161595822Y-111052860D01*
X161611629Y-111074174D01*
X161625272Y-111096934D01*
X161636617Y-111120922D01*
X161645557Y-111145907D01*
X161652004Y-111171648D01*
X161655898Y-111197896D01*
X161657200Y-111224400D01*
X161657200Y-112035600D01*
X161655898Y-112062104D01*
X161652004Y-112088352D01*
X161645557Y-112114093D01*
X161636617Y-112139078D01*
X161625272Y-112163066D01*
X161611629Y-112185826D01*
X161595822Y-112207140D01*
X161578002Y-112226802D01*
X161558340Y-112244622D01*
X161537026Y-112260429D01*
X161514266Y-112274072D01*
X161490278Y-112285417D01*
X161465293Y-112294357D01*
X161439552Y-112300804D01*
X161413304Y-112304698D01*
X161386800Y-112306000D01*
X160075600Y-112306000D01*
X160049096Y-112304698D01*
X160022848Y-112300804D01*
X159997107Y-112294357D01*
X159972122Y-112285417D01*
X159948134Y-112274072D01*
X159925374Y-112260429D01*
X159904060Y-112244622D01*
X159884398Y-112226802D01*
X159866578Y-112207140D01*
X159850771Y-112185826D01*
X159837128Y-112163066D01*
X159825783Y-112139078D01*
X159816843Y-112114093D01*
X159810396Y-112088352D01*
X159806502Y-112062104D01*
X159805200Y-112035600D01*
X159805200Y-111224400D01*
X159806502Y-111197896D01*
X159810396Y-111171648D01*
X159816843Y-111145907D01*
X159825783Y-111120922D01*
X159837128Y-111096934D01*
X159850771Y-111074174D01*
X159866578Y-111052860D01*
X159884398Y-111033198D01*
X159904060Y-111015378D01*
X159925374Y-110999571D01*
X159948134Y-110985928D01*
X159972122Y-110974583D01*
X159997107Y-110965643D01*
X160022848Y-110959196D01*
X160049096Y-110955302D01*
X160075600Y-110954000D01*
X161386800Y-110954000D01*
X161413304Y-110955302D01*
G37*
G36*
X161413304Y-113755302D02*
G01*
X161439552Y-113759196D01*
X161465293Y-113765643D01*
X161490278Y-113774583D01*
X161514266Y-113785928D01*
X161537026Y-113799571D01*
X161558340Y-113815378D01*
X161578002Y-113833198D01*
X161595822Y-113852860D01*
X161611629Y-113874174D01*
X161625272Y-113896934D01*
X161636617Y-113920922D01*
X161645557Y-113945907D01*
X161652004Y-113971648D01*
X161655898Y-113997896D01*
X161657200Y-114024400D01*
X161657200Y-114835600D01*
X161655898Y-114862104D01*
X161652004Y-114888352D01*
X161645557Y-114914093D01*
X161636617Y-114939078D01*
X161625272Y-114963066D01*
X161611629Y-114985826D01*
X161595822Y-115007140D01*
X161578002Y-115026802D01*
X161558340Y-115044622D01*
X161537026Y-115060429D01*
X161514266Y-115074072D01*
X161490278Y-115085417D01*
X161465293Y-115094357D01*
X161439552Y-115100804D01*
X161413304Y-115104698D01*
X161386800Y-115106000D01*
X160075600Y-115106000D01*
X160049096Y-115104698D01*
X160022848Y-115100804D01*
X159997107Y-115094357D01*
X159972122Y-115085417D01*
X159948134Y-115074072D01*
X159925374Y-115060429D01*
X159904060Y-115044622D01*
X159884398Y-115026802D01*
X159866578Y-115007140D01*
X159850771Y-114985826D01*
X159837128Y-114963066D01*
X159825783Y-114939078D01*
X159816843Y-114914093D01*
X159810396Y-114888352D01*
X159806502Y-114862104D01*
X159805200Y-114835600D01*
X159805200Y-114024400D01*
X159806502Y-113997896D01*
X159810396Y-113971648D01*
X159816843Y-113945907D01*
X159825783Y-113920922D01*
X159837128Y-113896934D01*
X159850771Y-113874174D01*
X159866578Y-113852860D01*
X159884398Y-113833198D01*
X159904060Y-113815378D01*
X159925374Y-113799571D01*
X159948134Y-113785928D01*
X159972122Y-113774583D01*
X159997107Y-113765643D01*
X160022848Y-113759196D01*
X160049096Y-113755302D01*
X160075600Y-113754000D01*
X161386800Y-113754000D01*
X161413304Y-113755302D01*
G37*
%TD*%
%TO.C,C5*%
G36*
X153031304Y-119724302D02*
G01*
X153057552Y-119728196D01*
X153083293Y-119734643D01*
X153108278Y-119743583D01*
X153132266Y-119754928D01*
X153155026Y-119768571D01*
X153176340Y-119784378D01*
X153196002Y-119802198D01*
X153213822Y-119821860D01*
X153229629Y-119843174D01*
X153243272Y-119865934D01*
X153254617Y-119889922D01*
X153263557Y-119914907D01*
X153270004Y-119940648D01*
X153273898Y-119966896D01*
X153275200Y-119993400D01*
X153275200Y-120804600D01*
X153273898Y-120831104D01*
X153270004Y-120857352D01*
X153263557Y-120883093D01*
X153254617Y-120908078D01*
X153243272Y-120932066D01*
X153229629Y-120954826D01*
X153213822Y-120976140D01*
X153196002Y-120995802D01*
X153176340Y-121013622D01*
X153155026Y-121029429D01*
X153132266Y-121043072D01*
X153108278Y-121054417D01*
X153083293Y-121063357D01*
X153057552Y-121069804D01*
X153031304Y-121073698D01*
X153004800Y-121075000D01*
X151693600Y-121075000D01*
X151667096Y-121073698D01*
X151640848Y-121069804D01*
X151615107Y-121063357D01*
X151590122Y-121054417D01*
X151566134Y-121043072D01*
X151543374Y-121029429D01*
X151522060Y-121013622D01*
X151502398Y-120995802D01*
X151484578Y-120976140D01*
X151468771Y-120954826D01*
X151455128Y-120932066D01*
X151443783Y-120908078D01*
X151434843Y-120883093D01*
X151428396Y-120857352D01*
X151424502Y-120831104D01*
X151423200Y-120804600D01*
X151423200Y-119993400D01*
X151424502Y-119966896D01*
X151428396Y-119940648D01*
X151434843Y-119914907D01*
X151443783Y-119889922D01*
X151455128Y-119865934D01*
X151468771Y-119843174D01*
X151484578Y-119821860D01*
X151502398Y-119802198D01*
X151522060Y-119784378D01*
X151543374Y-119768571D01*
X151566134Y-119754928D01*
X151590122Y-119743583D01*
X151615107Y-119734643D01*
X151640848Y-119728196D01*
X151667096Y-119724302D01*
X151693600Y-119723000D01*
X153004800Y-119723000D01*
X153031304Y-119724302D01*
G37*
G36*
X153031304Y-116924302D02*
G01*
X153057552Y-116928196D01*
X153083293Y-116934643D01*
X153108278Y-116943583D01*
X153132266Y-116954928D01*
X153155026Y-116968571D01*
X153176340Y-116984378D01*
X153196002Y-117002198D01*
X153213822Y-117021860D01*
X153229629Y-117043174D01*
X153243272Y-117065934D01*
X153254617Y-117089922D01*
X153263557Y-117114907D01*
X153270004Y-117140648D01*
X153273898Y-117166896D01*
X153275200Y-117193400D01*
X153275200Y-118004600D01*
X153273898Y-118031104D01*
X153270004Y-118057352D01*
X153263557Y-118083093D01*
X153254617Y-118108078D01*
X153243272Y-118132066D01*
X153229629Y-118154826D01*
X153213822Y-118176140D01*
X153196002Y-118195802D01*
X153176340Y-118213622D01*
X153155026Y-118229429D01*
X153132266Y-118243072D01*
X153108278Y-118254417D01*
X153083293Y-118263357D01*
X153057552Y-118269804D01*
X153031304Y-118273698D01*
X153004800Y-118275000D01*
X151693600Y-118275000D01*
X151667096Y-118273698D01*
X151640848Y-118269804D01*
X151615107Y-118263357D01*
X151590122Y-118254417D01*
X151566134Y-118243072D01*
X151543374Y-118229429D01*
X151522060Y-118213622D01*
X151502398Y-118195802D01*
X151484578Y-118176140D01*
X151468771Y-118154826D01*
X151455128Y-118132066D01*
X151443783Y-118108078D01*
X151434843Y-118083093D01*
X151428396Y-118057352D01*
X151424502Y-118031104D01*
X151423200Y-118004600D01*
X151423200Y-117193400D01*
X151424502Y-117166896D01*
X151428396Y-117140648D01*
X151434843Y-117114907D01*
X151443783Y-117089922D01*
X151455128Y-117065934D01*
X151468771Y-117043174D01*
X151484578Y-117021860D01*
X151502398Y-117002198D01*
X151522060Y-116984378D01*
X151543374Y-116968571D01*
X151566134Y-116954928D01*
X151590122Y-116943583D01*
X151615107Y-116934643D01*
X151640848Y-116928196D01*
X151667096Y-116924302D01*
X151693600Y-116923000D01*
X153004800Y-116923000D01*
X153031304Y-116924302D01*
G37*
%TD*%
D21*
%TO.C,U2*%
X179937500Y-101350000D03*
X179937500Y-101850000D03*
X181462500Y-101350000D03*
X181462500Y-101850000D03*
X179937500Y-102350000D03*
X181462500Y-102350000D03*
X179937500Y-100850000D03*
X181462500Y-100850000D03*
D22*
X180450000Y-102362500D03*
X180950000Y-102362500D03*
X180950000Y-100837500D03*
X180450000Y-100837500D03*
%TD*%
D12*
%TO.C,U9*%
G36*
X143253201Y-117274604D02*
G01*
X143265384Y-117276411D01*
X143277331Y-117279404D01*
X143288927Y-117283553D01*
X143300060Y-117288819D01*
X143310624Y-117295151D01*
X143320516Y-117302487D01*
X143329642Y-117310758D01*
X143337913Y-117319884D01*
X143345249Y-117329776D01*
X143351581Y-117340340D01*
X143356847Y-117351473D01*
X143360996Y-117363069D01*
X143363989Y-117375016D01*
X143365796Y-117387199D01*
X143366400Y-117399500D01*
X143366400Y-117650500D01*
X143365796Y-117662801D01*
X143363989Y-117674984D01*
X143360996Y-117686931D01*
X143356847Y-117698527D01*
X143351581Y-117709660D01*
X143345249Y-117720224D01*
X143337913Y-117730116D01*
X143329642Y-117739242D01*
X143320516Y-117747513D01*
X143310624Y-117754849D01*
X143300060Y-117761181D01*
X143288927Y-117766447D01*
X143277331Y-117770596D01*
X143265384Y-117773589D01*
X143253201Y-117775396D01*
X143240900Y-117776000D01*
X141914900Y-117776000D01*
X141902599Y-117775396D01*
X141890416Y-117773589D01*
X141878469Y-117770596D01*
X141866873Y-117766447D01*
X141855740Y-117761181D01*
X141845176Y-117754849D01*
X141835284Y-117747513D01*
X141826158Y-117739242D01*
X141817887Y-117730116D01*
X141810551Y-117720224D01*
X141804219Y-117709660D01*
X141798953Y-117698527D01*
X141794804Y-117686931D01*
X141791811Y-117674984D01*
X141790004Y-117662801D01*
X141789400Y-117650500D01*
X141789400Y-117399500D01*
X141790004Y-117387199D01*
X141791811Y-117375016D01*
X141794804Y-117363069D01*
X141798953Y-117351473D01*
X141804219Y-117340340D01*
X141810551Y-117329776D01*
X141817887Y-117319884D01*
X141826158Y-117310758D01*
X141835284Y-117302487D01*
X141845176Y-117295151D01*
X141855740Y-117288819D01*
X141866873Y-117283553D01*
X141878469Y-117279404D01*
X141890416Y-117276411D01*
X141902599Y-117274604D01*
X141914900Y-117274000D01*
X143240900Y-117274000D01*
X143253201Y-117274604D01*
G37*
G36*
X143253201Y-117924604D02*
G01*
X143265384Y-117926411D01*
X143277331Y-117929404D01*
X143288927Y-117933553D01*
X143300060Y-117938819D01*
X143310624Y-117945151D01*
X143320516Y-117952487D01*
X143329642Y-117960758D01*
X143337913Y-117969884D01*
X143345249Y-117979776D01*
X143351581Y-117990340D01*
X143356847Y-118001473D01*
X143360996Y-118013069D01*
X143363989Y-118025016D01*
X143365796Y-118037199D01*
X143366400Y-118049500D01*
X143366400Y-118300500D01*
X143365796Y-118312801D01*
X143363989Y-118324984D01*
X143360996Y-118336931D01*
X143356847Y-118348527D01*
X143351581Y-118359660D01*
X143345249Y-118370224D01*
X143337913Y-118380116D01*
X143329642Y-118389242D01*
X143320516Y-118397513D01*
X143310624Y-118404849D01*
X143300060Y-118411181D01*
X143288927Y-118416447D01*
X143277331Y-118420596D01*
X143265384Y-118423589D01*
X143253201Y-118425396D01*
X143240900Y-118426000D01*
X141914900Y-118426000D01*
X141902599Y-118425396D01*
X141890416Y-118423589D01*
X141878469Y-118420596D01*
X141866873Y-118416447D01*
X141855740Y-118411181D01*
X141845176Y-118404849D01*
X141835284Y-118397513D01*
X141826158Y-118389242D01*
X141817887Y-118380116D01*
X141810551Y-118370224D01*
X141804219Y-118359660D01*
X141798953Y-118348527D01*
X141794804Y-118336931D01*
X141791811Y-118324984D01*
X141790004Y-118312801D01*
X141789400Y-118300500D01*
X141789400Y-118049500D01*
X141790004Y-118037199D01*
X141791811Y-118025016D01*
X141794804Y-118013069D01*
X141798953Y-118001473D01*
X141804219Y-117990340D01*
X141810551Y-117979776D01*
X141817887Y-117969884D01*
X141826158Y-117960758D01*
X141835284Y-117952487D01*
X141845176Y-117945151D01*
X141855740Y-117938819D01*
X141866873Y-117933553D01*
X141878469Y-117929404D01*
X141890416Y-117926411D01*
X141902599Y-117924604D01*
X141914900Y-117924000D01*
X143240900Y-117924000D01*
X143253201Y-117924604D01*
G37*
G36*
X143253201Y-118574604D02*
G01*
X143265384Y-118576411D01*
X143277331Y-118579404D01*
X143288927Y-118583553D01*
X143300060Y-118588819D01*
X143310624Y-118595151D01*
X143320516Y-118602487D01*
X143329642Y-118610758D01*
X143337913Y-118619884D01*
X143345249Y-118629776D01*
X143351581Y-118640340D01*
X143356847Y-118651473D01*
X143360996Y-118663069D01*
X143363989Y-118675016D01*
X143365796Y-118687199D01*
X143366400Y-118699500D01*
X143366400Y-118950500D01*
X143365796Y-118962801D01*
X143363989Y-118974984D01*
X143360996Y-118986931D01*
X143356847Y-118998527D01*
X143351581Y-119009660D01*
X143345249Y-119020224D01*
X143337913Y-119030116D01*
X143329642Y-119039242D01*
X143320516Y-119047513D01*
X143310624Y-119054849D01*
X143300060Y-119061181D01*
X143288927Y-119066447D01*
X143277331Y-119070596D01*
X143265384Y-119073589D01*
X143253201Y-119075396D01*
X143240900Y-119076000D01*
X141914900Y-119076000D01*
X141902599Y-119075396D01*
X141890416Y-119073589D01*
X141878469Y-119070596D01*
X141866873Y-119066447D01*
X141855740Y-119061181D01*
X141845176Y-119054849D01*
X141835284Y-119047513D01*
X141826158Y-119039242D01*
X141817887Y-119030116D01*
X141810551Y-119020224D01*
X141804219Y-119009660D01*
X141798953Y-118998527D01*
X141794804Y-118986931D01*
X141791811Y-118974984D01*
X141790004Y-118962801D01*
X141789400Y-118950500D01*
X141789400Y-118699500D01*
X141790004Y-118687199D01*
X141791811Y-118675016D01*
X141794804Y-118663069D01*
X141798953Y-118651473D01*
X141804219Y-118640340D01*
X141810551Y-118629776D01*
X141817887Y-118619884D01*
X141826158Y-118610758D01*
X141835284Y-118602487D01*
X141845176Y-118595151D01*
X141855740Y-118588819D01*
X141866873Y-118583553D01*
X141878469Y-118579404D01*
X141890416Y-118576411D01*
X141902599Y-118574604D01*
X141914900Y-118574000D01*
X143240900Y-118574000D01*
X143253201Y-118574604D01*
G37*
G36*
X143253201Y-119224604D02*
G01*
X143265384Y-119226411D01*
X143277331Y-119229404D01*
X143288927Y-119233553D01*
X143300060Y-119238819D01*
X143310624Y-119245151D01*
X143320516Y-119252487D01*
X143329642Y-119260758D01*
X143337913Y-119269884D01*
X143345249Y-119279776D01*
X143351581Y-119290340D01*
X143356847Y-119301473D01*
X143360996Y-119313069D01*
X143363989Y-119325016D01*
X143365796Y-119337199D01*
X143366400Y-119349500D01*
X143366400Y-119600500D01*
X143365796Y-119612801D01*
X143363989Y-119624984D01*
X143360996Y-119636931D01*
X143356847Y-119648527D01*
X143351581Y-119659660D01*
X143345249Y-119670224D01*
X143337913Y-119680116D01*
X143329642Y-119689242D01*
X143320516Y-119697513D01*
X143310624Y-119704849D01*
X143300060Y-119711181D01*
X143288927Y-119716447D01*
X143277331Y-119720596D01*
X143265384Y-119723589D01*
X143253201Y-119725396D01*
X143240900Y-119726000D01*
X141914900Y-119726000D01*
X141902599Y-119725396D01*
X141890416Y-119723589D01*
X141878469Y-119720596D01*
X141866873Y-119716447D01*
X141855740Y-119711181D01*
X141845176Y-119704849D01*
X141835284Y-119697513D01*
X141826158Y-119689242D01*
X141817887Y-119680116D01*
X141810551Y-119670224D01*
X141804219Y-119659660D01*
X141798953Y-119648527D01*
X141794804Y-119636931D01*
X141791811Y-119624984D01*
X141790004Y-119612801D01*
X141789400Y-119600500D01*
X141789400Y-119349500D01*
X141790004Y-119337199D01*
X141791811Y-119325016D01*
X141794804Y-119313069D01*
X141798953Y-119301473D01*
X141804219Y-119290340D01*
X141810551Y-119279776D01*
X141817887Y-119269884D01*
X141826158Y-119260758D01*
X141835284Y-119252487D01*
X141845176Y-119245151D01*
X141855740Y-119238819D01*
X141866873Y-119233553D01*
X141878469Y-119229404D01*
X141890416Y-119226411D01*
X141902599Y-119224604D01*
X141914900Y-119224000D01*
X143240900Y-119224000D01*
X143253201Y-119224604D01*
G37*
G36*
X148978201Y-119224604D02*
G01*
X148990384Y-119226411D01*
X149002331Y-119229404D01*
X149013927Y-119233553D01*
X149025060Y-119238819D01*
X149035624Y-119245151D01*
X149045516Y-119252487D01*
X149054642Y-119260758D01*
X149062913Y-119269884D01*
X149070249Y-119279776D01*
X149076581Y-119290340D01*
X149081847Y-119301473D01*
X149085996Y-119313069D01*
X149088989Y-119325016D01*
X149090796Y-119337199D01*
X149091400Y-119349500D01*
X149091400Y-119600500D01*
X149090796Y-119612801D01*
X149088989Y-119624984D01*
X149085996Y-119636931D01*
X149081847Y-119648527D01*
X149076581Y-119659660D01*
X149070249Y-119670224D01*
X149062913Y-119680116D01*
X149054642Y-119689242D01*
X149045516Y-119697513D01*
X149035624Y-119704849D01*
X149025060Y-119711181D01*
X149013927Y-119716447D01*
X149002331Y-119720596D01*
X148990384Y-119723589D01*
X148978201Y-119725396D01*
X148965900Y-119726000D01*
X147639900Y-119726000D01*
X147627599Y-119725396D01*
X147615416Y-119723589D01*
X147603469Y-119720596D01*
X147591873Y-119716447D01*
X147580740Y-119711181D01*
X147570176Y-119704849D01*
X147560284Y-119697513D01*
X147551158Y-119689242D01*
X147542887Y-119680116D01*
X147535551Y-119670224D01*
X147529219Y-119659660D01*
X147523953Y-119648527D01*
X147519804Y-119636931D01*
X147516811Y-119624984D01*
X147515004Y-119612801D01*
X147514400Y-119600500D01*
X147514400Y-119349500D01*
X147515004Y-119337199D01*
X147516811Y-119325016D01*
X147519804Y-119313069D01*
X147523953Y-119301473D01*
X147529219Y-119290340D01*
X147535551Y-119279776D01*
X147542887Y-119269884D01*
X147551158Y-119260758D01*
X147560284Y-119252487D01*
X147570176Y-119245151D01*
X147580740Y-119238819D01*
X147591873Y-119233553D01*
X147603469Y-119229404D01*
X147615416Y-119226411D01*
X147627599Y-119224604D01*
X147639900Y-119224000D01*
X148965900Y-119224000D01*
X148978201Y-119224604D01*
G37*
G36*
X148978201Y-118574604D02*
G01*
X148990384Y-118576411D01*
X149002331Y-118579404D01*
X149013927Y-118583553D01*
X149025060Y-118588819D01*
X149035624Y-118595151D01*
X149045516Y-118602487D01*
X149054642Y-118610758D01*
X149062913Y-118619884D01*
X149070249Y-118629776D01*
X149076581Y-118640340D01*
X149081847Y-118651473D01*
X149085996Y-118663069D01*
X149088989Y-118675016D01*
X149090796Y-118687199D01*
X149091400Y-118699500D01*
X149091400Y-118950500D01*
X149090796Y-118962801D01*
X149088989Y-118974984D01*
X149085996Y-118986931D01*
X149081847Y-118998527D01*
X149076581Y-119009660D01*
X149070249Y-119020224D01*
X149062913Y-119030116D01*
X149054642Y-119039242D01*
X149045516Y-119047513D01*
X149035624Y-119054849D01*
X149025060Y-119061181D01*
X149013927Y-119066447D01*
X149002331Y-119070596D01*
X148990384Y-119073589D01*
X148978201Y-119075396D01*
X148965900Y-119076000D01*
X147639900Y-119076000D01*
X147627599Y-119075396D01*
X147615416Y-119073589D01*
X147603469Y-119070596D01*
X147591873Y-119066447D01*
X147580740Y-119061181D01*
X147570176Y-119054849D01*
X147560284Y-119047513D01*
X147551158Y-119039242D01*
X147542887Y-119030116D01*
X147535551Y-119020224D01*
X147529219Y-119009660D01*
X147523953Y-118998527D01*
X147519804Y-118986931D01*
X147516811Y-118974984D01*
X147515004Y-118962801D01*
X147514400Y-118950500D01*
X147514400Y-118699500D01*
X147515004Y-118687199D01*
X147516811Y-118675016D01*
X147519804Y-118663069D01*
X147523953Y-118651473D01*
X147529219Y-118640340D01*
X147535551Y-118629776D01*
X147542887Y-118619884D01*
X147551158Y-118610758D01*
X147560284Y-118602487D01*
X147570176Y-118595151D01*
X147580740Y-118588819D01*
X147591873Y-118583553D01*
X147603469Y-118579404D01*
X147615416Y-118576411D01*
X147627599Y-118574604D01*
X147639900Y-118574000D01*
X148965900Y-118574000D01*
X148978201Y-118574604D01*
G37*
G36*
X148978201Y-117924604D02*
G01*
X148990384Y-117926411D01*
X149002331Y-117929404D01*
X149013927Y-117933553D01*
X149025060Y-117938819D01*
X149035624Y-117945151D01*
X149045516Y-117952487D01*
X149054642Y-117960758D01*
X149062913Y-117969884D01*
X149070249Y-117979776D01*
X149076581Y-117990340D01*
X149081847Y-118001473D01*
X149085996Y-118013069D01*
X149088989Y-118025016D01*
X149090796Y-118037199D01*
X149091400Y-118049500D01*
X149091400Y-118300500D01*
X149090796Y-118312801D01*
X149088989Y-118324984D01*
X149085996Y-118336931D01*
X149081847Y-118348527D01*
X149076581Y-118359660D01*
X149070249Y-118370224D01*
X149062913Y-118380116D01*
X149054642Y-118389242D01*
X149045516Y-118397513D01*
X149035624Y-118404849D01*
X149025060Y-118411181D01*
X149013927Y-118416447D01*
X149002331Y-118420596D01*
X148990384Y-118423589D01*
X148978201Y-118425396D01*
X148965900Y-118426000D01*
X147639900Y-118426000D01*
X147627599Y-118425396D01*
X147615416Y-118423589D01*
X147603469Y-118420596D01*
X147591873Y-118416447D01*
X147580740Y-118411181D01*
X147570176Y-118404849D01*
X147560284Y-118397513D01*
X147551158Y-118389242D01*
X147542887Y-118380116D01*
X147535551Y-118370224D01*
X147529219Y-118359660D01*
X147523953Y-118348527D01*
X147519804Y-118336931D01*
X147516811Y-118324984D01*
X147515004Y-118312801D01*
X147514400Y-118300500D01*
X147514400Y-118049500D01*
X147515004Y-118037199D01*
X147516811Y-118025016D01*
X147519804Y-118013069D01*
X147523953Y-118001473D01*
X147529219Y-117990340D01*
X147535551Y-117979776D01*
X147542887Y-117969884D01*
X147551158Y-117960758D01*
X147560284Y-117952487D01*
X147570176Y-117945151D01*
X147580740Y-117938819D01*
X147591873Y-117933553D01*
X147603469Y-117929404D01*
X147615416Y-117926411D01*
X147627599Y-117924604D01*
X147639900Y-117924000D01*
X148965900Y-117924000D01*
X148978201Y-117924604D01*
G37*
G36*
X148978201Y-117274604D02*
G01*
X148990384Y-117276411D01*
X149002331Y-117279404D01*
X149013927Y-117283553D01*
X149025060Y-117288819D01*
X149035624Y-117295151D01*
X149045516Y-117302487D01*
X149054642Y-117310758D01*
X149062913Y-117319884D01*
X149070249Y-117329776D01*
X149076581Y-117340340D01*
X149081847Y-117351473D01*
X149085996Y-117363069D01*
X149088989Y-117375016D01*
X149090796Y-117387199D01*
X149091400Y-117399500D01*
X149091400Y-117650500D01*
X149090796Y-117662801D01*
X149088989Y-117674984D01*
X149085996Y-117686931D01*
X149081847Y-117698527D01*
X149076581Y-117709660D01*
X149070249Y-117720224D01*
X149062913Y-117730116D01*
X149054642Y-117739242D01*
X149045516Y-117747513D01*
X149035624Y-117754849D01*
X149025060Y-117761181D01*
X149013927Y-117766447D01*
X149002331Y-117770596D01*
X148990384Y-117773589D01*
X148978201Y-117775396D01*
X148965900Y-117776000D01*
X147639900Y-117776000D01*
X147627599Y-117775396D01*
X147615416Y-117773589D01*
X147603469Y-117770596D01*
X147591873Y-117766447D01*
X147580740Y-117761181D01*
X147570176Y-117754849D01*
X147560284Y-117747513D01*
X147551158Y-117739242D01*
X147542887Y-117730116D01*
X147535551Y-117720224D01*
X147529219Y-117709660D01*
X147523953Y-117698527D01*
X147519804Y-117686931D01*
X147516811Y-117674984D01*
X147515004Y-117662801D01*
X147514400Y-117650500D01*
X147514400Y-117399500D01*
X147515004Y-117387199D01*
X147516811Y-117375016D01*
X147519804Y-117363069D01*
X147523953Y-117351473D01*
X147529219Y-117340340D01*
X147535551Y-117329776D01*
X147542887Y-117319884D01*
X147551158Y-117310758D01*
X147560284Y-117302487D01*
X147570176Y-117295151D01*
X147580740Y-117288819D01*
X147591873Y-117283553D01*
X147603469Y-117279404D01*
X147615416Y-117276411D01*
X147627599Y-117274604D01*
X147639900Y-117274000D01*
X148965900Y-117274000D01*
X148978201Y-117274604D01*
G37*
%TD*%
%TO.C,R19*%
G36*
X140247691Y-117013676D02*
G01*
X140271401Y-117017193D01*
X140294652Y-117023017D01*
X140317220Y-117031092D01*
X140338889Y-117041341D01*
X140359448Y-117053664D01*
X140378701Y-117067942D01*
X140396461Y-117084039D01*
X140412558Y-117101799D01*
X140426836Y-117121052D01*
X140439159Y-117141611D01*
X140449408Y-117163280D01*
X140457483Y-117185848D01*
X140463307Y-117209099D01*
X140466824Y-117232809D01*
X140468000Y-117256750D01*
X140468000Y-117820250D01*
X140466824Y-117844191D01*
X140463307Y-117867901D01*
X140457483Y-117891152D01*
X140449408Y-117913720D01*
X140439159Y-117935389D01*
X140426836Y-117955948D01*
X140412558Y-117975201D01*
X140396461Y-117992961D01*
X140378701Y-118009058D01*
X140359448Y-118023336D01*
X140338889Y-118035659D01*
X140317220Y-118045908D01*
X140294652Y-118053983D01*
X140271401Y-118059807D01*
X140247691Y-118063324D01*
X140223750Y-118064500D01*
X139735250Y-118064500D01*
X139711309Y-118063324D01*
X139687599Y-118059807D01*
X139664348Y-118053983D01*
X139641780Y-118045908D01*
X139620111Y-118035659D01*
X139599552Y-118023336D01*
X139580299Y-118009058D01*
X139562539Y-117992961D01*
X139546442Y-117975201D01*
X139532164Y-117955948D01*
X139519841Y-117935389D01*
X139509592Y-117913720D01*
X139501517Y-117891152D01*
X139495693Y-117867901D01*
X139492176Y-117844191D01*
X139491000Y-117820250D01*
X139491000Y-117256750D01*
X139492176Y-117232809D01*
X139495693Y-117209099D01*
X139501517Y-117185848D01*
X139509592Y-117163280D01*
X139519841Y-117141611D01*
X139532164Y-117121052D01*
X139546442Y-117101799D01*
X139562539Y-117084039D01*
X139580299Y-117067942D01*
X139599552Y-117053664D01*
X139620111Y-117041341D01*
X139641780Y-117031092D01*
X139664348Y-117023017D01*
X139687599Y-117017193D01*
X139711309Y-117013676D01*
X139735250Y-117012500D01*
X140223750Y-117012500D01*
X140247691Y-117013676D01*
G37*
G36*
X138672691Y-117013676D02*
G01*
X138696401Y-117017193D01*
X138719652Y-117023017D01*
X138742220Y-117031092D01*
X138763889Y-117041341D01*
X138784448Y-117053664D01*
X138803701Y-117067942D01*
X138821461Y-117084039D01*
X138837558Y-117101799D01*
X138851836Y-117121052D01*
X138864159Y-117141611D01*
X138874408Y-117163280D01*
X138882483Y-117185848D01*
X138888307Y-117209099D01*
X138891824Y-117232809D01*
X138893000Y-117256750D01*
X138893000Y-117820250D01*
X138891824Y-117844191D01*
X138888307Y-117867901D01*
X138882483Y-117891152D01*
X138874408Y-117913720D01*
X138864159Y-117935389D01*
X138851836Y-117955948D01*
X138837558Y-117975201D01*
X138821461Y-117992961D01*
X138803701Y-118009058D01*
X138784448Y-118023336D01*
X138763889Y-118035659D01*
X138742220Y-118045908D01*
X138719652Y-118053983D01*
X138696401Y-118059807D01*
X138672691Y-118063324D01*
X138648750Y-118064500D01*
X138160250Y-118064500D01*
X138136309Y-118063324D01*
X138112599Y-118059807D01*
X138089348Y-118053983D01*
X138066780Y-118045908D01*
X138045111Y-118035659D01*
X138024552Y-118023336D01*
X138005299Y-118009058D01*
X137987539Y-117992961D01*
X137971442Y-117975201D01*
X137957164Y-117955948D01*
X137944841Y-117935389D01*
X137934592Y-117913720D01*
X137926517Y-117891152D01*
X137920693Y-117867901D01*
X137917176Y-117844191D01*
X137916000Y-117820250D01*
X137916000Y-117256750D01*
X137917176Y-117232809D01*
X137920693Y-117209099D01*
X137926517Y-117185848D01*
X137934592Y-117163280D01*
X137944841Y-117141611D01*
X137957164Y-117121052D01*
X137971442Y-117101799D01*
X137987539Y-117084039D01*
X138005299Y-117067942D01*
X138024552Y-117053664D01*
X138045111Y-117041341D01*
X138066780Y-117031092D01*
X138089348Y-117023017D01*
X138112599Y-117017193D01*
X138136309Y-117013676D01*
X138160250Y-117012500D01*
X138648750Y-117012500D01*
X138672691Y-117013676D01*
G37*
%TD*%
%TO.C,C13*%
G36*
X178805691Y-100175176D02*
G01*
X178829401Y-100178693D01*
X178852652Y-100184517D01*
X178875220Y-100192592D01*
X178896889Y-100202841D01*
X178917448Y-100215164D01*
X178936701Y-100229442D01*
X178954461Y-100245539D01*
X178970558Y-100263299D01*
X178984836Y-100282552D01*
X178997159Y-100303111D01*
X179007408Y-100324780D01*
X179015483Y-100347348D01*
X179021307Y-100370599D01*
X179024824Y-100394309D01*
X179026000Y-100418250D01*
X179026000Y-100906750D01*
X179024824Y-100930691D01*
X179021307Y-100954401D01*
X179015483Y-100977652D01*
X179007408Y-101000220D01*
X178997159Y-101021889D01*
X178984836Y-101042448D01*
X178970558Y-101061701D01*
X178954461Y-101079461D01*
X178936701Y-101095558D01*
X178917448Y-101109836D01*
X178896889Y-101122159D01*
X178875220Y-101132408D01*
X178852652Y-101140483D01*
X178829401Y-101146307D01*
X178805691Y-101149824D01*
X178781750Y-101151000D01*
X178218250Y-101151000D01*
X178194309Y-101149824D01*
X178170599Y-101146307D01*
X178147348Y-101140483D01*
X178124780Y-101132408D01*
X178103111Y-101122159D01*
X178082552Y-101109836D01*
X178063299Y-101095558D01*
X178045539Y-101079461D01*
X178029442Y-101061701D01*
X178015164Y-101042448D01*
X178002841Y-101021889D01*
X177992592Y-101000220D01*
X177984517Y-100977652D01*
X177978693Y-100954401D01*
X177975176Y-100930691D01*
X177974000Y-100906750D01*
X177974000Y-100418250D01*
X177975176Y-100394309D01*
X177978693Y-100370599D01*
X177984517Y-100347348D01*
X177992592Y-100324780D01*
X178002841Y-100303111D01*
X178015164Y-100282552D01*
X178029442Y-100263299D01*
X178045539Y-100245539D01*
X178063299Y-100229442D01*
X178082552Y-100215164D01*
X178103111Y-100202841D01*
X178124780Y-100192592D01*
X178147348Y-100184517D01*
X178170599Y-100178693D01*
X178194309Y-100175176D01*
X178218250Y-100174000D01*
X178781750Y-100174000D01*
X178805691Y-100175176D01*
G37*
G36*
X178805691Y-101750176D02*
G01*
X178829401Y-101753693D01*
X178852652Y-101759517D01*
X178875220Y-101767592D01*
X178896889Y-101777841D01*
X178917448Y-101790164D01*
X178936701Y-101804442D01*
X178954461Y-101820539D01*
X178970558Y-101838299D01*
X178984836Y-101857552D01*
X178997159Y-101878111D01*
X179007408Y-101899780D01*
X179015483Y-101922348D01*
X179021307Y-101945599D01*
X179024824Y-101969309D01*
X179026000Y-101993250D01*
X179026000Y-102481750D01*
X179024824Y-102505691D01*
X179021307Y-102529401D01*
X179015483Y-102552652D01*
X179007408Y-102575220D01*
X178997159Y-102596889D01*
X178984836Y-102617448D01*
X178970558Y-102636701D01*
X178954461Y-102654461D01*
X178936701Y-102670558D01*
X178917448Y-102684836D01*
X178896889Y-102697159D01*
X178875220Y-102707408D01*
X178852652Y-102715483D01*
X178829401Y-102721307D01*
X178805691Y-102724824D01*
X178781750Y-102726000D01*
X178218250Y-102726000D01*
X178194309Y-102724824D01*
X178170599Y-102721307D01*
X178147348Y-102715483D01*
X178124780Y-102707408D01*
X178103111Y-102697159D01*
X178082552Y-102684836D01*
X178063299Y-102670558D01*
X178045539Y-102654461D01*
X178029442Y-102636701D01*
X178015164Y-102617448D01*
X178002841Y-102596889D01*
X177992592Y-102575220D01*
X177984517Y-102552652D01*
X177978693Y-102529401D01*
X177975176Y-102505691D01*
X177974000Y-102481750D01*
X177974000Y-101993250D01*
X177975176Y-101969309D01*
X177978693Y-101945599D01*
X177984517Y-101922348D01*
X177992592Y-101899780D01*
X178002841Y-101878111D01*
X178015164Y-101857552D01*
X178029442Y-101838299D01*
X178045539Y-101820539D01*
X178063299Y-101804442D01*
X178082552Y-101790164D01*
X178103111Y-101777841D01*
X178124780Y-101767592D01*
X178147348Y-101759517D01*
X178170599Y-101753693D01*
X178194309Y-101750176D01*
X178218250Y-101749000D01*
X178781750Y-101749000D01*
X178805691Y-101750176D01*
G37*
%TD*%
%TO.C,C12*%
G36*
X171489491Y-100262376D02*
G01*
X171513201Y-100265893D01*
X171536452Y-100271717D01*
X171559020Y-100279792D01*
X171580689Y-100290041D01*
X171601248Y-100302364D01*
X171620501Y-100316642D01*
X171638261Y-100332739D01*
X171654358Y-100350499D01*
X171668636Y-100369752D01*
X171680959Y-100390311D01*
X171691208Y-100411980D01*
X171699283Y-100434548D01*
X171705107Y-100457799D01*
X171708624Y-100481509D01*
X171709800Y-100505450D01*
X171709800Y-101068950D01*
X171708624Y-101092891D01*
X171705107Y-101116601D01*
X171699283Y-101139852D01*
X171691208Y-101162420D01*
X171680959Y-101184089D01*
X171668636Y-101204648D01*
X171654358Y-101223901D01*
X171638261Y-101241661D01*
X171620501Y-101257758D01*
X171601248Y-101272036D01*
X171580689Y-101284359D01*
X171559020Y-101294608D01*
X171536452Y-101302683D01*
X171513201Y-101308507D01*
X171489491Y-101312024D01*
X171465550Y-101313200D01*
X170977050Y-101313200D01*
X170953109Y-101312024D01*
X170929399Y-101308507D01*
X170906148Y-101302683D01*
X170883580Y-101294608D01*
X170861911Y-101284359D01*
X170841352Y-101272036D01*
X170822099Y-101257758D01*
X170804339Y-101241661D01*
X170788242Y-101223901D01*
X170773964Y-101204648D01*
X170761641Y-101184089D01*
X170751392Y-101162420D01*
X170743317Y-101139852D01*
X170737493Y-101116601D01*
X170733976Y-101092891D01*
X170732800Y-101068950D01*
X170732800Y-100505450D01*
X170733976Y-100481509D01*
X170737493Y-100457799D01*
X170743317Y-100434548D01*
X170751392Y-100411980D01*
X170761641Y-100390311D01*
X170773964Y-100369752D01*
X170788242Y-100350499D01*
X170804339Y-100332739D01*
X170822099Y-100316642D01*
X170841352Y-100302364D01*
X170861911Y-100290041D01*
X170883580Y-100279792D01*
X170906148Y-100271717D01*
X170929399Y-100265893D01*
X170953109Y-100262376D01*
X170977050Y-100261200D01*
X171465550Y-100261200D01*
X171489491Y-100262376D01*
G37*
G36*
X173064491Y-100262376D02*
G01*
X173088201Y-100265893D01*
X173111452Y-100271717D01*
X173134020Y-100279792D01*
X173155689Y-100290041D01*
X173176248Y-100302364D01*
X173195501Y-100316642D01*
X173213261Y-100332739D01*
X173229358Y-100350499D01*
X173243636Y-100369752D01*
X173255959Y-100390311D01*
X173266208Y-100411980D01*
X173274283Y-100434548D01*
X173280107Y-100457799D01*
X173283624Y-100481509D01*
X173284800Y-100505450D01*
X173284800Y-101068950D01*
X173283624Y-101092891D01*
X173280107Y-101116601D01*
X173274283Y-101139852D01*
X173266208Y-101162420D01*
X173255959Y-101184089D01*
X173243636Y-101204648D01*
X173229358Y-101223901D01*
X173213261Y-101241661D01*
X173195501Y-101257758D01*
X173176248Y-101272036D01*
X173155689Y-101284359D01*
X173134020Y-101294608D01*
X173111452Y-101302683D01*
X173088201Y-101308507D01*
X173064491Y-101312024D01*
X173040550Y-101313200D01*
X172552050Y-101313200D01*
X172528109Y-101312024D01*
X172504399Y-101308507D01*
X172481148Y-101302683D01*
X172458580Y-101294608D01*
X172436911Y-101284359D01*
X172416352Y-101272036D01*
X172397099Y-101257758D01*
X172379339Y-101241661D01*
X172363242Y-101223901D01*
X172348964Y-101204648D01*
X172336641Y-101184089D01*
X172326392Y-101162420D01*
X172318317Y-101139852D01*
X172312493Y-101116601D01*
X172308976Y-101092891D01*
X172307800Y-101068950D01*
X172307800Y-100505450D01*
X172308976Y-100481509D01*
X172312493Y-100457799D01*
X172318317Y-100434548D01*
X172326392Y-100411980D01*
X172336641Y-100390311D01*
X172348964Y-100369752D01*
X172363242Y-100350499D01*
X172379339Y-100332739D01*
X172397099Y-100316642D01*
X172416352Y-100302364D01*
X172436911Y-100290041D01*
X172458580Y-100279792D01*
X172481148Y-100271717D01*
X172504399Y-100265893D01*
X172528109Y-100262376D01*
X172552050Y-100261200D01*
X173040550Y-100261200D01*
X173064491Y-100262376D01*
G37*
%TD*%
%TO.C,C10*%
G36*
X169279791Y-100262376D02*
G01*
X169303501Y-100265893D01*
X169326752Y-100271717D01*
X169349320Y-100279792D01*
X169370989Y-100290041D01*
X169391548Y-100302364D01*
X169410801Y-100316642D01*
X169428561Y-100332739D01*
X169444658Y-100350499D01*
X169458936Y-100369752D01*
X169471259Y-100390311D01*
X169481508Y-100411980D01*
X169489583Y-100434548D01*
X169495407Y-100457799D01*
X169498924Y-100481509D01*
X169500100Y-100505450D01*
X169500100Y-101068950D01*
X169498924Y-101092891D01*
X169495407Y-101116601D01*
X169489583Y-101139852D01*
X169481508Y-101162420D01*
X169471259Y-101184089D01*
X169458936Y-101204648D01*
X169444658Y-101223901D01*
X169428561Y-101241661D01*
X169410801Y-101257758D01*
X169391548Y-101272036D01*
X169370989Y-101284359D01*
X169349320Y-101294608D01*
X169326752Y-101302683D01*
X169303501Y-101308507D01*
X169279791Y-101312024D01*
X169255850Y-101313200D01*
X168767350Y-101313200D01*
X168743409Y-101312024D01*
X168719699Y-101308507D01*
X168696448Y-101302683D01*
X168673880Y-101294608D01*
X168652211Y-101284359D01*
X168631652Y-101272036D01*
X168612399Y-101257758D01*
X168594639Y-101241661D01*
X168578542Y-101223901D01*
X168564264Y-101204648D01*
X168551941Y-101184089D01*
X168541692Y-101162420D01*
X168533617Y-101139852D01*
X168527793Y-101116601D01*
X168524276Y-101092891D01*
X168523100Y-101068950D01*
X168523100Y-100505450D01*
X168524276Y-100481509D01*
X168527793Y-100457799D01*
X168533617Y-100434548D01*
X168541692Y-100411980D01*
X168551941Y-100390311D01*
X168564264Y-100369752D01*
X168578542Y-100350499D01*
X168594639Y-100332739D01*
X168612399Y-100316642D01*
X168631652Y-100302364D01*
X168652211Y-100290041D01*
X168673880Y-100279792D01*
X168696448Y-100271717D01*
X168719699Y-100265893D01*
X168743409Y-100262376D01*
X168767350Y-100261200D01*
X169255850Y-100261200D01*
X169279791Y-100262376D01*
G37*
G36*
X167704791Y-100262376D02*
G01*
X167728501Y-100265893D01*
X167751752Y-100271717D01*
X167774320Y-100279792D01*
X167795989Y-100290041D01*
X167816548Y-100302364D01*
X167835801Y-100316642D01*
X167853561Y-100332739D01*
X167869658Y-100350499D01*
X167883936Y-100369752D01*
X167896259Y-100390311D01*
X167906508Y-100411980D01*
X167914583Y-100434548D01*
X167920407Y-100457799D01*
X167923924Y-100481509D01*
X167925100Y-100505450D01*
X167925100Y-101068950D01*
X167923924Y-101092891D01*
X167920407Y-101116601D01*
X167914583Y-101139852D01*
X167906508Y-101162420D01*
X167896259Y-101184089D01*
X167883936Y-101204648D01*
X167869658Y-101223901D01*
X167853561Y-101241661D01*
X167835801Y-101257758D01*
X167816548Y-101272036D01*
X167795989Y-101284359D01*
X167774320Y-101294608D01*
X167751752Y-101302683D01*
X167728501Y-101308507D01*
X167704791Y-101312024D01*
X167680850Y-101313200D01*
X167192350Y-101313200D01*
X167168409Y-101312024D01*
X167144699Y-101308507D01*
X167121448Y-101302683D01*
X167098880Y-101294608D01*
X167077211Y-101284359D01*
X167056652Y-101272036D01*
X167037399Y-101257758D01*
X167019639Y-101241661D01*
X167003542Y-101223901D01*
X166989264Y-101204648D01*
X166976941Y-101184089D01*
X166966692Y-101162420D01*
X166958617Y-101139852D01*
X166952793Y-101116601D01*
X166949276Y-101092891D01*
X166948100Y-101068950D01*
X166948100Y-100505450D01*
X166949276Y-100481509D01*
X166952793Y-100457799D01*
X166958617Y-100434548D01*
X166966692Y-100411980D01*
X166976941Y-100390311D01*
X166989264Y-100369752D01*
X167003542Y-100350499D01*
X167019639Y-100332739D01*
X167037399Y-100316642D01*
X167056652Y-100302364D01*
X167077211Y-100290041D01*
X167098880Y-100279792D01*
X167121448Y-100271717D01*
X167144699Y-100265893D01*
X167168409Y-100262376D01*
X167192350Y-100261200D01*
X167680850Y-100261200D01*
X167704791Y-100262376D01*
G37*
%TD*%
%TO.C,C9*%
G36*
X163437191Y-117724176D02*
G01*
X163460901Y-117727693D01*
X163484152Y-117733517D01*
X163506720Y-117741592D01*
X163528389Y-117751841D01*
X163548948Y-117764164D01*
X163568201Y-117778442D01*
X163585961Y-117794539D01*
X163602058Y-117812299D01*
X163616336Y-117831552D01*
X163628659Y-117852111D01*
X163638908Y-117873780D01*
X163646983Y-117896348D01*
X163652807Y-117919599D01*
X163656324Y-117943309D01*
X163657500Y-117967250D01*
X163657500Y-118455750D01*
X163656324Y-118479691D01*
X163652807Y-118503401D01*
X163646983Y-118526652D01*
X163638908Y-118549220D01*
X163628659Y-118570889D01*
X163616336Y-118591448D01*
X163602058Y-118610701D01*
X163585961Y-118628461D01*
X163568201Y-118644558D01*
X163548948Y-118658836D01*
X163528389Y-118671159D01*
X163506720Y-118681408D01*
X163484152Y-118689483D01*
X163460901Y-118695307D01*
X163437191Y-118698824D01*
X163413250Y-118700000D01*
X162849750Y-118700000D01*
X162825809Y-118698824D01*
X162802099Y-118695307D01*
X162778848Y-118689483D01*
X162756280Y-118681408D01*
X162734611Y-118671159D01*
X162714052Y-118658836D01*
X162694799Y-118644558D01*
X162677039Y-118628461D01*
X162660942Y-118610701D01*
X162646664Y-118591448D01*
X162634341Y-118570889D01*
X162624092Y-118549220D01*
X162616017Y-118526652D01*
X162610193Y-118503401D01*
X162606676Y-118479691D01*
X162605500Y-118455750D01*
X162605500Y-117967250D01*
X162606676Y-117943309D01*
X162610193Y-117919599D01*
X162616017Y-117896348D01*
X162624092Y-117873780D01*
X162634341Y-117852111D01*
X162646664Y-117831552D01*
X162660942Y-117812299D01*
X162677039Y-117794539D01*
X162694799Y-117778442D01*
X162714052Y-117764164D01*
X162734611Y-117751841D01*
X162756280Y-117741592D01*
X162778848Y-117733517D01*
X162802099Y-117727693D01*
X162825809Y-117724176D01*
X162849750Y-117723000D01*
X163413250Y-117723000D01*
X163437191Y-117724176D01*
G37*
G36*
X163437191Y-119299176D02*
G01*
X163460901Y-119302693D01*
X163484152Y-119308517D01*
X163506720Y-119316592D01*
X163528389Y-119326841D01*
X163548948Y-119339164D01*
X163568201Y-119353442D01*
X163585961Y-119369539D01*
X163602058Y-119387299D01*
X163616336Y-119406552D01*
X163628659Y-119427111D01*
X163638908Y-119448780D01*
X163646983Y-119471348D01*
X163652807Y-119494599D01*
X163656324Y-119518309D01*
X163657500Y-119542250D01*
X163657500Y-120030750D01*
X163656324Y-120054691D01*
X163652807Y-120078401D01*
X163646983Y-120101652D01*
X163638908Y-120124220D01*
X163628659Y-120145889D01*
X163616336Y-120166448D01*
X163602058Y-120185701D01*
X163585961Y-120203461D01*
X163568201Y-120219558D01*
X163548948Y-120233836D01*
X163528389Y-120246159D01*
X163506720Y-120256408D01*
X163484152Y-120264483D01*
X163460901Y-120270307D01*
X163437191Y-120273824D01*
X163413250Y-120275000D01*
X162849750Y-120275000D01*
X162825809Y-120273824D01*
X162802099Y-120270307D01*
X162778848Y-120264483D01*
X162756280Y-120256408D01*
X162734611Y-120246159D01*
X162714052Y-120233836D01*
X162694799Y-120219558D01*
X162677039Y-120203461D01*
X162660942Y-120185701D01*
X162646664Y-120166448D01*
X162634341Y-120145889D01*
X162624092Y-120124220D01*
X162616017Y-120101652D01*
X162610193Y-120078401D01*
X162606676Y-120054691D01*
X162605500Y-120030750D01*
X162605500Y-119542250D01*
X162606676Y-119518309D01*
X162610193Y-119494599D01*
X162616017Y-119471348D01*
X162624092Y-119448780D01*
X162634341Y-119427111D01*
X162646664Y-119406552D01*
X162660942Y-119387299D01*
X162677039Y-119369539D01*
X162694799Y-119353442D01*
X162714052Y-119339164D01*
X162734611Y-119326841D01*
X162756280Y-119316592D01*
X162778848Y-119308517D01*
X162802099Y-119302693D01*
X162825809Y-119299176D01*
X162849750Y-119298000D01*
X163413250Y-119298000D01*
X163437191Y-119299176D01*
G37*
%TD*%
%TO.C,C8*%
G36*
X164961691Y-119109176D02*
G01*
X164985401Y-119112693D01*
X165008652Y-119118517D01*
X165031220Y-119126592D01*
X165052889Y-119136841D01*
X165073448Y-119149164D01*
X165092701Y-119163442D01*
X165110461Y-119179539D01*
X165126558Y-119197299D01*
X165140836Y-119216552D01*
X165153159Y-119237111D01*
X165163408Y-119258780D01*
X165171483Y-119281348D01*
X165177307Y-119304599D01*
X165180824Y-119328309D01*
X165182000Y-119352250D01*
X165182000Y-119915750D01*
X165180824Y-119939691D01*
X165177307Y-119963401D01*
X165171483Y-119986652D01*
X165163408Y-120009220D01*
X165153159Y-120030889D01*
X165140836Y-120051448D01*
X165126558Y-120070701D01*
X165110461Y-120088461D01*
X165092701Y-120104558D01*
X165073448Y-120118836D01*
X165052889Y-120131159D01*
X165031220Y-120141408D01*
X165008652Y-120149483D01*
X164985401Y-120155307D01*
X164961691Y-120158824D01*
X164937750Y-120160000D01*
X164449250Y-120160000D01*
X164425309Y-120158824D01*
X164401599Y-120155307D01*
X164378348Y-120149483D01*
X164355780Y-120141408D01*
X164334111Y-120131159D01*
X164313552Y-120118836D01*
X164294299Y-120104558D01*
X164276539Y-120088461D01*
X164260442Y-120070701D01*
X164246164Y-120051448D01*
X164233841Y-120030889D01*
X164223592Y-120009220D01*
X164215517Y-119986652D01*
X164209693Y-119963401D01*
X164206176Y-119939691D01*
X164205000Y-119915750D01*
X164205000Y-119352250D01*
X164206176Y-119328309D01*
X164209693Y-119304599D01*
X164215517Y-119281348D01*
X164223592Y-119258780D01*
X164233841Y-119237111D01*
X164246164Y-119216552D01*
X164260442Y-119197299D01*
X164276539Y-119179539D01*
X164294299Y-119163442D01*
X164313552Y-119149164D01*
X164334111Y-119136841D01*
X164355780Y-119126592D01*
X164378348Y-119118517D01*
X164401599Y-119112693D01*
X164425309Y-119109176D01*
X164449250Y-119108000D01*
X164937750Y-119108000D01*
X164961691Y-119109176D01*
G37*
G36*
X166536691Y-119109176D02*
G01*
X166560401Y-119112693D01*
X166583652Y-119118517D01*
X166606220Y-119126592D01*
X166627889Y-119136841D01*
X166648448Y-119149164D01*
X166667701Y-119163442D01*
X166685461Y-119179539D01*
X166701558Y-119197299D01*
X166715836Y-119216552D01*
X166728159Y-119237111D01*
X166738408Y-119258780D01*
X166746483Y-119281348D01*
X166752307Y-119304599D01*
X166755824Y-119328309D01*
X166757000Y-119352250D01*
X166757000Y-119915750D01*
X166755824Y-119939691D01*
X166752307Y-119963401D01*
X166746483Y-119986652D01*
X166738408Y-120009220D01*
X166728159Y-120030889D01*
X166715836Y-120051448D01*
X166701558Y-120070701D01*
X166685461Y-120088461D01*
X166667701Y-120104558D01*
X166648448Y-120118836D01*
X166627889Y-120131159D01*
X166606220Y-120141408D01*
X166583652Y-120149483D01*
X166560401Y-120155307D01*
X166536691Y-120158824D01*
X166512750Y-120160000D01*
X166024250Y-120160000D01*
X166000309Y-120158824D01*
X165976599Y-120155307D01*
X165953348Y-120149483D01*
X165930780Y-120141408D01*
X165909111Y-120131159D01*
X165888552Y-120118836D01*
X165869299Y-120104558D01*
X165851539Y-120088461D01*
X165835442Y-120070701D01*
X165821164Y-120051448D01*
X165808841Y-120030889D01*
X165798592Y-120009220D01*
X165790517Y-119986652D01*
X165784693Y-119963401D01*
X165781176Y-119939691D01*
X165780000Y-119915750D01*
X165780000Y-119352250D01*
X165781176Y-119328309D01*
X165784693Y-119304599D01*
X165790517Y-119281348D01*
X165798592Y-119258780D01*
X165808841Y-119237111D01*
X165821164Y-119216552D01*
X165835442Y-119197299D01*
X165851539Y-119179539D01*
X165869299Y-119163442D01*
X165888552Y-119149164D01*
X165909111Y-119136841D01*
X165930780Y-119126592D01*
X165953348Y-119118517D01*
X165976599Y-119112693D01*
X166000309Y-119109176D01*
X166024250Y-119108000D01*
X166512750Y-119108000D01*
X166536691Y-119109176D01*
G37*
%TD*%
%TO.C,C7*%
G36*
X157418091Y-105316976D02*
G01*
X157441801Y-105320493D01*
X157465052Y-105326317D01*
X157487620Y-105334392D01*
X157509289Y-105344641D01*
X157529848Y-105356964D01*
X157549101Y-105371242D01*
X157566861Y-105387339D01*
X157582958Y-105405099D01*
X157597236Y-105424352D01*
X157609559Y-105444911D01*
X157619808Y-105466580D01*
X157627883Y-105489148D01*
X157633707Y-105512399D01*
X157637224Y-105536109D01*
X157638400Y-105560050D01*
X157638400Y-106123550D01*
X157637224Y-106147491D01*
X157633707Y-106171201D01*
X157627883Y-106194452D01*
X157619808Y-106217020D01*
X157609559Y-106238689D01*
X157597236Y-106259248D01*
X157582958Y-106278501D01*
X157566861Y-106296261D01*
X157549101Y-106312358D01*
X157529848Y-106326636D01*
X157509289Y-106338959D01*
X157487620Y-106349208D01*
X157465052Y-106357283D01*
X157441801Y-106363107D01*
X157418091Y-106366624D01*
X157394150Y-106367800D01*
X156905650Y-106367800D01*
X156881709Y-106366624D01*
X156857999Y-106363107D01*
X156834748Y-106357283D01*
X156812180Y-106349208D01*
X156790511Y-106338959D01*
X156769952Y-106326636D01*
X156750699Y-106312358D01*
X156732939Y-106296261D01*
X156716842Y-106278501D01*
X156702564Y-106259248D01*
X156690241Y-106238689D01*
X156679992Y-106217020D01*
X156671917Y-106194452D01*
X156666093Y-106171201D01*
X156662576Y-106147491D01*
X156661400Y-106123550D01*
X156661400Y-105560050D01*
X156662576Y-105536109D01*
X156666093Y-105512399D01*
X156671917Y-105489148D01*
X156679992Y-105466580D01*
X156690241Y-105444911D01*
X156702564Y-105424352D01*
X156716842Y-105405099D01*
X156732939Y-105387339D01*
X156750699Y-105371242D01*
X156769952Y-105356964D01*
X156790511Y-105344641D01*
X156812180Y-105334392D01*
X156834748Y-105326317D01*
X156857999Y-105320493D01*
X156881709Y-105316976D01*
X156905650Y-105315800D01*
X157394150Y-105315800D01*
X157418091Y-105316976D01*
G37*
G36*
X155843091Y-105316976D02*
G01*
X155866801Y-105320493D01*
X155890052Y-105326317D01*
X155912620Y-105334392D01*
X155934289Y-105344641D01*
X155954848Y-105356964D01*
X155974101Y-105371242D01*
X155991861Y-105387339D01*
X156007958Y-105405099D01*
X156022236Y-105424352D01*
X156034559Y-105444911D01*
X156044808Y-105466580D01*
X156052883Y-105489148D01*
X156058707Y-105512399D01*
X156062224Y-105536109D01*
X156063400Y-105560050D01*
X156063400Y-106123550D01*
X156062224Y-106147491D01*
X156058707Y-106171201D01*
X156052883Y-106194452D01*
X156044808Y-106217020D01*
X156034559Y-106238689D01*
X156022236Y-106259248D01*
X156007958Y-106278501D01*
X155991861Y-106296261D01*
X155974101Y-106312358D01*
X155954848Y-106326636D01*
X155934289Y-106338959D01*
X155912620Y-106349208D01*
X155890052Y-106357283D01*
X155866801Y-106363107D01*
X155843091Y-106366624D01*
X155819150Y-106367800D01*
X155330650Y-106367800D01*
X155306709Y-106366624D01*
X155282999Y-106363107D01*
X155259748Y-106357283D01*
X155237180Y-106349208D01*
X155215511Y-106338959D01*
X155194952Y-106326636D01*
X155175699Y-106312358D01*
X155157939Y-106296261D01*
X155141842Y-106278501D01*
X155127564Y-106259248D01*
X155115241Y-106238689D01*
X155104992Y-106217020D01*
X155096917Y-106194452D01*
X155091093Y-106171201D01*
X155087576Y-106147491D01*
X155086400Y-106123550D01*
X155086400Y-105560050D01*
X155087576Y-105536109D01*
X155091093Y-105512399D01*
X155096917Y-105489148D01*
X155104992Y-105466580D01*
X155115241Y-105444911D01*
X155127564Y-105424352D01*
X155141842Y-105405099D01*
X155157939Y-105387339D01*
X155175699Y-105371242D01*
X155194952Y-105356964D01*
X155215511Y-105344641D01*
X155237180Y-105334392D01*
X155259748Y-105326317D01*
X155282999Y-105320493D01*
X155306709Y-105316976D01*
X155330650Y-105315800D01*
X155819150Y-105315800D01*
X155843091Y-105316976D01*
G37*
%TD*%
%TO.C,R17*%
G36*
X143670691Y-96934676D02*
G01*
X143694401Y-96938193D01*
X143717652Y-96944017D01*
X143740220Y-96952092D01*
X143761889Y-96962341D01*
X143782448Y-96974664D01*
X143801701Y-96988942D01*
X143819461Y-97005039D01*
X143835558Y-97022799D01*
X143849836Y-97042052D01*
X143862159Y-97062611D01*
X143872408Y-97084280D01*
X143880483Y-97106848D01*
X143886307Y-97130099D01*
X143889824Y-97153809D01*
X143891000Y-97177750D01*
X143891000Y-97741250D01*
X143889824Y-97765191D01*
X143886307Y-97788901D01*
X143880483Y-97812152D01*
X143872408Y-97834720D01*
X143862159Y-97856389D01*
X143849836Y-97876948D01*
X143835558Y-97896201D01*
X143819461Y-97913961D01*
X143801701Y-97930058D01*
X143782448Y-97944336D01*
X143761889Y-97956659D01*
X143740220Y-97966908D01*
X143717652Y-97974983D01*
X143694401Y-97980807D01*
X143670691Y-97984324D01*
X143646750Y-97985500D01*
X143158250Y-97985500D01*
X143134309Y-97984324D01*
X143110599Y-97980807D01*
X143087348Y-97974983D01*
X143064780Y-97966908D01*
X143043111Y-97956659D01*
X143022552Y-97944336D01*
X143003299Y-97930058D01*
X142985539Y-97913961D01*
X142969442Y-97896201D01*
X142955164Y-97876948D01*
X142942841Y-97856389D01*
X142932592Y-97834720D01*
X142924517Y-97812152D01*
X142918693Y-97788901D01*
X142915176Y-97765191D01*
X142914000Y-97741250D01*
X142914000Y-97177750D01*
X142915176Y-97153809D01*
X142918693Y-97130099D01*
X142924517Y-97106848D01*
X142932592Y-97084280D01*
X142942841Y-97062611D01*
X142955164Y-97042052D01*
X142969442Y-97022799D01*
X142985539Y-97005039D01*
X143003299Y-96988942D01*
X143022552Y-96974664D01*
X143043111Y-96962341D01*
X143064780Y-96952092D01*
X143087348Y-96944017D01*
X143110599Y-96938193D01*
X143134309Y-96934676D01*
X143158250Y-96933500D01*
X143646750Y-96933500D01*
X143670691Y-96934676D01*
G37*
G36*
X145245691Y-96934676D02*
G01*
X145269401Y-96938193D01*
X145292652Y-96944017D01*
X145315220Y-96952092D01*
X145336889Y-96962341D01*
X145357448Y-96974664D01*
X145376701Y-96988942D01*
X145394461Y-97005039D01*
X145410558Y-97022799D01*
X145424836Y-97042052D01*
X145437159Y-97062611D01*
X145447408Y-97084280D01*
X145455483Y-97106848D01*
X145461307Y-97130099D01*
X145464824Y-97153809D01*
X145466000Y-97177750D01*
X145466000Y-97741250D01*
X145464824Y-97765191D01*
X145461307Y-97788901D01*
X145455483Y-97812152D01*
X145447408Y-97834720D01*
X145437159Y-97856389D01*
X145424836Y-97876948D01*
X145410558Y-97896201D01*
X145394461Y-97913961D01*
X145376701Y-97930058D01*
X145357448Y-97944336D01*
X145336889Y-97956659D01*
X145315220Y-97966908D01*
X145292652Y-97974983D01*
X145269401Y-97980807D01*
X145245691Y-97984324D01*
X145221750Y-97985500D01*
X144733250Y-97985500D01*
X144709309Y-97984324D01*
X144685599Y-97980807D01*
X144662348Y-97974983D01*
X144639780Y-97966908D01*
X144618111Y-97956659D01*
X144597552Y-97944336D01*
X144578299Y-97930058D01*
X144560539Y-97913961D01*
X144544442Y-97896201D01*
X144530164Y-97876948D01*
X144517841Y-97856389D01*
X144507592Y-97834720D01*
X144499517Y-97812152D01*
X144493693Y-97788901D01*
X144490176Y-97765191D01*
X144489000Y-97741250D01*
X144489000Y-97177750D01*
X144490176Y-97153809D01*
X144493693Y-97130099D01*
X144499517Y-97106848D01*
X144507592Y-97084280D01*
X144517841Y-97062611D01*
X144530164Y-97042052D01*
X144544442Y-97022799D01*
X144560539Y-97005039D01*
X144578299Y-96988942D01*
X144597552Y-96974664D01*
X144618111Y-96962341D01*
X144639780Y-96952092D01*
X144662348Y-96944017D01*
X144685599Y-96938193D01*
X144709309Y-96934676D01*
X144733250Y-96933500D01*
X145221750Y-96933500D01*
X145245691Y-96934676D01*
G37*
%TD*%
%TO.C,R16*%
G36*
X145245691Y-95334676D02*
G01*
X145269401Y-95338193D01*
X145292652Y-95344017D01*
X145315220Y-95352092D01*
X145336889Y-95362341D01*
X145357448Y-95374664D01*
X145376701Y-95388942D01*
X145394461Y-95405039D01*
X145410558Y-95422799D01*
X145424836Y-95442052D01*
X145437159Y-95462611D01*
X145447408Y-95484280D01*
X145455483Y-95506848D01*
X145461307Y-95530099D01*
X145464824Y-95553809D01*
X145466000Y-95577750D01*
X145466000Y-96141250D01*
X145464824Y-96165191D01*
X145461307Y-96188901D01*
X145455483Y-96212152D01*
X145447408Y-96234720D01*
X145437159Y-96256389D01*
X145424836Y-96276948D01*
X145410558Y-96296201D01*
X145394461Y-96313961D01*
X145376701Y-96330058D01*
X145357448Y-96344336D01*
X145336889Y-96356659D01*
X145315220Y-96366908D01*
X145292652Y-96374983D01*
X145269401Y-96380807D01*
X145245691Y-96384324D01*
X145221750Y-96385500D01*
X144733250Y-96385500D01*
X144709309Y-96384324D01*
X144685599Y-96380807D01*
X144662348Y-96374983D01*
X144639780Y-96366908D01*
X144618111Y-96356659D01*
X144597552Y-96344336D01*
X144578299Y-96330058D01*
X144560539Y-96313961D01*
X144544442Y-96296201D01*
X144530164Y-96276948D01*
X144517841Y-96256389D01*
X144507592Y-96234720D01*
X144499517Y-96212152D01*
X144493693Y-96188901D01*
X144490176Y-96165191D01*
X144489000Y-96141250D01*
X144489000Y-95577750D01*
X144490176Y-95553809D01*
X144493693Y-95530099D01*
X144499517Y-95506848D01*
X144507592Y-95484280D01*
X144517841Y-95462611D01*
X144530164Y-95442052D01*
X144544442Y-95422799D01*
X144560539Y-95405039D01*
X144578299Y-95388942D01*
X144597552Y-95374664D01*
X144618111Y-95362341D01*
X144639780Y-95352092D01*
X144662348Y-95344017D01*
X144685599Y-95338193D01*
X144709309Y-95334676D01*
X144733250Y-95333500D01*
X145221750Y-95333500D01*
X145245691Y-95334676D01*
G37*
G36*
X143670691Y-95334676D02*
G01*
X143694401Y-95338193D01*
X143717652Y-95344017D01*
X143740220Y-95352092D01*
X143761889Y-95362341D01*
X143782448Y-95374664D01*
X143801701Y-95388942D01*
X143819461Y-95405039D01*
X143835558Y-95422799D01*
X143849836Y-95442052D01*
X143862159Y-95462611D01*
X143872408Y-95484280D01*
X143880483Y-95506848D01*
X143886307Y-95530099D01*
X143889824Y-95553809D01*
X143891000Y-95577750D01*
X143891000Y-96141250D01*
X143889824Y-96165191D01*
X143886307Y-96188901D01*
X143880483Y-96212152D01*
X143872408Y-96234720D01*
X143862159Y-96256389D01*
X143849836Y-96276948D01*
X143835558Y-96296201D01*
X143819461Y-96313961D01*
X143801701Y-96330058D01*
X143782448Y-96344336D01*
X143761889Y-96356659D01*
X143740220Y-96366908D01*
X143717652Y-96374983D01*
X143694401Y-96380807D01*
X143670691Y-96384324D01*
X143646750Y-96385500D01*
X143158250Y-96385500D01*
X143134309Y-96384324D01*
X143110599Y-96380807D01*
X143087348Y-96374983D01*
X143064780Y-96366908D01*
X143043111Y-96356659D01*
X143022552Y-96344336D01*
X143003299Y-96330058D01*
X142985539Y-96313961D01*
X142969442Y-96296201D01*
X142955164Y-96276948D01*
X142942841Y-96256389D01*
X142932592Y-96234720D01*
X142924517Y-96212152D01*
X142918693Y-96188901D01*
X142915176Y-96165191D01*
X142914000Y-96141250D01*
X142914000Y-95577750D01*
X142915176Y-95553809D01*
X142918693Y-95530099D01*
X142924517Y-95506848D01*
X142932592Y-95484280D01*
X142942841Y-95462611D01*
X142955164Y-95442052D01*
X142969442Y-95422799D01*
X142985539Y-95405039D01*
X143003299Y-95388942D01*
X143022552Y-95374664D01*
X143043111Y-95362341D01*
X143064780Y-95352092D01*
X143087348Y-95344017D01*
X143110599Y-95338193D01*
X143134309Y-95334676D01*
X143158250Y-95333500D01*
X143646750Y-95333500D01*
X143670691Y-95334676D01*
G37*
%TD*%
%TO.C,R7*%
G36*
X173089791Y-101837176D02*
G01*
X173113501Y-101840693D01*
X173136752Y-101846517D01*
X173159320Y-101854592D01*
X173180989Y-101864841D01*
X173201548Y-101877164D01*
X173220801Y-101891442D01*
X173238561Y-101907539D01*
X173254658Y-101925299D01*
X173268936Y-101944552D01*
X173281259Y-101965111D01*
X173291508Y-101986780D01*
X173299583Y-102009348D01*
X173305407Y-102032599D01*
X173308924Y-102056309D01*
X173310100Y-102080250D01*
X173310100Y-102643750D01*
X173308924Y-102667691D01*
X173305407Y-102691401D01*
X173299583Y-102714652D01*
X173291508Y-102737220D01*
X173281259Y-102758889D01*
X173268936Y-102779448D01*
X173254658Y-102798701D01*
X173238561Y-102816461D01*
X173220801Y-102832558D01*
X173201548Y-102846836D01*
X173180989Y-102859159D01*
X173159320Y-102869408D01*
X173136752Y-102877483D01*
X173113501Y-102883307D01*
X173089791Y-102886824D01*
X173065850Y-102888000D01*
X172577350Y-102888000D01*
X172553409Y-102886824D01*
X172529699Y-102883307D01*
X172506448Y-102877483D01*
X172483880Y-102869408D01*
X172462211Y-102859159D01*
X172441652Y-102846836D01*
X172422399Y-102832558D01*
X172404639Y-102816461D01*
X172388542Y-102798701D01*
X172374264Y-102779448D01*
X172361941Y-102758889D01*
X172351692Y-102737220D01*
X172343617Y-102714652D01*
X172337793Y-102691401D01*
X172334276Y-102667691D01*
X172333100Y-102643750D01*
X172333100Y-102080250D01*
X172334276Y-102056309D01*
X172337793Y-102032599D01*
X172343617Y-102009348D01*
X172351692Y-101986780D01*
X172361941Y-101965111D01*
X172374264Y-101944552D01*
X172388542Y-101925299D01*
X172404639Y-101907539D01*
X172422399Y-101891442D01*
X172441652Y-101877164D01*
X172462211Y-101864841D01*
X172483880Y-101854592D01*
X172506448Y-101846517D01*
X172529699Y-101840693D01*
X172553409Y-101837176D01*
X172577350Y-101836000D01*
X173065850Y-101836000D01*
X173089791Y-101837176D01*
G37*
G36*
X171514791Y-101837176D02*
G01*
X171538501Y-101840693D01*
X171561752Y-101846517D01*
X171584320Y-101854592D01*
X171605989Y-101864841D01*
X171626548Y-101877164D01*
X171645801Y-101891442D01*
X171663561Y-101907539D01*
X171679658Y-101925299D01*
X171693936Y-101944552D01*
X171706259Y-101965111D01*
X171716508Y-101986780D01*
X171724583Y-102009348D01*
X171730407Y-102032599D01*
X171733924Y-102056309D01*
X171735100Y-102080250D01*
X171735100Y-102643750D01*
X171733924Y-102667691D01*
X171730407Y-102691401D01*
X171724583Y-102714652D01*
X171716508Y-102737220D01*
X171706259Y-102758889D01*
X171693936Y-102779448D01*
X171679658Y-102798701D01*
X171663561Y-102816461D01*
X171645801Y-102832558D01*
X171626548Y-102846836D01*
X171605989Y-102859159D01*
X171584320Y-102869408D01*
X171561752Y-102877483D01*
X171538501Y-102883307D01*
X171514791Y-102886824D01*
X171490850Y-102888000D01*
X171002350Y-102888000D01*
X170978409Y-102886824D01*
X170954699Y-102883307D01*
X170931448Y-102877483D01*
X170908880Y-102869408D01*
X170887211Y-102859159D01*
X170866652Y-102846836D01*
X170847399Y-102832558D01*
X170829639Y-102816461D01*
X170813542Y-102798701D01*
X170799264Y-102779448D01*
X170786941Y-102758889D01*
X170776692Y-102737220D01*
X170768617Y-102714652D01*
X170762793Y-102691401D01*
X170759276Y-102667691D01*
X170758100Y-102643750D01*
X170758100Y-102080250D01*
X170759276Y-102056309D01*
X170762793Y-102032599D01*
X170768617Y-102009348D01*
X170776692Y-101986780D01*
X170786941Y-101965111D01*
X170799264Y-101944552D01*
X170813542Y-101925299D01*
X170829639Y-101907539D01*
X170847399Y-101891442D01*
X170866652Y-101877164D01*
X170887211Y-101864841D01*
X170908880Y-101854592D01*
X170931448Y-101846517D01*
X170954699Y-101840693D01*
X170978409Y-101837176D01*
X171002350Y-101836000D01*
X171490850Y-101836000D01*
X171514791Y-101837176D01*
G37*
%TD*%
%TO.C,R6*%
G36*
X173089791Y-103411976D02*
G01*
X173113501Y-103415493D01*
X173136752Y-103421317D01*
X173159320Y-103429392D01*
X173180989Y-103439641D01*
X173201548Y-103451964D01*
X173220801Y-103466242D01*
X173238561Y-103482339D01*
X173254658Y-103500099D01*
X173268936Y-103519352D01*
X173281259Y-103539911D01*
X173291508Y-103561580D01*
X173299583Y-103584148D01*
X173305407Y-103607399D01*
X173308924Y-103631109D01*
X173310100Y-103655050D01*
X173310100Y-104218550D01*
X173308924Y-104242491D01*
X173305407Y-104266201D01*
X173299583Y-104289452D01*
X173291508Y-104312020D01*
X173281259Y-104333689D01*
X173268936Y-104354248D01*
X173254658Y-104373501D01*
X173238561Y-104391261D01*
X173220801Y-104407358D01*
X173201548Y-104421636D01*
X173180989Y-104433959D01*
X173159320Y-104444208D01*
X173136752Y-104452283D01*
X173113501Y-104458107D01*
X173089791Y-104461624D01*
X173065850Y-104462800D01*
X172577350Y-104462800D01*
X172553409Y-104461624D01*
X172529699Y-104458107D01*
X172506448Y-104452283D01*
X172483880Y-104444208D01*
X172462211Y-104433959D01*
X172441652Y-104421636D01*
X172422399Y-104407358D01*
X172404639Y-104391261D01*
X172388542Y-104373501D01*
X172374264Y-104354248D01*
X172361941Y-104333689D01*
X172351692Y-104312020D01*
X172343617Y-104289452D01*
X172337793Y-104266201D01*
X172334276Y-104242491D01*
X172333100Y-104218550D01*
X172333100Y-103655050D01*
X172334276Y-103631109D01*
X172337793Y-103607399D01*
X172343617Y-103584148D01*
X172351692Y-103561580D01*
X172361941Y-103539911D01*
X172374264Y-103519352D01*
X172388542Y-103500099D01*
X172404639Y-103482339D01*
X172422399Y-103466242D01*
X172441652Y-103451964D01*
X172462211Y-103439641D01*
X172483880Y-103429392D01*
X172506448Y-103421317D01*
X172529699Y-103415493D01*
X172553409Y-103411976D01*
X172577350Y-103410800D01*
X173065850Y-103410800D01*
X173089791Y-103411976D01*
G37*
G36*
X171514791Y-103411976D02*
G01*
X171538501Y-103415493D01*
X171561752Y-103421317D01*
X171584320Y-103429392D01*
X171605989Y-103439641D01*
X171626548Y-103451964D01*
X171645801Y-103466242D01*
X171663561Y-103482339D01*
X171679658Y-103500099D01*
X171693936Y-103519352D01*
X171706259Y-103539911D01*
X171716508Y-103561580D01*
X171724583Y-103584148D01*
X171730407Y-103607399D01*
X171733924Y-103631109D01*
X171735100Y-103655050D01*
X171735100Y-104218550D01*
X171733924Y-104242491D01*
X171730407Y-104266201D01*
X171724583Y-104289452D01*
X171716508Y-104312020D01*
X171706259Y-104333689D01*
X171693936Y-104354248D01*
X171679658Y-104373501D01*
X171663561Y-104391261D01*
X171645801Y-104407358D01*
X171626548Y-104421636D01*
X171605989Y-104433959D01*
X171584320Y-104444208D01*
X171561752Y-104452283D01*
X171538501Y-104458107D01*
X171514791Y-104461624D01*
X171490850Y-104462800D01*
X171002350Y-104462800D01*
X170978409Y-104461624D01*
X170954699Y-104458107D01*
X170931448Y-104452283D01*
X170908880Y-104444208D01*
X170887211Y-104433959D01*
X170866652Y-104421636D01*
X170847399Y-104407358D01*
X170829639Y-104391261D01*
X170813542Y-104373501D01*
X170799264Y-104354248D01*
X170786941Y-104333689D01*
X170776692Y-104312020D01*
X170768617Y-104289452D01*
X170762793Y-104266201D01*
X170759276Y-104242491D01*
X170758100Y-104218550D01*
X170758100Y-103655050D01*
X170759276Y-103631109D01*
X170762793Y-103607399D01*
X170768617Y-103584148D01*
X170776692Y-103561580D01*
X170786941Y-103539911D01*
X170799264Y-103519352D01*
X170813542Y-103500099D01*
X170829639Y-103482339D01*
X170847399Y-103466242D01*
X170866652Y-103451964D01*
X170887211Y-103439641D01*
X170908880Y-103429392D01*
X170931448Y-103421317D01*
X170954699Y-103415493D01*
X170978409Y-103411976D01*
X171002350Y-103410800D01*
X171490850Y-103410800D01*
X171514791Y-103411976D01*
G37*
%TD*%
D23*
%TO.C,U3*%
X176925000Y-102400000D03*
X174975000Y-100800000D03*
X175625000Y-100800000D03*
X176275000Y-100800000D03*
X174975000Y-102400000D03*
X175625000Y-102400000D03*
X176275000Y-102400000D03*
X176925000Y-100800000D03*
%TD*%
D12*
%TO.C,U1*%
G36*
X181442702Y-94944845D02*
G01*
X181459738Y-94947372D01*
X181476445Y-94951557D01*
X181492661Y-94957359D01*
X181508230Y-94964723D01*
X181523003Y-94973577D01*
X181536836Y-94983837D01*
X181549597Y-94995403D01*
X181561163Y-95008164D01*
X181571423Y-95021997D01*
X181580277Y-95036770D01*
X181587641Y-95052339D01*
X181593443Y-95068555D01*
X181597628Y-95085262D01*
X181600155Y-95102298D01*
X181601000Y-95119500D01*
X181601000Y-95470500D01*
X181600155Y-95487702D01*
X181597628Y-95504738D01*
X181593443Y-95521445D01*
X181587641Y-95537661D01*
X181580277Y-95553230D01*
X181571423Y-95568003D01*
X181561163Y-95581836D01*
X181549597Y-95594597D01*
X181536836Y-95606163D01*
X181523003Y-95616423D01*
X181508230Y-95625277D01*
X181492661Y-95632641D01*
X181476445Y-95638443D01*
X181459738Y-95642628D01*
X181442702Y-95645155D01*
X181425500Y-95646000D01*
X179724500Y-95646000D01*
X179707298Y-95645155D01*
X179690262Y-95642628D01*
X179673555Y-95638443D01*
X179657339Y-95632641D01*
X179641770Y-95625277D01*
X179626997Y-95616423D01*
X179613164Y-95606163D01*
X179600403Y-95594597D01*
X179588837Y-95581836D01*
X179578577Y-95568003D01*
X179569723Y-95553230D01*
X179562359Y-95537661D01*
X179556557Y-95521445D01*
X179552372Y-95504738D01*
X179549845Y-95487702D01*
X179549000Y-95470500D01*
X179549000Y-95119500D01*
X179549845Y-95102298D01*
X179552372Y-95085262D01*
X179556557Y-95068555D01*
X179562359Y-95052339D01*
X179569723Y-95036770D01*
X179578577Y-95021997D01*
X179588837Y-95008164D01*
X179600403Y-94995403D01*
X179613164Y-94983837D01*
X179626997Y-94973577D01*
X179641770Y-94964723D01*
X179657339Y-94957359D01*
X179673555Y-94951557D01*
X179690262Y-94947372D01*
X179707298Y-94944845D01*
X179724500Y-94944000D01*
X181425500Y-94944000D01*
X181442702Y-94944845D01*
G37*
G36*
X181442702Y-96214845D02*
G01*
X181459738Y-96217372D01*
X181476445Y-96221557D01*
X181492661Y-96227359D01*
X181508230Y-96234723D01*
X181523003Y-96243577D01*
X181536836Y-96253837D01*
X181549597Y-96265403D01*
X181561163Y-96278164D01*
X181571423Y-96291997D01*
X181580277Y-96306770D01*
X181587641Y-96322339D01*
X181593443Y-96338555D01*
X181597628Y-96355262D01*
X181600155Y-96372298D01*
X181601000Y-96389500D01*
X181601000Y-96740500D01*
X181600155Y-96757702D01*
X181597628Y-96774738D01*
X181593443Y-96791445D01*
X181587641Y-96807661D01*
X181580277Y-96823230D01*
X181571423Y-96838003D01*
X181561163Y-96851836D01*
X181549597Y-96864597D01*
X181536836Y-96876163D01*
X181523003Y-96886423D01*
X181508230Y-96895277D01*
X181492661Y-96902641D01*
X181476445Y-96908443D01*
X181459738Y-96912628D01*
X181442702Y-96915155D01*
X181425500Y-96916000D01*
X179724500Y-96916000D01*
X179707298Y-96915155D01*
X179690262Y-96912628D01*
X179673555Y-96908443D01*
X179657339Y-96902641D01*
X179641770Y-96895277D01*
X179626997Y-96886423D01*
X179613164Y-96876163D01*
X179600403Y-96864597D01*
X179588837Y-96851836D01*
X179578577Y-96838003D01*
X179569723Y-96823230D01*
X179562359Y-96807661D01*
X179556557Y-96791445D01*
X179552372Y-96774738D01*
X179549845Y-96757702D01*
X179549000Y-96740500D01*
X179549000Y-96389500D01*
X179549845Y-96372298D01*
X179552372Y-96355262D01*
X179556557Y-96338555D01*
X179562359Y-96322339D01*
X179569723Y-96306770D01*
X179578577Y-96291997D01*
X179588837Y-96278164D01*
X179600403Y-96265403D01*
X179613164Y-96253837D01*
X179626997Y-96243577D01*
X179641770Y-96234723D01*
X179657339Y-96227359D01*
X179673555Y-96221557D01*
X179690262Y-96217372D01*
X179707298Y-96214845D01*
X179724500Y-96214000D01*
X181425500Y-96214000D01*
X181442702Y-96214845D01*
G37*
G36*
X181442702Y-97484845D02*
G01*
X181459738Y-97487372D01*
X181476445Y-97491557D01*
X181492661Y-97497359D01*
X181508230Y-97504723D01*
X181523003Y-97513577D01*
X181536836Y-97523837D01*
X181549597Y-97535403D01*
X181561163Y-97548164D01*
X181571423Y-97561997D01*
X181580277Y-97576770D01*
X181587641Y-97592339D01*
X181593443Y-97608555D01*
X181597628Y-97625262D01*
X181600155Y-97642298D01*
X181601000Y-97659500D01*
X181601000Y-98010500D01*
X181600155Y-98027702D01*
X181597628Y-98044738D01*
X181593443Y-98061445D01*
X181587641Y-98077661D01*
X181580277Y-98093230D01*
X181571423Y-98108003D01*
X181561163Y-98121836D01*
X181549597Y-98134597D01*
X181536836Y-98146163D01*
X181523003Y-98156423D01*
X181508230Y-98165277D01*
X181492661Y-98172641D01*
X181476445Y-98178443D01*
X181459738Y-98182628D01*
X181442702Y-98185155D01*
X181425500Y-98186000D01*
X179724500Y-98186000D01*
X179707298Y-98185155D01*
X179690262Y-98182628D01*
X179673555Y-98178443D01*
X179657339Y-98172641D01*
X179641770Y-98165277D01*
X179626997Y-98156423D01*
X179613164Y-98146163D01*
X179600403Y-98134597D01*
X179588837Y-98121836D01*
X179578577Y-98108003D01*
X179569723Y-98093230D01*
X179562359Y-98077661D01*
X179556557Y-98061445D01*
X179552372Y-98044738D01*
X179549845Y-98027702D01*
X179549000Y-98010500D01*
X179549000Y-97659500D01*
X179549845Y-97642298D01*
X179552372Y-97625262D01*
X179556557Y-97608555D01*
X179562359Y-97592339D01*
X179569723Y-97576770D01*
X179578577Y-97561997D01*
X179588837Y-97548164D01*
X179600403Y-97535403D01*
X179613164Y-97523837D01*
X179626997Y-97513577D01*
X179641770Y-97504723D01*
X179657339Y-97497359D01*
X179673555Y-97491557D01*
X179690262Y-97487372D01*
X179707298Y-97484845D01*
X179724500Y-97484000D01*
X181425500Y-97484000D01*
X181442702Y-97484845D01*
G37*
G36*
X181442702Y-98754845D02*
G01*
X181459738Y-98757372D01*
X181476445Y-98761557D01*
X181492661Y-98767359D01*
X181508230Y-98774723D01*
X181523003Y-98783577D01*
X181536836Y-98793837D01*
X181549597Y-98805403D01*
X181561163Y-98818164D01*
X181571423Y-98831997D01*
X181580277Y-98846770D01*
X181587641Y-98862339D01*
X181593443Y-98878555D01*
X181597628Y-98895262D01*
X181600155Y-98912298D01*
X181601000Y-98929500D01*
X181601000Y-99280500D01*
X181600155Y-99297702D01*
X181597628Y-99314738D01*
X181593443Y-99331445D01*
X181587641Y-99347661D01*
X181580277Y-99363230D01*
X181571423Y-99378003D01*
X181561163Y-99391836D01*
X181549597Y-99404597D01*
X181536836Y-99416163D01*
X181523003Y-99426423D01*
X181508230Y-99435277D01*
X181492661Y-99442641D01*
X181476445Y-99448443D01*
X181459738Y-99452628D01*
X181442702Y-99455155D01*
X181425500Y-99456000D01*
X179724500Y-99456000D01*
X179707298Y-99455155D01*
X179690262Y-99452628D01*
X179673555Y-99448443D01*
X179657339Y-99442641D01*
X179641770Y-99435277D01*
X179626997Y-99426423D01*
X179613164Y-99416163D01*
X179600403Y-99404597D01*
X179588837Y-99391836D01*
X179578577Y-99378003D01*
X179569723Y-99363230D01*
X179562359Y-99347661D01*
X179556557Y-99331445D01*
X179552372Y-99314738D01*
X179549845Y-99297702D01*
X179549000Y-99280500D01*
X179549000Y-98929500D01*
X179549845Y-98912298D01*
X179552372Y-98895262D01*
X179556557Y-98878555D01*
X179562359Y-98862339D01*
X179569723Y-98846770D01*
X179578577Y-98831997D01*
X179588837Y-98818164D01*
X179600403Y-98805403D01*
X179613164Y-98793837D01*
X179626997Y-98783577D01*
X179641770Y-98774723D01*
X179657339Y-98767359D01*
X179673555Y-98761557D01*
X179690262Y-98757372D01*
X179707298Y-98754845D01*
X179724500Y-98754000D01*
X181425500Y-98754000D01*
X181442702Y-98754845D01*
G37*
G36*
X176492702Y-98754845D02*
G01*
X176509738Y-98757372D01*
X176526445Y-98761557D01*
X176542661Y-98767359D01*
X176558230Y-98774723D01*
X176573003Y-98783577D01*
X176586836Y-98793837D01*
X176599597Y-98805403D01*
X176611163Y-98818164D01*
X176621423Y-98831997D01*
X176630277Y-98846770D01*
X176637641Y-98862339D01*
X176643443Y-98878555D01*
X176647628Y-98895262D01*
X176650155Y-98912298D01*
X176651000Y-98929500D01*
X176651000Y-99280500D01*
X176650155Y-99297702D01*
X176647628Y-99314738D01*
X176643443Y-99331445D01*
X176637641Y-99347661D01*
X176630277Y-99363230D01*
X176621423Y-99378003D01*
X176611163Y-99391836D01*
X176599597Y-99404597D01*
X176586836Y-99416163D01*
X176573003Y-99426423D01*
X176558230Y-99435277D01*
X176542661Y-99442641D01*
X176526445Y-99448443D01*
X176509738Y-99452628D01*
X176492702Y-99455155D01*
X176475500Y-99456000D01*
X174774500Y-99456000D01*
X174757298Y-99455155D01*
X174740262Y-99452628D01*
X174723555Y-99448443D01*
X174707339Y-99442641D01*
X174691770Y-99435277D01*
X174676997Y-99426423D01*
X174663164Y-99416163D01*
X174650403Y-99404597D01*
X174638837Y-99391836D01*
X174628577Y-99378003D01*
X174619723Y-99363230D01*
X174612359Y-99347661D01*
X174606557Y-99331445D01*
X174602372Y-99314738D01*
X174599845Y-99297702D01*
X174599000Y-99280500D01*
X174599000Y-98929500D01*
X174599845Y-98912298D01*
X174602372Y-98895262D01*
X174606557Y-98878555D01*
X174612359Y-98862339D01*
X174619723Y-98846770D01*
X174628577Y-98831997D01*
X174638837Y-98818164D01*
X174650403Y-98805403D01*
X174663164Y-98793837D01*
X174676997Y-98783577D01*
X174691770Y-98774723D01*
X174707339Y-98767359D01*
X174723555Y-98761557D01*
X174740262Y-98757372D01*
X174757298Y-98754845D01*
X174774500Y-98754000D01*
X176475500Y-98754000D01*
X176492702Y-98754845D01*
G37*
G36*
X176492702Y-97484845D02*
G01*
X176509738Y-97487372D01*
X176526445Y-97491557D01*
X176542661Y-97497359D01*
X176558230Y-97504723D01*
X176573003Y-97513577D01*
X176586836Y-97523837D01*
X176599597Y-97535403D01*
X176611163Y-97548164D01*
X176621423Y-97561997D01*
X176630277Y-97576770D01*
X176637641Y-97592339D01*
X176643443Y-97608555D01*
X176647628Y-97625262D01*
X176650155Y-97642298D01*
X176651000Y-97659500D01*
X176651000Y-98010500D01*
X176650155Y-98027702D01*
X176647628Y-98044738D01*
X176643443Y-98061445D01*
X176637641Y-98077661D01*
X176630277Y-98093230D01*
X176621423Y-98108003D01*
X176611163Y-98121836D01*
X176599597Y-98134597D01*
X176586836Y-98146163D01*
X176573003Y-98156423D01*
X176558230Y-98165277D01*
X176542661Y-98172641D01*
X176526445Y-98178443D01*
X176509738Y-98182628D01*
X176492702Y-98185155D01*
X176475500Y-98186000D01*
X174774500Y-98186000D01*
X174757298Y-98185155D01*
X174740262Y-98182628D01*
X174723555Y-98178443D01*
X174707339Y-98172641D01*
X174691770Y-98165277D01*
X174676997Y-98156423D01*
X174663164Y-98146163D01*
X174650403Y-98134597D01*
X174638837Y-98121836D01*
X174628577Y-98108003D01*
X174619723Y-98093230D01*
X174612359Y-98077661D01*
X174606557Y-98061445D01*
X174602372Y-98044738D01*
X174599845Y-98027702D01*
X174599000Y-98010500D01*
X174599000Y-97659500D01*
X174599845Y-97642298D01*
X174602372Y-97625262D01*
X174606557Y-97608555D01*
X174612359Y-97592339D01*
X174619723Y-97576770D01*
X174628577Y-97561997D01*
X174638837Y-97548164D01*
X174650403Y-97535403D01*
X174663164Y-97523837D01*
X174676997Y-97513577D01*
X174691770Y-97504723D01*
X174707339Y-97497359D01*
X174723555Y-97491557D01*
X174740262Y-97487372D01*
X174757298Y-97484845D01*
X174774500Y-97484000D01*
X176475500Y-97484000D01*
X176492702Y-97484845D01*
G37*
G36*
X176492702Y-96214845D02*
G01*
X176509738Y-96217372D01*
X176526445Y-96221557D01*
X176542661Y-96227359D01*
X176558230Y-96234723D01*
X176573003Y-96243577D01*
X176586836Y-96253837D01*
X176599597Y-96265403D01*
X176611163Y-96278164D01*
X176621423Y-96291997D01*
X176630277Y-96306770D01*
X176637641Y-96322339D01*
X176643443Y-96338555D01*
X176647628Y-96355262D01*
X176650155Y-96372298D01*
X176651000Y-96389500D01*
X176651000Y-96740500D01*
X176650155Y-96757702D01*
X176647628Y-96774738D01*
X176643443Y-96791445D01*
X176637641Y-96807661D01*
X176630277Y-96823230D01*
X176621423Y-96838003D01*
X176611163Y-96851836D01*
X176599597Y-96864597D01*
X176586836Y-96876163D01*
X176573003Y-96886423D01*
X176558230Y-96895277D01*
X176542661Y-96902641D01*
X176526445Y-96908443D01*
X176509738Y-96912628D01*
X176492702Y-96915155D01*
X176475500Y-96916000D01*
X174774500Y-96916000D01*
X174757298Y-96915155D01*
X174740262Y-96912628D01*
X174723555Y-96908443D01*
X174707339Y-96902641D01*
X174691770Y-96895277D01*
X174676997Y-96886423D01*
X174663164Y-96876163D01*
X174650403Y-96864597D01*
X174638837Y-96851836D01*
X174628577Y-96838003D01*
X174619723Y-96823230D01*
X174612359Y-96807661D01*
X174606557Y-96791445D01*
X174602372Y-96774738D01*
X174599845Y-96757702D01*
X174599000Y-96740500D01*
X174599000Y-96389500D01*
X174599845Y-96372298D01*
X174602372Y-96355262D01*
X174606557Y-96338555D01*
X174612359Y-96322339D01*
X174619723Y-96306770D01*
X174628577Y-96291997D01*
X174638837Y-96278164D01*
X174650403Y-96265403D01*
X174663164Y-96253837D01*
X174676997Y-96243577D01*
X174691770Y-96234723D01*
X174707339Y-96227359D01*
X174723555Y-96221557D01*
X174740262Y-96217372D01*
X174757298Y-96214845D01*
X174774500Y-96214000D01*
X176475500Y-96214000D01*
X176492702Y-96214845D01*
G37*
G36*
X176492702Y-94944845D02*
G01*
X176509738Y-94947372D01*
X176526445Y-94951557D01*
X176542661Y-94957359D01*
X176558230Y-94964723D01*
X176573003Y-94973577D01*
X176586836Y-94983837D01*
X176599597Y-94995403D01*
X176611163Y-95008164D01*
X176621423Y-95021997D01*
X176630277Y-95036770D01*
X176637641Y-95052339D01*
X176643443Y-95068555D01*
X176647628Y-95085262D01*
X176650155Y-95102298D01*
X176651000Y-95119500D01*
X176651000Y-95470500D01*
X176650155Y-95487702D01*
X176647628Y-95504738D01*
X176643443Y-95521445D01*
X176637641Y-95537661D01*
X176630277Y-95553230D01*
X176621423Y-95568003D01*
X176611163Y-95581836D01*
X176599597Y-95594597D01*
X176586836Y-95606163D01*
X176573003Y-95616423D01*
X176558230Y-95625277D01*
X176542661Y-95632641D01*
X176526445Y-95638443D01*
X176509738Y-95642628D01*
X176492702Y-95645155D01*
X176475500Y-95646000D01*
X174774500Y-95646000D01*
X174757298Y-95645155D01*
X174740262Y-95642628D01*
X174723555Y-95638443D01*
X174707339Y-95632641D01*
X174691770Y-95625277D01*
X174676997Y-95616423D01*
X174663164Y-95606163D01*
X174650403Y-95594597D01*
X174638837Y-95581836D01*
X174628577Y-95568003D01*
X174619723Y-95553230D01*
X174612359Y-95537661D01*
X174606557Y-95521445D01*
X174602372Y-95504738D01*
X174599845Y-95487702D01*
X174599000Y-95470500D01*
X174599000Y-95119500D01*
X174599845Y-95102298D01*
X174602372Y-95085262D01*
X174606557Y-95068555D01*
X174612359Y-95052339D01*
X174619723Y-95036770D01*
X174628577Y-95021997D01*
X174638837Y-95008164D01*
X174650403Y-94995403D01*
X174663164Y-94983837D01*
X174676997Y-94973577D01*
X174691770Y-94964723D01*
X174707339Y-94957359D01*
X174723555Y-94951557D01*
X174740262Y-94947372D01*
X174757298Y-94944845D01*
X174774500Y-94944000D01*
X176475500Y-94944000D01*
X176492702Y-94944845D01*
G37*
%TD*%
D24*
%TO.C,U6*%
X160106000Y-121682000D03*
X160106000Y-122182000D03*
X160106000Y-122682000D03*
X160106000Y-123182000D03*
X160106000Y-123682000D03*
X164506000Y-123682000D03*
X164506000Y-123182000D03*
X164506000Y-122682000D03*
X164506000Y-122182000D03*
X164506000Y-121682000D03*
%TD*%
D19*
%TO.C,U11*%
X146500000Y-121350000D03*
X145550000Y-121350000D03*
X144600000Y-121350000D03*
X144600000Y-123550000D03*
X146500000Y-123550000D03*
%TD*%
D12*
%TO.C,R11*%
G36*
X169279791Y-101837176D02*
G01*
X169303501Y-101840693D01*
X169326752Y-101846517D01*
X169349320Y-101854592D01*
X169370989Y-101864841D01*
X169391548Y-101877164D01*
X169410801Y-101891442D01*
X169428561Y-101907539D01*
X169444658Y-101925299D01*
X169458936Y-101944552D01*
X169471259Y-101965111D01*
X169481508Y-101986780D01*
X169489583Y-102009348D01*
X169495407Y-102032599D01*
X169498924Y-102056309D01*
X169500100Y-102080250D01*
X169500100Y-102643750D01*
X169498924Y-102667691D01*
X169495407Y-102691401D01*
X169489583Y-102714652D01*
X169481508Y-102737220D01*
X169471259Y-102758889D01*
X169458936Y-102779448D01*
X169444658Y-102798701D01*
X169428561Y-102816461D01*
X169410801Y-102832558D01*
X169391548Y-102846836D01*
X169370989Y-102859159D01*
X169349320Y-102869408D01*
X169326752Y-102877483D01*
X169303501Y-102883307D01*
X169279791Y-102886824D01*
X169255850Y-102888000D01*
X168767350Y-102888000D01*
X168743409Y-102886824D01*
X168719699Y-102883307D01*
X168696448Y-102877483D01*
X168673880Y-102869408D01*
X168652211Y-102859159D01*
X168631652Y-102846836D01*
X168612399Y-102832558D01*
X168594639Y-102816461D01*
X168578542Y-102798701D01*
X168564264Y-102779448D01*
X168551941Y-102758889D01*
X168541692Y-102737220D01*
X168533617Y-102714652D01*
X168527793Y-102691401D01*
X168524276Y-102667691D01*
X168523100Y-102643750D01*
X168523100Y-102080250D01*
X168524276Y-102056309D01*
X168527793Y-102032599D01*
X168533617Y-102009348D01*
X168541692Y-101986780D01*
X168551941Y-101965111D01*
X168564264Y-101944552D01*
X168578542Y-101925299D01*
X168594639Y-101907539D01*
X168612399Y-101891442D01*
X168631652Y-101877164D01*
X168652211Y-101864841D01*
X168673880Y-101854592D01*
X168696448Y-101846517D01*
X168719699Y-101840693D01*
X168743409Y-101837176D01*
X168767350Y-101836000D01*
X169255850Y-101836000D01*
X169279791Y-101837176D01*
G37*
G36*
X167704791Y-101837176D02*
G01*
X167728501Y-101840693D01*
X167751752Y-101846517D01*
X167774320Y-101854592D01*
X167795989Y-101864841D01*
X167816548Y-101877164D01*
X167835801Y-101891442D01*
X167853561Y-101907539D01*
X167869658Y-101925299D01*
X167883936Y-101944552D01*
X167896259Y-101965111D01*
X167906508Y-101986780D01*
X167914583Y-102009348D01*
X167920407Y-102032599D01*
X167923924Y-102056309D01*
X167925100Y-102080250D01*
X167925100Y-102643750D01*
X167923924Y-102667691D01*
X167920407Y-102691401D01*
X167914583Y-102714652D01*
X167906508Y-102737220D01*
X167896259Y-102758889D01*
X167883936Y-102779448D01*
X167869658Y-102798701D01*
X167853561Y-102816461D01*
X167835801Y-102832558D01*
X167816548Y-102846836D01*
X167795989Y-102859159D01*
X167774320Y-102869408D01*
X167751752Y-102877483D01*
X167728501Y-102883307D01*
X167704791Y-102886824D01*
X167680850Y-102888000D01*
X167192350Y-102888000D01*
X167168409Y-102886824D01*
X167144699Y-102883307D01*
X167121448Y-102877483D01*
X167098880Y-102869408D01*
X167077211Y-102859159D01*
X167056652Y-102846836D01*
X167037399Y-102832558D01*
X167019639Y-102816461D01*
X167003542Y-102798701D01*
X166989264Y-102779448D01*
X166976941Y-102758889D01*
X166966692Y-102737220D01*
X166958617Y-102714652D01*
X166952793Y-102691401D01*
X166949276Y-102667691D01*
X166948100Y-102643750D01*
X166948100Y-102080250D01*
X166949276Y-102056309D01*
X166952793Y-102032599D01*
X166958617Y-102009348D01*
X166966692Y-101986780D01*
X166976941Y-101965111D01*
X166989264Y-101944552D01*
X167003542Y-101925299D01*
X167019639Y-101907539D01*
X167037399Y-101891442D01*
X167056652Y-101877164D01*
X167077211Y-101864841D01*
X167098880Y-101854592D01*
X167121448Y-101846517D01*
X167144699Y-101840693D01*
X167168409Y-101837176D01*
X167192350Y-101836000D01*
X167680850Y-101836000D01*
X167704791Y-101837176D01*
G37*
%TD*%
%TO.C,R10*%
G36*
X152744491Y-96757176D02*
G01*
X152768201Y-96760693D01*
X152791452Y-96766517D01*
X152814020Y-96774592D01*
X152835689Y-96784841D01*
X152856248Y-96797164D01*
X152875501Y-96811442D01*
X152893261Y-96827539D01*
X152909358Y-96845299D01*
X152923636Y-96864552D01*
X152935959Y-96885111D01*
X152946208Y-96906780D01*
X152954283Y-96929348D01*
X152960107Y-96952599D01*
X152963624Y-96976309D01*
X152964800Y-97000250D01*
X152964800Y-97563750D01*
X152963624Y-97587691D01*
X152960107Y-97611401D01*
X152954283Y-97634652D01*
X152946208Y-97657220D01*
X152935959Y-97678889D01*
X152923636Y-97699448D01*
X152909358Y-97718701D01*
X152893261Y-97736461D01*
X152875501Y-97752558D01*
X152856248Y-97766836D01*
X152835689Y-97779159D01*
X152814020Y-97789408D01*
X152791452Y-97797483D01*
X152768201Y-97803307D01*
X152744491Y-97806824D01*
X152720550Y-97808000D01*
X152232050Y-97808000D01*
X152208109Y-97806824D01*
X152184399Y-97803307D01*
X152161148Y-97797483D01*
X152138580Y-97789408D01*
X152116911Y-97779159D01*
X152096352Y-97766836D01*
X152077099Y-97752558D01*
X152059339Y-97736461D01*
X152043242Y-97718701D01*
X152028964Y-97699448D01*
X152016641Y-97678889D01*
X152006392Y-97657220D01*
X151998317Y-97634652D01*
X151992493Y-97611401D01*
X151988976Y-97587691D01*
X151987800Y-97563750D01*
X151987800Y-97000250D01*
X151988976Y-96976309D01*
X151992493Y-96952599D01*
X151998317Y-96929348D01*
X152006392Y-96906780D01*
X152016641Y-96885111D01*
X152028964Y-96864552D01*
X152043242Y-96845299D01*
X152059339Y-96827539D01*
X152077099Y-96811442D01*
X152096352Y-96797164D01*
X152116911Y-96784841D01*
X152138580Y-96774592D01*
X152161148Y-96766517D01*
X152184399Y-96760693D01*
X152208109Y-96757176D01*
X152232050Y-96756000D01*
X152720550Y-96756000D01*
X152744491Y-96757176D01*
G37*
G36*
X151169491Y-96757176D02*
G01*
X151193201Y-96760693D01*
X151216452Y-96766517D01*
X151239020Y-96774592D01*
X151260689Y-96784841D01*
X151281248Y-96797164D01*
X151300501Y-96811442D01*
X151318261Y-96827539D01*
X151334358Y-96845299D01*
X151348636Y-96864552D01*
X151360959Y-96885111D01*
X151371208Y-96906780D01*
X151379283Y-96929348D01*
X151385107Y-96952599D01*
X151388624Y-96976309D01*
X151389800Y-97000250D01*
X151389800Y-97563750D01*
X151388624Y-97587691D01*
X151385107Y-97611401D01*
X151379283Y-97634652D01*
X151371208Y-97657220D01*
X151360959Y-97678889D01*
X151348636Y-97699448D01*
X151334358Y-97718701D01*
X151318261Y-97736461D01*
X151300501Y-97752558D01*
X151281248Y-97766836D01*
X151260689Y-97779159D01*
X151239020Y-97789408D01*
X151216452Y-97797483D01*
X151193201Y-97803307D01*
X151169491Y-97806824D01*
X151145550Y-97808000D01*
X150657050Y-97808000D01*
X150633109Y-97806824D01*
X150609399Y-97803307D01*
X150586148Y-97797483D01*
X150563580Y-97789408D01*
X150541911Y-97779159D01*
X150521352Y-97766836D01*
X150502099Y-97752558D01*
X150484339Y-97736461D01*
X150468242Y-97718701D01*
X150453964Y-97699448D01*
X150441641Y-97678889D01*
X150431392Y-97657220D01*
X150423317Y-97634652D01*
X150417493Y-97611401D01*
X150413976Y-97587691D01*
X150412800Y-97563750D01*
X150412800Y-97000250D01*
X150413976Y-96976309D01*
X150417493Y-96952599D01*
X150423317Y-96929348D01*
X150431392Y-96906780D01*
X150441641Y-96885111D01*
X150453964Y-96864552D01*
X150468242Y-96845299D01*
X150484339Y-96827539D01*
X150502099Y-96811442D01*
X150521352Y-96797164D01*
X150541911Y-96784841D01*
X150563580Y-96774592D01*
X150586148Y-96766517D01*
X150609399Y-96760693D01*
X150633109Y-96757176D01*
X150657050Y-96756000D01*
X151145550Y-96756000D01*
X151169491Y-96757176D01*
G37*
%TD*%
%TO.C,R14*%
G36*
X138680691Y-119975176D02*
G01*
X138704401Y-119978693D01*
X138727652Y-119984517D01*
X138750220Y-119992592D01*
X138771889Y-120002841D01*
X138792448Y-120015164D01*
X138811701Y-120029442D01*
X138829461Y-120045539D01*
X138845558Y-120063299D01*
X138859836Y-120082552D01*
X138872159Y-120103111D01*
X138882408Y-120124780D01*
X138890483Y-120147348D01*
X138896307Y-120170599D01*
X138899824Y-120194309D01*
X138901000Y-120218250D01*
X138901000Y-120781750D01*
X138899824Y-120805691D01*
X138896307Y-120829401D01*
X138890483Y-120852652D01*
X138882408Y-120875220D01*
X138872159Y-120896889D01*
X138859836Y-120917448D01*
X138845558Y-120936701D01*
X138829461Y-120954461D01*
X138811701Y-120970558D01*
X138792448Y-120984836D01*
X138771889Y-120997159D01*
X138750220Y-121007408D01*
X138727652Y-121015483D01*
X138704401Y-121021307D01*
X138680691Y-121024824D01*
X138656750Y-121026000D01*
X138168250Y-121026000D01*
X138144309Y-121024824D01*
X138120599Y-121021307D01*
X138097348Y-121015483D01*
X138074780Y-121007408D01*
X138053111Y-120997159D01*
X138032552Y-120984836D01*
X138013299Y-120970558D01*
X137995539Y-120954461D01*
X137979442Y-120936701D01*
X137965164Y-120917448D01*
X137952841Y-120896889D01*
X137942592Y-120875220D01*
X137934517Y-120852652D01*
X137928693Y-120829401D01*
X137925176Y-120805691D01*
X137924000Y-120781750D01*
X137924000Y-120218250D01*
X137925176Y-120194309D01*
X137928693Y-120170599D01*
X137934517Y-120147348D01*
X137942592Y-120124780D01*
X137952841Y-120103111D01*
X137965164Y-120082552D01*
X137979442Y-120063299D01*
X137995539Y-120045539D01*
X138013299Y-120029442D01*
X138032552Y-120015164D01*
X138053111Y-120002841D01*
X138074780Y-119992592D01*
X138097348Y-119984517D01*
X138120599Y-119978693D01*
X138144309Y-119975176D01*
X138168250Y-119974000D01*
X138656750Y-119974000D01*
X138680691Y-119975176D01*
G37*
G36*
X140255691Y-119975176D02*
G01*
X140279401Y-119978693D01*
X140302652Y-119984517D01*
X140325220Y-119992592D01*
X140346889Y-120002841D01*
X140367448Y-120015164D01*
X140386701Y-120029442D01*
X140404461Y-120045539D01*
X140420558Y-120063299D01*
X140434836Y-120082552D01*
X140447159Y-120103111D01*
X140457408Y-120124780D01*
X140465483Y-120147348D01*
X140471307Y-120170599D01*
X140474824Y-120194309D01*
X140476000Y-120218250D01*
X140476000Y-120781750D01*
X140474824Y-120805691D01*
X140471307Y-120829401D01*
X140465483Y-120852652D01*
X140457408Y-120875220D01*
X140447159Y-120896889D01*
X140434836Y-120917448D01*
X140420558Y-120936701D01*
X140404461Y-120954461D01*
X140386701Y-120970558D01*
X140367448Y-120984836D01*
X140346889Y-120997159D01*
X140325220Y-121007408D01*
X140302652Y-121015483D01*
X140279401Y-121021307D01*
X140255691Y-121024824D01*
X140231750Y-121026000D01*
X139743250Y-121026000D01*
X139719309Y-121024824D01*
X139695599Y-121021307D01*
X139672348Y-121015483D01*
X139649780Y-121007408D01*
X139628111Y-120997159D01*
X139607552Y-120984836D01*
X139588299Y-120970558D01*
X139570539Y-120954461D01*
X139554442Y-120936701D01*
X139540164Y-120917448D01*
X139527841Y-120896889D01*
X139517592Y-120875220D01*
X139509517Y-120852652D01*
X139503693Y-120829401D01*
X139500176Y-120805691D01*
X139499000Y-120781750D01*
X139499000Y-120218250D01*
X139500176Y-120194309D01*
X139503693Y-120170599D01*
X139509517Y-120147348D01*
X139517592Y-120124780D01*
X139527841Y-120103111D01*
X139540164Y-120082552D01*
X139554442Y-120063299D01*
X139570539Y-120045539D01*
X139588299Y-120029442D01*
X139607552Y-120015164D01*
X139628111Y-120002841D01*
X139649780Y-119992592D01*
X139672348Y-119984517D01*
X139695599Y-119978693D01*
X139719309Y-119975176D01*
X139743250Y-119974000D01*
X140231750Y-119974000D01*
X140255691Y-119975176D01*
G37*
%TD*%
%TO.C,R4*%
G36*
X166675691Y-122982176D02*
G01*
X166699401Y-122985693D01*
X166722652Y-122991517D01*
X166745220Y-122999592D01*
X166766889Y-123009841D01*
X166787448Y-123022164D01*
X166806701Y-123036442D01*
X166824461Y-123052539D01*
X166840558Y-123070299D01*
X166854836Y-123089552D01*
X166867159Y-123110111D01*
X166877408Y-123131780D01*
X166885483Y-123154348D01*
X166891307Y-123177599D01*
X166894824Y-123201309D01*
X166896000Y-123225250D01*
X166896000Y-123713750D01*
X166894824Y-123737691D01*
X166891307Y-123761401D01*
X166885483Y-123784652D01*
X166877408Y-123807220D01*
X166867159Y-123828889D01*
X166854836Y-123849448D01*
X166840558Y-123868701D01*
X166824461Y-123886461D01*
X166806701Y-123902558D01*
X166787448Y-123916836D01*
X166766889Y-123929159D01*
X166745220Y-123939408D01*
X166722652Y-123947483D01*
X166699401Y-123953307D01*
X166675691Y-123956824D01*
X166651750Y-123958000D01*
X166088250Y-123958000D01*
X166064309Y-123956824D01*
X166040599Y-123953307D01*
X166017348Y-123947483D01*
X165994780Y-123939408D01*
X165973111Y-123929159D01*
X165952552Y-123916836D01*
X165933299Y-123902558D01*
X165915539Y-123886461D01*
X165899442Y-123868701D01*
X165885164Y-123849448D01*
X165872841Y-123828889D01*
X165862592Y-123807220D01*
X165854517Y-123784652D01*
X165848693Y-123761401D01*
X165845176Y-123737691D01*
X165844000Y-123713750D01*
X165844000Y-123225250D01*
X165845176Y-123201309D01*
X165848693Y-123177599D01*
X165854517Y-123154348D01*
X165862592Y-123131780D01*
X165872841Y-123110111D01*
X165885164Y-123089552D01*
X165899442Y-123070299D01*
X165915539Y-123052539D01*
X165933299Y-123036442D01*
X165952552Y-123022164D01*
X165973111Y-123009841D01*
X165994780Y-122999592D01*
X166017348Y-122991517D01*
X166040599Y-122985693D01*
X166064309Y-122982176D01*
X166088250Y-122981000D01*
X166651750Y-122981000D01*
X166675691Y-122982176D01*
G37*
G36*
X166675691Y-121407176D02*
G01*
X166699401Y-121410693D01*
X166722652Y-121416517D01*
X166745220Y-121424592D01*
X166766889Y-121434841D01*
X166787448Y-121447164D01*
X166806701Y-121461442D01*
X166824461Y-121477539D01*
X166840558Y-121495299D01*
X166854836Y-121514552D01*
X166867159Y-121535111D01*
X166877408Y-121556780D01*
X166885483Y-121579348D01*
X166891307Y-121602599D01*
X166894824Y-121626309D01*
X166896000Y-121650250D01*
X166896000Y-122138750D01*
X166894824Y-122162691D01*
X166891307Y-122186401D01*
X166885483Y-122209652D01*
X166877408Y-122232220D01*
X166867159Y-122253889D01*
X166854836Y-122274448D01*
X166840558Y-122293701D01*
X166824461Y-122311461D01*
X166806701Y-122327558D01*
X166787448Y-122341836D01*
X166766889Y-122354159D01*
X166745220Y-122364408D01*
X166722652Y-122372483D01*
X166699401Y-122378307D01*
X166675691Y-122381824D01*
X166651750Y-122383000D01*
X166088250Y-122383000D01*
X166064309Y-122381824D01*
X166040599Y-122378307D01*
X166017348Y-122372483D01*
X165994780Y-122364408D01*
X165973111Y-122354159D01*
X165952552Y-122341836D01*
X165933299Y-122327558D01*
X165915539Y-122311461D01*
X165899442Y-122293701D01*
X165885164Y-122274448D01*
X165872841Y-122253889D01*
X165862592Y-122232220D01*
X165854517Y-122209652D01*
X165848693Y-122186401D01*
X165845176Y-122162691D01*
X165844000Y-122138750D01*
X165844000Y-121650250D01*
X165845176Y-121626309D01*
X165848693Y-121602599D01*
X165854517Y-121579348D01*
X165862592Y-121556780D01*
X165872841Y-121535111D01*
X165885164Y-121514552D01*
X165899442Y-121495299D01*
X165915539Y-121477539D01*
X165933299Y-121461442D01*
X165952552Y-121447164D01*
X165973111Y-121434841D01*
X165994780Y-121424592D01*
X166017348Y-121416517D01*
X166040599Y-121410693D01*
X166064309Y-121407176D01*
X166088250Y-121406000D01*
X166651750Y-121406000D01*
X166675691Y-121407176D01*
G37*
%TD*%
%TO.C,R15*%
G36*
X138680691Y-121475176D02*
G01*
X138704401Y-121478693D01*
X138727652Y-121484517D01*
X138750220Y-121492592D01*
X138771889Y-121502841D01*
X138792448Y-121515164D01*
X138811701Y-121529442D01*
X138829461Y-121545539D01*
X138845558Y-121563299D01*
X138859836Y-121582552D01*
X138872159Y-121603111D01*
X138882408Y-121624780D01*
X138890483Y-121647348D01*
X138896307Y-121670599D01*
X138899824Y-121694309D01*
X138901000Y-121718250D01*
X138901000Y-122281750D01*
X138899824Y-122305691D01*
X138896307Y-122329401D01*
X138890483Y-122352652D01*
X138882408Y-122375220D01*
X138872159Y-122396889D01*
X138859836Y-122417448D01*
X138845558Y-122436701D01*
X138829461Y-122454461D01*
X138811701Y-122470558D01*
X138792448Y-122484836D01*
X138771889Y-122497159D01*
X138750220Y-122507408D01*
X138727652Y-122515483D01*
X138704401Y-122521307D01*
X138680691Y-122524824D01*
X138656750Y-122526000D01*
X138168250Y-122526000D01*
X138144309Y-122524824D01*
X138120599Y-122521307D01*
X138097348Y-122515483D01*
X138074780Y-122507408D01*
X138053111Y-122497159D01*
X138032552Y-122484836D01*
X138013299Y-122470558D01*
X137995539Y-122454461D01*
X137979442Y-122436701D01*
X137965164Y-122417448D01*
X137952841Y-122396889D01*
X137942592Y-122375220D01*
X137934517Y-122352652D01*
X137928693Y-122329401D01*
X137925176Y-122305691D01*
X137924000Y-122281750D01*
X137924000Y-121718250D01*
X137925176Y-121694309D01*
X137928693Y-121670599D01*
X137934517Y-121647348D01*
X137942592Y-121624780D01*
X137952841Y-121603111D01*
X137965164Y-121582552D01*
X137979442Y-121563299D01*
X137995539Y-121545539D01*
X138013299Y-121529442D01*
X138032552Y-121515164D01*
X138053111Y-121502841D01*
X138074780Y-121492592D01*
X138097348Y-121484517D01*
X138120599Y-121478693D01*
X138144309Y-121475176D01*
X138168250Y-121474000D01*
X138656750Y-121474000D01*
X138680691Y-121475176D01*
G37*
G36*
X140255691Y-121475176D02*
G01*
X140279401Y-121478693D01*
X140302652Y-121484517D01*
X140325220Y-121492592D01*
X140346889Y-121502841D01*
X140367448Y-121515164D01*
X140386701Y-121529442D01*
X140404461Y-121545539D01*
X140420558Y-121563299D01*
X140434836Y-121582552D01*
X140447159Y-121603111D01*
X140457408Y-121624780D01*
X140465483Y-121647348D01*
X140471307Y-121670599D01*
X140474824Y-121694309D01*
X140476000Y-121718250D01*
X140476000Y-122281750D01*
X140474824Y-122305691D01*
X140471307Y-122329401D01*
X140465483Y-122352652D01*
X140457408Y-122375220D01*
X140447159Y-122396889D01*
X140434836Y-122417448D01*
X140420558Y-122436701D01*
X140404461Y-122454461D01*
X140386701Y-122470558D01*
X140367448Y-122484836D01*
X140346889Y-122497159D01*
X140325220Y-122507408D01*
X140302652Y-122515483D01*
X140279401Y-122521307D01*
X140255691Y-122524824D01*
X140231750Y-122526000D01*
X139743250Y-122526000D01*
X139719309Y-122524824D01*
X139695599Y-122521307D01*
X139672348Y-122515483D01*
X139649780Y-122507408D01*
X139628111Y-122497159D01*
X139607552Y-122484836D01*
X139588299Y-122470558D01*
X139570539Y-122454461D01*
X139554442Y-122436701D01*
X139540164Y-122417448D01*
X139527841Y-122396889D01*
X139517592Y-122375220D01*
X139509517Y-122352652D01*
X139503693Y-122329401D01*
X139500176Y-122305691D01*
X139499000Y-122281750D01*
X139499000Y-121718250D01*
X139500176Y-121694309D01*
X139503693Y-121670599D01*
X139509517Y-121647348D01*
X139517592Y-121624780D01*
X139527841Y-121603111D01*
X139540164Y-121582552D01*
X139554442Y-121563299D01*
X139570539Y-121545539D01*
X139588299Y-121529442D01*
X139607552Y-121515164D01*
X139628111Y-121502841D01*
X139649780Y-121492592D01*
X139672348Y-121484517D01*
X139695599Y-121478693D01*
X139719309Y-121475176D01*
X139743250Y-121474000D01*
X140231750Y-121474000D01*
X140255691Y-121475176D01*
G37*
%TD*%
%TO.C,R13*%
G36*
X150724491Y-122143676D02*
G01*
X150748201Y-122147193D01*
X150771452Y-122153017D01*
X150794020Y-122161092D01*
X150815689Y-122171341D01*
X150836248Y-122183664D01*
X150855501Y-122197942D01*
X150873261Y-122214039D01*
X150889358Y-122231799D01*
X150903636Y-122251052D01*
X150915959Y-122271611D01*
X150926208Y-122293280D01*
X150934283Y-122315848D01*
X150940107Y-122339099D01*
X150943624Y-122362809D01*
X150944800Y-122386750D01*
X150944800Y-122875250D01*
X150943624Y-122899191D01*
X150940107Y-122922901D01*
X150934283Y-122946152D01*
X150926208Y-122968720D01*
X150915959Y-122990389D01*
X150903636Y-123010948D01*
X150889358Y-123030201D01*
X150873261Y-123047961D01*
X150855501Y-123064058D01*
X150836248Y-123078336D01*
X150815689Y-123090659D01*
X150794020Y-123100908D01*
X150771452Y-123108983D01*
X150748201Y-123114807D01*
X150724491Y-123118324D01*
X150700550Y-123119500D01*
X150137050Y-123119500D01*
X150113109Y-123118324D01*
X150089399Y-123114807D01*
X150066148Y-123108983D01*
X150043580Y-123100908D01*
X150021911Y-123090659D01*
X150001352Y-123078336D01*
X149982099Y-123064058D01*
X149964339Y-123047961D01*
X149948242Y-123030201D01*
X149933964Y-123010948D01*
X149921641Y-122990389D01*
X149911392Y-122968720D01*
X149903317Y-122946152D01*
X149897493Y-122922901D01*
X149893976Y-122899191D01*
X149892800Y-122875250D01*
X149892800Y-122386750D01*
X149893976Y-122362809D01*
X149897493Y-122339099D01*
X149903317Y-122315848D01*
X149911392Y-122293280D01*
X149921641Y-122271611D01*
X149933964Y-122251052D01*
X149948242Y-122231799D01*
X149964339Y-122214039D01*
X149982099Y-122197942D01*
X150001352Y-122183664D01*
X150021911Y-122171341D01*
X150043580Y-122161092D01*
X150066148Y-122153017D01*
X150089399Y-122147193D01*
X150113109Y-122143676D01*
X150137050Y-122142500D01*
X150700550Y-122142500D01*
X150724491Y-122143676D01*
G37*
G36*
X150724491Y-123718676D02*
G01*
X150748201Y-123722193D01*
X150771452Y-123728017D01*
X150794020Y-123736092D01*
X150815689Y-123746341D01*
X150836248Y-123758664D01*
X150855501Y-123772942D01*
X150873261Y-123789039D01*
X150889358Y-123806799D01*
X150903636Y-123826052D01*
X150915959Y-123846611D01*
X150926208Y-123868280D01*
X150934283Y-123890848D01*
X150940107Y-123914099D01*
X150943624Y-123937809D01*
X150944800Y-123961750D01*
X150944800Y-124450250D01*
X150943624Y-124474191D01*
X150940107Y-124497901D01*
X150934283Y-124521152D01*
X150926208Y-124543720D01*
X150915959Y-124565389D01*
X150903636Y-124585948D01*
X150889358Y-124605201D01*
X150873261Y-124622961D01*
X150855501Y-124639058D01*
X150836248Y-124653336D01*
X150815689Y-124665659D01*
X150794020Y-124675908D01*
X150771452Y-124683983D01*
X150748201Y-124689807D01*
X150724491Y-124693324D01*
X150700550Y-124694500D01*
X150137050Y-124694500D01*
X150113109Y-124693324D01*
X150089399Y-124689807D01*
X150066148Y-124683983D01*
X150043580Y-124675908D01*
X150021911Y-124665659D01*
X150001352Y-124653336D01*
X149982099Y-124639058D01*
X149964339Y-124622961D01*
X149948242Y-124605201D01*
X149933964Y-124585948D01*
X149921641Y-124565389D01*
X149911392Y-124543720D01*
X149903317Y-124521152D01*
X149897493Y-124497901D01*
X149893976Y-124474191D01*
X149892800Y-124450250D01*
X149892800Y-123961750D01*
X149893976Y-123937809D01*
X149897493Y-123914099D01*
X149903317Y-123890848D01*
X149911392Y-123868280D01*
X149921641Y-123846611D01*
X149933964Y-123826052D01*
X149948242Y-123806799D01*
X149964339Y-123789039D01*
X149982099Y-123772942D01*
X150001352Y-123758664D01*
X150021911Y-123746341D01*
X150043580Y-123736092D01*
X150066148Y-123728017D01*
X150089399Y-123722193D01*
X150113109Y-123718676D01*
X150137050Y-123717500D01*
X150700550Y-123717500D01*
X150724491Y-123718676D01*
G37*
%TD*%
%TO.C,R1*%
G36*
X155855791Y-108415776D02*
G01*
X155879501Y-108419293D01*
X155902752Y-108425117D01*
X155925320Y-108433192D01*
X155946989Y-108443441D01*
X155967548Y-108455764D01*
X155986801Y-108470042D01*
X156004561Y-108486139D01*
X156020658Y-108503899D01*
X156034936Y-108523152D01*
X156047259Y-108543711D01*
X156057508Y-108565380D01*
X156065583Y-108587948D01*
X156071407Y-108611199D01*
X156074924Y-108634909D01*
X156076100Y-108658850D01*
X156076100Y-109222350D01*
X156074924Y-109246291D01*
X156071407Y-109270001D01*
X156065583Y-109293252D01*
X156057508Y-109315820D01*
X156047259Y-109337489D01*
X156034936Y-109358048D01*
X156020658Y-109377301D01*
X156004561Y-109395061D01*
X155986801Y-109411158D01*
X155967548Y-109425436D01*
X155946989Y-109437759D01*
X155925320Y-109448008D01*
X155902752Y-109456083D01*
X155879501Y-109461907D01*
X155855791Y-109465424D01*
X155831850Y-109466600D01*
X155343350Y-109466600D01*
X155319409Y-109465424D01*
X155295699Y-109461907D01*
X155272448Y-109456083D01*
X155249880Y-109448008D01*
X155228211Y-109437759D01*
X155207652Y-109425436D01*
X155188399Y-109411158D01*
X155170639Y-109395061D01*
X155154542Y-109377301D01*
X155140264Y-109358048D01*
X155127941Y-109337489D01*
X155117692Y-109315820D01*
X155109617Y-109293252D01*
X155103793Y-109270001D01*
X155100276Y-109246291D01*
X155099100Y-109222350D01*
X155099100Y-108658850D01*
X155100276Y-108634909D01*
X155103793Y-108611199D01*
X155109617Y-108587948D01*
X155117692Y-108565380D01*
X155127941Y-108543711D01*
X155140264Y-108523152D01*
X155154542Y-108503899D01*
X155170639Y-108486139D01*
X155188399Y-108470042D01*
X155207652Y-108455764D01*
X155228211Y-108443441D01*
X155249880Y-108433192D01*
X155272448Y-108425117D01*
X155295699Y-108419293D01*
X155319409Y-108415776D01*
X155343350Y-108414600D01*
X155831850Y-108414600D01*
X155855791Y-108415776D01*
G37*
G36*
X157430791Y-108415776D02*
G01*
X157454501Y-108419293D01*
X157477752Y-108425117D01*
X157500320Y-108433192D01*
X157521989Y-108443441D01*
X157542548Y-108455764D01*
X157561801Y-108470042D01*
X157579561Y-108486139D01*
X157595658Y-108503899D01*
X157609936Y-108523152D01*
X157622259Y-108543711D01*
X157632508Y-108565380D01*
X157640583Y-108587948D01*
X157646407Y-108611199D01*
X157649924Y-108634909D01*
X157651100Y-108658850D01*
X157651100Y-109222350D01*
X157649924Y-109246291D01*
X157646407Y-109270001D01*
X157640583Y-109293252D01*
X157632508Y-109315820D01*
X157622259Y-109337489D01*
X157609936Y-109358048D01*
X157595658Y-109377301D01*
X157579561Y-109395061D01*
X157561801Y-109411158D01*
X157542548Y-109425436D01*
X157521989Y-109437759D01*
X157500320Y-109448008D01*
X157477752Y-109456083D01*
X157454501Y-109461907D01*
X157430791Y-109465424D01*
X157406850Y-109466600D01*
X156918350Y-109466600D01*
X156894409Y-109465424D01*
X156870699Y-109461907D01*
X156847448Y-109456083D01*
X156824880Y-109448008D01*
X156803211Y-109437759D01*
X156782652Y-109425436D01*
X156763399Y-109411158D01*
X156745639Y-109395061D01*
X156729542Y-109377301D01*
X156715264Y-109358048D01*
X156702941Y-109337489D01*
X156692692Y-109315820D01*
X156684617Y-109293252D01*
X156678793Y-109270001D01*
X156675276Y-109246291D01*
X156674100Y-109222350D01*
X156674100Y-108658850D01*
X156675276Y-108634909D01*
X156678793Y-108611199D01*
X156684617Y-108587948D01*
X156692692Y-108565380D01*
X156702941Y-108543711D01*
X156715264Y-108523152D01*
X156729542Y-108503899D01*
X156745639Y-108486139D01*
X156763399Y-108470042D01*
X156782652Y-108455764D01*
X156803211Y-108443441D01*
X156824880Y-108433192D01*
X156847448Y-108425117D01*
X156870699Y-108419293D01*
X156894409Y-108415776D01*
X156918350Y-108414600D01*
X157406850Y-108414600D01*
X157430791Y-108415776D01*
G37*
%TD*%
D25*
%TO.C,Q1*%
X155375100Y-111480600D03*
X157375100Y-110530600D03*
X157375100Y-112430600D03*
%TD*%
D12*
%TO.C,D1*%
G36*
X149148941Y-123867397D02*
G01*
X149175078Y-123871274D01*
X149200709Y-123877694D01*
X149225588Y-123886595D01*
X149249474Y-123897893D01*
X149272137Y-123911477D01*
X149293360Y-123927217D01*
X149312939Y-123944961D01*
X149330683Y-123964540D01*
X149346423Y-123985763D01*
X149360007Y-124008426D01*
X149371305Y-124032312D01*
X149380206Y-124057191D01*
X149386626Y-124082822D01*
X149390503Y-124108959D01*
X149391800Y-124135350D01*
X149391800Y-124673850D01*
X149390503Y-124700241D01*
X149386626Y-124726378D01*
X149380206Y-124752009D01*
X149371305Y-124776888D01*
X149360007Y-124800774D01*
X149346423Y-124823437D01*
X149330683Y-124844660D01*
X149312939Y-124864239D01*
X149293360Y-124881983D01*
X149272137Y-124897723D01*
X149249474Y-124911307D01*
X149225588Y-124922605D01*
X149200709Y-124931506D01*
X149175078Y-124937926D01*
X149148941Y-124941803D01*
X149122550Y-124943100D01*
X148159050Y-124943100D01*
X148132659Y-124941803D01*
X148106522Y-124937926D01*
X148080891Y-124931506D01*
X148056012Y-124922605D01*
X148032126Y-124911307D01*
X148009463Y-124897723D01*
X147988240Y-124881983D01*
X147968661Y-124864239D01*
X147950917Y-124844660D01*
X147935177Y-124823437D01*
X147921593Y-124800774D01*
X147910295Y-124776888D01*
X147901394Y-124752009D01*
X147894974Y-124726378D01*
X147891097Y-124700241D01*
X147889800Y-124673850D01*
X147889800Y-124135350D01*
X147891097Y-124108959D01*
X147894974Y-124082822D01*
X147901394Y-124057191D01*
X147910295Y-124032312D01*
X147921593Y-124008426D01*
X147935177Y-123985763D01*
X147950917Y-123964540D01*
X147968661Y-123944961D01*
X147988240Y-123927217D01*
X148009463Y-123911477D01*
X148032126Y-123897893D01*
X148056012Y-123886595D01*
X148080891Y-123877694D01*
X148106522Y-123871274D01*
X148132659Y-123867397D01*
X148159050Y-123866100D01*
X149122550Y-123866100D01*
X149148941Y-123867397D01*
G37*
G36*
X149148941Y-121992397D02*
G01*
X149175078Y-121996274D01*
X149200709Y-122002694D01*
X149225588Y-122011595D01*
X149249474Y-122022893D01*
X149272137Y-122036477D01*
X149293360Y-122052217D01*
X149312939Y-122069961D01*
X149330683Y-122089540D01*
X149346423Y-122110763D01*
X149360007Y-122133426D01*
X149371305Y-122157312D01*
X149380206Y-122182191D01*
X149386626Y-122207822D01*
X149390503Y-122233959D01*
X149391800Y-122260350D01*
X149391800Y-122798850D01*
X149390503Y-122825241D01*
X149386626Y-122851378D01*
X149380206Y-122877009D01*
X149371305Y-122901888D01*
X149360007Y-122925774D01*
X149346423Y-122948437D01*
X149330683Y-122969660D01*
X149312939Y-122989239D01*
X149293360Y-123006983D01*
X149272137Y-123022723D01*
X149249474Y-123036307D01*
X149225588Y-123047605D01*
X149200709Y-123056506D01*
X149175078Y-123062926D01*
X149148941Y-123066803D01*
X149122550Y-123068100D01*
X148159050Y-123068100D01*
X148132659Y-123066803D01*
X148106522Y-123062926D01*
X148080891Y-123056506D01*
X148056012Y-123047605D01*
X148032126Y-123036307D01*
X148009463Y-123022723D01*
X147988240Y-123006983D01*
X147968661Y-122989239D01*
X147950917Y-122969660D01*
X147935177Y-122948437D01*
X147921593Y-122925774D01*
X147910295Y-122901888D01*
X147901394Y-122877009D01*
X147894974Y-122851378D01*
X147891097Y-122825241D01*
X147889800Y-122798850D01*
X147889800Y-122260350D01*
X147891097Y-122233959D01*
X147894974Y-122207822D01*
X147901394Y-122182191D01*
X147910295Y-122157312D01*
X147921593Y-122133426D01*
X147935177Y-122110763D01*
X147950917Y-122089540D01*
X147968661Y-122069961D01*
X147988240Y-122052217D01*
X148009463Y-122036477D01*
X148032126Y-122022893D01*
X148056012Y-122011595D01*
X148080891Y-122002694D01*
X148106522Y-121996274D01*
X148132659Y-121992397D01*
X148159050Y-121991100D01*
X149122550Y-121991100D01*
X149148941Y-121992397D01*
G37*
%TD*%
%TO.C,C4*%
G36*
X138680691Y-118475176D02*
G01*
X138704401Y-118478693D01*
X138727652Y-118484517D01*
X138750220Y-118492592D01*
X138771889Y-118502841D01*
X138792448Y-118515164D01*
X138811701Y-118529442D01*
X138829461Y-118545539D01*
X138845558Y-118563299D01*
X138859836Y-118582552D01*
X138872159Y-118603111D01*
X138882408Y-118624780D01*
X138890483Y-118647348D01*
X138896307Y-118670599D01*
X138899824Y-118694309D01*
X138901000Y-118718250D01*
X138901000Y-119281750D01*
X138899824Y-119305691D01*
X138896307Y-119329401D01*
X138890483Y-119352652D01*
X138882408Y-119375220D01*
X138872159Y-119396889D01*
X138859836Y-119417448D01*
X138845558Y-119436701D01*
X138829461Y-119454461D01*
X138811701Y-119470558D01*
X138792448Y-119484836D01*
X138771889Y-119497159D01*
X138750220Y-119507408D01*
X138727652Y-119515483D01*
X138704401Y-119521307D01*
X138680691Y-119524824D01*
X138656750Y-119526000D01*
X138168250Y-119526000D01*
X138144309Y-119524824D01*
X138120599Y-119521307D01*
X138097348Y-119515483D01*
X138074780Y-119507408D01*
X138053111Y-119497159D01*
X138032552Y-119484836D01*
X138013299Y-119470558D01*
X137995539Y-119454461D01*
X137979442Y-119436701D01*
X137965164Y-119417448D01*
X137952841Y-119396889D01*
X137942592Y-119375220D01*
X137934517Y-119352652D01*
X137928693Y-119329401D01*
X137925176Y-119305691D01*
X137924000Y-119281750D01*
X137924000Y-118718250D01*
X137925176Y-118694309D01*
X137928693Y-118670599D01*
X137934517Y-118647348D01*
X137942592Y-118624780D01*
X137952841Y-118603111D01*
X137965164Y-118582552D01*
X137979442Y-118563299D01*
X137995539Y-118545539D01*
X138013299Y-118529442D01*
X138032552Y-118515164D01*
X138053111Y-118502841D01*
X138074780Y-118492592D01*
X138097348Y-118484517D01*
X138120599Y-118478693D01*
X138144309Y-118475176D01*
X138168250Y-118474000D01*
X138656750Y-118474000D01*
X138680691Y-118475176D01*
G37*
G36*
X140255691Y-118475176D02*
G01*
X140279401Y-118478693D01*
X140302652Y-118484517D01*
X140325220Y-118492592D01*
X140346889Y-118502841D01*
X140367448Y-118515164D01*
X140386701Y-118529442D01*
X140404461Y-118545539D01*
X140420558Y-118563299D01*
X140434836Y-118582552D01*
X140447159Y-118603111D01*
X140457408Y-118624780D01*
X140465483Y-118647348D01*
X140471307Y-118670599D01*
X140474824Y-118694309D01*
X140476000Y-118718250D01*
X140476000Y-119281750D01*
X140474824Y-119305691D01*
X140471307Y-119329401D01*
X140465483Y-119352652D01*
X140457408Y-119375220D01*
X140447159Y-119396889D01*
X140434836Y-119417448D01*
X140420558Y-119436701D01*
X140404461Y-119454461D01*
X140386701Y-119470558D01*
X140367448Y-119484836D01*
X140346889Y-119497159D01*
X140325220Y-119507408D01*
X140302652Y-119515483D01*
X140279401Y-119521307D01*
X140255691Y-119524824D01*
X140231750Y-119526000D01*
X139743250Y-119526000D01*
X139719309Y-119524824D01*
X139695599Y-119521307D01*
X139672348Y-119515483D01*
X139649780Y-119507408D01*
X139628111Y-119497159D01*
X139607552Y-119484836D01*
X139588299Y-119470558D01*
X139570539Y-119454461D01*
X139554442Y-119436701D01*
X139540164Y-119417448D01*
X139527841Y-119396889D01*
X139517592Y-119375220D01*
X139509517Y-119352652D01*
X139503693Y-119329401D01*
X139500176Y-119305691D01*
X139499000Y-119281750D01*
X139499000Y-118718250D01*
X139500176Y-118694309D01*
X139503693Y-118670599D01*
X139509517Y-118647348D01*
X139517592Y-118624780D01*
X139527841Y-118603111D01*
X139540164Y-118582552D01*
X139554442Y-118563299D01*
X139570539Y-118545539D01*
X139588299Y-118529442D01*
X139607552Y-118515164D01*
X139628111Y-118502841D01*
X139649780Y-118492592D01*
X139672348Y-118484517D01*
X139695599Y-118478693D01*
X139719309Y-118475176D01*
X139743250Y-118474000D01*
X140231750Y-118474000D01*
X140255691Y-118475176D01*
G37*
%TD*%
%TO.C,C3*%
G36*
X150597491Y-118638576D02*
G01*
X150621201Y-118642093D01*
X150644452Y-118647917D01*
X150667020Y-118655992D01*
X150688689Y-118666241D01*
X150709248Y-118678564D01*
X150728501Y-118692842D01*
X150746261Y-118708939D01*
X150762358Y-118726699D01*
X150776636Y-118745952D01*
X150788959Y-118766511D01*
X150799208Y-118788180D01*
X150807283Y-118810748D01*
X150813107Y-118833999D01*
X150816624Y-118857709D01*
X150817800Y-118881650D01*
X150817800Y-119370150D01*
X150816624Y-119394091D01*
X150813107Y-119417801D01*
X150807283Y-119441052D01*
X150799208Y-119463620D01*
X150788959Y-119485289D01*
X150776636Y-119505848D01*
X150762358Y-119525101D01*
X150746261Y-119542861D01*
X150728501Y-119558958D01*
X150709248Y-119573236D01*
X150688689Y-119585559D01*
X150667020Y-119595808D01*
X150644452Y-119603883D01*
X150621201Y-119609707D01*
X150597491Y-119613224D01*
X150573550Y-119614400D01*
X150010050Y-119614400D01*
X149986109Y-119613224D01*
X149962399Y-119609707D01*
X149939148Y-119603883D01*
X149916580Y-119595808D01*
X149894911Y-119585559D01*
X149874352Y-119573236D01*
X149855099Y-119558958D01*
X149837339Y-119542861D01*
X149821242Y-119525101D01*
X149806964Y-119505848D01*
X149794641Y-119485289D01*
X149784392Y-119463620D01*
X149776317Y-119441052D01*
X149770493Y-119417801D01*
X149766976Y-119394091D01*
X149765800Y-119370150D01*
X149765800Y-118881650D01*
X149766976Y-118857709D01*
X149770493Y-118833999D01*
X149776317Y-118810748D01*
X149784392Y-118788180D01*
X149794641Y-118766511D01*
X149806964Y-118745952D01*
X149821242Y-118726699D01*
X149837339Y-118708939D01*
X149855099Y-118692842D01*
X149874352Y-118678564D01*
X149894911Y-118666241D01*
X149916580Y-118655992D01*
X149939148Y-118647917D01*
X149962399Y-118642093D01*
X149986109Y-118638576D01*
X150010050Y-118637400D01*
X150573550Y-118637400D01*
X150597491Y-118638576D01*
G37*
G36*
X150597491Y-120213576D02*
G01*
X150621201Y-120217093D01*
X150644452Y-120222917D01*
X150667020Y-120230992D01*
X150688689Y-120241241D01*
X150709248Y-120253564D01*
X150728501Y-120267842D01*
X150746261Y-120283939D01*
X150762358Y-120301699D01*
X150776636Y-120320952D01*
X150788959Y-120341511D01*
X150799208Y-120363180D01*
X150807283Y-120385748D01*
X150813107Y-120408999D01*
X150816624Y-120432709D01*
X150817800Y-120456650D01*
X150817800Y-120945150D01*
X150816624Y-120969091D01*
X150813107Y-120992801D01*
X150807283Y-121016052D01*
X150799208Y-121038620D01*
X150788959Y-121060289D01*
X150776636Y-121080848D01*
X150762358Y-121100101D01*
X150746261Y-121117861D01*
X150728501Y-121133958D01*
X150709248Y-121148236D01*
X150688689Y-121160559D01*
X150667020Y-121170808D01*
X150644452Y-121178883D01*
X150621201Y-121184707D01*
X150597491Y-121188224D01*
X150573550Y-121189400D01*
X150010050Y-121189400D01*
X149986109Y-121188224D01*
X149962399Y-121184707D01*
X149939148Y-121178883D01*
X149916580Y-121170808D01*
X149894911Y-121160559D01*
X149874352Y-121148236D01*
X149855099Y-121133958D01*
X149837339Y-121117861D01*
X149821242Y-121100101D01*
X149806964Y-121080848D01*
X149794641Y-121060289D01*
X149784392Y-121038620D01*
X149776317Y-121016052D01*
X149770493Y-120992801D01*
X149766976Y-120969091D01*
X149765800Y-120945150D01*
X149765800Y-120456650D01*
X149766976Y-120432709D01*
X149770493Y-120408999D01*
X149776317Y-120385748D01*
X149784392Y-120363180D01*
X149794641Y-120341511D01*
X149806964Y-120320952D01*
X149821242Y-120301699D01*
X149837339Y-120283939D01*
X149855099Y-120267842D01*
X149874352Y-120253564D01*
X149894911Y-120241241D01*
X149916580Y-120230992D01*
X149939148Y-120222917D01*
X149962399Y-120217093D01*
X149986109Y-120213576D01*
X150010050Y-120212400D01*
X150573550Y-120212400D01*
X150597491Y-120213576D01*
G37*
%TD*%
%TO.C,C2*%
G36*
X143231491Y-122321776D02*
G01*
X143255201Y-122325293D01*
X143278452Y-122331117D01*
X143301020Y-122339192D01*
X143322689Y-122349441D01*
X143343248Y-122361764D01*
X143362501Y-122376042D01*
X143380261Y-122392139D01*
X143396358Y-122409899D01*
X143410636Y-122429152D01*
X143422959Y-122449711D01*
X143433208Y-122471380D01*
X143441283Y-122493948D01*
X143447107Y-122517199D01*
X143450624Y-122540909D01*
X143451800Y-122564850D01*
X143451800Y-123053350D01*
X143450624Y-123077291D01*
X143447107Y-123101001D01*
X143441283Y-123124252D01*
X143433208Y-123146820D01*
X143422959Y-123168489D01*
X143410636Y-123189048D01*
X143396358Y-123208301D01*
X143380261Y-123226061D01*
X143362501Y-123242158D01*
X143343248Y-123256436D01*
X143322689Y-123268759D01*
X143301020Y-123279008D01*
X143278452Y-123287083D01*
X143255201Y-123292907D01*
X143231491Y-123296424D01*
X143207550Y-123297600D01*
X142644050Y-123297600D01*
X142620109Y-123296424D01*
X142596399Y-123292907D01*
X142573148Y-123287083D01*
X142550580Y-123279008D01*
X142528911Y-123268759D01*
X142508352Y-123256436D01*
X142489099Y-123242158D01*
X142471339Y-123226061D01*
X142455242Y-123208301D01*
X142440964Y-123189048D01*
X142428641Y-123168489D01*
X142418392Y-123146820D01*
X142410317Y-123124252D01*
X142404493Y-123101001D01*
X142400976Y-123077291D01*
X142399800Y-123053350D01*
X142399800Y-122564850D01*
X142400976Y-122540909D01*
X142404493Y-122517199D01*
X142410317Y-122493948D01*
X142418392Y-122471380D01*
X142428641Y-122449711D01*
X142440964Y-122429152D01*
X142455242Y-122409899D01*
X142471339Y-122392139D01*
X142489099Y-122376042D01*
X142508352Y-122361764D01*
X142528911Y-122349441D01*
X142550580Y-122339192D01*
X142573148Y-122331117D01*
X142596399Y-122325293D01*
X142620109Y-122321776D01*
X142644050Y-122320600D01*
X143207550Y-122320600D01*
X143231491Y-122321776D01*
G37*
G36*
X143231491Y-120746776D02*
G01*
X143255201Y-120750293D01*
X143278452Y-120756117D01*
X143301020Y-120764192D01*
X143322689Y-120774441D01*
X143343248Y-120786764D01*
X143362501Y-120801042D01*
X143380261Y-120817139D01*
X143396358Y-120834899D01*
X143410636Y-120854152D01*
X143422959Y-120874711D01*
X143433208Y-120896380D01*
X143441283Y-120918948D01*
X143447107Y-120942199D01*
X143450624Y-120965909D01*
X143451800Y-120989850D01*
X143451800Y-121478350D01*
X143450624Y-121502291D01*
X143447107Y-121526001D01*
X143441283Y-121549252D01*
X143433208Y-121571820D01*
X143422959Y-121593489D01*
X143410636Y-121614048D01*
X143396358Y-121633301D01*
X143380261Y-121651061D01*
X143362501Y-121667158D01*
X143343248Y-121681436D01*
X143322689Y-121693759D01*
X143301020Y-121704008D01*
X143278452Y-121712083D01*
X143255201Y-121717907D01*
X143231491Y-121721424D01*
X143207550Y-121722600D01*
X142644050Y-121722600D01*
X142620109Y-121721424D01*
X142596399Y-121717907D01*
X142573148Y-121712083D01*
X142550580Y-121704008D01*
X142528911Y-121693759D01*
X142508352Y-121681436D01*
X142489099Y-121667158D01*
X142471339Y-121651061D01*
X142455242Y-121633301D01*
X142440964Y-121614048D01*
X142428641Y-121593489D01*
X142418392Y-121571820D01*
X142410317Y-121549252D01*
X142404493Y-121526001D01*
X142400976Y-121502291D01*
X142399800Y-121478350D01*
X142399800Y-120989850D01*
X142400976Y-120965909D01*
X142404493Y-120942199D01*
X142410317Y-120918948D01*
X142418392Y-120896380D01*
X142428641Y-120874711D01*
X142440964Y-120854152D01*
X142455242Y-120834899D01*
X142471339Y-120817139D01*
X142489099Y-120801042D01*
X142508352Y-120786764D01*
X142528911Y-120774441D01*
X142550580Y-120764192D01*
X142573148Y-120756117D01*
X142596399Y-120750293D01*
X142620109Y-120746776D01*
X142644050Y-120745600D01*
X143207550Y-120745600D01*
X143231491Y-120746776D01*
G37*
%TD*%
%TO.C,C1*%
G36*
X140255691Y-122975176D02*
G01*
X140279401Y-122978693D01*
X140302652Y-122984517D01*
X140325220Y-122992592D01*
X140346889Y-123002841D01*
X140367448Y-123015164D01*
X140386701Y-123029442D01*
X140404461Y-123045539D01*
X140420558Y-123063299D01*
X140434836Y-123082552D01*
X140447159Y-123103111D01*
X140457408Y-123124780D01*
X140465483Y-123147348D01*
X140471307Y-123170599D01*
X140474824Y-123194309D01*
X140476000Y-123218250D01*
X140476000Y-123781750D01*
X140474824Y-123805691D01*
X140471307Y-123829401D01*
X140465483Y-123852652D01*
X140457408Y-123875220D01*
X140447159Y-123896889D01*
X140434836Y-123917448D01*
X140420558Y-123936701D01*
X140404461Y-123954461D01*
X140386701Y-123970558D01*
X140367448Y-123984836D01*
X140346889Y-123997159D01*
X140325220Y-124007408D01*
X140302652Y-124015483D01*
X140279401Y-124021307D01*
X140255691Y-124024824D01*
X140231750Y-124026000D01*
X139743250Y-124026000D01*
X139719309Y-124024824D01*
X139695599Y-124021307D01*
X139672348Y-124015483D01*
X139649780Y-124007408D01*
X139628111Y-123997159D01*
X139607552Y-123984836D01*
X139588299Y-123970558D01*
X139570539Y-123954461D01*
X139554442Y-123936701D01*
X139540164Y-123917448D01*
X139527841Y-123896889D01*
X139517592Y-123875220D01*
X139509517Y-123852652D01*
X139503693Y-123829401D01*
X139500176Y-123805691D01*
X139499000Y-123781750D01*
X139499000Y-123218250D01*
X139500176Y-123194309D01*
X139503693Y-123170599D01*
X139509517Y-123147348D01*
X139517592Y-123124780D01*
X139527841Y-123103111D01*
X139540164Y-123082552D01*
X139554442Y-123063299D01*
X139570539Y-123045539D01*
X139588299Y-123029442D01*
X139607552Y-123015164D01*
X139628111Y-123002841D01*
X139649780Y-122992592D01*
X139672348Y-122984517D01*
X139695599Y-122978693D01*
X139719309Y-122975176D01*
X139743250Y-122974000D01*
X140231750Y-122974000D01*
X140255691Y-122975176D01*
G37*
G36*
X138680691Y-122975176D02*
G01*
X138704401Y-122978693D01*
X138727652Y-122984517D01*
X138750220Y-122992592D01*
X138771889Y-123002841D01*
X138792448Y-123015164D01*
X138811701Y-123029442D01*
X138829461Y-123045539D01*
X138845558Y-123063299D01*
X138859836Y-123082552D01*
X138872159Y-123103111D01*
X138882408Y-123124780D01*
X138890483Y-123147348D01*
X138896307Y-123170599D01*
X138899824Y-123194309D01*
X138901000Y-123218250D01*
X138901000Y-123781750D01*
X138899824Y-123805691D01*
X138896307Y-123829401D01*
X138890483Y-123852652D01*
X138882408Y-123875220D01*
X138872159Y-123896889D01*
X138859836Y-123917448D01*
X138845558Y-123936701D01*
X138829461Y-123954461D01*
X138811701Y-123970558D01*
X138792448Y-123984836D01*
X138771889Y-123997159D01*
X138750220Y-124007408D01*
X138727652Y-124015483D01*
X138704401Y-124021307D01*
X138680691Y-124024824D01*
X138656750Y-124026000D01*
X138168250Y-124026000D01*
X138144309Y-124024824D01*
X138120599Y-124021307D01*
X138097348Y-124015483D01*
X138074780Y-124007408D01*
X138053111Y-123997159D01*
X138032552Y-123984836D01*
X138013299Y-123970558D01*
X137995539Y-123954461D01*
X137979442Y-123936701D01*
X137965164Y-123917448D01*
X137952841Y-123896889D01*
X137942592Y-123875220D01*
X137934517Y-123852652D01*
X137928693Y-123829401D01*
X137925176Y-123805691D01*
X137924000Y-123781750D01*
X137924000Y-123218250D01*
X137925176Y-123194309D01*
X137928693Y-123170599D01*
X137934517Y-123147348D01*
X137942592Y-123124780D01*
X137952841Y-123103111D01*
X137965164Y-123082552D01*
X137979442Y-123063299D01*
X137995539Y-123045539D01*
X138013299Y-123029442D01*
X138032552Y-123015164D01*
X138053111Y-123002841D01*
X138074780Y-122992592D01*
X138097348Y-122984517D01*
X138120599Y-122978693D01*
X138144309Y-122975176D01*
X138168250Y-122974000D01*
X138656750Y-122974000D01*
X138680691Y-122975176D01*
G37*
%TD*%
%TO.C,R9*%
G36*
X153379191Y-124760676D02*
G01*
X153402901Y-124764193D01*
X153426152Y-124770017D01*
X153448720Y-124778092D01*
X153470389Y-124788341D01*
X153490948Y-124800664D01*
X153510201Y-124814942D01*
X153527961Y-124831039D01*
X153544058Y-124848799D01*
X153558336Y-124868052D01*
X153570659Y-124888611D01*
X153580908Y-124910280D01*
X153588983Y-124932848D01*
X153594807Y-124956099D01*
X153598324Y-124979809D01*
X153599500Y-125003750D01*
X153599500Y-125567250D01*
X153598324Y-125591191D01*
X153594807Y-125614901D01*
X153588983Y-125638152D01*
X153580908Y-125660720D01*
X153570659Y-125682389D01*
X153558336Y-125702948D01*
X153544058Y-125722201D01*
X153527961Y-125739961D01*
X153510201Y-125756058D01*
X153490948Y-125770336D01*
X153470389Y-125782659D01*
X153448720Y-125792908D01*
X153426152Y-125800983D01*
X153402901Y-125806807D01*
X153379191Y-125810324D01*
X153355250Y-125811500D01*
X152866750Y-125811500D01*
X152842809Y-125810324D01*
X152819099Y-125806807D01*
X152795848Y-125800983D01*
X152773280Y-125792908D01*
X152751611Y-125782659D01*
X152731052Y-125770336D01*
X152711799Y-125756058D01*
X152694039Y-125739961D01*
X152677942Y-125722201D01*
X152663664Y-125702948D01*
X152651341Y-125682389D01*
X152641092Y-125660720D01*
X152633017Y-125638152D01*
X152627193Y-125614901D01*
X152623676Y-125591191D01*
X152622500Y-125567250D01*
X152622500Y-125003750D01*
X152623676Y-124979809D01*
X152627193Y-124956099D01*
X152633017Y-124932848D01*
X152641092Y-124910280D01*
X152651341Y-124888611D01*
X152663664Y-124868052D01*
X152677942Y-124848799D01*
X152694039Y-124831039D01*
X152711799Y-124814942D01*
X152731052Y-124800664D01*
X152751611Y-124788341D01*
X152773280Y-124778092D01*
X152795848Y-124770017D01*
X152819099Y-124764193D01*
X152842809Y-124760676D01*
X152866750Y-124759500D01*
X153355250Y-124759500D01*
X153379191Y-124760676D01*
G37*
G36*
X154954191Y-124760676D02*
G01*
X154977901Y-124764193D01*
X155001152Y-124770017D01*
X155023720Y-124778092D01*
X155045389Y-124788341D01*
X155065948Y-124800664D01*
X155085201Y-124814942D01*
X155102961Y-124831039D01*
X155119058Y-124848799D01*
X155133336Y-124868052D01*
X155145659Y-124888611D01*
X155155908Y-124910280D01*
X155163983Y-124932848D01*
X155169807Y-124956099D01*
X155173324Y-124979809D01*
X155174500Y-125003750D01*
X155174500Y-125567250D01*
X155173324Y-125591191D01*
X155169807Y-125614901D01*
X155163983Y-125638152D01*
X155155908Y-125660720D01*
X155145659Y-125682389D01*
X155133336Y-125702948D01*
X155119058Y-125722201D01*
X155102961Y-125739961D01*
X155085201Y-125756058D01*
X155065948Y-125770336D01*
X155045389Y-125782659D01*
X155023720Y-125792908D01*
X155001152Y-125800983D01*
X154977901Y-125806807D01*
X154954191Y-125810324D01*
X154930250Y-125811500D01*
X154441750Y-125811500D01*
X154417809Y-125810324D01*
X154394099Y-125806807D01*
X154370848Y-125800983D01*
X154348280Y-125792908D01*
X154326611Y-125782659D01*
X154306052Y-125770336D01*
X154286799Y-125756058D01*
X154269039Y-125739961D01*
X154252942Y-125722201D01*
X154238664Y-125702948D01*
X154226341Y-125682389D01*
X154216092Y-125660720D01*
X154208017Y-125638152D01*
X154202193Y-125614901D01*
X154198676Y-125591191D01*
X154197500Y-125567250D01*
X154197500Y-125003750D01*
X154198676Y-124979809D01*
X154202193Y-124956099D01*
X154208017Y-124932848D01*
X154216092Y-124910280D01*
X154226341Y-124888611D01*
X154238664Y-124868052D01*
X154252942Y-124848799D01*
X154269039Y-124831039D01*
X154286799Y-124814942D01*
X154306052Y-124800664D01*
X154326611Y-124788341D01*
X154348280Y-124778092D01*
X154370848Y-124770017D01*
X154394099Y-124764193D01*
X154417809Y-124760676D01*
X154441750Y-124759500D01*
X154930250Y-124759500D01*
X154954191Y-124760676D01*
G37*
%TD*%
%TO.C,R8*%
G36*
X167171691Y-124824176D02*
G01*
X167195401Y-124827693D01*
X167218652Y-124833517D01*
X167241220Y-124841592D01*
X167262889Y-124851841D01*
X167283448Y-124864164D01*
X167302701Y-124878442D01*
X167320461Y-124894539D01*
X167336558Y-124912299D01*
X167350836Y-124931552D01*
X167363159Y-124952111D01*
X167373408Y-124973780D01*
X167381483Y-124996348D01*
X167387307Y-125019599D01*
X167390824Y-125043309D01*
X167392000Y-125067250D01*
X167392000Y-125630750D01*
X167390824Y-125654691D01*
X167387307Y-125678401D01*
X167381483Y-125701652D01*
X167373408Y-125724220D01*
X167363159Y-125745889D01*
X167350836Y-125766448D01*
X167336558Y-125785701D01*
X167320461Y-125803461D01*
X167302701Y-125819558D01*
X167283448Y-125833836D01*
X167262889Y-125846159D01*
X167241220Y-125856408D01*
X167218652Y-125864483D01*
X167195401Y-125870307D01*
X167171691Y-125873824D01*
X167147750Y-125875000D01*
X166659250Y-125875000D01*
X166635309Y-125873824D01*
X166611599Y-125870307D01*
X166588348Y-125864483D01*
X166565780Y-125856408D01*
X166544111Y-125846159D01*
X166523552Y-125833836D01*
X166504299Y-125819558D01*
X166486539Y-125803461D01*
X166470442Y-125785701D01*
X166456164Y-125766448D01*
X166443841Y-125745889D01*
X166433592Y-125724220D01*
X166425517Y-125701652D01*
X166419693Y-125678401D01*
X166416176Y-125654691D01*
X166415000Y-125630750D01*
X166415000Y-125067250D01*
X166416176Y-125043309D01*
X166419693Y-125019599D01*
X166425517Y-124996348D01*
X166433592Y-124973780D01*
X166443841Y-124952111D01*
X166456164Y-124931552D01*
X166470442Y-124912299D01*
X166486539Y-124894539D01*
X166504299Y-124878442D01*
X166523552Y-124864164D01*
X166544111Y-124851841D01*
X166565780Y-124841592D01*
X166588348Y-124833517D01*
X166611599Y-124827693D01*
X166635309Y-124824176D01*
X166659250Y-124823000D01*
X167147750Y-124823000D01*
X167171691Y-124824176D01*
G37*
G36*
X165596691Y-124824176D02*
G01*
X165620401Y-124827693D01*
X165643652Y-124833517D01*
X165666220Y-124841592D01*
X165687889Y-124851841D01*
X165708448Y-124864164D01*
X165727701Y-124878442D01*
X165745461Y-124894539D01*
X165761558Y-124912299D01*
X165775836Y-124931552D01*
X165788159Y-124952111D01*
X165798408Y-124973780D01*
X165806483Y-124996348D01*
X165812307Y-125019599D01*
X165815824Y-125043309D01*
X165817000Y-125067250D01*
X165817000Y-125630750D01*
X165815824Y-125654691D01*
X165812307Y-125678401D01*
X165806483Y-125701652D01*
X165798408Y-125724220D01*
X165788159Y-125745889D01*
X165775836Y-125766448D01*
X165761558Y-125785701D01*
X165745461Y-125803461D01*
X165727701Y-125819558D01*
X165708448Y-125833836D01*
X165687889Y-125846159D01*
X165666220Y-125856408D01*
X165643652Y-125864483D01*
X165620401Y-125870307D01*
X165596691Y-125873824D01*
X165572750Y-125875000D01*
X165084250Y-125875000D01*
X165060309Y-125873824D01*
X165036599Y-125870307D01*
X165013348Y-125864483D01*
X164990780Y-125856408D01*
X164969111Y-125846159D01*
X164948552Y-125833836D01*
X164929299Y-125819558D01*
X164911539Y-125803461D01*
X164895442Y-125785701D01*
X164881164Y-125766448D01*
X164868841Y-125745889D01*
X164858592Y-125724220D01*
X164850517Y-125701652D01*
X164844693Y-125678401D01*
X164841176Y-125654691D01*
X164840000Y-125630750D01*
X164840000Y-125067250D01*
X164841176Y-125043309D01*
X164844693Y-125019599D01*
X164850517Y-124996348D01*
X164858592Y-124973780D01*
X164868841Y-124952111D01*
X164881164Y-124931552D01*
X164895442Y-124912299D01*
X164911539Y-124894539D01*
X164929299Y-124878442D01*
X164948552Y-124864164D01*
X164969111Y-124851841D01*
X164990780Y-124841592D01*
X165013348Y-124833517D01*
X165036599Y-124827693D01*
X165060309Y-124824176D01*
X165084250Y-124823000D01*
X165572750Y-124823000D01*
X165596691Y-124824176D01*
G37*
%TD*%
D26*
%TO.C,U5*%
X162286000Y-126404500D03*
X157714000Y-126404500D03*
D27*
X161300000Y-125825000D03*
X160650000Y-125825000D03*
X160000000Y-125825000D03*
X159350000Y-125825000D03*
X158700000Y-125825000D03*
D28*
X163048000Y-128627000D03*
D29*
X160000000Y-128500000D03*
D28*
X156952000Y-128627000D03*
%TD*%
D30*
%TO.C,U7*%
X171160000Y-106100000D03*
X172176000Y-106100000D03*
X173192000Y-106100000D03*
X174208000Y-106100000D03*
X175224000Y-106100000D03*
X176240000Y-106100000D03*
X177256000Y-106100000D03*
X178272000Y-106100000D03*
D31*
X168216000Y-115616000D03*
X168216000Y-121712000D03*
X168216000Y-112568000D03*
X168216000Y-113584000D03*
X168216000Y-120696000D03*
X168216000Y-119680000D03*
X168216000Y-118664000D03*
X168216000Y-117648000D03*
X168216000Y-107488000D03*
X168216000Y-108504000D03*
X168216000Y-114600000D03*
X168216000Y-110536000D03*
X168216000Y-116632000D03*
X168216000Y-111552000D03*
X168216000Y-109520000D03*
X181216000Y-121712000D03*
X181216000Y-120696000D03*
X181216000Y-119680000D03*
X181216000Y-118664000D03*
X181216000Y-117648000D03*
X181216000Y-116632000D03*
X181216000Y-115616000D03*
X181216000Y-114600000D03*
X181216000Y-113600000D03*
X181216000Y-112568000D03*
X181216000Y-111552000D03*
X181216000Y-110536000D03*
X181216000Y-109520000D03*
X181216000Y-108504000D03*
X181216000Y-107488000D03*
D32*
X174716000Y-112600000D03*
%TD*%
M02*
