%TF.GenerationSoftware,KiCad,Pcbnew,5.1.5+dfsg1-2~bpo10+1*%
%TF.CreationDate,Date%
%TF.ProjectId,osw-light,6f73772d-6c69-4676-9874-2e6b69636164,1.0*%
%TF.SameCoordinates,Original*%
%TF.FileFunction,Other,Fab,Top*%
%FSLAX46Y46*%
G04 Gerber Fmt 4.6, Leading zero omitted, Abs format (unit mm)*
G04 Created by KiCad*
%MOMM*%
%LPD*%
G04 APERTURE LIST*
%ADD10C,0.050000*%
%ADD11C,0.100000*%
%ADD12C,0.150000*%
G04 APERTURE END LIST*
D10*
%TO.C,U5*%
X79900000Y-119715500D02*
X79900000Y-114715500D01*
X72100000Y-120215500D02*
X80300000Y-120215500D01*
X72500000Y-114715500D02*
X72500000Y-119715500D01*
X80300000Y-120215500D02*
X80300000Y-119715500D01*
X80300000Y-119715500D02*
X79900000Y-119715500D01*
X72100000Y-120215500D02*
X72100000Y-119715500D01*
X72100000Y-119715500D02*
X72500000Y-119715500D01*
X79900000Y-114715500D02*
X72500000Y-114715500D01*
D11*
%TO.C,R18*%
X71164500Y-90017500D02*
X71164500Y-88417500D01*
X71964500Y-90017500D02*
X71164500Y-90017500D01*
X71964500Y-88417500D02*
X71964500Y-90017500D01*
X71164500Y-88417500D02*
X71964500Y-88417500D01*
%TO.C,C11*%
X71964500Y-85306000D02*
X71964500Y-86906000D01*
X71164500Y-85306000D02*
X71964500Y-85306000D01*
X71164500Y-86906000D02*
X71164500Y-85306000D01*
X71964500Y-86906000D02*
X71164500Y-86906000D01*
%TO.C,C22*%
X62719000Y-101511000D02*
X62719000Y-99911000D01*
X63519000Y-101511000D02*
X62719000Y-101511000D01*
X63519000Y-99911000D02*
X63519000Y-101511000D01*
X62719000Y-99911000D02*
X63519000Y-99911000D01*
%TO.C,U13*%
X67883200Y-96404000D02*
X67233200Y-95754000D01*
X67233200Y-94604000D02*
X67233200Y-95754000D01*
X67883200Y-96404000D02*
X70333200Y-96404000D01*
X70333200Y-94604000D02*
X70333200Y-96404000D01*
X67233200Y-94604000D02*
X70333200Y-94604000D01*
%TO.C,U12*%
X76973000Y-112850500D02*
X76323000Y-113500500D01*
X75173000Y-113500500D02*
X76323000Y-113500500D01*
X76973000Y-112850500D02*
X76973000Y-110400500D01*
X75173000Y-110400500D02*
X76973000Y-110400500D01*
X75173000Y-113500500D02*
X75173000Y-110400500D01*
%TO.C,U10*%
X72506000Y-96404000D02*
X71856000Y-95754000D01*
X71856000Y-94604000D02*
X71856000Y-95754000D01*
X72506000Y-96404000D02*
X74956000Y-96404000D01*
X74956000Y-94604000D02*
X74956000Y-96404000D01*
X71856000Y-94604000D02*
X74956000Y-94604000D01*
%TO.C,R22*%
X60293200Y-101511000D02*
X59493200Y-101511000D01*
X59493200Y-101511000D02*
X59493200Y-99911000D01*
X59493200Y-99911000D02*
X60293200Y-99911000D01*
X60293200Y-99911000D02*
X60293200Y-101511000D01*
%TO.C,R21*%
X61144200Y-99885500D02*
X61944200Y-99885500D01*
X61944200Y-99885500D02*
X61944200Y-101485500D01*
X61944200Y-101485500D02*
X61144200Y-101485500D01*
X61144200Y-101485500D02*
X61144200Y-99885500D01*
%TO.C,R20*%
X66490800Y-96710400D02*
X65690800Y-96710400D01*
X65690800Y-96710400D02*
X65690800Y-95110400D01*
X65690800Y-95110400D02*
X66490800Y-95110400D01*
X66490800Y-95110400D02*
X66490800Y-96710400D01*
%TO.C,C19*%
X68389500Y-91586000D02*
X68389500Y-90786000D01*
X68389500Y-90786000D02*
X69989500Y-90786000D01*
X69989500Y-90786000D02*
X69989500Y-91586000D01*
X69989500Y-91586000D02*
X68389500Y-91586000D01*
%TO.C,C18*%
X73088600Y-91586000D02*
X73088600Y-90786000D01*
X73088600Y-90786000D02*
X74688600Y-90786000D01*
X74688600Y-90786000D02*
X74688600Y-91586000D01*
X74688600Y-91586000D02*
X73088600Y-91586000D01*
%TO.C,C17*%
X68389500Y-93173500D02*
X68389500Y-92373500D01*
X68389500Y-92373500D02*
X69989500Y-92373500D01*
X69989500Y-92373500D02*
X69989500Y-93173500D01*
X69989500Y-93173500D02*
X68389500Y-93173500D01*
%TO.C,C16*%
X73088600Y-93173500D02*
X73088600Y-92373500D01*
X73088600Y-92373500D02*
X74688600Y-92373500D01*
X74688600Y-92373500D02*
X74688600Y-93173500D01*
X74688600Y-93173500D02*
X73088600Y-93173500D01*
%TO.C,C15*%
X68288000Y-98647200D02*
X68288000Y-97847200D01*
X68288000Y-97847200D02*
X69888000Y-97847200D01*
X69888000Y-97847200D02*
X69888000Y-98647200D01*
X69888000Y-98647200D02*
X68288000Y-98647200D01*
%TO.C,C14*%
X72910800Y-98647200D02*
X72910800Y-97847200D01*
X72910800Y-97847200D02*
X74510800Y-97847200D01*
X74510800Y-97847200D02*
X74510800Y-98647200D01*
X74510800Y-98647200D02*
X72910800Y-98647200D01*
%TO.C,C6*%
X66675200Y-100977600D02*
X66675200Y-99377600D01*
X66675200Y-99377600D02*
X69875200Y-99377600D01*
X69875200Y-99377600D02*
X69875200Y-100977600D01*
X69875200Y-100977600D02*
X66675200Y-100977600D01*
%TO.C,C5*%
X71320400Y-100977600D02*
X71320400Y-99377600D01*
X71320400Y-99377600D02*
X74520400Y-99377600D01*
X74520400Y-99377600D02*
X74520400Y-100977600D01*
X74520400Y-100977600D02*
X71320400Y-100977600D01*
%TO.C,U2*%
X80044800Y-93760800D02*
X78044800Y-93760800D01*
X78044800Y-93760800D02*
X78044800Y-91760800D01*
X78044800Y-91760800D02*
X79544800Y-91760800D01*
X79544800Y-91760800D02*
X80044800Y-92260800D01*
X80044800Y-92260800D02*
X80044800Y-93760800D01*
%TO.C,U9*%
X72773200Y-106300400D02*
X69123200Y-106300400D01*
X69123200Y-106300400D02*
X69123200Y-103300400D01*
X69123200Y-103300400D02*
X73523200Y-103300400D01*
X73523200Y-103300400D02*
X73523200Y-105550400D01*
X73523200Y-105550400D02*
X72773200Y-106300400D01*
%TO.C,R19*%
X74510800Y-102558800D02*
X72910800Y-102558800D01*
X74510800Y-101758800D02*
X74510800Y-102558800D01*
X72910800Y-101758800D02*
X74510800Y-101758800D01*
X72910800Y-102558800D02*
X72910800Y-101758800D01*
%TO.C,C13*%
X77057200Y-90081200D02*
X77057200Y-91681200D01*
X76257200Y-90081200D02*
X77057200Y-90081200D01*
X76257200Y-91681200D02*
X76257200Y-90081200D01*
X77057200Y-91681200D02*
X76257200Y-91681200D01*
%TO.C,C12*%
X81622900Y-91344800D02*
X83222900Y-91344800D01*
X81622900Y-92144800D02*
X81622900Y-91344800D01*
X83222900Y-92144800D02*
X81622900Y-92144800D01*
X83222900Y-91344800D02*
X83222900Y-92144800D01*
%TO.C,C9*%
X87109200Y-112160000D02*
X85509200Y-112160000D01*
X87109200Y-111360000D02*
X87109200Y-112160000D01*
X85509200Y-111360000D02*
X87109200Y-111360000D01*
X85509200Y-112160000D02*
X85509200Y-111360000D01*
%TO.C,C8*%
X88226900Y-92818000D02*
X89826900Y-92818000D01*
X88226900Y-93618000D02*
X88226900Y-92818000D01*
X89826900Y-93618000D02*
X88226900Y-93618000D01*
X89826900Y-92818000D02*
X89826900Y-93618000D01*
%TO.C,R17*%
X62547600Y-109531200D02*
X64147600Y-109531200D01*
X62547600Y-110331200D02*
X62547600Y-109531200D01*
X64147600Y-110331200D02*
X62547600Y-110331200D01*
X64147600Y-109531200D02*
X64147600Y-110331200D01*
%TO.C,R16*%
X64147600Y-108756400D02*
X62547600Y-108756400D01*
X64147600Y-107956400D02*
X64147600Y-108756400D01*
X62547600Y-107956400D02*
X64147600Y-107956400D01*
X62547600Y-108756400D02*
X62547600Y-107956400D01*
%TO.C,R7*%
X78574900Y-90570000D02*
X78574900Y-89770000D01*
X78574900Y-89770000D02*
X80174900Y-89770000D01*
X80174900Y-89770000D02*
X80174900Y-90570000D01*
X80174900Y-90570000D02*
X78574900Y-90570000D01*
%TO.C,R6*%
X83248400Y-89770000D02*
X83248400Y-90570000D01*
X83248400Y-90570000D02*
X81648400Y-90570000D01*
X81648400Y-90570000D02*
X81648400Y-89770000D01*
X81648400Y-89770000D02*
X83248400Y-89770000D01*
%TO.C,U3*%
X86750400Y-93706000D02*
X86750400Y-91206000D01*
X84750400Y-91206000D02*
X86750400Y-91206000D01*
X84750400Y-91206000D02*
X84750400Y-93456000D01*
X84750400Y-93456000D02*
X85000400Y-93706000D01*
X86750400Y-93706000D02*
X85000400Y-93706000D01*
%TO.C,U1*%
X75161500Y-84214800D02*
X78086500Y-84214800D01*
X78086500Y-84214800D02*
X78086500Y-89114800D01*
X78086500Y-89114800D02*
X74186500Y-89114800D01*
X74186500Y-89114800D02*
X74186500Y-85189800D01*
X74186500Y-85189800D02*
X75161500Y-84214800D01*
D12*
%TO.C,U6*%
X80983200Y-110412400D02*
X82983200Y-110412400D01*
X82983200Y-110412400D02*
X82983200Y-113412400D01*
X82983200Y-113412400D02*
X79983200Y-113412400D01*
X79983200Y-113412400D02*
X79983200Y-111412400D01*
X79983200Y-111412400D02*
X80983200Y-110412400D01*
D11*
%TO.C,U11*%
X72324800Y-109336000D02*
X72974800Y-109986000D01*
X72974800Y-111136000D02*
X72974800Y-109986000D01*
X72324800Y-109336000D02*
X69874800Y-109336000D01*
X69874800Y-111136000D02*
X69874800Y-109336000D01*
X72974800Y-111136000D02*
X69874800Y-111136000D01*
%TO.C,R11*%
X88226900Y-92043200D02*
X88226900Y-91243200D01*
X88226900Y-91243200D02*
X89826900Y-91243200D01*
X89826900Y-91243200D02*
X89826900Y-92043200D01*
X89826900Y-92043200D02*
X88226900Y-92043200D01*
%TO.C,R10*%
X64046000Y-91243200D02*
X64046000Y-92043200D01*
X64046000Y-92043200D02*
X62446000Y-92043200D01*
X62446000Y-92043200D02*
X62446000Y-91243200D01*
X62446000Y-91243200D02*
X64046000Y-91243200D01*
%TO.C,R14*%
X71412000Y-101758800D02*
X71412000Y-102558800D01*
X71412000Y-102558800D02*
X69812000Y-102558800D01*
X69812000Y-102558800D02*
X69812000Y-101758800D01*
X69812000Y-101758800D02*
X71412000Y-101758800D01*
%TO.C,R4*%
X85509200Y-110509000D02*
X85509200Y-109709000D01*
X85509200Y-109709000D02*
X87109200Y-109709000D01*
X87109200Y-109709000D02*
X87109200Y-110509000D01*
X87109200Y-110509000D02*
X85509200Y-110509000D01*
%TO.C,R15*%
X68325900Y-107042000D02*
X68325900Y-107842000D01*
X68325900Y-107842000D02*
X66725900Y-107842000D01*
X66725900Y-107842000D02*
X66725900Y-107042000D01*
X66725900Y-107042000D02*
X68325900Y-107042000D01*
%TO.C,R13*%
X66764000Y-111906000D02*
X66764000Y-111106000D01*
X66764000Y-111106000D02*
X68364000Y-111106000D01*
X68364000Y-111106000D02*
X68364000Y-111906000D01*
X68364000Y-111906000D02*
X66764000Y-111906000D01*
%TO.C,R1*%
X63912800Y-95110400D02*
X64712800Y-95110400D01*
X64712800Y-95110400D02*
X64712800Y-96710400D01*
X64712800Y-96710400D02*
X63912800Y-96710400D01*
X63912800Y-96710400D02*
X63912800Y-95110400D01*
%TO.C,Q1*%
X61072800Y-95671600D02*
X61072800Y-98121600D01*
X61622800Y-95101600D02*
X62472800Y-95101600D01*
X61072800Y-95671600D02*
X61622800Y-95101600D01*
X62472800Y-95101600D02*
X62472800Y-98141600D01*
X61072800Y-98141600D02*
X62472800Y-98141600D01*
%TO.C,D1*%
X68767200Y-108924800D02*
X67067200Y-108924800D01*
X67067200Y-108924800D02*
X66767200Y-109224800D01*
X66767200Y-109224800D02*
X66767200Y-110124800D01*
X66767200Y-110124800D02*
X68767200Y-110124800D01*
X68767200Y-110124800D02*
X68767200Y-108924800D01*
%TO.C,C4*%
X65265200Y-106381600D02*
X65265200Y-107181600D01*
X65265200Y-107181600D02*
X63665200Y-107181600D01*
X63665200Y-107181600D02*
X63665200Y-106381600D01*
X63665200Y-106381600D02*
X65265200Y-106381600D01*
%TO.C,C3*%
X72923400Y-107842000D02*
X72923400Y-107042000D01*
X72923400Y-107042000D02*
X74523400Y-107042000D01*
X74523400Y-107042000D02*
X74523400Y-107842000D01*
X74523400Y-107842000D02*
X72923400Y-107842000D01*
%TO.C,C2*%
X69837400Y-107842000D02*
X69837400Y-107042000D01*
X69837400Y-107042000D02*
X71437400Y-107042000D01*
X71437400Y-107042000D02*
X71437400Y-107842000D01*
X71437400Y-107842000D02*
X69837400Y-107842000D01*
%TO.C,C1*%
X69837300Y-113379200D02*
X69837300Y-112579200D01*
X69837300Y-112579200D02*
X71437300Y-112579200D01*
X71437300Y-112579200D02*
X71437300Y-113379200D01*
X71437300Y-113379200D02*
X69837300Y-113379200D01*
%TO.C,R9*%
X64122100Y-111106000D02*
X64122100Y-111906000D01*
X64122100Y-111906000D02*
X62522100Y-111906000D01*
X62522100Y-111906000D02*
X62522100Y-111106000D01*
X62522100Y-111106000D02*
X64122100Y-111106000D01*
%TO.C,R8*%
X90309600Y-109683600D02*
X90309600Y-110483600D01*
X90309600Y-110483600D02*
X88709600Y-110483600D01*
X88709600Y-110483600D02*
X88709600Y-109683600D01*
X88709600Y-109683600D02*
X90309600Y-109683600D01*
D12*
%TO.C,U7*%
X94286000Y-108100000D02*
X76336000Y-108100000D01*
X94286000Y-95100000D02*
X76336000Y-95100000D01*
X76336000Y-95100000D02*
X76336000Y-108100000D01*
X94286000Y-95100000D02*
X94286000Y-108100000D01*
%TD*%
%TO.C,U5*%
D11*
X74857142Y-121729190D02*
X74857142Y-122133952D01*
X74880952Y-122181571D01*
X74904761Y-122205380D01*
X74952380Y-122229190D01*
X75047619Y-122229190D01*
X75095238Y-122205380D01*
X75119047Y-122181571D01*
X75142857Y-122133952D01*
X75142857Y-121729190D01*
X75357142Y-122205380D02*
X75428571Y-122229190D01*
X75547619Y-122229190D01*
X75595238Y-122205380D01*
X75619047Y-122181571D01*
X75642857Y-122133952D01*
X75642857Y-122086333D01*
X75619047Y-122038714D01*
X75595238Y-122014904D01*
X75547619Y-121991095D01*
X75452380Y-121967285D01*
X75404761Y-121943476D01*
X75380952Y-121919666D01*
X75357142Y-121872047D01*
X75357142Y-121824428D01*
X75380952Y-121776809D01*
X75404761Y-121753000D01*
X75452380Y-121729190D01*
X75571428Y-121729190D01*
X75642857Y-121753000D01*
X76023809Y-121967285D02*
X76095238Y-121991095D01*
X76119047Y-122014904D01*
X76142857Y-122062523D01*
X76142857Y-122133952D01*
X76119047Y-122181571D01*
X76095238Y-122205380D01*
X76047619Y-122229190D01*
X75857142Y-122229190D01*
X75857142Y-121729190D01*
X76023809Y-121729190D01*
X76071428Y-121753000D01*
X76095238Y-121776809D01*
X76119047Y-121824428D01*
X76119047Y-121872047D01*
X76095238Y-121919666D01*
X76071428Y-121943476D01*
X76023809Y-121967285D01*
X75857142Y-121967285D01*
X76357142Y-122038714D02*
X76738095Y-122038714D01*
X77071428Y-121729190D02*
X77166666Y-121729190D01*
X77214285Y-121753000D01*
X77261904Y-121800619D01*
X77285714Y-121895857D01*
X77285714Y-122062523D01*
X77261904Y-122157761D01*
X77214285Y-122205380D01*
X77166666Y-122229190D01*
X77071428Y-122229190D01*
X77023809Y-122205380D01*
X76976190Y-122157761D01*
X76952380Y-122062523D01*
X76952380Y-121895857D01*
X76976190Y-121800619D01*
X77023809Y-121753000D01*
X77071428Y-121729190D01*
X77428571Y-121729190D02*
X77714285Y-121729190D01*
X77571428Y-122229190D02*
X77571428Y-121729190D01*
X78142857Y-121753000D02*
X78095238Y-121729190D01*
X78023809Y-121729190D01*
X77952380Y-121753000D01*
X77904761Y-121800619D01*
X77880952Y-121848238D01*
X77857142Y-121943476D01*
X77857142Y-122014904D01*
X77880952Y-122110142D01*
X77904761Y-122157761D01*
X77952380Y-122205380D01*
X78023809Y-122229190D01*
X78071428Y-122229190D01*
X78142857Y-122205380D01*
X78166666Y-122181571D01*
X78166666Y-122014904D01*
X78071428Y-122014904D01*
X75819047Y-118279190D02*
X75819047Y-118683952D01*
X75842857Y-118731571D01*
X75866666Y-118755380D01*
X75914285Y-118779190D01*
X76009523Y-118779190D01*
X76057142Y-118755380D01*
X76080952Y-118731571D01*
X76104761Y-118683952D01*
X76104761Y-118279190D01*
X76580952Y-118279190D02*
X76342857Y-118279190D01*
X76319047Y-118517285D01*
X76342857Y-118493476D01*
X76390476Y-118469666D01*
X76509523Y-118469666D01*
X76557142Y-118493476D01*
X76580952Y-118517285D01*
X76604761Y-118564904D01*
X76604761Y-118683952D01*
X76580952Y-118731571D01*
X76557142Y-118755380D01*
X76509523Y-118779190D01*
X76390476Y-118779190D01*
X76342857Y-118755380D01*
X76319047Y-118731571D01*
%TO.C,J1*%
X59090952Y-101175771D02*
X59067142Y-101199580D01*
X58995714Y-101223390D01*
X58948095Y-101223390D01*
X58876666Y-101199580D01*
X58829047Y-101151961D01*
X58805238Y-101104342D01*
X58781428Y-101009104D01*
X58781428Y-100937676D01*
X58805238Y-100842438D01*
X58829047Y-100794819D01*
X58876666Y-100747200D01*
X58948095Y-100723390D01*
X58995714Y-100723390D01*
X59067142Y-100747200D01*
X59090952Y-100771009D01*
X59376666Y-101223390D02*
X59329047Y-101199580D01*
X59305238Y-101175771D01*
X59281428Y-101128152D01*
X59281428Y-100985295D01*
X59305238Y-100937676D01*
X59329047Y-100913866D01*
X59376666Y-100890057D01*
X59448095Y-100890057D01*
X59495714Y-100913866D01*
X59519523Y-100937676D01*
X59543333Y-100985295D01*
X59543333Y-101128152D01*
X59519523Y-101175771D01*
X59495714Y-101199580D01*
X59448095Y-101223390D01*
X59376666Y-101223390D01*
X59757619Y-100890057D02*
X59757619Y-101223390D01*
X59757619Y-100937676D02*
X59781428Y-100913866D01*
X59829047Y-100890057D01*
X59900476Y-100890057D01*
X59948095Y-100913866D01*
X59971904Y-100961485D01*
X59971904Y-101223390D01*
X60210000Y-100890057D02*
X60210000Y-101223390D01*
X60210000Y-100937676D02*
X60233809Y-100913866D01*
X60281428Y-100890057D01*
X60352857Y-100890057D01*
X60400476Y-100913866D01*
X60424285Y-100961485D01*
X60424285Y-101223390D01*
X60543333Y-101271009D02*
X60924285Y-101271009D01*
X61138571Y-100723390D02*
X61186190Y-100723390D01*
X61233809Y-100747200D01*
X61257619Y-100771009D01*
X61281428Y-100818628D01*
X61305238Y-100913866D01*
X61305238Y-101032914D01*
X61281428Y-101128152D01*
X61257619Y-101175771D01*
X61233809Y-101199580D01*
X61186190Y-101223390D01*
X61138571Y-101223390D01*
X61090952Y-101199580D01*
X61067142Y-101175771D01*
X61043333Y-101128152D01*
X61019523Y-101032914D01*
X61019523Y-100913866D01*
X61043333Y-100818628D01*
X61067142Y-100771009D01*
X61090952Y-100747200D01*
X61138571Y-100723390D01*
X61781428Y-101223390D02*
X61495714Y-101223390D01*
X61638571Y-101223390D02*
X61638571Y-100723390D01*
X61590952Y-100794819D01*
X61543333Y-100842438D01*
X61495714Y-100866247D01*
X61948095Y-101223390D02*
X62210000Y-100890057D01*
X61948095Y-100890057D02*
X62210000Y-101223390D01*
X62495714Y-100723390D02*
X62543333Y-100723390D01*
X62590952Y-100747200D01*
X62614761Y-100771009D01*
X62638571Y-100818628D01*
X62662380Y-100913866D01*
X62662380Y-101032914D01*
X62638571Y-101128152D01*
X62614761Y-101175771D01*
X62590952Y-101199580D01*
X62543333Y-101223390D01*
X62495714Y-101223390D01*
X62448095Y-101199580D01*
X62424285Y-101175771D01*
X62400476Y-101128152D01*
X62376666Y-101032914D01*
X62376666Y-100913866D01*
X62400476Y-100818628D01*
X62424285Y-100771009D01*
X62448095Y-100747200D01*
X62495714Y-100723390D01*
X62852857Y-100771009D02*
X62876666Y-100747200D01*
X62924285Y-100723390D01*
X63043333Y-100723390D01*
X63090952Y-100747200D01*
X63114761Y-100771009D01*
X63138571Y-100818628D01*
X63138571Y-100866247D01*
X63114761Y-100937676D01*
X62829047Y-101223390D01*
X63138571Y-101223390D01*
X60686190Y-104763866D02*
X61043333Y-104763866D01*
X61114761Y-104787676D01*
X61162380Y-104835295D01*
X61186190Y-104906723D01*
X61186190Y-104954342D01*
X61186190Y-104263866D02*
X61186190Y-104549580D01*
X61186190Y-104406723D02*
X60686190Y-104406723D01*
X60757619Y-104454342D01*
X60805238Y-104501961D01*
X60829047Y-104549580D01*
%TO.C,SW2*%
X86054451Y-84092733D02*
X86101388Y-84151604D01*
X86201230Y-84216442D01*
X86254134Y-84222409D01*
X86287070Y-84215409D01*
X86332974Y-84188439D01*
X86358909Y-84148503D01*
X86364876Y-84095598D01*
X86357875Y-84062662D01*
X86330906Y-84016759D01*
X86264000Y-83944920D01*
X86237031Y-83899017D01*
X86230030Y-83866081D01*
X86235997Y-83813176D01*
X86261932Y-83773240D01*
X86307836Y-83746271D01*
X86340772Y-83739270D01*
X86393676Y-83745237D01*
X86493518Y-83810075D01*
X86540455Y-83868946D01*
X86693201Y-83939751D02*
X86520723Y-84423924D01*
X86795111Y-84176269D01*
X86680470Y-84527665D01*
X87052631Y-84173167D01*
X86814282Y-84671342D02*
X87133775Y-84878824D01*
X87259552Y-84903725D02*
X87531872Y-84484390D01*
X87691619Y-84588130D01*
X87718588Y-84634034D01*
X87725588Y-84666970D01*
X87719622Y-84719874D01*
X87680719Y-84779779D01*
X87634815Y-84806748D01*
X87601879Y-84813749D01*
X87548975Y-84807782D01*
X87389228Y-84704042D01*
X88040149Y-85013196D02*
X87858603Y-85292753D01*
X87860434Y-84896488D02*
X87717790Y-85116139D01*
X87711824Y-85169044D01*
X87738793Y-85214947D01*
X87798698Y-85253850D01*
X87851602Y-85259817D01*
X87884538Y-85252816D01*
X88051285Y-85389493D02*
X88078255Y-85435396D01*
X88158128Y-85487267D01*
X88211032Y-85493234D01*
X88256936Y-85466265D01*
X88269903Y-85446296D01*
X88275870Y-85393392D01*
X88248901Y-85347488D01*
X88188996Y-85308586D01*
X88162027Y-85262682D01*
X88167994Y-85209778D01*
X88180961Y-85189809D01*
X88226865Y-85162840D01*
X88279769Y-85168807D01*
X88339674Y-85207710D01*
X88366643Y-85253614D01*
X88397748Y-85642878D02*
X88670068Y-85223543D01*
X88577463Y-85759586D02*
X88720107Y-85539935D01*
X88726074Y-85487030D01*
X88699104Y-85441127D01*
X88639199Y-85402224D01*
X88586295Y-85396257D01*
X88553359Y-85403258D01*
%TO.C,SW1*%
X63690625Y-85836444D02*
X63763498Y-85817509D01*
X63863339Y-85752671D01*
X63890308Y-85706768D01*
X63897309Y-85673832D01*
X63891342Y-85620927D01*
X63865407Y-85580991D01*
X63819504Y-85554022D01*
X63786568Y-85547021D01*
X63733663Y-85552988D01*
X63640822Y-85584890D01*
X63587918Y-85590857D01*
X63554982Y-85583856D01*
X63509079Y-85556887D01*
X63483143Y-85516950D01*
X63477176Y-85464046D01*
X63484177Y-85431110D01*
X63511146Y-85385206D01*
X63610988Y-85320368D01*
X63683861Y-85301434D01*
X63810672Y-85190692D02*
X64182833Y-85545190D01*
X64068192Y-85193794D01*
X64342580Y-85441449D01*
X64170102Y-84957276D01*
X64528262Y-85377645D02*
X64847755Y-85170163D01*
X64921662Y-85065389D02*
X64649342Y-84646053D01*
X64809089Y-84542313D01*
X64861993Y-84536346D01*
X64894929Y-84543346D01*
X64940833Y-84570316D01*
X64979735Y-84630221D01*
X64985702Y-84683125D01*
X64978702Y-84716061D01*
X64951732Y-84761964D01*
X64791986Y-84865705D01*
X65339166Y-84396804D02*
X65520712Y-84676361D01*
X65159451Y-84513512D02*
X65302094Y-84733164D01*
X65347998Y-84760133D01*
X65400902Y-84754166D01*
X65460807Y-84715263D01*
X65487776Y-84669360D01*
X65494777Y-84636424D01*
X65687460Y-84539684D02*
X65740364Y-84533717D01*
X65820237Y-84481847D01*
X65847206Y-84435943D01*
X65841239Y-84383039D01*
X65828272Y-84363071D01*
X65782368Y-84336101D01*
X65729464Y-84342068D01*
X65669559Y-84380971D01*
X65616655Y-84386938D01*
X65570751Y-84359969D01*
X65557784Y-84340001D01*
X65551817Y-84287096D01*
X65578786Y-84241193D01*
X65638691Y-84202290D01*
X65691595Y-84196323D01*
X66059857Y-84326236D02*
X65787538Y-83906900D01*
X66239573Y-84209527D02*
X66096929Y-83989875D01*
X66051025Y-83962906D01*
X65998121Y-83968873D01*
X65938216Y-84007776D01*
X65911247Y-84053680D01*
X65904246Y-84086615D01*
%TO.C,SW5*%
X70910250Y-119724964D02*
X70969121Y-119678027D01*
X71033959Y-119578185D01*
X71039926Y-119525281D01*
X71032926Y-119492345D01*
X71005956Y-119446441D01*
X70966020Y-119420506D01*
X70913115Y-119414539D01*
X70880179Y-119421540D01*
X70834276Y-119448509D01*
X70762437Y-119515415D01*
X70716534Y-119542384D01*
X70683598Y-119549385D01*
X70630693Y-119543418D01*
X70590757Y-119517483D01*
X70563788Y-119471579D01*
X70556787Y-119438643D01*
X70562754Y-119385739D01*
X70627592Y-119285897D01*
X70686463Y-119238960D01*
X70757268Y-119086214D02*
X71241441Y-119258692D01*
X70993786Y-118984304D01*
X71345182Y-119098945D01*
X70990684Y-118726784D01*
X71488859Y-118965133D02*
X71696341Y-118645640D01*
X71721242Y-118519863D02*
X71301907Y-118247543D01*
X71405647Y-118087796D01*
X71451551Y-118060827D01*
X71484487Y-118053827D01*
X71537391Y-118059793D01*
X71597296Y-118098696D01*
X71624265Y-118144600D01*
X71631266Y-118177536D01*
X71625299Y-118230440D01*
X71521559Y-118390187D01*
X71830713Y-117739266D02*
X72110270Y-117920812D01*
X71714005Y-117918981D02*
X71933656Y-118061625D01*
X71986561Y-118067591D01*
X72032464Y-118040622D01*
X72071367Y-117980717D01*
X72077334Y-117927813D01*
X72070333Y-117894877D01*
X72207010Y-117728130D02*
X72252913Y-117701160D01*
X72304784Y-117621287D01*
X72310751Y-117568383D01*
X72283782Y-117522479D01*
X72263813Y-117509512D01*
X72210909Y-117503545D01*
X72165005Y-117530514D01*
X72126103Y-117590419D01*
X72080199Y-117617388D01*
X72027295Y-117611421D01*
X72007326Y-117598454D01*
X71980357Y-117552550D01*
X71986324Y-117499646D01*
X72025227Y-117439741D01*
X72071131Y-117412772D01*
X72460395Y-117381667D02*
X72041060Y-117109347D01*
X72577103Y-117201952D02*
X72357452Y-117059308D01*
X72304547Y-117053341D01*
X72258644Y-117080311D01*
X72219741Y-117140216D01*
X72213774Y-117193120D01*
X72220775Y-117226056D01*
%TO.C,SW4*%
X85873951Y-119354143D02*
X85946824Y-119335208D01*
X86046665Y-119270370D01*
X86073634Y-119224467D01*
X86080635Y-119191531D01*
X86074668Y-119138626D01*
X86048733Y-119098690D01*
X86002830Y-119071721D01*
X85969894Y-119064720D01*
X85916989Y-119070687D01*
X85824148Y-119102589D01*
X85771244Y-119108556D01*
X85738308Y-119101555D01*
X85692405Y-119074586D01*
X85666469Y-119034649D01*
X85660502Y-118981745D01*
X85667503Y-118948809D01*
X85694472Y-118902905D01*
X85794314Y-118838067D01*
X85867187Y-118819133D01*
X85993998Y-118708391D02*
X86366159Y-119062889D01*
X86251518Y-118711493D01*
X86525906Y-118959148D01*
X86353428Y-118474975D01*
X86711588Y-118895344D02*
X87031081Y-118687862D01*
X87104988Y-118583088D02*
X86832668Y-118163752D01*
X86992415Y-118060012D01*
X87045319Y-118054045D01*
X87078255Y-118061045D01*
X87124159Y-118088015D01*
X87163061Y-118147920D01*
X87169028Y-118200824D01*
X87162028Y-118233760D01*
X87135058Y-118279663D01*
X86975312Y-118383404D01*
X87522492Y-117914503D02*
X87704038Y-118194060D01*
X87342777Y-118031211D02*
X87485420Y-118250863D01*
X87531324Y-118277832D01*
X87584228Y-118271865D01*
X87644133Y-118232962D01*
X87671102Y-118187059D01*
X87678103Y-118154123D01*
X87870786Y-118057383D02*
X87923690Y-118051416D01*
X88003563Y-117999546D01*
X88030532Y-117953642D01*
X88024565Y-117900738D01*
X88011598Y-117880770D01*
X87965694Y-117853800D01*
X87912790Y-117859767D01*
X87852885Y-117898670D01*
X87799981Y-117904637D01*
X87754077Y-117877668D01*
X87741110Y-117857700D01*
X87735143Y-117804795D01*
X87762112Y-117758892D01*
X87822017Y-117719989D01*
X87874921Y-117714022D01*
X88243183Y-117843935D02*
X87970864Y-117424599D01*
X88422899Y-117727226D02*
X88280255Y-117507574D01*
X88234351Y-117480605D01*
X88181447Y-117486572D01*
X88121542Y-117525475D01*
X88094573Y-117571379D01*
X88087572Y-117604314D01*
%TO.C,R18*%
X69908309Y-89967500D02*
X69884500Y-89943690D01*
X69860690Y-89896071D01*
X69860690Y-89777023D01*
X69884500Y-89729404D01*
X69908309Y-89705595D01*
X69955928Y-89681785D01*
X70003547Y-89681785D01*
X70074976Y-89705595D01*
X70360690Y-89991309D01*
X70360690Y-89681785D01*
X70313071Y-89467500D02*
X70336880Y-89443690D01*
X70360690Y-89467500D01*
X70336880Y-89491309D01*
X70313071Y-89467500D01*
X70360690Y-89467500D01*
X69908309Y-89253214D02*
X69884500Y-89229404D01*
X69860690Y-89181785D01*
X69860690Y-89062738D01*
X69884500Y-89015119D01*
X69908309Y-88991309D01*
X69955928Y-88967500D01*
X70003547Y-88967500D01*
X70074976Y-88991309D01*
X70360690Y-89277023D01*
X70360690Y-88967500D01*
X70360690Y-88753214D02*
X69860690Y-88753214D01*
X70360690Y-88467500D02*
X70074976Y-88681785D01*
X69860690Y-88467500D02*
X70146404Y-88753214D01*
X71790690Y-89538928D02*
X71552595Y-89705595D01*
X71790690Y-89824642D02*
X71290690Y-89824642D01*
X71290690Y-89634166D01*
X71314500Y-89586547D01*
X71338309Y-89562738D01*
X71385928Y-89538928D01*
X71457357Y-89538928D01*
X71504976Y-89562738D01*
X71528785Y-89586547D01*
X71552595Y-89634166D01*
X71552595Y-89824642D01*
X71790690Y-89062738D02*
X71790690Y-89348452D01*
X71790690Y-89205595D02*
X71290690Y-89205595D01*
X71362119Y-89253214D01*
X71409738Y-89300833D01*
X71433547Y-89348452D01*
X71504976Y-88777023D02*
X71481166Y-88824642D01*
X71457357Y-88848452D01*
X71409738Y-88872261D01*
X71385928Y-88872261D01*
X71338309Y-88848452D01*
X71314500Y-88824642D01*
X71290690Y-88777023D01*
X71290690Y-88681785D01*
X71314500Y-88634166D01*
X71338309Y-88610357D01*
X71385928Y-88586547D01*
X71409738Y-88586547D01*
X71457357Y-88610357D01*
X71481166Y-88634166D01*
X71504976Y-88681785D01*
X71504976Y-88777023D01*
X71528785Y-88824642D01*
X71552595Y-88848452D01*
X71600214Y-88872261D01*
X71695452Y-88872261D01*
X71743071Y-88848452D01*
X71766880Y-88824642D01*
X71790690Y-88777023D01*
X71790690Y-88681785D01*
X71766880Y-88634166D01*
X71743071Y-88610357D01*
X71695452Y-88586547D01*
X71600214Y-88586547D01*
X71552595Y-88610357D01*
X71528785Y-88634166D01*
X71504976Y-88681785D01*
%TO.C,C11*%
X72720690Y-86713142D02*
X72720690Y-86665523D01*
X72744500Y-86617904D01*
X72768309Y-86594095D01*
X72815928Y-86570285D01*
X72911166Y-86546476D01*
X73030214Y-86546476D01*
X73125452Y-86570285D01*
X73173071Y-86594095D01*
X73196880Y-86617904D01*
X73220690Y-86665523D01*
X73220690Y-86713142D01*
X73196880Y-86760761D01*
X73173071Y-86784571D01*
X73125452Y-86808380D01*
X73030214Y-86832190D01*
X72911166Y-86832190D01*
X72815928Y-86808380D01*
X72768309Y-86784571D01*
X72744500Y-86760761D01*
X72720690Y-86713142D01*
X73173071Y-86332190D02*
X73196880Y-86308380D01*
X73220690Y-86332190D01*
X73196880Y-86356000D01*
X73173071Y-86332190D01*
X73220690Y-86332190D01*
X73220690Y-85832190D02*
X73220690Y-86117904D01*
X73220690Y-85975047D02*
X72720690Y-85975047D01*
X72792119Y-86022666D01*
X72839738Y-86070285D01*
X72863547Y-86117904D01*
X72887357Y-85403619D02*
X73220690Y-85403619D01*
X72887357Y-85617904D02*
X73149261Y-85617904D01*
X73196880Y-85594095D01*
X73220690Y-85546476D01*
X73220690Y-85475047D01*
X73196880Y-85427428D01*
X73173071Y-85403619D01*
X71743071Y-86427428D02*
X71766880Y-86451238D01*
X71790690Y-86522666D01*
X71790690Y-86570285D01*
X71766880Y-86641714D01*
X71719261Y-86689333D01*
X71671642Y-86713142D01*
X71576404Y-86736952D01*
X71504976Y-86736952D01*
X71409738Y-86713142D01*
X71362119Y-86689333D01*
X71314500Y-86641714D01*
X71290690Y-86570285D01*
X71290690Y-86522666D01*
X71314500Y-86451238D01*
X71338309Y-86427428D01*
X71790690Y-85951238D02*
X71790690Y-86236952D01*
X71790690Y-86094095D02*
X71290690Y-86094095D01*
X71362119Y-86141714D01*
X71409738Y-86189333D01*
X71433547Y-86236952D01*
X71790690Y-85475047D02*
X71790690Y-85760761D01*
X71790690Y-85617904D02*
X71290690Y-85617904D01*
X71362119Y-85665523D01*
X71409738Y-85713142D01*
X71433547Y-85760761D01*
%TO.C,C22*%
X61415190Y-101318142D02*
X61415190Y-101270523D01*
X61439000Y-101222904D01*
X61462809Y-101199095D01*
X61510428Y-101175285D01*
X61605666Y-101151476D01*
X61724714Y-101151476D01*
X61819952Y-101175285D01*
X61867571Y-101199095D01*
X61891380Y-101222904D01*
X61915190Y-101270523D01*
X61915190Y-101318142D01*
X61891380Y-101365761D01*
X61867571Y-101389571D01*
X61819952Y-101413380D01*
X61724714Y-101437190D01*
X61605666Y-101437190D01*
X61510428Y-101413380D01*
X61462809Y-101389571D01*
X61439000Y-101365761D01*
X61415190Y-101318142D01*
X61867571Y-100937190D02*
X61891380Y-100913380D01*
X61915190Y-100937190D01*
X61891380Y-100961000D01*
X61867571Y-100937190D01*
X61915190Y-100937190D01*
X61915190Y-100437190D02*
X61915190Y-100722904D01*
X61915190Y-100580047D02*
X61415190Y-100580047D01*
X61486619Y-100627666D01*
X61534238Y-100675285D01*
X61558047Y-100722904D01*
X61581857Y-100008619D02*
X61915190Y-100008619D01*
X61581857Y-100222904D02*
X61843761Y-100222904D01*
X61891380Y-100199095D01*
X61915190Y-100151476D01*
X61915190Y-100080047D01*
X61891380Y-100032428D01*
X61867571Y-100008619D01*
X63297571Y-101032428D02*
X63321380Y-101056238D01*
X63345190Y-101127666D01*
X63345190Y-101175285D01*
X63321380Y-101246714D01*
X63273761Y-101294333D01*
X63226142Y-101318142D01*
X63130904Y-101341952D01*
X63059476Y-101341952D01*
X62964238Y-101318142D01*
X62916619Y-101294333D01*
X62869000Y-101246714D01*
X62845190Y-101175285D01*
X62845190Y-101127666D01*
X62869000Y-101056238D01*
X62892809Y-101032428D01*
X62892809Y-100841952D02*
X62869000Y-100818142D01*
X62845190Y-100770523D01*
X62845190Y-100651476D01*
X62869000Y-100603857D01*
X62892809Y-100580047D01*
X62940428Y-100556238D01*
X62988047Y-100556238D01*
X63059476Y-100580047D01*
X63345190Y-100865761D01*
X63345190Y-100556238D01*
X62892809Y-100365761D02*
X62869000Y-100341952D01*
X62845190Y-100294333D01*
X62845190Y-100175285D01*
X62869000Y-100127666D01*
X62892809Y-100103857D01*
X62940428Y-100080047D01*
X62988047Y-100080047D01*
X63059476Y-100103857D01*
X63345190Y-100389571D01*
X63345190Y-100080047D01*
%TO.C,U13*%
X71409390Y-96873047D02*
X71909390Y-96539714D01*
X71409390Y-96539714D02*
X71909390Y-96873047D01*
X71861771Y-96063523D02*
X71885580Y-96087333D01*
X71909390Y-96158761D01*
X71909390Y-96206380D01*
X71885580Y-96277809D01*
X71837961Y-96325428D01*
X71790342Y-96349238D01*
X71695104Y-96373047D01*
X71623676Y-96373047D01*
X71528438Y-96349238D01*
X71480819Y-96325428D01*
X71433200Y-96277809D01*
X71409390Y-96206380D01*
X71409390Y-96158761D01*
X71433200Y-96087333D01*
X71457009Y-96063523D01*
X71409390Y-95634952D02*
X71409390Y-95730190D01*
X71433200Y-95777809D01*
X71457009Y-95801619D01*
X71528438Y-95849238D01*
X71623676Y-95873047D01*
X71814152Y-95873047D01*
X71861771Y-95849238D01*
X71885580Y-95825428D01*
X71909390Y-95777809D01*
X71909390Y-95682571D01*
X71885580Y-95634952D01*
X71861771Y-95611142D01*
X71814152Y-95587333D01*
X71695104Y-95587333D01*
X71647485Y-95611142D01*
X71623676Y-95634952D01*
X71599866Y-95682571D01*
X71599866Y-95777809D01*
X71623676Y-95825428D01*
X71647485Y-95849238D01*
X71695104Y-95873047D01*
X71457009Y-95396857D02*
X71433200Y-95373047D01*
X71409390Y-95325428D01*
X71409390Y-95206380D01*
X71433200Y-95158761D01*
X71457009Y-95134952D01*
X71504628Y-95111142D01*
X71552247Y-95111142D01*
X71623676Y-95134952D01*
X71909390Y-95420666D01*
X71909390Y-95111142D01*
X71409390Y-94801619D02*
X71409390Y-94754000D01*
X71433200Y-94706380D01*
X71457009Y-94682571D01*
X71504628Y-94658761D01*
X71599866Y-94634952D01*
X71718914Y-94634952D01*
X71814152Y-94658761D01*
X71861771Y-94682571D01*
X71885580Y-94706380D01*
X71909390Y-94754000D01*
X71909390Y-94801619D01*
X71885580Y-94849238D01*
X71861771Y-94873047D01*
X71814152Y-94896857D01*
X71718914Y-94920666D01*
X71599866Y-94920666D01*
X71504628Y-94896857D01*
X71457009Y-94873047D01*
X71433200Y-94849238D01*
X71409390Y-94801619D01*
X71909390Y-94396857D02*
X71909390Y-94301619D01*
X71885580Y-94254000D01*
X71861771Y-94230190D01*
X71790342Y-94182571D01*
X71695104Y-94158761D01*
X71504628Y-94158761D01*
X71457009Y-94182571D01*
X71433200Y-94206380D01*
X71409390Y-94254000D01*
X71409390Y-94349238D01*
X71433200Y-94396857D01*
X71457009Y-94420666D01*
X71504628Y-94444476D01*
X71623676Y-94444476D01*
X71671295Y-94420666D01*
X71695104Y-94396857D01*
X71718914Y-94349238D01*
X71718914Y-94254000D01*
X71695104Y-94206380D01*
X71671295Y-94182571D01*
X71623676Y-94158761D01*
X68164152Y-95230190D02*
X68164152Y-95634952D01*
X68187961Y-95682571D01*
X68211771Y-95706380D01*
X68259390Y-95730190D01*
X68354628Y-95730190D01*
X68402247Y-95706380D01*
X68426057Y-95682571D01*
X68449866Y-95634952D01*
X68449866Y-95230190D01*
X68949866Y-95730190D02*
X68664152Y-95730190D01*
X68807009Y-95730190D02*
X68807009Y-95230190D01*
X68759390Y-95301619D01*
X68711771Y-95349238D01*
X68664152Y-95373047D01*
X69116533Y-95230190D02*
X69426057Y-95230190D01*
X69259390Y-95420666D01*
X69330819Y-95420666D01*
X69378438Y-95444476D01*
X69402247Y-95468285D01*
X69426057Y-95515904D01*
X69426057Y-95634952D01*
X69402247Y-95682571D01*
X69378438Y-95706380D01*
X69330819Y-95730190D01*
X69187961Y-95730190D01*
X69140342Y-95706380D01*
X69116533Y-95682571D01*
%TO.C,U12*%
X75799190Y-112569547D02*
X76203952Y-112569547D01*
X76251571Y-112545738D01*
X76275380Y-112521928D01*
X76299190Y-112474309D01*
X76299190Y-112379071D01*
X76275380Y-112331452D01*
X76251571Y-112307642D01*
X76203952Y-112283833D01*
X75799190Y-112283833D01*
X76299190Y-111783833D02*
X76299190Y-112069547D01*
X76299190Y-111926690D02*
X75799190Y-111926690D01*
X75870619Y-111974309D01*
X75918238Y-112021928D01*
X75942047Y-112069547D01*
X75846809Y-111593357D02*
X75823000Y-111569547D01*
X75799190Y-111521928D01*
X75799190Y-111402880D01*
X75823000Y-111355261D01*
X75846809Y-111331452D01*
X75894428Y-111307642D01*
X75942047Y-111307642D01*
X76013476Y-111331452D01*
X76299190Y-111617166D01*
X76299190Y-111307642D01*
%TO.C,U10*%
X76032190Y-96873047D02*
X76532190Y-96539714D01*
X76032190Y-96539714D02*
X76532190Y-96873047D01*
X76484571Y-96063523D02*
X76508380Y-96087333D01*
X76532190Y-96158761D01*
X76532190Y-96206380D01*
X76508380Y-96277809D01*
X76460761Y-96325428D01*
X76413142Y-96349238D01*
X76317904Y-96373047D01*
X76246476Y-96373047D01*
X76151238Y-96349238D01*
X76103619Y-96325428D01*
X76056000Y-96277809D01*
X76032190Y-96206380D01*
X76032190Y-96158761D01*
X76056000Y-96087333D01*
X76079809Y-96063523D01*
X76032190Y-95634952D02*
X76032190Y-95730190D01*
X76056000Y-95777809D01*
X76079809Y-95801619D01*
X76151238Y-95849238D01*
X76246476Y-95873047D01*
X76436952Y-95873047D01*
X76484571Y-95849238D01*
X76508380Y-95825428D01*
X76532190Y-95777809D01*
X76532190Y-95682571D01*
X76508380Y-95634952D01*
X76484571Y-95611142D01*
X76436952Y-95587333D01*
X76317904Y-95587333D01*
X76270285Y-95611142D01*
X76246476Y-95634952D01*
X76222666Y-95682571D01*
X76222666Y-95777809D01*
X76246476Y-95825428D01*
X76270285Y-95849238D01*
X76317904Y-95873047D01*
X76079809Y-95396857D02*
X76056000Y-95373047D01*
X76032190Y-95325428D01*
X76032190Y-95206380D01*
X76056000Y-95158761D01*
X76079809Y-95134952D01*
X76127428Y-95111142D01*
X76175047Y-95111142D01*
X76246476Y-95134952D01*
X76532190Y-95420666D01*
X76532190Y-95111142D01*
X76032190Y-94801619D02*
X76032190Y-94754000D01*
X76056000Y-94706380D01*
X76079809Y-94682571D01*
X76127428Y-94658761D01*
X76222666Y-94634952D01*
X76341714Y-94634952D01*
X76436952Y-94658761D01*
X76484571Y-94682571D01*
X76508380Y-94706380D01*
X76532190Y-94754000D01*
X76532190Y-94801619D01*
X76508380Y-94849238D01*
X76484571Y-94873047D01*
X76436952Y-94896857D01*
X76341714Y-94920666D01*
X76222666Y-94920666D01*
X76127428Y-94896857D01*
X76079809Y-94873047D01*
X76056000Y-94849238D01*
X76032190Y-94801619D01*
X76532190Y-94396857D02*
X76532190Y-94301619D01*
X76508380Y-94254000D01*
X76484571Y-94230190D01*
X76413142Y-94182571D01*
X76317904Y-94158761D01*
X76127428Y-94158761D01*
X76079809Y-94182571D01*
X76056000Y-94206380D01*
X76032190Y-94254000D01*
X76032190Y-94349238D01*
X76056000Y-94396857D01*
X76079809Y-94420666D01*
X76127428Y-94444476D01*
X76246476Y-94444476D01*
X76294095Y-94420666D01*
X76317904Y-94396857D01*
X76341714Y-94349238D01*
X76341714Y-94254000D01*
X76317904Y-94206380D01*
X76294095Y-94182571D01*
X76246476Y-94158761D01*
X72786952Y-95230190D02*
X72786952Y-95634952D01*
X72810761Y-95682571D01*
X72834571Y-95706380D01*
X72882190Y-95730190D01*
X72977428Y-95730190D01*
X73025047Y-95706380D01*
X73048857Y-95682571D01*
X73072666Y-95634952D01*
X73072666Y-95230190D01*
X73572666Y-95730190D02*
X73286952Y-95730190D01*
X73429809Y-95730190D02*
X73429809Y-95230190D01*
X73382190Y-95301619D01*
X73334571Y-95349238D01*
X73286952Y-95373047D01*
X73882190Y-95230190D02*
X73929809Y-95230190D01*
X73977428Y-95254000D01*
X74001238Y-95277809D01*
X74025047Y-95325428D01*
X74048857Y-95420666D01*
X74048857Y-95539714D01*
X74025047Y-95634952D01*
X74001238Y-95682571D01*
X73977428Y-95706380D01*
X73929809Y-95730190D01*
X73882190Y-95730190D01*
X73834571Y-95706380D01*
X73810761Y-95682571D01*
X73786952Y-95634952D01*
X73763142Y-95539714D01*
X73763142Y-95420666D01*
X73786952Y-95325428D01*
X73810761Y-95277809D01*
X73834571Y-95254000D01*
X73882190Y-95230190D01*
%TO.C,R22*%
X61549390Y-100853857D02*
X61549390Y-101139571D01*
X61549390Y-100996714D02*
X61049390Y-100996714D01*
X61120819Y-101044333D01*
X61168438Y-101091952D01*
X61192247Y-101139571D01*
X61549390Y-100639571D02*
X61049390Y-100639571D01*
X61406533Y-100472904D01*
X61049390Y-100306238D01*
X61549390Y-100306238D01*
X60119390Y-101032428D02*
X59881295Y-101199095D01*
X60119390Y-101318142D02*
X59619390Y-101318142D01*
X59619390Y-101127666D01*
X59643200Y-101080047D01*
X59667009Y-101056238D01*
X59714628Y-101032428D01*
X59786057Y-101032428D01*
X59833676Y-101056238D01*
X59857485Y-101080047D01*
X59881295Y-101127666D01*
X59881295Y-101318142D01*
X59667009Y-100841952D02*
X59643200Y-100818142D01*
X59619390Y-100770523D01*
X59619390Y-100651476D01*
X59643200Y-100603857D01*
X59667009Y-100580047D01*
X59714628Y-100556238D01*
X59762247Y-100556238D01*
X59833676Y-100580047D01*
X60119390Y-100865761D01*
X60119390Y-100556238D01*
X59667009Y-100365761D02*
X59643200Y-100341952D01*
X59619390Y-100294333D01*
X59619390Y-100175285D01*
X59643200Y-100127666D01*
X59667009Y-100103857D01*
X59714628Y-100080047D01*
X59762247Y-100080047D01*
X59833676Y-100103857D01*
X60119390Y-100389571D01*
X60119390Y-100080047D01*
%TO.C,R21*%
X60340390Y-100983119D02*
X60340390Y-101268833D01*
X60340390Y-101125976D02*
X59840390Y-101125976D01*
X59911819Y-101173595D01*
X59959438Y-101221214D01*
X59983247Y-101268833D01*
X59840390Y-100673595D02*
X59840390Y-100625976D01*
X59864200Y-100578357D01*
X59888009Y-100554547D01*
X59935628Y-100530738D01*
X60030866Y-100506928D01*
X60149914Y-100506928D01*
X60245152Y-100530738D01*
X60292771Y-100554547D01*
X60316580Y-100578357D01*
X60340390Y-100625976D01*
X60340390Y-100673595D01*
X60316580Y-100721214D01*
X60292771Y-100745023D01*
X60245152Y-100768833D01*
X60149914Y-100792642D01*
X60030866Y-100792642D01*
X59935628Y-100768833D01*
X59888009Y-100745023D01*
X59864200Y-100721214D01*
X59840390Y-100673595D01*
X60340390Y-100292642D02*
X59840390Y-100292642D01*
X60149914Y-100245023D02*
X60340390Y-100102166D01*
X60007057Y-100102166D02*
X60197533Y-100292642D01*
X61770390Y-101006928D02*
X61532295Y-101173595D01*
X61770390Y-101292642D02*
X61270390Y-101292642D01*
X61270390Y-101102166D01*
X61294200Y-101054547D01*
X61318009Y-101030738D01*
X61365628Y-101006928D01*
X61437057Y-101006928D01*
X61484676Y-101030738D01*
X61508485Y-101054547D01*
X61532295Y-101102166D01*
X61532295Y-101292642D01*
X61318009Y-100816452D02*
X61294200Y-100792642D01*
X61270390Y-100745023D01*
X61270390Y-100625976D01*
X61294200Y-100578357D01*
X61318009Y-100554547D01*
X61365628Y-100530738D01*
X61413247Y-100530738D01*
X61484676Y-100554547D01*
X61770390Y-100840261D01*
X61770390Y-100530738D01*
X61770390Y-100054547D02*
X61770390Y-100340261D01*
X61770390Y-100197404D02*
X61270390Y-100197404D01*
X61341819Y-100245023D01*
X61389438Y-100292642D01*
X61413247Y-100340261D01*
%TO.C,R20*%
X67294609Y-96660400D02*
X67270800Y-96636590D01*
X67246990Y-96588971D01*
X67246990Y-96469923D01*
X67270800Y-96422304D01*
X67294609Y-96398495D01*
X67342228Y-96374685D01*
X67389847Y-96374685D01*
X67461276Y-96398495D01*
X67746990Y-96684209D01*
X67746990Y-96374685D01*
X67699371Y-96160400D02*
X67723180Y-96136590D01*
X67746990Y-96160400D01*
X67723180Y-96184209D01*
X67699371Y-96160400D01*
X67746990Y-96160400D01*
X67294609Y-95946114D02*
X67270800Y-95922304D01*
X67246990Y-95874685D01*
X67246990Y-95755638D01*
X67270800Y-95708019D01*
X67294609Y-95684209D01*
X67342228Y-95660400D01*
X67389847Y-95660400D01*
X67461276Y-95684209D01*
X67746990Y-95969923D01*
X67746990Y-95660400D01*
X67746990Y-95446114D02*
X67246990Y-95446114D01*
X67746990Y-95160400D02*
X67461276Y-95374685D01*
X67246990Y-95160400D02*
X67532704Y-95446114D01*
X66316990Y-96231828D02*
X66078895Y-96398495D01*
X66316990Y-96517542D02*
X65816990Y-96517542D01*
X65816990Y-96327066D01*
X65840800Y-96279447D01*
X65864609Y-96255638D01*
X65912228Y-96231828D01*
X65983657Y-96231828D01*
X66031276Y-96255638D01*
X66055085Y-96279447D01*
X66078895Y-96327066D01*
X66078895Y-96517542D01*
X65864609Y-96041352D02*
X65840800Y-96017542D01*
X65816990Y-95969923D01*
X65816990Y-95850876D01*
X65840800Y-95803257D01*
X65864609Y-95779447D01*
X65912228Y-95755638D01*
X65959847Y-95755638D01*
X66031276Y-95779447D01*
X66316990Y-96065161D01*
X66316990Y-95755638D01*
X65816990Y-95446114D02*
X65816990Y-95398495D01*
X65840800Y-95350876D01*
X65864609Y-95327066D01*
X65912228Y-95303257D01*
X66007466Y-95279447D01*
X66126514Y-95279447D01*
X66221752Y-95303257D01*
X66269371Y-95327066D01*
X66293180Y-95350876D01*
X66316990Y-95398495D01*
X66316990Y-95446114D01*
X66293180Y-95493733D01*
X66269371Y-95517542D01*
X66221752Y-95541352D01*
X66126514Y-95565161D01*
X66007466Y-95565161D01*
X65912228Y-95541352D01*
X65864609Y-95517542D01*
X65840800Y-95493733D01*
X65816990Y-95446114D01*
%TO.C,C19*%
X68582357Y-92342190D02*
X68629976Y-92342190D01*
X68677595Y-92366000D01*
X68701404Y-92389809D01*
X68725214Y-92437428D01*
X68749023Y-92532666D01*
X68749023Y-92651714D01*
X68725214Y-92746952D01*
X68701404Y-92794571D01*
X68677595Y-92818380D01*
X68629976Y-92842190D01*
X68582357Y-92842190D01*
X68534738Y-92818380D01*
X68510928Y-92794571D01*
X68487119Y-92746952D01*
X68463309Y-92651714D01*
X68463309Y-92532666D01*
X68487119Y-92437428D01*
X68510928Y-92389809D01*
X68534738Y-92366000D01*
X68582357Y-92342190D01*
X68963309Y-92794571D02*
X68987119Y-92818380D01*
X68963309Y-92842190D01*
X68939500Y-92818380D01*
X68963309Y-92794571D01*
X68963309Y-92842190D01*
X69463309Y-92842190D02*
X69177595Y-92842190D01*
X69320452Y-92842190D02*
X69320452Y-92342190D01*
X69272833Y-92413619D01*
X69225214Y-92461238D01*
X69177595Y-92485047D01*
X69891880Y-92508857D02*
X69891880Y-92842190D01*
X69677595Y-92508857D02*
X69677595Y-92770761D01*
X69701404Y-92818380D01*
X69749023Y-92842190D01*
X69820452Y-92842190D01*
X69868071Y-92818380D01*
X69891880Y-92794571D01*
X68868071Y-91364571D02*
X68844261Y-91388380D01*
X68772833Y-91412190D01*
X68725214Y-91412190D01*
X68653785Y-91388380D01*
X68606166Y-91340761D01*
X68582357Y-91293142D01*
X68558547Y-91197904D01*
X68558547Y-91126476D01*
X68582357Y-91031238D01*
X68606166Y-90983619D01*
X68653785Y-90936000D01*
X68725214Y-90912190D01*
X68772833Y-90912190D01*
X68844261Y-90936000D01*
X68868071Y-90959809D01*
X69344261Y-91412190D02*
X69058547Y-91412190D01*
X69201404Y-91412190D02*
X69201404Y-90912190D01*
X69153785Y-90983619D01*
X69106166Y-91031238D01*
X69058547Y-91055047D01*
X69582357Y-91412190D02*
X69677595Y-91412190D01*
X69725214Y-91388380D01*
X69749023Y-91364571D01*
X69796642Y-91293142D01*
X69820452Y-91197904D01*
X69820452Y-91007428D01*
X69796642Y-90959809D01*
X69772833Y-90936000D01*
X69725214Y-90912190D01*
X69629976Y-90912190D01*
X69582357Y-90936000D01*
X69558547Y-90959809D01*
X69534738Y-91007428D01*
X69534738Y-91126476D01*
X69558547Y-91174095D01*
X69582357Y-91197904D01*
X69629976Y-91221714D01*
X69725214Y-91221714D01*
X69772833Y-91197904D01*
X69796642Y-91174095D01*
X69820452Y-91126476D01*
%TO.C,C18*%
X73281457Y-92342190D02*
X73329076Y-92342190D01*
X73376695Y-92366000D01*
X73400504Y-92389809D01*
X73424314Y-92437428D01*
X73448123Y-92532666D01*
X73448123Y-92651714D01*
X73424314Y-92746952D01*
X73400504Y-92794571D01*
X73376695Y-92818380D01*
X73329076Y-92842190D01*
X73281457Y-92842190D01*
X73233838Y-92818380D01*
X73210028Y-92794571D01*
X73186219Y-92746952D01*
X73162409Y-92651714D01*
X73162409Y-92532666D01*
X73186219Y-92437428D01*
X73210028Y-92389809D01*
X73233838Y-92366000D01*
X73281457Y-92342190D01*
X73662409Y-92794571D02*
X73686219Y-92818380D01*
X73662409Y-92842190D01*
X73638600Y-92818380D01*
X73662409Y-92794571D01*
X73662409Y-92842190D01*
X74162409Y-92842190D02*
X73876695Y-92842190D01*
X74019552Y-92842190D02*
X74019552Y-92342190D01*
X73971933Y-92413619D01*
X73924314Y-92461238D01*
X73876695Y-92485047D01*
X74590980Y-92508857D02*
X74590980Y-92842190D01*
X74376695Y-92508857D02*
X74376695Y-92770761D01*
X74400504Y-92818380D01*
X74448123Y-92842190D01*
X74519552Y-92842190D01*
X74567171Y-92818380D01*
X74590980Y-92794571D01*
X73567171Y-91364571D02*
X73543361Y-91388380D01*
X73471933Y-91412190D01*
X73424314Y-91412190D01*
X73352885Y-91388380D01*
X73305266Y-91340761D01*
X73281457Y-91293142D01*
X73257647Y-91197904D01*
X73257647Y-91126476D01*
X73281457Y-91031238D01*
X73305266Y-90983619D01*
X73352885Y-90936000D01*
X73424314Y-90912190D01*
X73471933Y-90912190D01*
X73543361Y-90936000D01*
X73567171Y-90959809D01*
X74043361Y-91412190D02*
X73757647Y-91412190D01*
X73900504Y-91412190D02*
X73900504Y-90912190D01*
X73852885Y-90983619D01*
X73805266Y-91031238D01*
X73757647Y-91055047D01*
X74329076Y-91126476D02*
X74281457Y-91102666D01*
X74257647Y-91078857D01*
X74233838Y-91031238D01*
X74233838Y-91007428D01*
X74257647Y-90959809D01*
X74281457Y-90936000D01*
X74329076Y-90912190D01*
X74424314Y-90912190D01*
X74471933Y-90936000D01*
X74495742Y-90959809D01*
X74519552Y-91007428D01*
X74519552Y-91031238D01*
X74495742Y-91078857D01*
X74471933Y-91102666D01*
X74424314Y-91126476D01*
X74329076Y-91126476D01*
X74281457Y-91150285D01*
X74257647Y-91174095D01*
X74233838Y-91221714D01*
X74233838Y-91316952D01*
X74257647Y-91364571D01*
X74281457Y-91388380D01*
X74329076Y-91412190D01*
X74424314Y-91412190D01*
X74471933Y-91388380D01*
X74495742Y-91364571D01*
X74519552Y-91316952D01*
X74519552Y-91221714D01*
X74495742Y-91174095D01*
X74471933Y-91150285D01*
X74424314Y-91126476D01*
%TO.C,C17*%
X68701404Y-94096357D02*
X68701404Y-94429690D01*
X68582357Y-93905880D02*
X68463309Y-94263023D01*
X68772833Y-94263023D01*
X68963309Y-94382071D02*
X68987119Y-94405880D01*
X68963309Y-94429690D01*
X68939500Y-94405880D01*
X68963309Y-94382071D01*
X68963309Y-94429690D01*
X69153785Y-93929690D02*
X69487119Y-93929690D01*
X69272833Y-94429690D01*
X69891880Y-94096357D02*
X69891880Y-94429690D01*
X69677595Y-94096357D02*
X69677595Y-94358261D01*
X69701404Y-94405880D01*
X69749023Y-94429690D01*
X69820452Y-94429690D01*
X69868071Y-94405880D01*
X69891880Y-94382071D01*
X68868071Y-92952071D02*
X68844261Y-92975880D01*
X68772833Y-92999690D01*
X68725214Y-92999690D01*
X68653785Y-92975880D01*
X68606166Y-92928261D01*
X68582357Y-92880642D01*
X68558547Y-92785404D01*
X68558547Y-92713976D01*
X68582357Y-92618738D01*
X68606166Y-92571119D01*
X68653785Y-92523500D01*
X68725214Y-92499690D01*
X68772833Y-92499690D01*
X68844261Y-92523500D01*
X68868071Y-92547309D01*
X69344261Y-92999690D02*
X69058547Y-92999690D01*
X69201404Y-92999690D02*
X69201404Y-92499690D01*
X69153785Y-92571119D01*
X69106166Y-92618738D01*
X69058547Y-92642547D01*
X69510928Y-92499690D02*
X69844261Y-92499690D01*
X69629976Y-92999690D01*
%TO.C,C16*%
X73400504Y-94096357D02*
X73400504Y-94429690D01*
X73281457Y-93905880D02*
X73162409Y-94263023D01*
X73471933Y-94263023D01*
X73662409Y-94382071D02*
X73686219Y-94405880D01*
X73662409Y-94429690D01*
X73638600Y-94405880D01*
X73662409Y-94382071D01*
X73662409Y-94429690D01*
X73852885Y-93929690D02*
X74186219Y-93929690D01*
X73971933Y-94429690D01*
X74590980Y-94096357D02*
X74590980Y-94429690D01*
X74376695Y-94096357D02*
X74376695Y-94358261D01*
X74400504Y-94405880D01*
X74448123Y-94429690D01*
X74519552Y-94429690D01*
X74567171Y-94405880D01*
X74590980Y-94382071D01*
X73567171Y-92952071D02*
X73543361Y-92975880D01*
X73471933Y-92999690D01*
X73424314Y-92999690D01*
X73352885Y-92975880D01*
X73305266Y-92928261D01*
X73281457Y-92880642D01*
X73257647Y-92785404D01*
X73257647Y-92713976D01*
X73281457Y-92618738D01*
X73305266Y-92571119D01*
X73352885Y-92523500D01*
X73424314Y-92499690D01*
X73471933Y-92499690D01*
X73543361Y-92523500D01*
X73567171Y-92547309D01*
X74043361Y-92999690D02*
X73757647Y-92999690D01*
X73900504Y-92999690D02*
X73900504Y-92499690D01*
X73852885Y-92571119D01*
X73805266Y-92618738D01*
X73757647Y-92642547D01*
X74471933Y-92499690D02*
X74376695Y-92499690D01*
X74329076Y-92523500D01*
X74305266Y-92547309D01*
X74257647Y-92618738D01*
X74233838Y-92713976D01*
X74233838Y-92904452D01*
X74257647Y-92952071D01*
X74281457Y-92975880D01*
X74329076Y-92999690D01*
X74424314Y-92999690D01*
X74471933Y-92975880D01*
X74495742Y-92952071D01*
X74519552Y-92904452D01*
X74519552Y-92785404D01*
X74495742Y-92737785D01*
X74471933Y-92713976D01*
X74424314Y-92690166D01*
X74329076Y-92690166D01*
X74281457Y-92713976D01*
X74257647Y-92737785D01*
X74233838Y-92785404D01*
%TO.C,C15*%
X68480857Y-99403390D02*
X68528476Y-99403390D01*
X68576095Y-99427200D01*
X68599904Y-99451009D01*
X68623714Y-99498628D01*
X68647523Y-99593866D01*
X68647523Y-99712914D01*
X68623714Y-99808152D01*
X68599904Y-99855771D01*
X68576095Y-99879580D01*
X68528476Y-99903390D01*
X68480857Y-99903390D01*
X68433238Y-99879580D01*
X68409428Y-99855771D01*
X68385619Y-99808152D01*
X68361809Y-99712914D01*
X68361809Y-99593866D01*
X68385619Y-99498628D01*
X68409428Y-99451009D01*
X68433238Y-99427200D01*
X68480857Y-99403390D01*
X68861809Y-99855771D02*
X68885619Y-99879580D01*
X68861809Y-99903390D01*
X68838000Y-99879580D01*
X68861809Y-99855771D01*
X68861809Y-99903390D01*
X69361809Y-99903390D02*
X69076095Y-99903390D01*
X69218952Y-99903390D02*
X69218952Y-99403390D01*
X69171333Y-99474819D01*
X69123714Y-99522438D01*
X69076095Y-99546247D01*
X69790380Y-99570057D02*
X69790380Y-99903390D01*
X69576095Y-99570057D02*
X69576095Y-99831961D01*
X69599904Y-99879580D01*
X69647523Y-99903390D01*
X69718952Y-99903390D01*
X69766571Y-99879580D01*
X69790380Y-99855771D01*
X68766571Y-98425771D02*
X68742761Y-98449580D01*
X68671333Y-98473390D01*
X68623714Y-98473390D01*
X68552285Y-98449580D01*
X68504666Y-98401961D01*
X68480857Y-98354342D01*
X68457047Y-98259104D01*
X68457047Y-98187676D01*
X68480857Y-98092438D01*
X68504666Y-98044819D01*
X68552285Y-97997200D01*
X68623714Y-97973390D01*
X68671333Y-97973390D01*
X68742761Y-97997200D01*
X68766571Y-98021009D01*
X69242761Y-98473390D02*
X68957047Y-98473390D01*
X69099904Y-98473390D02*
X69099904Y-97973390D01*
X69052285Y-98044819D01*
X69004666Y-98092438D01*
X68957047Y-98116247D01*
X69695142Y-97973390D02*
X69457047Y-97973390D01*
X69433238Y-98211485D01*
X69457047Y-98187676D01*
X69504666Y-98163866D01*
X69623714Y-98163866D01*
X69671333Y-98187676D01*
X69695142Y-98211485D01*
X69718952Y-98259104D01*
X69718952Y-98378152D01*
X69695142Y-98425771D01*
X69671333Y-98449580D01*
X69623714Y-98473390D01*
X69504666Y-98473390D01*
X69457047Y-98449580D01*
X69433238Y-98425771D01*
%TO.C,C14*%
X73103657Y-99403390D02*
X73151276Y-99403390D01*
X73198895Y-99427200D01*
X73222704Y-99451009D01*
X73246514Y-99498628D01*
X73270323Y-99593866D01*
X73270323Y-99712914D01*
X73246514Y-99808152D01*
X73222704Y-99855771D01*
X73198895Y-99879580D01*
X73151276Y-99903390D01*
X73103657Y-99903390D01*
X73056038Y-99879580D01*
X73032228Y-99855771D01*
X73008419Y-99808152D01*
X72984609Y-99712914D01*
X72984609Y-99593866D01*
X73008419Y-99498628D01*
X73032228Y-99451009D01*
X73056038Y-99427200D01*
X73103657Y-99403390D01*
X73484609Y-99855771D02*
X73508419Y-99879580D01*
X73484609Y-99903390D01*
X73460800Y-99879580D01*
X73484609Y-99855771D01*
X73484609Y-99903390D01*
X73984609Y-99903390D02*
X73698895Y-99903390D01*
X73841752Y-99903390D02*
X73841752Y-99403390D01*
X73794133Y-99474819D01*
X73746514Y-99522438D01*
X73698895Y-99546247D01*
X74413180Y-99570057D02*
X74413180Y-99903390D01*
X74198895Y-99570057D02*
X74198895Y-99831961D01*
X74222704Y-99879580D01*
X74270323Y-99903390D01*
X74341752Y-99903390D01*
X74389371Y-99879580D01*
X74413180Y-99855771D01*
X73389371Y-98425771D02*
X73365561Y-98449580D01*
X73294133Y-98473390D01*
X73246514Y-98473390D01*
X73175085Y-98449580D01*
X73127466Y-98401961D01*
X73103657Y-98354342D01*
X73079847Y-98259104D01*
X73079847Y-98187676D01*
X73103657Y-98092438D01*
X73127466Y-98044819D01*
X73175085Y-97997200D01*
X73246514Y-97973390D01*
X73294133Y-97973390D01*
X73365561Y-97997200D01*
X73389371Y-98021009D01*
X73865561Y-98473390D02*
X73579847Y-98473390D01*
X73722704Y-98473390D02*
X73722704Y-97973390D01*
X73675085Y-98044819D01*
X73627466Y-98092438D01*
X73579847Y-98116247D01*
X74294133Y-98140057D02*
X74294133Y-98473390D01*
X74175085Y-97949580D02*
X74056038Y-98306723D01*
X74365561Y-98306723D01*
%TO.C,C6*%
X67715676Y-102223790D02*
X67429961Y-102223790D01*
X67572819Y-102223790D02*
X67572819Y-101723790D01*
X67525200Y-101795219D01*
X67477580Y-101842838D01*
X67429961Y-101866647D01*
X68025200Y-101723790D02*
X68072819Y-101723790D01*
X68120438Y-101747600D01*
X68144247Y-101771409D01*
X68168057Y-101819028D01*
X68191866Y-101914266D01*
X68191866Y-102033314D01*
X68168057Y-102128552D01*
X68144247Y-102176171D01*
X68120438Y-102199980D01*
X68072819Y-102223790D01*
X68025200Y-102223790D01*
X67977580Y-102199980D01*
X67953771Y-102176171D01*
X67929961Y-102128552D01*
X67906152Y-102033314D01*
X67906152Y-101914266D01*
X67929961Y-101819028D01*
X67953771Y-101771409D01*
X67977580Y-101747600D01*
X68025200Y-101723790D01*
X68501390Y-101723790D02*
X68549009Y-101723790D01*
X68596628Y-101747600D01*
X68620438Y-101771409D01*
X68644247Y-101819028D01*
X68668057Y-101914266D01*
X68668057Y-102033314D01*
X68644247Y-102128552D01*
X68620438Y-102176171D01*
X68596628Y-102199980D01*
X68549009Y-102223790D01*
X68501390Y-102223790D01*
X68453771Y-102199980D01*
X68429961Y-102176171D01*
X68406152Y-102128552D01*
X68382342Y-102033314D01*
X68382342Y-101914266D01*
X68406152Y-101819028D01*
X68429961Y-101771409D01*
X68453771Y-101747600D01*
X68501390Y-101723790D01*
X69096628Y-101890457D02*
X69096628Y-102223790D01*
X68882342Y-101890457D02*
X68882342Y-102152361D01*
X68906152Y-102199980D01*
X68953771Y-102223790D01*
X69025200Y-102223790D01*
X69072819Y-102199980D01*
X69096628Y-102176171D01*
X68191866Y-100356171D02*
X68168057Y-100379980D01*
X68096628Y-100403790D01*
X68049009Y-100403790D01*
X67977580Y-100379980D01*
X67929961Y-100332361D01*
X67906152Y-100284742D01*
X67882342Y-100189504D01*
X67882342Y-100118076D01*
X67906152Y-100022838D01*
X67929961Y-99975219D01*
X67977580Y-99927600D01*
X68049009Y-99903790D01*
X68096628Y-99903790D01*
X68168057Y-99927600D01*
X68191866Y-99951409D01*
X68620438Y-99903790D02*
X68525200Y-99903790D01*
X68477580Y-99927600D01*
X68453771Y-99951409D01*
X68406152Y-100022838D01*
X68382342Y-100118076D01*
X68382342Y-100308552D01*
X68406152Y-100356171D01*
X68429961Y-100379980D01*
X68477580Y-100403790D01*
X68572819Y-100403790D01*
X68620438Y-100379980D01*
X68644247Y-100356171D01*
X68668057Y-100308552D01*
X68668057Y-100189504D01*
X68644247Y-100141885D01*
X68620438Y-100118076D01*
X68572819Y-100094266D01*
X68477580Y-100094266D01*
X68429961Y-100118076D01*
X68406152Y-100141885D01*
X68382342Y-100189504D01*
%TO.C,C5*%
X72386276Y-100645090D02*
X72100561Y-100645090D01*
X72243419Y-100645090D02*
X72243419Y-100145090D01*
X72195800Y-100216519D01*
X72148180Y-100264138D01*
X72100561Y-100287947D01*
X72695800Y-100145090D02*
X72743419Y-100145090D01*
X72791038Y-100168900D01*
X72814847Y-100192709D01*
X72838657Y-100240328D01*
X72862466Y-100335566D01*
X72862466Y-100454614D01*
X72838657Y-100549852D01*
X72814847Y-100597471D01*
X72791038Y-100621280D01*
X72743419Y-100645090D01*
X72695800Y-100645090D01*
X72648180Y-100621280D01*
X72624371Y-100597471D01*
X72600561Y-100549852D01*
X72576752Y-100454614D01*
X72576752Y-100335566D01*
X72600561Y-100240328D01*
X72624371Y-100192709D01*
X72648180Y-100168900D01*
X72695800Y-100145090D01*
X73171990Y-100145090D02*
X73219609Y-100145090D01*
X73267228Y-100168900D01*
X73291038Y-100192709D01*
X73314847Y-100240328D01*
X73338657Y-100335566D01*
X73338657Y-100454614D01*
X73314847Y-100549852D01*
X73291038Y-100597471D01*
X73267228Y-100621280D01*
X73219609Y-100645090D01*
X73171990Y-100645090D01*
X73124371Y-100621280D01*
X73100561Y-100597471D01*
X73076752Y-100549852D01*
X73052942Y-100454614D01*
X73052942Y-100335566D01*
X73076752Y-100240328D01*
X73100561Y-100192709D01*
X73124371Y-100168900D01*
X73171990Y-100145090D01*
X73767228Y-100311757D02*
X73767228Y-100645090D01*
X73552942Y-100311757D02*
X73552942Y-100573661D01*
X73576752Y-100621280D01*
X73624371Y-100645090D01*
X73695800Y-100645090D01*
X73743419Y-100621280D01*
X73767228Y-100597471D01*
X72837066Y-100356171D02*
X72813257Y-100379980D01*
X72741828Y-100403790D01*
X72694209Y-100403790D01*
X72622780Y-100379980D01*
X72575161Y-100332361D01*
X72551352Y-100284742D01*
X72527542Y-100189504D01*
X72527542Y-100118076D01*
X72551352Y-100022838D01*
X72575161Y-99975219D01*
X72622780Y-99927600D01*
X72694209Y-99903790D01*
X72741828Y-99903790D01*
X72813257Y-99927600D01*
X72837066Y-99951409D01*
X73289447Y-99903790D02*
X73051352Y-99903790D01*
X73027542Y-100141885D01*
X73051352Y-100118076D01*
X73098971Y-100094266D01*
X73218019Y-100094266D01*
X73265638Y-100118076D01*
X73289447Y-100141885D01*
X73313257Y-100189504D01*
X73313257Y-100308552D01*
X73289447Y-100356171D01*
X73265638Y-100379980D01*
X73218019Y-100403790D01*
X73098971Y-100403790D01*
X73051352Y-100379980D01*
X73027542Y-100356171D01*
%TO.C,U2*%
X77781728Y-91010585D02*
X77853157Y-91034395D01*
X77876966Y-91058204D01*
X77900776Y-91105823D01*
X77900776Y-91177252D01*
X77876966Y-91224871D01*
X77853157Y-91248680D01*
X77805538Y-91272490D01*
X77615061Y-91272490D01*
X77615061Y-90772490D01*
X77781728Y-90772490D01*
X77829347Y-90796300D01*
X77853157Y-90820109D01*
X77876966Y-90867728D01*
X77876966Y-90915347D01*
X77853157Y-90962966D01*
X77829347Y-90986776D01*
X77781728Y-91010585D01*
X77615061Y-91010585D01*
X78115061Y-91272490D02*
X78115061Y-90772490D01*
X78281728Y-91129633D01*
X78448395Y-90772490D01*
X78448395Y-91272490D01*
X78662680Y-91129633D02*
X78900776Y-91129633D01*
X78615061Y-91272490D02*
X78781728Y-90772490D01*
X78948395Y-91272490D01*
X79329347Y-90939157D02*
X79329347Y-91272490D01*
X79210300Y-90748680D02*
X79091252Y-91105823D01*
X79400776Y-91105823D01*
X79686490Y-90772490D02*
X79734109Y-90772490D01*
X79781728Y-90796300D01*
X79805538Y-90820109D01*
X79829347Y-90867728D01*
X79853157Y-90962966D01*
X79853157Y-91082014D01*
X79829347Y-91177252D01*
X79805538Y-91224871D01*
X79781728Y-91248680D01*
X79734109Y-91272490D01*
X79686490Y-91272490D01*
X79638871Y-91248680D01*
X79615061Y-91224871D01*
X79591252Y-91177252D01*
X79567442Y-91082014D01*
X79567442Y-90962966D01*
X79591252Y-90867728D01*
X79615061Y-90820109D01*
X79638871Y-90796300D01*
X79686490Y-90772490D01*
X80162680Y-90772490D02*
X80210300Y-90772490D01*
X80257919Y-90796300D01*
X80281728Y-90820109D01*
X80305538Y-90867728D01*
X80329347Y-90962966D01*
X80329347Y-91082014D01*
X80305538Y-91177252D01*
X80281728Y-91224871D01*
X80257919Y-91248680D01*
X80210300Y-91272490D01*
X80162680Y-91272490D01*
X80115061Y-91248680D01*
X80091252Y-91224871D01*
X80067442Y-91177252D01*
X80043633Y-91082014D01*
X80043633Y-90962966D01*
X80067442Y-90867728D01*
X80091252Y-90820109D01*
X80115061Y-90796300D01*
X80162680Y-90772490D01*
X78770990Y-93141752D02*
X79175752Y-93141752D01*
X79223371Y-93117942D01*
X79247180Y-93094133D01*
X79270990Y-93046514D01*
X79270990Y-92951276D01*
X79247180Y-92903657D01*
X79223371Y-92879847D01*
X79175752Y-92856038D01*
X78770990Y-92856038D01*
X78818609Y-92641752D02*
X78794800Y-92617942D01*
X78770990Y-92570323D01*
X78770990Y-92451276D01*
X78794800Y-92403657D01*
X78818609Y-92379847D01*
X78866228Y-92356038D01*
X78913847Y-92356038D01*
X78985276Y-92379847D01*
X79270990Y-92665561D01*
X79270990Y-92356038D01*
%TO.C,U9*%
X69525580Y-102076590D02*
X69811295Y-102076590D01*
X69668438Y-102576590D02*
X69668438Y-102076590D01*
X69977961Y-102576590D02*
X69977961Y-102076590D01*
X70168438Y-102076590D01*
X70216057Y-102100400D01*
X70239866Y-102124209D01*
X70263676Y-102171828D01*
X70263676Y-102243257D01*
X70239866Y-102290876D01*
X70216057Y-102314685D01*
X70168438Y-102338495D01*
X69977961Y-102338495D01*
X70454152Y-102552780D02*
X70525580Y-102576590D01*
X70644628Y-102576590D01*
X70692247Y-102552780D01*
X70716057Y-102528971D01*
X70739866Y-102481352D01*
X70739866Y-102433733D01*
X70716057Y-102386114D01*
X70692247Y-102362304D01*
X70644628Y-102338495D01*
X70549390Y-102314685D01*
X70501771Y-102290876D01*
X70477961Y-102267066D01*
X70454152Y-102219447D01*
X70454152Y-102171828D01*
X70477961Y-102124209D01*
X70501771Y-102100400D01*
X70549390Y-102076590D01*
X70668438Y-102076590D01*
X70739866Y-102100400D01*
X70930342Y-102124209D02*
X70954152Y-102100400D01*
X71001771Y-102076590D01*
X71120819Y-102076590D01*
X71168438Y-102100400D01*
X71192247Y-102124209D01*
X71216057Y-102171828D01*
X71216057Y-102219447D01*
X71192247Y-102290876D01*
X70906533Y-102576590D01*
X71216057Y-102576590D01*
X71692247Y-102576590D02*
X71406533Y-102576590D01*
X71549390Y-102576590D02*
X71549390Y-102076590D01*
X71501771Y-102148019D01*
X71454152Y-102195638D01*
X71406533Y-102219447D01*
X72168438Y-102576590D02*
X71882723Y-102576590D01*
X72025580Y-102576590D02*
X72025580Y-102076590D01*
X71977961Y-102148019D01*
X71930342Y-102195638D01*
X71882723Y-102219447D01*
X72620819Y-102076590D02*
X72382723Y-102076590D01*
X72358914Y-102314685D01*
X72382723Y-102290876D01*
X72430342Y-102267066D01*
X72549390Y-102267066D01*
X72597009Y-102290876D01*
X72620819Y-102314685D01*
X72644628Y-102362304D01*
X72644628Y-102481352D01*
X72620819Y-102528971D01*
X72597009Y-102552780D01*
X72549390Y-102576590D01*
X72430342Y-102576590D01*
X72382723Y-102552780D01*
X72358914Y-102528971D01*
X72835104Y-102433733D02*
X73073200Y-102433733D01*
X72787485Y-102576590D02*
X72954152Y-102076590D01*
X73120819Y-102576590D01*
X70942247Y-104526590D02*
X70942247Y-104931352D01*
X70966057Y-104978971D01*
X70989866Y-105002780D01*
X71037485Y-105026590D01*
X71132723Y-105026590D01*
X71180342Y-105002780D01*
X71204152Y-104978971D01*
X71227961Y-104931352D01*
X71227961Y-104526590D01*
X71489866Y-105026590D02*
X71585104Y-105026590D01*
X71632723Y-105002780D01*
X71656533Y-104978971D01*
X71704152Y-104907542D01*
X71727961Y-104812304D01*
X71727961Y-104621828D01*
X71704152Y-104574209D01*
X71680342Y-104550400D01*
X71632723Y-104526590D01*
X71537485Y-104526590D01*
X71489866Y-104550400D01*
X71466057Y-104574209D01*
X71442247Y-104621828D01*
X71442247Y-104740876D01*
X71466057Y-104788495D01*
X71489866Y-104812304D01*
X71537485Y-104836114D01*
X71632723Y-104836114D01*
X71680342Y-104812304D01*
X71704152Y-104788495D01*
X71727961Y-104740876D01*
%TO.C,R19*%
X72960800Y-101996109D02*
X72984609Y-101972300D01*
X73032228Y-101948490D01*
X73151276Y-101948490D01*
X73198895Y-101972300D01*
X73222704Y-101996109D01*
X73246514Y-102043728D01*
X73246514Y-102091347D01*
X73222704Y-102162776D01*
X72936990Y-102448490D01*
X73246514Y-102448490D01*
X73460800Y-102400871D02*
X73484609Y-102424680D01*
X73460800Y-102448490D01*
X73436990Y-102424680D01*
X73460800Y-102400871D01*
X73460800Y-102448490D01*
X73675085Y-101996109D02*
X73698895Y-101972300D01*
X73746514Y-101948490D01*
X73865561Y-101948490D01*
X73913180Y-101972300D01*
X73936990Y-101996109D01*
X73960800Y-102043728D01*
X73960800Y-102091347D01*
X73936990Y-102162776D01*
X73651276Y-102448490D01*
X73960800Y-102448490D01*
X74175085Y-102448490D02*
X74175085Y-101948490D01*
X74460800Y-102448490D02*
X74246514Y-102162776D01*
X74460800Y-101948490D02*
X74175085Y-102234204D01*
X73389371Y-102384990D02*
X73222704Y-102146895D01*
X73103657Y-102384990D02*
X73103657Y-101884990D01*
X73294133Y-101884990D01*
X73341752Y-101908800D01*
X73365561Y-101932609D01*
X73389371Y-101980228D01*
X73389371Y-102051657D01*
X73365561Y-102099276D01*
X73341752Y-102123085D01*
X73294133Y-102146895D01*
X73103657Y-102146895D01*
X73865561Y-102384990D02*
X73579847Y-102384990D01*
X73722704Y-102384990D02*
X73722704Y-101884990D01*
X73675085Y-101956419D01*
X73627466Y-102004038D01*
X73579847Y-102027847D01*
X74103657Y-102384990D02*
X74198895Y-102384990D01*
X74246514Y-102361180D01*
X74270323Y-102337371D01*
X74317942Y-102265942D01*
X74341752Y-102170704D01*
X74341752Y-101980228D01*
X74317942Y-101932609D01*
X74294133Y-101908800D01*
X74246514Y-101884990D01*
X74151276Y-101884990D01*
X74103657Y-101908800D01*
X74079847Y-101932609D01*
X74056038Y-101980228D01*
X74056038Y-102099276D01*
X74079847Y-102146895D01*
X74103657Y-102170704D01*
X74151276Y-102194514D01*
X74246514Y-102194514D01*
X74294133Y-102170704D01*
X74317942Y-102146895D01*
X74341752Y-102099276D01*
%TO.C,C13*%
X77813390Y-91488342D02*
X77813390Y-91440723D01*
X77837200Y-91393104D01*
X77861009Y-91369295D01*
X77908628Y-91345485D01*
X78003866Y-91321676D01*
X78122914Y-91321676D01*
X78218152Y-91345485D01*
X78265771Y-91369295D01*
X78289580Y-91393104D01*
X78313390Y-91440723D01*
X78313390Y-91488342D01*
X78289580Y-91535961D01*
X78265771Y-91559771D01*
X78218152Y-91583580D01*
X78122914Y-91607390D01*
X78003866Y-91607390D01*
X77908628Y-91583580D01*
X77861009Y-91559771D01*
X77837200Y-91535961D01*
X77813390Y-91488342D01*
X78265771Y-91107390D02*
X78289580Y-91083580D01*
X78313390Y-91107390D01*
X78289580Y-91131200D01*
X78265771Y-91107390D01*
X78313390Y-91107390D01*
X78313390Y-90607390D02*
X78313390Y-90893104D01*
X78313390Y-90750247D02*
X77813390Y-90750247D01*
X77884819Y-90797866D01*
X77932438Y-90845485D01*
X77956247Y-90893104D01*
X77980057Y-90178819D02*
X78313390Y-90178819D01*
X77980057Y-90393104D02*
X78241961Y-90393104D01*
X78289580Y-90369295D01*
X78313390Y-90321676D01*
X78313390Y-90250247D01*
X78289580Y-90202628D01*
X78265771Y-90178819D01*
X76835771Y-91202628D02*
X76859580Y-91226438D01*
X76883390Y-91297866D01*
X76883390Y-91345485D01*
X76859580Y-91416914D01*
X76811961Y-91464533D01*
X76764342Y-91488342D01*
X76669104Y-91512152D01*
X76597676Y-91512152D01*
X76502438Y-91488342D01*
X76454819Y-91464533D01*
X76407200Y-91416914D01*
X76383390Y-91345485D01*
X76383390Y-91297866D01*
X76407200Y-91226438D01*
X76431009Y-91202628D01*
X76883390Y-90726438D02*
X76883390Y-91012152D01*
X76883390Y-90869295D02*
X76383390Y-90869295D01*
X76454819Y-90916914D01*
X76502438Y-90964533D01*
X76526247Y-91012152D01*
X76383390Y-90559771D02*
X76383390Y-90250247D01*
X76573866Y-90416914D01*
X76573866Y-90345485D01*
X76597676Y-90297866D01*
X76621485Y-90274057D01*
X76669104Y-90250247D01*
X76788152Y-90250247D01*
X76835771Y-90274057D01*
X76859580Y-90297866D01*
X76883390Y-90345485D01*
X76883390Y-90488342D01*
X76859580Y-90535961D01*
X76835771Y-90559771D01*
%TO.C,C12*%
X81815757Y-90040990D02*
X81863376Y-90040990D01*
X81910995Y-90064800D01*
X81934804Y-90088609D01*
X81958614Y-90136228D01*
X81982423Y-90231466D01*
X81982423Y-90350514D01*
X81958614Y-90445752D01*
X81934804Y-90493371D01*
X81910995Y-90517180D01*
X81863376Y-90540990D01*
X81815757Y-90540990D01*
X81768138Y-90517180D01*
X81744328Y-90493371D01*
X81720519Y-90445752D01*
X81696709Y-90350514D01*
X81696709Y-90231466D01*
X81720519Y-90136228D01*
X81744328Y-90088609D01*
X81768138Y-90064800D01*
X81815757Y-90040990D01*
X82196709Y-90493371D02*
X82220519Y-90517180D01*
X82196709Y-90540990D01*
X82172900Y-90517180D01*
X82196709Y-90493371D01*
X82196709Y-90540990D01*
X82696709Y-90540990D02*
X82410995Y-90540990D01*
X82553852Y-90540990D02*
X82553852Y-90040990D01*
X82506233Y-90112419D01*
X82458614Y-90160038D01*
X82410995Y-90183847D01*
X83125280Y-90207657D02*
X83125280Y-90540990D01*
X82910995Y-90207657D02*
X82910995Y-90469561D01*
X82934804Y-90517180D01*
X82982423Y-90540990D01*
X83053852Y-90540990D01*
X83101471Y-90517180D01*
X83125280Y-90493371D01*
X82101471Y-91923371D02*
X82077661Y-91947180D01*
X82006233Y-91970990D01*
X81958614Y-91970990D01*
X81887185Y-91947180D01*
X81839566Y-91899561D01*
X81815757Y-91851942D01*
X81791947Y-91756704D01*
X81791947Y-91685276D01*
X81815757Y-91590038D01*
X81839566Y-91542419D01*
X81887185Y-91494800D01*
X81958614Y-91470990D01*
X82006233Y-91470990D01*
X82077661Y-91494800D01*
X82101471Y-91518609D01*
X82577661Y-91970990D02*
X82291947Y-91970990D01*
X82434804Y-91970990D02*
X82434804Y-91470990D01*
X82387185Y-91542419D01*
X82339566Y-91590038D01*
X82291947Y-91613847D01*
X82768138Y-91518609D02*
X82791947Y-91494800D01*
X82839566Y-91470990D01*
X82958614Y-91470990D01*
X83006233Y-91494800D01*
X83030042Y-91518609D01*
X83053852Y-91566228D01*
X83053852Y-91613847D01*
X83030042Y-91685276D01*
X82744328Y-91970990D01*
X83053852Y-91970990D01*
%TO.C,C9*%
X85702057Y-112916190D02*
X85749676Y-112916190D01*
X85797295Y-112940000D01*
X85821104Y-112963809D01*
X85844914Y-113011428D01*
X85868723Y-113106666D01*
X85868723Y-113225714D01*
X85844914Y-113320952D01*
X85821104Y-113368571D01*
X85797295Y-113392380D01*
X85749676Y-113416190D01*
X85702057Y-113416190D01*
X85654438Y-113392380D01*
X85630628Y-113368571D01*
X85606819Y-113320952D01*
X85583009Y-113225714D01*
X85583009Y-113106666D01*
X85606819Y-113011428D01*
X85630628Y-112963809D01*
X85654438Y-112940000D01*
X85702057Y-112916190D01*
X86083009Y-113368571D02*
X86106819Y-113392380D01*
X86083009Y-113416190D01*
X86059200Y-113392380D01*
X86083009Y-113368571D01*
X86083009Y-113416190D01*
X86583009Y-113416190D02*
X86297295Y-113416190D01*
X86440152Y-113416190D02*
X86440152Y-112916190D01*
X86392533Y-112987619D01*
X86344914Y-113035238D01*
X86297295Y-113059047D01*
X87011580Y-113082857D02*
X87011580Y-113416190D01*
X86797295Y-113082857D02*
X86797295Y-113344761D01*
X86821104Y-113392380D01*
X86868723Y-113416190D01*
X86940152Y-113416190D01*
X86987771Y-113392380D01*
X87011580Y-113368571D01*
X86225866Y-111938571D02*
X86202057Y-111962380D01*
X86130628Y-111986190D01*
X86083009Y-111986190D01*
X86011580Y-111962380D01*
X85963961Y-111914761D01*
X85940152Y-111867142D01*
X85916342Y-111771904D01*
X85916342Y-111700476D01*
X85940152Y-111605238D01*
X85963961Y-111557619D01*
X86011580Y-111510000D01*
X86083009Y-111486190D01*
X86130628Y-111486190D01*
X86202057Y-111510000D01*
X86225866Y-111533809D01*
X86463961Y-111986190D02*
X86559200Y-111986190D01*
X86606819Y-111962380D01*
X86630628Y-111938571D01*
X86678247Y-111867142D01*
X86702057Y-111771904D01*
X86702057Y-111581428D01*
X86678247Y-111533809D01*
X86654438Y-111510000D01*
X86606819Y-111486190D01*
X86511580Y-111486190D01*
X86463961Y-111510000D01*
X86440152Y-111533809D01*
X86416342Y-111581428D01*
X86416342Y-111700476D01*
X86440152Y-111748095D01*
X86463961Y-111771904D01*
X86511580Y-111795714D01*
X86606819Y-111795714D01*
X86654438Y-111771904D01*
X86678247Y-111748095D01*
X86702057Y-111700476D01*
%TO.C,C8*%
X88419757Y-91514190D02*
X88467376Y-91514190D01*
X88514995Y-91538000D01*
X88538804Y-91561809D01*
X88562614Y-91609428D01*
X88586423Y-91704666D01*
X88586423Y-91823714D01*
X88562614Y-91918952D01*
X88538804Y-91966571D01*
X88514995Y-91990380D01*
X88467376Y-92014190D01*
X88419757Y-92014190D01*
X88372138Y-91990380D01*
X88348328Y-91966571D01*
X88324519Y-91918952D01*
X88300709Y-91823714D01*
X88300709Y-91704666D01*
X88324519Y-91609428D01*
X88348328Y-91561809D01*
X88372138Y-91538000D01*
X88419757Y-91514190D01*
X88800709Y-91966571D02*
X88824519Y-91990380D01*
X88800709Y-92014190D01*
X88776900Y-91990380D01*
X88800709Y-91966571D01*
X88800709Y-92014190D01*
X89300709Y-92014190D02*
X89014995Y-92014190D01*
X89157852Y-92014190D02*
X89157852Y-91514190D01*
X89110233Y-91585619D01*
X89062614Y-91633238D01*
X89014995Y-91657047D01*
X89729280Y-91680857D02*
X89729280Y-92014190D01*
X89514995Y-91680857D02*
X89514995Y-91942761D01*
X89538804Y-91990380D01*
X89586423Y-92014190D01*
X89657852Y-92014190D01*
X89705471Y-91990380D01*
X89729280Y-91966571D01*
X88943566Y-93396571D02*
X88919757Y-93420380D01*
X88848328Y-93444190D01*
X88800709Y-93444190D01*
X88729280Y-93420380D01*
X88681661Y-93372761D01*
X88657852Y-93325142D01*
X88634042Y-93229904D01*
X88634042Y-93158476D01*
X88657852Y-93063238D01*
X88681661Y-93015619D01*
X88729280Y-92968000D01*
X88800709Y-92944190D01*
X88848328Y-92944190D01*
X88919757Y-92968000D01*
X88943566Y-92991809D01*
X89229280Y-93158476D02*
X89181661Y-93134666D01*
X89157852Y-93110857D01*
X89134042Y-93063238D01*
X89134042Y-93039428D01*
X89157852Y-92991809D01*
X89181661Y-92968000D01*
X89229280Y-92944190D01*
X89324519Y-92944190D01*
X89372138Y-92968000D01*
X89395947Y-92991809D01*
X89419757Y-93039428D01*
X89419757Y-93063238D01*
X89395947Y-93110857D01*
X89372138Y-93134666D01*
X89324519Y-93158476D01*
X89229280Y-93158476D01*
X89181661Y-93182285D01*
X89157852Y-93206095D01*
X89134042Y-93253714D01*
X89134042Y-93348952D01*
X89157852Y-93396571D01*
X89181661Y-93420380D01*
X89229280Y-93444190D01*
X89324519Y-93444190D01*
X89372138Y-93420380D01*
X89395947Y-93396571D01*
X89419757Y-93348952D01*
X89419757Y-93253714D01*
X89395947Y-93206095D01*
X89372138Y-93182285D01*
X89324519Y-93158476D01*
%TO.C,R17*%
X62526171Y-108275009D02*
X62549980Y-108251200D01*
X62597600Y-108227390D01*
X62716647Y-108227390D01*
X62764266Y-108251200D01*
X62788076Y-108275009D01*
X62811885Y-108322628D01*
X62811885Y-108370247D01*
X62788076Y-108441676D01*
X62502361Y-108727390D01*
X62811885Y-108727390D01*
X63002361Y-108275009D02*
X63026171Y-108251200D01*
X63073790Y-108227390D01*
X63192838Y-108227390D01*
X63240457Y-108251200D01*
X63264266Y-108275009D01*
X63288076Y-108322628D01*
X63288076Y-108370247D01*
X63264266Y-108441676D01*
X62978552Y-108727390D01*
X63288076Y-108727390D01*
X63597600Y-108227390D02*
X63645219Y-108227390D01*
X63692838Y-108251200D01*
X63716647Y-108275009D01*
X63740457Y-108322628D01*
X63764266Y-108417866D01*
X63764266Y-108536914D01*
X63740457Y-108632152D01*
X63716647Y-108679771D01*
X63692838Y-108703580D01*
X63645219Y-108727390D01*
X63597600Y-108727390D01*
X63549980Y-108703580D01*
X63526171Y-108679771D01*
X63502361Y-108632152D01*
X63478552Y-108536914D01*
X63478552Y-108417866D01*
X63502361Y-108322628D01*
X63526171Y-108275009D01*
X63549980Y-108251200D01*
X63597600Y-108227390D01*
X63978552Y-108727390D02*
X63978552Y-108227390D01*
X64026171Y-108536914D02*
X64169028Y-108727390D01*
X64169028Y-108394057D02*
X63978552Y-108584533D01*
X63026171Y-110157390D02*
X62859504Y-109919295D01*
X62740457Y-110157390D02*
X62740457Y-109657390D01*
X62930933Y-109657390D01*
X62978552Y-109681200D01*
X63002361Y-109705009D01*
X63026171Y-109752628D01*
X63026171Y-109824057D01*
X63002361Y-109871676D01*
X62978552Y-109895485D01*
X62930933Y-109919295D01*
X62740457Y-109919295D01*
X63502361Y-110157390D02*
X63216647Y-110157390D01*
X63359504Y-110157390D02*
X63359504Y-109657390D01*
X63311885Y-109728819D01*
X63264266Y-109776438D01*
X63216647Y-109800247D01*
X63669028Y-109657390D02*
X64002361Y-109657390D01*
X63788076Y-110157390D01*
%TO.C,R16*%
X63204742Y-110012590D02*
X62919028Y-110012590D01*
X63061885Y-110012590D02*
X63061885Y-109512590D01*
X63014266Y-109584019D01*
X62966647Y-109631638D01*
X62919028Y-109655447D01*
X63419028Y-110012590D02*
X63419028Y-109512590D01*
X63585695Y-109869733D01*
X63752361Y-109512590D01*
X63752361Y-110012590D01*
X63026171Y-108582590D02*
X62859504Y-108344495D01*
X62740457Y-108582590D02*
X62740457Y-108082590D01*
X62930933Y-108082590D01*
X62978552Y-108106400D01*
X63002361Y-108130209D01*
X63026171Y-108177828D01*
X63026171Y-108249257D01*
X63002361Y-108296876D01*
X62978552Y-108320685D01*
X62930933Y-108344495D01*
X62740457Y-108344495D01*
X63502361Y-108582590D02*
X63216647Y-108582590D01*
X63359504Y-108582590D02*
X63359504Y-108082590D01*
X63311885Y-108154019D01*
X63264266Y-108201638D01*
X63216647Y-108225447D01*
X63930933Y-108082590D02*
X63835695Y-108082590D01*
X63788076Y-108106400D01*
X63764266Y-108130209D01*
X63716647Y-108201638D01*
X63692838Y-108296876D01*
X63692838Y-108487352D01*
X63716647Y-108534971D01*
X63740457Y-108558780D01*
X63788076Y-108582590D01*
X63883314Y-108582590D01*
X63930933Y-108558780D01*
X63954742Y-108534971D01*
X63978552Y-108487352D01*
X63978552Y-108368304D01*
X63954742Y-108320685D01*
X63930933Y-108296876D01*
X63883314Y-108273066D01*
X63788076Y-108273066D01*
X63740457Y-108296876D01*
X63716647Y-108320685D01*
X63692838Y-108368304D01*
%TO.C,R7*%
X79315376Y-91826190D02*
X79029661Y-91826190D01*
X79172519Y-91826190D02*
X79172519Y-91326190D01*
X79124900Y-91397619D01*
X79077280Y-91445238D01*
X79029661Y-91469047D01*
X79529661Y-91826190D02*
X79529661Y-91326190D01*
X79577280Y-91635714D02*
X79720138Y-91826190D01*
X79720138Y-91492857D02*
X79529661Y-91683333D01*
X79291566Y-90396190D02*
X79124900Y-90158095D01*
X79005852Y-90396190D02*
X79005852Y-89896190D01*
X79196328Y-89896190D01*
X79243947Y-89920000D01*
X79267757Y-89943809D01*
X79291566Y-89991428D01*
X79291566Y-90062857D01*
X79267757Y-90110476D01*
X79243947Y-90134285D01*
X79196328Y-90158095D01*
X79005852Y-90158095D01*
X79458233Y-89896190D02*
X79791566Y-89896190D01*
X79577280Y-90396190D01*
%TO.C,R6*%
X82388876Y-88966190D02*
X82103161Y-88966190D01*
X82246019Y-88966190D02*
X82246019Y-88466190D01*
X82198400Y-88537619D01*
X82150780Y-88585238D01*
X82103161Y-88609047D01*
X82603161Y-88966190D02*
X82603161Y-88466190D01*
X82650780Y-88775714D02*
X82793638Y-88966190D01*
X82793638Y-88632857D02*
X82603161Y-88823333D01*
X82365066Y-90396190D02*
X82198400Y-90158095D01*
X82079352Y-90396190D02*
X82079352Y-89896190D01*
X82269828Y-89896190D01*
X82317447Y-89920000D01*
X82341257Y-89943809D01*
X82365066Y-89991428D01*
X82365066Y-90062857D01*
X82341257Y-90110476D01*
X82317447Y-90134285D01*
X82269828Y-90158095D01*
X82079352Y-90158095D01*
X82793638Y-89896190D02*
X82698400Y-89896190D01*
X82650780Y-89920000D01*
X82626971Y-89943809D01*
X82579352Y-90015238D01*
X82555542Y-90110476D01*
X82555542Y-90300952D01*
X82579352Y-90348571D01*
X82603161Y-90372380D01*
X82650780Y-90396190D01*
X82746019Y-90396190D01*
X82793638Y-90372380D01*
X82817447Y-90348571D01*
X82841257Y-90300952D01*
X82841257Y-90181904D01*
X82817447Y-90134285D01*
X82793638Y-90110476D01*
X82746019Y-90086666D01*
X82650780Y-90086666D01*
X82603161Y-90110476D01*
X82579352Y-90134285D01*
X82555542Y-90181904D01*
%TO.C,U3*%
X83936685Y-93678785D02*
X83960495Y-93607357D01*
X83984304Y-93583547D01*
X84031923Y-93559738D01*
X84103352Y-93559738D01*
X84150971Y-93583547D01*
X84174780Y-93607357D01*
X84198590Y-93654976D01*
X84198590Y-93845452D01*
X83698590Y-93845452D01*
X83698590Y-93678785D01*
X83722400Y-93631166D01*
X83746209Y-93607357D01*
X83793828Y-93583547D01*
X83841447Y-93583547D01*
X83889066Y-93607357D01*
X83912876Y-93631166D01*
X83936685Y-93678785D01*
X83936685Y-93845452D01*
X84198590Y-93345452D02*
X83698590Y-93345452D01*
X84055733Y-93178785D01*
X83698590Y-93012119D01*
X84198590Y-93012119D01*
X84198590Y-92774023D02*
X83698590Y-92774023D01*
X83698590Y-92583547D01*
X83722400Y-92535928D01*
X83746209Y-92512119D01*
X83793828Y-92488309D01*
X83865257Y-92488309D01*
X83912876Y-92512119D01*
X83936685Y-92535928D01*
X83960495Y-92583547D01*
X83960495Y-92774023D01*
X83746209Y-92297833D02*
X83722400Y-92274023D01*
X83698590Y-92226404D01*
X83698590Y-92107357D01*
X83722400Y-92059738D01*
X83746209Y-92035928D01*
X83793828Y-92012119D01*
X83841447Y-92012119D01*
X83912876Y-92035928D01*
X84198590Y-92321642D01*
X84198590Y-92012119D01*
X83912876Y-91726404D02*
X83889066Y-91774023D01*
X83865257Y-91797833D01*
X83817638Y-91821642D01*
X83793828Y-91821642D01*
X83746209Y-91797833D01*
X83722400Y-91774023D01*
X83698590Y-91726404D01*
X83698590Y-91631166D01*
X83722400Y-91583547D01*
X83746209Y-91559738D01*
X83793828Y-91535928D01*
X83817638Y-91535928D01*
X83865257Y-91559738D01*
X83889066Y-91583547D01*
X83912876Y-91631166D01*
X83912876Y-91726404D01*
X83936685Y-91774023D01*
X83960495Y-91797833D01*
X84008114Y-91821642D01*
X84103352Y-91821642D01*
X84150971Y-91797833D01*
X84174780Y-91774023D01*
X84198590Y-91726404D01*
X84198590Y-91631166D01*
X84174780Y-91583547D01*
X84150971Y-91559738D01*
X84103352Y-91535928D01*
X84008114Y-91535928D01*
X83960495Y-91559738D01*
X83936685Y-91583547D01*
X83912876Y-91631166D01*
X83698590Y-91226404D02*
X83698590Y-91178785D01*
X83722400Y-91131166D01*
X83746209Y-91107357D01*
X83793828Y-91083547D01*
X83889066Y-91059738D01*
X84008114Y-91059738D01*
X84103352Y-91083547D01*
X84150971Y-91107357D01*
X84174780Y-91131166D01*
X84198590Y-91178785D01*
X84198590Y-91226404D01*
X84174780Y-91274023D01*
X84150971Y-91297833D01*
X84103352Y-91321642D01*
X84008114Y-91345452D01*
X83889066Y-91345452D01*
X83793828Y-91321642D01*
X83746209Y-91297833D01*
X83722400Y-91274023D01*
X83698590Y-91226404D01*
X85476590Y-92836952D02*
X85881352Y-92836952D01*
X85928971Y-92813142D01*
X85952780Y-92789333D01*
X85976590Y-92741714D01*
X85976590Y-92646476D01*
X85952780Y-92598857D01*
X85928971Y-92575047D01*
X85881352Y-92551238D01*
X85476590Y-92551238D01*
X85476590Y-92360761D02*
X85476590Y-92051238D01*
X85667066Y-92217904D01*
X85667066Y-92146476D01*
X85690876Y-92098857D01*
X85714685Y-92075047D01*
X85762304Y-92051238D01*
X85881352Y-92051238D01*
X85928971Y-92075047D01*
X85952780Y-92098857D01*
X85976590Y-92146476D01*
X85976590Y-92289333D01*
X85952780Y-92336952D01*
X85928971Y-92360761D01*
%TO.C,U1*%
X74245261Y-88179490D02*
X74245261Y-87679490D01*
X74364309Y-87679490D01*
X74435738Y-87703300D01*
X74483357Y-87750919D01*
X74507166Y-87798538D01*
X74530976Y-87893776D01*
X74530976Y-87965204D01*
X74507166Y-88060442D01*
X74483357Y-88108061D01*
X74435738Y-88155680D01*
X74364309Y-88179490D01*
X74245261Y-88179490D01*
X74721452Y-88155680D02*
X74792880Y-88179490D01*
X74911928Y-88179490D01*
X74959547Y-88155680D01*
X74983357Y-88131871D01*
X75007166Y-88084252D01*
X75007166Y-88036633D01*
X74983357Y-87989014D01*
X74959547Y-87965204D01*
X74911928Y-87941395D01*
X74816690Y-87917585D01*
X74769071Y-87893776D01*
X74745261Y-87869966D01*
X74721452Y-87822347D01*
X74721452Y-87774728D01*
X74745261Y-87727109D01*
X74769071Y-87703300D01*
X74816690Y-87679490D01*
X74935738Y-87679490D01*
X75007166Y-87703300D01*
X75173833Y-87679490D02*
X75483357Y-87679490D01*
X75316690Y-87869966D01*
X75388119Y-87869966D01*
X75435738Y-87893776D01*
X75459547Y-87917585D01*
X75483357Y-87965204D01*
X75483357Y-88084252D01*
X75459547Y-88131871D01*
X75435738Y-88155680D01*
X75388119Y-88179490D01*
X75245261Y-88179490D01*
X75197642Y-88155680D01*
X75173833Y-88131871D01*
X75673833Y-87727109D02*
X75697642Y-87703300D01*
X75745261Y-87679490D01*
X75864309Y-87679490D01*
X75911928Y-87703300D01*
X75935738Y-87727109D01*
X75959547Y-87774728D01*
X75959547Y-87822347D01*
X75935738Y-87893776D01*
X75650023Y-88179490D01*
X75959547Y-88179490D01*
X76126214Y-87679490D02*
X76435738Y-87679490D01*
X76269071Y-87869966D01*
X76340500Y-87869966D01*
X76388119Y-87893776D01*
X76411928Y-87917585D01*
X76435738Y-87965204D01*
X76435738Y-88084252D01*
X76411928Y-88131871D01*
X76388119Y-88155680D01*
X76340500Y-88179490D01*
X76197642Y-88179490D01*
X76150023Y-88155680D01*
X76126214Y-88131871D01*
X76911928Y-88179490D02*
X76626214Y-88179490D01*
X76769071Y-88179490D02*
X76769071Y-87679490D01*
X76721452Y-87750919D01*
X76673833Y-87798538D01*
X76626214Y-87822347D01*
X77126214Y-88179490D02*
X77126214Y-87679490D01*
X77292880Y-88036633D01*
X77459547Y-87679490D01*
X77459547Y-88179490D01*
X77650023Y-87679490D02*
X77983357Y-87679490D01*
X77650023Y-88179490D01*
X77983357Y-88179490D01*
X75755547Y-86390990D02*
X75755547Y-86795752D01*
X75779357Y-86843371D01*
X75803166Y-86867180D01*
X75850785Y-86890990D01*
X75946023Y-86890990D01*
X75993642Y-86867180D01*
X76017452Y-86843371D01*
X76041261Y-86795752D01*
X76041261Y-86390990D01*
X76541261Y-86890990D02*
X76255547Y-86890990D01*
X76398404Y-86890990D02*
X76398404Y-86390990D01*
X76350785Y-86462419D01*
X76303166Y-86510038D01*
X76255547Y-86533847D01*
%TO.C,U6*%
X80435580Y-114690971D02*
X80411771Y-114714780D01*
X80340342Y-114738590D01*
X80292723Y-114738590D01*
X80221295Y-114714780D01*
X80173676Y-114667161D01*
X80149866Y-114619542D01*
X80126057Y-114524304D01*
X80126057Y-114452876D01*
X80149866Y-114357638D01*
X80173676Y-114310019D01*
X80221295Y-114262400D01*
X80292723Y-114238590D01*
X80340342Y-114238590D01*
X80411771Y-114262400D01*
X80435580Y-114286209D01*
X80649866Y-114738590D02*
X80649866Y-114238590D01*
X80649866Y-114476685D02*
X80935580Y-114476685D01*
X80935580Y-114738590D02*
X80935580Y-114238590D01*
X81126057Y-114238590D02*
X81435580Y-114238590D01*
X81268914Y-114429066D01*
X81340342Y-114429066D01*
X81387961Y-114452876D01*
X81411771Y-114476685D01*
X81435580Y-114524304D01*
X81435580Y-114643352D01*
X81411771Y-114690971D01*
X81387961Y-114714780D01*
X81340342Y-114738590D01*
X81197485Y-114738590D01*
X81149866Y-114714780D01*
X81126057Y-114690971D01*
X81864152Y-114405257D02*
X81864152Y-114738590D01*
X81745104Y-114214780D02*
X81626057Y-114571923D01*
X81935580Y-114571923D01*
X82221295Y-114238590D02*
X82268914Y-114238590D01*
X82316533Y-114262400D01*
X82340342Y-114286209D01*
X82364152Y-114333828D01*
X82387961Y-114429066D01*
X82387961Y-114548114D01*
X82364152Y-114643352D01*
X82340342Y-114690971D01*
X82316533Y-114714780D01*
X82268914Y-114738590D01*
X82221295Y-114738590D01*
X82173676Y-114714780D01*
X82149866Y-114690971D01*
X82126057Y-114643352D01*
X82102247Y-114548114D01*
X82102247Y-114429066D01*
X82126057Y-114333828D01*
X82149866Y-114286209D01*
X82173676Y-114262400D01*
X82221295Y-114238590D01*
X82602247Y-114476685D02*
X82768914Y-114476685D01*
X82840342Y-114738590D02*
X82602247Y-114738590D01*
X82602247Y-114238590D01*
X82840342Y-114238590D01*
X81102247Y-111638590D02*
X81102247Y-112043352D01*
X81126057Y-112090971D01*
X81149866Y-112114780D01*
X81197485Y-112138590D01*
X81292723Y-112138590D01*
X81340342Y-112114780D01*
X81364152Y-112090971D01*
X81387961Y-112043352D01*
X81387961Y-111638590D01*
X81840342Y-111638590D02*
X81745104Y-111638590D01*
X81697485Y-111662400D01*
X81673676Y-111686209D01*
X81626057Y-111757638D01*
X81602247Y-111852876D01*
X81602247Y-112043352D01*
X81626057Y-112090971D01*
X81649866Y-112114780D01*
X81697485Y-112138590D01*
X81792723Y-112138590D01*
X81840342Y-112114780D01*
X81864152Y-112090971D01*
X81887961Y-112043352D01*
X81887961Y-111924304D01*
X81864152Y-111876685D01*
X81840342Y-111852876D01*
X81792723Y-111829066D01*
X81697485Y-111829066D01*
X81649866Y-111852876D01*
X81626057Y-111876685D01*
X81602247Y-111924304D01*
%TO.C,U11*%
X70805752Y-109962190D02*
X70805752Y-110366952D01*
X70829561Y-110414571D01*
X70853371Y-110438380D01*
X70900990Y-110462190D01*
X70996228Y-110462190D01*
X71043847Y-110438380D01*
X71067657Y-110414571D01*
X71091466Y-110366952D01*
X71091466Y-109962190D01*
X71591466Y-110462190D02*
X71305752Y-110462190D01*
X71448609Y-110462190D02*
X71448609Y-109962190D01*
X71400990Y-110033619D01*
X71353371Y-110081238D01*
X71305752Y-110105047D01*
X72067657Y-110462190D02*
X71781942Y-110462190D01*
X71924800Y-110462190D02*
X71924800Y-109962190D01*
X71877180Y-110033619D01*
X71829561Y-110081238D01*
X71781942Y-110105047D01*
%TO.C,R11*%
X88729280Y-93299390D02*
X88443566Y-93299390D01*
X88586423Y-93299390D02*
X88586423Y-92799390D01*
X88538804Y-92870819D01*
X88491185Y-92918438D01*
X88443566Y-92942247D01*
X89038804Y-92799390D02*
X89086423Y-92799390D01*
X89134042Y-92823200D01*
X89157852Y-92847009D01*
X89181661Y-92894628D01*
X89205471Y-92989866D01*
X89205471Y-93108914D01*
X89181661Y-93204152D01*
X89157852Y-93251771D01*
X89134042Y-93275580D01*
X89086423Y-93299390D01*
X89038804Y-93299390D01*
X88991185Y-93275580D01*
X88967376Y-93251771D01*
X88943566Y-93204152D01*
X88919757Y-93108914D01*
X88919757Y-92989866D01*
X88943566Y-92894628D01*
X88967376Y-92847009D01*
X88991185Y-92823200D01*
X89038804Y-92799390D01*
X89419757Y-93299390D02*
X89419757Y-92799390D01*
X89467376Y-93108914D02*
X89610233Y-93299390D01*
X89610233Y-92966057D02*
X89419757Y-93156533D01*
X88705471Y-91869390D02*
X88538804Y-91631295D01*
X88419757Y-91869390D02*
X88419757Y-91369390D01*
X88610233Y-91369390D01*
X88657852Y-91393200D01*
X88681661Y-91417009D01*
X88705471Y-91464628D01*
X88705471Y-91536057D01*
X88681661Y-91583676D01*
X88657852Y-91607485D01*
X88610233Y-91631295D01*
X88419757Y-91631295D01*
X89181661Y-91869390D02*
X88895947Y-91869390D01*
X89038804Y-91869390D02*
X89038804Y-91369390D01*
X88991185Y-91440819D01*
X88943566Y-91488438D01*
X88895947Y-91512247D01*
X89657852Y-91869390D02*
X89372138Y-91869390D01*
X89514995Y-91869390D02*
X89514995Y-91369390D01*
X89467376Y-91440819D01*
X89419757Y-91488438D01*
X89372138Y-91512247D01*
%TO.C,R10*%
X62948380Y-90439390D02*
X62662666Y-90439390D01*
X62805523Y-90439390D02*
X62805523Y-89939390D01*
X62757904Y-90010819D01*
X62710285Y-90058438D01*
X62662666Y-90082247D01*
X63257904Y-89939390D02*
X63305523Y-89939390D01*
X63353142Y-89963200D01*
X63376952Y-89987009D01*
X63400761Y-90034628D01*
X63424571Y-90129866D01*
X63424571Y-90248914D01*
X63400761Y-90344152D01*
X63376952Y-90391771D01*
X63353142Y-90415580D01*
X63305523Y-90439390D01*
X63257904Y-90439390D01*
X63210285Y-90415580D01*
X63186476Y-90391771D01*
X63162666Y-90344152D01*
X63138857Y-90248914D01*
X63138857Y-90129866D01*
X63162666Y-90034628D01*
X63186476Y-89987009D01*
X63210285Y-89963200D01*
X63257904Y-89939390D01*
X63638857Y-90439390D02*
X63638857Y-89939390D01*
X63686476Y-90248914D02*
X63829333Y-90439390D01*
X63829333Y-90106057D02*
X63638857Y-90296533D01*
X62924571Y-91869390D02*
X62757904Y-91631295D01*
X62638857Y-91869390D02*
X62638857Y-91369390D01*
X62829333Y-91369390D01*
X62876952Y-91393200D01*
X62900761Y-91417009D01*
X62924571Y-91464628D01*
X62924571Y-91536057D01*
X62900761Y-91583676D01*
X62876952Y-91607485D01*
X62829333Y-91631295D01*
X62638857Y-91631295D01*
X63400761Y-91869390D02*
X63115047Y-91869390D01*
X63257904Y-91869390D02*
X63257904Y-91369390D01*
X63210285Y-91440819D01*
X63162666Y-91488438D01*
X63115047Y-91512247D01*
X63710285Y-91369390D02*
X63757904Y-91369390D01*
X63805523Y-91393200D01*
X63829333Y-91417009D01*
X63853142Y-91464628D01*
X63876952Y-91559866D01*
X63876952Y-91678914D01*
X63853142Y-91774152D01*
X63829333Y-91821771D01*
X63805523Y-91845580D01*
X63757904Y-91869390D01*
X63710285Y-91869390D01*
X63662666Y-91845580D01*
X63638857Y-91821771D01*
X63615047Y-91774152D01*
X63591238Y-91678914D01*
X63591238Y-91559866D01*
X63615047Y-91464628D01*
X63638857Y-91417009D01*
X63662666Y-91393200D01*
X63710285Y-91369390D01*
%TO.C,R14*%
X70047657Y-101933390D02*
X69809561Y-101933390D01*
X69785752Y-102171485D01*
X69809561Y-102147676D01*
X69857180Y-102123866D01*
X69976228Y-102123866D01*
X70023847Y-102147676D01*
X70047657Y-102171485D01*
X70071466Y-102219104D01*
X70071466Y-102338152D01*
X70047657Y-102385771D01*
X70023847Y-102409580D01*
X69976228Y-102433390D01*
X69857180Y-102433390D01*
X69809561Y-102409580D01*
X69785752Y-102385771D01*
X70547657Y-102433390D02*
X70261942Y-102433390D01*
X70404800Y-102433390D02*
X70404800Y-101933390D01*
X70357180Y-102004819D01*
X70309561Y-102052438D01*
X70261942Y-102076247D01*
X70857180Y-101933390D02*
X70904800Y-101933390D01*
X70952419Y-101957200D01*
X70976228Y-101981009D01*
X71000038Y-102028628D01*
X71023847Y-102123866D01*
X71023847Y-102242914D01*
X71000038Y-102338152D01*
X70976228Y-102385771D01*
X70952419Y-102409580D01*
X70904800Y-102433390D01*
X70857180Y-102433390D01*
X70809561Y-102409580D01*
X70785752Y-102385771D01*
X70761942Y-102338152D01*
X70738133Y-102242914D01*
X70738133Y-102123866D01*
X70761942Y-102028628D01*
X70785752Y-101981009D01*
X70809561Y-101957200D01*
X70857180Y-101933390D01*
X71523847Y-102433390D02*
X71357180Y-102195295D01*
X71238133Y-102433390D02*
X71238133Y-101933390D01*
X71428609Y-101933390D01*
X71476228Y-101957200D01*
X71500038Y-101981009D01*
X71523847Y-102028628D01*
X71523847Y-102100057D01*
X71500038Y-102147676D01*
X71476228Y-102171485D01*
X71428609Y-102195295D01*
X71238133Y-102195295D01*
X70290571Y-102384990D02*
X70123904Y-102146895D01*
X70004857Y-102384990D02*
X70004857Y-101884990D01*
X70195333Y-101884990D01*
X70242952Y-101908800D01*
X70266761Y-101932609D01*
X70290571Y-101980228D01*
X70290571Y-102051657D01*
X70266761Y-102099276D01*
X70242952Y-102123085D01*
X70195333Y-102146895D01*
X70004857Y-102146895D01*
X70766761Y-102384990D02*
X70481047Y-102384990D01*
X70623904Y-102384990D02*
X70623904Y-101884990D01*
X70576285Y-101956419D01*
X70528666Y-102004038D01*
X70481047Y-102027847D01*
X71195333Y-102051657D02*
X71195333Y-102384990D01*
X71076285Y-101861180D02*
X70957238Y-102218323D01*
X71266761Y-102218323D01*
%TO.C,R4*%
X85678247Y-111431857D02*
X85678247Y-111765190D01*
X85559200Y-111241380D02*
X85440152Y-111598523D01*
X85749676Y-111598523D01*
X85892533Y-111265190D02*
X86225866Y-111265190D01*
X86011580Y-111765190D01*
X86511580Y-111265190D02*
X86559200Y-111265190D01*
X86606819Y-111289000D01*
X86630628Y-111312809D01*
X86654438Y-111360428D01*
X86678247Y-111455666D01*
X86678247Y-111574714D01*
X86654438Y-111669952D01*
X86630628Y-111717571D01*
X86606819Y-111741380D01*
X86559200Y-111765190D01*
X86511580Y-111765190D01*
X86463961Y-111741380D01*
X86440152Y-111717571D01*
X86416342Y-111669952D01*
X86392533Y-111574714D01*
X86392533Y-111455666D01*
X86416342Y-111360428D01*
X86440152Y-111312809D01*
X86463961Y-111289000D01*
X86511580Y-111265190D01*
X87178247Y-111765190D02*
X87011580Y-111527095D01*
X86892533Y-111765190D02*
X86892533Y-111265190D01*
X87083009Y-111265190D01*
X87130628Y-111289000D01*
X87154438Y-111312809D01*
X87178247Y-111360428D01*
X87178247Y-111431857D01*
X87154438Y-111479476D01*
X87130628Y-111503285D01*
X87083009Y-111527095D01*
X86892533Y-111527095D01*
X86225866Y-110335190D02*
X86059200Y-110097095D01*
X85940152Y-110335190D02*
X85940152Y-109835190D01*
X86130628Y-109835190D01*
X86178247Y-109859000D01*
X86202057Y-109882809D01*
X86225866Y-109930428D01*
X86225866Y-110001857D01*
X86202057Y-110049476D01*
X86178247Y-110073285D01*
X86130628Y-110097095D01*
X85940152Y-110097095D01*
X86654438Y-110001857D02*
X86654438Y-110335190D01*
X86535390Y-109811380D02*
X86416342Y-110168523D01*
X86725866Y-110168523D01*
%TO.C,R15*%
X67485366Y-107189790D02*
X67247271Y-107189790D01*
X67223461Y-107427885D01*
X67247271Y-107404076D01*
X67294890Y-107380266D01*
X67413938Y-107380266D01*
X67461557Y-107404076D01*
X67485366Y-107427885D01*
X67509176Y-107475504D01*
X67509176Y-107594552D01*
X67485366Y-107642171D01*
X67461557Y-107665980D01*
X67413938Y-107689790D01*
X67294890Y-107689790D01*
X67247271Y-107665980D01*
X67223461Y-107642171D01*
X67723461Y-107689790D02*
X67723461Y-107189790D01*
X67771080Y-107499314D02*
X67913938Y-107689790D01*
X67913938Y-107356457D02*
X67723461Y-107546933D01*
X67196471Y-107689790D02*
X67029804Y-107451695D01*
X66910757Y-107689790D02*
X66910757Y-107189790D01*
X67101233Y-107189790D01*
X67148852Y-107213600D01*
X67172661Y-107237409D01*
X67196471Y-107285028D01*
X67196471Y-107356457D01*
X67172661Y-107404076D01*
X67148852Y-107427885D01*
X67101233Y-107451695D01*
X66910757Y-107451695D01*
X67672661Y-107689790D02*
X67386947Y-107689790D01*
X67529804Y-107689790D02*
X67529804Y-107189790D01*
X67482185Y-107261219D01*
X67434566Y-107308838D01*
X67386947Y-107332647D01*
X68125042Y-107189790D02*
X67886947Y-107189790D01*
X67863138Y-107427885D01*
X67886947Y-107404076D01*
X67934566Y-107380266D01*
X68053614Y-107380266D01*
X68101233Y-107404076D01*
X68125042Y-107427885D01*
X68148852Y-107475504D01*
X68148852Y-107594552D01*
X68125042Y-107642171D01*
X68101233Y-107665980D01*
X68053614Y-107689790D01*
X67934566Y-107689790D01*
X67886947Y-107665980D01*
X67863138Y-107642171D01*
%TO.C,R13*%
X66933047Y-112828857D02*
X66933047Y-113162190D01*
X66814000Y-112638380D02*
X66694952Y-112995523D01*
X67004476Y-112995523D01*
X67147333Y-112662190D02*
X67480666Y-112662190D01*
X67266380Y-113162190D01*
X67766380Y-112662190D02*
X67814000Y-112662190D01*
X67861619Y-112686000D01*
X67885428Y-112709809D01*
X67909238Y-112757428D01*
X67933047Y-112852666D01*
X67933047Y-112971714D01*
X67909238Y-113066952D01*
X67885428Y-113114571D01*
X67861619Y-113138380D01*
X67814000Y-113162190D01*
X67766380Y-113162190D01*
X67718761Y-113138380D01*
X67694952Y-113114571D01*
X67671142Y-113066952D01*
X67647333Y-112971714D01*
X67647333Y-112852666D01*
X67671142Y-112757428D01*
X67694952Y-112709809D01*
X67718761Y-112686000D01*
X67766380Y-112662190D01*
X68433047Y-113162190D02*
X68266380Y-112924095D01*
X68147333Y-113162190D02*
X68147333Y-112662190D01*
X68337809Y-112662190D01*
X68385428Y-112686000D01*
X68409238Y-112709809D01*
X68433047Y-112757428D01*
X68433047Y-112828857D01*
X68409238Y-112876476D01*
X68385428Y-112900285D01*
X68337809Y-112924095D01*
X68147333Y-112924095D01*
X67242571Y-111732190D02*
X67075904Y-111494095D01*
X66956857Y-111732190D02*
X66956857Y-111232190D01*
X67147333Y-111232190D01*
X67194952Y-111256000D01*
X67218761Y-111279809D01*
X67242571Y-111327428D01*
X67242571Y-111398857D01*
X67218761Y-111446476D01*
X67194952Y-111470285D01*
X67147333Y-111494095D01*
X66956857Y-111494095D01*
X67718761Y-111732190D02*
X67433047Y-111732190D01*
X67575904Y-111732190D02*
X67575904Y-111232190D01*
X67528285Y-111303619D01*
X67480666Y-111351238D01*
X67433047Y-111375047D01*
X67885428Y-111232190D02*
X68194952Y-111232190D01*
X68028285Y-111422666D01*
X68099714Y-111422666D01*
X68147333Y-111446476D01*
X68171142Y-111470285D01*
X68194952Y-111517904D01*
X68194952Y-111636952D01*
X68171142Y-111684571D01*
X68147333Y-111708380D01*
X68099714Y-111732190D01*
X67956857Y-111732190D01*
X67909238Y-111708380D01*
X67885428Y-111684571D01*
%TO.C,R1*%
X62656609Y-96291352D02*
X62632800Y-96267542D01*
X62608990Y-96219923D01*
X62608990Y-96100876D01*
X62632800Y-96053257D01*
X62656609Y-96029447D01*
X62704228Y-96005638D01*
X62751847Y-96005638D01*
X62823276Y-96029447D01*
X63108990Y-96315161D01*
X63108990Y-96005638D01*
X62656609Y-95815161D02*
X62632800Y-95791352D01*
X62608990Y-95743733D01*
X62608990Y-95624685D01*
X62632800Y-95577066D01*
X62656609Y-95553257D01*
X62704228Y-95529447D01*
X62751847Y-95529447D01*
X62823276Y-95553257D01*
X63108990Y-95838971D01*
X63108990Y-95529447D01*
X64538990Y-95993733D02*
X64300895Y-96160400D01*
X64538990Y-96279447D02*
X64038990Y-96279447D01*
X64038990Y-96088971D01*
X64062800Y-96041352D01*
X64086609Y-96017542D01*
X64134228Y-95993733D01*
X64205657Y-95993733D01*
X64253276Y-96017542D01*
X64277085Y-96041352D01*
X64300895Y-96088971D01*
X64300895Y-96279447D01*
X64538990Y-95517542D02*
X64538990Y-95803257D01*
X64538990Y-95660400D02*
X64038990Y-95660400D01*
X64110419Y-95708019D01*
X64158038Y-95755638D01*
X64181847Y-95803257D01*
%TO.C,Q1*%
X60415657Y-98895409D02*
X60439466Y-98871600D01*
X60487085Y-98847790D01*
X60606133Y-98847790D01*
X60653752Y-98871600D01*
X60677561Y-98895409D01*
X60701371Y-98943028D01*
X60701371Y-98990647D01*
X60677561Y-99062076D01*
X60391847Y-99347790D01*
X60701371Y-99347790D01*
X60915657Y-99347790D02*
X60915657Y-98847790D01*
X61201371Y-99347790D01*
X61201371Y-98847790D01*
X61391847Y-98847790D02*
X61725180Y-98847790D01*
X61510895Y-99347790D01*
X62010895Y-98847790D02*
X62058514Y-98847790D01*
X62106133Y-98871600D01*
X62129942Y-98895409D01*
X62153752Y-98943028D01*
X62177561Y-99038266D01*
X62177561Y-99157314D01*
X62153752Y-99252552D01*
X62129942Y-99300171D01*
X62106133Y-99323980D01*
X62058514Y-99347790D01*
X62010895Y-99347790D01*
X61963276Y-99323980D01*
X61939466Y-99300171D01*
X61915657Y-99252552D01*
X61891847Y-99157314D01*
X61891847Y-99038266D01*
X61915657Y-98943028D01*
X61939466Y-98895409D01*
X61963276Y-98871600D01*
X62010895Y-98847790D01*
X62487085Y-98847790D02*
X62534704Y-98847790D01*
X62582323Y-98871600D01*
X62606133Y-98895409D01*
X62629942Y-98943028D01*
X62653752Y-99038266D01*
X62653752Y-99157314D01*
X62629942Y-99252552D01*
X62606133Y-99300171D01*
X62582323Y-99323980D01*
X62534704Y-99347790D01*
X62487085Y-99347790D01*
X62439466Y-99323980D01*
X62415657Y-99300171D01*
X62391847Y-99252552D01*
X62368038Y-99157314D01*
X62368038Y-99038266D01*
X62391847Y-98943028D01*
X62415657Y-98895409D01*
X62439466Y-98871600D01*
X62487085Y-98847790D01*
X62844228Y-98895409D02*
X62868038Y-98871600D01*
X62915657Y-98847790D01*
X63034704Y-98847790D01*
X63082323Y-98871600D01*
X63106133Y-98895409D01*
X63129942Y-98943028D01*
X63129942Y-98990647D01*
X63106133Y-99062076D01*
X62820419Y-99347790D01*
X63129942Y-99347790D01*
X62046609Y-96669219D02*
X62022800Y-96716838D01*
X61975180Y-96764457D01*
X61903752Y-96835885D01*
X61879942Y-96883504D01*
X61879942Y-96931123D01*
X61998990Y-96907314D02*
X61975180Y-96954933D01*
X61927561Y-97002552D01*
X61832323Y-97026361D01*
X61665657Y-97026361D01*
X61570419Y-97002552D01*
X61522800Y-96954933D01*
X61498990Y-96907314D01*
X61498990Y-96812076D01*
X61522800Y-96764457D01*
X61570419Y-96716838D01*
X61665657Y-96693028D01*
X61832323Y-96693028D01*
X61927561Y-96716838D01*
X61975180Y-96764457D01*
X61998990Y-96812076D01*
X61998990Y-96907314D01*
X61998990Y-96216838D02*
X61998990Y-96502552D01*
X61998990Y-96359695D02*
X61498990Y-96359695D01*
X61570419Y-96407314D01*
X61618038Y-96454933D01*
X61641847Y-96502552D01*
%TO.C,D1*%
X66195771Y-111400990D02*
X65957676Y-111400990D01*
X65957676Y-110900990D01*
X66362438Y-111139085D02*
X66529104Y-111139085D01*
X66600533Y-111400990D02*
X66362438Y-111400990D01*
X66362438Y-110900990D01*
X66600533Y-110900990D01*
X66814819Y-111400990D02*
X66814819Y-110900990D01*
X66933866Y-110900990D01*
X67005295Y-110924800D01*
X67052914Y-110972419D01*
X67076723Y-111020038D01*
X67100533Y-111115276D01*
X67100533Y-111186704D01*
X67076723Y-111281942D01*
X67052914Y-111329561D01*
X67005295Y-111377180D01*
X66933866Y-111400990D01*
X66814819Y-111400990D01*
X67195771Y-111448609D02*
X67576723Y-111448609D01*
X67957676Y-110924800D02*
X67910057Y-110900990D01*
X67838628Y-110900990D01*
X67767200Y-110924800D01*
X67719580Y-110972419D01*
X67695771Y-111020038D01*
X67671961Y-111115276D01*
X67671961Y-111186704D01*
X67695771Y-111281942D01*
X67719580Y-111329561D01*
X67767200Y-111377180D01*
X67838628Y-111400990D01*
X67886247Y-111400990D01*
X67957676Y-111377180D01*
X67981485Y-111353371D01*
X67981485Y-111186704D01*
X67886247Y-111186704D01*
X68195771Y-111400990D02*
X68195771Y-111067657D01*
X68195771Y-111162895D02*
X68219580Y-111115276D01*
X68243390Y-111091466D01*
X68291009Y-111067657D01*
X68338628Y-111067657D01*
X68695771Y-111377180D02*
X68648152Y-111400990D01*
X68552914Y-111400990D01*
X68505295Y-111377180D01*
X68481485Y-111329561D01*
X68481485Y-111139085D01*
X68505295Y-111091466D01*
X68552914Y-111067657D01*
X68648152Y-111067657D01*
X68695771Y-111091466D01*
X68719580Y-111139085D01*
X68719580Y-111186704D01*
X68481485Y-111234323D01*
X69124342Y-111377180D02*
X69076723Y-111400990D01*
X68981485Y-111400990D01*
X68933866Y-111377180D01*
X68910057Y-111329561D01*
X68910057Y-111139085D01*
X68933866Y-111091466D01*
X68981485Y-111067657D01*
X69076723Y-111067657D01*
X69124342Y-111091466D01*
X69148152Y-111139085D01*
X69148152Y-111186704D01*
X68910057Y-111234323D01*
X69362438Y-111067657D02*
X69362438Y-111400990D01*
X69362438Y-111115276D02*
X69386247Y-111091466D01*
X69433866Y-111067657D01*
X69505295Y-111067657D01*
X69552914Y-111091466D01*
X69576723Y-111139085D01*
X69576723Y-111400990D01*
X67398152Y-109750990D02*
X67398152Y-109250990D01*
X67517200Y-109250990D01*
X67588628Y-109274800D01*
X67636247Y-109322419D01*
X67660057Y-109370038D01*
X67683866Y-109465276D01*
X67683866Y-109536704D01*
X67660057Y-109631942D01*
X67636247Y-109679561D01*
X67588628Y-109727180D01*
X67517200Y-109750990D01*
X67398152Y-109750990D01*
X68160057Y-109750990D02*
X67874342Y-109750990D01*
X68017200Y-109750990D02*
X68017200Y-109250990D01*
X67969580Y-109322419D01*
X67921961Y-109370038D01*
X67874342Y-109393847D01*
%TO.C,C4*%
X63858057Y-105077790D02*
X63905676Y-105077790D01*
X63953295Y-105101600D01*
X63977104Y-105125409D01*
X64000914Y-105173028D01*
X64024723Y-105268266D01*
X64024723Y-105387314D01*
X64000914Y-105482552D01*
X63977104Y-105530171D01*
X63953295Y-105553980D01*
X63905676Y-105577790D01*
X63858057Y-105577790D01*
X63810438Y-105553980D01*
X63786628Y-105530171D01*
X63762819Y-105482552D01*
X63739009Y-105387314D01*
X63739009Y-105268266D01*
X63762819Y-105173028D01*
X63786628Y-105125409D01*
X63810438Y-105101600D01*
X63858057Y-105077790D01*
X64239009Y-105530171D02*
X64262819Y-105553980D01*
X64239009Y-105577790D01*
X64215200Y-105553980D01*
X64239009Y-105530171D01*
X64239009Y-105577790D01*
X64739009Y-105577790D02*
X64453295Y-105577790D01*
X64596152Y-105577790D02*
X64596152Y-105077790D01*
X64548533Y-105149219D01*
X64500914Y-105196838D01*
X64453295Y-105220647D01*
X65167580Y-105244457D02*
X65167580Y-105577790D01*
X64953295Y-105244457D02*
X64953295Y-105506361D01*
X64977104Y-105553980D01*
X65024723Y-105577790D01*
X65096152Y-105577790D01*
X65143771Y-105553980D01*
X65167580Y-105530171D01*
X64643771Y-106864933D02*
X64667580Y-106888742D01*
X64691390Y-106960171D01*
X64691390Y-107007790D01*
X64667580Y-107079219D01*
X64619961Y-107126838D01*
X64572342Y-107150647D01*
X64477104Y-107174457D01*
X64405676Y-107174457D01*
X64310438Y-107150647D01*
X64262819Y-107126838D01*
X64215200Y-107079219D01*
X64191390Y-107007790D01*
X64191390Y-106960171D01*
X64215200Y-106888742D01*
X64239009Y-106864933D01*
X64358057Y-106436361D02*
X64691390Y-106436361D01*
X64167580Y-106555409D02*
X64524723Y-106674457D01*
X64524723Y-106364933D01*
%TO.C,C3*%
X73116257Y-108598190D02*
X73163876Y-108598190D01*
X73211495Y-108622000D01*
X73235304Y-108645809D01*
X73259114Y-108693428D01*
X73282923Y-108788666D01*
X73282923Y-108907714D01*
X73259114Y-109002952D01*
X73235304Y-109050571D01*
X73211495Y-109074380D01*
X73163876Y-109098190D01*
X73116257Y-109098190D01*
X73068638Y-109074380D01*
X73044828Y-109050571D01*
X73021019Y-109002952D01*
X72997209Y-108907714D01*
X72997209Y-108788666D01*
X73021019Y-108693428D01*
X73044828Y-108645809D01*
X73068638Y-108622000D01*
X73116257Y-108598190D01*
X73497209Y-109050571D02*
X73521019Y-109074380D01*
X73497209Y-109098190D01*
X73473400Y-109074380D01*
X73497209Y-109050571D01*
X73497209Y-109098190D01*
X73997209Y-109098190D02*
X73711495Y-109098190D01*
X73854352Y-109098190D02*
X73854352Y-108598190D01*
X73806733Y-108669619D01*
X73759114Y-108717238D01*
X73711495Y-108741047D01*
X74425780Y-108764857D02*
X74425780Y-109098190D01*
X74211495Y-108764857D02*
X74211495Y-109026761D01*
X74235304Y-109074380D01*
X74282923Y-109098190D01*
X74354352Y-109098190D01*
X74401971Y-109074380D01*
X74425780Y-109050571D01*
X73640066Y-107620571D02*
X73616257Y-107644380D01*
X73544828Y-107668190D01*
X73497209Y-107668190D01*
X73425780Y-107644380D01*
X73378161Y-107596761D01*
X73354352Y-107549142D01*
X73330542Y-107453904D01*
X73330542Y-107382476D01*
X73354352Y-107287238D01*
X73378161Y-107239619D01*
X73425780Y-107192000D01*
X73497209Y-107168190D01*
X73544828Y-107168190D01*
X73616257Y-107192000D01*
X73640066Y-107215809D01*
X73806733Y-107168190D02*
X74116257Y-107168190D01*
X73949590Y-107358666D01*
X74021019Y-107358666D01*
X74068638Y-107382476D01*
X74092447Y-107406285D01*
X74116257Y-107453904D01*
X74116257Y-107572952D01*
X74092447Y-107620571D01*
X74068638Y-107644380D01*
X74021019Y-107668190D01*
X73878161Y-107668190D01*
X73830542Y-107644380D01*
X73806733Y-107620571D01*
%TO.C,C2*%
X69935019Y-107385657D02*
X69935019Y-107718990D01*
X69815971Y-107195180D02*
X69696923Y-107552323D01*
X70006447Y-107552323D01*
X70196923Y-107671371D02*
X70220733Y-107695180D01*
X70196923Y-107718990D01*
X70173114Y-107695180D01*
X70196923Y-107671371D01*
X70196923Y-107718990D01*
X70387400Y-107218990D02*
X70720733Y-107218990D01*
X70506447Y-107718990D01*
X71125495Y-107385657D02*
X71125495Y-107718990D01*
X70911209Y-107385657D02*
X70911209Y-107647561D01*
X70935019Y-107695180D01*
X70982638Y-107718990D01*
X71054066Y-107718990D01*
X71101685Y-107695180D01*
X71125495Y-107671371D01*
X71530257Y-107457085D02*
X71363590Y-107457085D01*
X71363590Y-107718990D02*
X71363590Y-107218990D01*
X71601685Y-107218990D01*
X70554066Y-107620571D02*
X70530257Y-107644380D01*
X70458828Y-107668190D01*
X70411209Y-107668190D01*
X70339780Y-107644380D01*
X70292161Y-107596761D01*
X70268352Y-107549142D01*
X70244542Y-107453904D01*
X70244542Y-107382476D01*
X70268352Y-107287238D01*
X70292161Y-107239619D01*
X70339780Y-107192000D01*
X70411209Y-107168190D01*
X70458828Y-107168190D01*
X70530257Y-107192000D01*
X70554066Y-107215809D01*
X70744542Y-107215809D02*
X70768352Y-107192000D01*
X70815971Y-107168190D01*
X70935019Y-107168190D01*
X70982638Y-107192000D01*
X71006447Y-107215809D01*
X71030257Y-107263428D01*
X71030257Y-107311047D01*
X71006447Y-107382476D01*
X70720733Y-107668190D01*
X71030257Y-107668190D01*
%TO.C,C1*%
X69934919Y-114302057D02*
X69934919Y-114635390D01*
X69815871Y-114111580D02*
X69696823Y-114468723D01*
X70006347Y-114468723D01*
X70196823Y-114587771D02*
X70220633Y-114611580D01*
X70196823Y-114635390D01*
X70173014Y-114611580D01*
X70196823Y-114587771D01*
X70196823Y-114635390D01*
X70387300Y-114135390D02*
X70720633Y-114135390D01*
X70506347Y-114635390D01*
X71125395Y-114302057D02*
X71125395Y-114635390D01*
X70911109Y-114302057D02*
X70911109Y-114563961D01*
X70934919Y-114611580D01*
X70982538Y-114635390D01*
X71053966Y-114635390D01*
X71101585Y-114611580D01*
X71125395Y-114587771D01*
X71530157Y-114373485D02*
X71363490Y-114373485D01*
X71363490Y-114635390D02*
X71363490Y-114135390D01*
X71601585Y-114135390D01*
X70553966Y-113157771D02*
X70530157Y-113181580D01*
X70458728Y-113205390D01*
X70411109Y-113205390D01*
X70339680Y-113181580D01*
X70292061Y-113133961D01*
X70268252Y-113086342D01*
X70244442Y-112991104D01*
X70244442Y-112919676D01*
X70268252Y-112824438D01*
X70292061Y-112776819D01*
X70339680Y-112729200D01*
X70411109Y-112705390D01*
X70458728Y-112705390D01*
X70530157Y-112729200D01*
X70553966Y-112753009D01*
X71030157Y-113205390D02*
X70744442Y-113205390D01*
X70887300Y-113205390D02*
X70887300Y-112705390D01*
X70839680Y-112776819D01*
X70792061Y-112824438D01*
X70744442Y-112848247D01*
%TO.C,R9*%
X63024480Y-110302190D02*
X62738766Y-110302190D01*
X62881623Y-110302190D02*
X62881623Y-109802190D01*
X62834004Y-109873619D01*
X62786385Y-109921238D01*
X62738766Y-109945047D01*
X63334004Y-109802190D02*
X63381623Y-109802190D01*
X63429242Y-109826000D01*
X63453052Y-109849809D01*
X63476861Y-109897428D01*
X63500671Y-109992666D01*
X63500671Y-110111714D01*
X63476861Y-110206952D01*
X63453052Y-110254571D01*
X63429242Y-110278380D01*
X63381623Y-110302190D01*
X63334004Y-110302190D01*
X63286385Y-110278380D01*
X63262576Y-110254571D01*
X63238766Y-110206952D01*
X63214957Y-110111714D01*
X63214957Y-109992666D01*
X63238766Y-109897428D01*
X63262576Y-109849809D01*
X63286385Y-109826000D01*
X63334004Y-109802190D01*
X63714957Y-110302190D02*
X63714957Y-109802190D01*
X63762576Y-110111714D02*
X63905433Y-110302190D01*
X63905433Y-109968857D02*
X63714957Y-110159333D01*
X63238766Y-111732190D02*
X63072100Y-111494095D01*
X62953052Y-111732190D02*
X62953052Y-111232190D01*
X63143528Y-111232190D01*
X63191147Y-111256000D01*
X63214957Y-111279809D01*
X63238766Y-111327428D01*
X63238766Y-111398857D01*
X63214957Y-111446476D01*
X63191147Y-111470285D01*
X63143528Y-111494095D01*
X62953052Y-111494095D01*
X63476861Y-111732190D02*
X63572100Y-111732190D01*
X63619719Y-111708380D01*
X63643528Y-111684571D01*
X63691147Y-111613142D01*
X63714957Y-111517904D01*
X63714957Y-111327428D01*
X63691147Y-111279809D01*
X63667338Y-111256000D01*
X63619719Y-111232190D01*
X63524480Y-111232190D01*
X63476861Y-111256000D01*
X63453052Y-111279809D01*
X63429242Y-111327428D01*
X63429242Y-111446476D01*
X63453052Y-111494095D01*
X63476861Y-111517904D01*
X63524480Y-111541714D01*
X63619719Y-111541714D01*
X63667338Y-111517904D01*
X63691147Y-111494095D01*
X63714957Y-111446476D01*
%TO.C,R8*%
X89211980Y-108879790D02*
X88926266Y-108879790D01*
X89069123Y-108879790D02*
X89069123Y-108379790D01*
X89021504Y-108451219D01*
X88973885Y-108498838D01*
X88926266Y-108522647D01*
X89521504Y-108379790D02*
X89569123Y-108379790D01*
X89616742Y-108403600D01*
X89640552Y-108427409D01*
X89664361Y-108475028D01*
X89688171Y-108570266D01*
X89688171Y-108689314D01*
X89664361Y-108784552D01*
X89640552Y-108832171D01*
X89616742Y-108855980D01*
X89569123Y-108879790D01*
X89521504Y-108879790D01*
X89473885Y-108855980D01*
X89450076Y-108832171D01*
X89426266Y-108784552D01*
X89402457Y-108689314D01*
X89402457Y-108570266D01*
X89426266Y-108475028D01*
X89450076Y-108427409D01*
X89473885Y-108403600D01*
X89521504Y-108379790D01*
X89902457Y-108879790D02*
X89902457Y-108379790D01*
X89950076Y-108689314D02*
X90092933Y-108879790D01*
X90092933Y-108546457D02*
X89902457Y-108736933D01*
X89426266Y-110309790D02*
X89259600Y-110071695D01*
X89140552Y-110309790D02*
X89140552Y-109809790D01*
X89331028Y-109809790D01*
X89378647Y-109833600D01*
X89402457Y-109857409D01*
X89426266Y-109905028D01*
X89426266Y-109976457D01*
X89402457Y-110024076D01*
X89378647Y-110047885D01*
X89331028Y-110071695D01*
X89140552Y-110071695D01*
X89711980Y-110024076D02*
X89664361Y-110000266D01*
X89640552Y-109976457D01*
X89616742Y-109928838D01*
X89616742Y-109905028D01*
X89640552Y-109857409D01*
X89664361Y-109833600D01*
X89711980Y-109809790D01*
X89807219Y-109809790D01*
X89854838Y-109833600D01*
X89878647Y-109857409D01*
X89902457Y-109905028D01*
X89902457Y-109928838D01*
X89878647Y-109976457D01*
X89854838Y-110000266D01*
X89807219Y-110024076D01*
X89711980Y-110024076D01*
X89664361Y-110047885D01*
X89640552Y-110071695D01*
X89616742Y-110119314D01*
X89616742Y-110214552D01*
X89640552Y-110262171D01*
X89664361Y-110285980D01*
X89711980Y-110309790D01*
X89807219Y-110309790D01*
X89854838Y-110285980D01*
X89878647Y-110262171D01*
X89902457Y-110214552D01*
X89902457Y-110119314D01*
X89878647Y-110071695D01*
X89854838Y-110047885D01*
X89807219Y-110024076D01*
%TO.C,U7*%
X88792857Y-104433333D02*
X88792857Y-104242857D01*
X88626190Y-104361904D02*
X89054761Y-104361904D01*
X89102380Y-104338095D01*
X89126190Y-104290476D01*
X89126190Y-104242857D01*
X88792857Y-104147619D02*
X88792857Y-103957142D01*
X88626190Y-104076190D02*
X89054761Y-104076190D01*
X89102380Y-104052380D01*
X89126190Y-104004761D01*
X89126190Y-103957142D01*
X88792857Y-103576190D02*
X89197619Y-103576190D01*
X89245238Y-103600000D01*
X89269047Y-103623809D01*
X89292857Y-103671428D01*
X89292857Y-103742857D01*
X89269047Y-103790476D01*
X89102380Y-103576190D02*
X89126190Y-103623809D01*
X89126190Y-103719047D01*
X89102380Y-103766666D01*
X89078571Y-103790476D01*
X89030952Y-103814285D01*
X88888095Y-103814285D01*
X88840476Y-103790476D01*
X88816666Y-103766666D01*
X88792857Y-103719047D01*
X88792857Y-103623809D01*
X88816666Y-103576190D01*
X89126190Y-103266666D02*
X89102380Y-103314285D01*
X89078571Y-103338095D01*
X89030952Y-103361904D01*
X88888095Y-103361904D01*
X88840476Y-103338095D01*
X88816666Y-103314285D01*
X88792857Y-103266666D01*
X88792857Y-103195238D01*
X88816666Y-103147619D01*
X88840476Y-103123809D01*
X88888095Y-103100000D01*
X89030952Y-103100000D01*
X89078571Y-103123809D01*
X89102380Y-103147619D01*
X89126190Y-103195238D01*
X89126190Y-103266666D01*
X88935714Y-102885714D02*
X88935714Y-102504761D01*
X88626190Y-102314285D02*
X88626190Y-102004761D01*
X88816666Y-102171428D01*
X88816666Y-102100000D01*
X88840476Y-102052380D01*
X88864285Y-102028571D01*
X88911904Y-102004761D01*
X89030952Y-102004761D01*
X89078571Y-102028571D01*
X89102380Y-102052380D01*
X89126190Y-102100000D01*
X89126190Y-102242857D01*
X89102380Y-102290476D01*
X89078571Y-102314285D01*
X88673809Y-101814285D02*
X88650000Y-101790476D01*
X88626190Y-101742857D01*
X88626190Y-101623809D01*
X88650000Y-101576190D01*
X88673809Y-101552380D01*
X88721428Y-101528571D01*
X88769047Y-101528571D01*
X88840476Y-101552380D01*
X89126190Y-101838095D01*
X89126190Y-101528571D01*
X88935714Y-101314285D02*
X88935714Y-100933333D01*
X89126190Y-100695238D02*
X88792857Y-100695238D01*
X88840476Y-100695238D02*
X88816666Y-100671428D01*
X88792857Y-100623809D01*
X88792857Y-100552380D01*
X88816666Y-100504761D01*
X88864285Y-100480952D01*
X89126190Y-100480952D01*
X88864285Y-100480952D02*
X88816666Y-100457142D01*
X88792857Y-100409523D01*
X88792857Y-100338095D01*
X88816666Y-100290476D01*
X88864285Y-100266666D01*
X89126190Y-100266666D01*
X89126190Y-100028571D02*
X88792857Y-100028571D01*
X88626190Y-100028571D02*
X88650000Y-100052380D01*
X88673809Y-100028571D01*
X88650000Y-100004761D01*
X88626190Y-100028571D01*
X88673809Y-100028571D01*
X89102380Y-99576190D02*
X89126190Y-99623809D01*
X89126190Y-99719047D01*
X89102380Y-99766666D01*
X89078571Y-99790476D01*
X89030952Y-99814285D01*
X88888095Y-99814285D01*
X88840476Y-99790476D01*
X88816666Y-99766666D01*
X88792857Y-99719047D01*
X88792857Y-99623809D01*
X88816666Y-99576190D01*
X89126190Y-99361904D02*
X88792857Y-99361904D01*
X88888095Y-99361904D02*
X88840476Y-99338095D01*
X88816666Y-99314285D01*
X88792857Y-99266666D01*
X88792857Y-99219047D01*
X89126190Y-98980952D02*
X89102380Y-99028571D01*
X89078571Y-99052380D01*
X89030952Y-99076190D01*
X88888095Y-99076190D01*
X88840476Y-99052380D01*
X88816666Y-99028571D01*
X88792857Y-98980952D01*
X88792857Y-98909523D01*
X88816666Y-98861904D01*
X88840476Y-98838095D01*
X88888095Y-98814285D01*
X89030952Y-98814285D01*
X89078571Y-98838095D01*
X89102380Y-98861904D01*
X89126190Y-98909523D01*
X89126190Y-98980952D01*
%TD*%
M02*
