%TF.GenerationSoftware,KiCad,Pcbnew,5.1.7+dfsg1-1~bpo10+1*%
%TF.CreationDate,Date%
%TF.ProjectId,osw-light,6f73772d-6c69-4676-9874-2e6b69636164,3.1*%
%TF.SameCoordinates,Original*%
%TF.FileFunction,Other,Fab,Bot*%
%FSLAX46Y46*%
G04 Gerber Fmt 4.6, Leading zero omitted, Abs format (unit mm)*
G04 Created by KiCad*
%MOMM*%
%LPD*%
G01*
G04 APERTURE LIST*
%ADD10C,0.120000*%
%ADD11C,0.100000*%
G04 APERTURE END LIST*
D10*
%TO.C,U4*%
X66328000Y-106577000D02*
X66328000Y-96877000D01*
X66328000Y-96877000D02*
X64628000Y-96877000D01*
X64228000Y-106277000D02*
X64228000Y-97277000D01*
X66328000Y-106577000D02*
X64528000Y-106577000D01*
X64228000Y-97277000D02*
G75*
G02*
X64628000Y-96877000I400000J0D01*
G01*
X64528000Y-106577000D02*
G75*
G02*
X64228000Y-106277000I0J300000D01*
G01*
%TD*%
%TO.C,U4*%
D11*
X53328000Y-98369857D02*
X53304190Y-98322238D01*
X53304190Y-98250809D01*
X53328000Y-98179380D01*
X53375619Y-98131761D01*
X53423238Y-98107952D01*
X53518476Y-98084142D01*
X53589904Y-98084142D01*
X53685142Y-98107952D01*
X53732761Y-98131761D01*
X53780380Y-98179380D01*
X53804190Y-98250809D01*
X53804190Y-98298428D01*
X53780380Y-98369857D01*
X53756571Y-98393666D01*
X53589904Y-98393666D01*
X53589904Y-98298428D01*
X53756571Y-98893666D02*
X53780380Y-98869857D01*
X53804190Y-98798428D01*
X53804190Y-98750809D01*
X53780380Y-98679380D01*
X53732761Y-98631761D01*
X53685142Y-98607952D01*
X53589904Y-98584142D01*
X53518476Y-98584142D01*
X53423238Y-98607952D01*
X53375619Y-98631761D01*
X53328000Y-98679380D01*
X53304190Y-98750809D01*
X53304190Y-98798428D01*
X53328000Y-98869857D01*
X53351809Y-98893666D01*
X53804190Y-99131761D02*
X53804190Y-99227000D01*
X53780380Y-99274619D01*
X53756571Y-99298428D01*
X53685142Y-99346047D01*
X53589904Y-99369857D01*
X53399428Y-99369857D01*
X53351809Y-99346047D01*
X53328000Y-99322238D01*
X53304190Y-99274619D01*
X53304190Y-99179380D01*
X53328000Y-99131761D01*
X53351809Y-99107952D01*
X53399428Y-99084142D01*
X53518476Y-99084142D01*
X53566095Y-99107952D01*
X53589904Y-99131761D01*
X53613714Y-99179380D01*
X53613714Y-99274619D01*
X53589904Y-99322238D01*
X53566095Y-99346047D01*
X53518476Y-99369857D01*
X53661333Y-99560333D02*
X53661333Y-99798428D01*
X53804190Y-99512714D02*
X53304190Y-99679380D01*
X53804190Y-99846047D01*
X53304190Y-100107952D02*
X53304190Y-100155571D01*
X53328000Y-100203190D01*
X53351809Y-100227000D01*
X53399428Y-100250809D01*
X53494666Y-100274619D01*
X53613714Y-100274619D01*
X53708952Y-100250809D01*
X53756571Y-100227000D01*
X53780380Y-100203190D01*
X53804190Y-100155571D01*
X53804190Y-100107952D01*
X53780380Y-100060333D01*
X53756571Y-100036523D01*
X53708952Y-100012714D01*
X53613714Y-99988904D01*
X53494666Y-99988904D01*
X53399428Y-100012714D01*
X53351809Y-100036523D01*
X53328000Y-100060333D01*
X53304190Y-100107952D01*
X53804190Y-100750809D02*
X53804190Y-100465095D01*
X53804190Y-100607952D02*
X53304190Y-100607952D01*
X53375619Y-100560333D01*
X53423238Y-100512714D01*
X53447047Y-100465095D01*
X53851809Y-100846047D02*
X53851809Y-101227000D01*
X53804190Y-101346047D02*
X53304190Y-101346047D01*
X53804190Y-101584142D02*
X53304190Y-101584142D01*
X53304190Y-101774619D01*
X53328000Y-101822238D01*
X53351809Y-101846047D01*
X53399428Y-101869857D01*
X53470857Y-101869857D01*
X53518476Y-101846047D01*
X53542285Y-101822238D01*
X53566095Y-101774619D01*
X53566095Y-101584142D01*
X53780380Y-102060333D02*
X53804190Y-102131761D01*
X53804190Y-102250809D01*
X53780380Y-102298428D01*
X53756571Y-102322238D01*
X53708952Y-102346047D01*
X53661333Y-102346047D01*
X53613714Y-102322238D01*
X53589904Y-102298428D01*
X53566095Y-102250809D01*
X53542285Y-102155571D01*
X53518476Y-102107952D01*
X53494666Y-102084142D01*
X53447047Y-102060333D01*
X53399428Y-102060333D01*
X53351809Y-102084142D01*
X53328000Y-102107952D01*
X53304190Y-102155571D01*
X53304190Y-102274619D01*
X53328000Y-102346047D01*
X53851809Y-102441285D02*
X53851809Y-102822238D01*
X53804190Y-103155571D02*
X53304190Y-103155571D01*
X53780380Y-103155571D02*
X53804190Y-103107952D01*
X53804190Y-103012714D01*
X53780380Y-102965095D01*
X53756571Y-102941285D01*
X53708952Y-102917476D01*
X53566095Y-102917476D01*
X53518476Y-102941285D01*
X53494666Y-102965095D01*
X53470857Y-103012714D01*
X53470857Y-103107952D01*
X53494666Y-103155571D01*
X53804190Y-103393666D02*
X53470857Y-103393666D01*
X53304190Y-103393666D02*
X53328000Y-103369857D01*
X53351809Y-103393666D01*
X53328000Y-103417476D01*
X53304190Y-103393666D01*
X53351809Y-103393666D01*
X53780380Y-103607952D02*
X53804190Y-103655571D01*
X53804190Y-103750809D01*
X53780380Y-103798428D01*
X53732761Y-103822238D01*
X53708952Y-103822238D01*
X53661333Y-103798428D01*
X53637523Y-103750809D01*
X53637523Y-103679380D01*
X53613714Y-103631761D01*
X53566095Y-103607952D01*
X53542285Y-103607952D01*
X53494666Y-103631761D01*
X53470857Y-103679380D01*
X53470857Y-103750809D01*
X53494666Y-103798428D01*
X53470857Y-104036523D02*
X53970857Y-104036523D01*
X53494666Y-104036523D02*
X53470857Y-104084142D01*
X53470857Y-104179380D01*
X53494666Y-104227000D01*
X53518476Y-104250809D01*
X53566095Y-104274619D01*
X53708952Y-104274619D01*
X53756571Y-104250809D01*
X53780380Y-104227000D01*
X53804190Y-104179380D01*
X53804190Y-104084142D01*
X53780380Y-104036523D01*
X53804190Y-104560333D02*
X53780380Y-104512714D01*
X53732761Y-104488904D01*
X53304190Y-104488904D01*
X53804190Y-104965095D02*
X53542285Y-104965095D01*
X53494666Y-104941285D01*
X53470857Y-104893666D01*
X53470857Y-104798428D01*
X53494666Y-104750809D01*
X53780380Y-104965095D02*
X53804190Y-104917476D01*
X53804190Y-104798428D01*
X53780380Y-104750809D01*
X53732761Y-104727000D01*
X53685142Y-104727000D01*
X53637523Y-104750809D01*
X53613714Y-104798428D01*
X53613714Y-104917476D01*
X53589904Y-104965095D01*
X53470857Y-105155571D02*
X53804190Y-105274619D01*
X53470857Y-105393666D02*
X53804190Y-105274619D01*
X53923238Y-105227000D01*
X53947047Y-105203190D01*
X53970857Y-105155571D01*
%TD*%
M02*
