%TF.GenerationSoftware,KiCad,Pcbnew,5.1.5+dfsg1-2~bpo10+1*%
%TF.CreationDate,Date%
%TF.ProjectId,osw-light,6f73772d-6c69-4676-9874-2e6b69636164,1.0*%
%TF.SameCoordinates,Original*%
%TF.FileFunction,Other,User*%
%FSLAX46Y46*%
G04 Gerber Fmt 4.6, Leading zero omitted, Abs format (unit mm)*
G04 Created by KiCad*
%MOMM*%
%LPD*%
G04 APERTURE LIST*
%ADD10C,0.050000*%
G04 APERTURE END LIST*
D10*
%TO.C,U5*%
X71818500Y-113982500D02*
X71818500Y-120459500D01*
X71818500Y-120459500D02*
X80581500Y-120465500D01*
X80581500Y-120459500D02*
X80581500Y-113982500D01*
X80581500Y-113982500D02*
X71818500Y-113982500D01*
%TO.C,J1*%
X62760000Y-106819700D02*
X62760000Y-102374700D01*
X62760000Y-102374700D02*
X59160000Y-102374700D01*
X59160000Y-102374700D02*
X59160000Y-106819700D01*
X59160000Y-106819700D02*
X62760000Y-106819700D01*
%TO.C,R18*%
X70834500Y-90697500D02*
X70834500Y-87737500D01*
X72294500Y-90697500D02*
X70834500Y-90697500D01*
X72294500Y-87737500D02*
X72294500Y-90697500D01*
X70834500Y-87737500D02*
X72294500Y-87737500D01*
%TO.C,C11*%
X72294500Y-84626000D02*
X72294500Y-87586000D01*
X70834500Y-84626000D02*
X72294500Y-84626000D01*
X70834500Y-87586000D02*
X70834500Y-84626000D01*
X72294500Y-87586000D02*
X70834500Y-87586000D01*
%TO.C,C22*%
X62389000Y-102191000D02*
X62389000Y-99231000D01*
X63849000Y-102191000D02*
X62389000Y-102191000D01*
X63849000Y-99231000D02*
X63849000Y-102191000D01*
X62389000Y-99231000D02*
X63849000Y-99231000D01*
%TO.C,U13*%
X66983200Y-97404000D02*
X66983200Y-93604000D01*
X66983200Y-93604000D02*
X70583200Y-93604000D01*
X70583200Y-93604000D02*
X70583200Y-97404000D01*
X70583200Y-97404000D02*
X66983200Y-97404000D01*
%TO.C,U12*%
X74173000Y-113750500D02*
X77973000Y-113750500D01*
X74173000Y-110150500D02*
X74173000Y-113750500D01*
X77973000Y-110150500D02*
X74173000Y-110150500D01*
X77973000Y-113750500D02*
X77973000Y-110150500D01*
%TO.C,U10*%
X71606000Y-97404000D02*
X71606000Y-93604000D01*
X71606000Y-93604000D02*
X75206000Y-93604000D01*
X75206000Y-93604000D02*
X75206000Y-97404000D01*
X75206000Y-97404000D02*
X71606000Y-97404000D01*
%TO.C,R22*%
X60623200Y-102191000D02*
X59163200Y-102191000D01*
X59163200Y-102191000D02*
X59163200Y-99231000D01*
X59163200Y-99231000D02*
X60623200Y-99231000D01*
X60623200Y-99231000D02*
X60623200Y-102191000D01*
%TO.C,R21*%
X60814200Y-99205500D02*
X62274200Y-99205500D01*
X62274200Y-99205500D02*
X62274200Y-102165500D01*
X62274200Y-102165500D02*
X60814200Y-102165500D01*
X60814200Y-102165500D02*
X60814200Y-99205500D01*
%TO.C,R20*%
X66820800Y-97390400D02*
X65360800Y-97390400D01*
X65360800Y-97390400D02*
X65360800Y-94430400D01*
X65360800Y-94430400D02*
X66820800Y-94430400D01*
X66820800Y-94430400D02*
X66820800Y-97390400D01*
%TO.C,C19*%
X67709500Y-91916000D02*
X67709500Y-90456000D01*
X67709500Y-90456000D02*
X70669500Y-90456000D01*
X70669500Y-90456000D02*
X70669500Y-91916000D01*
X70669500Y-91916000D02*
X67709500Y-91916000D01*
%TO.C,C18*%
X72408600Y-91916000D02*
X72408600Y-90456000D01*
X72408600Y-90456000D02*
X75368600Y-90456000D01*
X75368600Y-90456000D02*
X75368600Y-91916000D01*
X75368600Y-91916000D02*
X72408600Y-91916000D01*
%TO.C,C17*%
X67709500Y-93503500D02*
X67709500Y-92043500D01*
X67709500Y-92043500D02*
X70669500Y-92043500D01*
X70669500Y-92043500D02*
X70669500Y-93503500D01*
X70669500Y-93503500D02*
X67709500Y-93503500D01*
%TO.C,C16*%
X72408600Y-93503500D02*
X72408600Y-92043500D01*
X72408600Y-92043500D02*
X75368600Y-92043500D01*
X75368600Y-92043500D02*
X75368600Y-93503500D01*
X75368600Y-93503500D02*
X72408600Y-93503500D01*
%TO.C,C15*%
X67608000Y-98977200D02*
X67608000Y-97517200D01*
X67608000Y-97517200D02*
X70568000Y-97517200D01*
X70568000Y-97517200D02*
X70568000Y-98977200D01*
X70568000Y-98977200D02*
X67608000Y-98977200D01*
%TO.C,C14*%
X72230800Y-98977200D02*
X72230800Y-97517200D01*
X72230800Y-97517200D02*
X75190800Y-97517200D01*
X75190800Y-97517200D02*
X75190800Y-98977200D01*
X75190800Y-98977200D02*
X72230800Y-98977200D01*
%TO.C,C6*%
X65995200Y-101297600D02*
X65995200Y-99057600D01*
X65995200Y-99057600D02*
X70555200Y-99057600D01*
X70555200Y-99057600D02*
X70555200Y-101297600D01*
X70555200Y-101297600D02*
X65995200Y-101297600D01*
%TO.C,C5*%
X70640400Y-101297600D02*
X70640400Y-99057600D01*
X70640400Y-99057600D02*
X75200400Y-99057600D01*
X75200400Y-99057600D02*
X75200400Y-101297600D01*
X75200400Y-101297600D02*
X70640400Y-101297600D01*
%TO.C,U2*%
X80294800Y-94010800D02*
X77794800Y-94010800D01*
X77794800Y-94010800D02*
X77794800Y-91510800D01*
X77794800Y-91510800D02*
X80294800Y-91510800D01*
X80294800Y-91510800D02*
X80294800Y-94010800D01*
%TO.C,U9*%
X75173200Y-106550400D02*
X75173200Y-103050400D01*
X75173200Y-103050400D02*
X67473200Y-103050400D01*
X67473200Y-103050400D02*
X67473200Y-106550400D01*
X67473200Y-106550400D02*
X75173200Y-106550400D01*
%TO.C,R19*%
X75190800Y-102888800D02*
X72230800Y-102888800D01*
X75190800Y-101428800D02*
X75190800Y-102888800D01*
X72230800Y-101428800D02*
X75190800Y-101428800D01*
X72230800Y-102888800D02*
X72230800Y-101428800D01*
%TO.C,C13*%
X77387200Y-89401200D02*
X77387200Y-92361200D01*
X75927200Y-89401200D02*
X77387200Y-89401200D01*
X75927200Y-92361200D02*
X75927200Y-89401200D01*
X77387200Y-92361200D02*
X75927200Y-92361200D01*
%TO.C,C12*%
X80942900Y-91014800D02*
X83902900Y-91014800D01*
X80942900Y-92474800D02*
X80942900Y-91014800D01*
X83902900Y-92474800D02*
X80942900Y-92474800D01*
X83902900Y-91014800D02*
X83902900Y-92474800D01*
%TO.C,C9*%
X87789200Y-112490000D02*
X84829200Y-112490000D01*
X87789200Y-111030000D02*
X87789200Y-112490000D01*
X84829200Y-111030000D02*
X87789200Y-111030000D01*
X84829200Y-112490000D02*
X84829200Y-111030000D01*
%TO.C,C8*%
X87546900Y-92488000D02*
X90506900Y-92488000D01*
X87546900Y-93948000D02*
X87546900Y-92488000D01*
X90506900Y-93948000D02*
X87546900Y-93948000D01*
X90506900Y-92488000D02*
X90506900Y-93948000D01*
%TO.C,R17*%
X61867600Y-109201200D02*
X64827600Y-109201200D01*
X61867600Y-110661200D02*
X61867600Y-109201200D01*
X64827600Y-110661200D02*
X61867600Y-110661200D01*
X64827600Y-109201200D02*
X64827600Y-110661200D01*
%TO.C,R16*%
X64827600Y-109086400D02*
X61867600Y-109086400D01*
X64827600Y-107626400D02*
X64827600Y-109086400D01*
X61867600Y-107626400D02*
X64827600Y-107626400D01*
X61867600Y-109086400D02*
X61867600Y-107626400D01*
%TO.C,R7*%
X77894900Y-90900000D02*
X77894900Y-89440000D01*
X77894900Y-89440000D02*
X80854900Y-89440000D01*
X80854900Y-89440000D02*
X80854900Y-90900000D01*
X80854900Y-90900000D02*
X77894900Y-90900000D01*
%TO.C,R6*%
X83928400Y-89440000D02*
X83928400Y-90900000D01*
X83928400Y-90900000D02*
X80968400Y-90900000D01*
X80968400Y-90900000D02*
X80968400Y-89440000D01*
X80968400Y-89440000D02*
X83928400Y-89440000D01*
%TO.C,U3*%
X84450400Y-94006000D02*
X84450400Y-90906000D01*
X84450400Y-90906000D02*
X87050400Y-90906000D01*
X87050400Y-90906000D02*
X87050400Y-94006000D01*
X87050400Y-94006000D02*
X84450400Y-94006000D01*
%TO.C,U1*%
X72436500Y-83964800D02*
X72436500Y-89364800D01*
X72436500Y-89364800D02*
X79836500Y-89364800D01*
X79836500Y-89364800D02*
X79836500Y-83964800D01*
X79836500Y-83964800D02*
X72436500Y-83964800D01*
%TO.C,U6*%
X78333200Y-110062400D02*
X78333200Y-113762400D01*
X84633200Y-110062400D02*
X84633200Y-113762400D01*
X78333200Y-110062400D02*
X84633200Y-110062400D01*
X78333200Y-113762400D02*
X84633200Y-113762400D01*
%TO.C,U11*%
X73224800Y-108336000D02*
X73224800Y-112136000D01*
X73224800Y-112136000D02*
X69624800Y-112136000D01*
X69624800Y-112136000D02*
X69624800Y-108336000D01*
X69624800Y-108336000D02*
X73224800Y-108336000D01*
%TO.C,R11*%
X87546900Y-92373200D02*
X87546900Y-90913200D01*
X87546900Y-90913200D02*
X90506900Y-90913200D01*
X90506900Y-90913200D02*
X90506900Y-92373200D01*
X90506900Y-92373200D02*
X87546900Y-92373200D01*
%TO.C,R10*%
X64726000Y-90913200D02*
X64726000Y-92373200D01*
X64726000Y-92373200D02*
X61766000Y-92373200D01*
X61766000Y-92373200D02*
X61766000Y-90913200D01*
X61766000Y-90913200D02*
X64726000Y-90913200D01*
%TO.C,R14*%
X72092000Y-101428800D02*
X72092000Y-102888800D01*
X72092000Y-102888800D02*
X69132000Y-102888800D01*
X69132000Y-102888800D02*
X69132000Y-101428800D01*
X69132000Y-101428800D02*
X72092000Y-101428800D01*
%TO.C,R4*%
X84829200Y-110839000D02*
X84829200Y-109379000D01*
X84829200Y-109379000D02*
X87789200Y-109379000D01*
X87789200Y-109379000D02*
X87789200Y-110839000D01*
X87789200Y-110839000D02*
X84829200Y-110839000D01*
%TO.C,R15*%
X69005900Y-106712000D02*
X69005900Y-108172000D01*
X69005900Y-108172000D02*
X66045900Y-108172000D01*
X66045900Y-108172000D02*
X66045900Y-106712000D01*
X66045900Y-106712000D02*
X69005900Y-106712000D01*
%TO.C,R13*%
X66084000Y-112236000D02*
X66084000Y-110776000D01*
X66084000Y-110776000D02*
X69044000Y-110776000D01*
X69044000Y-110776000D02*
X69044000Y-112236000D01*
X69044000Y-112236000D02*
X66084000Y-112236000D01*
%TO.C,R1*%
X63582800Y-94430400D02*
X65042800Y-94430400D01*
X65042800Y-94430400D02*
X65042800Y-97390400D01*
X65042800Y-97390400D02*
X63582800Y-97390400D01*
X63582800Y-97390400D02*
X63582800Y-94430400D01*
%TO.C,Q1*%
X60072800Y-94871600D02*
X63472800Y-94871600D01*
X63472800Y-94871600D02*
X63472800Y-98371600D01*
X63472800Y-98371600D02*
X60072800Y-98371600D01*
X60072800Y-98371600D02*
X60072800Y-94871600D01*
%TO.C,D1*%
X66087200Y-110474800D02*
X66087200Y-108574800D01*
X66087200Y-108574800D02*
X69447200Y-108574800D01*
X69447200Y-108574800D02*
X69447200Y-110474800D01*
X69447200Y-110474800D02*
X66087200Y-110474800D01*
%TO.C,C4*%
X65945200Y-106051600D02*
X65945200Y-107511600D01*
X65945200Y-107511600D02*
X62985200Y-107511600D01*
X62985200Y-107511600D02*
X62985200Y-106051600D01*
X62985200Y-106051600D02*
X65945200Y-106051600D01*
%TO.C,C3*%
X72243400Y-108172000D02*
X72243400Y-106712000D01*
X72243400Y-106712000D02*
X75203400Y-106712000D01*
X75203400Y-106712000D02*
X75203400Y-108172000D01*
X75203400Y-108172000D02*
X72243400Y-108172000D01*
%TO.C,C2*%
X69157400Y-108172000D02*
X69157400Y-106712000D01*
X69157400Y-106712000D02*
X72117400Y-106712000D01*
X72117400Y-106712000D02*
X72117400Y-108172000D01*
X72117400Y-108172000D02*
X69157400Y-108172000D01*
%TO.C,C1*%
X69157300Y-113709200D02*
X69157300Y-112249200D01*
X69157300Y-112249200D02*
X72117300Y-112249200D01*
X72117300Y-112249200D02*
X72117300Y-113709200D01*
X72117300Y-113709200D02*
X69157300Y-113709200D01*
%TO.C,R9*%
X64802100Y-110776000D02*
X64802100Y-112236000D01*
X64802100Y-112236000D02*
X61842100Y-112236000D01*
X61842100Y-112236000D02*
X61842100Y-110776000D01*
X61842100Y-110776000D02*
X64802100Y-110776000D01*
%TO.C,R8*%
X90989600Y-109353600D02*
X90989600Y-110813600D01*
X90989600Y-110813600D02*
X88029600Y-110813600D01*
X88029600Y-110813600D02*
X88029600Y-109353600D01*
X88029600Y-109353600D02*
X90989600Y-109353600D01*
%TD*%
M02*
