%TF.GenerationSoftware,KiCad,Pcbnew,5.1.5+dfsg1-2~bpo10+1*%
%TF.CreationDate,Date%
%TF.ProjectId,osw,6f73772e-6b69-4636-9164-5f7063625858,rev?*%
%TF.SameCoordinates,Original*%
%TF.FileFunction,Paste,Top*%
%TF.FilePolarity,Positive*%
%FSLAX46Y46*%
G04 Gerber Fmt 4.6, Leading zero omitted, Abs format (unit mm)*
G04 Created by KiCad*
%MOMM*%
%LPD*%
G04 APERTURE LIST*
%ADD10C,0.100000*%
%ADD11R,7.300000X2.650000*%
%ADD12R,0.375000X0.350000*%
%ADD13R,0.350000X0.375000*%
%ADD14R,2.200000X1.200000*%
%ADD15R,1.400000X1.600000*%
%ADD16R,1.400000X1.200000*%
%ADD17R,1.600000X0.700000*%
%ADD18R,0.700000X1.500000*%
%ADD19R,1.500000X0.700000*%
%ADD20O,1.000000X1.000000*%
%ADD21C,1.000000*%
%ADD22R,1.400000X0.300000*%
%ADD23R,1.000000X1.000000*%
%ADD24R,2.200000X1.050000*%
%ADD25R,0.350000X0.500000*%
%ADD26R,0.650000X1.060000*%
%ADD27R,0.800000X0.900000*%
%ADD28R,0.400000X1.350000*%
%ADD29O,1.500000X2.000000*%
%ADD30R,2.000000X2.000000*%
%ADD31R,0.600000X1.524000*%
%ADD32R,1.524000X0.600000*%
G04 APERTURE END LIST*
D10*
%TO.C,U7*%
G36*
X174916000Y-110500000D02*
G01*
X176716000Y-110500000D01*
X176716000Y-112300000D01*
X174916000Y-112300000D01*
X174916000Y-110500000D01*
G37*
X174916000Y-110500000D02*
X176716000Y-110500000D01*
X176716000Y-112300000D01*
X174916000Y-112300000D01*
X174916000Y-110500000D01*
G36*
X172616000Y-110500000D02*
G01*
X174416000Y-110500000D01*
X174416000Y-112300000D01*
X172616000Y-112300000D01*
X172616000Y-110500000D01*
G37*
X172616000Y-110500000D02*
X174416000Y-110500000D01*
X174416000Y-112300000D01*
X172616000Y-112300000D01*
X172616000Y-110500000D01*
G36*
X172616000Y-112800000D02*
G01*
X174416000Y-112800000D01*
X174416000Y-114600000D01*
X172616000Y-114600000D01*
X172616000Y-112800000D01*
G37*
X172616000Y-112800000D02*
X174416000Y-112800000D01*
X174416000Y-114600000D01*
X172616000Y-114600000D01*
X172616000Y-112800000D01*
G36*
X174916000Y-112800000D02*
G01*
X176716000Y-112800000D01*
X176716000Y-114600000D01*
X174916000Y-114600000D01*
X174916000Y-112800000D01*
G37*
X174916000Y-112800000D02*
X176716000Y-112800000D01*
X176716000Y-114600000D01*
X174916000Y-114600000D01*
X174916000Y-112800000D01*
%TD*%
D11*
%TO.C,L1*%
X162900000Y-122525000D03*
X162900000Y-117875000D03*
%TD*%
D12*
%TO.C,U2*%
X179937500Y-101350000D03*
X179937500Y-101850000D03*
X181462500Y-101350000D03*
X181462500Y-101850000D03*
X179937500Y-102350000D03*
X181462500Y-102350000D03*
X179937500Y-100850000D03*
X181462500Y-100850000D03*
D13*
X180450000Y-102362500D03*
X180950000Y-102362500D03*
X180950000Y-100837500D03*
X180450000Y-100837500D03*
%TD*%
D14*
%TO.C,XS1*%
X142600000Y-115550000D03*
X142600000Y-100050000D03*
D15*
X152200000Y-114650000D03*
D16*
X152200000Y-100050000D03*
D17*
X152700000Y-101200000D03*
X152700000Y-103400000D03*
X152700000Y-102300000D03*
X152700000Y-104500000D03*
X152700000Y-105600000D03*
X152700000Y-106700000D03*
X152700000Y-110000000D03*
X152700000Y-108900000D03*
X152700000Y-107800000D03*
%TD*%
D18*
%TO.C,U8*%
X160000000Y-103000000D03*
X161000000Y-103000000D03*
X162000000Y-103000000D03*
X159000000Y-103000000D03*
X158000000Y-103000000D03*
D19*
X155220000Y-102275000D03*
X155220000Y-101275000D03*
X155220000Y-100275000D03*
X155220000Y-99275000D03*
X155220000Y-98275000D03*
X155220000Y-97275000D03*
X155220000Y-96275000D03*
X155220000Y-95275000D03*
X155220000Y-94275000D03*
X155220000Y-93275000D03*
X155220000Y-92275000D03*
X155220000Y-91275000D03*
X155220000Y-90125000D03*
X164780000Y-90125000D03*
X164780000Y-93275000D03*
X164780000Y-102275000D03*
X164780000Y-91275000D03*
X164780000Y-98275000D03*
X164780000Y-92275000D03*
X164780000Y-97275000D03*
X164780000Y-94275000D03*
X164780000Y-95275000D03*
X164780000Y-100275000D03*
X164780000Y-96275000D03*
X164780000Y-101275000D03*
X164780000Y-99275000D03*
%TD*%
D10*
%TO.C,U9*%
G36*
X142834802Y-117325482D02*
G01*
X142844509Y-117326921D01*
X142854028Y-117329306D01*
X142863268Y-117332612D01*
X142872140Y-117336808D01*
X142880557Y-117341853D01*
X142888439Y-117347699D01*
X142895711Y-117354289D01*
X142902301Y-117361561D01*
X142908147Y-117369443D01*
X142913192Y-117377860D01*
X142917388Y-117386732D01*
X142920694Y-117395972D01*
X142923079Y-117405491D01*
X142924518Y-117415198D01*
X142925000Y-117425000D01*
X142925000Y-117625000D01*
X142924518Y-117634802D01*
X142923079Y-117644509D01*
X142920694Y-117654028D01*
X142917388Y-117663268D01*
X142913192Y-117672140D01*
X142908147Y-117680557D01*
X142902301Y-117688439D01*
X142895711Y-117695711D01*
X142888439Y-117702301D01*
X142880557Y-117708147D01*
X142872140Y-117713192D01*
X142863268Y-117717388D01*
X142854028Y-117720694D01*
X142844509Y-117723079D01*
X142834802Y-117724518D01*
X142825000Y-117725000D01*
X141550000Y-117725000D01*
X141540198Y-117724518D01*
X141530491Y-117723079D01*
X141520972Y-117720694D01*
X141511732Y-117717388D01*
X141502860Y-117713192D01*
X141494443Y-117708147D01*
X141486561Y-117702301D01*
X141479289Y-117695711D01*
X141472699Y-117688439D01*
X141466853Y-117680557D01*
X141461808Y-117672140D01*
X141457612Y-117663268D01*
X141454306Y-117654028D01*
X141451921Y-117644509D01*
X141450482Y-117634802D01*
X141450000Y-117625000D01*
X141450000Y-117425000D01*
X141450482Y-117415198D01*
X141451921Y-117405491D01*
X141454306Y-117395972D01*
X141457612Y-117386732D01*
X141461808Y-117377860D01*
X141466853Y-117369443D01*
X141472699Y-117361561D01*
X141479289Y-117354289D01*
X141486561Y-117347699D01*
X141494443Y-117341853D01*
X141502860Y-117336808D01*
X141511732Y-117332612D01*
X141520972Y-117329306D01*
X141530491Y-117326921D01*
X141540198Y-117325482D01*
X141550000Y-117325000D01*
X142825000Y-117325000D01*
X142834802Y-117325482D01*
G37*
G36*
X142834802Y-117975482D02*
G01*
X142844509Y-117976921D01*
X142854028Y-117979306D01*
X142863268Y-117982612D01*
X142872140Y-117986808D01*
X142880557Y-117991853D01*
X142888439Y-117997699D01*
X142895711Y-118004289D01*
X142902301Y-118011561D01*
X142908147Y-118019443D01*
X142913192Y-118027860D01*
X142917388Y-118036732D01*
X142920694Y-118045972D01*
X142923079Y-118055491D01*
X142924518Y-118065198D01*
X142925000Y-118075000D01*
X142925000Y-118275000D01*
X142924518Y-118284802D01*
X142923079Y-118294509D01*
X142920694Y-118304028D01*
X142917388Y-118313268D01*
X142913192Y-118322140D01*
X142908147Y-118330557D01*
X142902301Y-118338439D01*
X142895711Y-118345711D01*
X142888439Y-118352301D01*
X142880557Y-118358147D01*
X142872140Y-118363192D01*
X142863268Y-118367388D01*
X142854028Y-118370694D01*
X142844509Y-118373079D01*
X142834802Y-118374518D01*
X142825000Y-118375000D01*
X141550000Y-118375000D01*
X141540198Y-118374518D01*
X141530491Y-118373079D01*
X141520972Y-118370694D01*
X141511732Y-118367388D01*
X141502860Y-118363192D01*
X141494443Y-118358147D01*
X141486561Y-118352301D01*
X141479289Y-118345711D01*
X141472699Y-118338439D01*
X141466853Y-118330557D01*
X141461808Y-118322140D01*
X141457612Y-118313268D01*
X141454306Y-118304028D01*
X141451921Y-118294509D01*
X141450482Y-118284802D01*
X141450000Y-118275000D01*
X141450000Y-118075000D01*
X141450482Y-118065198D01*
X141451921Y-118055491D01*
X141454306Y-118045972D01*
X141457612Y-118036732D01*
X141461808Y-118027860D01*
X141466853Y-118019443D01*
X141472699Y-118011561D01*
X141479289Y-118004289D01*
X141486561Y-117997699D01*
X141494443Y-117991853D01*
X141502860Y-117986808D01*
X141511732Y-117982612D01*
X141520972Y-117979306D01*
X141530491Y-117976921D01*
X141540198Y-117975482D01*
X141550000Y-117975000D01*
X142825000Y-117975000D01*
X142834802Y-117975482D01*
G37*
G36*
X142834802Y-118625482D02*
G01*
X142844509Y-118626921D01*
X142854028Y-118629306D01*
X142863268Y-118632612D01*
X142872140Y-118636808D01*
X142880557Y-118641853D01*
X142888439Y-118647699D01*
X142895711Y-118654289D01*
X142902301Y-118661561D01*
X142908147Y-118669443D01*
X142913192Y-118677860D01*
X142917388Y-118686732D01*
X142920694Y-118695972D01*
X142923079Y-118705491D01*
X142924518Y-118715198D01*
X142925000Y-118725000D01*
X142925000Y-118925000D01*
X142924518Y-118934802D01*
X142923079Y-118944509D01*
X142920694Y-118954028D01*
X142917388Y-118963268D01*
X142913192Y-118972140D01*
X142908147Y-118980557D01*
X142902301Y-118988439D01*
X142895711Y-118995711D01*
X142888439Y-119002301D01*
X142880557Y-119008147D01*
X142872140Y-119013192D01*
X142863268Y-119017388D01*
X142854028Y-119020694D01*
X142844509Y-119023079D01*
X142834802Y-119024518D01*
X142825000Y-119025000D01*
X141550000Y-119025000D01*
X141540198Y-119024518D01*
X141530491Y-119023079D01*
X141520972Y-119020694D01*
X141511732Y-119017388D01*
X141502860Y-119013192D01*
X141494443Y-119008147D01*
X141486561Y-119002301D01*
X141479289Y-118995711D01*
X141472699Y-118988439D01*
X141466853Y-118980557D01*
X141461808Y-118972140D01*
X141457612Y-118963268D01*
X141454306Y-118954028D01*
X141451921Y-118944509D01*
X141450482Y-118934802D01*
X141450000Y-118925000D01*
X141450000Y-118725000D01*
X141450482Y-118715198D01*
X141451921Y-118705491D01*
X141454306Y-118695972D01*
X141457612Y-118686732D01*
X141461808Y-118677860D01*
X141466853Y-118669443D01*
X141472699Y-118661561D01*
X141479289Y-118654289D01*
X141486561Y-118647699D01*
X141494443Y-118641853D01*
X141502860Y-118636808D01*
X141511732Y-118632612D01*
X141520972Y-118629306D01*
X141530491Y-118626921D01*
X141540198Y-118625482D01*
X141550000Y-118625000D01*
X142825000Y-118625000D01*
X142834802Y-118625482D01*
G37*
G36*
X142834802Y-119275482D02*
G01*
X142844509Y-119276921D01*
X142854028Y-119279306D01*
X142863268Y-119282612D01*
X142872140Y-119286808D01*
X142880557Y-119291853D01*
X142888439Y-119297699D01*
X142895711Y-119304289D01*
X142902301Y-119311561D01*
X142908147Y-119319443D01*
X142913192Y-119327860D01*
X142917388Y-119336732D01*
X142920694Y-119345972D01*
X142923079Y-119355491D01*
X142924518Y-119365198D01*
X142925000Y-119375000D01*
X142925000Y-119575000D01*
X142924518Y-119584802D01*
X142923079Y-119594509D01*
X142920694Y-119604028D01*
X142917388Y-119613268D01*
X142913192Y-119622140D01*
X142908147Y-119630557D01*
X142902301Y-119638439D01*
X142895711Y-119645711D01*
X142888439Y-119652301D01*
X142880557Y-119658147D01*
X142872140Y-119663192D01*
X142863268Y-119667388D01*
X142854028Y-119670694D01*
X142844509Y-119673079D01*
X142834802Y-119674518D01*
X142825000Y-119675000D01*
X141550000Y-119675000D01*
X141540198Y-119674518D01*
X141530491Y-119673079D01*
X141520972Y-119670694D01*
X141511732Y-119667388D01*
X141502860Y-119663192D01*
X141494443Y-119658147D01*
X141486561Y-119652301D01*
X141479289Y-119645711D01*
X141472699Y-119638439D01*
X141466853Y-119630557D01*
X141461808Y-119622140D01*
X141457612Y-119613268D01*
X141454306Y-119604028D01*
X141451921Y-119594509D01*
X141450482Y-119584802D01*
X141450000Y-119575000D01*
X141450000Y-119375000D01*
X141450482Y-119365198D01*
X141451921Y-119355491D01*
X141454306Y-119345972D01*
X141457612Y-119336732D01*
X141461808Y-119327860D01*
X141466853Y-119319443D01*
X141472699Y-119311561D01*
X141479289Y-119304289D01*
X141486561Y-119297699D01*
X141494443Y-119291853D01*
X141502860Y-119286808D01*
X141511732Y-119282612D01*
X141520972Y-119279306D01*
X141530491Y-119276921D01*
X141540198Y-119275482D01*
X141550000Y-119275000D01*
X142825000Y-119275000D01*
X142834802Y-119275482D01*
G37*
G36*
X148559802Y-119275482D02*
G01*
X148569509Y-119276921D01*
X148579028Y-119279306D01*
X148588268Y-119282612D01*
X148597140Y-119286808D01*
X148605557Y-119291853D01*
X148613439Y-119297699D01*
X148620711Y-119304289D01*
X148627301Y-119311561D01*
X148633147Y-119319443D01*
X148638192Y-119327860D01*
X148642388Y-119336732D01*
X148645694Y-119345972D01*
X148648079Y-119355491D01*
X148649518Y-119365198D01*
X148650000Y-119375000D01*
X148650000Y-119575000D01*
X148649518Y-119584802D01*
X148648079Y-119594509D01*
X148645694Y-119604028D01*
X148642388Y-119613268D01*
X148638192Y-119622140D01*
X148633147Y-119630557D01*
X148627301Y-119638439D01*
X148620711Y-119645711D01*
X148613439Y-119652301D01*
X148605557Y-119658147D01*
X148597140Y-119663192D01*
X148588268Y-119667388D01*
X148579028Y-119670694D01*
X148569509Y-119673079D01*
X148559802Y-119674518D01*
X148550000Y-119675000D01*
X147275000Y-119675000D01*
X147265198Y-119674518D01*
X147255491Y-119673079D01*
X147245972Y-119670694D01*
X147236732Y-119667388D01*
X147227860Y-119663192D01*
X147219443Y-119658147D01*
X147211561Y-119652301D01*
X147204289Y-119645711D01*
X147197699Y-119638439D01*
X147191853Y-119630557D01*
X147186808Y-119622140D01*
X147182612Y-119613268D01*
X147179306Y-119604028D01*
X147176921Y-119594509D01*
X147175482Y-119584802D01*
X147175000Y-119575000D01*
X147175000Y-119375000D01*
X147175482Y-119365198D01*
X147176921Y-119355491D01*
X147179306Y-119345972D01*
X147182612Y-119336732D01*
X147186808Y-119327860D01*
X147191853Y-119319443D01*
X147197699Y-119311561D01*
X147204289Y-119304289D01*
X147211561Y-119297699D01*
X147219443Y-119291853D01*
X147227860Y-119286808D01*
X147236732Y-119282612D01*
X147245972Y-119279306D01*
X147255491Y-119276921D01*
X147265198Y-119275482D01*
X147275000Y-119275000D01*
X148550000Y-119275000D01*
X148559802Y-119275482D01*
G37*
G36*
X148559802Y-118625482D02*
G01*
X148569509Y-118626921D01*
X148579028Y-118629306D01*
X148588268Y-118632612D01*
X148597140Y-118636808D01*
X148605557Y-118641853D01*
X148613439Y-118647699D01*
X148620711Y-118654289D01*
X148627301Y-118661561D01*
X148633147Y-118669443D01*
X148638192Y-118677860D01*
X148642388Y-118686732D01*
X148645694Y-118695972D01*
X148648079Y-118705491D01*
X148649518Y-118715198D01*
X148650000Y-118725000D01*
X148650000Y-118925000D01*
X148649518Y-118934802D01*
X148648079Y-118944509D01*
X148645694Y-118954028D01*
X148642388Y-118963268D01*
X148638192Y-118972140D01*
X148633147Y-118980557D01*
X148627301Y-118988439D01*
X148620711Y-118995711D01*
X148613439Y-119002301D01*
X148605557Y-119008147D01*
X148597140Y-119013192D01*
X148588268Y-119017388D01*
X148579028Y-119020694D01*
X148569509Y-119023079D01*
X148559802Y-119024518D01*
X148550000Y-119025000D01*
X147275000Y-119025000D01*
X147265198Y-119024518D01*
X147255491Y-119023079D01*
X147245972Y-119020694D01*
X147236732Y-119017388D01*
X147227860Y-119013192D01*
X147219443Y-119008147D01*
X147211561Y-119002301D01*
X147204289Y-118995711D01*
X147197699Y-118988439D01*
X147191853Y-118980557D01*
X147186808Y-118972140D01*
X147182612Y-118963268D01*
X147179306Y-118954028D01*
X147176921Y-118944509D01*
X147175482Y-118934802D01*
X147175000Y-118925000D01*
X147175000Y-118725000D01*
X147175482Y-118715198D01*
X147176921Y-118705491D01*
X147179306Y-118695972D01*
X147182612Y-118686732D01*
X147186808Y-118677860D01*
X147191853Y-118669443D01*
X147197699Y-118661561D01*
X147204289Y-118654289D01*
X147211561Y-118647699D01*
X147219443Y-118641853D01*
X147227860Y-118636808D01*
X147236732Y-118632612D01*
X147245972Y-118629306D01*
X147255491Y-118626921D01*
X147265198Y-118625482D01*
X147275000Y-118625000D01*
X148550000Y-118625000D01*
X148559802Y-118625482D01*
G37*
G36*
X148559802Y-117975482D02*
G01*
X148569509Y-117976921D01*
X148579028Y-117979306D01*
X148588268Y-117982612D01*
X148597140Y-117986808D01*
X148605557Y-117991853D01*
X148613439Y-117997699D01*
X148620711Y-118004289D01*
X148627301Y-118011561D01*
X148633147Y-118019443D01*
X148638192Y-118027860D01*
X148642388Y-118036732D01*
X148645694Y-118045972D01*
X148648079Y-118055491D01*
X148649518Y-118065198D01*
X148650000Y-118075000D01*
X148650000Y-118275000D01*
X148649518Y-118284802D01*
X148648079Y-118294509D01*
X148645694Y-118304028D01*
X148642388Y-118313268D01*
X148638192Y-118322140D01*
X148633147Y-118330557D01*
X148627301Y-118338439D01*
X148620711Y-118345711D01*
X148613439Y-118352301D01*
X148605557Y-118358147D01*
X148597140Y-118363192D01*
X148588268Y-118367388D01*
X148579028Y-118370694D01*
X148569509Y-118373079D01*
X148559802Y-118374518D01*
X148550000Y-118375000D01*
X147275000Y-118375000D01*
X147265198Y-118374518D01*
X147255491Y-118373079D01*
X147245972Y-118370694D01*
X147236732Y-118367388D01*
X147227860Y-118363192D01*
X147219443Y-118358147D01*
X147211561Y-118352301D01*
X147204289Y-118345711D01*
X147197699Y-118338439D01*
X147191853Y-118330557D01*
X147186808Y-118322140D01*
X147182612Y-118313268D01*
X147179306Y-118304028D01*
X147176921Y-118294509D01*
X147175482Y-118284802D01*
X147175000Y-118275000D01*
X147175000Y-118075000D01*
X147175482Y-118065198D01*
X147176921Y-118055491D01*
X147179306Y-118045972D01*
X147182612Y-118036732D01*
X147186808Y-118027860D01*
X147191853Y-118019443D01*
X147197699Y-118011561D01*
X147204289Y-118004289D01*
X147211561Y-117997699D01*
X147219443Y-117991853D01*
X147227860Y-117986808D01*
X147236732Y-117982612D01*
X147245972Y-117979306D01*
X147255491Y-117976921D01*
X147265198Y-117975482D01*
X147275000Y-117975000D01*
X148550000Y-117975000D01*
X148559802Y-117975482D01*
G37*
G36*
X148559802Y-117325482D02*
G01*
X148569509Y-117326921D01*
X148579028Y-117329306D01*
X148588268Y-117332612D01*
X148597140Y-117336808D01*
X148605557Y-117341853D01*
X148613439Y-117347699D01*
X148620711Y-117354289D01*
X148627301Y-117361561D01*
X148633147Y-117369443D01*
X148638192Y-117377860D01*
X148642388Y-117386732D01*
X148645694Y-117395972D01*
X148648079Y-117405491D01*
X148649518Y-117415198D01*
X148650000Y-117425000D01*
X148650000Y-117625000D01*
X148649518Y-117634802D01*
X148648079Y-117644509D01*
X148645694Y-117654028D01*
X148642388Y-117663268D01*
X148638192Y-117672140D01*
X148633147Y-117680557D01*
X148627301Y-117688439D01*
X148620711Y-117695711D01*
X148613439Y-117702301D01*
X148605557Y-117708147D01*
X148597140Y-117713192D01*
X148588268Y-117717388D01*
X148579028Y-117720694D01*
X148569509Y-117723079D01*
X148559802Y-117724518D01*
X148550000Y-117725000D01*
X147275000Y-117725000D01*
X147265198Y-117724518D01*
X147255491Y-117723079D01*
X147245972Y-117720694D01*
X147236732Y-117717388D01*
X147227860Y-117713192D01*
X147219443Y-117708147D01*
X147211561Y-117702301D01*
X147204289Y-117695711D01*
X147197699Y-117688439D01*
X147191853Y-117680557D01*
X147186808Y-117672140D01*
X147182612Y-117663268D01*
X147179306Y-117654028D01*
X147176921Y-117644509D01*
X147175482Y-117634802D01*
X147175000Y-117625000D01*
X147175000Y-117425000D01*
X147175482Y-117415198D01*
X147176921Y-117405491D01*
X147179306Y-117395972D01*
X147182612Y-117386732D01*
X147186808Y-117377860D01*
X147191853Y-117369443D01*
X147197699Y-117361561D01*
X147204289Y-117354289D01*
X147211561Y-117347699D01*
X147219443Y-117341853D01*
X147227860Y-117336808D01*
X147236732Y-117332612D01*
X147245972Y-117329306D01*
X147255491Y-117326921D01*
X147265198Y-117325482D01*
X147275000Y-117325000D01*
X148550000Y-117325000D01*
X148559802Y-117325482D01*
G37*
%TD*%
D20*
%TO.C,J2*%
X171710000Y-101250000D03*
X170440000Y-101250000D03*
X169170000Y-101250000D03*
D21*
X167900000Y-101250000D03*
%TD*%
D22*
%TO.C,U10*%
X153450000Y-121750000D03*
X153450000Y-121250000D03*
X153450000Y-120750000D03*
X153450000Y-120250000D03*
X153450000Y-119750000D03*
X157850000Y-119750000D03*
X157850000Y-120250000D03*
X157850000Y-120750000D03*
X157850000Y-121250000D03*
X157850000Y-121750000D03*
%TD*%
D10*
%TO.C,R20*%
G36*
X162627691Y-114676053D02*
G01*
X162648926Y-114679203D01*
X162669750Y-114684419D01*
X162689962Y-114691651D01*
X162709368Y-114700830D01*
X162727781Y-114711866D01*
X162745024Y-114724654D01*
X162760930Y-114739070D01*
X162775346Y-114754976D01*
X162788134Y-114772219D01*
X162799170Y-114790632D01*
X162808349Y-114810038D01*
X162815581Y-114830250D01*
X162820797Y-114851074D01*
X162823947Y-114872309D01*
X162825000Y-114893750D01*
X162825000Y-115406250D01*
X162823947Y-115427691D01*
X162820797Y-115448926D01*
X162815581Y-115469750D01*
X162808349Y-115489962D01*
X162799170Y-115509368D01*
X162788134Y-115527781D01*
X162775346Y-115545024D01*
X162760930Y-115560930D01*
X162745024Y-115575346D01*
X162727781Y-115588134D01*
X162709368Y-115599170D01*
X162689962Y-115608349D01*
X162669750Y-115615581D01*
X162648926Y-115620797D01*
X162627691Y-115623947D01*
X162606250Y-115625000D01*
X162168750Y-115625000D01*
X162147309Y-115623947D01*
X162126074Y-115620797D01*
X162105250Y-115615581D01*
X162085038Y-115608349D01*
X162065632Y-115599170D01*
X162047219Y-115588134D01*
X162029976Y-115575346D01*
X162014070Y-115560930D01*
X161999654Y-115545024D01*
X161986866Y-115527781D01*
X161975830Y-115509368D01*
X161966651Y-115489962D01*
X161959419Y-115469750D01*
X161954203Y-115448926D01*
X161951053Y-115427691D01*
X161950000Y-115406250D01*
X161950000Y-114893750D01*
X161951053Y-114872309D01*
X161954203Y-114851074D01*
X161959419Y-114830250D01*
X161966651Y-114810038D01*
X161975830Y-114790632D01*
X161986866Y-114772219D01*
X161999654Y-114754976D01*
X162014070Y-114739070D01*
X162029976Y-114724654D01*
X162047219Y-114711866D01*
X162065632Y-114700830D01*
X162085038Y-114691651D01*
X162105250Y-114684419D01*
X162126074Y-114679203D01*
X162147309Y-114676053D01*
X162168750Y-114675000D01*
X162606250Y-114675000D01*
X162627691Y-114676053D01*
G37*
G36*
X161052691Y-114676053D02*
G01*
X161073926Y-114679203D01*
X161094750Y-114684419D01*
X161114962Y-114691651D01*
X161134368Y-114700830D01*
X161152781Y-114711866D01*
X161170024Y-114724654D01*
X161185930Y-114739070D01*
X161200346Y-114754976D01*
X161213134Y-114772219D01*
X161224170Y-114790632D01*
X161233349Y-114810038D01*
X161240581Y-114830250D01*
X161245797Y-114851074D01*
X161248947Y-114872309D01*
X161250000Y-114893750D01*
X161250000Y-115406250D01*
X161248947Y-115427691D01*
X161245797Y-115448926D01*
X161240581Y-115469750D01*
X161233349Y-115489962D01*
X161224170Y-115509368D01*
X161213134Y-115527781D01*
X161200346Y-115545024D01*
X161185930Y-115560930D01*
X161170024Y-115575346D01*
X161152781Y-115588134D01*
X161134368Y-115599170D01*
X161114962Y-115608349D01*
X161094750Y-115615581D01*
X161073926Y-115620797D01*
X161052691Y-115623947D01*
X161031250Y-115625000D01*
X160593750Y-115625000D01*
X160572309Y-115623947D01*
X160551074Y-115620797D01*
X160530250Y-115615581D01*
X160510038Y-115608349D01*
X160490632Y-115599170D01*
X160472219Y-115588134D01*
X160454976Y-115575346D01*
X160439070Y-115560930D01*
X160424654Y-115545024D01*
X160411866Y-115527781D01*
X160400830Y-115509368D01*
X160391651Y-115489962D01*
X160384419Y-115469750D01*
X160379203Y-115448926D01*
X160376053Y-115427691D01*
X160375000Y-115406250D01*
X160375000Y-114893750D01*
X160376053Y-114872309D01*
X160379203Y-114851074D01*
X160384419Y-114830250D01*
X160391651Y-114810038D01*
X160400830Y-114790632D01*
X160411866Y-114772219D01*
X160424654Y-114754976D01*
X160439070Y-114739070D01*
X160454976Y-114724654D01*
X160472219Y-114711866D01*
X160490632Y-114700830D01*
X160510038Y-114691651D01*
X160530250Y-114684419D01*
X160551074Y-114679203D01*
X160572309Y-114676053D01*
X160593750Y-114675000D01*
X161031250Y-114675000D01*
X161052691Y-114676053D01*
G37*
%TD*%
%TO.C,R12*%
G36*
X161052691Y-113076053D02*
G01*
X161073926Y-113079203D01*
X161094750Y-113084419D01*
X161114962Y-113091651D01*
X161134368Y-113100830D01*
X161152781Y-113111866D01*
X161170024Y-113124654D01*
X161185930Y-113139070D01*
X161200346Y-113154976D01*
X161213134Y-113172219D01*
X161224170Y-113190632D01*
X161233349Y-113210038D01*
X161240581Y-113230250D01*
X161245797Y-113251074D01*
X161248947Y-113272309D01*
X161250000Y-113293750D01*
X161250000Y-113806250D01*
X161248947Y-113827691D01*
X161245797Y-113848926D01*
X161240581Y-113869750D01*
X161233349Y-113889962D01*
X161224170Y-113909368D01*
X161213134Y-113927781D01*
X161200346Y-113945024D01*
X161185930Y-113960930D01*
X161170024Y-113975346D01*
X161152781Y-113988134D01*
X161134368Y-113999170D01*
X161114962Y-114008349D01*
X161094750Y-114015581D01*
X161073926Y-114020797D01*
X161052691Y-114023947D01*
X161031250Y-114025000D01*
X160593750Y-114025000D01*
X160572309Y-114023947D01*
X160551074Y-114020797D01*
X160530250Y-114015581D01*
X160510038Y-114008349D01*
X160490632Y-113999170D01*
X160472219Y-113988134D01*
X160454976Y-113975346D01*
X160439070Y-113960930D01*
X160424654Y-113945024D01*
X160411866Y-113927781D01*
X160400830Y-113909368D01*
X160391651Y-113889962D01*
X160384419Y-113869750D01*
X160379203Y-113848926D01*
X160376053Y-113827691D01*
X160375000Y-113806250D01*
X160375000Y-113293750D01*
X160376053Y-113272309D01*
X160379203Y-113251074D01*
X160384419Y-113230250D01*
X160391651Y-113210038D01*
X160400830Y-113190632D01*
X160411866Y-113172219D01*
X160424654Y-113154976D01*
X160439070Y-113139070D01*
X160454976Y-113124654D01*
X160472219Y-113111866D01*
X160490632Y-113100830D01*
X160510038Y-113091651D01*
X160530250Y-113084419D01*
X160551074Y-113079203D01*
X160572309Y-113076053D01*
X160593750Y-113075000D01*
X161031250Y-113075000D01*
X161052691Y-113076053D01*
G37*
G36*
X162627691Y-113076053D02*
G01*
X162648926Y-113079203D01*
X162669750Y-113084419D01*
X162689962Y-113091651D01*
X162709368Y-113100830D01*
X162727781Y-113111866D01*
X162745024Y-113124654D01*
X162760930Y-113139070D01*
X162775346Y-113154976D01*
X162788134Y-113172219D01*
X162799170Y-113190632D01*
X162808349Y-113210038D01*
X162815581Y-113230250D01*
X162820797Y-113251074D01*
X162823947Y-113272309D01*
X162825000Y-113293750D01*
X162825000Y-113806250D01*
X162823947Y-113827691D01*
X162820797Y-113848926D01*
X162815581Y-113869750D01*
X162808349Y-113889962D01*
X162799170Y-113909368D01*
X162788134Y-113927781D01*
X162775346Y-113945024D01*
X162760930Y-113960930D01*
X162745024Y-113975346D01*
X162727781Y-113988134D01*
X162709368Y-113999170D01*
X162689962Y-114008349D01*
X162669750Y-114015581D01*
X162648926Y-114020797D01*
X162627691Y-114023947D01*
X162606250Y-114025000D01*
X162168750Y-114025000D01*
X162147309Y-114023947D01*
X162126074Y-114020797D01*
X162105250Y-114015581D01*
X162085038Y-114008349D01*
X162065632Y-113999170D01*
X162047219Y-113988134D01*
X162029976Y-113975346D01*
X162014070Y-113960930D01*
X161999654Y-113945024D01*
X161986866Y-113927781D01*
X161975830Y-113909368D01*
X161966651Y-113889962D01*
X161959419Y-113869750D01*
X161954203Y-113848926D01*
X161951053Y-113827691D01*
X161950000Y-113806250D01*
X161950000Y-113293750D01*
X161951053Y-113272309D01*
X161954203Y-113251074D01*
X161959419Y-113230250D01*
X161966651Y-113210038D01*
X161975830Y-113190632D01*
X161986866Y-113172219D01*
X161999654Y-113154976D01*
X162014070Y-113139070D01*
X162029976Y-113124654D01*
X162047219Y-113111866D01*
X162065632Y-113100830D01*
X162085038Y-113091651D01*
X162105250Y-113084419D01*
X162126074Y-113079203D01*
X162147309Y-113076053D01*
X162168750Y-113075000D01*
X162606250Y-113075000D01*
X162627691Y-113076053D01*
G37*
%TD*%
%TO.C,R3*%
G36*
X155027691Y-123026053D02*
G01*
X155048926Y-123029203D01*
X155069750Y-123034419D01*
X155089962Y-123041651D01*
X155109368Y-123050830D01*
X155127781Y-123061866D01*
X155145024Y-123074654D01*
X155160930Y-123089070D01*
X155175346Y-123104976D01*
X155188134Y-123122219D01*
X155199170Y-123140632D01*
X155208349Y-123160038D01*
X155215581Y-123180250D01*
X155220797Y-123201074D01*
X155223947Y-123222309D01*
X155225000Y-123243750D01*
X155225000Y-123756250D01*
X155223947Y-123777691D01*
X155220797Y-123798926D01*
X155215581Y-123819750D01*
X155208349Y-123839962D01*
X155199170Y-123859368D01*
X155188134Y-123877781D01*
X155175346Y-123895024D01*
X155160930Y-123910930D01*
X155145024Y-123925346D01*
X155127781Y-123938134D01*
X155109368Y-123949170D01*
X155089962Y-123958349D01*
X155069750Y-123965581D01*
X155048926Y-123970797D01*
X155027691Y-123973947D01*
X155006250Y-123975000D01*
X154568750Y-123975000D01*
X154547309Y-123973947D01*
X154526074Y-123970797D01*
X154505250Y-123965581D01*
X154485038Y-123958349D01*
X154465632Y-123949170D01*
X154447219Y-123938134D01*
X154429976Y-123925346D01*
X154414070Y-123910930D01*
X154399654Y-123895024D01*
X154386866Y-123877781D01*
X154375830Y-123859368D01*
X154366651Y-123839962D01*
X154359419Y-123819750D01*
X154354203Y-123798926D01*
X154351053Y-123777691D01*
X154350000Y-123756250D01*
X154350000Y-123243750D01*
X154351053Y-123222309D01*
X154354203Y-123201074D01*
X154359419Y-123180250D01*
X154366651Y-123160038D01*
X154375830Y-123140632D01*
X154386866Y-123122219D01*
X154399654Y-123104976D01*
X154414070Y-123089070D01*
X154429976Y-123074654D01*
X154447219Y-123061866D01*
X154465632Y-123050830D01*
X154485038Y-123041651D01*
X154505250Y-123034419D01*
X154526074Y-123029203D01*
X154547309Y-123026053D01*
X154568750Y-123025000D01*
X155006250Y-123025000D01*
X155027691Y-123026053D01*
G37*
G36*
X153452691Y-123026053D02*
G01*
X153473926Y-123029203D01*
X153494750Y-123034419D01*
X153514962Y-123041651D01*
X153534368Y-123050830D01*
X153552781Y-123061866D01*
X153570024Y-123074654D01*
X153585930Y-123089070D01*
X153600346Y-123104976D01*
X153613134Y-123122219D01*
X153624170Y-123140632D01*
X153633349Y-123160038D01*
X153640581Y-123180250D01*
X153645797Y-123201074D01*
X153648947Y-123222309D01*
X153650000Y-123243750D01*
X153650000Y-123756250D01*
X153648947Y-123777691D01*
X153645797Y-123798926D01*
X153640581Y-123819750D01*
X153633349Y-123839962D01*
X153624170Y-123859368D01*
X153613134Y-123877781D01*
X153600346Y-123895024D01*
X153585930Y-123910930D01*
X153570024Y-123925346D01*
X153552781Y-123938134D01*
X153534368Y-123949170D01*
X153514962Y-123958349D01*
X153494750Y-123965581D01*
X153473926Y-123970797D01*
X153452691Y-123973947D01*
X153431250Y-123975000D01*
X152993750Y-123975000D01*
X152972309Y-123973947D01*
X152951074Y-123970797D01*
X152930250Y-123965581D01*
X152910038Y-123958349D01*
X152890632Y-123949170D01*
X152872219Y-123938134D01*
X152854976Y-123925346D01*
X152839070Y-123910930D01*
X152824654Y-123895024D01*
X152811866Y-123877781D01*
X152800830Y-123859368D01*
X152791651Y-123839962D01*
X152784419Y-123819750D01*
X152779203Y-123798926D01*
X152776053Y-123777691D01*
X152775000Y-123756250D01*
X152775000Y-123243750D01*
X152776053Y-123222309D01*
X152779203Y-123201074D01*
X152784419Y-123180250D01*
X152791651Y-123160038D01*
X152800830Y-123140632D01*
X152811866Y-123122219D01*
X152824654Y-123104976D01*
X152839070Y-123089070D01*
X152854976Y-123074654D01*
X152872219Y-123061866D01*
X152890632Y-123050830D01*
X152910038Y-123041651D01*
X152930250Y-123034419D01*
X152951074Y-123029203D01*
X152972309Y-123026053D01*
X152993750Y-123025000D01*
X153431250Y-123025000D01*
X153452691Y-123026053D01*
G37*
%TD*%
%TO.C,R2*%
G36*
X156752691Y-123026053D02*
G01*
X156773926Y-123029203D01*
X156794750Y-123034419D01*
X156814962Y-123041651D01*
X156834368Y-123050830D01*
X156852781Y-123061866D01*
X156870024Y-123074654D01*
X156885930Y-123089070D01*
X156900346Y-123104976D01*
X156913134Y-123122219D01*
X156924170Y-123140632D01*
X156933349Y-123160038D01*
X156940581Y-123180250D01*
X156945797Y-123201074D01*
X156948947Y-123222309D01*
X156950000Y-123243750D01*
X156950000Y-123756250D01*
X156948947Y-123777691D01*
X156945797Y-123798926D01*
X156940581Y-123819750D01*
X156933349Y-123839962D01*
X156924170Y-123859368D01*
X156913134Y-123877781D01*
X156900346Y-123895024D01*
X156885930Y-123910930D01*
X156870024Y-123925346D01*
X156852781Y-123938134D01*
X156834368Y-123949170D01*
X156814962Y-123958349D01*
X156794750Y-123965581D01*
X156773926Y-123970797D01*
X156752691Y-123973947D01*
X156731250Y-123975000D01*
X156293750Y-123975000D01*
X156272309Y-123973947D01*
X156251074Y-123970797D01*
X156230250Y-123965581D01*
X156210038Y-123958349D01*
X156190632Y-123949170D01*
X156172219Y-123938134D01*
X156154976Y-123925346D01*
X156139070Y-123910930D01*
X156124654Y-123895024D01*
X156111866Y-123877781D01*
X156100830Y-123859368D01*
X156091651Y-123839962D01*
X156084419Y-123819750D01*
X156079203Y-123798926D01*
X156076053Y-123777691D01*
X156075000Y-123756250D01*
X156075000Y-123243750D01*
X156076053Y-123222309D01*
X156079203Y-123201074D01*
X156084419Y-123180250D01*
X156091651Y-123160038D01*
X156100830Y-123140632D01*
X156111866Y-123122219D01*
X156124654Y-123104976D01*
X156139070Y-123089070D01*
X156154976Y-123074654D01*
X156172219Y-123061866D01*
X156190632Y-123050830D01*
X156210038Y-123041651D01*
X156230250Y-123034419D01*
X156251074Y-123029203D01*
X156272309Y-123026053D01*
X156293750Y-123025000D01*
X156731250Y-123025000D01*
X156752691Y-123026053D01*
G37*
G36*
X158327691Y-123026053D02*
G01*
X158348926Y-123029203D01*
X158369750Y-123034419D01*
X158389962Y-123041651D01*
X158409368Y-123050830D01*
X158427781Y-123061866D01*
X158445024Y-123074654D01*
X158460930Y-123089070D01*
X158475346Y-123104976D01*
X158488134Y-123122219D01*
X158499170Y-123140632D01*
X158508349Y-123160038D01*
X158515581Y-123180250D01*
X158520797Y-123201074D01*
X158523947Y-123222309D01*
X158525000Y-123243750D01*
X158525000Y-123756250D01*
X158523947Y-123777691D01*
X158520797Y-123798926D01*
X158515581Y-123819750D01*
X158508349Y-123839962D01*
X158499170Y-123859368D01*
X158488134Y-123877781D01*
X158475346Y-123895024D01*
X158460930Y-123910930D01*
X158445024Y-123925346D01*
X158427781Y-123938134D01*
X158409368Y-123949170D01*
X158389962Y-123958349D01*
X158369750Y-123965581D01*
X158348926Y-123970797D01*
X158327691Y-123973947D01*
X158306250Y-123975000D01*
X157868750Y-123975000D01*
X157847309Y-123973947D01*
X157826074Y-123970797D01*
X157805250Y-123965581D01*
X157785038Y-123958349D01*
X157765632Y-123949170D01*
X157747219Y-123938134D01*
X157729976Y-123925346D01*
X157714070Y-123910930D01*
X157699654Y-123895024D01*
X157686866Y-123877781D01*
X157675830Y-123859368D01*
X157666651Y-123839962D01*
X157659419Y-123819750D01*
X157654203Y-123798926D01*
X157651053Y-123777691D01*
X157650000Y-123756250D01*
X157650000Y-123243750D01*
X157651053Y-123222309D01*
X157654203Y-123201074D01*
X157659419Y-123180250D01*
X157666651Y-123160038D01*
X157675830Y-123140632D01*
X157686866Y-123122219D01*
X157699654Y-123104976D01*
X157714070Y-123089070D01*
X157729976Y-123074654D01*
X157747219Y-123061866D01*
X157765632Y-123050830D01*
X157785038Y-123041651D01*
X157805250Y-123034419D01*
X157826074Y-123029203D01*
X157847309Y-123026053D01*
X157868750Y-123025000D01*
X158306250Y-123025000D01*
X158327691Y-123026053D01*
G37*
%TD*%
%TO.C,C14*%
G36*
X158199504Y-114376204D02*
G01*
X158223773Y-114379804D01*
X158247571Y-114385765D01*
X158270671Y-114394030D01*
X158292849Y-114404520D01*
X158313893Y-114417133D01*
X158333598Y-114431747D01*
X158351777Y-114448223D01*
X158368253Y-114466402D01*
X158382867Y-114486107D01*
X158395480Y-114507151D01*
X158405970Y-114529329D01*
X158414235Y-114552429D01*
X158420196Y-114576227D01*
X158423796Y-114600496D01*
X158425000Y-114625000D01*
X158425000Y-115375000D01*
X158423796Y-115399504D01*
X158420196Y-115423773D01*
X158414235Y-115447571D01*
X158405970Y-115470671D01*
X158395480Y-115492849D01*
X158382867Y-115513893D01*
X158368253Y-115533598D01*
X158351777Y-115551777D01*
X158333598Y-115568253D01*
X158313893Y-115582867D01*
X158292849Y-115595480D01*
X158270671Y-115605970D01*
X158247571Y-115614235D01*
X158223773Y-115620196D01*
X158199504Y-115623796D01*
X158175000Y-115625000D01*
X156925000Y-115625000D01*
X156900496Y-115623796D01*
X156876227Y-115620196D01*
X156852429Y-115614235D01*
X156829329Y-115605970D01*
X156807151Y-115595480D01*
X156786107Y-115582867D01*
X156766402Y-115568253D01*
X156748223Y-115551777D01*
X156731747Y-115533598D01*
X156717133Y-115513893D01*
X156704520Y-115492849D01*
X156694030Y-115470671D01*
X156685765Y-115447571D01*
X156679804Y-115423773D01*
X156676204Y-115399504D01*
X156675000Y-115375000D01*
X156675000Y-114625000D01*
X156676204Y-114600496D01*
X156679804Y-114576227D01*
X156685765Y-114552429D01*
X156694030Y-114529329D01*
X156704520Y-114507151D01*
X156717133Y-114486107D01*
X156731747Y-114466402D01*
X156748223Y-114448223D01*
X156766402Y-114431747D01*
X156786107Y-114417133D01*
X156807151Y-114404520D01*
X156829329Y-114394030D01*
X156852429Y-114385765D01*
X156876227Y-114379804D01*
X156900496Y-114376204D01*
X156925000Y-114375000D01*
X158175000Y-114375000D01*
X158199504Y-114376204D01*
G37*
G36*
X158199504Y-117176204D02*
G01*
X158223773Y-117179804D01*
X158247571Y-117185765D01*
X158270671Y-117194030D01*
X158292849Y-117204520D01*
X158313893Y-117217133D01*
X158333598Y-117231747D01*
X158351777Y-117248223D01*
X158368253Y-117266402D01*
X158382867Y-117286107D01*
X158395480Y-117307151D01*
X158405970Y-117329329D01*
X158414235Y-117352429D01*
X158420196Y-117376227D01*
X158423796Y-117400496D01*
X158425000Y-117425000D01*
X158425000Y-118175000D01*
X158423796Y-118199504D01*
X158420196Y-118223773D01*
X158414235Y-118247571D01*
X158405970Y-118270671D01*
X158395480Y-118292849D01*
X158382867Y-118313893D01*
X158368253Y-118333598D01*
X158351777Y-118351777D01*
X158333598Y-118368253D01*
X158313893Y-118382867D01*
X158292849Y-118395480D01*
X158270671Y-118405970D01*
X158247571Y-118414235D01*
X158223773Y-118420196D01*
X158199504Y-118423796D01*
X158175000Y-118425000D01*
X156925000Y-118425000D01*
X156900496Y-118423796D01*
X156876227Y-118420196D01*
X156852429Y-118414235D01*
X156829329Y-118405970D01*
X156807151Y-118395480D01*
X156786107Y-118382867D01*
X156766402Y-118368253D01*
X156748223Y-118351777D01*
X156731747Y-118333598D01*
X156717133Y-118313893D01*
X156704520Y-118292849D01*
X156694030Y-118270671D01*
X156685765Y-118247571D01*
X156679804Y-118223773D01*
X156676204Y-118199504D01*
X156675000Y-118175000D01*
X156675000Y-117425000D01*
X156676204Y-117400496D01*
X156679804Y-117376227D01*
X156685765Y-117352429D01*
X156694030Y-117329329D01*
X156704520Y-117307151D01*
X156717133Y-117286107D01*
X156731747Y-117266402D01*
X156748223Y-117248223D01*
X156766402Y-117231747D01*
X156786107Y-117217133D01*
X156807151Y-117204520D01*
X156829329Y-117194030D01*
X156852429Y-117185765D01*
X156876227Y-117179804D01*
X156900496Y-117176204D01*
X156925000Y-117175000D01*
X158175000Y-117175000D01*
X158199504Y-117176204D01*
G37*
%TD*%
%TO.C,C6*%
G36*
X151878191Y-121700053D02*
G01*
X151899426Y-121703203D01*
X151920250Y-121708419D01*
X151940462Y-121715651D01*
X151959868Y-121724830D01*
X151978281Y-121735866D01*
X151995524Y-121748654D01*
X152011430Y-121763070D01*
X152025846Y-121778976D01*
X152038634Y-121796219D01*
X152049670Y-121814632D01*
X152058849Y-121834038D01*
X152066081Y-121854250D01*
X152071297Y-121875074D01*
X152074447Y-121896309D01*
X152075500Y-121917750D01*
X152075500Y-122430250D01*
X152074447Y-122451691D01*
X152071297Y-122472926D01*
X152066081Y-122493750D01*
X152058849Y-122513962D01*
X152049670Y-122533368D01*
X152038634Y-122551781D01*
X152025846Y-122569024D01*
X152011430Y-122584930D01*
X151995524Y-122599346D01*
X151978281Y-122612134D01*
X151959868Y-122623170D01*
X151940462Y-122632349D01*
X151920250Y-122639581D01*
X151899426Y-122644797D01*
X151878191Y-122647947D01*
X151856750Y-122649000D01*
X151419250Y-122649000D01*
X151397809Y-122647947D01*
X151376574Y-122644797D01*
X151355750Y-122639581D01*
X151335538Y-122632349D01*
X151316132Y-122623170D01*
X151297719Y-122612134D01*
X151280476Y-122599346D01*
X151264570Y-122584930D01*
X151250154Y-122569024D01*
X151237366Y-122551781D01*
X151226330Y-122533368D01*
X151217151Y-122513962D01*
X151209919Y-122493750D01*
X151204703Y-122472926D01*
X151201553Y-122451691D01*
X151200500Y-122430250D01*
X151200500Y-121917750D01*
X151201553Y-121896309D01*
X151204703Y-121875074D01*
X151209919Y-121854250D01*
X151217151Y-121834038D01*
X151226330Y-121814632D01*
X151237366Y-121796219D01*
X151250154Y-121778976D01*
X151264570Y-121763070D01*
X151280476Y-121748654D01*
X151297719Y-121735866D01*
X151316132Y-121724830D01*
X151335538Y-121715651D01*
X151355750Y-121708419D01*
X151376574Y-121703203D01*
X151397809Y-121700053D01*
X151419250Y-121699000D01*
X151856750Y-121699000D01*
X151878191Y-121700053D01*
G37*
G36*
X150303191Y-121700053D02*
G01*
X150324426Y-121703203D01*
X150345250Y-121708419D01*
X150365462Y-121715651D01*
X150384868Y-121724830D01*
X150403281Y-121735866D01*
X150420524Y-121748654D01*
X150436430Y-121763070D01*
X150450846Y-121778976D01*
X150463634Y-121796219D01*
X150474670Y-121814632D01*
X150483849Y-121834038D01*
X150491081Y-121854250D01*
X150496297Y-121875074D01*
X150499447Y-121896309D01*
X150500500Y-121917750D01*
X150500500Y-122430250D01*
X150499447Y-122451691D01*
X150496297Y-122472926D01*
X150491081Y-122493750D01*
X150483849Y-122513962D01*
X150474670Y-122533368D01*
X150463634Y-122551781D01*
X150450846Y-122569024D01*
X150436430Y-122584930D01*
X150420524Y-122599346D01*
X150403281Y-122612134D01*
X150384868Y-122623170D01*
X150365462Y-122632349D01*
X150345250Y-122639581D01*
X150324426Y-122644797D01*
X150303191Y-122647947D01*
X150281750Y-122649000D01*
X149844250Y-122649000D01*
X149822809Y-122647947D01*
X149801574Y-122644797D01*
X149780750Y-122639581D01*
X149760538Y-122632349D01*
X149741132Y-122623170D01*
X149722719Y-122612134D01*
X149705476Y-122599346D01*
X149689570Y-122584930D01*
X149675154Y-122569024D01*
X149662366Y-122551781D01*
X149651330Y-122533368D01*
X149642151Y-122513962D01*
X149634919Y-122493750D01*
X149629703Y-122472926D01*
X149626553Y-122451691D01*
X149625500Y-122430250D01*
X149625500Y-121917750D01*
X149626553Y-121896309D01*
X149629703Y-121875074D01*
X149634919Y-121854250D01*
X149642151Y-121834038D01*
X149651330Y-121814632D01*
X149662366Y-121796219D01*
X149675154Y-121778976D01*
X149689570Y-121763070D01*
X149705476Y-121748654D01*
X149722719Y-121735866D01*
X149741132Y-121724830D01*
X149760538Y-121715651D01*
X149780750Y-121708419D01*
X149801574Y-121703203D01*
X149822809Y-121700053D01*
X149844250Y-121699000D01*
X150281750Y-121699000D01*
X150303191Y-121700053D01*
G37*
%TD*%
%TO.C,C5*%
G36*
X155399504Y-114376204D02*
G01*
X155423773Y-114379804D01*
X155447571Y-114385765D01*
X155470671Y-114394030D01*
X155492849Y-114404520D01*
X155513893Y-114417133D01*
X155533598Y-114431747D01*
X155551777Y-114448223D01*
X155568253Y-114466402D01*
X155582867Y-114486107D01*
X155595480Y-114507151D01*
X155605970Y-114529329D01*
X155614235Y-114552429D01*
X155620196Y-114576227D01*
X155623796Y-114600496D01*
X155625000Y-114625000D01*
X155625000Y-115375000D01*
X155623796Y-115399504D01*
X155620196Y-115423773D01*
X155614235Y-115447571D01*
X155605970Y-115470671D01*
X155595480Y-115492849D01*
X155582867Y-115513893D01*
X155568253Y-115533598D01*
X155551777Y-115551777D01*
X155533598Y-115568253D01*
X155513893Y-115582867D01*
X155492849Y-115595480D01*
X155470671Y-115605970D01*
X155447571Y-115614235D01*
X155423773Y-115620196D01*
X155399504Y-115623796D01*
X155375000Y-115625000D01*
X154125000Y-115625000D01*
X154100496Y-115623796D01*
X154076227Y-115620196D01*
X154052429Y-115614235D01*
X154029329Y-115605970D01*
X154007151Y-115595480D01*
X153986107Y-115582867D01*
X153966402Y-115568253D01*
X153948223Y-115551777D01*
X153931747Y-115533598D01*
X153917133Y-115513893D01*
X153904520Y-115492849D01*
X153894030Y-115470671D01*
X153885765Y-115447571D01*
X153879804Y-115423773D01*
X153876204Y-115399504D01*
X153875000Y-115375000D01*
X153875000Y-114625000D01*
X153876204Y-114600496D01*
X153879804Y-114576227D01*
X153885765Y-114552429D01*
X153894030Y-114529329D01*
X153904520Y-114507151D01*
X153917133Y-114486107D01*
X153931747Y-114466402D01*
X153948223Y-114448223D01*
X153966402Y-114431747D01*
X153986107Y-114417133D01*
X154007151Y-114404520D01*
X154029329Y-114394030D01*
X154052429Y-114385765D01*
X154076227Y-114379804D01*
X154100496Y-114376204D01*
X154125000Y-114375000D01*
X155375000Y-114375000D01*
X155399504Y-114376204D01*
G37*
G36*
X155399504Y-117176204D02*
G01*
X155423773Y-117179804D01*
X155447571Y-117185765D01*
X155470671Y-117194030D01*
X155492849Y-117204520D01*
X155513893Y-117217133D01*
X155533598Y-117231747D01*
X155551777Y-117248223D01*
X155568253Y-117266402D01*
X155582867Y-117286107D01*
X155595480Y-117307151D01*
X155605970Y-117329329D01*
X155614235Y-117352429D01*
X155620196Y-117376227D01*
X155623796Y-117400496D01*
X155625000Y-117425000D01*
X155625000Y-118175000D01*
X155623796Y-118199504D01*
X155620196Y-118223773D01*
X155614235Y-118247571D01*
X155605970Y-118270671D01*
X155595480Y-118292849D01*
X155582867Y-118313893D01*
X155568253Y-118333598D01*
X155551777Y-118351777D01*
X155533598Y-118368253D01*
X155513893Y-118382867D01*
X155492849Y-118395480D01*
X155470671Y-118405970D01*
X155447571Y-118414235D01*
X155423773Y-118420196D01*
X155399504Y-118423796D01*
X155375000Y-118425000D01*
X154125000Y-118425000D01*
X154100496Y-118423796D01*
X154076227Y-118420196D01*
X154052429Y-118414235D01*
X154029329Y-118405970D01*
X154007151Y-118395480D01*
X153986107Y-118382867D01*
X153966402Y-118368253D01*
X153948223Y-118351777D01*
X153931747Y-118333598D01*
X153917133Y-118313893D01*
X153904520Y-118292849D01*
X153894030Y-118270671D01*
X153885765Y-118247571D01*
X153879804Y-118223773D01*
X153876204Y-118199504D01*
X153875000Y-118175000D01*
X153875000Y-117425000D01*
X153876204Y-117400496D01*
X153879804Y-117376227D01*
X153885765Y-117352429D01*
X153894030Y-117329329D01*
X153904520Y-117307151D01*
X153917133Y-117286107D01*
X153931747Y-117266402D01*
X153948223Y-117248223D01*
X153966402Y-117231747D01*
X153986107Y-117217133D01*
X154007151Y-117204520D01*
X154029329Y-117194030D01*
X154052429Y-117185765D01*
X154076227Y-117179804D01*
X154100496Y-117176204D01*
X154125000Y-117175000D01*
X155375000Y-117175000D01*
X155399504Y-117176204D01*
G37*
%TD*%
D23*
%TO.C,J3*%
X141600000Y-96400000D03*
X138600000Y-96400000D03*
D24*
X140100000Y-94925000D03*
X140100000Y-97875000D03*
%TD*%
D10*
%TO.C,R19*%
G36*
X139127191Y-116493053D02*
G01*
X139148426Y-116496203D01*
X139169250Y-116501419D01*
X139189462Y-116508651D01*
X139208868Y-116517830D01*
X139227281Y-116528866D01*
X139244524Y-116541654D01*
X139260430Y-116556070D01*
X139274846Y-116571976D01*
X139287634Y-116589219D01*
X139298670Y-116607632D01*
X139307849Y-116627038D01*
X139315081Y-116647250D01*
X139320297Y-116668074D01*
X139323447Y-116689309D01*
X139324500Y-116710750D01*
X139324500Y-117223250D01*
X139323447Y-117244691D01*
X139320297Y-117265926D01*
X139315081Y-117286750D01*
X139307849Y-117306962D01*
X139298670Y-117326368D01*
X139287634Y-117344781D01*
X139274846Y-117362024D01*
X139260430Y-117377930D01*
X139244524Y-117392346D01*
X139227281Y-117405134D01*
X139208868Y-117416170D01*
X139189462Y-117425349D01*
X139169250Y-117432581D01*
X139148426Y-117437797D01*
X139127191Y-117440947D01*
X139105750Y-117442000D01*
X138668250Y-117442000D01*
X138646809Y-117440947D01*
X138625574Y-117437797D01*
X138604750Y-117432581D01*
X138584538Y-117425349D01*
X138565132Y-117416170D01*
X138546719Y-117405134D01*
X138529476Y-117392346D01*
X138513570Y-117377930D01*
X138499154Y-117362024D01*
X138486366Y-117344781D01*
X138475330Y-117326368D01*
X138466151Y-117306962D01*
X138458919Y-117286750D01*
X138453703Y-117265926D01*
X138450553Y-117244691D01*
X138449500Y-117223250D01*
X138449500Y-116710750D01*
X138450553Y-116689309D01*
X138453703Y-116668074D01*
X138458919Y-116647250D01*
X138466151Y-116627038D01*
X138475330Y-116607632D01*
X138486366Y-116589219D01*
X138499154Y-116571976D01*
X138513570Y-116556070D01*
X138529476Y-116541654D01*
X138546719Y-116528866D01*
X138565132Y-116517830D01*
X138584538Y-116508651D01*
X138604750Y-116501419D01*
X138625574Y-116496203D01*
X138646809Y-116493053D01*
X138668250Y-116492000D01*
X139105750Y-116492000D01*
X139127191Y-116493053D01*
G37*
G36*
X140702191Y-116493053D02*
G01*
X140723426Y-116496203D01*
X140744250Y-116501419D01*
X140764462Y-116508651D01*
X140783868Y-116517830D01*
X140802281Y-116528866D01*
X140819524Y-116541654D01*
X140835430Y-116556070D01*
X140849846Y-116571976D01*
X140862634Y-116589219D01*
X140873670Y-116607632D01*
X140882849Y-116627038D01*
X140890081Y-116647250D01*
X140895297Y-116668074D01*
X140898447Y-116689309D01*
X140899500Y-116710750D01*
X140899500Y-117223250D01*
X140898447Y-117244691D01*
X140895297Y-117265926D01*
X140890081Y-117286750D01*
X140882849Y-117306962D01*
X140873670Y-117326368D01*
X140862634Y-117344781D01*
X140849846Y-117362024D01*
X140835430Y-117377930D01*
X140819524Y-117392346D01*
X140802281Y-117405134D01*
X140783868Y-117416170D01*
X140764462Y-117425349D01*
X140744250Y-117432581D01*
X140723426Y-117437797D01*
X140702191Y-117440947D01*
X140680750Y-117442000D01*
X140243250Y-117442000D01*
X140221809Y-117440947D01*
X140200574Y-117437797D01*
X140179750Y-117432581D01*
X140159538Y-117425349D01*
X140140132Y-117416170D01*
X140121719Y-117405134D01*
X140104476Y-117392346D01*
X140088570Y-117377930D01*
X140074154Y-117362024D01*
X140061366Y-117344781D01*
X140050330Y-117326368D01*
X140041151Y-117306962D01*
X140033919Y-117286750D01*
X140028703Y-117265926D01*
X140025553Y-117244691D01*
X140024500Y-117223250D01*
X140024500Y-116710750D01*
X140025553Y-116689309D01*
X140028703Y-116668074D01*
X140033919Y-116647250D01*
X140041151Y-116627038D01*
X140050330Y-116607632D01*
X140061366Y-116589219D01*
X140074154Y-116571976D01*
X140088570Y-116556070D01*
X140104476Y-116541654D01*
X140121719Y-116528866D01*
X140140132Y-116517830D01*
X140159538Y-116508651D01*
X140179750Y-116501419D01*
X140200574Y-116496203D01*
X140221809Y-116493053D01*
X140243250Y-116492000D01*
X140680750Y-116492000D01*
X140702191Y-116493053D01*
G37*
%TD*%
%TO.C,R18*%
G36*
X172077691Y-97226053D02*
G01*
X172098926Y-97229203D01*
X172119750Y-97234419D01*
X172139962Y-97241651D01*
X172159368Y-97250830D01*
X172177781Y-97261866D01*
X172195024Y-97274654D01*
X172210930Y-97289070D01*
X172225346Y-97304976D01*
X172238134Y-97322219D01*
X172249170Y-97340632D01*
X172258349Y-97360038D01*
X172265581Y-97380250D01*
X172270797Y-97401074D01*
X172273947Y-97422309D01*
X172275000Y-97443750D01*
X172275000Y-97881250D01*
X172273947Y-97902691D01*
X172270797Y-97923926D01*
X172265581Y-97944750D01*
X172258349Y-97964962D01*
X172249170Y-97984368D01*
X172238134Y-98002781D01*
X172225346Y-98020024D01*
X172210930Y-98035930D01*
X172195024Y-98050346D01*
X172177781Y-98063134D01*
X172159368Y-98074170D01*
X172139962Y-98083349D01*
X172119750Y-98090581D01*
X172098926Y-98095797D01*
X172077691Y-98098947D01*
X172056250Y-98100000D01*
X171543750Y-98100000D01*
X171522309Y-98098947D01*
X171501074Y-98095797D01*
X171480250Y-98090581D01*
X171460038Y-98083349D01*
X171440632Y-98074170D01*
X171422219Y-98063134D01*
X171404976Y-98050346D01*
X171389070Y-98035930D01*
X171374654Y-98020024D01*
X171361866Y-98002781D01*
X171350830Y-97984368D01*
X171341651Y-97964962D01*
X171334419Y-97944750D01*
X171329203Y-97923926D01*
X171326053Y-97902691D01*
X171325000Y-97881250D01*
X171325000Y-97443750D01*
X171326053Y-97422309D01*
X171329203Y-97401074D01*
X171334419Y-97380250D01*
X171341651Y-97360038D01*
X171350830Y-97340632D01*
X171361866Y-97322219D01*
X171374654Y-97304976D01*
X171389070Y-97289070D01*
X171404976Y-97274654D01*
X171422219Y-97261866D01*
X171440632Y-97250830D01*
X171460038Y-97241651D01*
X171480250Y-97234419D01*
X171501074Y-97229203D01*
X171522309Y-97226053D01*
X171543750Y-97225000D01*
X172056250Y-97225000D01*
X172077691Y-97226053D01*
G37*
G36*
X172077691Y-98801053D02*
G01*
X172098926Y-98804203D01*
X172119750Y-98809419D01*
X172139962Y-98816651D01*
X172159368Y-98825830D01*
X172177781Y-98836866D01*
X172195024Y-98849654D01*
X172210930Y-98864070D01*
X172225346Y-98879976D01*
X172238134Y-98897219D01*
X172249170Y-98915632D01*
X172258349Y-98935038D01*
X172265581Y-98955250D01*
X172270797Y-98976074D01*
X172273947Y-98997309D01*
X172275000Y-99018750D01*
X172275000Y-99456250D01*
X172273947Y-99477691D01*
X172270797Y-99498926D01*
X172265581Y-99519750D01*
X172258349Y-99539962D01*
X172249170Y-99559368D01*
X172238134Y-99577781D01*
X172225346Y-99595024D01*
X172210930Y-99610930D01*
X172195024Y-99625346D01*
X172177781Y-99638134D01*
X172159368Y-99649170D01*
X172139962Y-99658349D01*
X172119750Y-99665581D01*
X172098926Y-99670797D01*
X172077691Y-99673947D01*
X172056250Y-99675000D01*
X171543750Y-99675000D01*
X171522309Y-99673947D01*
X171501074Y-99670797D01*
X171480250Y-99665581D01*
X171460038Y-99658349D01*
X171440632Y-99649170D01*
X171422219Y-99638134D01*
X171404976Y-99625346D01*
X171389070Y-99610930D01*
X171374654Y-99595024D01*
X171361866Y-99577781D01*
X171350830Y-99559368D01*
X171341651Y-99539962D01*
X171334419Y-99519750D01*
X171329203Y-99498926D01*
X171326053Y-99477691D01*
X171325000Y-99456250D01*
X171325000Y-99018750D01*
X171326053Y-98997309D01*
X171329203Y-98976074D01*
X171334419Y-98955250D01*
X171341651Y-98935038D01*
X171350830Y-98915632D01*
X171361866Y-98897219D01*
X171374654Y-98879976D01*
X171389070Y-98864070D01*
X171404976Y-98849654D01*
X171422219Y-98836866D01*
X171440632Y-98825830D01*
X171460038Y-98816651D01*
X171480250Y-98809419D01*
X171501074Y-98804203D01*
X171522309Y-98801053D01*
X171543750Y-98800000D01*
X172056250Y-98800000D01*
X172077691Y-98801053D01*
G37*
%TD*%
%TO.C,C13*%
G36*
X178777691Y-100226053D02*
G01*
X178798926Y-100229203D01*
X178819750Y-100234419D01*
X178839962Y-100241651D01*
X178859368Y-100250830D01*
X178877781Y-100261866D01*
X178895024Y-100274654D01*
X178910930Y-100289070D01*
X178925346Y-100304976D01*
X178938134Y-100322219D01*
X178949170Y-100340632D01*
X178958349Y-100360038D01*
X178965581Y-100380250D01*
X178970797Y-100401074D01*
X178973947Y-100422309D01*
X178975000Y-100443750D01*
X178975000Y-100881250D01*
X178973947Y-100902691D01*
X178970797Y-100923926D01*
X178965581Y-100944750D01*
X178958349Y-100964962D01*
X178949170Y-100984368D01*
X178938134Y-101002781D01*
X178925346Y-101020024D01*
X178910930Y-101035930D01*
X178895024Y-101050346D01*
X178877781Y-101063134D01*
X178859368Y-101074170D01*
X178839962Y-101083349D01*
X178819750Y-101090581D01*
X178798926Y-101095797D01*
X178777691Y-101098947D01*
X178756250Y-101100000D01*
X178243750Y-101100000D01*
X178222309Y-101098947D01*
X178201074Y-101095797D01*
X178180250Y-101090581D01*
X178160038Y-101083349D01*
X178140632Y-101074170D01*
X178122219Y-101063134D01*
X178104976Y-101050346D01*
X178089070Y-101035930D01*
X178074654Y-101020024D01*
X178061866Y-101002781D01*
X178050830Y-100984368D01*
X178041651Y-100964962D01*
X178034419Y-100944750D01*
X178029203Y-100923926D01*
X178026053Y-100902691D01*
X178025000Y-100881250D01*
X178025000Y-100443750D01*
X178026053Y-100422309D01*
X178029203Y-100401074D01*
X178034419Y-100380250D01*
X178041651Y-100360038D01*
X178050830Y-100340632D01*
X178061866Y-100322219D01*
X178074654Y-100304976D01*
X178089070Y-100289070D01*
X178104976Y-100274654D01*
X178122219Y-100261866D01*
X178140632Y-100250830D01*
X178160038Y-100241651D01*
X178180250Y-100234419D01*
X178201074Y-100229203D01*
X178222309Y-100226053D01*
X178243750Y-100225000D01*
X178756250Y-100225000D01*
X178777691Y-100226053D01*
G37*
G36*
X178777691Y-101801053D02*
G01*
X178798926Y-101804203D01*
X178819750Y-101809419D01*
X178839962Y-101816651D01*
X178859368Y-101825830D01*
X178877781Y-101836866D01*
X178895024Y-101849654D01*
X178910930Y-101864070D01*
X178925346Y-101879976D01*
X178938134Y-101897219D01*
X178949170Y-101915632D01*
X178958349Y-101935038D01*
X178965581Y-101955250D01*
X178970797Y-101976074D01*
X178973947Y-101997309D01*
X178975000Y-102018750D01*
X178975000Y-102456250D01*
X178973947Y-102477691D01*
X178970797Y-102498926D01*
X178965581Y-102519750D01*
X178958349Y-102539962D01*
X178949170Y-102559368D01*
X178938134Y-102577781D01*
X178925346Y-102595024D01*
X178910930Y-102610930D01*
X178895024Y-102625346D01*
X178877781Y-102638134D01*
X178859368Y-102649170D01*
X178839962Y-102658349D01*
X178819750Y-102665581D01*
X178798926Y-102670797D01*
X178777691Y-102673947D01*
X178756250Y-102675000D01*
X178243750Y-102675000D01*
X178222309Y-102673947D01*
X178201074Y-102670797D01*
X178180250Y-102665581D01*
X178160038Y-102658349D01*
X178140632Y-102649170D01*
X178122219Y-102638134D01*
X178104976Y-102625346D01*
X178089070Y-102610930D01*
X178074654Y-102595024D01*
X178061866Y-102577781D01*
X178050830Y-102559368D01*
X178041651Y-102539962D01*
X178034419Y-102519750D01*
X178029203Y-102498926D01*
X178026053Y-102477691D01*
X178025000Y-102456250D01*
X178025000Y-102018750D01*
X178026053Y-101997309D01*
X178029203Y-101976074D01*
X178034419Y-101955250D01*
X178041651Y-101935038D01*
X178050830Y-101915632D01*
X178061866Y-101897219D01*
X178074654Y-101879976D01*
X178089070Y-101864070D01*
X178104976Y-101849654D01*
X178122219Y-101836866D01*
X178140632Y-101825830D01*
X178160038Y-101816651D01*
X178180250Y-101809419D01*
X178201074Y-101804203D01*
X178222309Y-101801053D01*
X178243750Y-101800000D01*
X178756250Y-101800000D01*
X178777691Y-101801053D01*
G37*
%TD*%
%TO.C,C12*%
G36*
X173727691Y-100376053D02*
G01*
X173748926Y-100379203D01*
X173769750Y-100384419D01*
X173789962Y-100391651D01*
X173809368Y-100400830D01*
X173827781Y-100411866D01*
X173845024Y-100424654D01*
X173860930Y-100439070D01*
X173875346Y-100454976D01*
X173888134Y-100472219D01*
X173899170Y-100490632D01*
X173908349Y-100510038D01*
X173915581Y-100530250D01*
X173920797Y-100551074D01*
X173923947Y-100572309D01*
X173925000Y-100593750D01*
X173925000Y-101031250D01*
X173923947Y-101052691D01*
X173920797Y-101073926D01*
X173915581Y-101094750D01*
X173908349Y-101114962D01*
X173899170Y-101134368D01*
X173888134Y-101152781D01*
X173875346Y-101170024D01*
X173860930Y-101185930D01*
X173845024Y-101200346D01*
X173827781Y-101213134D01*
X173809368Y-101224170D01*
X173789962Y-101233349D01*
X173769750Y-101240581D01*
X173748926Y-101245797D01*
X173727691Y-101248947D01*
X173706250Y-101250000D01*
X173193750Y-101250000D01*
X173172309Y-101248947D01*
X173151074Y-101245797D01*
X173130250Y-101240581D01*
X173110038Y-101233349D01*
X173090632Y-101224170D01*
X173072219Y-101213134D01*
X173054976Y-101200346D01*
X173039070Y-101185930D01*
X173024654Y-101170024D01*
X173011866Y-101152781D01*
X173000830Y-101134368D01*
X172991651Y-101114962D01*
X172984419Y-101094750D01*
X172979203Y-101073926D01*
X172976053Y-101052691D01*
X172975000Y-101031250D01*
X172975000Y-100593750D01*
X172976053Y-100572309D01*
X172979203Y-100551074D01*
X172984419Y-100530250D01*
X172991651Y-100510038D01*
X173000830Y-100490632D01*
X173011866Y-100472219D01*
X173024654Y-100454976D01*
X173039070Y-100439070D01*
X173054976Y-100424654D01*
X173072219Y-100411866D01*
X173090632Y-100400830D01*
X173110038Y-100391651D01*
X173130250Y-100384419D01*
X173151074Y-100379203D01*
X173172309Y-100376053D01*
X173193750Y-100375000D01*
X173706250Y-100375000D01*
X173727691Y-100376053D01*
G37*
G36*
X173727691Y-101951053D02*
G01*
X173748926Y-101954203D01*
X173769750Y-101959419D01*
X173789962Y-101966651D01*
X173809368Y-101975830D01*
X173827781Y-101986866D01*
X173845024Y-101999654D01*
X173860930Y-102014070D01*
X173875346Y-102029976D01*
X173888134Y-102047219D01*
X173899170Y-102065632D01*
X173908349Y-102085038D01*
X173915581Y-102105250D01*
X173920797Y-102126074D01*
X173923947Y-102147309D01*
X173925000Y-102168750D01*
X173925000Y-102606250D01*
X173923947Y-102627691D01*
X173920797Y-102648926D01*
X173915581Y-102669750D01*
X173908349Y-102689962D01*
X173899170Y-102709368D01*
X173888134Y-102727781D01*
X173875346Y-102745024D01*
X173860930Y-102760930D01*
X173845024Y-102775346D01*
X173827781Y-102788134D01*
X173809368Y-102799170D01*
X173789962Y-102808349D01*
X173769750Y-102815581D01*
X173748926Y-102820797D01*
X173727691Y-102823947D01*
X173706250Y-102825000D01*
X173193750Y-102825000D01*
X173172309Y-102823947D01*
X173151074Y-102820797D01*
X173130250Y-102815581D01*
X173110038Y-102808349D01*
X173090632Y-102799170D01*
X173072219Y-102788134D01*
X173054976Y-102775346D01*
X173039070Y-102760930D01*
X173024654Y-102745024D01*
X173011866Y-102727781D01*
X173000830Y-102709368D01*
X172991651Y-102689962D01*
X172984419Y-102669750D01*
X172979203Y-102648926D01*
X172976053Y-102627691D01*
X172975000Y-102606250D01*
X172975000Y-102168750D01*
X172976053Y-102147309D01*
X172979203Y-102126074D01*
X172984419Y-102105250D01*
X172991651Y-102085038D01*
X173000830Y-102065632D01*
X173011866Y-102047219D01*
X173024654Y-102029976D01*
X173039070Y-102014070D01*
X173054976Y-101999654D01*
X173072219Y-101986866D01*
X173090632Y-101975830D01*
X173110038Y-101966651D01*
X173130250Y-101959419D01*
X173151074Y-101954203D01*
X173172309Y-101951053D01*
X173193750Y-101950000D01*
X173706250Y-101950000D01*
X173727691Y-101951053D01*
G37*
%TD*%
%TO.C,C11*%
G36*
X173727691Y-98801053D02*
G01*
X173748926Y-98804203D01*
X173769750Y-98809419D01*
X173789962Y-98816651D01*
X173809368Y-98825830D01*
X173827781Y-98836866D01*
X173845024Y-98849654D01*
X173860930Y-98864070D01*
X173875346Y-98879976D01*
X173888134Y-98897219D01*
X173899170Y-98915632D01*
X173908349Y-98935038D01*
X173915581Y-98955250D01*
X173920797Y-98976074D01*
X173923947Y-98997309D01*
X173925000Y-99018750D01*
X173925000Y-99456250D01*
X173923947Y-99477691D01*
X173920797Y-99498926D01*
X173915581Y-99519750D01*
X173908349Y-99539962D01*
X173899170Y-99559368D01*
X173888134Y-99577781D01*
X173875346Y-99595024D01*
X173860930Y-99610930D01*
X173845024Y-99625346D01*
X173827781Y-99638134D01*
X173809368Y-99649170D01*
X173789962Y-99658349D01*
X173769750Y-99665581D01*
X173748926Y-99670797D01*
X173727691Y-99673947D01*
X173706250Y-99675000D01*
X173193750Y-99675000D01*
X173172309Y-99673947D01*
X173151074Y-99670797D01*
X173130250Y-99665581D01*
X173110038Y-99658349D01*
X173090632Y-99649170D01*
X173072219Y-99638134D01*
X173054976Y-99625346D01*
X173039070Y-99610930D01*
X173024654Y-99595024D01*
X173011866Y-99577781D01*
X173000830Y-99559368D01*
X172991651Y-99539962D01*
X172984419Y-99519750D01*
X172979203Y-99498926D01*
X172976053Y-99477691D01*
X172975000Y-99456250D01*
X172975000Y-99018750D01*
X172976053Y-98997309D01*
X172979203Y-98976074D01*
X172984419Y-98955250D01*
X172991651Y-98935038D01*
X173000830Y-98915632D01*
X173011866Y-98897219D01*
X173024654Y-98879976D01*
X173039070Y-98864070D01*
X173054976Y-98849654D01*
X173072219Y-98836866D01*
X173090632Y-98825830D01*
X173110038Y-98816651D01*
X173130250Y-98809419D01*
X173151074Y-98804203D01*
X173172309Y-98801053D01*
X173193750Y-98800000D01*
X173706250Y-98800000D01*
X173727691Y-98801053D01*
G37*
G36*
X173727691Y-97226053D02*
G01*
X173748926Y-97229203D01*
X173769750Y-97234419D01*
X173789962Y-97241651D01*
X173809368Y-97250830D01*
X173827781Y-97261866D01*
X173845024Y-97274654D01*
X173860930Y-97289070D01*
X173875346Y-97304976D01*
X173888134Y-97322219D01*
X173899170Y-97340632D01*
X173908349Y-97360038D01*
X173915581Y-97380250D01*
X173920797Y-97401074D01*
X173923947Y-97422309D01*
X173925000Y-97443750D01*
X173925000Y-97881250D01*
X173923947Y-97902691D01*
X173920797Y-97923926D01*
X173915581Y-97944750D01*
X173908349Y-97964962D01*
X173899170Y-97984368D01*
X173888134Y-98002781D01*
X173875346Y-98020024D01*
X173860930Y-98035930D01*
X173845024Y-98050346D01*
X173827781Y-98063134D01*
X173809368Y-98074170D01*
X173789962Y-98083349D01*
X173769750Y-98090581D01*
X173748926Y-98095797D01*
X173727691Y-98098947D01*
X173706250Y-98100000D01*
X173193750Y-98100000D01*
X173172309Y-98098947D01*
X173151074Y-98095797D01*
X173130250Y-98090581D01*
X173110038Y-98083349D01*
X173090632Y-98074170D01*
X173072219Y-98063134D01*
X173054976Y-98050346D01*
X173039070Y-98035930D01*
X173024654Y-98020024D01*
X173011866Y-98002781D01*
X173000830Y-97984368D01*
X172991651Y-97964962D01*
X172984419Y-97944750D01*
X172979203Y-97923926D01*
X172976053Y-97902691D01*
X172975000Y-97881250D01*
X172975000Y-97443750D01*
X172976053Y-97422309D01*
X172979203Y-97401074D01*
X172984419Y-97380250D01*
X172991651Y-97360038D01*
X173000830Y-97340632D01*
X173011866Y-97322219D01*
X173024654Y-97304976D01*
X173039070Y-97289070D01*
X173054976Y-97274654D01*
X173072219Y-97261866D01*
X173090632Y-97250830D01*
X173110038Y-97241651D01*
X173130250Y-97234419D01*
X173151074Y-97229203D01*
X173172309Y-97226053D01*
X173193750Y-97225000D01*
X173706250Y-97225000D01*
X173727691Y-97226053D01*
G37*
%TD*%
%TO.C,C10*%
G36*
X170224691Y-97161053D02*
G01*
X170245926Y-97164203D01*
X170266750Y-97169419D01*
X170286962Y-97176651D01*
X170306368Y-97185830D01*
X170324781Y-97196866D01*
X170342024Y-97209654D01*
X170357930Y-97224070D01*
X170372346Y-97239976D01*
X170385134Y-97257219D01*
X170396170Y-97275632D01*
X170405349Y-97295038D01*
X170412581Y-97315250D01*
X170417797Y-97336074D01*
X170420947Y-97357309D01*
X170422000Y-97378750D01*
X170422000Y-97891250D01*
X170420947Y-97912691D01*
X170417797Y-97933926D01*
X170412581Y-97954750D01*
X170405349Y-97974962D01*
X170396170Y-97994368D01*
X170385134Y-98012781D01*
X170372346Y-98030024D01*
X170357930Y-98045930D01*
X170342024Y-98060346D01*
X170324781Y-98073134D01*
X170306368Y-98084170D01*
X170286962Y-98093349D01*
X170266750Y-98100581D01*
X170245926Y-98105797D01*
X170224691Y-98108947D01*
X170203250Y-98110000D01*
X169765750Y-98110000D01*
X169744309Y-98108947D01*
X169723074Y-98105797D01*
X169702250Y-98100581D01*
X169682038Y-98093349D01*
X169662632Y-98084170D01*
X169644219Y-98073134D01*
X169626976Y-98060346D01*
X169611070Y-98045930D01*
X169596654Y-98030024D01*
X169583866Y-98012781D01*
X169572830Y-97994368D01*
X169563651Y-97974962D01*
X169556419Y-97954750D01*
X169551203Y-97933926D01*
X169548053Y-97912691D01*
X169547000Y-97891250D01*
X169547000Y-97378750D01*
X169548053Y-97357309D01*
X169551203Y-97336074D01*
X169556419Y-97315250D01*
X169563651Y-97295038D01*
X169572830Y-97275632D01*
X169583866Y-97257219D01*
X169596654Y-97239976D01*
X169611070Y-97224070D01*
X169626976Y-97209654D01*
X169644219Y-97196866D01*
X169662632Y-97185830D01*
X169682038Y-97176651D01*
X169702250Y-97169419D01*
X169723074Y-97164203D01*
X169744309Y-97161053D01*
X169765750Y-97160000D01*
X170203250Y-97160000D01*
X170224691Y-97161053D01*
G37*
G36*
X168649691Y-97161053D02*
G01*
X168670926Y-97164203D01*
X168691750Y-97169419D01*
X168711962Y-97176651D01*
X168731368Y-97185830D01*
X168749781Y-97196866D01*
X168767024Y-97209654D01*
X168782930Y-97224070D01*
X168797346Y-97239976D01*
X168810134Y-97257219D01*
X168821170Y-97275632D01*
X168830349Y-97295038D01*
X168837581Y-97315250D01*
X168842797Y-97336074D01*
X168845947Y-97357309D01*
X168847000Y-97378750D01*
X168847000Y-97891250D01*
X168845947Y-97912691D01*
X168842797Y-97933926D01*
X168837581Y-97954750D01*
X168830349Y-97974962D01*
X168821170Y-97994368D01*
X168810134Y-98012781D01*
X168797346Y-98030024D01*
X168782930Y-98045930D01*
X168767024Y-98060346D01*
X168749781Y-98073134D01*
X168731368Y-98084170D01*
X168711962Y-98093349D01*
X168691750Y-98100581D01*
X168670926Y-98105797D01*
X168649691Y-98108947D01*
X168628250Y-98110000D01*
X168190750Y-98110000D01*
X168169309Y-98108947D01*
X168148074Y-98105797D01*
X168127250Y-98100581D01*
X168107038Y-98093349D01*
X168087632Y-98084170D01*
X168069219Y-98073134D01*
X168051976Y-98060346D01*
X168036070Y-98045930D01*
X168021654Y-98030024D01*
X168008866Y-98012781D01*
X167997830Y-97994368D01*
X167988651Y-97974962D01*
X167981419Y-97954750D01*
X167976203Y-97933926D01*
X167973053Y-97912691D01*
X167972000Y-97891250D01*
X167972000Y-97378750D01*
X167973053Y-97357309D01*
X167976203Y-97336074D01*
X167981419Y-97315250D01*
X167988651Y-97295038D01*
X167997830Y-97275632D01*
X168008866Y-97257219D01*
X168021654Y-97239976D01*
X168036070Y-97224070D01*
X168051976Y-97209654D01*
X168069219Y-97196866D01*
X168087632Y-97185830D01*
X168107038Y-97176651D01*
X168127250Y-97169419D01*
X168148074Y-97164203D01*
X168169309Y-97161053D01*
X168190750Y-97160000D01*
X168628250Y-97160000D01*
X168649691Y-97161053D01*
G37*
%TD*%
%TO.C,C9*%
G36*
X166477691Y-111476053D02*
G01*
X166498926Y-111479203D01*
X166519750Y-111484419D01*
X166539962Y-111491651D01*
X166559368Y-111500830D01*
X166577781Y-111511866D01*
X166595024Y-111524654D01*
X166610930Y-111539070D01*
X166625346Y-111554976D01*
X166638134Y-111572219D01*
X166649170Y-111590632D01*
X166658349Y-111610038D01*
X166665581Y-111630250D01*
X166670797Y-111651074D01*
X166673947Y-111672309D01*
X166675000Y-111693750D01*
X166675000Y-112206250D01*
X166673947Y-112227691D01*
X166670797Y-112248926D01*
X166665581Y-112269750D01*
X166658349Y-112289962D01*
X166649170Y-112309368D01*
X166638134Y-112327781D01*
X166625346Y-112345024D01*
X166610930Y-112360930D01*
X166595024Y-112375346D01*
X166577781Y-112388134D01*
X166559368Y-112399170D01*
X166539962Y-112408349D01*
X166519750Y-112415581D01*
X166498926Y-112420797D01*
X166477691Y-112423947D01*
X166456250Y-112425000D01*
X166018750Y-112425000D01*
X165997309Y-112423947D01*
X165976074Y-112420797D01*
X165955250Y-112415581D01*
X165935038Y-112408349D01*
X165915632Y-112399170D01*
X165897219Y-112388134D01*
X165879976Y-112375346D01*
X165864070Y-112360930D01*
X165849654Y-112345024D01*
X165836866Y-112327781D01*
X165825830Y-112309368D01*
X165816651Y-112289962D01*
X165809419Y-112269750D01*
X165804203Y-112248926D01*
X165801053Y-112227691D01*
X165800000Y-112206250D01*
X165800000Y-111693750D01*
X165801053Y-111672309D01*
X165804203Y-111651074D01*
X165809419Y-111630250D01*
X165816651Y-111610038D01*
X165825830Y-111590632D01*
X165836866Y-111572219D01*
X165849654Y-111554976D01*
X165864070Y-111539070D01*
X165879976Y-111524654D01*
X165897219Y-111511866D01*
X165915632Y-111500830D01*
X165935038Y-111491651D01*
X165955250Y-111484419D01*
X165976074Y-111479203D01*
X165997309Y-111476053D01*
X166018750Y-111475000D01*
X166456250Y-111475000D01*
X166477691Y-111476053D01*
G37*
G36*
X164902691Y-111476053D02*
G01*
X164923926Y-111479203D01*
X164944750Y-111484419D01*
X164964962Y-111491651D01*
X164984368Y-111500830D01*
X165002781Y-111511866D01*
X165020024Y-111524654D01*
X165035930Y-111539070D01*
X165050346Y-111554976D01*
X165063134Y-111572219D01*
X165074170Y-111590632D01*
X165083349Y-111610038D01*
X165090581Y-111630250D01*
X165095797Y-111651074D01*
X165098947Y-111672309D01*
X165100000Y-111693750D01*
X165100000Y-112206250D01*
X165098947Y-112227691D01*
X165095797Y-112248926D01*
X165090581Y-112269750D01*
X165083349Y-112289962D01*
X165074170Y-112309368D01*
X165063134Y-112327781D01*
X165050346Y-112345024D01*
X165035930Y-112360930D01*
X165020024Y-112375346D01*
X165002781Y-112388134D01*
X164984368Y-112399170D01*
X164964962Y-112408349D01*
X164944750Y-112415581D01*
X164923926Y-112420797D01*
X164902691Y-112423947D01*
X164881250Y-112425000D01*
X164443750Y-112425000D01*
X164422309Y-112423947D01*
X164401074Y-112420797D01*
X164380250Y-112415581D01*
X164360038Y-112408349D01*
X164340632Y-112399170D01*
X164322219Y-112388134D01*
X164304976Y-112375346D01*
X164289070Y-112360930D01*
X164274654Y-112345024D01*
X164261866Y-112327781D01*
X164250830Y-112309368D01*
X164241651Y-112289962D01*
X164234419Y-112269750D01*
X164229203Y-112248926D01*
X164226053Y-112227691D01*
X164225000Y-112206250D01*
X164225000Y-111693750D01*
X164226053Y-111672309D01*
X164229203Y-111651074D01*
X164234419Y-111630250D01*
X164241651Y-111610038D01*
X164250830Y-111590632D01*
X164261866Y-111572219D01*
X164274654Y-111554976D01*
X164289070Y-111539070D01*
X164304976Y-111524654D01*
X164322219Y-111511866D01*
X164340632Y-111500830D01*
X164360038Y-111491651D01*
X164380250Y-111484419D01*
X164401074Y-111479203D01*
X164422309Y-111476053D01*
X164443750Y-111475000D01*
X164881250Y-111475000D01*
X164902691Y-111476053D01*
G37*
%TD*%
%TO.C,C8*%
G36*
X164902691Y-114676053D02*
G01*
X164923926Y-114679203D01*
X164944750Y-114684419D01*
X164964962Y-114691651D01*
X164984368Y-114700830D01*
X165002781Y-114711866D01*
X165020024Y-114724654D01*
X165035930Y-114739070D01*
X165050346Y-114754976D01*
X165063134Y-114772219D01*
X165074170Y-114790632D01*
X165083349Y-114810038D01*
X165090581Y-114830250D01*
X165095797Y-114851074D01*
X165098947Y-114872309D01*
X165100000Y-114893750D01*
X165100000Y-115406250D01*
X165098947Y-115427691D01*
X165095797Y-115448926D01*
X165090581Y-115469750D01*
X165083349Y-115489962D01*
X165074170Y-115509368D01*
X165063134Y-115527781D01*
X165050346Y-115545024D01*
X165035930Y-115560930D01*
X165020024Y-115575346D01*
X165002781Y-115588134D01*
X164984368Y-115599170D01*
X164964962Y-115608349D01*
X164944750Y-115615581D01*
X164923926Y-115620797D01*
X164902691Y-115623947D01*
X164881250Y-115625000D01*
X164443750Y-115625000D01*
X164422309Y-115623947D01*
X164401074Y-115620797D01*
X164380250Y-115615581D01*
X164360038Y-115608349D01*
X164340632Y-115599170D01*
X164322219Y-115588134D01*
X164304976Y-115575346D01*
X164289070Y-115560930D01*
X164274654Y-115545024D01*
X164261866Y-115527781D01*
X164250830Y-115509368D01*
X164241651Y-115489962D01*
X164234419Y-115469750D01*
X164229203Y-115448926D01*
X164226053Y-115427691D01*
X164225000Y-115406250D01*
X164225000Y-114893750D01*
X164226053Y-114872309D01*
X164229203Y-114851074D01*
X164234419Y-114830250D01*
X164241651Y-114810038D01*
X164250830Y-114790632D01*
X164261866Y-114772219D01*
X164274654Y-114754976D01*
X164289070Y-114739070D01*
X164304976Y-114724654D01*
X164322219Y-114711866D01*
X164340632Y-114700830D01*
X164360038Y-114691651D01*
X164380250Y-114684419D01*
X164401074Y-114679203D01*
X164422309Y-114676053D01*
X164443750Y-114675000D01*
X164881250Y-114675000D01*
X164902691Y-114676053D01*
G37*
G36*
X166477691Y-114676053D02*
G01*
X166498926Y-114679203D01*
X166519750Y-114684419D01*
X166539962Y-114691651D01*
X166559368Y-114700830D01*
X166577781Y-114711866D01*
X166595024Y-114724654D01*
X166610930Y-114739070D01*
X166625346Y-114754976D01*
X166638134Y-114772219D01*
X166649170Y-114790632D01*
X166658349Y-114810038D01*
X166665581Y-114830250D01*
X166670797Y-114851074D01*
X166673947Y-114872309D01*
X166675000Y-114893750D01*
X166675000Y-115406250D01*
X166673947Y-115427691D01*
X166670797Y-115448926D01*
X166665581Y-115469750D01*
X166658349Y-115489962D01*
X166649170Y-115509368D01*
X166638134Y-115527781D01*
X166625346Y-115545024D01*
X166610930Y-115560930D01*
X166595024Y-115575346D01*
X166577781Y-115588134D01*
X166559368Y-115599170D01*
X166539962Y-115608349D01*
X166519750Y-115615581D01*
X166498926Y-115620797D01*
X166477691Y-115623947D01*
X166456250Y-115625000D01*
X166018750Y-115625000D01*
X165997309Y-115623947D01*
X165976074Y-115620797D01*
X165955250Y-115615581D01*
X165935038Y-115608349D01*
X165915632Y-115599170D01*
X165897219Y-115588134D01*
X165879976Y-115575346D01*
X165864070Y-115560930D01*
X165849654Y-115545024D01*
X165836866Y-115527781D01*
X165825830Y-115509368D01*
X165816651Y-115489962D01*
X165809419Y-115469750D01*
X165804203Y-115448926D01*
X165801053Y-115427691D01*
X165800000Y-115406250D01*
X165800000Y-114893750D01*
X165801053Y-114872309D01*
X165804203Y-114851074D01*
X165809419Y-114830250D01*
X165816651Y-114810038D01*
X165825830Y-114790632D01*
X165836866Y-114772219D01*
X165849654Y-114754976D01*
X165864070Y-114739070D01*
X165879976Y-114724654D01*
X165897219Y-114711866D01*
X165915632Y-114700830D01*
X165935038Y-114691651D01*
X165955250Y-114684419D01*
X165976074Y-114679203D01*
X165997309Y-114676053D01*
X166018750Y-114675000D01*
X166456250Y-114675000D01*
X166477691Y-114676053D01*
G37*
%TD*%
%TO.C,C7*%
G36*
X156490191Y-106351053D02*
G01*
X156511426Y-106354203D01*
X156532250Y-106359419D01*
X156552462Y-106366651D01*
X156571868Y-106375830D01*
X156590281Y-106386866D01*
X156607524Y-106399654D01*
X156623430Y-106414070D01*
X156637846Y-106429976D01*
X156650634Y-106447219D01*
X156661670Y-106465632D01*
X156670849Y-106485038D01*
X156678081Y-106505250D01*
X156683297Y-106526074D01*
X156686447Y-106547309D01*
X156687500Y-106568750D01*
X156687500Y-107081250D01*
X156686447Y-107102691D01*
X156683297Y-107123926D01*
X156678081Y-107144750D01*
X156670849Y-107164962D01*
X156661670Y-107184368D01*
X156650634Y-107202781D01*
X156637846Y-107220024D01*
X156623430Y-107235930D01*
X156607524Y-107250346D01*
X156590281Y-107263134D01*
X156571868Y-107274170D01*
X156552462Y-107283349D01*
X156532250Y-107290581D01*
X156511426Y-107295797D01*
X156490191Y-107298947D01*
X156468750Y-107300000D01*
X156031250Y-107300000D01*
X156009809Y-107298947D01*
X155988574Y-107295797D01*
X155967750Y-107290581D01*
X155947538Y-107283349D01*
X155928132Y-107274170D01*
X155909719Y-107263134D01*
X155892476Y-107250346D01*
X155876570Y-107235930D01*
X155862154Y-107220024D01*
X155849366Y-107202781D01*
X155838330Y-107184368D01*
X155829151Y-107164962D01*
X155821919Y-107144750D01*
X155816703Y-107123926D01*
X155813553Y-107102691D01*
X155812500Y-107081250D01*
X155812500Y-106568750D01*
X155813553Y-106547309D01*
X155816703Y-106526074D01*
X155821919Y-106505250D01*
X155829151Y-106485038D01*
X155838330Y-106465632D01*
X155849366Y-106447219D01*
X155862154Y-106429976D01*
X155876570Y-106414070D01*
X155892476Y-106399654D01*
X155909719Y-106386866D01*
X155928132Y-106375830D01*
X155947538Y-106366651D01*
X155967750Y-106359419D01*
X155988574Y-106354203D01*
X156009809Y-106351053D01*
X156031250Y-106350000D01*
X156468750Y-106350000D01*
X156490191Y-106351053D01*
G37*
G36*
X154915191Y-106351053D02*
G01*
X154936426Y-106354203D01*
X154957250Y-106359419D01*
X154977462Y-106366651D01*
X154996868Y-106375830D01*
X155015281Y-106386866D01*
X155032524Y-106399654D01*
X155048430Y-106414070D01*
X155062846Y-106429976D01*
X155075634Y-106447219D01*
X155086670Y-106465632D01*
X155095849Y-106485038D01*
X155103081Y-106505250D01*
X155108297Y-106526074D01*
X155111447Y-106547309D01*
X155112500Y-106568750D01*
X155112500Y-107081250D01*
X155111447Y-107102691D01*
X155108297Y-107123926D01*
X155103081Y-107144750D01*
X155095849Y-107164962D01*
X155086670Y-107184368D01*
X155075634Y-107202781D01*
X155062846Y-107220024D01*
X155048430Y-107235930D01*
X155032524Y-107250346D01*
X155015281Y-107263134D01*
X154996868Y-107274170D01*
X154977462Y-107283349D01*
X154957250Y-107290581D01*
X154936426Y-107295797D01*
X154915191Y-107298947D01*
X154893750Y-107300000D01*
X154456250Y-107300000D01*
X154434809Y-107298947D01*
X154413574Y-107295797D01*
X154392750Y-107290581D01*
X154372538Y-107283349D01*
X154353132Y-107274170D01*
X154334719Y-107263134D01*
X154317476Y-107250346D01*
X154301570Y-107235930D01*
X154287154Y-107220024D01*
X154274366Y-107202781D01*
X154263330Y-107184368D01*
X154254151Y-107164962D01*
X154246919Y-107144750D01*
X154241703Y-107123926D01*
X154238553Y-107102691D01*
X154237500Y-107081250D01*
X154237500Y-106568750D01*
X154238553Y-106547309D01*
X154241703Y-106526074D01*
X154246919Y-106505250D01*
X154254151Y-106485038D01*
X154263330Y-106465632D01*
X154274366Y-106447219D01*
X154287154Y-106429976D01*
X154301570Y-106414070D01*
X154317476Y-106399654D01*
X154334719Y-106386866D01*
X154353132Y-106375830D01*
X154372538Y-106366651D01*
X154392750Y-106359419D01*
X154413574Y-106354203D01*
X154434809Y-106351053D01*
X154456250Y-106350000D01*
X154893750Y-106350000D01*
X154915191Y-106351053D01*
G37*
%TD*%
%TO.C,R17*%
G36*
X164915191Y-109876053D02*
G01*
X164936426Y-109879203D01*
X164957250Y-109884419D01*
X164977462Y-109891651D01*
X164996868Y-109900830D01*
X165015281Y-109911866D01*
X165032524Y-109924654D01*
X165048430Y-109939070D01*
X165062846Y-109954976D01*
X165075634Y-109972219D01*
X165086670Y-109990632D01*
X165095849Y-110010038D01*
X165103081Y-110030250D01*
X165108297Y-110051074D01*
X165111447Y-110072309D01*
X165112500Y-110093750D01*
X165112500Y-110606250D01*
X165111447Y-110627691D01*
X165108297Y-110648926D01*
X165103081Y-110669750D01*
X165095849Y-110689962D01*
X165086670Y-110709368D01*
X165075634Y-110727781D01*
X165062846Y-110745024D01*
X165048430Y-110760930D01*
X165032524Y-110775346D01*
X165015281Y-110788134D01*
X164996868Y-110799170D01*
X164977462Y-110808349D01*
X164957250Y-110815581D01*
X164936426Y-110820797D01*
X164915191Y-110823947D01*
X164893750Y-110825000D01*
X164456250Y-110825000D01*
X164434809Y-110823947D01*
X164413574Y-110820797D01*
X164392750Y-110815581D01*
X164372538Y-110808349D01*
X164353132Y-110799170D01*
X164334719Y-110788134D01*
X164317476Y-110775346D01*
X164301570Y-110760930D01*
X164287154Y-110745024D01*
X164274366Y-110727781D01*
X164263330Y-110709368D01*
X164254151Y-110689962D01*
X164246919Y-110669750D01*
X164241703Y-110648926D01*
X164238553Y-110627691D01*
X164237500Y-110606250D01*
X164237500Y-110093750D01*
X164238553Y-110072309D01*
X164241703Y-110051074D01*
X164246919Y-110030250D01*
X164254151Y-110010038D01*
X164263330Y-109990632D01*
X164274366Y-109972219D01*
X164287154Y-109954976D01*
X164301570Y-109939070D01*
X164317476Y-109924654D01*
X164334719Y-109911866D01*
X164353132Y-109900830D01*
X164372538Y-109891651D01*
X164392750Y-109884419D01*
X164413574Y-109879203D01*
X164434809Y-109876053D01*
X164456250Y-109875000D01*
X164893750Y-109875000D01*
X164915191Y-109876053D01*
G37*
G36*
X166490191Y-109876053D02*
G01*
X166511426Y-109879203D01*
X166532250Y-109884419D01*
X166552462Y-109891651D01*
X166571868Y-109900830D01*
X166590281Y-109911866D01*
X166607524Y-109924654D01*
X166623430Y-109939070D01*
X166637846Y-109954976D01*
X166650634Y-109972219D01*
X166661670Y-109990632D01*
X166670849Y-110010038D01*
X166678081Y-110030250D01*
X166683297Y-110051074D01*
X166686447Y-110072309D01*
X166687500Y-110093750D01*
X166687500Y-110606250D01*
X166686447Y-110627691D01*
X166683297Y-110648926D01*
X166678081Y-110669750D01*
X166670849Y-110689962D01*
X166661670Y-110709368D01*
X166650634Y-110727781D01*
X166637846Y-110745024D01*
X166623430Y-110760930D01*
X166607524Y-110775346D01*
X166590281Y-110788134D01*
X166571868Y-110799170D01*
X166552462Y-110808349D01*
X166532250Y-110815581D01*
X166511426Y-110820797D01*
X166490191Y-110823947D01*
X166468750Y-110825000D01*
X166031250Y-110825000D01*
X166009809Y-110823947D01*
X165988574Y-110820797D01*
X165967750Y-110815581D01*
X165947538Y-110808349D01*
X165928132Y-110799170D01*
X165909719Y-110788134D01*
X165892476Y-110775346D01*
X165876570Y-110760930D01*
X165862154Y-110745024D01*
X165849366Y-110727781D01*
X165838330Y-110709368D01*
X165829151Y-110689962D01*
X165821919Y-110669750D01*
X165816703Y-110648926D01*
X165813553Y-110627691D01*
X165812500Y-110606250D01*
X165812500Y-110093750D01*
X165813553Y-110072309D01*
X165816703Y-110051074D01*
X165821919Y-110030250D01*
X165829151Y-110010038D01*
X165838330Y-109990632D01*
X165849366Y-109972219D01*
X165862154Y-109954976D01*
X165876570Y-109939070D01*
X165892476Y-109924654D01*
X165909719Y-109911866D01*
X165928132Y-109900830D01*
X165947538Y-109891651D01*
X165967750Y-109884419D01*
X165988574Y-109879203D01*
X166009809Y-109876053D01*
X166031250Y-109875000D01*
X166468750Y-109875000D01*
X166490191Y-109876053D01*
G37*
%TD*%
%TO.C,R16*%
G36*
X166490191Y-108276053D02*
G01*
X166511426Y-108279203D01*
X166532250Y-108284419D01*
X166552462Y-108291651D01*
X166571868Y-108300830D01*
X166590281Y-108311866D01*
X166607524Y-108324654D01*
X166623430Y-108339070D01*
X166637846Y-108354976D01*
X166650634Y-108372219D01*
X166661670Y-108390632D01*
X166670849Y-108410038D01*
X166678081Y-108430250D01*
X166683297Y-108451074D01*
X166686447Y-108472309D01*
X166687500Y-108493750D01*
X166687500Y-109006250D01*
X166686447Y-109027691D01*
X166683297Y-109048926D01*
X166678081Y-109069750D01*
X166670849Y-109089962D01*
X166661670Y-109109368D01*
X166650634Y-109127781D01*
X166637846Y-109145024D01*
X166623430Y-109160930D01*
X166607524Y-109175346D01*
X166590281Y-109188134D01*
X166571868Y-109199170D01*
X166552462Y-109208349D01*
X166532250Y-109215581D01*
X166511426Y-109220797D01*
X166490191Y-109223947D01*
X166468750Y-109225000D01*
X166031250Y-109225000D01*
X166009809Y-109223947D01*
X165988574Y-109220797D01*
X165967750Y-109215581D01*
X165947538Y-109208349D01*
X165928132Y-109199170D01*
X165909719Y-109188134D01*
X165892476Y-109175346D01*
X165876570Y-109160930D01*
X165862154Y-109145024D01*
X165849366Y-109127781D01*
X165838330Y-109109368D01*
X165829151Y-109089962D01*
X165821919Y-109069750D01*
X165816703Y-109048926D01*
X165813553Y-109027691D01*
X165812500Y-109006250D01*
X165812500Y-108493750D01*
X165813553Y-108472309D01*
X165816703Y-108451074D01*
X165821919Y-108430250D01*
X165829151Y-108410038D01*
X165838330Y-108390632D01*
X165849366Y-108372219D01*
X165862154Y-108354976D01*
X165876570Y-108339070D01*
X165892476Y-108324654D01*
X165909719Y-108311866D01*
X165928132Y-108300830D01*
X165947538Y-108291651D01*
X165967750Y-108284419D01*
X165988574Y-108279203D01*
X166009809Y-108276053D01*
X166031250Y-108275000D01*
X166468750Y-108275000D01*
X166490191Y-108276053D01*
G37*
G36*
X164915191Y-108276053D02*
G01*
X164936426Y-108279203D01*
X164957250Y-108284419D01*
X164977462Y-108291651D01*
X164996868Y-108300830D01*
X165015281Y-108311866D01*
X165032524Y-108324654D01*
X165048430Y-108339070D01*
X165062846Y-108354976D01*
X165075634Y-108372219D01*
X165086670Y-108390632D01*
X165095849Y-108410038D01*
X165103081Y-108430250D01*
X165108297Y-108451074D01*
X165111447Y-108472309D01*
X165112500Y-108493750D01*
X165112500Y-109006250D01*
X165111447Y-109027691D01*
X165108297Y-109048926D01*
X165103081Y-109069750D01*
X165095849Y-109089962D01*
X165086670Y-109109368D01*
X165075634Y-109127781D01*
X165062846Y-109145024D01*
X165048430Y-109160930D01*
X165032524Y-109175346D01*
X165015281Y-109188134D01*
X164996868Y-109199170D01*
X164977462Y-109208349D01*
X164957250Y-109215581D01*
X164936426Y-109220797D01*
X164915191Y-109223947D01*
X164893750Y-109225000D01*
X164456250Y-109225000D01*
X164434809Y-109223947D01*
X164413574Y-109220797D01*
X164392750Y-109215581D01*
X164372538Y-109208349D01*
X164353132Y-109199170D01*
X164334719Y-109188134D01*
X164317476Y-109175346D01*
X164301570Y-109160930D01*
X164287154Y-109145024D01*
X164274366Y-109127781D01*
X164263330Y-109109368D01*
X164254151Y-109089962D01*
X164246919Y-109069750D01*
X164241703Y-109048926D01*
X164238553Y-109027691D01*
X164237500Y-109006250D01*
X164237500Y-108493750D01*
X164238553Y-108472309D01*
X164241703Y-108451074D01*
X164246919Y-108430250D01*
X164254151Y-108410038D01*
X164263330Y-108390632D01*
X164274366Y-108372219D01*
X164287154Y-108354976D01*
X164301570Y-108339070D01*
X164317476Y-108324654D01*
X164334719Y-108311866D01*
X164353132Y-108300830D01*
X164372538Y-108291651D01*
X164392750Y-108284419D01*
X164413574Y-108279203D01*
X164434809Y-108276053D01*
X164456250Y-108275000D01*
X164893750Y-108275000D01*
X164915191Y-108276053D01*
G37*
%TD*%
%TO.C,R5*%
G36*
X143724191Y-95829553D02*
G01*
X143745426Y-95832703D01*
X143766250Y-95837919D01*
X143786462Y-95845151D01*
X143805868Y-95854330D01*
X143824281Y-95865366D01*
X143841524Y-95878154D01*
X143857430Y-95892570D01*
X143871846Y-95908476D01*
X143884634Y-95925719D01*
X143895670Y-95944132D01*
X143904849Y-95963538D01*
X143912081Y-95983750D01*
X143917297Y-96004574D01*
X143920447Y-96025809D01*
X143921500Y-96047250D01*
X143921500Y-96484750D01*
X143920447Y-96506191D01*
X143917297Y-96527426D01*
X143912081Y-96548250D01*
X143904849Y-96568462D01*
X143895670Y-96587868D01*
X143884634Y-96606281D01*
X143871846Y-96623524D01*
X143857430Y-96639430D01*
X143841524Y-96653846D01*
X143824281Y-96666634D01*
X143805868Y-96677670D01*
X143786462Y-96686849D01*
X143766250Y-96694081D01*
X143745426Y-96699297D01*
X143724191Y-96702447D01*
X143702750Y-96703500D01*
X143190250Y-96703500D01*
X143168809Y-96702447D01*
X143147574Y-96699297D01*
X143126750Y-96694081D01*
X143106538Y-96686849D01*
X143087132Y-96677670D01*
X143068719Y-96666634D01*
X143051476Y-96653846D01*
X143035570Y-96639430D01*
X143021154Y-96623524D01*
X143008366Y-96606281D01*
X142997330Y-96587868D01*
X142988151Y-96568462D01*
X142980919Y-96548250D01*
X142975703Y-96527426D01*
X142972553Y-96506191D01*
X142971500Y-96484750D01*
X142971500Y-96047250D01*
X142972553Y-96025809D01*
X142975703Y-96004574D01*
X142980919Y-95983750D01*
X142988151Y-95963538D01*
X142997330Y-95944132D01*
X143008366Y-95925719D01*
X143021154Y-95908476D01*
X143035570Y-95892570D01*
X143051476Y-95878154D01*
X143068719Y-95865366D01*
X143087132Y-95854330D01*
X143106538Y-95845151D01*
X143126750Y-95837919D01*
X143147574Y-95832703D01*
X143168809Y-95829553D01*
X143190250Y-95828500D01*
X143702750Y-95828500D01*
X143724191Y-95829553D01*
G37*
G36*
X143724191Y-97404553D02*
G01*
X143745426Y-97407703D01*
X143766250Y-97412919D01*
X143786462Y-97420151D01*
X143805868Y-97429330D01*
X143824281Y-97440366D01*
X143841524Y-97453154D01*
X143857430Y-97467570D01*
X143871846Y-97483476D01*
X143884634Y-97500719D01*
X143895670Y-97519132D01*
X143904849Y-97538538D01*
X143912081Y-97558750D01*
X143917297Y-97579574D01*
X143920447Y-97600809D01*
X143921500Y-97622250D01*
X143921500Y-98059750D01*
X143920447Y-98081191D01*
X143917297Y-98102426D01*
X143912081Y-98123250D01*
X143904849Y-98143462D01*
X143895670Y-98162868D01*
X143884634Y-98181281D01*
X143871846Y-98198524D01*
X143857430Y-98214430D01*
X143841524Y-98228846D01*
X143824281Y-98241634D01*
X143805868Y-98252670D01*
X143786462Y-98261849D01*
X143766250Y-98269081D01*
X143745426Y-98274297D01*
X143724191Y-98277447D01*
X143702750Y-98278500D01*
X143190250Y-98278500D01*
X143168809Y-98277447D01*
X143147574Y-98274297D01*
X143126750Y-98269081D01*
X143106538Y-98261849D01*
X143087132Y-98252670D01*
X143068719Y-98241634D01*
X143051476Y-98228846D01*
X143035570Y-98214430D01*
X143021154Y-98198524D01*
X143008366Y-98181281D01*
X142997330Y-98162868D01*
X142988151Y-98143462D01*
X142980919Y-98123250D01*
X142975703Y-98102426D01*
X142972553Y-98081191D01*
X142971500Y-98059750D01*
X142971500Y-97622250D01*
X142972553Y-97600809D01*
X142975703Y-97579574D01*
X142980919Y-97558750D01*
X142988151Y-97538538D01*
X142997330Y-97519132D01*
X143008366Y-97500719D01*
X143021154Y-97483476D01*
X143035570Y-97467570D01*
X143051476Y-97453154D01*
X143068719Y-97440366D01*
X143087132Y-97429330D01*
X143106538Y-97420151D01*
X143126750Y-97412919D01*
X143147574Y-97407703D01*
X143168809Y-97404553D01*
X143190250Y-97403500D01*
X143702750Y-97403500D01*
X143724191Y-97404553D01*
G37*
%TD*%
%TO.C,R7*%
G36*
X175502691Y-103376053D02*
G01*
X175523926Y-103379203D01*
X175544750Y-103384419D01*
X175564962Y-103391651D01*
X175584368Y-103400830D01*
X175602781Y-103411866D01*
X175620024Y-103424654D01*
X175635930Y-103439070D01*
X175650346Y-103454976D01*
X175663134Y-103472219D01*
X175674170Y-103490632D01*
X175683349Y-103510038D01*
X175690581Y-103530250D01*
X175695797Y-103551074D01*
X175698947Y-103572309D01*
X175700000Y-103593750D01*
X175700000Y-104106250D01*
X175698947Y-104127691D01*
X175695797Y-104148926D01*
X175690581Y-104169750D01*
X175683349Y-104189962D01*
X175674170Y-104209368D01*
X175663134Y-104227781D01*
X175650346Y-104245024D01*
X175635930Y-104260930D01*
X175620024Y-104275346D01*
X175602781Y-104288134D01*
X175584368Y-104299170D01*
X175564962Y-104308349D01*
X175544750Y-104315581D01*
X175523926Y-104320797D01*
X175502691Y-104323947D01*
X175481250Y-104325000D01*
X175043750Y-104325000D01*
X175022309Y-104323947D01*
X175001074Y-104320797D01*
X174980250Y-104315581D01*
X174960038Y-104308349D01*
X174940632Y-104299170D01*
X174922219Y-104288134D01*
X174904976Y-104275346D01*
X174889070Y-104260930D01*
X174874654Y-104245024D01*
X174861866Y-104227781D01*
X174850830Y-104209368D01*
X174841651Y-104189962D01*
X174834419Y-104169750D01*
X174829203Y-104148926D01*
X174826053Y-104127691D01*
X174825000Y-104106250D01*
X174825000Y-103593750D01*
X174826053Y-103572309D01*
X174829203Y-103551074D01*
X174834419Y-103530250D01*
X174841651Y-103510038D01*
X174850830Y-103490632D01*
X174861866Y-103472219D01*
X174874654Y-103454976D01*
X174889070Y-103439070D01*
X174904976Y-103424654D01*
X174922219Y-103411866D01*
X174940632Y-103400830D01*
X174960038Y-103391651D01*
X174980250Y-103384419D01*
X175001074Y-103379203D01*
X175022309Y-103376053D01*
X175043750Y-103375000D01*
X175481250Y-103375000D01*
X175502691Y-103376053D01*
G37*
G36*
X177077691Y-103376053D02*
G01*
X177098926Y-103379203D01*
X177119750Y-103384419D01*
X177139962Y-103391651D01*
X177159368Y-103400830D01*
X177177781Y-103411866D01*
X177195024Y-103424654D01*
X177210930Y-103439070D01*
X177225346Y-103454976D01*
X177238134Y-103472219D01*
X177249170Y-103490632D01*
X177258349Y-103510038D01*
X177265581Y-103530250D01*
X177270797Y-103551074D01*
X177273947Y-103572309D01*
X177275000Y-103593750D01*
X177275000Y-104106250D01*
X177273947Y-104127691D01*
X177270797Y-104148926D01*
X177265581Y-104169750D01*
X177258349Y-104189962D01*
X177249170Y-104209368D01*
X177238134Y-104227781D01*
X177225346Y-104245024D01*
X177210930Y-104260930D01*
X177195024Y-104275346D01*
X177177781Y-104288134D01*
X177159368Y-104299170D01*
X177139962Y-104308349D01*
X177119750Y-104315581D01*
X177098926Y-104320797D01*
X177077691Y-104323947D01*
X177056250Y-104325000D01*
X176618750Y-104325000D01*
X176597309Y-104323947D01*
X176576074Y-104320797D01*
X176555250Y-104315581D01*
X176535038Y-104308349D01*
X176515632Y-104299170D01*
X176497219Y-104288134D01*
X176479976Y-104275346D01*
X176464070Y-104260930D01*
X176449654Y-104245024D01*
X176436866Y-104227781D01*
X176425830Y-104209368D01*
X176416651Y-104189962D01*
X176409419Y-104169750D01*
X176404203Y-104148926D01*
X176401053Y-104127691D01*
X176400000Y-104106250D01*
X176400000Y-103593750D01*
X176401053Y-103572309D01*
X176404203Y-103551074D01*
X176409419Y-103530250D01*
X176416651Y-103510038D01*
X176425830Y-103490632D01*
X176436866Y-103472219D01*
X176449654Y-103454976D01*
X176464070Y-103439070D01*
X176479976Y-103424654D01*
X176497219Y-103411866D01*
X176515632Y-103400830D01*
X176535038Y-103391651D01*
X176555250Y-103384419D01*
X176576074Y-103379203D01*
X176597309Y-103376053D01*
X176618750Y-103375000D01*
X177056250Y-103375000D01*
X177077691Y-103376053D01*
G37*
%TD*%
%TO.C,R6*%
G36*
X180277691Y-103376053D02*
G01*
X180298926Y-103379203D01*
X180319750Y-103384419D01*
X180339962Y-103391651D01*
X180359368Y-103400830D01*
X180377781Y-103411866D01*
X180395024Y-103424654D01*
X180410930Y-103439070D01*
X180425346Y-103454976D01*
X180438134Y-103472219D01*
X180449170Y-103490632D01*
X180458349Y-103510038D01*
X180465581Y-103530250D01*
X180470797Y-103551074D01*
X180473947Y-103572309D01*
X180475000Y-103593750D01*
X180475000Y-104106250D01*
X180473947Y-104127691D01*
X180470797Y-104148926D01*
X180465581Y-104169750D01*
X180458349Y-104189962D01*
X180449170Y-104209368D01*
X180438134Y-104227781D01*
X180425346Y-104245024D01*
X180410930Y-104260930D01*
X180395024Y-104275346D01*
X180377781Y-104288134D01*
X180359368Y-104299170D01*
X180339962Y-104308349D01*
X180319750Y-104315581D01*
X180298926Y-104320797D01*
X180277691Y-104323947D01*
X180256250Y-104325000D01*
X179818750Y-104325000D01*
X179797309Y-104323947D01*
X179776074Y-104320797D01*
X179755250Y-104315581D01*
X179735038Y-104308349D01*
X179715632Y-104299170D01*
X179697219Y-104288134D01*
X179679976Y-104275346D01*
X179664070Y-104260930D01*
X179649654Y-104245024D01*
X179636866Y-104227781D01*
X179625830Y-104209368D01*
X179616651Y-104189962D01*
X179609419Y-104169750D01*
X179604203Y-104148926D01*
X179601053Y-104127691D01*
X179600000Y-104106250D01*
X179600000Y-103593750D01*
X179601053Y-103572309D01*
X179604203Y-103551074D01*
X179609419Y-103530250D01*
X179616651Y-103510038D01*
X179625830Y-103490632D01*
X179636866Y-103472219D01*
X179649654Y-103454976D01*
X179664070Y-103439070D01*
X179679976Y-103424654D01*
X179697219Y-103411866D01*
X179715632Y-103400830D01*
X179735038Y-103391651D01*
X179755250Y-103384419D01*
X179776074Y-103379203D01*
X179797309Y-103376053D01*
X179818750Y-103375000D01*
X180256250Y-103375000D01*
X180277691Y-103376053D01*
G37*
G36*
X178702691Y-103376053D02*
G01*
X178723926Y-103379203D01*
X178744750Y-103384419D01*
X178764962Y-103391651D01*
X178784368Y-103400830D01*
X178802781Y-103411866D01*
X178820024Y-103424654D01*
X178835930Y-103439070D01*
X178850346Y-103454976D01*
X178863134Y-103472219D01*
X178874170Y-103490632D01*
X178883349Y-103510038D01*
X178890581Y-103530250D01*
X178895797Y-103551074D01*
X178898947Y-103572309D01*
X178900000Y-103593750D01*
X178900000Y-104106250D01*
X178898947Y-104127691D01*
X178895797Y-104148926D01*
X178890581Y-104169750D01*
X178883349Y-104189962D01*
X178874170Y-104209368D01*
X178863134Y-104227781D01*
X178850346Y-104245024D01*
X178835930Y-104260930D01*
X178820024Y-104275346D01*
X178802781Y-104288134D01*
X178784368Y-104299170D01*
X178764962Y-104308349D01*
X178744750Y-104315581D01*
X178723926Y-104320797D01*
X178702691Y-104323947D01*
X178681250Y-104325000D01*
X178243750Y-104325000D01*
X178222309Y-104323947D01*
X178201074Y-104320797D01*
X178180250Y-104315581D01*
X178160038Y-104308349D01*
X178140632Y-104299170D01*
X178122219Y-104288134D01*
X178104976Y-104275346D01*
X178089070Y-104260930D01*
X178074654Y-104245024D01*
X178061866Y-104227781D01*
X178050830Y-104209368D01*
X178041651Y-104189962D01*
X178034419Y-104169750D01*
X178029203Y-104148926D01*
X178026053Y-104127691D01*
X178025000Y-104106250D01*
X178025000Y-103593750D01*
X178026053Y-103572309D01*
X178029203Y-103551074D01*
X178034419Y-103530250D01*
X178041651Y-103510038D01*
X178050830Y-103490632D01*
X178061866Y-103472219D01*
X178074654Y-103454976D01*
X178089070Y-103439070D01*
X178104976Y-103424654D01*
X178122219Y-103411866D01*
X178140632Y-103400830D01*
X178160038Y-103391651D01*
X178180250Y-103384419D01*
X178201074Y-103379203D01*
X178222309Y-103376053D01*
X178243750Y-103375000D01*
X178681250Y-103375000D01*
X178702691Y-103376053D01*
G37*
%TD*%
D25*
%TO.C,U3*%
X174975000Y-100800000D03*
X176925000Y-102400000D03*
X176275000Y-102400000D03*
X175625000Y-102400000D03*
X176925000Y-100800000D03*
X176275000Y-100800000D03*
X175625000Y-100800000D03*
X174975000Y-102400000D03*
%TD*%
D10*
%TO.C,U1*%
G36*
X181414703Y-94995722D02*
G01*
X181429264Y-94997882D01*
X181443543Y-95001459D01*
X181457403Y-95006418D01*
X181470710Y-95012712D01*
X181483336Y-95020280D01*
X181495159Y-95029048D01*
X181506066Y-95038934D01*
X181515952Y-95049841D01*
X181524720Y-95061664D01*
X181532288Y-95074290D01*
X181538582Y-95087597D01*
X181543541Y-95101457D01*
X181547118Y-95115736D01*
X181549278Y-95130297D01*
X181550000Y-95145000D01*
X181550000Y-95445000D01*
X181549278Y-95459703D01*
X181547118Y-95474264D01*
X181543541Y-95488543D01*
X181538582Y-95502403D01*
X181532288Y-95515710D01*
X181524720Y-95528336D01*
X181515952Y-95540159D01*
X181506066Y-95551066D01*
X181495159Y-95560952D01*
X181483336Y-95569720D01*
X181470710Y-95577288D01*
X181457403Y-95583582D01*
X181443543Y-95588541D01*
X181429264Y-95592118D01*
X181414703Y-95594278D01*
X181400000Y-95595000D01*
X179750000Y-95595000D01*
X179735297Y-95594278D01*
X179720736Y-95592118D01*
X179706457Y-95588541D01*
X179692597Y-95583582D01*
X179679290Y-95577288D01*
X179666664Y-95569720D01*
X179654841Y-95560952D01*
X179643934Y-95551066D01*
X179634048Y-95540159D01*
X179625280Y-95528336D01*
X179617712Y-95515710D01*
X179611418Y-95502403D01*
X179606459Y-95488543D01*
X179602882Y-95474264D01*
X179600722Y-95459703D01*
X179600000Y-95445000D01*
X179600000Y-95145000D01*
X179600722Y-95130297D01*
X179602882Y-95115736D01*
X179606459Y-95101457D01*
X179611418Y-95087597D01*
X179617712Y-95074290D01*
X179625280Y-95061664D01*
X179634048Y-95049841D01*
X179643934Y-95038934D01*
X179654841Y-95029048D01*
X179666664Y-95020280D01*
X179679290Y-95012712D01*
X179692597Y-95006418D01*
X179706457Y-95001459D01*
X179720736Y-94997882D01*
X179735297Y-94995722D01*
X179750000Y-94995000D01*
X181400000Y-94995000D01*
X181414703Y-94995722D01*
G37*
G36*
X181414703Y-96265722D02*
G01*
X181429264Y-96267882D01*
X181443543Y-96271459D01*
X181457403Y-96276418D01*
X181470710Y-96282712D01*
X181483336Y-96290280D01*
X181495159Y-96299048D01*
X181506066Y-96308934D01*
X181515952Y-96319841D01*
X181524720Y-96331664D01*
X181532288Y-96344290D01*
X181538582Y-96357597D01*
X181543541Y-96371457D01*
X181547118Y-96385736D01*
X181549278Y-96400297D01*
X181550000Y-96415000D01*
X181550000Y-96715000D01*
X181549278Y-96729703D01*
X181547118Y-96744264D01*
X181543541Y-96758543D01*
X181538582Y-96772403D01*
X181532288Y-96785710D01*
X181524720Y-96798336D01*
X181515952Y-96810159D01*
X181506066Y-96821066D01*
X181495159Y-96830952D01*
X181483336Y-96839720D01*
X181470710Y-96847288D01*
X181457403Y-96853582D01*
X181443543Y-96858541D01*
X181429264Y-96862118D01*
X181414703Y-96864278D01*
X181400000Y-96865000D01*
X179750000Y-96865000D01*
X179735297Y-96864278D01*
X179720736Y-96862118D01*
X179706457Y-96858541D01*
X179692597Y-96853582D01*
X179679290Y-96847288D01*
X179666664Y-96839720D01*
X179654841Y-96830952D01*
X179643934Y-96821066D01*
X179634048Y-96810159D01*
X179625280Y-96798336D01*
X179617712Y-96785710D01*
X179611418Y-96772403D01*
X179606459Y-96758543D01*
X179602882Y-96744264D01*
X179600722Y-96729703D01*
X179600000Y-96715000D01*
X179600000Y-96415000D01*
X179600722Y-96400297D01*
X179602882Y-96385736D01*
X179606459Y-96371457D01*
X179611418Y-96357597D01*
X179617712Y-96344290D01*
X179625280Y-96331664D01*
X179634048Y-96319841D01*
X179643934Y-96308934D01*
X179654841Y-96299048D01*
X179666664Y-96290280D01*
X179679290Y-96282712D01*
X179692597Y-96276418D01*
X179706457Y-96271459D01*
X179720736Y-96267882D01*
X179735297Y-96265722D01*
X179750000Y-96265000D01*
X181400000Y-96265000D01*
X181414703Y-96265722D01*
G37*
G36*
X181414703Y-97535722D02*
G01*
X181429264Y-97537882D01*
X181443543Y-97541459D01*
X181457403Y-97546418D01*
X181470710Y-97552712D01*
X181483336Y-97560280D01*
X181495159Y-97569048D01*
X181506066Y-97578934D01*
X181515952Y-97589841D01*
X181524720Y-97601664D01*
X181532288Y-97614290D01*
X181538582Y-97627597D01*
X181543541Y-97641457D01*
X181547118Y-97655736D01*
X181549278Y-97670297D01*
X181550000Y-97685000D01*
X181550000Y-97985000D01*
X181549278Y-97999703D01*
X181547118Y-98014264D01*
X181543541Y-98028543D01*
X181538582Y-98042403D01*
X181532288Y-98055710D01*
X181524720Y-98068336D01*
X181515952Y-98080159D01*
X181506066Y-98091066D01*
X181495159Y-98100952D01*
X181483336Y-98109720D01*
X181470710Y-98117288D01*
X181457403Y-98123582D01*
X181443543Y-98128541D01*
X181429264Y-98132118D01*
X181414703Y-98134278D01*
X181400000Y-98135000D01*
X179750000Y-98135000D01*
X179735297Y-98134278D01*
X179720736Y-98132118D01*
X179706457Y-98128541D01*
X179692597Y-98123582D01*
X179679290Y-98117288D01*
X179666664Y-98109720D01*
X179654841Y-98100952D01*
X179643934Y-98091066D01*
X179634048Y-98080159D01*
X179625280Y-98068336D01*
X179617712Y-98055710D01*
X179611418Y-98042403D01*
X179606459Y-98028543D01*
X179602882Y-98014264D01*
X179600722Y-97999703D01*
X179600000Y-97985000D01*
X179600000Y-97685000D01*
X179600722Y-97670297D01*
X179602882Y-97655736D01*
X179606459Y-97641457D01*
X179611418Y-97627597D01*
X179617712Y-97614290D01*
X179625280Y-97601664D01*
X179634048Y-97589841D01*
X179643934Y-97578934D01*
X179654841Y-97569048D01*
X179666664Y-97560280D01*
X179679290Y-97552712D01*
X179692597Y-97546418D01*
X179706457Y-97541459D01*
X179720736Y-97537882D01*
X179735297Y-97535722D01*
X179750000Y-97535000D01*
X181400000Y-97535000D01*
X181414703Y-97535722D01*
G37*
G36*
X181414703Y-98805722D02*
G01*
X181429264Y-98807882D01*
X181443543Y-98811459D01*
X181457403Y-98816418D01*
X181470710Y-98822712D01*
X181483336Y-98830280D01*
X181495159Y-98839048D01*
X181506066Y-98848934D01*
X181515952Y-98859841D01*
X181524720Y-98871664D01*
X181532288Y-98884290D01*
X181538582Y-98897597D01*
X181543541Y-98911457D01*
X181547118Y-98925736D01*
X181549278Y-98940297D01*
X181550000Y-98955000D01*
X181550000Y-99255000D01*
X181549278Y-99269703D01*
X181547118Y-99284264D01*
X181543541Y-99298543D01*
X181538582Y-99312403D01*
X181532288Y-99325710D01*
X181524720Y-99338336D01*
X181515952Y-99350159D01*
X181506066Y-99361066D01*
X181495159Y-99370952D01*
X181483336Y-99379720D01*
X181470710Y-99387288D01*
X181457403Y-99393582D01*
X181443543Y-99398541D01*
X181429264Y-99402118D01*
X181414703Y-99404278D01*
X181400000Y-99405000D01*
X179750000Y-99405000D01*
X179735297Y-99404278D01*
X179720736Y-99402118D01*
X179706457Y-99398541D01*
X179692597Y-99393582D01*
X179679290Y-99387288D01*
X179666664Y-99379720D01*
X179654841Y-99370952D01*
X179643934Y-99361066D01*
X179634048Y-99350159D01*
X179625280Y-99338336D01*
X179617712Y-99325710D01*
X179611418Y-99312403D01*
X179606459Y-99298543D01*
X179602882Y-99284264D01*
X179600722Y-99269703D01*
X179600000Y-99255000D01*
X179600000Y-98955000D01*
X179600722Y-98940297D01*
X179602882Y-98925736D01*
X179606459Y-98911457D01*
X179611418Y-98897597D01*
X179617712Y-98884290D01*
X179625280Y-98871664D01*
X179634048Y-98859841D01*
X179643934Y-98848934D01*
X179654841Y-98839048D01*
X179666664Y-98830280D01*
X179679290Y-98822712D01*
X179692597Y-98816418D01*
X179706457Y-98811459D01*
X179720736Y-98807882D01*
X179735297Y-98805722D01*
X179750000Y-98805000D01*
X181400000Y-98805000D01*
X181414703Y-98805722D01*
G37*
G36*
X176464703Y-98805722D02*
G01*
X176479264Y-98807882D01*
X176493543Y-98811459D01*
X176507403Y-98816418D01*
X176520710Y-98822712D01*
X176533336Y-98830280D01*
X176545159Y-98839048D01*
X176556066Y-98848934D01*
X176565952Y-98859841D01*
X176574720Y-98871664D01*
X176582288Y-98884290D01*
X176588582Y-98897597D01*
X176593541Y-98911457D01*
X176597118Y-98925736D01*
X176599278Y-98940297D01*
X176600000Y-98955000D01*
X176600000Y-99255000D01*
X176599278Y-99269703D01*
X176597118Y-99284264D01*
X176593541Y-99298543D01*
X176588582Y-99312403D01*
X176582288Y-99325710D01*
X176574720Y-99338336D01*
X176565952Y-99350159D01*
X176556066Y-99361066D01*
X176545159Y-99370952D01*
X176533336Y-99379720D01*
X176520710Y-99387288D01*
X176507403Y-99393582D01*
X176493543Y-99398541D01*
X176479264Y-99402118D01*
X176464703Y-99404278D01*
X176450000Y-99405000D01*
X174800000Y-99405000D01*
X174785297Y-99404278D01*
X174770736Y-99402118D01*
X174756457Y-99398541D01*
X174742597Y-99393582D01*
X174729290Y-99387288D01*
X174716664Y-99379720D01*
X174704841Y-99370952D01*
X174693934Y-99361066D01*
X174684048Y-99350159D01*
X174675280Y-99338336D01*
X174667712Y-99325710D01*
X174661418Y-99312403D01*
X174656459Y-99298543D01*
X174652882Y-99284264D01*
X174650722Y-99269703D01*
X174650000Y-99255000D01*
X174650000Y-98955000D01*
X174650722Y-98940297D01*
X174652882Y-98925736D01*
X174656459Y-98911457D01*
X174661418Y-98897597D01*
X174667712Y-98884290D01*
X174675280Y-98871664D01*
X174684048Y-98859841D01*
X174693934Y-98848934D01*
X174704841Y-98839048D01*
X174716664Y-98830280D01*
X174729290Y-98822712D01*
X174742597Y-98816418D01*
X174756457Y-98811459D01*
X174770736Y-98807882D01*
X174785297Y-98805722D01*
X174800000Y-98805000D01*
X176450000Y-98805000D01*
X176464703Y-98805722D01*
G37*
G36*
X176464703Y-97535722D02*
G01*
X176479264Y-97537882D01*
X176493543Y-97541459D01*
X176507403Y-97546418D01*
X176520710Y-97552712D01*
X176533336Y-97560280D01*
X176545159Y-97569048D01*
X176556066Y-97578934D01*
X176565952Y-97589841D01*
X176574720Y-97601664D01*
X176582288Y-97614290D01*
X176588582Y-97627597D01*
X176593541Y-97641457D01*
X176597118Y-97655736D01*
X176599278Y-97670297D01*
X176600000Y-97685000D01*
X176600000Y-97985000D01*
X176599278Y-97999703D01*
X176597118Y-98014264D01*
X176593541Y-98028543D01*
X176588582Y-98042403D01*
X176582288Y-98055710D01*
X176574720Y-98068336D01*
X176565952Y-98080159D01*
X176556066Y-98091066D01*
X176545159Y-98100952D01*
X176533336Y-98109720D01*
X176520710Y-98117288D01*
X176507403Y-98123582D01*
X176493543Y-98128541D01*
X176479264Y-98132118D01*
X176464703Y-98134278D01*
X176450000Y-98135000D01*
X174800000Y-98135000D01*
X174785297Y-98134278D01*
X174770736Y-98132118D01*
X174756457Y-98128541D01*
X174742597Y-98123582D01*
X174729290Y-98117288D01*
X174716664Y-98109720D01*
X174704841Y-98100952D01*
X174693934Y-98091066D01*
X174684048Y-98080159D01*
X174675280Y-98068336D01*
X174667712Y-98055710D01*
X174661418Y-98042403D01*
X174656459Y-98028543D01*
X174652882Y-98014264D01*
X174650722Y-97999703D01*
X174650000Y-97985000D01*
X174650000Y-97685000D01*
X174650722Y-97670297D01*
X174652882Y-97655736D01*
X174656459Y-97641457D01*
X174661418Y-97627597D01*
X174667712Y-97614290D01*
X174675280Y-97601664D01*
X174684048Y-97589841D01*
X174693934Y-97578934D01*
X174704841Y-97569048D01*
X174716664Y-97560280D01*
X174729290Y-97552712D01*
X174742597Y-97546418D01*
X174756457Y-97541459D01*
X174770736Y-97537882D01*
X174785297Y-97535722D01*
X174800000Y-97535000D01*
X176450000Y-97535000D01*
X176464703Y-97535722D01*
G37*
G36*
X176464703Y-96265722D02*
G01*
X176479264Y-96267882D01*
X176493543Y-96271459D01*
X176507403Y-96276418D01*
X176520710Y-96282712D01*
X176533336Y-96290280D01*
X176545159Y-96299048D01*
X176556066Y-96308934D01*
X176565952Y-96319841D01*
X176574720Y-96331664D01*
X176582288Y-96344290D01*
X176588582Y-96357597D01*
X176593541Y-96371457D01*
X176597118Y-96385736D01*
X176599278Y-96400297D01*
X176600000Y-96415000D01*
X176600000Y-96715000D01*
X176599278Y-96729703D01*
X176597118Y-96744264D01*
X176593541Y-96758543D01*
X176588582Y-96772403D01*
X176582288Y-96785710D01*
X176574720Y-96798336D01*
X176565952Y-96810159D01*
X176556066Y-96821066D01*
X176545159Y-96830952D01*
X176533336Y-96839720D01*
X176520710Y-96847288D01*
X176507403Y-96853582D01*
X176493543Y-96858541D01*
X176479264Y-96862118D01*
X176464703Y-96864278D01*
X176450000Y-96865000D01*
X174800000Y-96865000D01*
X174785297Y-96864278D01*
X174770736Y-96862118D01*
X174756457Y-96858541D01*
X174742597Y-96853582D01*
X174729290Y-96847288D01*
X174716664Y-96839720D01*
X174704841Y-96830952D01*
X174693934Y-96821066D01*
X174684048Y-96810159D01*
X174675280Y-96798336D01*
X174667712Y-96785710D01*
X174661418Y-96772403D01*
X174656459Y-96758543D01*
X174652882Y-96744264D01*
X174650722Y-96729703D01*
X174650000Y-96715000D01*
X174650000Y-96415000D01*
X174650722Y-96400297D01*
X174652882Y-96385736D01*
X174656459Y-96371457D01*
X174661418Y-96357597D01*
X174667712Y-96344290D01*
X174675280Y-96331664D01*
X174684048Y-96319841D01*
X174693934Y-96308934D01*
X174704841Y-96299048D01*
X174716664Y-96290280D01*
X174729290Y-96282712D01*
X174742597Y-96276418D01*
X174756457Y-96271459D01*
X174770736Y-96267882D01*
X174785297Y-96265722D01*
X174800000Y-96265000D01*
X176450000Y-96265000D01*
X176464703Y-96265722D01*
G37*
G36*
X176464703Y-94995722D02*
G01*
X176479264Y-94997882D01*
X176493543Y-95001459D01*
X176507403Y-95006418D01*
X176520710Y-95012712D01*
X176533336Y-95020280D01*
X176545159Y-95029048D01*
X176556066Y-95038934D01*
X176565952Y-95049841D01*
X176574720Y-95061664D01*
X176582288Y-95074290D01*
X176588582Y-95087597D01*
X176593541Y-95101457D01*
X176597118Y-95115736D01*
X176599278Y-95130297D01*
X176600000Y-95145000D01*
X176600000Y-95445000D01*
X176599278Y-95459703D01*
X176597118Y-95474264D01*
X176593541Y-95488543D01*
X176588582Y-95502403D01*
X176582288Y-95515710D01*
X176574720Y-95528336D01*
X176565952Y-95540159D01*
X176556066Y-95551066D01*
X176545159Y-95560952D01*
X176533336Y-95569720D01*
X176520710Y-95577288D01*
X176507403Y-95583582D01*
X176493543Y-95588541D01*
X176479264Y-95592118D01*
X176464703Y-95594278D01*
X176450000Y-95595000D01*
X174800000Y-95595000D01*
X174785297Y-95594278D01*
X174770736Y-95592118D01*
X174756457Y-95588541D01*
X174742597Y-95583582D01*
X174729290Y-95577288D01*
X174716664Y-95569720D01*
X174704841Y-95560952D01*
X174693934Y-95551066D01*
X174684048Y-95540159D01*
X174675280Y-95528336D01*
X174667712Y-95515710D01*
X174661418Y-95502403D01*
X174656459Y-95488543D01*
X174652882Y-95474264D01*
X174650722Y-95459703D01*
X174650000Y-95445000D01*
X174650000Y-95145000D01*
X174650722Y-95130297D01*
X174652882Y-95115736D01*
X174656459Y-95101457D01*
X174661418Y-95087597D01*
X174667712Y-95074290D01*
X174675280Y-95061664D01*
X174684048Y-95049841D01*
X174693934Y-95038934D01*
X174704841Y-95029048D01*
X174716664Y-95020280D01*
X174729290Y-95012712D01*
X174742597Y-95006418D01*
X174756457Y-95001459D01*
X174770736Y-94997882D01*
X174785297Y-94995722D01*
X174800000Y-94995000D01*
X176450000Y-94995000D01*
X176464703Y-94995722D01*
G37*
%TD*%
D22*
%TO.C,U6*%
X158500000Y-109744000D03*
X158500000Y-110244000D03*
X158500000Y-110744000D03*
X158500000Y-111244000D03*
X158500000Y-111744000D03*
X162900000Y-111744000D03*
X162900000Y-111244000D03*
X162900000Y-110744000D03*
X162900000Y-110244000D03*
X162900000Y-109744000D03*
%TD*%
D26*
%TO.C,U11*%
X146500000Y-121350000D03*
X145550000Y-121350000D03*
X144600000Y-121350000D03*
X144600000Y-123550000D03*
X146500000Y-123550000D03*
%TD*%
D10*
%TO.C,R11*%
G36*
X170224691Y-98761053D02*
G01*
X170245926Y-98764203D01*
X170266750Y-98769419D01*
X170286962Y-98776651D01*
X170306368Y-98785830D01*
X170324781Y-98796866D01*
X170342024Y-98809654D01*
X170357930Y-98824070D01*
X170372346Y-98839976D01*
X170385134Y-98857219D01*
X170396170Y-98875632D01*
X170405349Y-98895038D01*
X170412581Y-98915250D01*
X170417797Y-98936074D01*
X170420947Y-98957309D01*
X170422000Y-98978750D01*
X170422000Y-99491250D01*
X170420947Y-99512691D01*
X170417797Y-99533926D01*
X170412581Y-99554750D01*
X170405349Y-99574962D01*
X170396170Y-99594368D01*
X170385134Y-99612781D01*
X170372346Y-99630024D01*
X170357930Y-99645930D01*
X170342024Y-99660346D01*
X170324781Y-99673134D01*
X170306368Y-99684170D01*
X170286962Y-99693349D01*
X170266750Y-99700581D01*
X170245926Y-99705797D01*
X170224691Y-99708947D01*
X170203250Y-99710000D01*
X169765750Y-99710000D01*
X169744309Y-99708947D01*
X169723074Y-99705797D01*
X169702250Y-99700581D01*
X169682038Y-99693349D01*
X169662632Y-99684170D01*
X169644219Y-99673134D01*
X169626976Y-99660346D01*
X169611070Y-99645930D01*
X169596654Y-99630024D01*
X169583866Y-99612781D01*
X169572830Y-99594368D01*
X169563651Y-99574962D01*
X169556419Y-99554750D01*
X169551203Y-99533926D01*
X169548053Y-99512691D01*
X169547000Y-99491250D01*
X169547000Y-98978750D01*
X169548053Y-98957309D01*
X169551203Y-98936074D01*
X169556419Y-98915250D01*
X169563651Y-98895038D01*
X169572830Y-98875632D01*
X169583866Y-98857219D01*
X169596654Y-98839976D01*
X169611070Y-98824070D01*
X169626976Y-98809654D01*
X169644219Y-98796866D01*
X169662632Y-98785830D01*
X169682038Y-98776651D01*
X169702250Y-98769419D01*
X169723074Y-98764203D01*
X169744309Y-98761053D01*
X169765750Y-98760000D01*
X170203250Y-98760000D01*
X170224691Y-98761053D01*
G37*
G36*
X168649691Y-98761053D02*
G01*
X168670926Y-98764203D01*
X168691750Y-98769419D01*
X168711962Y-98776651D01*
X168731368Y-98785830D01*
X168749781Y-98796866D01*
X168767024Y-98809654D01*
X168782930Y-98824070D01*
X168797346Y-98839976D01*
X168810134Y-98857219D01*
X168821170Y-98875632D01*
X168830349Y-98895038D01*
X168837581Y-98915250D01*
X168842797Y-98936074D01*
X168845947Y-98957309D01*
X168847000Y-98978750D01*
X168847000Y-99491250D01*
X168845947Y-99512691D01*
X168842797Y-99533926D01*
X168837581Y-99554750D01*
X168830349Y-99574962D01*
X168821170Y-99594368D01*
X168810134Y-99612781D01*
X168797346Y-99630024D01*
X168782930Y-99645930D01*
X168767024Y-99660346D01*
X168749781Y-99673134D01*
X168731368Y-99684170D01*
X168711962Y-99693349D01*
X168691750Y-99700581D01*
X168670926Y-99705797D01*
X168649691Y-99708947D01*
X168628250Y-99710000D01*
X168190750Y-99710000D01*
X168169309Y-99708947D01*
X168148074Y-99705797D01*
X168127250Y-99700581D01*
X168107038Y-99693349D01*
X168087632Y-99684170D01*
X168069219Y-99673134D01*
X168051976Y-99660346D01*
X168036070Y-99645930D01*
X168021654Y-99630024D01*
X168008866Y-99612781D01*
X167997830Y-99594368D01*
X167988651Y-99574962D01*
X167981419Y-99554750D01*
X167976203Y-99533926D01*
X167973053Y-99512691D01*
X167972000Y-99491250D01*
X167972000Y-98978750D01*
X167973053Y-98957309D01*
X167976203Y-98936074D01*
X167981419Y-98915250D01*
X167988651Y-98895038D01*
X167997830Y-98875632D01*
X168008866Y-98857219D01*
X168021654Y-98839976D01*
X168036070Y-98824070D01*
X168051976Y-98809654D01*
X168069219Y-98796866D01*
X168087632Y-98785830D01*
X168107038Y-98776651D01*
X168127250Y-98769419D01*
X168148074Y-98764203D01*
X168169309Y-98761053D01*
X168190750Y-98760000D01*
X168628250Y-98760000D01*
X168649691Y-98761053D01*
G37*
%TD*%
%TO.C,R10*%
G36*
X153227691Y-96526053D02*
G01*
X153248926Y-96529203D01*
X153269750Y-96534419D01*
X153289962Y-96541651D01*
X153309368Y-96550830D01*
X153327781Y-96561866D01*
X153345024Y-96574654D01*
X153360930Y-96589070D01*
X153375346Y-96604976D01*
X153388134Y-96622219D01*
X153399170Y-96640632D01*
X153408349Y-96660038D01*
X153415581Y-96680250D01*
X153420797Y-96701074D01*
X153423947Y-96722309D01*
X153425000Y-96743750D01*
X153425000Y-97256250D01*
X153423947Y-97277691D01*
X153420797Y-97298926D01*
X153415581Y-97319750D01*
X153408349Y-97339962D01*
X153399170Y-97359368D01*
X153388134Y-97377781D01*
X153375346Y-97395024D01*
X153360930Y-97410930D01*
X153345024Y-97425346D01*
X153327781Y-97438134D01*
X153309368Y-97449170D01*
X153289962Y-97458349D01*
X153269750Y-97465581D01*
X153248926Y-97470797D01*
X153227691Y-97473947D01*
X153206250Y-97475000D01*
X152768750Y-97475000D01*
X152747309Y-97473947D01*
X152726074Y-97470797D01*
X152705250Y-97465581D01*
X152685038Y-97458349D01*
X152665632Y-97449170D01*
X152647219Y-97438134D01*
X152629976Y-97425346D01*
X152614070Y-97410930D01*
X152599654Y-97395024D01*
X152586866Y-97377781D01*
X152575830Y-97359368D01*
X152566651Y-97339962D01*
X152559419Y-97319750D01*
X152554203Y-97298926D01*
X152551053Y-97277691D01*
X152550000Y-97256250D01*
X152550000Y-96743750D01*
X152551053Y-96722309D01*
X152554203Y-96701074D01*
X152559419Y-96680250D01*
X152566651Y-96660038D01*
X152575830Y-96640632D01*
X152586866Y-96622219D01*
X152599654Y-96604976D01*
X152614070Y-96589070D01*
X152629976Y-96574654D01*
X152647219Y-96561866D01*
X152665632Y-96550830D01*
X152685038Y-96541651D01*
X152705250Y-96534419D01*
X152726074Y-96529203D01*
X152747309Y-96526053D01*
X152768750Y-96525000D01*
X153206250Y-96525000D01*
X153227691Y-96526053D01*
G37*
G36*
X151652691Y-96526053D02*
G01*
X151673926Y-96529203D01*
X151694750Y-96534419D01*
X151714962Y-96541651D01*
X151734368Y-96550830D01*
X151752781Y-96561866D01*
X151770024Y-96574654D01*
X151785930Y-96589070D01*
X151800346Y-96604976D01*
X151813134Y-96622219D01*
X151824170Y-96640632D01*
X151833349Y-96660038D01*
X151840581Y-96680250D01*
X151845797Y-96701074D01*
X151848947Y-96722309D01*
X151850000Y-96743750D01*
X151850000Y-97256250D01*
X151848947Y-97277691D01*
X151845797Y-97298926D01*
X151840581Y-97319750D01*
X151833349Y-97339962D01*
X151824170Y-97359368D01*
X151813134Y-97377781D01*
X151800346Y-97395024D01*
X151785930Y-97410930D01*
X151770024Y-97425346D01*
X151752781Y-97438134D01*
X151734368Y-97449170D01*
X151714962Y-97458349D01*
X151694750Y-97465581D01*
X151673926Y-97470797D01*
X151652691Y-97473947D01*
X151631250Y-97475000D01*
X151193750Y-97475000D01*
X151172309Y-97473947D01*
X151151074Y-97470797D01*
X151130250Y-97465581D01*
X151110038Y-97458349D01*
X151090632Y-97449170D01*
X151072219Y-97438134D01*
X151054976Y-97425346D01*
X151039070Y-97410930D01*
X151024654Y-97395024D01*
X151011866Y-97377781D01*
X151000830Y-97359368D01*
X150991651Y-97339962D01*
X150984419Y-97319750D01*
X150979203Y-97298926D01*
X150976053Y-97277691D01*
X150975000Y-97256250D01*
X150975000Y-96743750D01*
X150976053Y-96722309D01*
X150979203Y-96701074D01*
X150984419Y-96680250D01*
X150991651Y-96660038D01*
X151000830Y-96640632D01*
X151011866Y-96622219D01*
X151024654Y-96604976D01*
X151039070Y-96589070D01*
X151054976Y-96574654D01*
X151072219Y-96561866D01*
X151090632Y-96550830D01*
X151110038Y-96541651D01*
X151130250Y-96534419D01*
X151151074Y-96529203D01*
X151172309Y-96526053D01*
X151193750Y-96525000D01*
X151631250Y-96525000D01*
X151652691Y-96526053D01*
G37*
%TD*%
%TO.C,R14*%
G36*
X138652691Y-120026053D02*
G01*
X138673926Y-120029203D01*
X138694750Y-120034419D01*
X138714962Y-120041651D01*
X138734368Y-120050830D01*
X138752781Y-120061866D01*
X138770024Y-120074654D01*
X138785930Y-120089070D01*
X138800346Y-120104976D01*
X138813134Y-120122219D01*
X138824170Y-120140632D01*
X138833349Y-120160038D01*
X138840581Y-120180250D01*
X138845797Y-120201074D01*
X138848947Y-120222309D01*
X138850000Y-120243750D01*
X138850000Y-120756250D01*
X138848947Y-120777691D01*
X138845797Y-120798926D01*
X138840581Y-120819750D01*
X138833349Y-120839962D01*
X138824170Y-120859368D01*
X138813134Y-120877781D01*
X138800346Y-120895024D01*
X138785930Y-120910930D01*
X138770024Y-120925346D01*
X138752781Y-120938134D01*
X138734368Y-120949170D01*
X138714962Y-120958349D01*
X138694750Y-120965581D01*
X138673926Y-120970797D01*
X138652691Y-120973947D01*
X138631250Y-120975000D01*
X138193750Y-120975000D01*
X138172309Y-120973947D01*
X138151074Y-120970797D01*
X138130250Y-120965581D01*
X138110038Y-120958349D01*
X138090632Y-120949170D01*
X138072219Y-120938134D01*
X138054976Y-120925346D01*
X138039070Y-120910930D01*
X138024654Y-120895024D01*
X138011866Y-120877781D01*
X138000830Y-120859368D01*
X137991651Y-120839962D01*
X137984419Y-120819750D01*
X137979203Y-120798926D01*
X137976053Y-120777691D01*
X137975000Y-120756250D01*
X137975000Y-120243750D01*
X137976053Y-120222309D01*
X137979203Y-120201074D01*
X137984419Y-120180250D01*
X137991651Y-120160038D01*
X138000830Y-120140632D01*
X138011866Y-120122219D01*
X138024654Y-120104976D01*
X138039070Y-120089070D01*
X138054976Y-120074654D01*
X138072219Y-120061866D01*
X138090632Y-120050830D01*
X138110038Y-120041651D01*
X138130250Y-120034419D01*
X138151074Y-120029203D01*
X138172309Y-120026053D01*
X138193750Y-120025000D01*
X138631250Y-120025000D01*
X138652691Y-120026053D01*
G37*
G36*
X140227691Y-120026053D02*
G01*
X140248926Y-120029203D01*
X140269750Y-120034419D01*
X140289962Y-120041651D01*
X140309368Y-120050830D01*
X140327781Y-120061866D01*
X140345024Y-120074654D01*
X140360930Y-120089070D01*
X140375346Y-120104976D01*
X140388134Y-120122219D01*
X140399170Y-120140632D01*
X140408349Y-120160038D01*
X140415581Y-120180250D01*
X140420797Y-120201074D01*
X140423947Y-120222309D01*
X140425000Y-120243750D01*
X140425000Y-120756250D01*
X140423947Y-120777691D01*
X140420797Y-120798926D01*
X140415581Y-120819750D01*
X140408349Y-120839962D01*
X140399170Y-120859368D01*
X140388134Y-120877781D01*
X140375346Y-120895024D01*
X140360930Y-120910930D01*
X140345024Y-120925346D01*
X140327781Y-120938134D01*
X140309368Y-120949170D01*
X140289962Y-120958349D01*
X140269750Y-120965581D01*
X140248926Y-120970797D01*
X140227691Y-120973947D01*
X140206250Y-120975000D01*
X139768750Y-120975000D01*
X139747309Y-120973947D01*
X139726074Y-120970797D01*
X139705250Y-120965581D01*
X139685038Y-120958349D01*
X139665632Y-120949170D01*
X139647219Y-120938134D01*
X139629976Y-120925346D01*
X139614070Y-120910930D01*
X139599654Y-120895024D01*
X139586866Y-120877781D01*
X139575830Y-120859368D01*
X139566651Y-120839962D01*
X139559419Y-120819750D01*
X139554203Y-120798926D01*
X139551053Y-120777691D01*
X139550000Y-120756250D01*
X139550000Y-120243750D01*
X139551053Y-120222309D01*
X139554203Y-120201074D01*
X139559419Y-120180250D01*
X139566651Y-120160038D01*
X139575830Y-120140632D01*
X139586866Y-120122219D01*
X139599654Y-120104976D01*
X139614070Y-120089070D01*
X139629976Y-120074654D01*
X139647219Y-120061866D01*
X139665632Y-120050830D01*
X139685038Y-120041651D01*
X139705250Y-120034419D01*
X139726074Y-120029203D01*
X139747309Y-120026053D01*
X139768750Y-120025000D01*
X140206250Y-120025000D01*
X140227691Y-120026053D01*
G37*
%TD*%
%TO.C,R4*%
G36*
X166477691Y-113076053D02*
G01*
X166498926Y-113079203D01*
X166519750Y-113084419D01*
X166539962Y-113091651D01*
X166559368Y-113100830D01*
X166577781Y-113111866D01*
X166595024Y-113124654D01*
X166610930Y-113139070D01*
X166625346Y-113154976D01*
X166638134Y-113172219D01*
X166649170Y-113190632D01*
X166658349Y-113210038D01*
X166665581Y-113230250D01*
X166670797Y-113251074D01*
X166673947Y-113272309D01*
X166675000Y-113293750D01*
X166675000Y-113806250D01*
X166673947Y-113827691D01*
X166670797Y-113848926D01*
X166665581Y-113869750D01*
X166658349Y-113889962D01*
X166649170Y-113909368D01*
X166638134Y-113927781D01*
X166625346Y-113945024D01*
X166610930Y-113960930D01*
X166595024Y-113975346D01*
X166577781Y-113988134D01*
X166559368Y-113999170D01*
X166539962Y-114008349D01*
X166519750Y-114015581D01*
X166498926Y-114020797D01*
X166477691Y-114023947D01*
X166456250Y-114025000D01*
X166018750Y-114025000D01*
X165997309Y-114023947D01*
X165976074Y-114020797D01*
X165955250Y-114015581D01*
X165935038Y-114008349D01*
X165915632Y-113999170D01*
X165897219Y-113988134D01*
X165879976Y-113975346D01*
X165864070Y-113960930D01*
X165849654Y-113945024D01*
X165836866Y-113927781D01*
X165825830Y-113909368D01*
X165816651Y-113889962D01*
X165809419Y-113869750D01*
X165804203Y-113848926D01*
X165801053Y-113827691D01*
X165800000Y-113806250D01*
X165800000Y-113293750D01*
X165801053Y-113272309D01*
X165804203Y-113251074D01*
X165809419Y-113230250D01*
X165816651Y-113210038D01*
X165825830Y-113190632D01*
X165836866Y-113172219D01*
X165849654Y-113154976D01*
X165864070Y-113139070D01*
X165879976Y-113124654D01*
X165897219Y-113111866D01*
X165915632Y-113100830D01*
X165935038Y-113091651D01*
X165955250Y-113084419D01*
X165976074Y-113079203D01*
X165997309Y-113076053D01*
X166018750Y-113075000D01*
X166456250Y-113075000D01*
X166477691Y-113076053D01*
G37*
G36*
X164902691Y-113076053D02*
G01*
X164923926Y-113079203D01*
X164944750Y-113084419D01*
X164964962Y-113091651D01*
X164984368Y-113100830D01*
X165002781Y-113111866D01*
X165020024Y-113124654D01*
X165035930Y-113139070D01*
X165050346Y-113154976D01*
X165063134Y-113172219D01*
X165074170Y-113190632D01*
X165083349Y-113210038D01*
X165090581Y-113230250D01*
X165095797Y-113251074D01*
X165098947Y-113272309D01*
X165100000Y-113293750D01*
X165100000Y-113806250D01*
X165098947Y-113827691D01*
X165095797Y-113848926D01*
X165090581Y-113869750D01*
X165083349Y-113889962D01*
X165074170Y-113909368D01*
X165063134Y-113927781D01*
X165050346Y-113945024D01*
X165035930Y-113960930D01*
X165020024Y-113975346D01*
X165002781Y-113988134D01*
X164984368Y-113999170D01*
X164964962Y-114008349D01*
X164944750Y-114015581D01*
X164923926Y-114020797D01*
X164902691Y-114023947D01*
X164881250Y-114025000D01*
X164443750Y-114025000D01*
X164422309Y-114023947D01*
X164401074Y-114020797D01*
X164380250Y-114015581D01*
X164360038Y-114008349D01*
X164340632Y-113999170D01*
X164322219Y-113988134D01*
X164304976Y-113975346D01*
X164289070Y-113960930D01*
X164274654Y-113945024D01*
X164261866Y-113927781D01*
X164250830Y-113909368D01*
X164241651Y-113889962D01*
X164234419Y-113869750D01*
X164229203Y-113848926D01*
X164226053Y-113827691D01*
X164225000Y-113806250D01*
X164225000Y-113293750D01*
X164226053Y-113272309D01*
X164229203Y-113251074D01*
X164234419Y-113230250D01*
X164241651Y-113210038D01*
X164250830Y-113190632D01*
X164261866Y-113172219D01*
X164274654Y-113154976D01*
X164289070Y-113139070D01*
X164304976Y-113124654D01*
X164322219Y-113111866D01*
X164340632Y-113100830D01*
X164360038Y-113091651D01*
X164380250Y-113084419D01*
X164401074Y-113079203D01*
X164422309Y-113076053D01*
X164443750Y-113075000D01*
X164881250Y-113075000D01*
X164902691Y-113076053D01*
G37*
%TD*%
%TO.C,R15*%
G36*
X138652691Y-121526053D02*
G01*
X138673926Y-121529203D01*
X138694750Y-121534419D01*
X138714962Y-121541651D01*
X138734368Y-121550830D01*
X138752781Y-121561866D01*
X138770024Y-121574654D01*
X138785930Y-121589070D01*
X138800346Y-121604976D01*
X138813134Y-121622219D01*
X138824170Y-121640632D01*
X138833349Y-121660038D01*
X138840581Y-121680250D01*
X138845797Y-121701074D01*
X138848947Y-121722309D01*
X138850000Y-121743750D01*
X138850000Y-122256250D01*
X138848947Y-122277691D01*
X138845797Y-122298926D01*
X138840581Y-122319750D01*
X138833349Y-122339962D01*
X138824170Y-122359368D01*
X138813134Y-122377781D01*
X138800346Y-122395024D01*
X138785930Y-122410930D01*
X138770024Y-122425346D01*
X138752781Y-122438134D01*
X138734368Y-122449170D01*
X138714962Y-122458349D01*
X138694750Y-122465581D01*
X138673926Y-122470797D01*
X138652691Y-122473947D01*
X138631250Y-122475000D01*
X138193750Y-122475000D01*
X138172309Y-122473947D01*
X138151074Y-122470797D01*
X138130250Y-122465581D01*
X138110038Y-122458349D01*
X138090632Y-122449170D01*
X138072219Y-122438134D01*
X138054976Y-122425346D01*
X138039070Y-122410930D01*
X138024654Y-122395024D01*
X138011866Y-122377781D01*
X138000830Y-122359368D01*
X137991651Y-122339962D01*
X137984419Y-122319750D01*
X137979203Y-122298926D01*
X137976053Y-122277691D01*
X137975000Y-122256250D01*
X137975000Y-121743750D01*
X137976053Y-121722309D01*
X137979203Y-121701074D01*
X137984419Y-121680250D01*
X137991651Y-121660038D01*
X138000830Y-121640632D01*
X138011866Y-121622219D01*
X138024654Y-121604976D01*
X138039070Y-121589070D01*
X138054976Y-121574654D01*
X138072219Y-121561866D01*
X138090632Y-121550830D01*
X138110038Y-121541651D01*
X138130250Y-121534419D01*
X138151074Y-121529203D01*
X138172309Y-121526053D01*
X138193750Y-121525000D01*
X138631250Y-121525000D01*
X138652691Y-121526053D01*
G37*
G36*
X140227691Y-121526053D02*
G01*
X140248926Y-121529203D01*
X140269750Y-121534419D01*
X140289962Y-121541651D01*
X140309368Y-121550830D01*
X140327781Y-121561866D01*
X140345024Y-121574654D01*
X140360930Y-121589070D01*
X140375346Y-121604976D01*
X140388134Y-121622219D01*
X140399170Y-121640632D01*
X140408349Y-121660038D01*
X140415581Y-121680250D01*
X140420797Y-121701074D01*
X140423947Y-121722309D01*
X140425000Y-121743750D01*
X140425000Y-122256250D01*
X140423947Y-122277691D01*
X140420797Y-122298926D01*
X140415581Y-122319750D01*
X140408349Y-122339962D01*
X140399170Y-122359368D01*
X140388134Y-122377781D01*
X140375346Y-122395024D01*
X140360930Y-122410930D01*
X140345024Y-122425346D01*
X140327781Y-122438134D01*
X140309368Y-122449170D01*
X140289962Y-122458349D01*
X140269750Y-122465581D01*
X140248926Y-122470797D01*
X140227691Y-122473947D01*
X140206250Y-122475000D01*
X139768750Y-122475000D01*
X139747309Y-122473947D01*
X139726074Y-122470797D01*
X139705250Y-122465581D01*
X139685038Y-122458349D01*
X139665632Y-122449170D01*
X139647219Y-122438134D01*
X139629976Y-122425346D01*
X139614070Y-122410930D01*
X139599654Y-122395024D01*
X139586866Y-122377781D01*
X139575830Y-122359368D01*
X139566651Y-122339962D01*
X139559419Y-122319750D01*
X139554203Y-122298926D01*
X139551053Y-122277691D01*
X139550000Y-122256250D01*
X139550000Y-121743750D01*
X139551053Y-121722309D01*
X139554203Y-121701074D01*
X139559419Y-121680250D01*
X139566651Y-121660038D01*
X139575830Y-121640632D01*
X139586866Y-121622219D01*
X139599654Y-121604976D01*
X139614070Y-121589070D01*
X139629976Y-121574654D01*
X139647219Y-121561866D01*
X139665632Y-121550830D01*
X139685038Y-121541651D01*
X139705250Y-121534419D01*
X139726074Y-121529203D01*
X139747309Y-121526053D01*
X139768750Y-121525000D01*
X140206250Y-121525000D01*
X140227691Y-121526053D01*
G37*
%TD*%
%TO.C,R13*%
G36*
X151877691Y-123280053D02*
G01*
X151898926Y-123283203D01*
X151919750Y-123288419D01*
X151939962Y-123295651D01*
X151959368Y-123304830D01*
X151977781Y-123315866D01*
X151995024Y-123328654D01*
X152010930Y-123343070D01*
X152025346Y-123358976D01*
X152038134Y-123376219D01*
X152049170Y-123394632D01*
X152058349Y-123414038D01*
X152065581Y-123434250D01*
X152070797Y-123455074D01*
X152073947Y-123476309D01*
X152075000Y-123497750D01*
X152075000Y-124010250D01*
X152073947Y-124031691D01*
X152070797Y-124052926D01*
X152065581Y-124073750D01*
X152058349Y-124093962D01*
X152049170Y-124113368D01*
X152038134Y-124131781D01*
X152025346Y-124149024D01*
X152010930Y-124164930D01*
X151995024Y-124179346D01*
X151977781Y-124192134D01*
X151959368Y-124203170D01*
X151939962Y-124212349D01*
X151919750Y-124219581D01*
X151898926Y-124224797D01*
X151877691Y-124227947D01*
X151856250Y-124229000D01*
X151418750Y-124229000D01*
X151397309Y-124227947D01*
X151376074Y-124224797D01*
X151355250Y-124219581D01*
X151335038Y-124212349D01*
X151315632Y-124203170D01*
X151297219Y-124192134D01*
X151279976Y-124179346D01*
X151264070Y-124164930D01*
X151249654Y-124149024D01*
X151236866Y-124131781D01*
X151225830Y-124113368D01*
X151216651Y-124093962D01*
X151209419Y-124073750D01*
X151204203Y-124052926D01*
X151201053Y-124031691D01*
X151200000Y-124010250D01*
X151200000Y-123497750D01*
X151201053Y-123476309D01*
X151204203Y-123455074D01*
X151209419Y-123434250D01*
X151216651Y-123414038D01*
X151225830Y-123394632D01*
X151236866Y-123376219D01*
X151249654Y-123358976D01*
X151264070Y-123343070D01*
X151279976Y-123328654D01*
X151297219Y-123315866D01*
X151315632Y-123304830D01*
X151335038Y-123295651D01*
X151355250Y-123288419D01*
X151376074Y-123283203D01*
X151397309Y-123280053D01*
X151418750Y-123279000D01*
X151856250Y-123279000D01*
X151877691Y-123280053D01*
G37*
G36*
X150302691Y-123280053D02*
G01*
X150323926Y-123283203D01*
X150344750Y-123288419D01*
X150364962Y-123295651D01*
X150384368Y-123304830D01*
X150402781Y-123315866D01*
X150420024Y-123328654D01*
X150435930Y-123343070D01*
X150450346Y-123358976D01*
X150463134Y-123376219D01*
X150474170Y-123394632D01*
X150483349Y-123414038D01*
X150490581Y-123434250D01*
X150495797Y-123455074D01*
X150498947Y-123476309D01*
X150500000Y-123497750D01*
X150500000Y-124010250D01*
X150498947Y-124031691D01*
X150495797Y-124052926D01*
X150490581Y-124073750D01*
X150483349Y-124093962D01*
X150474170Y-124113368D01*
X150463134Y-124131781D01*
X150450346Y-124149024D01*
X150435930Y-124164930D01*
X150420024Y-124179346D01*
X150402781Y-124192134D01*
X150384368Y-124203170D01*
X150364962Y-124212349D01*
X150344750Y-124219581D01*
X150323926Y-124224797D01*
X150302691Y-124227947D01*
X150281250Y-124229000D01*
X149843750Y-124229000D01*
X149822309Y-124227947D01*
X149801074Y-124224797D01*
X149780250Y-124219581D01*
X149760038Y-124212349D01*
X149740632Y-124203170D01*
X149722219Y-124192134D01*
X149704976Y-124179346D01*
X149689070Y-124164930D01*
X149674654Y-124149024D01*
X149661866Y-124131781D01*
X149650830Y-124113368D01*
X149641651Y-124093962D01*
X149634419Y-124073750D01*
X149629203Y-124052926D01*
X149626053Y-124031691D01*
X149625000Y-124010250D01*
X149625000Y-123497750D01*
X149626053Y-123476309D01*
X149629203Y-123455074D01*
X149634419Y-123434250D01*
X149641651Y-123414038D01*
X149650830Y-123394632D01*
X149661866Y-123376219D01*
X149674654Y-123358976D01*
X149689070Y-123343070D01*
X149704976Y-123328654D01*
X149722219Y-123315866D01*
X149740632Y-123304830D01*
X149760038Y-123295651D01*
X149780250Y-123288419D01*
X149801074Y-123283203D01*
X149822309Y-123280053D01*
X149843750Y-123279000D01*
X150281250Y-123279000D01*
X150302691Y-123280053D01*
G37*
%TD*%
%TO.C,R1*%
G36*
X155002191Y-109000053D02*
G01*
X155023426Y-109003203D01*
X155044250Y-109008419D01*
X155064462Y-109015651D01*
X155083868Y-109024830D01*
X155102281Y-109035866D01*
X155119524Y-109048654D01*
X155135430Y-109063070D01*
X155149846Y-109078976D01*
X155162634Y-109096219D01*
X155173670Y-109114632D01*
X155182849Y-109134038D01*
X155190081Y-109154250D01*
X155195297Y-109175074D01*
X155198447Y-109196309D01*
X155199500Y-109217750D01*
X155199500Y-109730250D01*
X155198447Y-109751691D01*
X155195297Y-109772926D01*
X155190081Y-109793750D01*
X155182849Y-109813962D01*
X155173670Y-109833368D01*
X155162634Y-109851781D01*
X155149846Y-109869024D01*
X155135430Y-109884930D01*
X155119524Y-109899346D01*
X155102281Y-109912134D01*
X155083868Y-109923170D01*
X155064462Y-109932349D01*
X155044250Y-109939581D01*
X155023426Y-109944797D01*
X155002191Y-109947947D01*
X154980750Y-109949000D01*
X154543250Y-109949000D01*
X154521809Y-109947947D01*
X154500574Y-109944797D01*
X154479750Y-109939581D01*
X154459538Y-109932349D01*
X154440132Y-109923170D01*
X154421719Y-109912134D01*
X154404476Y-109899346D01*
X154388570Y-109884930D01*
X154374154Y-109869024D01*
X154361366Y-109851781D01*
X154350330Y-109833368D01*
X154341151Y-109813962D01*
X154333919Y-109793750D01*
X154328703Y-109772926D01*
X154325553Y-109751691D01*
X154324500Y-109730250D01*
X154324500Y-109217750D01*
X154325553Y-109196309D01*
X154328703Y-109175074D01*
X154333919Y-109154250D01*
X154341151Y-109134038D01*
X154350330Y-109114632D01*
X154361366Y-109096219D01*
X154374154Y-109078976D01*
X154388570Y-109063070D01*
X154404476Y-109048654D01*
X154421719Y-109035866D01*
X154440132Y-109024830D01*
X154459538Y-109015651D01*
X154479750Y-109008419D01*
X154500574Y-109003203D01*
X154521809Y-109000053D01*
X154543250Y-108999000D01*
X154980750Y-108999000D01*
X155002191Y-109000053D01*
G37*
G36*
X156577191Y-109000053D02*
G01*
X156598426Y-109003203D01*
X156619250Y-109008419D01*
X156639462Y-109015651D01*
X156658868Y-109024830D01*
X156677281Y-109035866D01*
X156694524Y-109048654D01*
X156710430Y-109063070D01*
X156724846Y-109078976D01*
X156737634Y-109096219D01*
X156748670Y-109114632D01*
X156757849Y-109134038D01*
X156765081Y-109154250D01*
X156770297Y-109175074D01*
X156773447Y-109196309D01*
X156774500Y-109217750D01*
X156774500Y-109730250D01*
X156773447Y-109751691D01*
X156770297Y-109772926D01*
X156765081Y-109793750D01*
X156757849Y-109813962D01*
X156748670Y-109833368D01*
X156737634Y-109851781D01*
X156724846Y-109869024D01*
X156710430Y-109884930D01*
X156694524Y-109899346D01*
X156677281Y-109912134D01*
X156658868Y-109923170D01*
X156639462Y-109932349D01*
X156619250Y-109939581D01*
X156598426Y-109944797D01*
X156577191Y-109947947D01*
X156555750Y-109949000D01*
X156118250Y-109949000D01*
X156096809Y-109947947D01*
X156075574Y-109944797D01*
X156054750Y-109939581D01*
X156034538Y-109932349D01*
X156015132Y-109923170D01*
X155996719Y-109912134D01*
X155979476Y-109899346D01*
X155963570Y-109884930D01*
X155949154Y-109869024D01*
X155936366Y-109851781D01*
X155925330Y-109833368D01*
X155916151Y-109813962D01*
X155908919Y-109793750D01*
X155903703Y-109772926D01*
X155900553Y-109751691D01*
X155899500Y-109730250D01*
X155899500Y-109217750D01*
X155900553Y-109196309D01*
X155903703Y-109175074D01*
X155908919Y-109154250D01*
X155916151Y-109134038D01*
X155925330Y-109114632D01*
X155936366Y-109096219D01*
X155949154Y-109078976D01*
X155963570Y-109063070D01*
X155979476Y-109048654D01*
X155996719Y-109035866D01*
X156015132Y-109024830D01*
X156034538Y-109015651D01*
X156054750Y-109008419D01*
X156075574Y-109003203D01*
X156096809Y-109000053D01*
X156118250Y-108999000D01*
X156555750Y-108999000D01*
X156577191Y-109000053D01*
G37*
%TD*%
D27*
%TO.C,Q1*%
X155641000Y-111157000D03*
X156591000Y-113157000D03*
X154691000Y-113157000D03*
%TD*%
D10*
%TO.C,D1*%
G36*
X148880142Y-124197674D02*
G01*
X148903803Y-124201184D01*
X148927007Y-124206996D01*
X148949529Y-124215054D01*
X148971153Y-124225282D01*
X148991670Y-124237579D01*
X149010883Y-124251829D01*
X149028607Y-124267893D01*
X149044671Y-124285617D01*
X149058921Y-124304830D01*
X149071218Y-124325347D01*
X149081446Y-124346971D01*
X149089504Y-124369493D01*
X149095316Y-124392697D01*
X149098826Y-124416358D01*
X149100000Y-124440250D01*
X149100000Y-124927750D01*
X149098826Y-124951642D01*
X149095316Y-124975303D01*
X149089504Y-124998507D01*
X149081446Y-125021029D01*
X149071218Y-125042653D01*
X149058921Y-125063170D01*
X149044671Y-125082383D01*
X149028607Y-125100107D01*
X149010883Y-125116171D01*
X148991670Y-125130421D01*
X148971153Y-125142718D01*
X148949529Y-125152946D01*
X148927007Y-125161004D01*
X148903803Y-125166816D01*
X148880142Y-125170326D01*
X148856250Y-125171500D01*
X147943750Y-125171500D01*
X147919858Y-125170326D01*
X147896197Y-125166816D01*
X147872993Y-125161004D01*
X147850471Y-125152946D01*
X147828847Y-125142718D01*
X147808330Y-125130421D01*
X147789117Y-125116171D01*
X147771393Y-125100107D01*
X147755329Y-125082383D01*
X147741079Y-125063170D01*
X147728782Y-125042653D01*
X147718554Y-125021029D01*
X147710496Y-124998507D01*
X147704684Y-124975303D01*
X147701174Y-124951642D01*
X147700000Y-124927750D01*
X147700000Y-124440250D01*
X147701174Y-124416358D01*
X147704684Y-124392697D01*
X147710496Y-124369493D01*
X147718554Y-124346971D01*
X147728782Y-124325347D01*
X147741079Y-124304830D01*
X147755329Y-124285617D01*
X147771393Y-124267893D01*
X147789117Y-124251829D01*
X147808330Y-124237579D01*
X147828847Y-124225282D01*
X147850471Y-124215054D01*
X147872993Y-124206996D01*
X147896197Y-124201184D01*
X147919858Y-124197674D01*
X147943750Y-124196500D01*
X148856250Y-124196500D01*
X148880142Y-124197674D01*
G37*
G36*
X148880142Y-122322674D02*
G01*
X148903803Y-122326184D01*
X148927007Y-122331996D01*
X148949529Y-122340054D01*
X148971153Y-122350282D01*
X148991670Y-122362579D01*
X149010883Y-122376829D01*
X149028607Y-122392893D01*
X149044671Y-122410617D01*
X149058921Y-122429830D01*
X149071218Y-122450347D01*
X149081446Y-122471971D01*
X149089504Y-122494493D01*
X149095316Y-122517697D01*
X149098826Y-122541358D01*
X149100000Y-122565250D01*
X149100000Y-123052750D01*
X149098826Y-123076642D01*
X149095316Y-123100303D01*
X149089504Y-123123507D01*
X149081446Y-123146029D01*
X149071218Y-123167653D01*
X149058921Y-123188170D01*
X149044671Y-123207383D01*
X149028607Y-123225107D01*
X149010883Y-123241171D01*
X148991670Y-123255421D01*
X148971153Y-123267718D01*
X148949529Y-123277946D01*
X148927007Y-123286004D01*
X148903803Y-123291816D01*
X148880142Y-123295326D01*
X148856250Y-123296500D01*
X147943750Y-123296500D01*
X147919858Y-123295326D01*
X147896197Y-123291816D01*
X147872993Y-123286004D01*
X147850471Y-123277946D01*
X147828847Y-123267718D01*
X147808330Y-123255421D01*
X147789117Y-123241171D01*
X147771393Y-123225107D01*
X147755329Y-123207383D01*
X147741079Y-123188170D01*
X147728782Y-123167653D01*
X147718554Y-123146029D01*
X147710496Y-123123507D01*
X147704684Y-123100303D01*
X147701174Y-123076642D01*
X147700000Y-123052750D01*
X147700000Y-122565250D01*
X147701174Y-122541358D01*
X147704684Y-122517697D01*
X147710496Y-122494493D01*
X147718554Y-122471971D01*
X147728782Y-122450347D01*
X147741079Y-122429830D01*
X147755329Y-122410617D01*
X147771393Y-122392893D01*
X147789117Y-122376829D01*
X147808330Y-122362579D01*
X147828847Y-122350282D01*
X147850471Y-122340054D01*
X147872993Y-122331996D01*
X147896197Y-122326184D01*
X147919858Y-122322674D01*
X147943750Y-122321500D01*
X148856250Y-122321500D01*
X148880142Y-122322674D01*
G37*
%TD*%
%TO.C,C4*%
G36*
X138652691Y-118526053D02*
G01*
X138673926Y-118529203D01*
X138694750Y-118534419D01*
X138714962Y-118541651D01*
X138734368Y-118550830D01*
X138752781Y-118561866D01*
X138770024Y-118574654D01*
X138785930Y-118589070D01*
X138800346Y-118604976D01*
X138813134Y-118622219D01*
X138824170Y-118640632D01*
X138833349Y-118660038D01*
X138840581Y-118680250D01*
X138845797Y-118701074D01*
X138848947Y-118722309D01*
X138850000Y-118743750D01*
X138850000Y-119256250D01*
X138848947Y-119277691D01*
X138845797Y-119298926D01*
X138840581Y-119319750D01*
X138833349Y-119339962D01*
X138824170Y-119359368D01*
X138813134Y-119377781D01*
X138800346Y-119395024D01*
X138785930Y-119410930D01*
X138770024Y-119425346D01*
X138752781Y-119438134D01*
X138734368Y-119449170D01*
X138714962Y-119458349D01*
X138694750Y-119465581D01*
X138673926Y-119470797D01*
X138652691Y-119473947D01*
X138631250Y-119475000D01*
X138193750Y-119475000D01*
X138172309Y-119473947D01*
X138151074Y-119470797D01*
X138130250Y-119465581D01*
X138110038Y-119458349D01*
X138090632Y-119449170D01*
X138072219Y-119438134D01*
X138054976Y-119425346D01*
X138039070Y-119410930D01*
X138024654Y-119395024D01*
X138011866Y-119377781D01*
X138000830Y-119359368D01*
X137991651Y-119339962D01*
X137984419Y-119319750D01*
X137979203Y-119298926D01*
X137976053Y-119277691D01*
X137975000Y-119256250D01*
X137975000Y-118743750D01*
X137976053Y-118722309D01*
X137979203Y-118701074D01*
X137984419Y-118680250D01*
X137991651Y-118660038D01*
X138000830Y-118640632D01*
X138011866Y-118622219D01*
X138024654Y-118604976D01*
X138039070Y-118589070D01*
X138054976Y-118574654D01*
X138072219Y-118561866D01*
X138090632Y-118550830D01*
X138110038Y-118541651D01*
X138130250Y-118534419D01*
X138151074Y-118529203D01*
X138172309Y-118526053D01*
X138193750Y-118525000D01*
X138631250Y-118525000D01*
X138652691Y-118526053D01*
G37*
G36*
X140227691Y-118526053D02*
G01*
X140248926Y-118529203D01*
X140269750Y-118534419D01*
X140289962Y-118541651D01*
X140309368Y-118550830D01*
X140327781Y-118561866D01*
X140345024Y-118574654D01*
X140360930Y-118589070D01*
X140375346Y-118604976D01*
X140388134Y-118622219D01*
X140399170Y-118640632D01*
X140408349Y-118660038D01*
X140415581Y-118680250D01*
X140420797Y-118701074D01*
X140423947Y-118722309D01*
X140425000Y-118743750D01*
X140425000Y-119256250D01*
X140423947Y-119277691D01*
X140420797Y-119298926D01*
X140415581Y-119319750D01*
X140408349Y-119339962D01*
X140399170Y-119359368D01*
X140388134Y-119377781D01*
X140375346Y-119395024D01*
X140360930Y-119410930D01*
X140345024Y-119425346D01*
X140327781Y-119438134D01*
X140309368Y-119449170D01*
X140289962Y-119458349D01*
X140269750Y-119465581D01*
X140248926Y-119470797D01*
X140227691Y-119473947D01*
X140206250Y-119475000D01*
X139768750Y-119475000D01*
X139747309Y-119473947D01*
X139726074Y-119470797D01*
X139705250Y-119465581D01*
X139685038Y-119458349D01*
X139665632Y-119449170D01*
X139647219Y-119438134D01*
X139629976Y-119425346D01*
X139614070Y-119410930D01*
X139599654Y-119395024D01*
X139586866Y-119377781D01*
X139575830Y-119359368D01*
X139566651Y-119339962D01*
X139559419Y-119319750D01*
X139554203Y-119298926D01*
X139551053Y-119277691D01*
X139550000Y-119256250D01*
X139550000Y-118743750D01*
X139551053Y-118722309D01*
X139554203Y-118701074D01*
X139559419Y-118680250D01*
X139566651Y-118660038D01*
X139575830Y-118640632D01*
X139586866Y-118622219D01*
X139599654Y-118604976D01*
X139614070Y-118589070D01*
X139629976Y-118574654D01*
X139647219Y-118561866D01*
X139665632Y-118550830D01*
X139685038Y-118541651D01*
X139705250Y-118534419D01*
X139726074Y-118529203D01*
X139747309Y-118526053D01*
X139768750Y-118525000D01*
X140206250Y-118525000D01*
X140227691Y-118526053D01*
G37*
%TD*%
%TO.C,C3*%
G36*
X149902691Y-120176053D02*
G01*
X149923926Y-120179203D01*
X149944750Y-120184419D01*
X149964962Y-120191651D01*
X149984368Y-120200830D01*
X150002781Y-120211866D01*
X150020024Y-120224654D01*
X150035930Y-120239070D01*
X150050346Y-120254976D01*
X150063134Y-120272219D01*
X150074170Y-120290632D01*
X150083349Y-120310038D01*
X150090581Y-120330250D01*
X150095797Y-120351074D01*
X150098947Y-120372309D01*
X150100000Y-120393750D01*
X150100000Y-120906250D01*
X150098947Y-120927691D01*
X150095797Y-120948926D01*
X150090581Y-120969750D01*
X150083349Y-120989962D01*
X150074170Y-121009368D01*
X150063134Y-121027781D01*
X150050346Y-121045024D01*
X150035930Y-121060930D01*
X150020024Y-121075346D01*
X150002781Y-121088134D01*
X149984368Y-121099170D01*
X149964962Y-121108349D01*
X149944750Y-121115581D01*
X149923926Y-121120797D01*
X149902691Y-121123947D01*
X149881250Y-121125000D01*
X149443750Y-121125000D01*
X149422309Y-121123947D01*
X149401074Y-121120797D01*
X149380250Y-121115581D01*
X149360038Y-121108349D01*
X149340632Y-121099170D01*
X149322219Y-121088134D01*
X149304976Y-121075346D01*
X149289070Y-121060930D01*
X149274654Y-121045024D01*
X149261866Y-121027781D01*
X149250830Y-121009368D01*
X149241651Y-120989962D01*
X149234419Y-120969750D01*
X149229203Y-120948926D01*
X149226053Y-120927691D01*
X149225000Y-120906250D01*
X149225000Y-120393750D01*
X149226053Y-120372309D01*
X149229203Y-120351074D01*
X149234419Y-120330250D01*
X149241651Y-120310038D01*
X149250830Y-120290632D01*
X149261866Y-120272219D01*
X149274654Y-120254976D01*
X149289070Y-120239070D01*
X149304976Y-120224654D01*
X149322219Y-120211866D01*
X149340632Y-120200830D01*
X149360038Y-120191651D01*
X149380250Y-120184419D01*
X149401074Y-120179203D01*
X149422309Y-120176053D01*
X149443750Y-120175000D01*
X149881250Y-120175000D01*
X149902691Y-120176053D01*
G37*
G36*
X151477691Y-120176053D02*
G01*
X151498926Y-120179203D01*
X151519750Y-120184419D01*
X151539962Y-120191651D01*
X151559368Y-120200830D01*
X151577781Y-120211866D01*
X151595024Y-120224654D01*
X151610930Y-120239070D01*
X151625346Y-120254976D01*
X151638134Y-120272219D01*
X151649170Y-120290632D01*
X151658349Y-120310038D01*
X151665581Y-120330250D01*
X151670797Y-120351074D01*
X151673947Y-120372309D01*
X151675000Y-120393750D01*
X151675000Y-120906250D01*
X151673947Y-120927691D01*
X151670797Y-120948926D01*
X151665581Y-120969750D01*
X151658349Y-120989962D01*
X151649170Y-121009368D01*
X151638134Y-121027781D01*
X151625346Y-121045024D01*
X151610930Y-121060930D01*
X151595024Y-121075346D01*
X151577781Y-121088134D01*
X151559368Y-121099170D01*
X151539962Y-121108349D01*
X151519750Y-121115581D01*
X151498926Y-121120797D01*
X151477691Y-121123947D01*
X151456250Y-121125000D01*
X151018750Y-121125000D01*
X150997309Y-121123947D01*
X150976074Y-121120797D01*
X150955250Y-121115581D01*
X150935038Y-121108349D01*
X150915632Y-121099170D01*
X150897219Y-121088134D01*
X150879976Y-121075346D01*
X150864070Y-121060930D01*
X150849654Y-121045024D01*
X150836866Y-121027781D01*
X150825830Y-121009368D01*
X150816651Y-120989962D01*
X150809419Y-120969750D01*
X150804203Y-120948926D01*
X150801053Y-120927691D01*
X150800000Y-120906250D01*
X150800000Y-120393750D01*
X150801053Y-120372309D01*
X150804203Y-120351074D01*
X150809419Y-120330250D01*
X150816651Y-120310038D01*
X150825830Y-120290632D01*
X150836866Y-120272219D01*
X150849654Y-120254976D01*
X150864070Y-120239070D01*
X150879976Y-120224654D01*
X150897219Y-120211866D01*
X150915632Y-120200830D01*
X150935038Y-120191651D01*
X150955250Y-120184419D01*
X150976074Y-120179203D01*
X150997309Y-120176053D01*
X151018750Y-120175000D01*
X151456250Y-120175000D01*
X151477691Y-120176053D01*
G37*
%TD*%
%TO.C,C2*%
G36*
X141652691Y-121526053D02*
G01*
X141673926Y-121529203D01*
X141694750Y-121534419D01*
X141714962Y-121541651D01*
X141734368Y-121550830D01*
X141752781Y-121561866D01*
X141770024Y-121574654D01*
X141785930Y-121589070D01*
X141800346Y-121604976D01*
X141813134Y-121622219D01*
X141824170Y-121640632D01*
X141833349Y-121660038D01*
X141840581Y-121680250D01*
X141845797Y-121701074D01*
X141848947Y-121722309D01*
X141850000Y-121743750D01*
X141850000Y-122256250D01*
X141848947Y-122277691D01*
X141845797Y-122298926D01*
X141840581Y-122319750D01*
X141833349Y-122339962D01*
X141824170Y-122359368D01*
X141813134Y-122377781D01*
X141800346Y-122395024D01*
X141785930Y-122410930D01*
X141770024Y-122425346D01*
X141752781Y-122438134D01*
X141734368Y-122449170D01*
X141714962Y-122458349D01*
X141694750Y-122465581D01*
X141673926Y-122470797D01*
X141652691Y-122473947D01*
X141631250Y-122475000D01*
X141193750Y-122475000D01*
X141172309Y-122473947D01*
X141151074Y-122470797D01*
X141130250Y-122465581D01*
X141110038Y-122458349D01*
X141090632Y-122449170D01*
X141072219Y-122438134D01*
X141054976Y-122425346D01*
X141039070Y-122410930D01*
X141024654Y-122395024D01*
X141011866Y-122377781D01*
X141000830Y-122359368D01*
X140991651Y-122339962D01*
X140984419Y-122319750D01*
X140979203Y-122298926D01*
X140976053Y-122277691D01*
X140975000Y-122256250D01*
X140975000Y-121743750D01*
X140976053Y-121722309D01*
X140979203Y-121701074D01*
X140984419Y-121680250D01*
X140991651Y-121660038D01*
X141000830Y-121640632D01*
X141011866Y-121622219D01*
X141024654Y-121604976D01*
X141039070Y-121589070D01*
X141054976Y-121574654D01*
X141072219Y-121561866D01*
X141090632Y-121550830D01*
X141110038Y-121541651D01*
X141130250Y-121534419D01*
X141151074Y-121529203D01*
X141172309Y-121526053D01*
X141193750Y-121525000D01*
X141631250Y-121525000D01*
X141652691Y-121526053D01*
G37*
G36*
X143227691Y-121526053D02*
G01*
X143248926Y-121529203D01*
X143269750Y-121534419D01*
X143289962Y-121541651D01*
X143309368Y-121550830D01*
X143327781Y-121561866D01*
X143345024Y-121574654D01*
X143360930Y-121589070D01*
X143375346Y-121604976D01*
X143388134Y-121622219D01*
X143399170Y-121640632D01*
X143408349Y-121660038D01*
X143415581Y-121680250D01*
X143420797Y-121701074D01*
X143423947Y-121722309D01*
X143425000Y-121743750D01*
X143425000Y-122256250D01*
X143423947Y-122277691D01*
X143420797Y-122298926D01*
X143415581Y-122319750D01*
X143408349Y-122339962D01*
X143399170Y-122359368D01*
X143388134Y-122377781D01*
X143375346Y-122395024D01*
X143360930Y-122410930D01*
X143345024Y-122425346D01*
X143327781Y-122438134D01*
X143309368Y-122449170D01*
X143289962Y-122458349D01*
X143269750Y-122465581D01*
X143248926Y-122470797D01*
X143227691Y-122473947D01*
X143206250Y-122475000D01*
X142768750Y-122475000D01*
X142747309Y-122473947D01*
X142726074Y-122470797D01*
X142705250Y-122465581D01*
X142685038Y-122458349D01*
X142665632Y-122449170D01*
X142647219Y-122438134D01*
X142629976Y-122425346D01*
X142614070Y-122410930D01*
X142599654Y-122395024D01*
X142586866Y-122377781D01*
X142575830Y-122359368D01*
X142566651Y-122339962D01*
X142559419Y-122319750D01*
X142554203Y-122298926D01*
X142551053Y-122277691D01*
X142550000Y-122256250D01*
X142550000Y-121743750D01*
X142551053Y-121722309D01*
X142554203Y-121701074D01*
X142559419Y-121680250D01*
X142566651Y-121660038D01*
X142575830Y-121640632D01*
X142586866Y-121622219D01*
X142599654Y-121604976D01*
X142614070Y-121589070D01*
X142629976Y-121574654D01*
X142647219Y-121561866D01*
X142665632Y-121550830D01*
X142685038Y-121541651D01*
X142705250Y-121534419D01*
X142726074Y-121529203D01*
X142747309Y-121526053D01*
X142768750Y-121525000D01*
X143206250Y-121525000D01*
X143227691Y-121526053D01*
G37*
%TD*%
%TO.C,C1*%
G36*
X140227691Y-123026053D02*
G01*
X140248926Y-123029203D01*
X140269750Y-123034419D01*
X140289962Y-123041651D01*
X140309368Y-123050830D01*
X140327781Y-123061866D01*
X140345024Y-123074654D01*
X140360930Y-123089070D01*
X140375346Y-123104976D01*
X140388134Y-123122219D01*
X140399170Y-123140632D01*
X140408349Y-123160038D01*
X140415581Y-123180250D01*
X140420797Y-123201074D01*
X140423947Y-123222309D01*
X140425000Y-123243750D01*
X140425000Y-123756250D01*
X140423947Y-123777691D01*
X140420797Y-123798926D01*
X140415581Y-123819750D01*
X140408349Y-123839962D01*
X140399170Y-123859368D01*
X140388134Y-123877781D01*
X140375346Y-123895024D01*
X140360930Y-123910930D01*
X140345024Y-123925346D01*
X140327781Y-123938134D01*
X140309368Y-123949170D01*
X140289962Y-123958349D01*
X140269750Y-123965581D01*
X140248926Y-123970797D01*
X140227691Y-123973947D01*
X140206250Y-123975000D01*
X139768750Y-123975000D01*
X139747309Y-123973947D01*
X139726074Y-123970797D01*
X139705250Y-123965581D01*
X139685038Y-123958349D01*
X139665632Y-123949170D01*
X139647219Y-123938134D01*
X139629976Y-123925346D01*
X139614070Y-123910930D01*
X139599654Y-123895024D01*
X139586866Y-123877781D01*
X139575830Y-123859368D01*
X139566651Y-123839962D01*
X139559419Y-123819750D01*
X139554203Y-123798926D01*
X139551053Y-123777691D01*
X139550000Y-123756250D01*
X139550000Y-123243750D01*
X139551053Y-123222309D01*
X139554203Y-123201074D01*
X139559419Y-123180250D01*
X139566651Y-123160038D01*
X139575830Y-123140632D01*
X139586866Y-123122219D01*
X139599654Y-123104976D01*
X139614070Y-123089070D01*
X139629976Y-123074654D01*
X139647219Y-123061866D01*
X139665632Y-123050830D01*
X139685038Y-123041651D01*
X139705250Y-123034419D01*
X139726074Y-123029203D01*
X139747309Y-123026053D01*
X139768750Y-123025000D01*
X140206250Y-123025000D01*
X140227691Y-123026053D01*
G37*
G36*
X138652691Y-123026053D02*
G01*
X138673926Y-123029203D01*
X138694750Y-123034419D01*
X138714962Y-123041651D01*
X138734368Y-123050830D01*
X138752781Y-123061866D01*
X138770024Y-123074654D01*
X138785930Y-123089070D01*
X138800346Y-123104976D01*
X138813134Y-123122219D01*
X138824170Y-123140632D01*
X138833349Y-123160038D01*
X138840581Y-123180250D01*
X138845797Y-123201074D01*
X138848947Y-123222309D01*
X138850000Y-123243750D01*
X138850000Y-123756250D01*
X138848947Y-123777691D01*
X138845797Y-123798926D01*
X138840581Y-123819750D01*
X138833349Y-123839962D01*
X138824170Y-123859368D01*
X138813134Y-123877781D01*
X138800346Y-123895024D01*
X138785930Y-123910930D01*
X138770024Y-123925346D01*
X138752781Y-123938134D01*
X138734368Y-123949170D01*
X138714962Y-123958349D01*
X138694750Y-123965581D01*
X138673926Y-123970797D01*
X138652691Y-123973947D01*
X138631250Y-123975000D01*
X138193750Y-123975000D01*
X138172309Y-123973947D01*
X138151074Y-123970797D01*
X138130250Y-123965581D01*
X138110038Y-123958349D01*
X138090632Y-123949170D01*
X138072219Y-123938134D01*
X138054976Y-123925346D01*
X138039070Y-123910930D01*
X138024654Y-123895024D01*
X138011866Y-123877781D01*
X138000830Y-123859368D01*
X137991651Y-123839962D01*
X137984419Y-123819750D01*
X137979203Y-123798926D01*
X137976053Y-123777691D01*
X137975000Y-123756250D01*
X137975000Y-123243750D01*
X137976053Y-123222309D01*
X137979203Y-123201074D01*
X137984419Y-123180250D01*
X137991651Y-123160038D01*
X138000830Y-123140632D01*
X138011866Y-123122219D01*
X138024654Y-123104976D01*
X138039070Y-123089070D01*
X138054976Y-123074654D01*
X138072219Y-123061866D01*
X138090632Y-123050830D01*
X138110038Y-123041651D01*
X138130250Y-123034419D01*
X138151074Y-123029203D01*
X138172309Y-123026053D01*
X138193750Y-123025000D01*
X138631250Y-123025000D01*
X138652691Y-123026053D01*
G37*
%TD*%
%TO.C,R9*%
G36*
X166483191Y-106714053D02*
G01*
X166504426Y-106717203D01*
X166525250Y-106722419D01*
X166545462Y-106729651D01*
X166564868Y-106738830D01*
X166583281Y-106749866D01*
X166600524Y-106762654D01*
X166616430Y-106777070D01*
X166630846Y-106792976D01*
X166643634Y-106810219D01*
X166654670Y-106828632D01*
X166663849Y-106848038D01*
X166671081Y-106868250D01*
X166676297Y-106889074D01*
X166679447Y-106910309D01*
X166680500Y-106931750D01*
X166680500Y-107444250D01*
X166679447Y-107465691D01*
X166676297Y-107486926D01*
X166671081Y-107507750D01*
X166663849Y-107527962D01*
X166654670Y-107547368D01*
X166643634Y-107565781D01*
X166630846Y-107583024D01*
X166616430Y-107598930D01*
X166600524Y-107613346D01*
X166583281Y-107626134D01*
X166564868Y-107637170D01*
X166545462Y-107646349D01*
X166525250Y-107653581D01*
X166504426Y-107658797D01*
X166483191Y-107661947D01*
X166461750Y-107663000D01*
X166024250Y-107663000D01*
X166002809Y-107661947D01*
X165981574Y-107658797D01*
X165960750Y-107653581D01*
X165940538Y-107646349D01*
X165921132Y-107637170D01*
X165902719Y-107626134D01*
X165885476Y-107613346D01*
X165869570Y-107598930D01*
X165855154Y-107583024D01*
X165842366Y-107565781D01*
X165831330Y-107547368D01*
X165822151Y-107527962D01*
X165814919Y-107507750D01*
X165809703Y-107486926D01*
X165806553Y-107465691D01*
X165805500Y-107444250D01*
X165805500Y-106931750D01*
X165806553Y-106910309D01*
X165809703Y-106889074D01*
X165814919Y-106868250D01*
X165822151Y-106848038D01*
X165831330Y-106828632D01*
X165842366Y-106810219D01*
X165855154Y-106792976D01*
X165869570Y-106777070D01*
X165885476Y-106762654D01*
X165902719Y-106749866D01*
X165921132Y-106738830D01*
X165940538Y-106729651D01*
X165960750Y-106722419D01*
X165981574Y-106717203D01*
X166002809Y-106714053D01*
X166024250Y-106713000D01*
X166461750Y-106713000D01*
X166483191Y-106714053D01*
G37*
G36*
X164908191Y-106714053D02*
G01*
X164929426Y-106717203D01*
X164950250Y-106722419D01*
X164970462Y-106729651D01*
X164989868Y-106738830D01*
X165008281Y-106749866D01*
X165025524Y-106762654D01*
X165041430Y-106777070D01*
X165055846Y-106792976D01*
X165068634Y-106810219D01*
X165079670Y-106828632D01*
X165088849Y-106848038D01*
X165096081Y-106868250D01*
X165101297Y-106889074D01*
X165104447Y-106910309D01*
X165105500Y-106931750D01*
X165105500Y-107444250D01*
X165104447Y-107465691D01*
X165101297Y-107486926D01*
X165096081Y-107507750D01*
X165088849Y-107527962D01*
X165079670Y-107547368D01*
X165068634Y-107565781D01*
X165055846Y-107583024D01*
X165041430Y-107598930D01*
X165025524Y-107613346D01*
X165008281Y-107626134D01*
X164989868Y-107637170D01*
X164970462Y-107646349D01*
X164950250Y-107653581D01*
X164929426Y-107658797D01*
X164908191Y-107661947D01*
X164886750Y-107663000D01*
X164449250Y-107663000D01*
X164427809Y-107661947D01*
X164406574Y-107658797D01*
X164385750Y-107653581D01*
X164365538Y-107646349D01*
X164346132Y-107637170D01*
X164327719Y-107626134D01*
X164310476Y-107613346D01*
X164294570Y-107598930D01*
X164280154Y-107583024D01*
X164267366Y-107565781D01*
X164256330Y-107547368D01*
X164247151Y-107527962D01*
X164239919Y-107507750D01*
X164234703Y-107486926D01*
X164231553Y-107465691D01*
X164230500Y-107444250D01*
X164230500Y-106931750D01*
X164231553Y-106910309D01*
X164234703Y-106889074D01*
X164239919Y-106868250D01*
X164247151Y-106848038D01*
X164256330Y-106828632D01*
X164267366Y-106810219D01*
X164280154Y-106792976D01*
X164294570Y-106777070D01*
X164310476Y-106762654D01*
X164327719Y-106749866D01*
X164346132Y-106738830D01*
X164365538Y-106729651D01*
X164385750Y-106722419D01*
X164406574Y-106717203D01*
X164427809Y-106714053D01*
X164449250Y-106713000D01*
X164886750Y-106713000D01*
X164908191Y-106714053D01*
G37*
%TD*%
%TO.C,R8*%
G36*
X167027691Y-124576053D02*
G01*
X167048926Y-124579203D01*
X167069750Y-124584419D01*
X167089962Y-124591651D01*
X167109368Y-124600830D01*
X167127781Y-124611866D01*
X167145024Y-124624654D01*
X167160930Y-124639070D01*
X167175346Y-124654976D01*
X167188134Y-124672219D01*
X167199170Y-124690632D01*
X167208349Y-124710038D01*
X167215581Y-124730250D01*
X167220797Y-124751074D01*
X167223947Y-124772309D01*
X167225000Y-124793750D01*
X167225000Y-125306250D01*
X167223947Y-125327691D01*
X167220797Y-125348926D01*
X167215581Y-125369750D01*
X167208349Y-125389962D01*
X167199170Y-125409368D01*
X167188134Y-125427781D01*
X167175346Y-125445024D01*
X167160930Y-125460930D01*
X167145024Y-125475346D01*
X167127781Y-125488134D01*
X167109368Y-125499170D01*
X167089962Y-125508349D01*
X167069750Y-125515581D01*
X167048926Y-125520797D01*
X167027691Y-125523947D01*
X167006250Y-125525000D01*
X166568750Y-125525000D01*
X166547309Y-125523947D01*
X166526074Y-125520797D01*
X166505250Y-125515581D01*
X166485038Y-125508349D01*
X166465632Y-125499170D01*
X166447219Y-125488134D01*
X166429976Y-125475346D01*
X166414070Y-125460930D01*
X166399654Y-125445024D01*
X166386866Y-125427781D01*
X166375830Y-125409368D01*
X166366651Y-125389962D01*
X166359419Y-125369750D01*
X166354203Y-125348926D01*
X166351053Y-125327691D01*
X166350000Y-125306250D01*
X166350000Y-124793750D01*
X166351053Y-124772309D01*
X166354203Y-124751074D01*
X166359419Y-124730250D01*
X166366651Y-124710038D01*
X166375830Y-124690632D01*
X166386866Y-124672219D01*
X166399654Y-124654976D01*
X166414070Y-124639070D01*
X166429976Y-124624654D01*
X166447219Y-124611866D01*
X166465632Y-124600830D01*
X166485038Y-124591651D01*
X166505250Y-124584419D01*
X166526074Y-124579203D01*
X166547309Y-124576053D01*
X166568750Y-124575000D01*
X167006250Y-124575000D01*
X167027691Y-124576053D01*
G37*
G36*
X165452691Y-124576053D02*
G01*
X165473926Y-124579203D01*
X165494750Y-124584419D01*
X165514962Y-124591651D01*
X165534368Y-124600830D01*
X165552781Y-124611866D01*
X165570024Y-124624654D01*
X165585930Y-124639070D01*
X165600346Y-124654976D01*
X165613134Y-124672219D01*
X165624170Y-124690632D01*
X165633349Y-124710038D01*
X165640581Y-124730250D01*
X165645797Y-124751074D01*
X165648947Y-124772309D01*
X165650000Y-124793750D01*
X165650000Y-125306250D01*
X165648947Y-125327691D01*
X165645797Y-125348926D01*
X165640581Y-125369750D01*
X165633349Y-125389962D01*
X165624170Y-125409368D01*
X165613134Y-125427781D01*
X165600346Y-125445024D01*
X165585930Y-125460930D01*
X165570024Y-125475346D01*
X165552781Y-125488134D01*
X165534368Y-125499170D01*
X165514962Y-125508349D01*
X165494750Y-125515581D01*
X165473926Y-125520797D01*
X165452691Y-125523947D01*
X165431250Y-125525000D01*
X164993750Y-125525000D01*
X164972309Y-125523947D01*
X164951074Y-125520797D01*
X164930250Y-125515581D01*
X164910038Y-125508349D01*
X164890632Y-125499170D01*
X164872219Y-125488134D01*
X164854976Y-125475346D01*
X164839070Y-125460930D01*
X164824654Y-125445024D01*
X164811866Y-125427781D01*
X164800830Y-125409368D01*
X164791651Y-125389962D01*
X164784419Y-125369750D01*
X164779203Y-125348926D01*
X164776053Y-125327691D01*
X164775000Y-125306250D01*
X164775000Y-124793750D01*
X164776053Y-124772309D01*
X164779203Y-124751074D01*
X164784419Y-124730250D01*
X164791651Y-124710038D01*
X164800830Y-124690632D01*
X164811866Y-124672219D01*
X164824654Y-124654976D01*
X164839070Y-124639070D01*
X164854976Y-124624654D01*
X164872219Y-124611866D01*
X164890632Y-124600830D01*
X164910038Y-124591651D01*
X164930250Y-124584419D01*
X164951074Y-124579203D01*
X164972309Y-124576053D01*
X164993750Y-124575000D01*
X165431250Y-124575000D01*
X165452691Y-124576053D01*
G37*
%TD*%
D28*
%TO.C,U5*%
X161300000Y-125825000D03*
X160650000Y-125825000D03*
X160000000Y-125825000D03*
X159350000Y-125825000D03*
X158700000Y-125825000D03*
D29*
X163048000Y-128627000D03*
D30*
X160000000Y-128500000D03*
D29*
X156952000Y-128627000D03*
%TD*%
D10*
%TO.C,SW2*%
G36*
X167902771Y-94556328D02*
G01*
X167498262Y-94262436D01*
X168394047Y-93029494D01*
X168798556Y-93323386D01*
X167902771Y-94556328D01*
G37*
G36*
X170612978Y-96525409D02*
G01*
X170208469Y-96231517D01*
X171104254Y-94998575D01*
X171508763Y-95292467D01*
X170612978Y-96525409D01*
G37*
%TD*%
%TO.C,SW1*%
G36*
X149704901Y-95981454D02*
G01*
X149290383Y-96261051D01*
X148438173Y-94997598D01*
X148852691Y-94718001D01*
X149704901Y-95981454D01*
G37*
G36*
X152482177Y-94108158D02*
G01*
X152067659Y-94387755D01*
X151215449Y-93124302D01*
X151629967Y-92844705D01*
X152482177Y-94108158D01*
G37*
%TD*%
%TO.C,SW5*%
G36*
X154317659Y-126862245D02*
G01*
X154732177Y-127141842D01*
X153879967Y-128405295D01*
X153465449Y-128125698D01*
X154317659Y-126862245D01*
G37*
G36*
X151540383Y-124988949D02*
G01*
X151954901Y-125268546D01*
X151102691Y-126531999D01*
X150688173Y-126252402D01*
X151540383Y-124988949D01*
G37*
%TD*%
%TO.C,SW4*%
G36*
X168088399Y-125269711D02*
G01*
X168507735Y-124997391D01*
X169337765Y-126275525D01*
X168918429Y-126547845D01*
X168088399Y-125269711D01*
G37*
G36*
X165278852Y-127094252D02*
G01*
X165698188Y-126821932D01*
X166528218Y-128100066D01*
X166108882Y-128372386D01*
X165278852Y-127094252D01*
G37*
%TD*%
D31*
%TO.C,U7*%
X171160000Y-106100000D03*
X172176000Y-106100000D03*
X173192000Y-106100000D03*
X174208000Y-106100000D03*
X175224000Y-106100000D03*
X176240000Y-106100000D03*
X177256000Y-106100000D03*
X178272000Y-106100000D03*
D32*
X168216000Y-115616000D03*
X168216000Y-121712000D03*
X168216000Y-112568000D03*
X168216000Y-113584000D03*
X168216000Y-120696000D03*
X168216000Y-119680000D03*
X168216000Y-118664000D03*
X168216000Y-117648000D03*
X168216000Y-107488000D03*
X168216000Y-108504000D03*
X168216000Y-114600000D03*
X168216000Y-110536000D03*
X168216000Y-116632000D03*
X168216000Y-111552000D03*
X168216000Y-109520000D03*
X181216000Y-121712000D03*
X181216000Y-120696000D03*
X181216000Y-119680000D03*
X181216000Y-118664000D03*
X181216000Y-117648000D03*
X181216000Y-116632000D03*
X181216000Y-115616000D03*
X181216000Y-114600000D03*
X181216000Y-113600000D03*
X181216000Y-112568000D03*
X181216000Y-111552000D03*
X181216000Y-110536000D03*
X181216000Y-109520000D03*
X181216000Y-108504000D03*
X181216000Y-107488000D03*
%TD*%
M02*
