%TF.GenerationSoftware,KiCad,Pcbnew,5.1.7+dfsg1-1~bpo10+1*%
%TF.CreationDate,Date%
%TF.ProjectId,osw-light,6f73772d-6c69-4676-9874-2e6b69636164,3.2*%
%TF.SameCoordinates,Original*%
%TF.FileFunction,Other,Fab,Top*%
%FSLAX46Y46*%
G04 Gerber Fmt 4.6, Leading zero omitted, Abs format (unit mm)*
G04 Created by KiCad*
%MOMM*%
%LPD*%
G01*
G04 APERTURE LIST*
%ADD10C,0.100000*%
%ADD11C,0.050000*%
%ADD12C,0.150000*%
G04 APERTURE END LIST*
D10*
%TO.C,R1*%
X64351000Y-96120000D02*
X65951000Y-96120000D01*
X64351000Y-96920000D02*
X64351000Y-96120000D01*
X65951000Y-96920000D02*
X64351000Y-96920000D01*
X65951000Y-96120000D02*
X65951000Y-96920000D01*
%TO.C,U2*%
X82661000Y-91130500D02*
X82661000Y-92630500D01*
X82161000Y-90630500D02*
X82661000Y-91130500D01*
X80661000Y-90630500D02*
X82161000Y-90630500D01*
X80661000Y-92630500D02*
X80661000Y-90630500D01*
X82661000Y-92630500D02*
X80661000Y-92630500D01*
D11*
%TO.C,U5*%
X79900000Y-114715500D02*
X72500000Y-114715500D01*
X72100000Y-119715500D02*
X72500000Y-119715500D01*
X72100000Y-120215500D02*
X72100000Y-119715500D01*
X80300000Y-119715500D02*
X79900000Y-119715500D01*
X80300000Y-120215500D02*
X80300000Y-119715500D01*
X72500000Y-114715500D02*
X72500000Y-119715500D01*
X72100000Y-120215500D02*
X80300000Y-120215500D01*
X79900000Y-119715500D02*
X79900000Y-114715500D01*
D10*
%TO.C,R18*%
X71164500Y-88417500D02*
X71964500Y-88417500D01*
X71964500Y-88417500D02*
X71964500Y-90017500D01*
X71964500Y-90017500D02*
X71164500Y-90017500D01*
X71164500Y-90017500D02*
X71164500Y-88417500D01*
%TO.C,C11*%
X71964500Y-86906000D02*
X71164500Y-86906000D01*
X71164500Y-86906000D02*
X71164500Y-85306000D01*
X71164500Y-85306000D02*
X71964500Y-85306000D01*
X71964500Y-85306000D02*
X71964500Y-86906000D01*
%TO.C,C22*%
X65951000Y-97707500D02*
X65951000Y-98507500D01*
X65951000Y-98507500D02*
X64351000Y-98507500D01*
X64351000Y-98507500D02*
X64351000Y-97707500D01*
X64351000Y-97707500D02*
X65951000Y-97707500D01*
%TO.C,U13*%
X67233200Y-94604000D02*
X70333200Y-94604000D01*
X70333200Y-94604000D02*
X70333200Y-96404000D01*
X67883200Y-96404000D02*
X70333200Y-96404000D01*
X67233200Y-94604000D02*
X67233200Y-95754000D01*
X67883200Y-96404000D02*
X67233200Y-95754000D01*
%TO.C,U10*%
X71856000Y-94604000D02*
X74956000Y-94604000D01*
X74956000Y-94604000D02*
X74956000Y-96404000D01*
X72506000Y-96404000D02*
X74956000Y-96404000D01*
X71856000Y-94604000D02*
X71856000Y-95754000D01*
X72506000Y-96404000D02*
X71856000Y-95754000D01*
%TO.C,R22*%
X60985500Y-95421500D02*
X62585500Y-95421500D01*
X60985500Y-96221500D02*
X60985500Y-95421500D01*
X62585500Y-96221500D02*
X60985500Y-96221500D01*
X62585500Y-95421500D02*
X62585500Y-96221500D01*
%TO.C,R21*%
X62585500Y-94570500D02*
X60985500Y-94570500D01*
X62585500Y-93770500D02*
X62585500Y-94570500D01*
X60985500Y-93770500D02*
X62585500Y-93770500D01*
X60985500Y-94570500D02*
X60985500Y-93770500D01*
%TO.C,C19*%
X69989500Y-91586000D02*
X68389500Y-91586000D01*
X69989500Y-90786000D02*
X69989500Y-91586000D01*
X68389500Y-90786000D02*
X69989500Y-90786000D01*
X68389500Y-91586000D02*
X68389500Y-90786000D01*
%TO.C,C18*%
X74688600Y-91586000D02*
X73088600Y-91586000D01*
X74688600Y-90786000D02*
X74688600Y-91586000D01*
X73088600Y-90786000D02*
X74688600Y-90786000D01*
X73088600Y-91586000D02*
X73088600Y-90786000D01*
%TO.C,C17*%
X69989500Y-93173500D02*
X68389500Y-93173500D01*
X69989500Y-92373500D02*
X69989500Y-93173500D01*
X68389500Y-92373500D02*
X69989500Y-92373500D01*
X68389500Y-93173500D02*
X68389500Y-92373500D01*
%TO.C,C16*%
X74688600Y-93173500D02*
X73088600Y-93173500D01*
X74688600Y-92373500D02*
X74688600Y-93173500D01*
X73088600Y-92373500D02*
X74688600Y-92373500D01*
X73088600Y-93173500D02*
X73088600Y-92373500D01*
%TO.C,C15*%
X69888000Y-98647200D02*
X68288000Y-98647200D01*
X69888000Y-97847200D02*
X69888000Y-98647200D01*
X68288000Y-97847200D02*
X69888000Y-97847200D01*
X68288000Y-98647200D02*
X68288000Y-97847200D01*
%TO.C,C14*%
X74510800Y-98647200D02*
X72910800Y-98647200D01*
X74510800Y-97847200D02*
X74510800Y-98647200D01*
X72910800Y-97847200D02*
X74510800Y-97847200D01*
X72910800Y-98647200D02*
X72910800Y-97847200D01*
%TO.C,C6*%
X69875200Y-100977600D02*
X66675200Y-100977600D01*
X69875200Y-99377600D02*
X69875200Y-100977600D01*
X66675200Y-99377600D02*
X69875200Y-99377600D01*
X66675200Y-100977600D02*
X66675200Y-99377600D01*
%TO.C,C5*%
X74520400Y-100977600D02*
X71320400Y-100977600D01*
X74520400Y-99377600D02*
X74520400Y-100977600D01*
X71320400Y-99377600D02*
X74520400Y-99377600D01*
X71320400Y-100977600D02*
X71320400Y-99377600D01*
%TO.C,U9*%
X73523200Y-105550400D02*
X72773200Y-106300400D01*
X73523200Y-103300400D02*
X73523200Y-105550400D01*
X69123200Y-103300400D02*
X73523200Y-103300400D01*
X69123200Y-106300400D02*
X69123200Y-103300400D01*
X72773200Y-106300400D02*
X69123200Y-106300400D01*
%TO.C,R19*%
X72923500Y-102571500D02*
X72923500Y-101771500D01*
X72923500Y-101771500D02*
X74523500Y-101771500D01*
X74523500Y-101771500D02*
X74523500Y-102571500D01*
X74523500Y-102571500D02*
X72923500Y-102571500D01*
%TO.C,C13*%
X78397000Y-90786000D02*
X78397000Y-91586000D01*
X78397000Y-91586000D02*
X76797000Y-91586000D01*
X76797000Y-91586000D02*
X76797000Y-90786000D01*
X76797000Y-90786000D02*
X78397000Y-90786000D01*
%TO.C,C9*%
X85509200Y-112160000D02*
X85509200Y-111360000D01*
X85509200Y-111360000D02*
X87109200Y-111360000D01*
X87109200Y-111360000D02*
X87109200Y-112160000D01*
X87109200Y-112160000D02*
X85509200Y-112160000D01*
%TO.C,C8*%
X89826900Y-92818000D02*
X89826900Y-93618000D01*
X89826900Y-93618000D02*
X88226900Y-93618000D01*
X88226900Y-93618000D02*
X88226900Y-92818000D01*
X88226900Y-92818000D02*
X89826900Y-92818000D01*
%TO.C,R17*%
X64147600Y-109531200D02*
X64147600Y-110331200D01*
X64147600Y-110331200D02*
X62547600Y-110331200D01*
X62547600Y-110331200D02*
X62547600Y-109531200D01*
X62547600Y-109531200D02*
X64147600Y-109531200D01*
%TO.C,R16*%
X62547600Y-108756400D02*
X62547600Y-107956400D01*
X62547600Y-107956400D02*
X64147600Y-107956400D01*
X64147600Y-107956400D02*
X64147600Y-108756400D01*
X64147600Y-108756400D02*
X62547600Y-108756400D01*
%TO.C,R7*%
X86715500Y-92030500D02*
X85115500Y-92030500D01*
X86715500Y-91230500D02*
X86715500Y-92030500D01*
X85115500Y-91230500D02*
X86715500Y-91230500D01*
X85115500Y-92030500D02*
X85115500Y-91230500D01*
%TO.C,R6*%
X85115500Y-92818000D02*
X86715500Y-92818000D01*
X85115500Y-93618000D02*
X85115500Y-92818000D01*
X86715500Y-93618000D02*
X85115500Y-93618000D01*
X86715500Y-92818000D02*
X86715500Y-93618000D01*
%TO.C,U1*%
X74186500Y-85189800D02*
X75161500Y-84214800D01*
X74186500Y-89114800D02*
X74186500Y-85189800D01*
X78086500Y-89114800D02*
X74186500Y-89114800D01*
X78086500Y-84214800D02*
X78086500Y-89114800D01*
X75161500Y-84214800D02*
X78086500Y-84214800D01*
D12*
%TO.C,U6*%
X79983200Y-111412400D02*
X80983200Y-110412400D01*
X79983200Y-113412400D02*
X79983200Y-111412400D01*
X82983200Y-113412400D02*
X79983200Y-113412400D01*
X82983200Y-110412400D02*
X82983200Y-113412400D01*
X80983200Y-110412400D02*
X82983200Y-110412400D01*
D10*
%TO.C,U11*%
X72974800Y-111136000D02*
X69874800Y-111136000D01*
X69874800Y-111136000D02*
X69874800Y-109336000D01*
X72324800Y-109336000D02*
X69874800Y-109336000D01*
X72974800Y-111136000D02*
X72974800Y-109986000D01*
X72324800Y-109336000D02*
X72974800Y-109986000D01*
%TO.C,R11*%
X89826900Y-92043200D02*
X88226900Y-92043200D01*
X89826900Y-91243200D02*
X89826900Y-92043200D01*
X88226900Y-91243200D02*
X89826900Y-91243200D01*
X88226900Y-92043200D02*
X88226900Y-91243200D01*
%TO.C,R10*%
X63017500Y-90849500D02*
X64617500Y-90849500D01*
X63017500Y-91649500D02*
X63017500Y-90849500D01*
X64617500Y-91649500D02*
X63017500Y-91649500D01*
X64617500Y-90849500D02*
X64617500Y-91649500D01*
%TO.C,R14*%
X69812000Y-101758800D02*
X71412000Y-101758800D01*
X69812000Y-102558800D02*
X69812000Y-101758800D01*
X71412000Y-102558800D02*
X69812000Y-102558800D01*
X71412000Y-101758800D02*
X71412000Y-102558800D01*
%TO.C,R4*%
X87109200Y-110509000D02*
X85509200Y-110509000D01*
X87109200Y-109709000D02*
X87109200Y-110509000D01*
X85509200Y-109709000D02*
X87109200Y-109709000D01*
X85509200Y-110509000D02*
X85509200Y-109709000D01*
%TO.C,R15*%
X66725900Y-107042000D02*
X68325900Y-107042000D01*
X66725900Y-107842000D02*
X66725900Y-107042000D01*
X68325900Y-107842000D02*
X66725900Y-107842000D01*
X68325900Y-107042000D02*
X68325900Y-107842000D01*
%TO.C,R13*%
X68364000Y-111906000D02*
X66764000Y-111906000D01*
X68364000Y-111106000D02*
X68364000Y-111906000D01*
X66764000Y-111106000D02*
X68364000Y-111106000D01*
X66764000Y-111906000D02*
X66764000Y-111106000D01*
%TO.C,Q1*%
X64451000Y-95436500D02*
X65851000Y-95436500D01*
X65851000Y-92396500D02*
X65851000Y-95436500D01*
X64451000Y-92966500D02*
X65001000Y-92396500D01*
X65001000Y-92396500D02*
X65851000Y-92396500D01*
X64451000Y-92966500D02*
X64451000Y-95416500D01*
%TO.C,D1*%
X68767200Y-110124800D02*
X68767200Y-108924800D01*
X66767200Y-110124800D02*
X68767200Y-110124800D01*
X66767200Y-109224800D02*
X66767200Y-110124800D01*
X67067200Y-108924800D02*
X66767200Y-109224800D01*
X68767200Y-108924800D02*
X67067200Y-108924800D01*
%TO.C,C4*%
X65551000Y-101371500D02*
X65551000Y-102971500D01*
X64751000Y-101371500D02*
X65551000Y-101371500D01*
X64751000Y-102971500D02*
X64751000Y-101371500D01*
X65551000Y-102971500D02*
X64751000Y-102971500D01*
%TO.C,C3*%
X74523400Y-107842000D02*
X72923400Y-107842000D01*
X74523400Y-107042000D02*
X74523400Y-107842000D01*
X72923400Y-107042000D02*
X74523400Y-107042000D01*
X72923400Y-107842000D02*
X72923400Y-107042000D01*
%TO.C,C2*%
X71437400Y-107842000D02*
X69837400Y-107842000D01*
X71437400Y-107042000D02*
X71437400Y-107842000D01*
X69837400Y-107042000D02*
X71437400Y-107042000D01*
X69837400Y-107842000D02*
X69837400Y-107042000D01*
%TO.C,C1*%
X71437300Y-113379200D02*
X69837300Y-113379200D01*
X71437300Y-112579200D02*
X71437300Y-113379200D01*
X69837300Y-112579200D02*
X71437300Y-112579200D01*
X69837300Y-113379200D02*
X69837300Y-112579200D01*
%TO.C,R9*%
X62522100Y-111106000D02*
X64122100Y-111106000D01*
X62522100Y-111906000D02*
X62522100Y-111106000D01*
X64122100Y-111906000D02*
X62522100Y-111906000D01*
X64122100Y-111106000D02*
X64122100Y-111906000D01*
%TO.C,R8*%
X88709600Y-109683600D02*
X90309600Y-109683600D01*
X88709600Y-110483600D02*
X88709600Y-109683600D01*
X90309600Y-110483600D02*
X88709600Y-110483600D01*
X90309600Y-109683600D02*
X90309600Y-110483600D01*
D12*
%TO.C,U7*%
X94286000Y-95100000D02*
X94286000Y-108100000D01*
X76336000Y-95100000D02*
X76336000Y-108100000D01*
X94286000Y-95100000D02*
X76336000Y-95100000D01*
X94286000Y-108100000D02*
X76336000Y-108100000D01*
%TD*%
%TO.C,J1*%
D10*
X58773452Y-98750071D02*
X58749642Y-98773880D01*
X58678214Y-98797690D01*
X58630595Y-98797690D01*
X58559166Y-98773880D01*
X58511547Y-98726261D01*
X58487738Y-98678642D01*
X58463928Y-98583404D01*
X58463928Y-98511976D01*
X58487738Y-98416738D01*
X58511547Y-98369119D01*
X58559166Y-98321500D01*
X58630595Y-98297690D01*
X58678214Y-98297690D01*
X58749642Y-98321500D01*
X58773452Y-98345309D01*
X59059166Y-98797690D02*
X59011547Y-98773880D01*
X58987738Y-98750071D01*
X58963928Y-98702452D01*
X58963928Y-98559595D01*
X58987738Y-98511976D01*
X59011547Y-98488166D01*
X59059166Y-98464357D01*
X59130595Y-98464357D01*
X59178214Y-98488166D01*
X59202023Y-98511976D01*
X59225833Y-98559595D01*
X59225833Y-98702452D01*
X59202023Y-98750071D01*
X59178214Y-98773880D01*
X59130595Y-98797690D01*
X59059166Y-98797690D01*
X59440119Y-98464357D02*
X59440119Y-98797690D01*
X59440119Y-98511976D02*
X59463928Y-98488166D01*
X59511547Y-98464357D01*
X59582976Y-98464357D01*
X59630595Y-98488166D01*
X59654404Y-98535785D01*
X59654404Y-98797690D01*
X59892500Y-98464357D02*
X59892500Y-98797690D01*
X59892500Y-98511976D02*
X59916309Y-98488166D01*
X59963928Y-98464357D01*
X60035357Y-98464357D01*
X60082976Y-98488166D01*
X60106785Y-98535785D01*
X60106785Y-98797690D01*
X60225833Y-98845309D02*
X60606785Y-98845309D01*
X60821071Y-98297690D02*
X60868690Y-98297690D01*
X60916309Y-98321500D01*
X60940119Y-98345309D01*
X60963928Y-98392928D01*
X60987738Y-98488166D01*
X60987738Y-98607214D01*
X60963928Y-98702452D01*
X60940119Y-98750071D01*
X60916309Y-98773880D01*
X60868690Y-98797690D01*
X60821071Y-98797690D01*
X60773452Y-98773880D01*
X60749642Y-98750071D01*
X60725833Y-98702452D01*
X60702023Y-98607214D01*
X60702023Y-98488166D01*
X60725833Y-98392928D01*
X60749642Y-98345309D01*
X60773452Y-98321500D01*
X60821071Y-98297690D01*
X61463928Y-98797690D02*
X61178214Y-98797690D01*
X61321071Y-98797690D02*
X61321071Y-98297690D01*
X61273452Y-98369119D01*
X61225833Y-98416738D01*
X61178214Y-98440547D01*
X61630595Y-98797690D02*
X61892500Y-98464357D01*
X61630595Y-98464357D02*
X61892500Y-98797690D01*
X62178214Y-98297690D02*
X62225833Y-98297690D01*
X62273452Y-98321500D01*
X62297261Y-98345309D01*
X62321071Y-98392928D01*
X62344880Y-98488166D01*
X62344880Y-98607214D01*
X62321071Y-98702452D01*
X62297261Y-98750071D01*
X62273452Y-98773880D01*
X62225833Y-98797690D01*
X62178214Y-98797690D01*
X62130595Y-98773880D01*
X62106785Y-98750071D01*
X62082976Y-98702452D01*
X62059166Y-98607214D01*
X62059166Y-98488166D01*
X62082976Y-98392928D01*
X62106785Y-98345309D01*
X62130595Y-98321500D01*
X62178214Y-98297690D01*
X62535357Y-98345309D02*
X62559166Y-98321500D01*
X62606785Y-98297690D01*
X62725833Y-98297690D01*
X62773452Y-98321500D01*
X62797261Y-98345309D01*
X62821071Y-98392928D01*
X62821071Y-98440547D01*
X62797261Y-98511976D01*
X62511547Y-98797690D01*
X62821071Y-98797690D01*
X60368690Y-102338166D02*
X60725833Y-102338166D01*
X60797261Y-102361976D01*
X60844880Y-102409595D01*
X60868690Y-102481023D01*
X60868690Y-102528642D01*
X60868690Y-101838166D02*
X60868690Y-102123880D01*
X60868690Y-101981023D02*
X60368690Y-101981023D01*
X60440119Y-102028642D01*
X60487738Y-102076261D01*
X60511547Y-102123880D01*
%TO.C,R1*%
X64770047Y-94863809D02*
X64793857Y-94840000D01*
X64841476Y-94816190D01*
X64960523Y-94816190D01*
X65008142Y-94840000D01*
X65031952Y-94863809D01*
X65055761Y-94911428D01*
X65055761Y-94959047D01*
X65031952Y-95030476D01*
X64746238Y-95316190D01*
X65055761Y-95316190D01*
X65246238Y-94863809D02*
X65270047Y-94840000D01*
X65317666Y-94816190D01*
X65436714Y-94816190D01*
X65484333Y-94840000D01*
X65508142Y-94863809D01*
X65531952Y-94911428D01*
X65531952Y-94959047D01*
X65508142Y-95030476D01*
X65222428Y-95316190D01*
X65531952Y-95316190D01*
X65067666Y-96746190D02*
X64901000Y-96508095D01*
X64781952Y-96746190D02*
X64781952Y-96246190D01*
X64972428Y-96246190D01*
X65020047Y-96270000D01*
X65043857Y-96293809D01*
X65067666Y-96341428D01*
X65067666Y-96412857D01*
X65043857Y-96460476D01*
X65020047Y-96484285D01*
X64972428Y-96508095D01*
X64781952Y-96508095D01*
X65543857Y-96746190D02*
X65258142Y-96746190D01*
X65401000Y-96746190D02*
X65401000Y-96246190D01*
X65353380Y-96317619D01*
X65305761Y-96365238D01*
X65258142Y-96389047D01*
%TO.C,U2*%
X80397928Y-89880285D02*
X80469357Y-89904095D01*
X80493166Y-89927904D01*
X80516976Y-89975523D01*
X80516976Y-90046952D01*
X80493166Y-90094571D01*
X80469357Y-90118380D01*
X80421738Y-90142190D01*
X80231261Y-90142190D01*
X80231261Y-89642190D01*
X80397928Y-89642190D01*
X80445547Y-89666000D01*
X80469357Y-89689809D01*
X80493166Y-89737428D01*
X80493166Y-89785047D01*
X80469357Y-89832666D01*
X80445547Y-89856476D01*
X80397928Y-89880285D01*
X80231261Y-89880285D01*
X80731261Y-90142190D02*
X80731261Y-89642190D01*
X80897928Y-89999333D01*
X81064595Y-89642190D01*
X81064595Y-90142190D01*
X81278880Y-89999333D02*
X81516976Y-89999333D01*
X81231261Y-90142190D02*
X81397928Y-89642190D01*
X81564595Y-90142190D01*
X81945547Y-89808857D02*
X81945547Y-90142190D01*
X81826500Y-89618380D02*
X81707452Y-89975523D01*
X82016976Y-89975523D01*
X82302690Y-89642190D02*
X82350309Y-89642190D01*
X82397928Y-89666000D01*
X82421738Y-89689809D01*
X82445547Y-89737428D01*
X82469357Y-89832666D01*
X82469357Y-89951714D01*
X82445547Y-90046952D01*
X82421738Y-90094571D01*
X82397928Y-90118380D01*
X82350309Y-90142190D01*
X82302690Y-90142190D01*
X82255071Y-90118380D01*
X82231261Y-90094571D01*
X82207452Y-90046952D01*
X82183642Y-89951714D01*
X82183642Y-89832666D01*
X82207452Y-89737428D01*
X82231261Y-89689809D01*
X82255071Y-89666000D01*
X82302690Y-89642190D01*
X82778880Y-89642190D02*
X82826500Y-89642190D01*
X82874119Y-89666000D01*
X82897928Y-89689809D01*
X82921738Y-89737428D01*
X82945547Y-89832666D01*
X82945547Y-89951714D01*
X82921738Y-90046952D01*
X82897928Y-90094571D01*
X82874119Y-90118380D01*
X82826500Y-90142190D01*
X82778880Y-90142190D01*
X82731261Y-90118380D01*
X82707452Y-90094571D01*
X82683642Y-90046952D01*
X82659833Y-89951714D01*
X82659833Y-89832666D01*
X82683642Y-89737428D01*
X82707452Y-89689809D01*
X82731261Y-89666000D01*
X82778880Y-89642190D01*
X81387190Y-92011452D02*
X81791952Y-92011452D01*
X81839571Y-91987642D01*
X81863380Y-91963833D01*
X81887190Y-91916214D01*
X81887190Y-91820976D01*
X81863380Y-91773357D01*
X81839571Y-91749547D01*
X81791952Y-91725738D01*
X81387190Y-91725738D01*
X81434809Y-91511452D02*
X81411000Y-91487642D01*
X81387190Y-91440023D01*
X81387190Y-91320976D01*
X81411000Y-91273357D01*
X81434809Y-91249547D01*
X81482428Y-91225738D01*
X81530047Y-91225738D01*
X81601476Y-91249547D01*
X81887190Y-91535261D01*
X81887190Y-91225738D01*
%TO.C,U5*%
X74857142Y-121729190D02*
X74857142Y-122133952D01*
X74880952Y-122181571D01*
X74904761Y-122205380D01*
X74952380Y-122229190D01*
X75047619Y-122229190D01*
X75095238Y-122205380D01*
X75119047Y-122181571D01*
X75142857Y-122133952D01*
X75142857Y-121729190D01*
X75357142Y-122205380D02*
X75428571Y-122229190D01*
X75547619Y-122229190D01*
X75595238Y-122205380D01*
X75619047Y-122181571D01*
X75642857Y-122133952D01*
X75642857Y-122086333D01*
X75619047Y-122038714D01*
X75595238Y-122014904D01*
X75547619Y-121991095D01*
X75452380Y-121967285D01*
X75404761Y-121943476D01*
X75380952Y-121919666D01*
X75357142Y-121872047D01*
X75357142Y-121824428D01*
X75380952Y-121776809D01*
X75404761Y-121753000D01*
X75452380Y-121729190D01*
X75571428Y-121729190D01*
X75642857Y-121753000D01*
X76023809Y-121967285D02*
X76095238Y-121991095D01*
X76119047Y-122014904D01*
X76142857Y-122062523D01*
X76142857Y-122133952D01*
X76119047Y-122181571D01*
X76095238Y-122205380D01*
X76047619Y-122229190D01*
X75857142Y-122229190D01*
X75857142Y-121729190D01*
X76023809Y-121729190D01*
X76071428Y-121753000D01*
X76095238Y-121776809D01*
X76119047Y-121824428D01*
X76119047Y-121872047D01*
X76095238Y-121919666D01*
X76071428Y-121943476D01*
X76023809Y-121967285D01*
X75857142Y-121967285D01*
X76357142Y-122038714D02*
X76738095Y-122038714D01*
X77071428Y-121729190D02*
X77166666Y-121729190D01*
X77214285Y-121753000D01*
X77261904Y-121800619D01*
X77285714Y-121895857D01*
X77285714Y-122062523D01*
X77261904Y-122157761D01*
X77214285Y-122205380D01*
X77166666Y-122229190D01*
X77071428Y-122229190D01*
X77023809Y-122205380D01*
X76976190Y-122157761D01*
X76952380Y-122062523D01*
X76952380Y-121895857D01*
X76976190Y-121800619D01*
X77023809Y-121753000D01*
X77071428Y-121729190D01*
X77428571Y-121729190D02*
X77714285Y-121729190D01*
X77571428Y-122229190D02*
X77571428Y-121729190D01*
X78142857Y-121753000D02*
X78095238Y-121729190D01*
X78023809Y-121729190D01*
X77952380Y-121753000D01*
X77904761Y-121800619D01*
X77880952Y-121848238D01*
X77857142Y-121943476D01*
X77857142Y-122014904D01*
X77880952Y-122110142D01*
X77904761Y-122157761D01*
X77952380Y-122205380D01*
X78023809Y-122229190D01*
X78071428Y-122229190D01*
X78142857Y-122205380D01*
X78166666Y-122181571D01*
X78166666Y-122014904D01*
X78071428Y-122014904D01*
X75819047Y-118279190D02*
X75819047Y-118683952D01*
X75842857Y-118731571D01*
X75866666Y-118755380D01*
X75914285Y-118779190D01*
X76009523Y-118779190D01*
X76057142Y-118755380D01*
X76080952Y-118731571D01*
X76104761Y-118683952D01*
X76104761Y-118279190D01*
X76580952Y-118279190D02*
X76342857Y-118279190D01*
X76319047Y-118517285D01*
X76342857Y-118493476D01*
X76390476Y-118469666D01*
X76509523Y-118469666D01*
X76557142Y-118493476D01*
X76580952Y-118517285D01*
X76604761Y-118564904D01*
X76604761Y-118683952D01*
X76580952Y-118731571D01*
X76557142Y-118755380D01*
X76509523Y-118779190D01*
X76390476Y-118779190D01*
X76342857Y-118755380D01*
X76319047Y-118731571D01*
%TO.C,SW2*%
X86054451Y-84092733D02*
X86101388Y-84151604D01*
X86201230Y-84216442D01*
X86254134Y-84222409D01*
X86287070Y-84215409D01*
X86332974Y-84188439D01*
X86358909Y-84148503D01*
X86364876Y-84095598D01*
X86357875Y-84062662D01*
X86330906Y-84016759D01*
X86264000Y-83944920D01*
X86237031Y-83899017D01*
X86230030Y-83866081D01*
X86235997Y-83813176D01*
X86261932Y-83773240D01*
X86307836Y-83746271D01*
X86340772Y-83739270D01*
X86393676Y-83745237D01*
X86493518Y-83810075D01*
X86540455Y-83868946D01*
X86693201Y-83939751D02*
X86520723Y-84423924D01*
X86795111Y-84176269D01*
X86680470Y-84527665D01*
X87052631Y-84173167D01*
X86814282Y-84671342D02*
X87133775Y-84878824D01*
X87259552Y-84903725D02*
X87531872Y-84484390D01*
X87691619Y-84588130D01*
X87718588Y-84634034D01*
X87725588Y-84666970D01*
X87719622Y-84719874D01*
X87680719Y-84779779D01*
X87634815Y-84806748D01*
X87601879Y-84813749D01*
X87548975Y-84807782D01*
X87389228Y-84704042D01*
X88040149Y-85013196D02*
X87858603Y-85292753D01*
X87860434Y-84896488D02*
X87717790Y-85116139D01*
X87711824Y-85169044D01*
X87738793Y-85214947D01*
X87798698Y-85253850D01*
X87851602Y-85259817D01*
X87884538Y-85252816D01*
X88051285Y-85389493D02*
X88078255Y-85435396D01*
X88158128Y-85487267D01*
X88211032Y-85493234D01*
X88256936Y-85466265D01*
X88269903Y-85446296D01*
X88275870Y-85393392D01*
X88248901Y-85347488D01*
X88188996Y-85308586D01*
X88162027Y-85262682D01*
X88167994Y-85209778D01*
X88180961Y-85189809D01*
X88226865Y-85162840D01*
X88279769Y-85168807D01*
X88339674Y-85207710D01*
X88366643Y-85253614D01*
X88397748Y-85642878D02*
X88670068Y-85223543D01*
X88577463Y-85759586D02*
X88720107Y-85539935D01*
X88726074Y-85487030D01*
X88699104Y-85441127D01*
X88639199Y-85402224D01*
X88586295Y-85396257D01*
X88553359Y-85403258D01*
%TO.C,SW1*%
X63690625Y-85836444D02*
X63763498Y-85817509D01*
X63863339Y-85752671D01*
X63890308Y-85706768D01*
X63897309Y-85673832D01*
X63891342Y-85620927D01*
X63865407Y-85580991D01*
X63819504Y-85554022D01*
X63786568Y-85547021D01*
X63733663Y-85552988D01*
X63640822Y-85584890D01*
X63587918Y-85590857D01*
X63554982Y-85583856D01*
X63509079Y-85556887D01*
X63483143Y-85516950D01*
X63477176Y-85464046D01*
X63484177Y-85431110D01*
X63511146Y-85385206D01*
X63610988Y-85320368D01*
X63683861Y-85301434D01*
X63810672Y-85190692D02*
X64182833Y-85545190D01*
X64068192Y-85193794D01*
X64342580Y-85441449D01*
X64170102Y-84957276D01*
X64528262Y-85377645D02*
X64847755Y-85170163D01*
X64921662Y-85065389D02*
X64649342Y-84646053D01*
X64809089Y-84542313D01*
X64861993Y-84536346D01*
X64894929Y-84543346D01*
X64940833Y-84570316D01*
X64979735Y-84630221D01*
X64985702Y-84683125D01*
X64978702Y-84716061D01*
X64951732Y-84761964D01*
X64791986Y-84865705D01*
X65339166Y-84396804D02*
X65520712Y-84676361D01*
X65159451Y-84513512D02*
X65302094Y-84733164D01*
X65347998Y-84760133D01*
X65400902Y-84754166D01*
X65460807Y-84715263D01*
X65487776Y-84669360D01*
X65494777Y-84636424D01*
X65687460Y-84539684D02*
X65740364Y-84533717D01*
X65820237Y-84481847D01*
X65847206Y-84435943D01*
X65841239Y-84383039D01*
X65828272Y-84363071D01*
X65782368Y-84336101D01*
X65729464Y-84342068D01*
X65669559Y-84380971D01*
X65616655Y-84386938D01*
X65570751Y-84359969D01*
X65557784Y-84340001D01*
X65551817Y-84287096D01*
X65578786Y-84241193D01*
X65638691Y-84202290D01*
X65691595Y-84196323D01*
X66059857Y-84326236D02*
X65787538Y-83906900D01*
X66239573Y-84209527D02*
X66096929Y-83989875D01*
X66051025Y-83962906D01*
X65998121Y-83968873D01*
X65938216Y-84007776D01*
X65911247Y-84053680D01*
X65904246Y-84086615D01*
%TO.C,SW5*%
X70910250Y-119724964D02*
X70969121Y-119678027D01*
X71033959Y-119578185D01*
X71039926Y-119525281D01*
X71032926Y-119492345D01*
X71005956Y-119446441D01*
X70966020Y-119420506D01*
X70913115Y-119414539D01*
X70880179Y-119421540D01*
X70834276Y-119448509D01*
X70762437Y-119515415D01*
X70716534Y-119542384D01*
X70683598Y-119549385D01*
X70630693Y-119543418D01*
X70590757Y-119517483D01*
X70563788Y-119471579D01*
X70556787Y-119438643D01*
X70562754Y-119385739D01*
X70627592Y-119285897D01*
X70686463Y-119238960D01*
X70757268Y-119086214D02*
X71241441Y-119258692D01*
X70993786Y-118984304D01*
X71345182Y-119098945D01*
X70990684Y-118726784D01*
X71488859Y-118965133D02*
X71696341Y-118645640D01*
X71721242Y-118519863D02*
X71301907Y-118247543D01*
X71405647Y-118087796D01*
X71451551Y-118060827D01*
X71484487Y-118053827D01*
X71537391Y-118059793D01*
X71597296Y-118098696D01*
X71624265Y-118144600D01*
X71631266Y-118177536D01*
X71625299Y-118230440D01*
X71521559Y-118390187D01*
X71830713Y-117739266D02*
X72110270Y-117920812D01*
X71714005Y-117918981D02*
X71933656Y-118061625D01*
X71986561Y-118067591D01*
X72032464Y-118040622D01*
X72071367Y-117980717D01*
X72077334Y-117927813D01*
X72070333Y-117894877D01*
X72207010Y-117728130D02*
X72252913Y-117701160D01*
X72304784Y-117621287D01*
X72310751Y-117568383D01*
X72283782Y-117522479D01*
X72263813Y-117509512D01*
X72210909Y-117503545D01*
X72165005Y-117530514D01*
X72126103Y-117590419D01*
X72080199Y-117617388D01*
X72027295Y-117611421D01*
X72007326Y-117598454D01*
X71980357Y-117552550D01*
X71986324Y-117499646D01*
X72025227Y-117439741D01*
X72071131Y-117412772D01*
X72460395Y-117381667D02*
X72041060Y-117109347D01*
X72577103Y-117201952D02*
X72357452Y-117059308D01*
X72304547Y-117053341D01*
X72258644Y-117080311D01*
X72219741Y-117140216D01*
X72213774Y-117193120D01*
X72220775Y-117226056D01*
%TO.C,SW4*%
X85873951Y-119354143D02*
X85946824Y-119335208D01*
X86046665Y-119270370D01*
X86073634Y-119224467D01*
X86080635Y-119191531D01*
X86074668Y-119138626D01*
X86048733Y-119098690D01*
X86002830Y-119071721D01*
X85969894Y-119064720D01*
X85916989Y-119070687D01*
X85824148Y-119102589D01*
X85771244Y-119108556D01*
X85738308Y-119101555D01*
X85692405Y-119074586D01*
X85666469Y-119034649D01*
X85660502Y-118981745D01*
X85667503Y-118948809D01*
X85694472Y-118902905D01*
X85794314Y-118838067D01*
X85867187Y-118819133D01*
X85993998Y-118708391D02*
X86366159Y-119062889D01*
X86251518Y-118711493D01*
X86525906Y-118959148D01*
X86353428Y-118474975D01*
X86711588Y-118895344D02*
X87031081Y-118687862D01*
X87104988Y-118583088D02*
X86832668Y-118163752D01*
X86992415Y-118060012D01*
X87045319Y-118054045D01*
X87078255Y-118061045D01*
X87124159Y-118088015D01*
X87163061Y-118147920D01*
X87169028Y-118200824D01*
X87162028Y-118233760D01*
X87135058Y-118279663D01*
X86975312Y-118383404D01*
X87522492Y-117914503D02*
X87704038Y-118194060D01*
X87342777Y-118031211D02*
X87485420Y-118250863D01*
X87531324Y-118277832D01*
X87584228Y-118271865D01*
X87644133Y-118232962D01*
X87671102Y-118187059D01*
X87678103Y-118154123D01*
X87870786Y-118057383D02*
X87923690Y-118051416D01*
X88003563Y-117999546D01*
X88030532Y-117953642D01*
X88024565Y-117900738D01*
X88011598Y-117880770D01*
X87965694Y-117853800D01*
X87912790Y-117859767D01*
X87852885Y-117898670D01*
X87799981Y-117904637D01*
X87754077Y-117877668D01*
X87741110Y-117857700D01*
X87735143Y-117804795D01*
X87762112Y-117758892D01*
X87822017Y-117719989D01*
X87874921Y-117714022D01*
X88243183Y-117843935D02*
X87970864Y-117424599D01*
X88422899Y-117727226D02*
X88280255Y-117507574D01*
X88234351Y-117480605D01*
X88181447Y-117486572D01*
X88121542Y-117525475D01*
X88094573Y-117571379D01*
X88087572Y-117604314D01*
%TO.C,R18*%
X69908309Y-89967500D02*
X69884500Y-89943690D01*
X69860690Y-89896071D01*
X69860690Y-89777023D01*
X69884500Y-89729404D01*
X69908309Y-89705595D01*
X69955928Y-89681785D01*
X70003547Y-89681785D01*
X70074976Y-89705595D01*
X70360690Y-89991309D01*
X70360690Y-89681785D01*
X70313071Y-89467500D02*
X70336880Y-89443690D01*
X70360690Y-89467500D01*
X70336880Y-89491309D01*
X70313071Y-89467500D01*
X70360690Y-89467500D01*
X69908309Y-89253214D02*
X69884500Y-89229404D01*
X69860690Y-89181785D01*
X69860690Y-89062738D01*
X69884500Y-89015119D01*
X69908309Y-88991309D01*
X69955928Y-88967500D01*
X70003547Y-88967500D01*
X70074976Y-88991309D01*
X70360690Y-89277023D01*
X70360690Y-88967500D01*
X70360690Y-88753214D02*
X69860690Y-88753214D01*
X70360690Y-88467500D02*
X70074976Y-88681785D01*
X69860690Y-88467500D02*
X70146404Y-88753214D01*
X71790690Y-89538928D02*
X71552595Y-89705595D01*
X71790690Y-89824642D02*
X71290690Y-89824642D01*
X71290690Y-89634166D01*
X71314500Y-89586547D01*
X71338309Y-89562738D01*
X71385928Y-89538928D01*
X71457357Y-89538928D01*
X71504976Y-89562738D01*
X71528785Y-89586547D01*
X71552595Y-89634166D01*
X71552595Y-89824642D01*
X71790690Y-89062738D02*
X71790690Y-89348452D01*
X71790690Y-89205595D02*
X71290690Y-89205595D01*
X71362119Y-89253214D01*
X71409738Y-89300833D01*
X71433547Y-89348452D01*
X71504976Y-88777023D02*
X71481166Y-88824642D01*
X71457357Y-88848452D01*
X71409738Y-88872261D01*
X71385928Y-88872261D01*
X71338309Y-88848452D01*
X71314500Y-88824642D01*
X71290690Y-88777023D01*
X71290690Y-88681785D01*
X71314500Y-88634166D01*
X71338309Y-88610357D01*
X71385928Y-88586547D01*
X71409738Y-88586547D01*
X71457357Y-88610357D01*
X71481166Y-88634166D01*
X71504976Y-88681785D01*
X71504976Y-88777023D01*
X71528785Y-88824642D01*
X71552595Y-88848452D01*
X71600214Y-88872261D01*
X71695452Y-88872261D01*
X71743071Y-88848452D01*
X71766880Y-88824642D01*
X71790690Y-88777023D01*
X71790690Y-88681785D01*
X71766880Y-88634166D01*
X71743071Y-88610357D01*
X71695452Y-88586547D01*
X71600214Y-88586547D01*
X71552595Y-88610357D01*
X71528785Y-88634166D01*
X71504976Y-88681785D01*
%TO.C,C11*%
X72720690Y-86713142D02*
X72720690Y-86665523D01*
X72744500Y-86617904D01*
X72768309Y-86594095D01*
X72815928Y-86570285D01*
X72911166Y-86546476D01*
X73030214Y-86546476D01*
X73125452Y-86570285D01*
X73173071Y-86594095D01*
X73196880Y-86617904D01*
X73220690Y-86665523D01*
X73220690Y-86713142D01*
X73196880Y-86760761D01*
X73173071Y-86784571D01*
X73125452Y-86808380D01*
X73030214Y-86832190D01*
X72911166Y-86832190D01*
X72815928Y-86808380D01*
X72768309Y-86784571D01*
X72744500Y-86760761D01*
X72720690Y-86713142D01*
X73173071Y-86332190D02*
X73196880Y-86308380D01*
X73220690Y-86332190D01*
X73196880Y-86356000D01*
X73173071Y-86332190D01*
X73220690Y-86332190D01*
X73220690Y-85832190D02*
X73220690Y-86117904D01*
X73220690Y-85975047D02*
X72720690Y-85975047D01*
X72792119Y-86022666D01*
X72839738Y-86070285D01*
X72863547Y-86117904D01*
X72887357Y-85403619D02*
X73220690Y-85403619D01*
X72887357Y-85617904D02*
X73149261Y-85617904D01*
X73196880Y-85594095D01*
X73220690Y-85546476D01*
X73220690Y-85475047D01*
X73196880Y-85427428D01*
X73173071Y-85403619D01*
X71743071Y-86427428D02*
X71766880Y-86451238D01*
X71790690Y-86522666D01*
X71790690Y-86570285D01*
X71766880Y-86641714D01*
X71719261Y-86689333D01*
X71671642Y-86713142D01*
X71576404Y-86736952D01*
X71504976Y-86736952D01*
X71409738Y-86713142D01*
X71362119Y-86689333D01*
X71314500Y-86641714D01*
X71290690Y-86570285D01*
X71290690Y-86522666D01*
X71314500Y-86451238D01*
X71338309Y-86427428D01*
X71790690Y-85951238D02*
X71790690Y-86236952D01*
X71790690Y-86094095D02*
X71290690Y-86094095D01*
X71362119Y-86141714D01*
X71409738Y-86189333D01*
X71433547Y-86236952D01*
X71790690Y-85475047D02*
X71790690Y-85760761D01*
X71790690Y-85617904D02*
X71290690Y-85617904D01*
X71362119Y-85665523D01*
X71409738Y-85713142D01*
X71433547Y-85760761D01*
%TO.C,C22*%
X64543857Y-96403690D02*
X64591476Y-96403690D01*
X64639095Y-96427500D01*
X64662904Y-96451309D01*
X64686714Y-96498928D01*
X64710523Y-96594166D01*
X64710523Y-96713214D01*
X64686714Y-96808452D01*
X64662904Y-96856071D01*
X64639095Y-96879880D01*
X64591476Y-96903690D01*
X64543857Y-96903690D01*
X64496238Y-96879880D01*
X64472428Y-96856071D01*
X64448619Y-96808452D01*
X64424809Y-96713214D01*
X64424809Y-96594166D01*
X64448619Y-96498928D01*
X64472428Y-96451309D01*
X64496238Y-96427500D01*
X64543857Y-96403690D01*
X64924809Y-96856071D02*
X64948619Y-96879880D01*
X64924809Y-96903690D01*
X64901000Y-96879880D01*
X64924809Y-96856071D01*
X64924809Y-96903690D01*
X65424809Y-96903690D02*
X65139095Y-96903690D01*
X65281952Y-96903690D02*
X65281952Y-96403690D01*
X65234333Y-96475119D01*
X65186714Y-96522738D01*
X65139095Y-96546547D01*
X65853380Y-96570357D02*
X65853380Y-96903690D01*
X65639095Y-96570357D02*
X65639095Y-96832261D01*
X65662904Y-96879880D01*
X65710523Y-96903690D01*
X65781952Y-96903690D01*
X65829571Y-96879880D01*
X65853380Y-96856071D01*
X64829571Y-98286071D02*
X64805761Y-98309880D01*
X64734333Y-98333690D01*
X64686714Y-98333690D01*
X64615285Y-98309880D01*
X64567666Y-98262261D01*
X64543857Y-98214642D01*
X64520047Y-98119404D01*
X64520047Y-98047976D01*
X64543857Y-97952738D01*
X64567666Y-97905119D01*
X64615285Y-97857500D01*
X64686714Y-97833690D01*
X64734333Y-97833690D01*
X64805761Y-97857500D01*
X64829571Y-97881309D01*
X65020047Y-97881309D02*
X65043857Y-97857500D01*
X65091476Y-97833690D01*
X65210523Y-97833690D01*
X65258142Y-97857500D01*
X65281952Y-97881309D01*
X65305761Y-97928928D01*
X65305761Y-97976547D01*
X65281952Y-98047976D01*
X64996238Y-98333690D01*
X65305761Y-98333690D01*
X65496238Y-97881309D02*
X65520047Y-97857500D01*
X65567666Y-97833690D01*
X65686714Y-97833690D01*
X65734333Y-97857500D01*
X65758142Y-97881309D01*
X65781952Y-97928928D01*
X65781952Y-97976547D01*
X65758142Y-98047976D01*
X65472428Y-98333690D01*
X65781952Y-98333690D01*
%TO.C,U13*%
X71409390Y-96873047D02*
X71909390Y-96539714D01*
X71409390Y-96539714D02*
X71909390Y-96873047D01*
X71861771Y-96063523D02*
X71885580Y-96087333D01*
X71909390Y-96158761D01*
X71909390Y-96206380D01*
X71885580Y-96277809D01*
X71837961Y-96325428D01*
X71790342Y-96349238D01*
X71695104Y-96373047D01*
X71623676Y-96373047D01*
X71528438Y-96349238D01*
X71480819Y-96325428D01*
X71433200Y-96277809D01*
X71409390Y-96206380D01*
X71409390Y-96158761D01*
X71433200Y-96087333D01*
X71457009Y-96063523D01*
X71409390Y-95634952D02*
X71409390Y-95730190D01*
X71433200Y-95777809D01*
X71457009Y-95801619D01*
X71528438Y-95849238D01*
X71623676Y-95873047D01*
X71814152Y-95873047D01*
X71861771Y-95849238D01*
X71885580Y-95825428D01*
X71909390Y-95777809D01*
X71909390Y-95682571D01*
X71885580Y-95634952D01*
X71861771Y-95611142D01*
X71814152Y-95587333D01*
X71695104Y-95587333D01*
X71647485Y-95611142D01*
X71623676Y-95634952D01*
X71599866Y-95682571D01*
X71599866Y-95777809D01*
X71623676Y-95825428D01*
X71647485Y-95849238D01*
X71695104Y-95873047D01*
X71457009Y-95396857D02*
X71433200Y-95373047D01*
X71409390Y-95325428D01*
X71409390Y-95206380D01*
X71433200Y-95158761D01*
X71457009Y-95134952D01*
X71504628Y-95111142D01*
X71552247Y-95111142D01*
X71623676Y-95134952D01*
X71909390Y-95420666D01*
X71909390Y-95111142D01*
X71409390Y-94801619D02*
X71409390Y-94754000D01*
X71433200Y-94706380D01*
X71457009Y-94682571D01*
X71504628Y-94658761D01*
X71599866Y-94634952D01*
X71718914Y-94634952D01*
X71814152Y-94658761D01*
X71861771Y-94682571D01*
X71885580Y-94706380D01*
X71909390Y-94754000D01*
X71909390Y-94801619D01*
X71885580Y-94849238D01*
X71861771Y-94873047D01*
X71814152Y-94896857D01*
X71718914Y-94920666D01*
X71599866Y-94920666D01*
X71504628Y-94896857D01*
X71457009Y-94873047D01*
X71433200Y-94849238D01*
X71409390Y-94801619D01*
X71909390Y-94396857D02*
X71909390Y-94301619D01*
X71885580Y-94254000D01*
X71861771Y-94230190D01*
X71790342Y-94182571D01*
X71695104Y-94158761D01*
X71504628Y-94158761D01*
X71457009Y-94182571D01*
X71433200Y-94206380D01*
X71409390Y-94254000D01*
X71409390Y-94349238D01*
X71433200Y-94396857D01*
X71457009Y-94420666D01*
X71504628Y-94444476D01*
X71623676Y-94444476D01*
X71671295Y-94420666D01*
X71695104Y-94396857D01*
X71718914Y-94349238D01*
X71718914Y-94254000D01*
X71695104Y-94206380D01*
X71671295Y-94182571D01*
X71623676Y-94158761D01*
X68164152Y-95230190D02*
X68164152Y-95634952D01*
X68187961Y-95682571D01*
X68211771Y-95706380D01*
X68259390Y-95730190D01*
X68354628Y-95730190D01*
X68402247Y-95706380D01*
X68426057Y-95682571D01*
X68449866Y-95634952D01*
X68449866Y-95230190D01*
X68949866Y-95730190D02*
X68664152Y-95730190D01*
X68807009Y-95730190D02*
X68807009Y-95230190D01*
X68759390Y-95301619D01*
X68711771Y-95349238D01*
X68664152Y-95373047D01*
X69116533Y-95230190D02*
X69426057Y-95230190D01*
X69259390Y-95420666D01*
X69330819Y-95420666D01*
X69378438Y-95444476D01*
X69402247Y-95468285D01*
X69426057Y-95515904D01*
X69426057Y-95634952D01*
X69402247Y-95682571D01*
X69378438Y-95706380D01*
X69330819Y-95730190D01*
X69187961Y-95730190D01*
X69140342Y-95706380D01*
X69116533Y-95682571D01*
%TO.C,U10*%
X76032190Y-96873047D02*
X76532190Y-96539714D01*
X76032190Y-96539714D02*
X76532190Y-96873047D01*
X76484571Y-96063523D02*
X76508380Y-96087333D01*
X76532190Y-96158761D01*
X76532190Y-96206380D01*
X76508380Y-96277809D01*
X76460761Y-96325428D01*
X76413142Y-96349238D01*
X76317904Y-96373047D01*
X76246476Y-96373047D01*
X76151238Y-96349238D01*
X76103619Y-96325428D01*
X76056000Y-96277809D01*
X76032190Y-96206380D01*
X76032190Y-96158761D01*
X76056000Y-96087333D01*
X76079809Y-96063523D01*
X76032190Y-95634952D02*
X76032190Y-95730190D01*
X76056000Y-95777809D01*
X76079809Y-95801619D01*
X76151238Y-95849238D01*
X76246476Y-95873047D01*
X76436952Y-95873047D01*
X76484571Y-95849238D01*
X76508380Y-95825428D01*
X76532190Y-95777809D01*
X76532190Y-95682571D01*
X76508380Y-95634952D01*
X76484571Y-95611142D01*
X76436952Y-95587333D01*
X76317904Y-95587333D01*
X76270285Y-95611142D01*
X76246476Y-95634952D01*
X76222666Y-95682571D01*
X76222666Y-95777809D01*
X76246476Y-95825428D01*
X76270285Y-95849238D01*
X76317904Y-95873047D01*
X76079809Y-95396857D02*
X76056000Y-95373047D01*
X76032190Y-95325428D01*
X76032190Y-95206380D01*
X76056000Y-95158761D01*
X76079809Y-95134952D01*
X76127428Y-95111142D01*
X76175047Y-95111142D01*
X76246476Y-95134952D01*
X76532190Y-95420666D01*
X76532190Y-95111142D01*
X76032190Y-94801619D02*
X76032190Y-94754000D01*
X76056000Y-94706380D01*
X76079809Y-94682571D01*
X76127428Y-94658761D01*
X76222666Y-94634952D01*
X76341714Y-94634952D01*
X76436952Y-94658761D01*
X76484571Y-94682571D01*
X76508380Y-94706380D01*
X76532190Y-94754000D01*
X76532190Y-94801619D01*
X76508380Y-94849238D01*
X76484571Y-94873047D01*
X76436952Y-94896857D01*
X76341714Y-94920666D01*
X76222666Y-94920666D01*
X76127428Y-94896857D01*
X76079809Y-94873047D01*
X76056000Y-94849238D01*
X76032190Y-94801619D01*
X76532190Y-94396857D02*
X76532190Y-94301619D01*
X76508380Y-94254000D01*
X76484571Y-94230190D01*
X76413142Y-94182571D01*
X76317904Y-94158761D01*
X76127428Y-94158761D01*
X76079809Y-94182571D01*
X76056000Y-94206380D01*
X76032190Y-94254000D01*
X76032190Y-94349238D01*
X76056000Y-94396857D01*
X76079809Y-94420666D01*
X76127428Y-94444476D01*
X76246476Y-94444476D01*
X76294095Y-94420666D01*
X76317904Y-94396857D01*
X76341714Y-94349238D01*
X76341714Y-94254000D01*
X76317904Y-94206380D01*
X76294095Y-94182571D01*
X76246476Y-94158761D01*
X72786952Y-95230190D02*
X72786952Y-95634952D01*
X72810761Y-95682571D01*
X72834571Y-95706380D01*
X72882190Y-95730190D01*
X72977428Y-95730190D01*
X73025047Y-95706380D01*
X73048857Y-95682571D01*
X73072666Y-95634952D01*
X73072666Y-95230190D01*
X73572666Y-95730190D02*
X73286952Y-95730190D01*
X73429809Y-95730190D02*
X73429809Y-95230190D01*
X73382190Y-95301619D01*
X73334571Y-95349238D01*
X73286952Y-95373047D01*
X73882190Y-95230190D02*
X73929809Y-95230190D01*
X73977428Y-95254000D01*
X74001238Y-95277809D01*
X74025047Y-95325428D01*
X74048857Y-95420666D01*
X74048857Y-95539714D01*
X74025047Y-95634952D01*
X74001238Y-95682571D01*
X73977428Y-95706380D01*
X73929809Y-95730190D01*
X73882190Y-95730190D01*
X73834571Y-95706380D01*
X73810761Y-95682571D01*
X73786952Y-95634952D01*
X73763142Y-95539714D01*
X73763142Y-95420666D01*
X73786952Y-95325428D01*
X73810761Y-95277809D01*
X73834571Y-95254000D01*
X73882190Y-95230190D01*
%TO.C,R22*%
X61642642Y-94617690D02*
X61356928Y-94617690D01*
X61499785Y-94617690D02*
X61499785Y-94117690D01*
X61452166Y-94189119D01*
X61404547Y-94236738D01*
X61356928Y-94260547D01*
X61856928Y-94617690D02*
X61856928Y-94117690D01*
X62023595Y-94474833D01*
X62190261Y-94117690D01*
X62190261Y-94617690D01*
X61464071Y-96047690D02*
X61297404Y-95809595D01*
X61178357Y-96047690D02*
X61178357Y-95547690D01*
X61368833Y-95547690D01*
X61416452Y-95571500D01*
X61440261Y-95595309D01*
X61464071Y-95642928D01*
X61464071Y-95714357D01*
X61440261Y-95761976D01*
X61416452Y-95785785D01*
X61368833Y-95809595D01*
X61178357Y-95809595D01*
X61654547Y-95595309D02*
X61678357Y-95571500D01*
X61725976Y-95547690D01*
X61845023Y-95547690D01*
X61892642Y-95571500D01*
X61916452Y-95595309D01*
X61940261Y-95642928D01*
X61940261Y-95690547D01*
X61916452Y-95761976D01*
X61630738Y-96047690D01*
X61940261Y-96047690D01*
X62130738Y-95595309D02*
X62154547Y-95571500D01*
X62202166Y-95547690D01*
X62321214Y-95547690D01*
X62368833Y-95571500D01*
X62392642Y-95595309D01*
X62416452Y-95642928D01*
X62416452Y-95690547D01*
X62392642Y-95761976D01*
X62106928Y-96047690D01*
X62416452Y-96047690D01*
%TO.C,R21*%
X61487880Y-95826690D02*
X61202166Y-95826690D01*
X61345023Y-95826690D02*
X61345023Y-95326690D01*
X61297404Y-95398119D01*
X61249785Y-95445738D01*
X61202166Y-95469547D01*
X61797404Y-95326690D02*
X61845023Y-95326690D01*
X61892642Y-95350500D01*
X61916452Y-95374309D01*
X61940261Y-95421928D01*
X61964071Y-95517166D01*
X61964071Y-95636214D01*
X61940261Y-95731452D01*
X61916452Y-95779071D01*
X61892642Y-95802880D01*
X61845023Y-95826690D01*
X61797404Y-95826690D01*
X61749785Y-95802880D01*
X61725976Y-95779071D01*
X61702166Y-95731452D01*
X61678357Y-95636214D01*
X61678357Y-95517166D01*
X61702166Y-95421928D01*
X61725976Y-95374309D01*
X61749785Y-95350500D01*
X61797404Y-95326690D01*
X62178357Y-95826690D02*
X62178357Y-95326690D01*
X62225976Y-95636214D02*
X62368833Y-95826690D01*
X62368833Y-95493357D02*
X62178357Y-95683833D01*
X61464071Y-94396690D02*
X61297404Y-94158595D01*
X61178357Y-94396690D02*
X61178357Y-93896690D01*
X61368833Y-93896690D01*
X61416452Y-93920500D01*
X61440261Y-93944309D01*
X61464071Y-93991928D01*
X61464071Y-94063357D01*
X61440261Y-94110976D01*
X61416452Y-94134785D01*
X61368833Y-94158595D01*
X61178357Y-94158595D01*
X61654547Y-93944309D02*
X61678357Y-93920500D01*
X61725976Y-93896690D01*
X61845023Y-93896690D01*
X61892642Y-93920500D01*
X61916452Y-93944309D01*
X61940261Y-93991928D01*
X61940261Y-94039547D01*
X61916452Y-94110976D01*
X61630738Y-94396690D01*
X61940261Y-94396690D01*
X62416452Y-94396690D02*
X62130738Y-94396690D01*
X62273595Y-94396690D02*
X62273595Y-93896690D01*
X62225976Y-93968119D01*
X62178357Y-94015738D01*
X62130738Y-94039547D01*
%TO.C,C19*%
X68582357Y-92342190D02*
X68629976Y-92342190D01*
X68677595Y-92366000D01*
X68701404Y-92389809D01*
X68725214Y-92437428D01*
X68749023Y-92532666D01*
X68749023Y-92651714D01*
X68725214Y-92746952D01*
X68701404Y-92794571D01*
X68677595Y-92818380D01*
X68629976Y-92842190D01*
X68582357Y-92842190D01*
X68534738Y-92818380D01*
X68510928Y-92794571D01*
X68487119Y-92746952D01*
X68463309Y-92651714D01*
X68463309Y-92532666D01*
X68487119Y-92437428D01*
X68510928Y-92389809D01*
X68534738Y-92366000D01*
X68582357Y-92342190D01*
X68963309Y-92794571D02*
X68987119Y-92818380D01*
X68963309Y-92842190D01*
X68939500Y-92818380D01*
X68963309Y-92794571D01*
X68963309Y-92842190D01*
X69463309Y-92842190D02*
X69177595Y-92842190D01*
X69320452Y-92842190D02*
X69320452Y-92342190D01*
X69272833Y-92413619D01*
X69225214Y-92461238D01*
X69177595Y-92485047D01*
X69891880Y-92508857D02*
X69891880Y-92842190D01*
X69677595Y-92508857D02*
X69677595Y-92770761D01*
X69701404Y-92818380D01*
X69749023Y-92842190D01*
X69820452Y-92842190D01*
X69868071Y-92818380D01*
X69891880Y-92794571D01*
X68868071Y-91364571D02*
X68844261Y-91388380D01*
X68772833Y-91412190D01*
X68725214Y-91412190D01*
X68653785Y-91388380D01*
X68606166Y-91340761D01*
X68582357Y-91293142D01*
X68558547Y-91197904D01*
X68558547Y-91126476D01*
X68582357Y-91031238D01*
X68606166Y-90983619D01*
X68653785Y-90936000D01*
X68725214Y-90912190D01*
X68772833Y-90912190D01*
X68844261Y-90936000D01*
X68868071Y-90959809D01*
X69344261Y-91412190D02*
X69058547Y-91412190D01*
X69201404Y-91412190D02*
X69201404Y-90912190D01*
X69153785Y-90983619D01*
X69106166Y-91031238D01*
X69058547Y-91055047D01*
X69582357Y-91412190D02*
X69677595Y-91412190D01*
X69725214Y-91388380D01*
X69749023Y-91364571D01*
X69796642Y-91293142D01*
X69820452Y-91197904D01*
X69820452Y-91007428D01*
X69796642Y-90959809D01*
X69772833Y-90936000D01*
X69725214Y-90912190D01*
X69629976Y-90912190D01*
X69582357Y-90936000D01*
X69558547Y-90959809D01*
X69534738Y-91007428D01*
X69534738Y-91126476D01*
X69558547Y-91174095D01*
X69582357Y-91197904D01*
X69629976Y-91221714D01*
X69725214Y-91221714D01*
X69772833Y-91197904D01*
X69796642Y-91174095D01*
X69820452Y-91126476D01*
%TO.C,C18*%
X73281457Y-92342190D02*
X73329076Y-92342190D01*
X73376695Y-92366000D01*
X73400504Y-92389809D01*
X73424314Y-92437428D01*
X73448123Y-92532666D01*
X73448123Y-92651714D01*
X73424314Y-92746952D01*
X73400504Y-92794571D01*
X73376695Y-92818380D01*
X73329076Y-92842190D01*
X73281457Y-92842190D01*
X73233838Y-92818380D01*
X73210028Y-92794571D01*
X73186219Y-92746952D01*
X73162409Y-92651714D01*
X73162409Y-92532666D01*
X73186219Y-92437428D01*
X73210028Y-92389809D01*
X73233838Y-92366000D01*
X73281457Y-92342190D01*
X73662409Y-92794571D02*
X73686219Y-92818380D01*
X73662409Y-92842190D01*
X73638600Y-92818380D01*
X73662409Y-92794571D01*
X73662409Y-92842190D01*
X74162409Y-92842190D02*
X73876695Y-92842190D01*
X74019552Y-92842190D02*
X74019552Y-92342190D01*
X73971933Y-92413619D01*
X73924314Y-92461238D01*
X73876695Y-92485047D01*
X74590980Y-92508857D02*
X74590980Y-92842190D01*
X74376695Y-92508857D02*
X74376695Y-92770761D01*
X74400504Y-92818380D01*
X74448123Y-92842190D01*
X74519552Y-92842190D01*
X74567171Y-92818380D01*
X74590980Y-92794571D01*
X73567171Y-91364571D02*
X73543361Y-91388380D01*
X73471933Y-91412190D01*
X73424314Y-91412190D01*
X73352885Y-91388380D01*
X73305266Y-91340761D01*
X73281457Y-91293142D01*
X73257647Y-91197904D01*
X73257647Y-91126476D01*
X73281457Y-91031238D01*
X73305266Y-90983619D01*
X73352885Y-90936000D01*
X73424314Y-90912190D01*
X73471933Y-90912190D01*
X73543361Y-90936000D01*
X73567171Y-90959809D01*
X74043361Y-91412190D02*
X73757647Y-91412190D01*
X73900504Y-91412190D02*
X73900504Y-90912190D01*
X73852885Y-90983619D01*
X73805266Y-91031238D01*
X73757647Y-91055047D01*
X74329076Y-91126476D02*
X74281457Y-91102666D01*
X74257647Y-91078857D01*
X74233838Y-91031238D01*
X74233838Y-91007428D01*
X74257647Y-90959809D01*
X74281457Y-90936000D01*
X74329076Y-90912190D01*
X74424314Y-90912190D01*
X74471933Y-90936000D01*
X74495742Y-90959809D01*
X74519552Y-91007428D01*
X74519552Y-91031238D01*
X74495742Y-91078857D01*
X74471933Y-91102666D01*
X74424314Y-91126476D01*
X74329076Y-91126476D01*
X74281457Y-91150285D01*
X74257647Y-91174095D01*
X74233838Y-91221714D01*
X74233838Y-91316952D01*
X74257647Y-91364571D01*
X74281457Y-91388380D01*
X74329076Y-91412190D01*
X74424314Y-91412190D01*
X74471933Y-91388380D01*
X74495742Y-91364571D01*
X74519552Y-91316952D01*
X74519552Y-91221714D01*
X74495742Y-91174095D01*
X74471933Y-91150285D01*
X74424314Y-91126476D01*
%TO.C,C17*%
X68701404Y-94096357D02*
X68701404Y-94429690D01*
X68582357Y-93905880D02*
X68463309Y-94263023D01*
X68772833Y-94263023D01*
X68963309Y-94382071D02*
X68987119Y-94405880D01*
X68963309Y-94429690D01*
X68939500Y-94405880D01*
X68963309Y-94382071D01*
X68963309Y-94429690D01*
X69153785Y-93929690D02*
X69487119Y-93929690D01*
X69272833Y-94429690D01*
X69891880Y-94096357D02*
X69891880Y-94429690D01*
X69677595Y-94096357D02*
X69677595Y-94358261D01*
X69701404Y-94405880D01*
X69749023Y-94429690D01*
X69820452Y-94429690D01*
X69868071Y-94405880D01*
X69891880Y-94382071D01*
X68868071Y-92952071D02*
X68844261Y-92975880D01*
X68772833Y-92999690D01*
X68725214Y-92999690D01*
X68653785Y-92975880D01*
X68606166Y-92928261D01*
X68582357Y-92880642D01*
X68558547Y-92785404D01*
X68558547Y-92713976D01*
X68582357Y-92618738D01*
X68606166Y-92571119D01*
X68653785Y-92523500D01*
X68725214Y-92499690D01*
X68772833Y-92499690D01*
X68844261Y-92523500D01*
X68868071Y-92547309D01*
X69344261Y-92999690D02*
X69058547Y-92999690D01*
X69201404Y-92999690D02*
X69201404Y-92499690D01*
X69153785Y-92571119D01*
X69106166Y-92618738D01*
X69058547Y-92642547D01*
X69510928Y-92499690D02*
X69844261Y-92499690D01*
X69629976Y-92999690D01*
%TO.C,C16*%
X73400504Y-94096357D02*
X73400504Y-94429690D01*
X73281457Y-93905880D02*
X73162409Y-94263023D01*
X73471933Y-94263023D01*
X73662409Y-94382071D02*
X73686219Y-94405880D01*
X73662409Y-94429690D01*
X73638600Y-94405880D01*
X73662409Y-94382071D01*
X73662409Y-94429690D01*
X73852885Y-93929690D02*
X74186219Y-93929690D01*
X73971933Y-94429690D01*
X74590980Y-94096357D02*
X74590980Y-94429690D01*
X74376695Y-94096357D02*
X74376695Y-94358261D01*
X74400504Y-94405880D01*
X74448123Y-94429690D01*
X74519552Y-94429690D01*
X74567171Y-94405880D01*
X74590980Y-94382071D01*
X73567171Y-92952071D02*
X73543361Y-92975880D01*
X73471933Y-92999690D01*
X73424314Y-92999690D01*
X73352885Y-92975880D01*
X73305266Y-92928261D01*
X73281457Y-92880642D01*
X73257647Y-92785404D01*
X73257647Y-92713976D01*
X73281457Y-92618738D01*
X73305266Y-92571119D01*
X73352885Y-92523500D01*
X73424314Y-92499690D01*
X73471933Y-92499690D01*
X73543361Y-92523500D01*
X73567171Y-92547309D01*
X74043361Y-92999690D02*
X73757647Y-92999690D01*
X73900504Y-92999690D02*
X73900504Y-92499690D01*
X73852885Y-92571119D01*
X73805266Y-92618738D01*
X73757647Y-92642547D01*
X74471933Y-92499690D02*
X74376695Y-92499690D01*
X74329076Y-92523500D01*
X74305266Y-92547309D01*
X74257647Y-92618738D01*
X74233838Y-92713976D01*
X74233838Y-92904452D01*
X74257647Y-92952071D01*
X74281457Y-92975880D01*
X74329076Y-92999690D01*
X74424314Y-92999690D01*
X74471933Y-92975880D01*
X74495742Y-92952071D01*
X74519552Y-92904452D01*
X74519552Y-92785404D01*
X74495742Y-92737785D01*
X74471933Y-92713976D01*
X74424314Y-92690166D01*
X74329076Y-92690166D01*
X74281457Y-92713976D01*
X74257647Y-92737785D01*
X74233838Y-92785404D01*
%TO.C,C15*%
X68480857Y-99403390D02*
X68528476Y-99403390D01*
X68576095Y-99427200D01*
X68599904Y-99451009D01*
X68623714Y-99498628D01*
X68647523Y-99593866D01*
X68647523Y-99712914D01*
X68623714Y-99808152D01*
X68599904Y-99855771D01*
X68576095Y-99879580D01*
X68528476Y-99903390D01*
X68480857Y-99903390D01*
X68433238Y-99879580D01*
X68409428Y-99855771D01*
X68385619Y-99808152D01*
X68361809Y-99712914D01*
X68361809Y-99593866D01*
X68385619Y-99498628D01*
X68409428Y-99451009D01*
X68433238Y-99427200D01*
X68480857Y-99403390D01*
X68861809Y-99855771D02*
X68885619Y-99879580D01*
X68861809Y-99903390D01*
X68838000Y-99879580D01*
X68861809Y-99855771D01*
X68861809Y-99903390D01*
X69361809Y-99903390D02*
X69076095Y-99903390D01*
X69218952Y-99903390D02*
X69218952Y-99403390D01*
X69171333Y-99474819D01*
X69123714Y-99522438D01*
X69076095Y-99546247D01*
X69790380Y-99570057D02*
X69790380Y-99903390D01*
X69576095Y-99570057D02*
X69576095Y-99831961D01*
X69599904Y-99879580D01*
X69647523Y-99903390D01*
X69718952Y-99903390D01*
X69766571Y-99879580D01*
X69790380Y-99855771D01*
X68766571Y-98425771D02*
X68742761Y-98449580D01*
X68671333Y-98473390D01*
X68623714Y-98473390D01*
X68552285Y-98449580D01*
X68504666Y-98401961D01*
X68480857Y-98354342D01*
X68457047Y-98259104D01*
X68457047Y-98187676D01*
X68480857Y-98092438D01*
X68504666Y-98044819D01*
X68552285Y-97997200D01*
X68623714Y-97973390D01*
X68671333Y-97973390D01*
X68742761Y-97997200D01*
X68766571Y-98021009D01*
X69242761Y-98473390D02*
X68957047Y-98473390D01*
X69099904Y-98473390D02*
X69099904Y-97973390D01*
X69052285Y-98044819D01*
X69004666Y-98092438D01*
X68957047Y-98116247D01*
X69695142Y-97973390D02*
X69457047Y-97973390D01*
X69433238Y-98211485D01*
X69457047Y-98187676D01*
X69504666Y-98163866D01*
X69623714Y-98163866D01*
X69671333Y-98187676D01*
X69695142Y-98211485D01*
X69718952Y-98259104D01*
X69718952Y-98378152D01*
X69695142Y-98425771D01*
X69671333Y-98449580D01*
X69623714Y-98473390D01*
X69504666Y-98473390D01*
X69457047Y-98449580D01*
X69433238Y-98425771D01*
%TO.C,C14*%
X73103657Y-99403390D02*
X73151276Y-99403390D01*
X73198895Y-99427200D01*
X73222704Y-99451009D01*
X73246514Y-99498628D01*
X73270323Y-99593866D01*
X73270323Y-99712914D01*
X73246514Y-99808152D01*
X73222704Y-99855771D01*
X73198895Y-99879580D01*
X73151276Y-99903390D01*
X73103657Y-99903390D01*
X73056038Y-99879580D01*
X73032228Y-99855771D01*
X73008419Y-99808152D01*
X72984609Y-99712914D01*
X72984609Y-99593866D01*
X73008419Y-99498628D01*
X73032228Y-99451009D01*
X73056038Y-99427200D01*
X73103657Y-99403390D01*
X73484609Y-99855771D02*
X73508419Y-99879580D01*
X73484609Y-99903390D01*
X73460800Y-99879580D01*
X73484609Y-99855771D01*
X73484609Y-99903390D01*
X73984609Y-99903390D02*
X73698895Y-99903390D01*
X73841752Y-99903390D02*
X73841752Y-99403390D01*
X73794133Y-99474819D01*
X73746514Y-99522438D01*
X73698895Y-99546247D01*
X74413180Y-99570057D02*
X74413180Y-99903390D01*
X74198895Y-99570057D02*
X74198895Y-99831961D01*
X74222704Y-99879580D01*
X74270323Y-99903390D01*
X74341752Y-99903390D01*
X74389371Y-99879580D01*
X74413180Y-99855771D01*
X73389371Y-98425771D02*
X73365561Y-98449580D01*
X73294133Y-98473390D01*
X73246514Y-98473390D01*
X73175085Y-98449580D01*
X73127466Y-98401961D01*
X73103657Y-98354342D01*
X73079847Y-98259104D01*
X73079847Y-98187676D01*
X73103657Y-98092438D01*
X73127466Y-98044819D01*
X73175085Y-97997200D01*
X73246514Y-97973390D01*
X73294133Y-97973390D01*
X73365561Y-97997200D01*
X73389371Y-98021009D01*
X73865561Y-98473390D02*
X73579847Y-98473390D01*
X73722704Y-98473390D02*
X73722704Y-97973390D01*
X73675085Y-98044819D01*
X73627466Y-98092438D01*
X73579847Y-98116247D01*
X74294133Y-98140057D02*
X74294133Y-98473390D01*
X74175085Y-97949580D02*
X74056038Y-98306723D01*
X74365561Y-98306723D01*
%TO.C,C6*%
X67715676Y-102223790D02*
X67429961Y-102223790D01*
X67572819Y-102223790D02*
X67572819Y-101723790D01*
X67525200Y-101795219D01*
X67477580Y-101842838D01*
X67429961Y-101866647D01*
X68025200Y-101723790D02*
X68072819Y-101723790D01*
X68120438Y-101747600D01*
X68144247Y-101771409D01*
X68168057Y-101819028D01*
X68191866Y-101914266D01*
X68191866Y-102033314D01*
X68168057Y-102128552D01*
X68144247Y-102176171D01*
X68120438Y-102199980D01*
X68072819Y-102223790D01*
X68025200Y-102223790D01*
X67977580Y-102199980D01*
X67953771Y-102176171D01*
X67929961Y-102128552D01*
X67906152Y-102033314D01*
X67906152Y-101914266D01*
X67929961Y-101819028D01*
X67953771Y-101771409D01*
X67977580Y-101747600D01*
X68025200Y-101723790D01*
X68501390Y-101723790D02*
X68549009Y-101723790D01*
X68596628Y-101747600D01*
X68620438Y-101771409D01*
X68644247Y-101819028D01*
X68668057Y-101914266D01*
X68668057Y-102033314D01*
X68644247Y-102128552D01*
X68620438Y-102176171D01*
X68596628Y-102199980D01*
X68549009Y-102223790D01*
X68501390Y-102223790D01*
X68453771Y-102199980D01*
X68429961Y-102176171D01*
X68406152Y-102128552D01*
X68382342Y-102033314D01*
X68382342Y-101914266D01*
X68406152Y-101819028D01*
X68429961Y-101771409D01*
X68453771Y-101747600D01*
X68501390Y-101723790D01*
X69096628Y-101890457D02*
X69096628Y-102223790D01*
X68882342Y-101890457D02*
X68882342Y-102152361D01*
X68906152Y-102199980D01*
X68953771Y-102223790D01*
X69025200Y-102223790D01*
X69072819Y-102199980D01*
X69096628Y-102176171D01*
X68191866Y-100356171D02*
X68168057Y-100379980D01*
X68096628Y-100403790D01*
X68049009Y-100403790D01*
X67977580Y-100379980D01*
X67929961Y-100332361D01*
X67906152Y-100284742D01*
X67882342Y-100189504D01*
X67882342Y-100118076D01*
X67906152Y-100022838D01*
X67929961Y-99975219D01*
X67977580Y-99927600D01*
X68049009Y-99903790D01*
X68096628Y-99903790D01*
X68168057Y-99927600D01*
X68191866Y-99951409D01*
X68620438Y-99903790D02*
X68525200Y-99903790D01*
X68477580Y-99927600D01*
X68453771Y-99951409D01*
X68406152Y-100022838D01*
X68382342Y-100118076D01*
X68382342Y-100308552D01*
X68406152Y-100356171D01*
X68429961Y-100379980D01*
X68477580Y-100403790D01*
X68572819Y-100403790D01*
X68620438Y-100379980D01*
X68644247Y-100356171D01*
X68668057Y-100308552D01*
X68668057Y-100189504D01*
X68644247Y-100141885D01*
X68620438Y-100118076D01*
X68572819Y-100094266D01*
X68477580Y-100094266D01*
X68429961Y-100118076D01*
X68406152Y-100141885D01*
X68382342Y-100189504D01*
%TO.C,C5*%
X72386276Y-100645090D02*
X72100561Y-100645090D01*
X72243419Y-100645090D02*
X72243419Y-100145090D01*
X72195800Y-100216519D01*
X72148180Y-100264138D01*
X72100561Y-100287947D01*
X72695800Y-100145090D02*
X72743419Y-100145090D01*
X72791038Y-100168900D01*
X72814847Y-100192709D01*
X72838657Y-100240328D01*
X72862466Y-100335566D01*
X72862466Y-100454614D01*
X72838657Y-100549852D01*
X72814847Y-100597471D01*
X72791038Y-100621280D01*
X72743419Y-100645090D01*
X72695800Y-100645090D01*
X72648180Y-100621280D01*
X72624371Y-100597471D01*
X72600561Y-100549852D01*
X72576752Y-100454614D01*
X72576752Y-100335566D01*
X72600561Y-100240328D01*
X72624371Y-100192709D01*
X72648180Y-100168900D01*
X72695800Y-100145090D01*
X73171990Y-100145090D02*
X73219609Y-100145090D01*
X73267228Y-100168900D01*
X73291038Y-100192709D01*
X73314847Y-100240328D01*
X73338657Y-100335566D01*
X73338657Y-100454614D01*
X73314847Y-100549852D01*
X73291038Y-100597471D01*
X73267228Y-100621280D01*
X73219609Y-100645090D01*
X73171990Y-100645090D01*
X73124371Y-100621280D01*
X73100561Y-100597471D01*
X73076752Y-100549852D01*
X73052942Y-100454614D01*
X73052942Y-100335566D01*
X73076752Y-100240328D01*
X73100561Y-100192709D01*
X73124371Y-100168900D01*
X73171990Y-100145090D01*
X73767228Y-100311757D02*
X73767228Y-100645090D01*
X73552942Y-100311757D02*
X73552942Y-100573661D01*
X73576752Y-100621280D01*
X73624371Y-100645090D01*
X73695800Y-100645090D01*
X73743419Y-100621280D01*
X73767228Y-100597471D01*
X72837066Y-100356171D02*
X72813257Y-100379980D01*
X72741828Y-100403790D01*
X72694209Y-100403790D01*
X72622780Y-100379980D01*
X72575161Y-100332361D01*
X72551352Y-100284742D01*
X72527542Y-100189504D01*
X72527542Y-100118076D01*
X72551352Y-100022838D01*
X72575161Y-99975219D01*
X72622780Y-99927600D01*
X72694209Y-99903790D01*
X72741828Y-99903790D01*
X72813257Y-99927600D01*
X72837066Y-99951409D01*
X73289447Y-99903790D02*
X73051352Y-99903790D01*
X73027542Y-100141885D01*
X73051352Y-100118076D01*
X73098971Y-100094266D01*
X73218019Y-100094266D01*
X73265638Y-100118076D01*
X73289447Y-100141885D01*
X73313257Y-100189504D01*
X73313257Y-100308552D01*
X73289447Y-100356171D01*
X73265638Y-100379980D01*
X73218019Y-100403790D01*
X73098971Y-100403790D01*
X73051352Y-100379980D01*
X73027542Y-100356171D01*
%TO.C,U9*%
X69525580Y-102076590D02*
X69811295Y-102076590D01*
X69668438Y-102576590D02*
X69668438Y-102076590D01*
X69977961Y-102576590D02*
X69977961Y-102076590D01*
X70168438Y-102076590D01*
X70216057Y-102100400D01*
X70239866Y-102124209D01*
X70263676Y-102171828D01*
X70263676Y-102243257D01*
X70239866Y-102290876D01*
X70216057Y-102314685D01*
X70168438Y-102338495D01*
X69977961Y-102338495D01*
X70454152Y-102552780D02*
X70525580Y-102576590D01*
X70644628Y-102576590D01*
X70692247Y-102552780D01*
X70716057Y-102528971D01*
X70739866Y-102481352D01*
X70739866Y-102433733D01*
X70716057Y-102386114D01*
X70692247Y-102362304D01*
X70644628Y-102338495D01*
X70549390Y-102314685D01*
X70501771Y-102290876D01*
X70477961Y-102267066D01*
X70454152Y-102219447D01*
X70454152Y-102171828D01*
X70477961Y-102124209D01*
X70501771Y-102100400D01*
X70549390Y-102076590D01*
X70668438Y-102076590D01*
X70739866Y-102100400D01*
X70930342Y-102124209D02*
X70954152Y-102100400D01*
X71001771Y-102076590D01*
X71120819Y-102076590D01*
X71168438Y-102100400D01*
X71192247Y-102124209D01*
X71216057Y-102171828D01*
X71216057Y-102219447D01*
X71192247Y-102290876D01*
X70906533Y-102576590D01*
X71216057Y-102576590D01*
X71692247Y-102576590D02*
X71406533Y-102576590D01*
X71549390Y-102576590D02*
X71549390Y-102076590D01*
X71501771Y-102148019D01*
X71454152Y-102195638D01*
X71406533Y-102219447D01*
X72168438Y-102576590D02*
X71882723Y-102576590D01*
X72025580Y-102576590D02*
X72025580Y-102076590D01*
X71977961Y-102148019D01*
X71930342Y-102195638D01*
X71882723Y-102219447D01*
X72620819Y-102076590D02*
X72382723Y-102076590D01*
X72358914Y-102314685D01*
X72382723Y-102290876D01*
X72430342Y-102267066D01*
X72549390Y-102267066D01*
X72597009Y-102290876D01*
X72620819Y-102314685D01*
X72644628Y-102362304D01*
X72644628Y-102481352D01*
X72620819Y-102528971D01*
X72597009Y-102552780D01*
X72549390Y-102576590D01*
X72430342Y-102576590D01*
X72382723Y-102552780D01*
X72358914Y-102528971D01*
X72835104Y-102433733D02*
X73073200Y-102433733D01*
X72787485Y-102576590D02*
X72954152Y-102076590D01*
X73120819Y-102576590D01*
X70942247Y-104526590D02*
X70942247Y-104931352D01*
X70966057Y-104978971D01*
X70989866Y-105002780D01*
X71037485Y-105026590D01*
X71132723Y-105026590D01*
X71180342Y-105002780D01*
X71204152Y-104978971D01*
X71227961Y-104931352D01*
X71227961Y-104526590D01*
X71489866Y-105026590D02*
X71585104Y-105026590D01*
X71632723Y-105002780D01*
X71656533Y-104978971D01*
X71704152Y-104907542D01*
X71727961Y-104812304D01*
X71727961Y-104621828D01*
X71704152Y-104574209D01*
X71680342Y-104550400D01*
X71632723Y-104526590D01*
X71537485Y-104526590D01*
X71489866Y-104550400D01*
X71466057Y-104574209D01*
X71442247Y-104621828D01*
X71442247Y-104740876D01*
X71466057Y-104788495D01*
X71489866Y-104812304D01*
X71537485Y-104836114D01*
X71632723Y-104836114D01*
X71680342Y-104812304D01*
X71704152Y-104788495D01*
X71727961Y-104740876D01*
%TO.C,R19*%
X72902071Y-102008809D02*
X72925880Y-101985000D01*
X72973500Y-101961190D01*
X73092547Y-101961190D01*
X73140166Y-101985000D01*
X73163976Y-102008809D01*
X73187785Y-102056428D01*
X73187785Y-102104047D01*
X73163976Y-102175476D01*
X72878261Y-102461190D01*
X73187785Y-102461190D01*
X73378261Y-102008809D02*
X73402071Y-101985000D01*
X73449690Y-101961190D01*
X73568738Y-101961190D01*
X73616357Y-101985000D01*
X73640166Y-102008809D01*
X73663976Y-102056428D01*
X73663976Y-102104047D01*
X73640166Y-102175476D01*
X73354452Y-102461190D01*
X73663976Y-102461190D01*
X73973500Y-101961190D02*
X74021119Y-101961190D01*
X74068738Y-101985000D01*
X74092547Y-102008809D01*
X74116357Y-102056428D01*
X74140166Y-102151666D01*
X74140166Y-102270714D01*
X74116357Y-102365952D01*
X74092547Y-102413571D01*
X74068738Y-102437380D01*
X74021119Y-102461190D01*
X73973500Y-102461190D01*
X73925880Y-102437380D01*
X73902071Y-102413571D01*
X73878261Y-102365952D01*
X73854452Y-102270714D01*
X73854452Y-102151666D01*
X73878261Y-102056428D01*
X73902071Y-102008809D01*
X73925880Y-101985000D01*
X73973500Y-101961190D01*
X74354452Y-102461190D02*
X74354452Y-101961190D01*
X74402071Y-102270714D02*
X74544928Y-102461190D01*
X74544928Y-102127857D02*
X74354452Y-102318333D01*
X73402071Y-102397690D02*
X73235404Y-102159595D01*
X73116357Y-102397690D02*
X73116357Y-101897690D01*
X73306833Y-101897690D01*
X73354452Y-101921500D01*
X73378261Y-101945309D01*
X73402071Y-101992928D01*
X73402071Y-102064357D01*
X73378261Y-102111976D01*
X73354452Y-102135785D01*
X73306833Y-102159595D01*
X73116357Y-102159595D01*
X73878261Y-102397690D02*
X73592547Y-102397690D01*
X73735404Y-102397690D02*
X73735404Y-101897690D01*
X73687785Y-101969119D01*
X73640166Y-102016738D01*
X73592547Y-102040547D01*
X74116357Y-102397690D02*
X74211595Y-102397690D01*
X74259214Y-102373880D01*
X74283023Y-102350071D01*
X74330642Y-102278642D01*
X74354452Y-102183404D01*
X74354452Y-101992928D01*
X74330642Y-101945309D01*
X74306833Y-101921500D01*
X74259214Y-101897690D01*
X74163976Y-101897690D01*
X74116357Y-101921500D01*
X74092547Y-101945309D01*
X74068738Y-101992928D01*
X74068738Y-102111976D01*
X74092547Y-102159595D01*
X74116357Y-102183404D01*
X74163976Y-102207214D01*
X74259214Y-102207214D01*
X74306833Y-102183404D01*
X74330642Y-102159595D01*
X74354452Y-102111976D01*
%TO.C,C13*%
X76989857Y-89482190D02*
X77037476Y-89482190D01*
X77085095Y-89506000D01*
X77108904Y-89529809D01*
X77132714Y-89577428D01*
X77156523Y-89672666D01*
X77156523Y-89791714D01*
X77132714Y-89886952D01*
X77108904Y-89934571D01*
X77085095Y-89958380D01*
X77037476Y-89982190D01*
X76989857Y-89982190D01*
X76942238Y-89958380D01*
X76918428Y-89934571D01*
X76894619Y-89886952D01*
X76870809Y-89791714D01*
X76870809Y-89672666D01*
X76894619Y-89577428D01*
X76918428Y-89529809D01*
X76942238Y-89506000D01*
X76989857Y-89482190D01*
X77370809Y-89934571D02*
X77394619Y-89958380D01*
X77370809Y-89982190D01*
X77347000Y-89958380D01*
X77370809Y-89934571D01*
X77370809Y-89982190D01*
X77870809Y-89982190D02*
X77585095Y-89982190D01*
X77727952Y-89982190D02*
X77727952Y-89482190D01*
X77680333Y-89553619D01*
X77632714Y-89601238D01*
X77585095Y-89625047D01*
X78299380Y-89648857D02*
X78299380Y-89982190D01*
X78085095Y-89648857D02*
X78085095Y-89910761D01*
X78108904Y-89958380D01*
X78156523Y-89982190D01*
X78227952Y-89982190D01*
X78275571Y-89958380D01*
X78299380Y-89934571D01*
X77275571Y-91364571D02*
X77251761Y-91388380D01*
X77180333Y-91412190D01*
X77132714Y-91412190D01*
X77061285Y-91388380D01*
X77013666Y-91340761D01*
X76989857Y-91293142D01*
X76966047Y-91197904D01*
X76966047Y-91126476D01*
X76989857Y-91031238D01*
X77013666Y-90983619D01*
X77061285Y-90936000D01*
X77132714Y-90912190D01*
X77180333Y-90912190D01*
X77251761Y-90936000D01*
X77275571Y-90959809D01*
X77751761Y-91412190D02*
X77466047Y-91412190D01*
X77608904Y-91412190D02*
X77608904Y-90912190D01*
X77561285Y-90983619D01*
X77513666Y-91031238D01*
X77466047Y-91055047D01*
X77918428Y-90912190D02*
X78227952Y-90912190D01*
X78061285Y-91102666D01*
X78132714Y-91102666D01*
X78180333Y-91126476D01*
X78204142Y-91150285D01*
X78227952Y-91197904D01*
X78227952Y-91316952D01*
X78204142Y-91364571D01*
X78180333Y-91388380D01*
X78132714Y-91412190D01*
X77989857Y-91412190D01*
X77942238Y-91388380D01*
X77918428Y-91364571D01*
%TO.C,C9*%
X85702057Y-112916190D02*
X85749676Y-112916190D01*
X85797295Y-112940000D01*
X85821104Y-112963809D01*
X85844914Y-113011428D01*
X85868723Y-113106666D01*
X85868723Y-113225714D01*
X85844914Y-113320952D01*
X85821104Y-113368571D01*
X85797295Y-113392380D01*
X85749676Y-113416190D01*
X85702057Y-113416190D01*
X85654438Y-113392380D01*
X85630628Y-113368571D01*
X85606819Y-113320952D01*
X85583009Y-113225714D01*
X85583009Y-113106666D01*
X85606819Y-113011428D01*
X85630628Y-112963809D01*
X85654438Y-112940000D01*
X85702057Y-112916190D01*
X86083009Y-113368571D02*
X86106819Y-113392380D01*
X86083009Y-113416190D01*
X86059200Y-113392380D01*
X86083009Y-113368571D01*
X86083009Y-113416190D01*
X86583009Y-113416190D02*
X86297295Y-113416190D01*
X86440152Y-113416190D02*
X86440152Y-112916190D01*
X86392533Y-112987619D01*
X86344914Y-113035238D01*
X86297295Y-113059047D01*
X87011580Y-113082857D02*
X87011580Y-113416190D01*
X86797295Y-113082857D02*
X86797295Y-113344761D01*
X86821104Y-113392380D01*
X86868723Y-113416190D01*
X86940152Y-113416190D01*
X86987771Y-113392380D01*
X87011580Y-113368571D01*
X86225866Y-111938571D02*
X86202057Y-111962380D01*
X86130628Y-111986190D01*
X86083009Y-111986190D01*
X86011580Y-111962380D01*
X85963961Y-111914761D01*
X85940152Y-111867142D01*
X85916342Y-111771904D01*
X85916342Y-111700476D01*
X85940152Y-111605238D01*
X85963961Y-111557619D01*
X86011580Y-111510000D01*
X86083009Y-111486190D01*
X86130628Y-111486190D01*
X86202057Y-111510000D01*
X86225866Y-111533809D01*
X86463961Y-111986190D02*
X86559200Y-111986190D01*
X86606819Y-111962380D01*
X86630628Y-111938571D01*
X86678247Y-111867142D01*
X86702057Y-111771904D01*
X86702057Y-111581428D01*
X86678247Y-111533809D01*
X86654438Y-111510000D01*
X86606819Y-111486190D01*
X86511580Y-111486190D01*
X86463961Y-111510000D01*
X86440152Y-111533809D01*
X86416342Y-111581428D01*
X86416342Y-111700476D01*
X86440152Y-111748095D01*
X86463961Y-111771904D01*
X86511580Y-111795714D01*
X86606819Y-111795714D01*
X86654438Y-111771904D01*
X86678247Y-111748095D01*
X86702057Y-111700476D01*
%TO.C,C8*%
X88419757Y-91514190D02*
X88467376Y-91514190D01*
X88514995Y-91538000D01*
X88538804Y-91561809D01*
X88562614Y-91609428D01*
X88586423Y-91704666D01*
X88586423Y-91823714D01*
X88562614Y-91918952D01*
X88538804Y-91966571D01*
X88514995Y-91990380D01*
X88467376Y-92014190D01*
X88419757Y-92014190D01*
X88372138Y-91990380D01*
X88348328Y-91966571D01*
X88324519Y-91918952D01*
X88300709Y-91823714D01*
X88300709Y-91704666D01*
X88324519Y-91609428D01*
X88348328Y-91561809D01*
X88372138Y-91538000D01*
X88419757Y-91514190D01*
X88800709Y-91966571D02*
X88824519Y-91990380D01*
X88800709Y-92014190D01*
X88776900Y-91990380D01*
X88800709Y-91966571D01*
X88800709Y-92014190D01*
X89300709Y-92014190D02*
X89014995Y-92014190D01*
X89157852Y-92014190D02*
X89157852Y-91514190D01*
X89110233Y-91585619D01*
X89062614Y-91633238D01*
X89014995Y-91657047D01*
X89729280Y-91680857D02*
X89729280Y-92014190D01*
X89514995Y-91680857D02*
X89514995Y-91942761D01*
X89538804Y-91990380D01*
X89586423Y-92014190D01*
X89657852Y-92014190D01*
X89705471Y-91990380D01*
X89729280Y-91966571D01*
X88943566Y-93396571D02*
X88919757Y-93420380D01*
X88848328Y-93444190D01*
X88800709Y-93444190D01*
X88729280Y-93420380D01*
X88681661Y-93372761D01*
X88657852Y-93325142D01*
X88634042Y-93229904D01*
X88634042Y-93158476D01*
X88657852Y-93063238D01*
X88681661Y-93015619D01*
X88729280Y-92968000D01*
X88800709Y-92944190D01*
X88848328Y-92944190D01*
X88919757Y-92968000D01*
X88943566Y-92991809D01*
X89229280Y-93158476D02*
X89181661Y-93134666D01*
X89157852Y-93110857D01*
X89134042Y-93063238D01*
X89134042Y-93039428D01*
X89157852Y-92991809D01*
X89181661Y-92968000D01*
X89229280Y-92944190D01*
X89324519Y-92944190D01*
X89372138Y-92968000D01*
X89395947Y-92991809D01*
X89419757Y-93039428D01*
X89419757Y-93063238D01*
X89395947Y-93110857D01*
X89372138Y-93134666D01*
X89324519Y-93158476D01*
X89229280Y-93158476D01*
X89181661Y-93182285D01*
X89157852Y-93206095D01*
X89134042Y-93253714D01*
X89134042Y-93348952D01*
X89157852Y-93396571D01*
X89181661Y-93420380D01*
X89229280Y-93444190D01*
X89324519Y-93444190D01*
X89372138Y-93420380D01*
X89395947Y-93396571D01*
X89419757Y-93348952D01*
X89419757Y-93253714D01*
X89395947Y-93206095D01*
X89372138Y-93182285D01*
X89324519Y-93158476D01*
%TO.C,R17*%
X63075380Y-110144690D02*
X62789666Y-110144690D01*
X62932523Y-110144690D02*
X62932523Y-109644690D01*
X62884904Y-109716119D01*
X62837285Y-109763738D01*
X62789666Y-109787547D01*
X63384904Y-109644690D02*
X63432523Y-109644690D01*
X63480142Y-109668500D01*
X63503952Y-109692309D01*
X63527761Y-109739928D01*
X63551571Y-109835166D01*
X63551571Y-109954214D01*
X63527761Y-110049452D01*
X63503952Y-110097071D01*
X63480142Y-110120880D01*
X63432523Y-110144690D01*
X63384904Y-110144690D01*
X63337285Y-110120880D01*
X63313476Y-110097071D01*
X63289666Y-110049452D01*
X63265857Y-109954214D01*
X63265857Y-109835166D01*
X63289666Y-109739928D01*
X63313476Y-109692309D01*
X63337285Y-109668500D01*
X63384904Y-109644690D01*
X63765857Y-110144690D02*
X63765857Y-109644690D01*
X63813476Y-109954214D02*
X63956333Y-110144690D01*
X63956333Y-109811357D02*
X63765857Y-110001833D01*
X63026171Y-110157390D02*
X62859504Y-109919295D01*
X62740457Y-110157390D02*
X62740457Y-109657390D01*
X62930933Y-109657390D01*
X62978552Y-109681200D01*
X63002361Y-109705009D01*
X63026171Y-109752628D01*
X63026171Y-109824057D01*
X63002361Y-109871676D01*
X62978552Y-109895485D01*
X62930933Y-109919295D01*
X62740457Y-109919295D01*
X63502361Y-110157390D02*
X63216647Y-110157390D01*
X63359504Y-110157390D02*
X63359504Y-109657390D01*
X63311885Y-109728819D01*
X63264266Y-109776438D01*
X63216647Y-109800247D01*
X63669028Y-109657390D02*
X64002361Y-109657390D01*
X63788076Y-110157390D01*
%TO.C,R16*%
X62488071Y-108104809D02*
X62511880Y-108081000D01*
X62559500Y-108057190D01*
X62678547Y-108057190D01*
X62726166Y-108081000D01*
X62749976Y-108104809D01*
X62773785Y-108152428D01*
X62773785Y-108200047D01*
X62749976Y-108271476D01*
X62464261Y-108557190D01*
X62773785Y-108557190D01*
X63083309Y-108057190D02*
X63130928Y-108057190D01*
X63178547Y-108081000D01*
X63202357Y-108104809D01*
X63226166Y-108152428D01*
X63249976Y-108247666D01*
X63249976Y-108366714D01*
X63226166Y-108461952D01*
X63202357Y-108509571D01*
X63178547Y-108533380D01*
X63130928Y-108557190D01*
X63083309Y-108557190D01*
X63035690Y-108533380D01*
X63011880Y-108509571D01*
X62988071Y-108461952D01*
X62964261Y-108366714D01*
X62964261Y-108247666D01*
X62988071Y-108152428D01*
X63011880Y-108104809D01*
X63035690Y-108081000D01*
X63083309Y-108057190D01*
X63559500Y-108057190D02*
X63607119Y-108057190D01*
X63654738Y-108081000D01*
X63678547Y-108104809D01*
X63702357Y-108152428D01*
X63726166Y-108247666D01*
X63726166Y-108366714D01*
X63702357Y-108461952D01*
X63678547Y-108509571D01*
X63654738Y-108533380D01*
X63607119Y-108557190D01*
X63559500Y-108557190D01*
X63511880Y-108533380D01*
X63488071Y-108509571D01*
X63464261Y-108461952D01*
X63440452Y-108366714D01*
X63440452Y-108247666D01*
X63464261Y-108152428D01*
X63488071Y-108104809D01*
X63511880Y-108081000D01*
X63559500Y-108057190D01*
X63940452Y-108557190D02*
X63940452Y-108057190D01*
X63988071Y-108366714D02*
X64130928Y-108557190D01*
X64130928Y-108223857D02*
X63940452Y-108414333D01*
X63026171Y-108582590D02*
X62859504Y-108344495D01*
X62740457Y-108582590D02*
X62740457Y-108082590D01*
X62930933Y-108082590D01*
X62978552Y-108106400D01*
X63002361Y-108130209D01*
X63026171Y-108177828D01*
X63026171Y-108249257D01*
X63002361Y-108296876D01*
X62978552Y-108320685D01*
X62930933Y-108344495D01*
X62740457Y-108344495D01*
X63502361Y-108582590D02*
X63216647Y-108582590D01*
X63359504Y-108582590D02*
X63359504Y-108082590D01*
X63311885Y-108154019D01*
X63264266Y-108201638D01*
X63216647Y-108225447D01*
X63930933Y-108082590D02*
X63835695Y-108082590D01*
X63788076Y-108106400D01*
X63764266Y-108130209D01*
X63716647Y-108201638D01*
X63692838Y-108296876D01*
X63692838Y-108487352D01*
X63716647Y-108534971D01*
X63740457Y-108558780D01*
X63788076Y-108582590D01*
X63883314Y-108582590D01*
X63930933Y-108558780D01*
X63954742Y-108534971D01*
X63978552Y-108487352D01*
X63978552Y-108368304D01*
X63954742Y-108320685D01*
X63930933Y-108296876D01*
X63883314Y-108273066D01*
X63788076Y-108273066D01*
X63740457Y-108296876D01*
X63716647Y-108320685D01*
X63692838Y-108368304D01*
%TO.C,R7*%
X85855976Y-93286690D02*
X85570261Y-93286690D01*
X85713119Y-93286690D02*
X85713119Y-92786690D01*
X85665500Y-92858119D01*
X85617880Y-92905738D01*
X85570261Y-92929547D01*
X86070261Y-93286690D02*
X86070261Y-92786690D01*
X86117880Y-93096214D02*
X86260738Y-93286690D01*
X86260738Y-92953357D02*
X86070261Y-93143833D01*
X85832166Y-91856690D02*
X85665500Y-91618595D01*
X85546452Y-91856690D02*
X85546452Y-91356690D01*
X85736928Y-91356690D01*
X85784547Y-91380500D01*
X85808357Y-91404309D01*
X85832166Y-91451928D01*
X85832166Y-91523357D01*
X85808357Y-91570976D01*
X85784547Y-91594785D01*
X85736928Y-91618595D01*
X85546452Y-91618595D01*
X85998833Y-91356690D02*
X86332166Y-91356690D01*
X86117880Y-91856690D01*
%TO.C,R6*%
X85855976Y-92014190D02*
X85570261Y-92014190D01*
X85713119Y-92014190D02*
X85713119Y-91514190D01*
X85665500Y-91585619D01*
X85617880Y-91633238D01*
X85570261Y-91657047D01*
X86070261Y-92014190D02*
X86070261Y-91514190D01*
X86117880Y-91823714D02*
X86260738Y-92014190D01*
X86260738Y-91680857D02*
X86070261Y-91871333D01*
X85832166Y-93444190D02*
X85665500Y-93206095D01*
X85546452Y-93444190D02*
X85546452Y-92944190D01*
X85736928Y-92944190D01*
X85784547Y-92968000D01*
X85808357Y-92991809D01*
X85832166Y-93039428D01*
X85832166Y-93110857D01*
X85808357Y-93158476D01*
X85784547Y-93182285D01*
X85736928Y-93206095D01*
X85546452Y-93206095D01*
X86260738Y-92944190D02*
X86165500Y-92944190D01*
X86117880Y-92968000D01*
X86094071Y-92991809D01*
X86046452Y-93063238D01*
X86022642Y-93158476D01*
X86022642Y-93348952D01*
X86046452Y-93396571D01*
X86070261Y-93420380D01*
X86117880Y-93444190D01*
X86213119Y-93444190D01*
X86260738Y-93420380D01*
X86284547Y-93396571D01*
X86308357Y-93348952D01*
X86308357Y-93229904D01*
X86284547Y-93182285D01*
X86260738Y-93158476D01*
X86213119Y-93134666D01*
X86117880Y-93134666D01*
X86070261Y-93158476D01*
X86046452Y-93182285D01*
X86022642Y-93229904D01*
%TO.C,U1*%
X74245261Y-88179490D02*
X74245261Y-87679490D01*
X74364309Y-87679490D01*
X74435738Y-87703300D01*
X74483357Y-87750919D01*
X74507166Y-87798538D01*
X74530976Y-87893776D01*
X74530976Y-87965204D01*
X74507166Y-88060442D01*
X74483357Y-88108061D01*
X74435738Y-88155680D01*
X74364309Y-88179490D01*
X74245261Y-88179490D01*
X74721452Y-88155680D02*
X74792880Y-88179490D01*
X74911928Y-88179490D01*
X74959547Y-88155680D01*
X74983357Y-88131871D01*
X75007166Y-88084252D01*
X75007166Y-88036633D01*
X74983357Y-87989014D01*
X74959547Y-87965204D01*
X74911928Y-87941395D01*
X74816690Y-87917585D01*
X74769071Y-87893776D01*
X74745261Y-87869966D01*
X74721452Y-87822347D01*
X74721452Y-87774728D01*
X74745261Y-87727109D01*
X74769071Y-87703300D01*
X74816690Y-87679490D01*
X74935738Y-87679490D01*
X75007166Y-87703300D01*
X75173833Y-87679490D02*
X75483357Y-87679490D01*
X75316690Y-87869966D01*
X75388119Y-87869966D01*
X75435738Y-87893776D01*
X75459547Y-87917585D01*
X75483357Y-87965204D01*
X75483357Y-88084252D01*
X75459547Y-88131871D01*
X75435738Y-88155680D01*
X75388119Y-88179490D01*
X75245261Y-88179490D01*
X75197642Y-88155680D01*
X75173833Y-88131871D01*
X75673833Y-87727109D02*
X75697642Y-87703300D01*
X75745261Y-87679490D01*
X75864309Y-87679490D01*
X75911928Y-87703300D01*
X75935738Y-87727109D01*
X75959547Y-87774728D01*
X75959547Y-87822347D01*
X75935738Y-87893776D01*
X75650023Y-88179490D01*
X75959547Y-88179490D01*
X76126214Y-87679490D02*
X76435738Y-87679490D01*
X76269071Y-87869966D01*
X76340500Y-87869966D01*
X76388119Y-87893776D01*
X76411928Y-87917585D01*
X76435738Y-87965204D01*
X76435738Y-88084252D01*
X76411928Y-88131871D01*
X76388119Y-88155680D01*
X76340500Y-88179490D01*
X76197642Y-88179490D01*
X76150023Y-88155680D01*
X76126214Y-88131871D01*
X76911928Y-88179490D02*
X76626214Y-88179490D01*
X76769071Y-88179490D02*
X76769071Y-87679490D01*
X76721452Y-87750919D01*
X76673833Y-87798538D01*
X76626214Y-87822347D01*
X77126214Y-88179490D02*
X77126214Y-87679490D01*
X77292880Y-88036633D01*
X77459547Y-87679490D01*
X77459547Y-88179490D01*
X77650023Y-87679490D02*
X77983357Y-87679490D01*
X77650023Y-88179490D01*
X77983357Y-88179490D01*
X75755547Y-86390990D02*
X75755547Y-86795752D01*
X75779357Y-86843371D01*
X75803166Y-86867180D01*
X75850785Y-86890990D01*
X75946023Y-86890990D01*
X75993642Y-86867180D01*
X76017452Y-86843371D01*
X76041261Y-86795752D01*
X76041261Y-86390990D01*
X76541261Y-86890990D02*
X76255547Y-86890990D01*
X76398404Y-86890990D02*
X76398404Y-86390990D01*
X76350785Y-86462419D01*
X76303166Y-86510038D01*
X76255547Y-86533847D01*
%TO.C,U6*%
X80435580Y-114690971D02*
X80411771Y-114714780D01*
X80340342Y-114738590D01*
X80292723Y-114738590D01*
X80221295Y-114714780D01*
X80173676Y-114667161D01*
X80149866Y-114619542D01*
X80126057Y-114524304D01*
X80126057Y-114452876D01*
X80149866Y-114357638D01*
X80173676Y-114310019D01*
X80221295Y-114262400D01*
X80292723Y-114238590D01*
X80340342Y-114238590D01*
X80411771Y-114262400D01*
X80435580Y-114286209D01*
X80649866Y-114738590D02*
X80649866Y-114238590D01*
X80649866Y-114476685D02*
X80935580Y-114476685D01*
X80935580Y-114738590D02*
X80935580Y-114238590D01*
X81126057Y-114238590D02*
X81435580Y-114238590D01*
X81268914Y-114429066D01*
X81340342Y-114429066D01*
X81387961Y-114452876D01*
X81411771Y-114476685D01*
X81435580Y-114524304D01*
X81435580Y-114643352D01*
X81411771Y-114690971D01*
X81387961Y-114714780D01*
X81340342Y-114738590D01*
X81197485Y-114738590D01*
X81149866Y-114714780D01*
X81126057Y-114690971D01*
X81864152Y-114405257D02*
X81864152Y-114738590D01*
X81745104Y-114214780D02*
X81626057Y-114571923D01*
X81935580Y-114571923D01*
X82221295Y-114238590D02*
X82268914Y-114238590D01*
X82316533Y-114262400D01*
X82340342Y-114286209D01*
X82364152Y-114333828D01*
X82387961Y-114429066D01*
X82387961Y-114548114D01*
X82364152Y-114643352D01*
X82340342Y-114690971D01*
X82316533Y-114714780D01*
X82268914Y-114738590D01*
X82221295Y-114738590D01*
X82173676Y-114714780D01*
X82149866Y-114690971D01*
X82126057Y-114643352D01*
X82102247Y-114548114D01*
X82102247Y-114429066D01*
X82126057Y-114333828D01*
X82149866Y-114286209D01*
X82173676Y-114262400D01*
X82221295Y-114238590D01*
X82602247Y-114476685D02*
X82768914Y-114476685D01*
X82840342Y-114738590D02*
X82602247Y-114738590D01*
X82602247Y-114238590D01*
X82840342Y-114238590D01*
X81102247Y-111638590D02*
X81102247Y-112043352D01*
X81126057Y-112090971D01*
X81149866Y-112114780D01*
X81197485Y-112138590D01*
X81292723Y-112138590D01*
X81340342Y-112114780D01*
X81364152Y-112090971D01*
X81387961Y-112043352D01*
X81387961Y-111638590D01*
X81840342Y-111638590D02*
X81745104Y-111638590D01*
X81697485Y-111662400D01*
X81673676Y-111686209D01*
X81626057Y-111757638D01*
X81602247Y-111852876D01*
X81602247Y-112043352D01*
X81626057Y-112090971D01*
X81649866Y-112114780D01*
X81697485Y-112138590D01*
X81792723Y-112138590D01*
X81840342Y-112114780D01*
X81864152Y-112090971D01*
X81887961Y-112043352D01*
X81887961Y-111924304D01*
X81864152Y-111876685D01*
X81840342Y-111852876D01*
X81792723Y-111829066D01*
X81697485Y-111829066D01*
X81649866Y-111852876D01*
X81626057Y-111876685D01*
X81602247Y-111924304D01*
%TO.C,U11*%
X70805752Y-109962190D02*
X70805752Y-110366952D01*
X70829561Y-110414571D01*
X70853371Y-110438380D01*
X70900990Y-110462190D01*
X70996228Y-110462190D01*
X71043847Y-110438380D01*
X71067657Y-110414571D01*
X71091466Y-110366952D01*
X71091466Y-109962190D01*
X71591466Y-110462190D02*
X71305752Y-110462190D01*
X71448609Y-110462190D02*
X71448609Y-109962190D01*
X71400990Y-110033619D01*
X71353371Y-110081238D01*
X71305752Y-110105047D01*
X72067657Y-110462190D02*
X71781942Y-110462190D01*
X71924800Y-110462190D02*
X71924800Y-109962190D01*
X71877180Y-110033619D01*
X71829561Y-110081238D01*
X71781942Y-110105047D01*
%TO.C,R11*%
X88729280Y-93299390D02*
X88443566Y-93299390D01*
X88586423Y-93299390D02*
X88586423Y-92799390D01*
X88538804Y-92870819D01*
X88491185Y-92918438D01*
X88443566Y-92942247D01*
X89038804Y-92799390D02*
X89086423Y-92799390D01*
X89134042Y-92823200D01*
X89157852Y-92847009D01*
X89181661Y-92894628D01*
X89205471Y-92989866D01*
X89205471Y-93108914D01*
X89181661Y-93204152D01*
X89157852Y-93251771D01*
X89134042Y-93275580D01*
X89086423Y-93299390D01*
X89038804Y-93299390D01*
X88991185Y-93275580D01*
X88967376Y-93251771D01*
X88943566Y-93204152D01*
X88919757Y-93108914D01*
X88919757Y-92989866D01*
X88943566Y-92894628D01*
X88967376Y-92847009D01*
X88991185Y-92823200D01*
X89038804Y-92799390D01*
X89419757Y-93299390D02*
X89419757Y-92799390D01*
X89467376Y-93108914D02*
X89610233Y-93299390D01*
X89610233Y-92966057D02*
X89419757Y-93156533D01*
X88705471Y-91869390D02*
X88538804Y-91631295D01*
X88419757Y-91869390D02*
X88419757Y-91369390D01*
X88610233Y-91369390D01*
X88657852Y-91393200D01*
X88681661Y-91417009D01*
X88705471Y-91464628D01*
X88705471Y-91536057D01*
X88681661Y-91583676D01*
X88657852Y-91607485D01*
X88610233Y-91631295D01*
X88419757Y-91631295D01*
X89181661Y-91869390D02*
X88895947Y-91869390D01*
X89038804Y-91869390D02*
X89038804Y-91369390D01*
X88991185Y-91440819D01*
X88943566Y-91488438D01*
X88895947Y-91512247D01*
X89657852Y-91869390D02*
X89372138Y-91869390D01*
X89514995Y-91869390D02*
X89514995Y-91369390D01*
X89467376Y-91440819D01*
X89419757Y-91488438D01*
X89372138Y-91512247D01*
%TO.C,R10*%
X63519880Y-90045690D02*
X63234166Y-90045690D01*
X63377023Y-90045690D02*
X63377023Y-89545690D01*
X63329404Y-89617119D01*
X63281785Y-89664738D01*
X63234166Y-89688547D01*
X63829404Y-89545690D02*
X63877023Y-89545690D01*
X63924642Y-89569500D01*
X63948452Y-89593309D01*
X63972261Y-89640928D01*
X63996071Y-89736166D01*
X63996071Y-89855214D01*
X63972261Y-89950452D01*
X63948452Y-89998071D01*
X63924642Y-90021880D01*
X63877023Y-90045690D01*
X63829404Y-90045690D01*
X63781785Y-90021880D01*
X63757976Y-89998071D01*
X63734166Y-89950452D01*
X63710357Y-89855214D01*
X63710357Y-89736166D01*
X63734166Y-89640928D01*
X63757976Y-89593309D01*
X63781785Y-89569500D01*
X63829404Y-89545690D01*
X64210357Y-90045690D02*
X64210357Y-89545690D01*
X64257976Y-89855214D02*
X64400833Y-90045690D01*
X64400833Y-89712357D02*
X64210357Y-89902833D01*
X63496071Y-91475690D02*
X63329404Y-91237595D01*
X63210357Y-91475690D02*
X63210357Y-90975690D01*
X63400833Y-90975690D01*
X63448452Y-90999500D01*
X63472261Y-91023309D01*
X63496071Y-91070928D01*
X63496071Y-91142357D01*
X63472261Y-91189976D01*
X63448452Y-91213785D01*
X63400833Y-91237595D01*
X63210357Y-91237595D01*
X63972261Y-91475690D02*
X63686547Y-91475690D01*
X63829404Y-91475690D02*
X63829404Y-90975690D01*
X63781785Y-91047119D01*
X63734166Y-91094738D01*
X63686547Y-91118547D01*
X64281785Y-90975690D02*
X64329404Y-90975690D01*
X64377023Y-90999500D01*
X64400833Y-91023309D01*
X64424642Y-91070928D01*
X64448452Y-91166166D01*
X64448452Y-91285214D01*
X64424642Y-91380452D01*
X64400833Y-91428071D01*
X64377023Y-91451880D01*
X64329404Y-91475690D01*
X64281785Y-91475690D01*
X64234166Y-91451880D01*
X64210357Y-91428071D01*
X64186547Y-91380452D01*
X64162738Y-91285214D01*
X64162738Y-91166166D01*
X64186547Y-91070928D01*
X64210357Y-91023309D01*
X64234166Y-90999500D01*
X64281785Y-90975690D01*
%TO.C,R14*%
X70047657Y-101933390D02*
X69809561Y-101933390D01*
X69785752Y-102171485D01*
X69809561Y-102147676D01*
X69857180Y-102123866D01*
X69976228Y-102123866D01*
X70023847Y-102147676D01*
X70047657Y-102171485D01*
X70071466Y-102219104D01*
X70071466Y-102338152D01*
X70047657Y-102385771D01*
X70023847Y-102409580D01*
X69976228Y-102433390D01*
X69857180Y-102433390D01*
X69809561Y-102409580D01*
X69785752Y-102385771D01*
X70547657Y-102433390D02*
X70261942Y-102433390D01*
X70404800Y-102433390D02*
X70404800Y-101933390D01*
X70357180Y-102004819D01*
X70309561Y-102052438D01*
X70261942Y-102076247D01*
X70857180Y-101933390D02*
X70904800Y-101933390D01*
X70952419Y-101957200D01*
X70976228Y-101981009D01*
X71000038Y-102028628D01*
X71023847Y-102123866D01*
X71023847Y-102242914D01*
X71000038Y-102338152D01*
X70976228Y-102385771D01*
X70952419Y-102409580D01*
X70904800Y-102433390D01*
X70857180Y-102433390D01*
X70809561Y-102409580D01*
X70785752Y-102385771D01*
X70761942Y-102338152D01*
X70738133Y-102242914D01*
X70738133Y-102123866D01*
X70761942Y-102028628D01*
X70785752Y-101981009D01*
X70809561Y-101957200D01*
X70857180Y-101933390D01*
X71523847Y-102433390D02*
X71357180Y-102195295D01*
X71238133Y-102433390D02*
X71238133Y-101933390D01*
X71428609Y-101933390D01*
X71476228Y-101957200D01*
X71500038Y-101981009D01*
X71523847Y-102028628D01*
X71523847Y-102100057D01*
X71500038Y-102147676D01*
X71476228Y-102171485D01*
X71428609Y-102195295D01*
X71238133Y-102195295D01*
X70290571Y-102384990D02*
X70123904Y-102146895D01*
X70004857Y-102384990D02*
X70004857Y-101884990D01*
X70195333Y-101884990D01*
X70242952Y-101908800D01*
X70266761Y-101932609D01*
X70290571Y-101980228D01*
X70290571Y-102051657D01*
X70266761Y-102099276D01*
X70242952Y-102123085D01*
X70195333Y-102146895D01*
X70004857Y-102146895D01*
X70766761Y-102384990D02*
X70481047Y-102384990D01*
X70623904Y-102384990D02*
X70623904Y-101884990D01*
X70576285Y-101956419D01*
X70528666Y-102004038D01*
X70481047Y-102027847D01*
X71195333Y-102051657D02*
X71195333Y-102384990D01*
X71076285Y-101861180D02*
X70957238Y-102218323D01*
X71266761Y-102218323D01*
%TO.C,R4*%
X85678247Y-111431857D02*
X85678247Y-111765190D01*
X85559200Y-111241380D02*
X85440152Y-111598523D01*
X85749676Y-111598523D01*
X85892533Y-111265190D02*
X86225866Y-111265190D01*
X86011580Y-111765190D01*
X86511580Y-111265190D02*
X86559200Y-111265190D01*
X86606819Y-111289000D01*
X86630628Y-111312809D01*
X86654438Y-111360428D01*
X86678247Y-111455666D01*
X86678247Y-111574714D01*
X86654438Y-111669952D01*
X86630628Y-111717571D01*
X86606819Y-111741380D01*
X86559200Y-111765190D01*
X86511580Y-111765190D01*
X86463961Y-111741380D01*
X86440152Y-111717571D01*
X86416342Y-111669952D01*
X86392533Y-111574714D01*
X86392533Y-111455666D01*
X86416342Y-111360428D01*
X86440152Y-111312809D01*
X86463961Y-111289000D01*
X86511580Y-111265190D01*
X87178247Y-111765190D02*
X87011580Y-111527095D01*
X86892533Y-111765190D02*
X86892533Y-111265190D01*
X87083009Y-111265190D01*
X87130628Y-111289000D01*
X87154438Y-111312809D01*
X87178247Y-111360428D01*
X87178247Y-111431857D01*
X87154438Y-111479476D01*
X87130628Y-111503285D01*
X87083009Y-111527095D01*
X86892533Y-111527095D01*
X86225866Y-110335190D02*
X86059200Y-110097095D01*
X85940152Y-110335190D02*
X85940152Y-109835190D01*
X86130628Y-109835190D01*
X86178247Y-109859000D01*
X86202057Y-109882809D01*
X86225866Y-109930428D01*
X86225866Y-110001857D01*
X86202057Y-110049476D01*
X86178247Y-110073285D01*
X86130628Y-110097095D01*
X85940152Y-110097095D01*
X86654438Y-110001857D02*
X86654438Y-110335190D01*
X86535390Y-109811380D02*
X86416342Y-110168523D01*
X86725866Y-110168523D01*
%TO.C,R15*%
X67485366Y-107189790D02*
X67247271Y-107189790D01*
X67223461Y-107427885D01*
X67247271Y-107404076D01*
X67294890Y-107380266D01*
X67413938Y-107380266D01*
X67461557Y-107404076D01*
X67485366Y-107427885D01*
X67509176Y-107475504D01*
X67509176Y-107594552D01*
X67485366Y-107642171D01*
X67461557Y-107665980D01*
X67413938Y-107689790D01*
X67294890Y-107689790D01*
X67247271Y-107665980D01*
X67223461Y-107642171D01*
X67723461Y-107689790D02*
X67723461Y-107189790D01*
X67771080Y-107499314D02*
X67913938Y-107689790D01*
X67913938Y-107356457D02*
X67723461Y-107546933D01*
X67196471Y-107689790D02*
X67029804Y-107451695D01*
X66910757Y-107689790D02*
X66910757Y-107189790D01*
X67101233Y-107189790D01*
X67148852Y-107213600D01*
X67172661Y-107237409D01*
X67196471Y-107285028D01*
X67196471Y-107356457D01*
X67172661Y-107404076D01*
X67148852Y-107427885D01*
X67101233Y-107451695D01*
X66910757Y-107451695D01*
X67672661Y-107689790D02*
X67386947Y-107689790D01*
X67529804Y-107689790D02*
X67529804Y-107189790D01*
X67482185Y-107261219D01*
X67434566Y-107308838D01*
X67386947Y-107332647D01*
X68125042Y-107189790D02*
X67886947Y-107189790D01*
X67863138Y-107427885D01*
X67886947Y-107404076D01*
X67934566Y-107380266D01*
X68053614Y-107380266D01*
X68101233Y-107404076D01*
X68125042Y-107427885D01*
X68148852Y-107475504D01*
X68148852Y-107594552D01*
X68125042Y-107642171D01*
X68101233Y-107665980D01*
X68053614Y-107689790D01*
X67934566Y-107689790D01*
X67886947Y-107665980D01*
X67863138Y-107642171D01*
%TO.C,R13*%
X66933047Y-112828857D02*
X66933047Y-113162190D01*
X66814000Y-112638380D02*
X66694952Y-112995523D01*
X67004476Y-112995523D01*
X67147333Y-112662190D02*
X67480666Y-112662190D01*
X67266380Y-113162190D01*
X67766380Y-112662190D02*
X67814000Y-112662190D01*
X67861619Y-112686000D01*
X67885428Y-112709809D01*
X67909238Y-112757428D01*
X67933047Y-112852666D01*
X67933047Y-112971714D01*
X67909238Y-113066952D01*
X67885428Y-113114571D01*
X67861619Y-113138380D01*
X67814000Y-113162190D01*
X67766380Y-113162190D01*
X67718761Y-113138380D01*
X67694952Y-113114571D01*
X67671142Y-113066952D01*
X67647333Y-112971714D01*
X67647333Y-112852666D01*
X67671142Y-112757428D01*
X67694952Y-112709809D01*
X67718761Y-112686000D01*
X67766380Y-112662190D01*
X68433047Y-113162190D02*
X68266380Y-112924095D01*
X68147333Y-113162190D02*
X68147333Y-112662190D01*
X68337809Y-112662190D01*
X68385428Y-112686000D01*
X68409238Y-112709809D01*
X68433047Y-112757428D01*
X68433047Y-112828857D01*
X68409238Y-112876476D01*
X68385428Y-112900285D01*
X68337809Y-112924095D01*
X68147333Y-112924095D01*
X67242571Y-111732190D02*
X67075904Y-111494095D01*
X66956857Y-111732190D02*
X66956857Y-111232190D01*
X67147333Y-111232190D01*
X67194952Y-111256000D01*
X67218761Y-111279809D01*
X67242571Y-111327428D01*
X67242571Y-111398857D01*
X67218761Y-111446476D01*
X67194952Y-111470285D01*
X67147333Y-111494095D01*
X66956857Y-111494095D01*
X67718761Y-111732190D02*
X67433047Y-111732190D01*
X67575904Y-111732190D02*
X67575904Y-111232190D01*
X67528285Y-111303619D01*
X67480666Y-111351238D01*
X67433047Y-111375047D01*
X67885428Y-111232190D02*
X68194952Y-111232190D01*
X68028285Y-111422666D01*
X68099714Y-111422666D01*
X68147333Y-111446476D01*
X68171142Y-111470285D01*
X68194952Y-111517904D01*
X68194952Y-111636952D01*
X68171142Y-111684571D01*
X68147333Y-111708380D01*
X68099714Y-111732190D01*
X67956857Y-111732190D01*
X67909238Y-111708380D01*
X67885428Y-111684571D01*
%TO.C,Q1*%
X63793857Y-96190309D02*
X63817666Y-96166500D01*
X63865285Y-96142690D01*
X63984333Y-96142690D01*
X64031952Y-96166500D01*
X64055761Y-96190309D01*
X64079571Y-96237928D01*
X64079571Y-96285547D01*
X64055761Y-96356976D01*
X63770047Y-96642690D01*
X64079571Y-96642690D01*
X64293857Y-96642690D02*
X64293857Y-96142690D01*
X64579571Y-96642690D01*
X64579571Y-96142690D01*
X64770047Y-96142690D02*
X65103380Y-96142690D01*
X64889095Y-96642690D01*
X65389095Y-96142690D02*
X65436714Y-96142690D01*
X65484333Y-96166500D01*
X65508142Y-96190309D01*
X65531952Y-96237928D01*
X65555761Y-96333166D01*
X65555761Y-96452214D01*
X65531952Y-96547452D01*
X65508142Y-96595071D01*
X65484333Y-96618880D01*
X65436714Y-96642690D01*
X65389095Y-96642690D01*
X65341476Y-96618880D01*
X65317666Y-96595071D01*
X65293857Y-96547452D01*
X65270047Y-96452214D01*
X65270047Y-96333166D01*
X65293857Y-96237928D01*
X65317666Y-96190309D01*
X65341476Y-96166500D01*
X65389095Y-96142690D01*
X65865285Y-96142690D02*
X65912904Y-96142690D01*
X65960523Y-96166500D01*
X65984333Y-96190309D01*
X66008142Y-96237928D01*
X66031952Y-96333166D01*
X66031952Y-96452214D01*
X66008142Y-96547452D01*
X65984333Y-96595071D01*
X65960523Y-96618880D01*
X65912904Y-96642690D01*
X65865285Y-96642690D01*
X65817666Y-96618880D01*
X65793857Y-96595071D01*
X65770047Y-96547452D01*
X65746238Y-96452214D01*
X65746238Y-96333166D01*
X65770047Y-96237928D01*
X65793857Y-96190309D01*
X65817666Y-96166500D01*
X65865285Y-96142690D01*
X66222428Y-96190309D02*
X66246238Y-96166500D01*
X66293857Y-96142690D01*
X66412904Y-96142690D01*
X66460523Y-96166500D01*
X66484333Y-96190309D01*
X66508142Y-96237928D01*
X66508142Y-96285547D01*
X66484333Y-96356976D01*
X66198619Y-96642690D01*
X66508142Y-96642690D01*
X65424809Y-93964119D02*
X65401000Y-94011738D01*
X65353380Y-94059357D01*
X65281952Y-94130785D01*
X65258142Y-94178404D01*
X65258142Y-94226023D01*
X65377190Y-94202214D02*
X65353380Y-94249833D01*
X65305761Y-94297452D01*
X65210523Y-94321261D01*
X65043857Y-94321261D01*
X64948619Y-94297452D01*
X64901000Y-94249833D01*
X64877190Y-94202214D01*
X64877190Y-94106976D01*
X64901000Y-94059357D01*
X64948619Y-94011738D01*
X65043857Y-93987928D01*
X65210523Y-93987928D01*
X65305761Y-94011738D01*
X65353380Y-94059357D01*
X65377190Y-94106976D01*
X65377190Y-94202214D01*
X65377190Y-93511738D02*
X65377190Y-93797452D01*
X65377190Y-93654595D02*
X64877190Y-93654595D01*
X64948619Y-93702214D01*
X64996238Y-93749833D01*
X65020047Y-93797452D01*
%TO.C,D1*%
X66195771Y-111400990D02*
X65957676Y-111400990D01*
X65957676Y-110900990D01*
X66362438Y-111139085D02*
X66529104Y-111139085D01*
X66600533Y-111400990D02*
X66362438Y-111400990D01*
X66362438Y-110900990D01*
X66600533Y-110900990D01*
X66814819Y-111400990D02*
X66814819Y-110900990D01*
X66933866Y-110900990D01*
X67005295Y-110924800D01*
X67052914Y-110972419D01*
X67076723Y-111020038D01*
X67100533Y-111115276D01*
X67100533Y-111186704D01*
X67076723Y-111281942D01*
X67052914Y-111329561D01*
X67005295Y-111377180D01*
X66933866Y-111400990D01*
X66814819Y-111400990D01*
X67195771Y-111448609D02*
X67576723Y-111448609D01*
X67957676Y-110924800D02*
X67910057Y-110900990D01*
X67838628Y-110900990D01*
X67767200Y-110924800D01*
X67719580Y-110972419D01*
X67695771Y-111020038D01*
X67671961Y-111115276D01*
X67671961Y-111186704D01*
X67695771Y-111281942D01*
X67719580Y-111329561D01*
X67767200Y-111377180D01*
X67838628Y-111400990D01*
X67886247Y-111400990D01*
X67957676Y-111377180D01*
X67981485Y-111353371D01*
X67981485Y-111186704D01*
X67886247Y-111186704D01*
X68195771Y-111400990D02*
X68195771Y-111067657D01*
X68195771Y-111162895D02*
X68219580Y-111115276D01*
X68243390Y-111091466D01*
X68291009Y-111067657D01*
X68338628Y-111067657D01*
X68695771Y-111377180D02*
X68648152Y-111400990D01*
X68552914Y-111400990D01*
X68505295Y-111377180D01*
X68481485Y-111329561D01*
X68481485Y-111139085D01*
X68505295Y-111091466D01*
X68552914Y-111067657D01*
X68648152Y-111067657D01*
X68695771Y-111091466D01*
X68719580Y-111139085D01*
X68719580Y-111186704D01*
X68481485Y-111234323D01*
X69124342Y-111377180D02*
X69076723Y-111400990D01*
X68981485Y-111400990D01*
X68933866Y-111377180D01*
X68910057Y-111329561D01*
X68910057Y-111139085D01*
X68933866Y-111091466D01*
X68981485Y-111067657D01*
X69076723Y-111067657D01*
X69124342Y-111091466D01*
X69148152Y-111139085D01*
X69148152Y-111186704D01*
X68910057Y-111234323D01*
X69362438Y-111067657D02*
X69362438Y-111400990D01*
X69362438Y-111115276D02*
X69386247Y-111091466D01*
X69433866Y-111067657D01*
X69505295Y-111067657D01*
X69552914Y-111091466D01*
X69576723Y-111139085D01*
X69576723Y-111400990D01*
X67398152Y-109750990D02*
X67398152Y-109250990D01*
X67517200Y-109250990D01*
X67588628Y-109274800D01*
X67636247Y-109322419D01*
X67660057Y-109370038D01*
X67683866Y-109465276D01*
X67683866Y-109536704D01*
X67660057Y-109631942D01*
X67636247Y-109679561D01*
X67588628Y-109727180D01*
X67517200Y-109750990D01*
X67398152Y-109750990D01*
X68160057Y-109750990D02*
X67874342Y-109750990D01*
X68017200Y-109750990D02*
X68017200Y-109250990D01*
X67969580Y-109322419D01*
X67921961Y-109370038D01*
X67874342Y-109393847D01*
%TO.C,C4*%
X66307190Y-102778642D02*
X66307190Y-102731023D01*
X66331000Y-102683404D01*
X66354809Y-102659595D01*
X66402428Y-102635785D01*
X66497666Y-102611976D01*
X66616714Y-102611976D01*
X66711952Y-102635785D01*
X66759571Y-102659595D01*
X66783380Y-102683404D01*
X66807190Y-102731023D01*
X66807190Y-102778642D01*
X66783380Y-102826261D01*
X66759571Y-102850071D01*
X66711952Y-102873880D01*
X66616714Y-102897690D01*
X66497666Y-102897690D01*
X66402428Y-102873880D01*
X66354809Y-102850071D01*
X66331000Y-102826261D01*
X66307190Y-102778642D01*
X66759571Y-102397690D02*
X66783380Y-102373880D01*
X66807190Y-102397690D01*
X66783380Y-102421500D01*
X66759571Y-102397690D01*
X66807190Y-102397690D01*
X66807190Y-101897690D02*
X66807190Y-102183404D01*
X66807190Y-102040547D02*
X66307190Y-102040547D01*
X66378619Y-102088166D01*
X66426238Y-102135785D01*
X66450047Y-102183404D01*
X66473857Y-101469119D02*
X66807190Y-101469119D01*
X66473857Y-101683404D02*
X66735761Y-101683404D01*
X66783380Y-101659595D01*
X66807190Y-101611976D01*
X66807190Y-101540547D01*
X66783380Y-101492928D01*
X66759571Y-101469119D01*
X65067666Y-102350071D02*
X65043857Y-102373880D01*
X64972428Y-102397690D01*
X64924809Y-102397690D01*
X64853380Y-102373880D01*
X64805761Y-102326261D01*
X64781952Y-102278642D01*
X64758142Y-102183404D01*
X64758142Y-102111976D01*
X64781952Y-102016738D01*
X64805761Y-101969119D01*
X64853380Y-101921500D01*
X64924809Y-101897690D01*
X64972428Y-101897690D01*
X65043857Y-101921500D01*
X65067666Y-101945309D01*
X65496238Y-102064357D02*
X65496238Y-102397690D01*
X65377190Y-101873880D02*
X65258142Y-102231023D01*
X65567666Y-102231023D01*
%TO.C,C3*%
X73116257Y-108598190D02*
X73163876Y-108598190D01*
X73211495Y-108622000D01*
X73235304Y-108645809D01*
X73259114Y-108693428D01*
X73282923Y-108788666D01*
X73282923Y-108907714D01*
X73259114Y-109002952D01*
X73235304Y-109050571D01*
X73211495Y-109074380D01*
X73163876Y-109098190D01*
X73116257Y-109098190D01*
X73068638Y-109074380D01*
X73044828Y-109050571D01*
X73021019Y-109002952D01*
X72997209Y-108907714D01*
X72997209Y-108788666D01*
X73021019Y-108693428D01*
X73044828Y-108645809D01*
X73068638Y-108622000D01*
X73116257Y-108598190D01*
X73497209Y-109050571D02*
X73521019Y-109074380D01*
X73497209Y-109098190D01*
X73473400Y-109074380D01*
X73497209Y-109050571D01*
X73497209Y-109098190D01*
X73997209Y-109098190D02*
X73711495Y-109098190D01*
X73854352Y-109098190D02*
X73854352Y-108598190D01*
X73806733Y-108669619D01*
X73759114Y-108717238D01*
X73711495Y-108741047D01*
X74425780Y-108764857D02*
X74425780Y-109098190D01*
X74211495Y-108764857D02*
X74211495Y-109026761D01*
X74235304Y-109074380D01*
X74282923Y-109098190D01*
X74354352Y-109098190D01*
X74401971Y-109074380D01*
X74425780Y-109050571D01*
X73640066Y-107620571D02*
X73616257Y-107644380D01*
X73544828Y-107668190D01*
X73497209Y-107668190D01*
X73425780Y-107644380D01*
X73378161Y-107596761D01*
X73354352Y-107549142D01*
X73330542Y-107453904D01*
X73330542Y-107382476D01*
X73354352Y-107287238D01*
X73378161Y-107239619D01*
X73425780Y-107192000D01*
X73497209Y-107168190D01*
X73544828Y-107168190D01*
X73616257Y-107192000D01*
X73640066Y-107215809D01*
X73806733Y-107168190D02*
X74116257Y-107168190D01*
X73949590Y-107358666D01*
X74021019Y-107358666D01*
X74068638Y-107382476D01*
X74092447Y-107406285D01*
X74116257Y-107453904D01*
X74116257Y-107572952D01*
X74092447Y-107620571D01*
X74068638Y-107644380D01*
X74021019Y-107668190D01*
X73878161Y-107668190D01*
X73830542Y-107644380D01*
X73806733Y-107620571D01*
%TO.C,C2*%
X69935019Y-107385657D02*
X69935019Y-107718990D01*
X69815971Y-107195180D02*
X69696923Y-107552323D01*
X70006447Y-107552323D01*
X70196923Y-107671371D02*
X70220733Y-107695180D01*
X70196923Y-107718990D01*
X70173114Y-107695180D01*
X70196923Y-107671371D01*
X70196923Y-107718990D01*
X70387400Y-107218990D02*
X70720733Y-107218990D01*
X70506447Y-107718990D01*
X71125495Y-107385657D02*
X71125495Y-107718990D01*
X70911209Y-107385657D02*
X70911209Y-107647561D01*
X70935019Y-107695180D01*
X70982638Y-107718990D01*
X71054066Y-107718990D01*
X71101685Y-107695180D01*
X71125495Y-107671371D01*
X71530257Y-107457085D02*
X71363590Y-107457085D01*
X71363590Y-107718990D02*
X71363590Y-107218990D01*
X71601685Y-107218990D01*
X70554066Y-107620571D02*
X70530257Y-107644380D01*
X70458828Y-107668190D01*
X70411209Y-107668190D01*
X70339780Y-107644380D01*
X70292161Y-107596761D01*
X70268352Y-107549142D01*
X70244542Y-107453904D01*
X70244542Y-107382476D01*
X70268352Y-107287238D01*
X70292161Y-107239619D01*
X70339780Y-107192000D01*
X70411209Y-107168190D01*
X70458828Y-107168190D01*
X70530257Y-107192000D01*
X70554066Y-107215809D01*
X70744542Y-107215809D02*
X70768352Y-107192000D01*
X70815971Y-107168190D01*
X70935019Y-107168190D01*
X70982638Y-107192000D01*
X71006447Y-107215809D01*
X71030257Y-107263428D01*
X71030257Y-107311047D01*
X71006447Y-107382476D01*
X70720733Y-107668190D01*
X71030257Y-107668190D01*
%TO.C,C1*%
X69934919Y-114302057D02*
X69934919Y-114635390D01*
X69815871Y-114111580D02*
X69696823Y-114468723D01*
X70006347Y-114468723D01*
X70196823Y-114587771D02*
X70220633Y-114611580D01*
X70196823Y-114635390D01*
X70173014Y-114611580D01*
X70196823Y-114587771D01*
X70196823Y-114635390D01*
X70387300Y-114135390D02*
X70720633Y-114135390D01*
X70506347Y-114635390D01*
X71125395Y-114302057D02*
X71125395Y-114635390D01*
X70911109Y-114302057D02*
X70911109Y-114563961D01*
X70934919Y-114611580D01*
X70982538Y-114635390D01*
X71053966Y-114635390D01*
X71101585Y-114611580D01*
X71125395Y-114587771D01*
X71530157Y-114373485D02*
X71363490Y-114373485D01*
X71363490Y-114635390D02*
X71363490Y-114135390D01*
X71601585Y-114135390D01*
X70553966Y-113157771D02*
X70530157Y-113181580D01*
X70458728Y-113205390D01*
X70411109Y-113205390D01*
X70339680Y-113181580D01*
X70292061Y-113133961D01*
X70268252Y-113086342D01*
X70244442Y-112991104D01*
X70244442Y-112919676D01*
X70268252Y-112824438D01*
X70292061Y-112776819D01*
X70339680Y-112729200D01*
X70411109Y-112705390D01*
X70458728Y-112705390D01*
X70530157Y-112729200D01*
X70553966Y-112753009D01*
X71030157Y-113205390D02*
X70744442Y-113205390D01*
X70887300Y-113205390D02*
X70887300Y-112705390D01*
X70839680Y-112776819D01*
X70792061Y-112824438D01*
X70744442Y-112848247D01*
%TO.C,R9*%
X63075380Y-111795690D02*
X62789666Y-111795690D01*
X62932523Y-111795690D02*
X62932523Y-111295690D01*
X62884904Y-111367119D01*
X62837285Y-111414738D01*
X62789666Y-111438547D01*
X63384904Y-111295690D02*
X63432523Y-111295690D01*
X63480142Y-111319500D01*
X63503952Y-111343309D01*
X63527761Y-111390928D01*
X63551571Y-111486166D01*
X63551571Y-111605214D01*
X63527761Y-111700452D01*
X63503952Y-111748071D01*
X63480142Y-111771880D01*
X63432523Y-111795690D01*
X63384904Y-111795690D01*
X63337285Y-111771880D01*
X63313476Y-111748071D01*
X63289666Y-111700452D01*
X63265857Y-111605214D01*
X63265857Y-111486166D01*
X63289666Y-111390928D01*
X63313476Y-111343309D01*
X63337285Y-111319500D01*
X63384904Y-111295690D01*
X63765857Y-111795690D02*
X63765857Y-111295690D01*
X63813476Y-111605214D02*
X63956333Y-111795690D01*
X63956333Y-111462357D02*
X63765857Y-111652833D01*
X63238766Y-111732190D02*
X63072100Y-111494095D01*
X62953052Y-111732190D02*
X62953052Y-111232190D01*
X63143528Y-111232190D01*
X63191147Y-111256000D01*
X63214957Y-111279809D01*
X63238766Y-111327428D01*
X63238766Y-111398857D01*
X63214957Y-111446476D01*
X63191147Y-111470285D01*
X63143528Y-111494095D01*
X62953052Y-111494095D01*
X63476861Y-111732190D02*
X63572100Y-111732190D01*
X63619719Y-111708380D01*
X63643528Y-111684571D01*
X63691147Y-111613142D01*
X63714957Y-111517904D01*
X63714957Y-111327428D01*
X63691147Y-111279809D01*
X63667338Y-111256000D01*
X63619719Y-111232190D01*
X63524480Y-111232190D01*
X63476861Y-111256000D01*
X63453052Y-111279809D01*
X63429242Y-111327428D01*
X63429242Y-111446476D01*
X63453052Y-111494095D01*
X63476861Y-111517904D01*
X63524480Y-111541714D01*
X63619719Y-111541714D01*
X63667338Y-111517904D01*
X63691147Y-111494095D01*
X63714957Y-111446476D01*
%TO.C,R8*%
X89211980Y-108879790D02*
X88926266Y-108879790D01*
X89069123Y-108879790D02*
X89069123Y-108379790D01*
X89021504Y-108451219D01*
X88973885Y-108498838D01*
X88926266Y-108522647D01*
X89521504Y-108379790D02*
X89569123Y-108379790D01*
X89616742Y-108403600D01*
X89640552Y-108427409D01*
X89664361Y-108475028D01*
X89688171Y-108570266D01*
X89688171Y-108689314D01*
X89664361Y-108784552D01*
X89640552Y-108832171D01*
X89616742Y-108855980D01*
X89569123Y-108879790D01*
X89521504Y-108879790D01*
X89473885Y-108855980D01*
X89450076Y-108832171D01*
X89426266Y-108784552D01*
X89402457Y-108689314D01*
X89402457Y-108570266D01*
X89426266Y-108475028D01*
X89450076Y-108427409D01*
X89473885Y-108403600D01*
X89521504Y-108379790D01*
X89902457Y-108879790D02*
X89902457Y-108379790D01*
X89950076Y-108689314D02*
X90092933Y-108879790D01*
X90092933Y-108546457D02*
X89902457Y-108736933D01*
X89426266Y-110309790D02*
X89259600Y-110071695D01*
X89140552Y-110309790D02*
X89140552Y-109809790D01*
X89331028Y-109809790D01*
X89378647Y-109833600D01*
X89402457Y-109857409D01*
X89426266Y-109905028D01*
X89426266Y-109976457D01*
X89402457Y-110024076D01*
X89378647Y-110047885D01*
X89331028Y-110071695D01*
X89140552Y-110071695D01*
X89711980Y-110024076D02*
X89664361Y-110000266D01*
X89640552Y-109976457D01*
X89616742Y-109928838D01*
X89616742Y-109905028D01*
X89640552Y-109857409D01*
X89664361Y-109833600D01*
X89711980Y-109809790D01*
X89807219Y-109809790D01*
X89854838Y-109833600D01*
X89878647Y-109857409D01*
X89902457Y-109905028D01*
X89902457Y-109928838D01*
X89878647Y-109976457D01*
X89854838Y-110000266D01*
X89807219Y-110024076D01*
X89711980Y-110024076D01*
X89664361Y-110047885D01*
X89640552Y-110071695D01*
X89616742Y-110119314D01*
X89616742Y-110214552D01*
X89640552Y-110262171D01*
X89664361Y-110285980D01*
X89711980Y-110309790D01*
X89807219Y-110309790D01*
X89854838Y-110285980D01*
X89878647Y-110262171D01*
X89902457Y-110214552D01*
X89902457Y-110119314D01*
X89878647Y-110071695D01*
X89854838Y-110047885D01*
X89807219Y-110024076D01*
%TO.C,U7*%
X88792857Y-104433333D02*
X88792857Y-104242857D01*
X88626190Y-104361904D02*
X89054761Y-104361904D01*
X89102380Y-104338095D01*
X89126190Y-104290476D01*
X89126190Y-104242857D01*
X88792857Y-104147619D02*
X88792857Y-103957142D01*
X88626190Y-104076190D02*
X89054761Y-104076190D01*
X89102380Y-104052380D01*
X89126190Y-104004761D01*
X89126190Y-103957142D01*
X88792857Y-103576190D02*
X89197619Y-103576190D01*
X89245238Y-103600000D01*
X89269047Y-103623809D01*
X89292857Y-103671428D01*
X89292857Y-103742857D01*
X89269047Y-103790476D01*
X89102380Y-103576190D02*
X89126190Y-103623809D01*
X89126190Y-103719047D01*
X89102380Y-103766666D01*
X89078571Y-103790476D01*
X89030952Y-103814285D01*
X88888095Y-103814285D01*
X88840476Y-103790476D01*
X88816666Y-103766666D01*
X88792857Y-103719047D01*
X88792857Y-103623809D01*
X88816666Y-103576190D01*
X89126190Y-103266666D02*
X89102380Y-103314285D01*
X89078571Y-103338095D01*
X89030952Y-103361904D01*
X88888095Y-103361904D01*
X88840476Y-103338095D01*
X88816666Y-103314285D01*
X88792857Y-103266666D01*
X88792857Y-103195238D01*
X88816666Y-103147619D01*
X88840476Y-103123809D01*
X88888095Y-103100000D01*
X89030952Y-103100000D01*
X89078571Y-103123809D01*
X89102380Y-103147619D01*
X89126190Y-103195238D01*
X89126190Y-103266666D01*
X88935714Y-102885714D02*
X88935714Y-102504761D01*
X88626190Y-102314285D02*
X88626190Y-102004761D01*
X88816666Y-102171428D01*
X88816666Y-102100000D01*
X88840476Y-102052380D01*
X88864285Y-102028571D01*
X88911904Y-102004761D01*
X89030952Y-102004761D01*
X89078571Y-102028571D01*
X89102380Y-102052380D01*
X89126190Y-102100000D01*
X89126190Y-102242857D01*
X89102380Y-102290476D01*
X89078571Y-102314285D01*
X88673809Y-101814285D02*
X88650000Y-101790476D01*
X88626190Y-101742857D01*
X88626190Y-101623809D01*
X88650000Y-101576190D01*
X88673809Y-101552380D01*
X88721428Y-101528571D01*
X88769047Y-101528571D01*
X88840476Y-101552380D01*
X89126190Y-101838095D01*
X89126190Y-101528571D01*
X88935714Y-101314285D02*
X88935714Y-100933333D01*
X89126190Y-100695238D02*
X88792857Y-100695238D01*
X88840476Y-100695238D02*
X88816666Y-100671428D01*
X88792857Y-100623809D01*
X88792857Y-100552380D01*
X88816666Y-100504761D01*
X88864285Y-100480952D01*
X89126190Y-100480952D01*
X88864285Y-100480952D02*
X88816666Y-100457142D01*
X88792857Y-100409523D01*
X88792857Y-100338095D01*
X88816666Y-100290476D01*
X88864285Y-100266666D01*
X89126190Y-100266666D01*
X89126190Y-100028571D02*
X88792857Y-100028571D01*
X88626190Y-100028571D02*
X88650000Y-100052380D01*
X88673809Y-100028571D01*
X88650000Y-100004761D01*
X88626190Y-100028571D01*
X88673809Y-100028571D01*
X89102380Y-99576190D02*
X89126190Y-99623809D01*
X89126190Y-99719047D01*
X89102380Y-99766666D01*
X89078571Y-99790476D01*
X89030952Y-99814285D01*
X88888095Y-99814285D01*
X88840476Y-99790476D01*
X88816666Y-99766666D01*
X88792857Y-99719047D01*
X88792857Y-99623809D01*
X88816666Y-99576190D01*
X89126190Y-99361904D02*
X88792857Y-99361904D01*
X88888095Y-99361904D02*
X88840476Y-99338095D01*
X88816666Y-99314285D01*
X88792857Y-99266666D01*
X88792857Y-99219047D01*
X89126190Y-98980952D02*
X89102380Y-99028571D01*
X89078571Y-99052380D01*
X89030952Y-99076190D01*
X88888095Y-99076190D01*
X88840476Y-99052380D01*
X88816666Y-99028571D01*
X88792857Y-98980952D01*
X88792857Y-98909523D01*
X88816666Y-98861904D01*
X88840476Y-98838095D01*
X88888095Y-98814285D01*
X89030952Y-98814285D01*
X89078571Y-98838095D01*
X89102380Y-98861904D01*
X89126190Y-98909523D01*
X89126190Y-98980952D01*
%TD*%
M02*
