%TF.GenerationSoftware,KiCad,Pcbnew,5.1.7+dfsg1-1~bpo10+1*%
%TF.CreationDate,Date%
%TF.ProjectId,osw-light,6f73772d-6c69-4676-9874-2e6b69636164,3.2*%
%TF.SameCoordinates,Original*%
%TF.FileFunction,Plated,1,4,PTH,Mixed*%
%TF.FilePolarity,Positive*%
%FSLAX46Y46*%
G04 Gerber Fmt 4.6, Leading zero omitted, Abs format (unit mm)*
G04 Created by KiCad*
%MOMM*%
%LPD*%
G01*
G04 APERTURE LIST*
%TA.AperFunction,ViaDrill*%
%ADD10C,0.330200*%
%TD*%
%TA.AperFunction,ViaDrill*%
%ADD11C,0.400000*%
%TD*%
G04 aperture for slot hole*
%TA.AperFunction,ComponentDrill*%
%ADD12C,0.750000*%
%TD*%
G04 APERTURE END LIST*
D10*
X59055000Y-98552000D03*
X59372500Y-97218500D03*
X59690000Y-107442000D03*
X60274200Y-108559600D03*
X60833000Y-109651800D03*
X61061600Y-108000800D03*
X61264800Y-92557600D03*
X61264800Y-110642400D03*
X62166500Y-96456500D03*
X62788800Y-112776000D03*
X63055500Y-94424500D03*
X63119000Y-101498500D03*
X63449200Y-113487200D03*
X63703200Y-106883200D03*
X63881000Y-93980000D03*
X64284973Y-96598527D03*
X65060386Y-97373941D03*
X65074800Y-111556800D03*
X65125600Y-108153200D03*
X65328800Y-109982000D03*
X65341500Y-95059500D03*
X65405000Y-93916500D03*
X66611500Y-96710500D03*
X66774068Y-106740292D03*
X68122800Y-89916000D03*
X68212910Y-101402887D03*
X68630800Y-108000800D03*
X68630800Y-112776000D03*
X68783200Y-97154900D03*
X69849900Y-107442000D03*
X70154800Y-85242400D03*
X70205600Y-100177600D03*
X70307200Y-117906800D03*
X70358000Y-98392100D03*
X70967600Y-116230400D03*
X71018400Y-96266000D03*
X71069200Y-94437200D03*
X71221600Y-118211600D03*
X71399500Y-102158800D03*
X71424800Y-107137200D03*
X71424800Y-107899200D03*
X71424800Y-108661200D03*
X71424800Y-109423200D03*
X71628000Y-114452400D03*
X71729600Y-110917100D03*
X72781323Y-100548277D03*
X73456800Y-97231200D03*
X74472800Y-103200200D03*
X74498300Y-98247200D03*
X74726800Y-91897200D03*
X74726800Y-109016800D03*
X74777600Y-100126800D03*
X75394514Y-106531819D03*
X75613610Y-95273210D03*
X76250800Y-109016800D03*
X76336000Y-98044000D03*
X76336000Y-99060000D03*
X76336000Y-100076000D03*
X77165200Y-95097600D03*
X77419200Y-88595200D03*
X78587600Y-96824800D03*
X78587600Y-101142800D03*
X78740000Y-103892410D03*
X78740000Y-109372400D03*
X78994000Y-106067410D03*
X79215001Y-90355499D03*
X79692500Y-91694000D03*
X79692500Y-92579803D03*
X80060800Y-109982000D03*
X80365600Y-84683600D03*
X80404251Y-111905123D03*
X80924400Y-118414800D03*
X81229200Y-84886800D03*
X81432400Y-109880400D03*
X81534000Y-116027200D03*
X81584800Y-111353600D03*
X81635600Y-114198400D03*
X81661000Y-93218000D03*
X81889600Y-118110000D03*
X81915000Y-87630000D03*
X82245200Y-85191600D03*
X82245200Y-112585500D03*
X82740500Y-90106500D03*
X82740500Y-93027500D03*
X82753200Y-96367600D03*
X82804000Y-106426000D03*
X82956400Y-105342410D03*
X83464400Y-88544400D03*
X83515200Y-114706400D03*
X83756500Y-90678000D03*
X83820000Y-106832400D03*
X83870800Y-96875600D03*
X83947000Y-93218000D03*
X84077622Y-110615633D03*
X85242400Y-113944400D03*
X85699600Y-106222800D03*
X85744189Y-94278311D03*
X86156800Y-104495600D03*
X86677500Y-90620899D03*
X86740606Y-94330174D03*
X86867747Y-92709747D03*
X86868000Y-103060500D03*
X87122000Y-110134400D03*
X87528400Y-113131600D03*
X87884000Y-103733600D03*
X87934800Y-100939600D03*
X88188800Y-90525600D03*
X88442800Y-113944400D03*
X88722100Y-110083600D03*
X88798400Y-106172000D03*
X88900000Y-108100000D03*
X88950800Y-96570800D03*
X88950800Y-104597200D03*
X89154000Y-113334800D03*
X89535000Y-92837000D03*
X89662000Y-90449400D03*
X89789000Y-103568500D03*
X89865200Y-112496600D03*
X90864704Y-96082901D03*
X90864704Y-104369514D03*
X90932000Y-105714800D03*
X91135200Y-110680500D03*
X91541600Y-93421200D03*
X91592400Y-109626400D03*
D11*
X75475000Y-113792000D03*
X77958703Y-112312203D03*
D12*
%TO.C,U5*%
X73152000Y-118017500D02*
X73152000Y-117567500D01*
X79248000Y-118017500D02*
X79248000Y-117567500D01*
M02*
