M48
; DRILL file {KiCad 5.1.7+dfsg1-1~bpo10+1} date Sun Jan  3 14:16:25 2021
; FORMAT={-:-/ absolute / metric / decimal}
; #@! TF.CreationDate,2021-01-03T14:16:25+00:00
; #@! TF.GenerationSoftware,Kicad,Pcbnew,5.1.7+dfsg1-1~bpo10+1
; #@! TF.FileFunction,Plated,1,4,PTH
FMAT,2
METRIC
T1C0.330
T2C0.400
T3C0.750
%
G90
G05
T1
X59.055Y-98.552
X59.372Y-97.218
X59.69Y-107.442
X60.274Y-108.56
X60.833Y-109.652
X61.062Y-108.001
X61.265Y-92.558
X61.265Y-110.642
X62.166Y-96.456
X62.789Y-112.776
X63.055Y-94.424
X63.119Y-101.498
X63.449Y-113.487
X63.703Y-106.883
X63.881Y-93.98
X64.285Y-96.599
X65.06Y-97.374
X65.075Y-111.557
X65.126Y-108.153
X65.329Y-109.982
X65.341Y-95.059
X65.405Y-93.916
X66.611Y-96.71
X66.774Y-106.74
X68.123Y-89.916
X68.213Y-101.403
X68.631Y-108.001
X68.631Y-112.776
X68.783Y-97.155
X69.85Y-107.442
X70.155Y-85.242
X70.206Y-100.178
X70.307Y-117.907
X70.358Y-98.392
X70.968Y-116.23
X71.018Y-96.266
X71.069Y-94.437
X71.222Y-118.212
X71.4Y-102.159
X71.425Y-107.137
X71.425Y-107.899
X71.425Y-108.661
X71.425Y-109.423
X71.628Y-114.452
X71.73Y-110.917
X72.781Y-100.548
X73.457Y-97.231
X74.473Y-103.2
X74.498Y-98.247
X74.727Y-91.897
X74.727Y-109.017
X74.778Y-100.127
X75.395Y-106.532
X75.614Y-95.273
X76.251Y-109.017
X76.336Y-98.044
X76.336Y-99.06
X76.336Y-100.076
X77.165Y-95.098
X77.419Y-88.595
X78.588Y-96.825
X78.588Y-101.143
X78.74Y-103.892
X78.74Y-109.372
X78.994Y-106.067
X79.215Y-90.355
X79.692Y-91.694
X79.692Y-92.58
X80.061Y-109.982
X80.366Y-84.684
X80.404Y-111.905
X80.924Y-118.415
X81.229Y-84.887
X81.432Y-109.88
X81.534Y-116.027
X81.585Y-111.354
X81.636Y-114.198
X81.661Y-93.218
X81.89Y-118.11
X81.915Y-87.63
X82.245Y-85.192
X82.245Y-112.585
X82.74Y-90.106
X82.74Y-93.027
X82.753Y-96.368
X82.804Y-106.426
X82.956Y-105.342
X83.464Y-88.544
X83.515Y-114.706
X83.757Y-90.678
X83.82Y-106.832
X83.871Y-96.876
X83.947Y-93.218
X84.078Y-110.616
X85.242Y-113.944
X85.7Y-106.223
X85.744Y-94.278
X86.157Y-104.496
X86.677Y-90.621
X86.741Y-94.33
X86.868Y-92.71
X86.868Y-103.06
X87.122Y-110.134
X87.528Y-113.132
X87.884Y-103.734
X87.935Y-100.94
X88.189Y-90.526
X88.443Y-113.944
X88.722Y-110.084
X88.798Y-106.172
X88.9Y-108.1
X88.951Y-96.571
X88.951Y-104.597
X89.154Y-113.335
X89.535Y-92.837
X89.662Y-90.449
X89.789Y-103.569
X89.865Y-112.497
X90.865Y-96.083
X90.865Y-104.37
X90.932Y-105.715
X91.135Y-110.68
X91.542Y-93.421
X91.592Y-109.626
T2
X75.475Y-113.792
X77.959Y-112.312
T3
G00X73.152Y-117.567
M15
G01X73.152Y-118.017
M16
G05
G00X79.248Y-117.567
M15
G01X79.248Y-118.017
M16
G05
T0
M30
