%TF.GenerationSoftware,KiCad,Pcbnew,5.1.5+dfsg1-2~bpo10+1*%
%TF.CreationDate,Date%
%TF.ProjectId,osw,6f73772e-6b69-4636-9164-5f7063625858,1.0*%
%TF.SameCoordinates,Original*%
%TF.FileFunction,Copper,L4,Bot*%
%TF.FilePolarity,Positive*%
%FSLAX46Y46*%
G04 Gerber Fmt 4.6, Leading zero omitted, Abs format (unit mm)*
G04 Created by KiCad*
%MOMM*%
%LPD*%
G04 APERTURE LIST*
%TA.AperFunction,SMDPad,CuDef*%
%ADD10R,2.500000X0.350000*%
%TD*%
%TA.AperFunction,ComponentPad*%
%ADD11O,1.500000X2.000000*%
%TD*%
%TA.AperFunction,ViaPad*%
%ADD12C,0.800000*%
%TD*%
%TA.AperFunction,Conductor*%
%ADD13C,0.300000*%
%TD*%
%TA.AperFunction,Conductor*%
%ADD14C,0.600000*%
%TD*%
%TA.AperFunction,Conductor*%
%ADD15C,0.400000*%
%TD*%
%TA.AperFunction,Conductor*%
%ADD16C,0.200000*%
%TD*%
%TA.AperFunction,Conductor*%
%ADD17C,0.700000*%
%TD*%
%TA.AperFunction,Conductor*%
%ADD18C,0.100000*%
%TD*%
%ADD19C,0.350000*%
%ADD20O,0.999999X0.999999*%
%ADD21O,0.750000X1.200000*%
G04 APERTURE END LIST*
D10*
%TO.P,U4,6*%
%TO.N,GND*%
X151380000Y-108870000D03*
%TO.P,U4,5*%
X151380000Y-108170000D03*
%TO.P,U4,4*%
%TO.N,/3V3_2*%
X151380000Y-107470000D03*
%TO.P,U4,3*%
%TO.N,Net-(R1-Pad2)*%
X151380000Y-106770000D03*
%TO.P,U4,2*%
%TO.N,/LEDK*%
X151380000Y-106070000D03*
%TO.P,U4,1*%
%TO.N,GND*%
X151380000Y-105370000D03*
%TO.P,U4,7*%
%TO.N,/TFT_DC*%
X151380000Y-109570000D03*
%TO.P,U4,8*%
%TO.N,/TFT_CS*%
X151380000Y-110270000D03*
%TO.P,U4,9*%
%TO.N,/SCK*%
X151380000Y-110970000D03*
%TO.P,U4,10*%
%TO.N,/MOSI*%
X151380000Y-111670000D03*
%TO.P,U4,11*%
%TO.N,/TFT_RST*%
X151380000Y-112370000D03*
%TO.P,U4,12*%
%TO.N,GND*%
X151380000Y-113070000D03*
%TD*%
D11*
%TO.P,U5,*%
%TO.N,*%
X163048000Y-128627000D03*
X156952000Y-128627000D03*
%TD*%
D12*
%TO.N,/EN*%
X179380560Y-118594144D03*
X167309800Y-124815600D03*
%TO.N,+3V3*%
X171018200Y-118592600D03*
X166344600Y-118592600D03*
X154635200Y-124612400D03*
X158191200Y-118745000D03*
X152603200Y-94945200D03*
X154559000Y-105765001D03*
X170789600Y-104419400D03*
X169892624Y-107424576D03*
X169875200Y-110185200D03*
X181875000Y-100558600D03*
X179060300Y-103235300D03*
%TO.N,/FLASH*%
X166827200Y-108534200D03*
X153085800Y-124180600D03*
%TO.N,GND*%
X138379200Y-118999000D03*
X138379200Y-120523000D03*
X138379200Y-121996200D03*
X138379200Y-123494800D03*
X174447788Y-101481207D03*
X176974500Y-103251000D03*
X166141400Y-90125000D03*
X166141400Y-91262200D03*
X166141400Y-92278200D03*
X166141400Y-93294200D03*
X166141400Y-99263200D03*
X166141400Y-98298000D03*
X153847800Y-90125000D03*
X153847800Y-91287600D03*
X153847800Y-94259400D03*
X153847800Y-95300800D03*
X153847800Y-97282000D03*
X153847800Y-98247200D03*
X158013400Y-104368600D03*
X162026600Y-104368600D03*
X165684200Y-105816400D03*
X164490400Y-118364000D03*
X148310600Y-119786400D03*
X145567400Y-119151400D03*
X146380200Y-119151400D03*
X146380200Y-119964200D03*
X145567400Y-119964200D03*
X143840200Y-122478800D03*
X141121136Y-118997736D03*
X157886400Y-115519200D03*
X154609800Y-126695200D03*
X161323206Y-124781113D03*
X158191200Y-122706998D03*
X161318496Y-122719989D03*
X168452800Y-124942600D03*
X169621200Y-121691400D03*
X179959000Y-121716800D03*
X181152800Y-106654600D03*
X161569400Y-120523000D03*
X159969200Y-120497600D03*
X152349200Y-119303800D03*
X149453600Y-105003600D03*
X146939000Y-108254800D03*
X147650200Y-108839000D03*
X154127200Y-104495600D03*
X157835600Y-105816400D03*
X157810200Y-107340400D03*
X141859000Y-95453200D03*
X142595600Y-99237800D03*
X143408400Y-98298000D03*
X138125000Y-94525000D03*
X165658800Y-113538000D03*
X164665778Y-107917098D03*
X172567600Y-125603000D03*
X171754800Y-126238000D03*
X172567600Y-124536200D03*
X154940000Y-129692400D03*
X161874200Y-129819400D03*
X158191200Y-129768600D03*
X165277800Y-129895600D03*
X146558000Y-125018800D03*
X148336000Y-126136400D03*
X139141200Y-94538800D03*
X138176000Y-95504000D03*
X181864000Y-99110800D03*
X181864000Y-94538800D03*
X177469800Y-94691200D03*
X141224000Y-115595400D03*
X181216000Y-121712000D03*
%TO.N,Net-(D1-Pad1)*%
X147108574Y-120895774D03*
X148615400Y-122148600D03*
%TO.N,/LEDK*%
X149352000Y-106070400D03*
%TO.N,/BTN2*%
X150977600Y-98221800D03*
X175082200Y-107462002D03*
%TO.N,/BTN3*%
X169824400Y-105054400D03*
X178333400Y-104978200D03*
%TO.N,/RX*%
X169595800Y-117627400D03*
X167513000Y-122682000D03*
%TO.N,/SCL*%
X174625000Y-103378000D03*
X180340000Y-100012500D03*
X178943000Y-95313500D03*
X169443400Y-119684800D03*
%TO.N,/SDA*%
X178943000Y-96583500D03*
X169595800Y-116586000D03*
X175190685Y-104267000D03*
X178816000Y-99466400D03*
%TO.N,/PIN_LED*%
X158800800Y-114300000D03*
X177317400Y-107619800D03*
%TO.N,/STAT_PWR*%
X168681400Y-106527600D03*
X142189200Y-117271800D03*
%TO.N,/MOSI*%
X166852600Y-120726200D03*
X149453600Y-111658400D03*
%TO.N,/MISO*%
X154076400Y-103479600D03*
X166725600Y-114630200D03*
%TO.N,/IO34*%
X180218731Y-103117636D03*
X181216000Y-116632000D03*
%TO.N,/IO35*%
X181218721Y-103122356D03*
X181216000Y-115616000D03*
%TO.N,Net-(R1-Pad2)*%
X155336142Y-108544458D03*
%TO.N,Net-(R15-Pad1)*%
X141757400Y-122047000D03*
X145542000Y-123977400D03*
%TO.N,/B_MON*%
X145973800Y-97510600D03*
X181216000Y-112568000D03*
%TO.N,/RTC_INT*%
X173761400Y-99237800D03*
X179882800Y-114452400D03*
%TO.N,/TFT_DC*%
X154099398Y-109623087D03*
X179755800Y-108508800D03*
%TO.N,/TFT_CS*%
X149453600Y-110261400D03*
X166852600Y-112572800D03*
%TO.N,/TFT_RST*%
X179082800Y-113639600D03*
%TO.N,/SD_CS*%
X166827200Y-109550200D03*
X154102110Y-108623089D03*
%TO.N,/SCK*%
X153263600Y-111023400D03*
X167289200Y-113584000D03*
%TO.N,/VCC*%
X139379465Y-116515052D03*
X147040600Y-118186200D03*
%TO.N,/3V3_2*%
X155587600Y-107391200D03*
%TO.N,/GPS_RX3V3*%
X161544000Y-105943400D03*
X180140001Y-109432050D03*
%TO.N,/GPS_TX3V3*%
X179959000Y-105689400D03*
X169011600Y-103936800D03*
%TO.N,/GPS_TX2V8*%
X163880800Y-103581200D03*
X166446200Y-104013000D03*
%TO.N,/D2_P*%
X155999000Y-121732000D03*
X159838372Y-124623840D03*
%TO.N,/D2_N*%
X159349999Y-126896865D03*
X156083000Y-124485400D03*
%TD*%
D13*
%TO.N,/EN*%
X167932801Y-124192599D02*
X167309800Y-124815600D01*
X168812801Y-124192599D02*
X167932801Y-124192599D01*
X174411256Y-118594144D02*
X168812801Y-124192599D01*
X179380560Y-118594144D02*
X174411256Y-118594144D01*
D14*
%TO.N,+3V3*%
X171018200Y-118592600D02*
X166344600Y-118592600D01*
D15*
X158191200Y-121056400D02*
X158191200Y-118745000D01*
X154635200Y-124612400D02*
X158191200Y-121056400D01*
X152603200Y-104155602D02*
X154212599Y-105765001D01*
X154212599Y-105765001D02*
X154559000Y-105765001D01*
X152603200Y-94945200D02*
X152603200Y-104155602D01*
D14*
X170789600Y-106527600D02*
X169892624Y-107424576D01*
X170789600Y-104419400D02*
X170789600Y-106527600D01*
X166344600Y-116343202D02*
X166344600Y-118592600D01*
X169875200Y-112812602D02*
X166344600Y-116343202D01*
X169875200Y-110185200D02*
X169875200Y-112812602D01*
D16*
X181875000Y-100558600D02*
X181309315Y-100558600D01*
X179060300Y-102807615D02*
X179060300Y-103235300D01*
X181309315Y-100558600D02*
X179060300Y-102807615D01*
D15*
%TO.N,GND*%
X151013600Y-105003600D02*
X149453600Y-105003600D01*
X151380000Y-105370000D02*
X151013600Y-105003600D01*
X146951601Y-108267401D02*
X146939000Y-108254800D01*
X151282599Y-108267401D02*
X146951601Y-108267401D01*
X151380000Y-108170000D02*
X151282599Y-108267401D01*
X151380000Y-108870000D02*
X151380000Y-108885800D01*
X151333200Y-108839000D02*
X147650200Y-108839000D01*
X151380000Y-108885800D02*
X151333200Y-108839000D01*
D17*
X141224000Y-115595400D02*
X141147800Y-115519200D01*
D15*
%TO.N,Net-(D1-Pad1)*%
X147362574Y-120895774D02*
X148615400Y-122148600D01*
X147108574Y-120895774D02*
X147362574Y-120895774D01*
%TO.N,/LEDK*%
X149352400Y-106070000D02*
X149352000Y-106070400D01*
X151380000Y-106070000D02*
X149352400Y-106070000D01*
%TO.N,/MOSI*%
X149465200Y-111670000D02*
X149453600Y-111658400D01*
X151380000Y-111670000D02*
X149465200Y-111670000D01*
%TO.N,/MISO*%
X157010199Y-107724401D02*
X163915998Y-114630200D01*
X157010199Y-105847714D02*
X157010199Y-107724401D01*
X154642085Y-103479600D02*
X157010199Y-105847714D01*
X163915998Y-114630200D02*
X166725600Y-114630200D01*
X154076400Y-103479600D02*
X154642085Y-103479600D01*
D16*
%TO.N,/IO34*%
X180515999Y-115931999D02*
X181216000Y-116632000D01*
X180582801Y-115213197D02*
X180515999Y-115279999D01*
X180582801Y-114116399D02*
X180582801Y-115213197D01*
X180515999Y-115279999D02*
X180515999Y-115931999D01*
X180218801Y-113752399D02*
X180582801Y-114116399D01*
X180218801Y-110389252D02*
X180218801Y-113752399D01*
X180840002Y-109768051D02*
X180218801Y-110389252D01*
X180840002Y-108557000D02*
X180840002Y-109768051D01*
X180218731Y-106465671D02*
X180218731Y-107935729D01*
X180659001Y-106025401D02*
X180218731Y-106465671D01*
X180659001Y-103557906D02*
X180659001Y-106025401D01*
X180218731Y-107935729D02*
X180840002Y-108557000D01*
X180218731Y-103117636D02*
X180659001Y-103557906D01*
%TO.N,/IO35*%
X181916001Y-114915999D02*
X181216000Y-115616000D01*
X181916001Y-103819636D02*
X181916001Y-114915999D01*
X181218721Y-103122356D02*
X181916001Y-103819636D01*
D15*
%TO.N,Net-(R1-Pad2)*%
X153030001Y-106565001D02*
X152825002Y-106770000D01*
X155945403Y-106565001D02*
X153030001Y-106565001D01*
X156387601Y-107007199D02*
X155945403Y-106565001D01*
X156387601Y-108058684D02*
X156387601Y-107007199D01*
X152825002Y-106770000D02*
X151380000Y-106770000D01*
X155901827Y-108544458D02*
X156387601Y-108058684D01*
X155336142Y-108544458D02*
X155901827Y-108544458D01*
%TO.N,Net-(R15-Pad1)*%
X143687800Y-123977400D02*
X145542000Y-123977400D01*
X141757400Y-122047000D02*
X143687800Y-123977400D01*
%TO.N,/TFT_DC*%
X154046311Y-109570000D02*
X154099398Y-109623087D01*
X151380000Y-109570000D02*
X154046311Y-109570000D01*
%TO.N,/TFT_CS*%
X149462200Y-110270000D02*
X149453600Y-110261400D01*
X151380000Y-110270000D02*
X149462200Y-110270000D01*
%TO.N,/TFT_RST*%
X175799790Y-115716010D02*
X177584692Y-115716010D01*
X171030999Y-120484801D02*
X175799790Y-115716010D01*
X169059399Y-120484801D02*
X171030999Y-120484801D01*
X165998798Y-119430800D02*
X168005398Y-119430800D01*
X177584692Y-115716010D02*
X179082800Y-114217902D01*
X165544599Y-118976601D02*
X165998798Y-119430800D01*
X165544599Y-118234197D02*
X165544599Y-118976601D01*
X164874401Y-117563999D02*
X165544599Y-118234197D01*
X153728997Y-117563999D02*
X164874401Y-117563999D01*
X149729999Y-113565001D02*
X153728997Y-117563999D01*
X149729999Y-112566003D02*
X149729999Y-113565001D01*
X179082800Y-114217902D02*
X179082800Y-113639600D01*
X149926002Y-112370000D02*
X149729999Y-112566003D01*
X168005398Y-119430800D02*
X169059399Y-120484801D01*
X151380000Y-112370000D02*
X149926002Y-112370000D01*
%TO.N,/SCK*%
X151380000Y-110970000D02*
X151380000Y-110994000D01*
X151409400Y-111023400D02*
X153263600Y-111023400D01*
X151380000Y-110994000D02*
X151409400Y-111023400D01*
%TO.N,/VCC*%
X141050613Y-118186200D02*
X147040600Y-118186200D01*
X139379465Y-116515052D02*
X141050613Y-118186200D01*
%TO.N,/3V3_2*%
X155508800Y-107470000D02*
X155587600Y-107391200D01*
X151380000Y-107470000D02*
X155508800Y-107470000D01*
D16*
%TO.N,/GPS_RX3V3*%
X167981352Y-109432050D02*
X180140001Y-109432050D01*
X167163201Y-110250201D02*
X167981352Y-109432050D01*
X165850801Y-110250201D02*
X167163201Y-110250201D01*
X161544000Y-105943400D02*
X165850801Y-110250201D01*
%TO.N,/GPS_TX3V3*%
X169229001Y-103719399D02*
X169011600Y-103936800D01*
X171125601Y-103719399D02*
X169229001Y-103719399D01*
X173095602Y-105689400D02*
X171125601Y-103719399D01*
X179959000Y-105689400D02*
X173095602Y-105689400D01*
%TO.N,/GPS_TX2V8*%
X166014400Y-103581200D02*
X166446200Y-104013000D01*
X163880800Y-103581200D02*
X166014400Y-103581200D01*
%TD*%
D18*
%TO.N,GND*%
G36*
X156200000Y-93750000D02*
G01*
X156200961Y-93759755D01*
X156203806Y-93769134D01*
X156208427Y-93777779D01*
X156214645Y-93785355D01*
X156222221Y-93791573D01*
X156230866Y-93796194D01*
X156240245Y-93799039D01*
X156250000Y-93800000D01*
X164000000Y-93800000D01*
X164009755Y-93799039D01*
X164019134Y-93796194D01*
X164027779Y-93791573D01*
X164035355Y-93785355D01*
X164041573Y-93777779D01*
X164046194Y-93769134D01*
X164049039Y-93759755D01*
X164050000Y-93750000D01*
X164050000Y-93175751D01*
X169005784Y-93175751D01*
X169005784Y-93279167D01*
X169025960Y-93380596D01*
X169065535Y-93476140D01*
X169122990Y-93562127D01*
X169196116Y-93635253D01*
X169282103Y-93692708D01*
X169377647Y-93732283D01*
X169479076Y-93752459D01*
X169582492Y-93752459D01*
X169683921Y-93732283D01*
X169779465Y-93692708D01*
X169865452Y-93635253D01*
X169938578Y-93562127D01*
X169996033Y-93476140D01*
X170035608Y-93380596D01*
X170055784Y-93279167D01*
X170055784Y-93175751D01*
X170035608Y-93074322D01*
X169996033Y-92978778D01*
X169938578Y-92892791D01*
X169865452Y-92819665D01*
X169779465Y-92762210D01*
X169683921Y-92722635D01*
X169582492Y-92702459D01*
X169479076Y-92702459D01*
X169377647Y-92722635D01*
X169282103Y-92762210D01*
X169196116Y-92819665D01*
X169122990Y-92892791D01*
X169065535Y-92978778D01*
X169025960Y-93074322D01*
X169005784Y-93175751D01*
X164050000Y-93175751D01*
X164050000Y-89702000D01*
X166435608Y-89702000D01*
X172577331Y-94060643D01*
X172587232Y-94068769D01*
X172602263Y-94076803D01*
X172617077Y-94085266D01*
X172619797Y-94086176D01*
X172622324Y-94087526D01*
X172638653Y-94092480D01*
X172654815Y-94097883D01*
X172657653Y-94098243D01*
X172660401Y-94099077D01*
X172677397Y-94100751D01*
X172694288Y-94102896D01*
X172707058Y-94102000D01*
X182298001Y-94102000D01*
X182298001Y-100062362D01*
X182289351Y-100053712D01*
X182182890Y-99982578D01*
X182064598Y-99933579D01*
X181939019Y-99908600D01*
X181810981Y-99908600D01*
X181685402Y-99933579D01*
X181567110Y-99982578D01*
X181460649Y-100053712D01*
X181370112Y-100144249D01*
X181327115Y-100208600D01*
X181326511Y-100208600D01*
X181309315Y-100206906D01*
X181240703Y-100213665D01*
X181174728Y-100233678D01*
X181113925Y-100266178D01*
X181060630Y-100309915D01*
X181049670Y-100323270D01*
X178824976Y-102547966D01*
X178811615Y-102558931D01*
X178767878Y-102612226D01*
X178737349Y-102669341D01*
X178645949Y-102730412D01*
X178555412Y-102820949D01*
X178484278Y-102927410D01*
X178435279Y-103045702D01*
X178410300Y-103171281D01*
X178410300Y-103299319D01*
X178435279Y-103424898D01*
X178484278Y-103543190D01*
X178555412Y-103649651D01*
X178645949Y-103740188D01*
X178752410Y-103811322D01*
X178870702Y-103860321D01*
X178996281Y-103885300D01*
X179124319Y-103885300D01*
X179249898Y-103860321D01*
X179368190Y-103811322D01*
X179474651Y-103740188D01*
X179565188Y-103649651D01*
X179636322Y-103543190D01*
X179668853Y-103464654D01*
X179713843Y-103531987D01*
X179804380Y-103622524D01*
X179910841Y-103693658D01*
X180029133Y-103742657D01*
X180154712Y-103767636D01*
X180282750Y-103767636D01*
X180309001Y-103762414D01*
X180309002Y-105141516D01*
X180266890Y-105113378D01*
X180148598Y-105064379D01*
X180023019Y-105039400D01*
X179894981Y-105039400D01*
X179769402Y-105064379D01*
X179651110Y-105113378D01*
X179544649Y-105184512D01*
X179454112Y-105275049D01*
X179411115Y-105339400D01*
X178873802Y-105339400D01*
X178909422Y-105286090D01*
X178958421Y-105167798D01*
X178983400Y-105042219D01*
X178983400Y-104914181D01*
X178958421Y-104788602D01*
X178909422Y-104670310D01*
X178838288Y-104563849D01*
X178747751Y-104473312D01*
X178641290Y-104402178D01*
X178522998Y-104353179D01*
X178397419Y-104328200D01*
X178269381Y-104328200D01*
X178143802Y-104353179D01*
X178025510Y-104402178D01*
X177919049Y-104473312D01*
X177828512Y-104563849D01*
X177757378Y-104670310D01*
X177708379Y-104788602D01*
X177683400Y-104914181D01*
X177683400Y-105042219D01*
X177708379Y-105167798D01*
X177757378Y-105286090D01*
X177792998Y-105339400D01*
X173240577Y-105339400D01*
X171385254Y-103484079D01*
X171374286Y-103470714D01*
X171320991Y-103426977D01*
X171260188Y-103394477D01*
X171194213Y-103374464D01*
X171142790Y-103369399D01*
X171142789Y-103369399D01*
X171125601Y-103367706D01*
X171108413Y-103369399D01*
X169332392Y-103369399D01*
X169319490Y-103360778D01*
X169206515Y-103313981D01*
X173975000Y-103313981D01*
X173975000Y-103442019D01*
X173999979Y-103567598D01*
X174048978Y-103685890D01*
X174120112Y-103792351D01*
X174210649Y-103882888D01*
X174317110Y-103954022D01*
X174435402Y-104003021D01*
X174560981Y-104028000D01*
X174586127Y-104028000D01*
X174565664Y-104077402D01*
X174540685Y-104202981D01*
X174540685Y-104331019D01*
X174565664Y-104456598D01*
X174614663Y-104574890D01*
X174685797Y-104681351D01*
X174776334Y-104771888D01*
X174882795Y-104843022D01*
X175001087Y-104892021D01*
X175126666Y-104917000D01*
X175254704Y-104917000D01*
X175380283Y-104892021D01*
X175498575Y-104843022D01*
X175605036Y-104771888D01*
X175695573Y-104681351D01*
X175766707Y-104574890D01*
X175815706Y-104456598D01*
X175840685Y-104331019D01*
X175840685Y-104202981D01*
X175815706Y-104077402D01*
X175766707Y-103959110D01*
X175695573Y-103852649D01*
X175605036Y-103762112D01*
X175498575Y-103690978D01*
X175380283Y-103641979D01*
X175254704Y-103617000D01*
X175229558Y-103617000D01*
X175250021Y-103567598D01*
X175275000Y-103442019D01*
X175275000Y-103313981D01*
X175250021Y-103188402D01*
X175201022Y-103070110D01*
X175129888Y-102963649D01*
X175039351Y-102873112D01*
X174932890Y-102801978D01*
X174814598Y-102752979D01*
X174689019Y-102728000D01*
X174560981Y-102728000D01*
X174435402Y-102752979D01*
X174317110Y-102801978D01*
X174210649Y-102873112D01*
X174120112Y-102963649D01*
X174048978Y-103070110D01*
X173999979Y-103188402D01*
X173975000Y-103313981D01*
X169206515Y-103313981D01*
X169201198Y-103311779D01*
X169075619Y-103286800D01*
X168947581Y-103286800D01*
X168822002Y-103311779D01*
X168703710Y-103360778D01*
X168597249Y-103431912D01*
X168506712Y-103522449D01*
X168435578Y-103628910D01*
X168386579Y-103747202D01*
X168361600Y-103872781D01*
X168361600Y-104000819D01*
X168386579Y-104126398D01*
X168435578Y-104244690D01*
X168506712Y-104351151D01*
X168597249Y-104441688D01*
X168703710Y-104512822D01*
X168822002Y-104561821D01*
X168947581Y-104586800D01*
X169075619Y-104586800D01*
X169201198Y-104561821D01*
X169319490Y-104512822D01*
X169425951Y-104441688D01*
X169516488Y-104351151D01*
X169587622Y-104244690D01*
X169636621Y-104126398D01*
X169647959Y-104069399D01*
X170241715Y-104069399D01*
X170213578Y-104111510D01*
X170164579Y-104229802D01*
X170139600Y-104355381D01*
X170139600Y-104483262D01*
X170132290Y-104478378D01*
X170013998Y-104429379D01*
X169888419Y-104404400D01*
X169760381Y-104404400D01*
X169634802Y-104429379D01*
X169516510Y-104478378D01*
X169410049Y-104549512D01*
X169319512Y-104640049D01*
X169248378Y-104746510D01*
X169199379Y-104864802D01*
X169174400Y-104990381D01*
X169174400Y-105118419D01*
X169199379Y-105243998D01*
X169248378Y-105362290D01*
X169319512Y-105468751D01*
X169410049Y-105559288D01*
X169516510Y-105630422D01*
X169634802Y-105679421D01*
X169760381Y-105704400D01*
X169888419Y-105704400D01*
X170013998Y-105679421D01*
X170132290Y-105630422D01*
X170238751Y-105559288D01*
X170239601Y-105558438D01*
X170239601Y-106299782D01*
X169748966Y-106790417D01*
X169703026Y-106799555D01*
X169584734Y-106848554D01*
X169478273Y-106919688D01*
X169387736Y-107010225D01*
X169316602Y-107116686D01*
X169267603Y-107234978D01*
X169242624Y-107360557D01*
X169242624Y-107488595D01*
X169267603Y-107614174D01*
X169316602Y-107732466D01*
X169387736Y-107838927D01*
X169478273Y-107929464D01*
X169584734Y-108000598D01*
X169703026Y-108049597D01*
X169828605Y-108074576D01*
X169956643Y-108074576D01*
X170082222Y-108049597D01*
X170200514Y-108000598D01*
X170306975Y-107929464D01*
X170397512Y-107838927D01*
X170468646Y-107732466D01*
X170517645Y-107614174D01*
X170526783Y-107568234D01*
X170697034Y-107397983D01*
X174432200Y-107397983D01*
X174432200Y-107526021D01*
X174457179Y-107651600D01*
X174506178Y-107769892D01*
X174577312Y-107876353D01*
X174667849Y-107966890D01*
X174774310Y-108038024D01*
X174892602Y-108087023D01*
X175018181Y-108112002D01*
X175146219Y-108112002D01*
X175271798Y-108087023D01*
X175390090Y-108038024D01*
X175496551Y-107966890D01*
X175587088Y-107876353D01*
X175658222Y-107769892D01*
X175707221Y-107651600D01*
X175726280Y-107555781D01*
X176667400Y-107555781D01*
X176667400Y-107683819D01*
X176692379Y-107809398D01*
X176741378Y-107927690D01*
X176812512Y-108034151D01*
X176903049Y-108124688D01*
X177009510Y-108195822D01*
X177127802Y-108244821D01*
X177253381Y-108269800D01*
X177381419Y-108269800D01*
X177506998Y-108244821D01*
X177625290Y-108195822D01*
X177731751Y-108124688D01*
X177822288Y-108034151D01*
X177893422Y-107927690D01*
X177942421Y-107809398D01*
X177967400Y-107683819D01*
X177967400Y-107555781D01*
X177942421Y-107430202D01*
X177893422Y-107311910D01*
X177822288Y-107205449D01*
X177731751Y-107114912D01*
X177625290Y-107043778D01*
X177506998Y-106994779D01*
X177381419Y-106969800D01*
X177253381Y-106969800D01*
X177127802Y-106994779D01*
X177009510Y-107043778D01*
X176903049Y-107114912D01*
X176812512Y-107205449D01*
X176741378Y-107311910D01*
X176692379Y-107430202D01*
X176667400Y-107555781D01*
X175726280Y-107555781D01*
X175732200Y-107526021D01*
X175732200Y-107397983D01*
X175707221Y-107272404D01*
X175658222Y-107154112D01*
X175587088Y-107047651D01*
X175496551Y-106957114D01*
X175390090Y-106885980D01*
X175271798Y-106836981D01*
X175146219Y-106812002D01*
X175018181Y-106812002D01*
X174892602Y-106836981D01*
X174774310Y-106885980D01*
X174667849Y-106957114D01*
X174577312Y-107047651D01*
X174506178Y-107154112D01*
X174457179Y-107272404D01*
X174432200Y-107397983D01*
X170697034Y-107397983D01*
X171159404Y-106935613D01*
X171180390Y-106918390D01*
X171249121Y-106834642D01*
X171300192Y-106739094D01*
X171331642Y-106635419D01*
X171339600Y-106554618D01*
X171339600Y-106554611D01*
X171342260Y-106527600D01*
X171339600Y-106500589D01*
X171339600Y-104766235D01*
X171365622Y-104727290D01*
X171414621Y-104608998D01*
X171432142Y-104520914D01*
X172835957Y-105924730D01*
X172846917Y-105938085D01*
X172900212Y-105981822D01*
X172961015Y-106014322D01*
X173006976Y-106028264D01*
X173026989Y-106034335D01*
X173095601Y-106041093D01*
X173112790Y-106039400D01*
X179411115Y-106039400D01*
X179454112Y-106103751D01*
X179544649Y-106194288D01*
X179651110Y-106265422D01*
X179769402Y-106314421D01*
X179891497Y-106338707D01*
X179876017Y-106389737D01*
X179873796Y-106397060D01*
X179867038Y-106465671D01*
X179868731Y-106482860D01*
X179868732Y-107868529D01*
X179819819Y-107858800D01*
X179691781Y-107858800D01*
X179566202Y-107883779D01*
X179447910Y-107932778D01*
X179341449Y-108003912D01*
X179250912Y-108094449D01*
X179179778Y-108200910D01*
X179130779Y-108319202D01*
X179105800Y-108444781D01*
X179105800Y-108572819D01*
X179130779Y-108698398D01*
X179179778Y-108816690D01*
X179250912Y-108923151D01*
X179341449Y-109013688D01*
X179443761Y-109082050D01*
X167998540Y-109082050D01*
X167981351Y-109080357D01*
X167912739Y-109087115D01*
X167892726Y-109093186D01*
X167846765Y-109107128D01*
X167785962Y-109139628D01*
X167732667Y-109183365D01*
X167721707Y-109196720D01*
X167469742Y-109448686D01*
X167452221Y-109360602D01*
X167403222Y-109242310D01*
X167332088Y-109135849D01*
X167241551Y-109045312D01*
X167236893Y-109042200D01*
X167241551Y-109039088D01*
X167332088Y-108948551D01*
X167403222Y-108842090D01*
X167452221Y-108723798D01*
X167477200Y-108598219D01*
X167477200Y-108470181D01*
X167452221Y-108344602D01*
X167403222Y-108226310D01*
X167332088Y-108119849D01*
X167241551Y-108029312D01*
X167135090Y-107958178D01*
X167016798Y-107909179D01*
X166891219Y-107884200D01*
X166763181Y-107884200D01*
X166637602Y-107909179D01*
X166519310Y-107958178D01*
X166412849Y-108029312D01*
X166322312Y-108119849D01*
X166251178Y-108226310D01*
X166202179Y-108344602D01*
X166177200Y-108470181D01*
X166177200Y-108598219D01*
X166202179Y-108723798D01*
X166251178Y-108842090D01*
X166322312Y-108948551D01*
X166412849Y-109039088D01*
X166417507Y-109042200D01*
X166412849Y-109045312D01*
X166322312Y-109135849D01*
X166251178Y-109242310D01*
X166202179Y-109360602D01*
X166177200Y-109486181D01*
X166177200Y-109614219D01*
X166202179Y-109739798D01*
X166251178Y-109858090D01*
X166279315Y-109900201D01*
X165995776Y-109900201D01*
X162559155Y-106463581D01*
X168031400Y-106463581D01*
X168031400Y-106591619D01*
X168056379Y-106717198D01*
X168105378Y-106835490D01*
X168176512Y-106941951D01*
X168267049Y-107032488D01*
X168373510Y-107103622D01*
X168491802Y-107152621D01*
X168617381Y-107177600D01*
X168745419Y-107177600D01*
X168870998Y-107152621D01*
X168989290Y-107103622D01*
X169095751Y-107032488D01*
X169186288Y-106941951D01*
X169257422Y-106835490D01*
X169306421Y-106717198D01*
X169331400Y-106591619D01*
X169331400Y-106463581D01*
X169306421Y-106338002D01*
X169257422Y-106219710D01*
X169186288Y-106113249D01*
X169095751Y-106022712D01*
X168989290Y-105951578D01*
X168870998Y-105902579D01*
X168745419Y-105877600D01*
X168617381Y-105877600D01*
X168491802Y-105902579D01*
X168373510Y-105951578D01*
X168267049Y-106022712D01*
X168176512Y-106113249D01*
X168105378Y-106219710D01*
X168056379Y-106338002D01*
X168031400Y-106463581D01*
X162559155Y-106463581D01*
X162178901Y-106083328D01*
X162194000Y-106007419D01*
X162194000Y-105879381D01*
X162169021Y-105753802D01*
X162120022Y-105635510D01*
X162048888Y-105529049D01*
X161958351Y-105438512D01*
X161851890Y-105367378D01*
X161733598Y-105318379D01*
X161608019Y-105293400D01*
X161479981Y-105293400D01*
X161354402Y-105318379D01*
X161236110Y-105367378D01*
X161129649Y-105438512D01*
X161039112Y-105529049D01*
X160967978Y-105635510D01*
X160918979Y-105753802D01*
X160894000Y-105879381D01*
X160894000Y-106007419D01*
X160918979Y-106132998D01*
X160967978Y-106251290D01*
X161039112Y-106357751D01*
X161129649Y-106448288D01*
X161236110Y-106519422D01*
X161354402Y-106568421D01*
X161479981Y-106593400D01*
X161608019Y-106593400D01*
X161683928Y-106578301D01*
X165591157Y-110485532D01*
X165602116Y-110498886D01*
X165655411Y-110542623D01*
X165716214Y-110575123D01*
X165782189Y-110595136D01*
X165833612Y-110600201D01*
X165833614Y-110600201D01*
X165850800Y-110601894D01*
X165867986Y-110600201D01*
X167146013Y-110600201D01*
X167163201Y-110601894D01*
X167180389Y-110600201D01*
X167180390Y-110600201D01*
X167231813Y-110595136D01*
X167297788Y-110575123D01*
X167358591Y-110542623D01*
X167411886Y-110498886D01*
X167422854Y-110485521D01*
X168126327Y-109782050D01*
X169362828Y-109782050D01*
X169299178Y-109877310D01*
X169250179Y-109995602D01*
X169225200Y-110121181D01*
X169225200Y-110249219D01*
X169250179Y-110374798D01*
X169299178Y-110493090D01*
X169325200Y-110532035D01*
X169325201Y-112584783D01*
X167370325Y-114539660D01*
X167350621Y-114440602D01*
X167301622Y-114322310D01*
X167242616Y-114234000D01*
X167353219Y-114234000D01*
X167478798Y-114209021D01*
X167597090Y-114160022D01*
X167703551Y-114088888D01*
X167794088Y-113998351D01*
X167865222Y-113891890D01*
X167914221Y-113773598D01*
X167939200Y-113648019D01*
X167939200Y-113519981D01*
X167914221Y-113394402D01*
X167865222Y-113276110D01*
X167794088Y-113169649D01*
X167703551Y-113079112D01*
X167597090Y-113007978D01*
X167478798Y-112958979D01*
X167388335Y-112940985D01*
X167428622Y-112880690D01*
X167477621Y-112762398D01*
X167502600Y-112636819D01*
X167502600Y-112508781D01*
X167477621Y-112383202D01*
X167428622Y-112264910D01*
X167357488Y-112158449D01*
X167266951Y-112067912D01*
X167160490Y-111996778D01*
X167042198Y-111947779D01*
X166916619Y-111922800D01*
X166788581Y-111922800D01*
X166663002Y-111947779D01*
X166544710Y-111996778D01*
X166438249Y-112067912D01*
X166347712Y-112158449D01*
X166276578Y-112264910D01*
X166227579Y-112383202D01*
X166202600Y-112508781D01*
X166202600Y-112636819D01*
X166227579Y-112762398D01*
X166276578Y-112880690D01*
X166347712Y-112987151D01*
X166438249Y-113077688D01*
X166544710Y-113148822D01*
X166663002Y-113197821D01*
X166753465Y-113215815D01*
X166713178Y-113276110D01*
X166664179Y-113394402D01*
X166639200Y-113519981D01*
X166639200Y-113648019D01*
X166664179Y-113773598D01*
X166713178Y-113891890D01*
X166772184Y-113980200D01*
X166661581Y-113980200D01*
X166536002Y-114005179D01*
X166417710Y-114054178D01*
X166311249Y-114125312D01*
X166256361Y-114180200D01*
X164102394Y-114180200D01*
X157460199Y-107538006D01*
X157460199Y-105869808D01*
X157462375Y-105847714D01*
X157460199Y-105825619D01*
X157460199Y-105825609D01*
X157453688Y-105759499D01*
X157427956Y-105674673D01*
X157404303Y-105630422D01*
X157386170Y-105596497D01*
X157344027Y-105545146D01*
X157344023Y-105545142D01*
X157329936Y-105527977D01*
X157312772Y-105513891D01*
X155316062Y-103517181D01*
X163230800Y-103517181D01*
X163230800Y-103645219D01*
X163255779Y-103770798D01*
X163304778Y-103889090D01*
X163375912Y-103995551D01*
X163466449Y-104086088D01*
X163572910Y-104157222D01*
X163691202Y-104206221D01*
X163816781Y-104231200D01*
X163944819Y-104231200D01*
X164070398Y-104206221D01*
X164188690Y-104157222D01*
X164295151Y-104086088D01*
X164385688Y-103995551D01*
X164428685Y-103931200D01*
X165799737Y-103931200D01*
X165796200Y-103948981D01*
X165796200Y-104077019D01*
X165821179Y-104202598D01*
X165870178Y-104320890D01*
X165941312Y-104427351D01*
X166031849Y-104517888D01*
X166138310Y-104589022D01*
X166256602Y-104638021D01*
X166382181Y-104663000D01*
X166510219Y-104663000D01*
X166635798Y-104638021D01*
X166754090Y-104589022D01*
X166860551Y-104517888D01*
X166951088Y-104427351D01*
X167022222Y-104320890D01*
X167071221Y-104202598D01*
X167096200Y-104077019D01*
X167096200Y-103948981D01*
X167071221Y-103823402D01*
X167022222Y-103705110D01*
X166951088Y-103598649D01*
X166860551Y-103508112D01*
X166754090Y-103436978D01*
X166635798Y-103387979D01*
X166510219Y-103363000D01*
X166382181Y-103363000D01*
X166306272Y-103378099D01*
X166274053Y-103345880D01*
X166263085Y-103332515D01*
X166209790Y-103288778D01*
X166148987Y-103256278D01*
X166083012Y-103236265D01*
X166031589Y-103231200D01*
X166031588Y-103231200D01*
X166014400Y-103229507D01*
X165997212Y-103231200D01*
X164428685Y-103231200D01*
X164385688Y-103166849D01*
X164295151Y-103076312D01*
X164188690Y-103005178D01*
X164070398Y-102956179D01*
X163944819Y-102931200D01*
X163816781Y-102931200D01*
X163691202Y-102956179D01*
X163572910Y-103005178D01*
X163466449Y-103076312D01*
X163375912Y-103166849D01*
X163304778Y-103273310D01*
X163255779Y-103391602D01*
X163230800Y-103517181D01*
X155316062Y-103517181D01*
X154975914Y-103177034D01*
X154961822Y-103159863D01*
X154893301Y-103103629D01*
X154815126Y-103061843D01*
X154730300Y-103036111D01*
X154664190Y-103029600D01*
X154664179Y-103029600D01*
X154642085Y-103027424D01*
X154619991Y-103029600D01*
X154545639Y-103029600D01*
X154490751Y-102974712D01*
X154384290Y-102903578D01*
X154265998Y-102854579D01*
X154140419Y-102829600D01*
X154012381Y-102829600D01*
X153886802Y-102854579D01*
X153768510Y-102903578D01*
X153662049Y-102974712D01*
X153571512Y-103065249D01*
X153500378Y-103171710D01*
X153451379Y-103290002D01*
X153426400Y-103415581D01*
X153426400Y-103543619D01*
X153451379Y-103669198D01*
X153500378Y-103787490D01*
X153571512Y-103893951D01*
X153662049Y-103984488D01*
X153768510Y-104055622D01*
X153886802Y-104104621D01*
X154012381Y-104129600D01*
X154140419Y-104129600D01*
X154265998Y-104104621D01*
X154384290Y-104055622D01*
X154490751Y-103984488D01*
X154500664Y-103974575D01*
X156560199Y-106034110D01*
X156560199Y-106543402D01*
X156279231Y-106262434D01*
X156265140Y-106245264D01*
X156196619Y-106189030D01*
X156118444Y-106147244D01*
X156033618Y-106121512D01*
X155967508Y-106115001D01*
X155967497Y-106115001D01*
X155945403Y-106112825D01*
X155923309Y-106115001D01*
X155106885Y-106115001D01*
X155135022Y-106072891D01*
X155184021Y-105954599D01*
X155209000Y-105829020D01*
X155209000Y-105700982D01*
X155184021Y-105575403D01*
X155135022Y-105457111D01*
X155063888Y-105350650D01*
X154973351Y-105260113D01*
X154866890Y-105188979D01*
X154748598Y-105139980D01*
X154623019Y-105115001D01*
X154494981Y-105115001D01*
X154369402Y-105139980D01*
X154266569Y-105182575D01*
X153053200Y-103969207D01*
X153053200Y-99173781D01*
X173111400Y-99173781D01*
X173111400Y-99301819D01*
X173136379Y-99427398D01*
X173185378Y-99545690D01*
X173256512Y-99652151D01*
X173347049Y-99742688D01*
X173453510Y-99813822D01*
X173571802Y-99862821D01*
X173697381Y-99887800D01*
X173825419Y-99887800D01*
X173950998Y-99862821D01*
X174069290Y-99813822D01*
X174175751Y-99742688D01*
X174266288Y-99652151D01*
X174337422Y-99545690D01*
X174386421Y-99427398D01*
X174391397Y-99402381D01*
X178166000Y-99402381D01*
X178166000Y-99530419D01*
X178190979Y-99655998D01*
X178239978Y-99774290D01*
X178311112Y-99880751D01*
X178401649Y-99971288D01*
X178508110Y-100042422D01*
X178626402Y-100091421D01*
X178751981Y-100116400D01*
X178880019Y-100116400D01*
X179005598Y-100091421D01*
X179123890Y-100042422D01*
X179230351Y-99971288D01*
X179253158Y-99948481D01*
X179690000Y-99948481D01*
X179690000Y-100076519D01*
X179714979Y-100202098D01*
X179763978Y-100320390D01*
X179835112Y-100426851D01*
X179925649Y-100517388D01*
X180032110Y-100588522D01*
X180150402Y-100637521D01*
X180275981Y-100662500D01*
X180404019Y-100662500D01*
X180529598Y-100637521D01*
X180647890Y-100588522D01*
X180754351Y-100517388D01*
X180844888Y-100426851D01*
X180916022Y-100320390D01*
X180965021Y-100202098D01*
X180990000Y-100076519D01*
X180990000Y-99948481D01*
X180965021Y-99822902D01*
X180916022Y-99704610D01*
X180844888Y-99598149D01*
X180754351Y-99507612D01*
X180647890Y-99436478D01*
X180529598Y-99387479D01*
X180404019Y-99362500D01*
X180275981Y-99362500D01*
X180150402Y-99387479D01*
X180032110Y-99436478D01*
X179925649Y-99507612D01*
X179835112Y-99598149D01*
X179763978Y-99704610D01*
X179714979Y-99822902D01*
X179690000Y-99948481D01*
X179253158Y-99948481D01*
X179320888Y-99880751D01*
X179392022Y-99774290D01*
X179441021Y-99655998D01*
X179466000Y-99530419D01*
X179466000Y-99402381D01*
X179441021Y-99276802D01*
X179392022Y-99158510D01*
X179320888Y-99052049D01*
X179230351Y-98961512D01*
X179123890Y-98890378D01*
X179005598Y-98841379D01*
X178880019Y-98816400D01*
X178751981Y-98816400D01*
X178626402Y-98841379D01*
X178508110Y-98890378D01*
X178401649Y-98961512D01*
X178311112Y-99052049D01*
X178239978Y-99158510D01*
X178190979Y-99276802D01*
X178166000Y-99402381D01*
X174391397Y-99402381D01*
X174411400Y-99301819D01*
X174411400Y-99173781D01*
X174386421Y-99048202D01*
X174337422Y-98929910D01*
X174266288Y-98823449D01*
X174175751Y-98732912D01*
X174069290Y-98661778D01*
X173950998Y-98612779D01*
X173825419Y-98587800D01*
X173697381Y-98587800D01*
X173571802Y-98612779D01*
X173453510Y-98661778D01*
X173347049Y-98732912D01*
X173256512Y-98823449D01*
X173185378Y-98929910D01*
X173136379Y-99048202D01*
X173111400Y-99173781D01*
X153053200Y-99173781D01*
X153053200Y-95414439D01*
X153108088Y-95359551D01*
X153179222Y-95253090D01*
X153180716Y-95249481D01*
X178293000Y-95249481D01*
X178293000Y-95377519D01*
X178317979Y-95503098D01*
X178366978Y-95621390D01*
X178438112Y-95727851D01*
X178528649Y-95818388D01*
X178635110Y-95889522D01*
X178753402Y-95938521D01*
X178803570Y-95948500D01*
X178753402Y-95958479D01*
X178635110Y-96007478D01*
X178528649Y-96078612D01*
X178438112Y-96169149D01*
X178366978Y-96275610D01*
X178317979Y-96393902D01*
X178293000Y-96519481D01*
X178293000Y-96647519D01*
X178317979Y-96773098D01*
X178366978Y-96891390D01*
X178438112Y-96997851D01*
X178528649Y-97088388D01*
X178635110Y-97159522D01*
X178753402Y-97208521D01*
X178878981Y-97233500D01*
X179007019Y-97233500D01*
X179132598Y-97208521D01*
X179250890Y-97159522D01*
X179357351Y-97088388D01*
X179447888Y-96997851D01*
X179519022Y-96891390D01*
X179568021Y-96773098D01*
X179593000Y-96647519D01*
X179593000Y-96519481D01*
X179568021Y-96393902D01*
X179519022Y-96275610D01*
X179447888Y-96169149D01*
X179357351Y-96078612D01*
X179250890Y-96007478D01*
X179132598Y-95958479D01*
X179082430Y-95948500D01*
X179132598Y-95938521D01*
X179250890Y-95889522D01*
X179357351Y-95818388D01*
X179447888Y-95727851D01*
X179519022Y-95621390D01*
X179568021Y-95503098D01*
X179593000Y-95377519D01*
X179593000Y-95249481D01*
X179568021Y-95123902D01*
X179519022Y-95005610D01*
X179447888Y-94899149D01*
X179357351Y-94808612D01*
X179250890Y-94737478D01*
X179132598Y-94688479D01*
X179007019Y-94663500D01*
X178878981Y-94663500D01*
X178753402Y-94688479D01*
X178635110Y-94737478D01*
X178528649Y-94808612D01*
X178438112Y-94899149D01*
X178366978Y-95005610D01*
X178317979Y-95123902D01*
X178293000Y-95249481D01*
X153180716Y-95249481D01*
X153228221Y-95134798D01*
X153253200Y-95009219D01*
X153253200Y-94881181D01*
X153228221Y-94755602D01*
X153179222Y-94637310D01*
X153108088Y-94530849D01*
X153017551Y-94440312D01*
X152911090Y-94369178D01*
X152792798Y-94320179D01*
X152667219Y-94295200D01*
X152539181Y-94295200D01*
X152413602Y-94320179D01*
X152295310Y-94369178D01*
X152188849Y-94440312D01*
X152098312Y-94530849D01*
X152027178Y-94637310D01*
X151978179Y-94755602D01*
X151953200Y-94881181D01*
X151953200Y-95009219D01*
X151978179Y-95134798D01*
X152027178Y-95253090D01*
X152098312Y-95359551D01*
X152153200Y-95414439D01*
X152153201Y-104133498D01*
X152151024Y-104155602D01*
X152159712Y-104243817D01*
X152185443Y-104328642D01*
X152227229Y-104406818D01*
X152269372Y-104458169D01*
X152269377Y-104458174D01*
X152283464Y-104475339D01*
X152300629Y-104489426D01*
X152446206Y-104635003D01*
X151723500Y-104637000D01*
X151584000Y-104776500D01*
X151584000Y-105245000D01*
X151604000Y-105245000D01*
X151604000Y-105495000D01*
X151584000Y-105495000D01*
X151584000Y-105545000D01*
X151176000Y-105545000D01*
X151176000Y-105495000D01*
X149711500Y-105495000D01*
X149691201Y-105515299D01*
X149659890Y-105494378D01*
X149541598Y-105445379D01*
X149416019Y-105420400D01*
X149287981Y-105420400D01*
X149162402Y-105445379D01*
X149044110Y-105494378D01*
X148937649Y-105565512D01*
X148847112Y-105656049D01*
X148775978Y-105762510D01*
X148726979Y-105880802D01*
X148702000Y-106006381D01*
X148702000Y-106134419D01*
X148726979Y-106259998D01*
X148775978Y-106378290D01*
X148847112Y-106484751D01*
X148937649Y-106575288D01*
X149044110Y-106646422D01*
X149162402Y-106695421D01*
X149287981Y-106720400D01*
X149416019Y-106720400D01*
X149541598Y-106695421D01*
X149659890Y-106646422D01*
X149766351Y-106575288D01*
X149821639Y-106520000D01*
X149891502Y-106520000D01*
X149883618Y-106545992D01*
X149878791Y-106595000D01*
X149878791Y-106945000D01*
X149883618Y-106994008D01*
X149897913Y-107041134D01*
X149921127Y-107084564D01*
X149950208Y-107120000D01*
X149921127Y-107155436D01*
X149897913Y-107198866D01*
X149883618Y-107245992D01*
X149878791Y-107295000D01*
X149878791Y-107496736D01*
X149832264Y-107519881D01*
X149745294Y-107587096D01*
X149673108Y-107669986D01*
X149618480Y-107765367D01*
X149583509Y-107869572D01*
X149572000Y-107905500D01*
X149711500Y-108045000D01*
X151176000Y-108045000D01*
X151176000Y-107995000D01*
X151584000Y-107995000D01*
X151584000Y-108045000D01*
X153048500Y-108045000D01*
X153173500Y-107920000D01*
X155145185Y-107920000D01*
X155028252Y-107968436D01*
X154921791Y-108039570D01*
X154831254Y-108130107D01*
X154760120Y-108236568D01*
X154711121Y-108354860D01*
X154705748Y-108381870D01*
X154678132Y-108315199D01*
X154606998Y-108208738D01*
X154516461Y-108118201D01*
X154410000Y-108047067D01*
X154291708Y-107998068D01*
X154166129Y-107973089D01*
X154038091Y-107973089D01*
X153912512Y-107998068D01*
X153794220Y-108047067D01*
X153687759Y-108118201D01*
X153597222Y-108208738D01*
X153526088Y-108315199D01*
X153477089Y-108433491D01*
X153452110Y-108559070D01*
X153452110Y-108687108D01*
X153477089Y-108812687D01*
X153526088Y-108930979D01*
X153597222Y-109037440D01*
X153679782Y-109120000D01*
X153173500Y-109120000D01*
X153048500Y-108995000D01*
X151584000Y-108995000D01*
X151584000Y-109045000D01*
X151176000Y-109045000D01*
X151176000Y-108995000D01*
X149711500Y-108995000D01*
X149572000Y-109134500D01*
X149583509Y-109170428D01*
X149618480Y-109274633D01*
X149673108Y-109370014D01*
X149745294Y-109452904D01*
X149832264Y-109520119D01*
X149878791Y-109543264D01*
X149878791Y-109745000D01*
X149881233Y-109769794D01*
X149867951Y-109756512D01*
X149761490Y-109685378D01*
X149643198Y-109636379D01*
X149517619Y-109611400D01*
X149389581Y-109611400D01*
X149264002Y-109636379D01*
X149145710Y-109685378D01*
X149039249Y-109756512D01*
X148948712Y-109847049D01*
X148877578Y-109953510D01*
X148828579Y-110071802D01*
X148803600Y-110197381D01*
X148803600Y-110325419D01*
X148828579Y-110450998D01*
X148877578Y-110569290D01*
X148948712Y-110675751D01*
X149039249Y-110766288D01*
X149145710Y-110837422D01*
X149264002Y-110886421D01*
X149389581Y-110911400D01*
X149517619Y-110911400D01*
X149643198Y-110886421D01*
X149761490Y-110837422D01*
X149867951Y-110766288D01*
X149883112Y-110751127D01*
X149878791Y-110795000D01*
X149878791Y-111145000D01*
X149880905Y-111166466D01*
X149867951Y-111153512D01*
X149761490Y-111082378D01*
X149643198Y-111033379D01*
X149517619Y-111008400D01*
X149389581Y-111008400D01*
X149264002Y-111033379D01*
X149145710Y-111082378D01*
X149039249Y-111153512D01*
X148948712Y-111244049D01*
X148877578Y-111350510D01*
X148828579Y-111468802D01*
X148803600Y-111594381D01*
X148803600Y-111722419D01*
X148828579Y-111847998D01*
X148877578Y-111966290D01*
X148948712Y-112072751D01*
X149039249Y-112163288D01*
X149145710Y-112234422D01*
X149264002Y-112283421D01*
X149363523Y-112303217D01*
X149354028Y-112314787D01*
X149324022Y-112370925D01*
X149312242Y-112392963D01*
X149286510Y-112477789D01*
X149279999Y-112543899D01*
X149279999Y-112543909D01*
X149277823Y-112566003D01*
X149279999Y-112588098D01*
X149280000Y-113542897D01*
X149277823Y-113565001D01*
X149286511Y-113653216D01*
X149312242Y-113738041D01*
X149354028Y-113816217D01*
X149396171Y-113867568D01*
X149396176Y-113867573D01*
X149410263Y-113884738D01*
X149427428Y-113898825D01*
X153395173Y-117866571D01*
X153409260Y-117883736D01*
X153426425Y-117897823D01*
X153426429Y-117897827D01*
X153477780Y-117939970D01*
X153555956Y-117981756D01*
X153640782Y-118007488D01*
X153706892Y-118013999D01*
X153706902Y-118013999D01*
X153728996Y-118016175D01*
X153751090Y-118013999D01*
X164688006Y-118013999D01*
X165094599Y-118420593D01*
X165094600Y-118954497D01*
X165092423Y-118976601D01*
X165101111Y-119064816D01*
X165126842Y-119149641D01*
X165168628Y-119227817D01*
X165210771Y-119279168D01*
X165210776Y-119279173D01*
X165224863Y-119296338D01*
X165242028Y-119310425D01*
X165664974Y-119733372D01*
X165679061Y-119750537D01*
X165696226Y-119764624D01*
X165696230Y-119764628D01*
X165747581Y-119806771D01*
X165774812Y-119821326D01*
X165825757Y-119848557D01*
X165910583Y-119874289D01*
X165976693Y-119880800D01*
X165976705Y-119880800D01*
X165998797Y-119882976D01*
X166020889Y-119880800D01*
X167819003Y-119880800D01*
X168725575Y-120787373D01*
X168739662Y-120804538D01*
X168756827Y-120818625D01*
X168756831Y-120818629D01*
X168808182Y-120860772D01*
X168847271Y-120881665D01*
X168886358Y-120902558D01*
X168971184Y-120928290D01*
X169037294Y-120934801D01*
X169037305Y-120934801D01*
X169059399Y-120936977D01*
X169081493Y-120934801D01*
X171008905Y-120934801D01*
X171030999Y-120936977D01*
X171053093Y-120934801D01*
X171053104Y-120934801D01*
X171119214Y-120928290D01*
X171204040Y-120902558D01*
X171282215Y-120860772D01*
X171350736Y-120804538D01*
X171364828Y-120787367D01*
X175986186Y-116166010D01*
X177562598Y-116166010D01*
X177584692Y-116168186D01*
X177606786Y-116166010D01*
X177606797Y-116166010D01*
X177672907Y-116159499D01*
X177757733Y-116133767D01*
X177835908Y-116091981D01*
X177904429Y-116035747D01*
X177918521Y-116018576D01*
X179268710Y-114668388D01*
X179306778Y-114760290D01*
X179377912Y-114866751D01*
X179468449Y-114957288D01*
X179574910Y-115028422D01*
X179693202Y-115077421D01*
X179818781Y-115102400D01*
X179946819Y-115102400D01*
X180072398Y-115077421D01*
X180190690Y-115028422D01*
X180232802Y-115000284D01*
X180232802Y-115073369D01*
X180223577Y-115084610D01*
X180191077Y-115145413D01*
X180174018Y-115201649D01*
X180171064Y-115211388D01*
X180164306Y-115279999D01*
X180165999Y-115297188D01*
X180166000Y-115914801D01*
X180164306Y-115931999D01*
X180171064Y-116000610D01*
X180187860Y-116055978D01*
X180191078Y-116066586D01*
X180223578Y-116127389D01*
X180267315Y-116180684D01*
X180280675Y-116191648D01*
X180581099Y-116492072D01*
X180566000Y-116567981D01*
X180566000Y-116696019D01*
X180590979Y-116821598D01*
X180639978Y-116939890D01*
X180711112Y-117046351D01*
X180801649Y-117136888D01*
X180908110Y-117208022D01*
X181026402Y-117257021D01*
X181151981Y-117282000D01*
X181280019Y-117282000D01*
X181405598Y-117257021D01*
X181523890Y-117208022D01*
X181630351Y-117136888D01*
X181720888Y-117046351D01*
X181792022Y-116939890D01*
X181841021Y-116821598D01*
X181866000Y-116696019D01*
X181866000Y-116567981D01*
X181841021Y-116442402D01*
X181792022Y-116324110D01*
X181720888Y-116217649D01*
X181630351Y-116127112D01*
X181625693Y-116124000D01*
X181630351Y-116120888D01*
X181720888Y-116030351D01*
X181792022Y-115923890D01*
X181841021Y-115805598D01*
X181866000Y-115680019D01*
X181866000Y-115551981D01*
X181850901Y-115476073D01*
X182151326Y-115175648D01*
X182164686Y-115164684D01*
X182208423Y-115111389D01*
X182240923Y-115050586D01*
X182260936Y-114984611D01*
X182266001Y-114933188D01*
X182267694Y-114915999D01*
X182266001Y-114898810D01*
X182266001Y-103836825D01*
X182267694Y-103819636D01*
X182260936Y-103751024D01*
X182240923Y-103685048D01*
X182208423Y-103624246D01*
X182187416Y-103598649D01*
X182164685Y-103570951D01*
X182151330Y-103559991D01*
X181853622Y-103262283D01*
X181868721Y-103186375D01*
X181868721Y-103058337D01*
X181843742Y-102932758D01*
X181794743Y-102814466D01*
X181723609Y-102708005D01*
X181633072Y-102617468D01*
X181526611Y-102546334D01*
X181408319Y-102497335D01*
X181282740Y-102472356D01*
X181154702Y-102472356D01*
X181029123Y-102497335D01*
X180910831Y-102546334D01*
X180804370Y-102617468D01*
X180721086Y-102700752D01*
X180633082Y-102612748D01*
X180526621Y-102541614D01*
X180408329Y-102492615D01*
X180282750Y-102467636D01*
X180154712Y-102467636D01*
X180029133Y-102492615D01*
X179910841Y-102541614D01*
X179804380Y-102612748D01*
X179713843Y-102703285D01*
X179642709Y-102809746D01*
X179610178Y-102888282D01*
X179565188Y-102820949D01*
X179553564Y-102809325D01*
X181380025Y-100982864D01*
X181460649Y-101063488D01*
X181567110Y-101134622D01*
X181685402Y-101183621D01*
X181810981Y-101208600D01*
X181939019Y-101208600D01*
X182064598Y-101183621D01*
X182182890Y-101134622D01*
X182289351Y-101063488D01*
X182298001Y-101054838D01*
X182298000Y-109990080D01*
X182298000Y-109990081D01*
X182298001Y-122378000D01*
X179250299Y-122378000D01*
X179252500Y-120396056D01*
X179251547Y-120386286D01*
X179248710Y-120376904D01*
X179244097Y-120368256D01*
X179237885Y-120360674D01*
X179230313Y-120354450D01*
X179221673Y-120349822D01*
X179212295Y-120346969D01*
X179202542Y-120346000D01*
X173230071Y-120341015D01*
X174576942Y-118994144D01*
X178866083Y-118994144D01*
X178875672Y-119008495D01*
X178966209Y-119099032D01*
X179072670Y-119170166D01*
X179190962Y-119219165D01*
X179316541Y-119244144D01*
X179444579Y-119244144D01*
X179570158Y-119219165D01*
X179688450Y-119170166D01*
X179794911Y-119099032D01*
X179885448Y-119008495D01*
X179956582Y-118902034D01*
X180005581Y-118783742D01*
X180030560Y-118658163D01*
X180030560Y-118530125D01*
X180005581Y-118404546D01*
X179956582Y-118286254D01*
X179885448Y-118179793D01*
X179794911Y-118089256D01*
X179688450Y-118018122D01*
X179570158Y-117969123D01*
X179444579Y-117944144D01*
X179316541Y-117944144D01*
X179190962Y-117969123D01*
X179072670Y-118018122D01*
X178966209Y-118089256D01*
X178875672Y-118179793D01*
X178866083Y-118194144D01*
X174430902Y-118194144D01*
X174411256Y-118192209D01*
X174391609Y-118194144D01*
X174332842Y-118199932D01*
X174257442Y-118222804D01*
X174206153Y-118250219D01*
X174187953Y-118259947D01*
X174142305Y-118297409D01*
X174142303Y-118297411D01*
X174127045Y-118309933D01*
X174114523Y-118325191D01*
X168647116Y-123792599D01*
X167952436Y-123792599D01*
X167932800Y-123790665D01*
X167913164Y-123792599D01*
X167913154Y-123792599D01*
X167854387Y-123798387D01*
X167778987Y-123821259D01*
X167709498Y-123858402D01*
X167648590Y-123908388D01*
X167636066Y-123923649D01*
X167390748Y-124168967D01*
X167373819Y-124165600D01*
X167245781Y-124165600D01*
X167120202Y-124190579D01*
X167001910Y-124239578D01*
X166895449Y-124310712D01*
X166804912Y-124401249D01*
X166733778Y-124507710D01*
X166684779Y-124626002D01*
X166659800Y-124751581D01*
X166659800Y-124879619D01*
X166684779Y-125005198D01*
X166733778Y-125123490D01*
X166804912Y-125229951D01*
X166895449Y-125320488D01*
X167001910Y-125391622D01*
X167120202Y-125440621D01*
X167245781Y-125465600D01*
X167373819Y-125465600D01*
X167499398Y-125440621D01*
X167617690Y-125391622D01*
X167724151Y-125320488D01*
X167814688Y-125229951D01*
X167885822Y-125123490D01*
X167934821Y-125005198D01*
X167959800Y-124879619D01*
X167959800Y-124751581D01*
X167956433Y-124734652D01*
X168098486Y-124592599D01*
X168793155Y-124592599D01*
X168812801Y-124594534D01*
X168832447Y-124592599D01*
X168832448Y-124592599D01*
X168891215Y-124586811D01*
X168966615Y-124563939D01*
X169036104Y-124526796D01*
X169097012Y-124476810D01*
X169109538Y-124461547D01*
X173066534Y-120504552D01*
X173060561Y-125883520D01*
X166438840Y-130298000D01*
X153561161Y-130298000D01*
X150662915Y-128365836D01*
X151920487Y-128365836D01*
X151920487Y-128469252D01*
X151940663Y-128570681D01*
X151980238Y-128666225D01*
X152037693Y-128752212D01*
X152110819Y-128825338D01*
X152196806Y-128882793D01*
X152292350Y-128922368D01*
X152393779Y-128942544D01*
X152497195Y-128942544D01*
X152598624Y-128922368D01*
X152694168Y-128882793D01*
X152780155Y-128825338D01*
X152853281Y-128752212D01*
X152910736Y-128666225D01*
X152950311Y-128570681D01*
X152970487Y-128469252D01*
X152970487Y-128365836D01*
X152962938Y-128327881D01*
X155952000Y-128327881D01*
X155952000Y-128926120D01*
X155966470Y-129073034D01*
X156023651Y-129261535D01*
X156116509Y-129435258D01*
X156241473Y-129587528D01*
X156393743Y-129712492D01*
X156567466Y-129805349D01*
X156755967Y-129862530D01*
X156952000Y-129881838D01*
X157148034Y-129862530D01*
X157336535Y-129805349D01*
X157510258Y-129712492D01*
X157662528Y-129587528D01*
X157787492Y-129435258D01*
X157880349Y-129261535D01*
X157937530Y-129073033D01*
X157952000Y-128926119D01*
X157952000Y-128327881D01*
X162048000Y-128327881D01*
X162048000Y-128926120D01*
X162062470Y-129073034D01*
X162119651Y-129261535D01*
X162212509Y-129435258D01*
X162337473Y-129587528D01*
X162489743Y-129712492D01*
X162663466Y-129805349D01*
X162851967Y-129862530D01*
X163048000Y-129881838D01*
X163244034Y-129862530D01*
X163432535Y-129805349D01*
X163606258Y-129712492D01*
X163758528Y-129587528D01*
X163883492Y-129435258D01*
X163976349Y-129261535D01*
X164033530Y-129073033D01*
X164048000Y-128926119D01*
X164048000Y-128327880D01*
X164043271Y-128279861D01*
X167052766Y-128279861D01*
X167052766Y-128383277D01*
X167072942Y-128484706D01*
X167112517Y-128580250D01*
X167169972Y-128666237D01*
X167243098Y-128739363D01*
X167329085Y-128796818D01*
X167424629Y-128836393D01*
X167526058Y-128856569D01*
X167629474Y-128856569D01*
X167730903Y-128836393D01*
X167826447Y-128796818D01*
X167912434Y-128739363D01*
X167985560Y-128666237D01*
X168043015Y-128580250D01*
X168082590Y-128484706D01*
X168102766Y-128383277D01*
X168102766Y-128279861D01*
X168082590Y-128178432D01*
X168043015Y-128082888D01*
X167985560Y-127996901D01*
X167912434Y-127923775D01*
X167826447Y-127866320D01*
X167730903Y-127826745D01*
X167629474Y-127806569D01*
X167526058Y-127806569D01*
X167424629Y-127826745D01*
X167329085Y-127866320D01*
X167243098Y-127923775D01*
X167169972Y-127996901D01*
X167112517Y-128082888D01*
X167072942Y-128178432D01*
X167052766Y-128279861D01*
X164043271Y-128279861D01*
X164033530Y-128180966D01*
X163976349Y-127992465D01*
X163883492Y-127818742D01*
X163758528Y-127666472D01*
X163606258Y-127541508D01*
X163432534Y-127448651D01*
X163244033Y-127391470D01*
X163048000Y-127372162D01*
X162851966Y-127391470D01*
X162663465Y-127448651D01*
X162489742Y-127541508D01*
X162337472Y-127666472D01*
X162212508Y-127818742D01*
X162119651Y-127992466D01*
X162062470Y-128180967D01*
X162048000Y-128327881D01*
X157952000Y-128327881D01*
X157952000Y-128327880D01*
X157937530Y-128180966D01*
X157880349Y-127992465D01*
X157787492Y-127818742D01*
X157662528Y-127666472D01*
X157510258Y-127541508D01*
X157336534Y-127448651D01*
X157148033Y-127391470D01*
X156952000Y-127372162D01*
X156755966Y-127391470D01*
X156567465Y-127448651D01*
X156393742Y-127541508D01*
X156241472Y-127666472D01*
X156116508Y-127818742D01*
X156023651Y-127992466D01*
X155966470Y-128180967D01*
X155952000Y-128327881D01*
X152962938Y-128327881D01*
X152950311Y-128264407D01*
X152910736Y-128168863D01*
X152853281Y-128082876D01*
X152780155Y-128009750D01*
X152694168Y-127952295D01*
X152598624Y-127912720D01*
X152497195Y-127892544D01*
X152393779Y-127892544D01*
X152292350Y-127912720D01*
X152196806Y-127952295D01*
X152110819Y-128009750D01*
X152037693Y-128082876D01*
X151980238Y-128168863D01*
X151940663Y-128264407D01*
X151920487Y-128365836D01*
X150662915Y-128365836D01*
X149118285Y-127336083D01*
X150393815Y-127336083D01*
X150393815Y-127439499D01*
X150413991Y-127540928D01*
X150453566Y-127636472D01*
X150511021Y-127722459D01*
X150584147Y-127795585D01*
X150670134Y-127853040D01*
X150765678Y-127892615D01*
X150867107Y-127912791D01*
X150970523Y-127912791D01*
X151071952Y-127892615D01*
X151167496Y-127853040D01*
X151253483Y-127795585D01*
X151326609Y-127722459D01*
X151384064Y-127636472D01*
X151423639Y-127540928D01*
X151443815Y-127439499D01*
X151443815Y-127336083D01*
X151423639Y-127234654D01*
X151384064Y-127139110D01*
X151326609Y-127053123D01*
X151253483Y-126979997D01*
X151167496Y-126922542D01*
X151071952Y-126882967D01*
X150970523Y-126862791D01*
X150867107Y-126862791D01*
X150765678Y-126882967D01*
X150670134Y-126922542D01*
X150584147Y-126979997D01*
X150511021Y-127053123D01*
X150453566Y-127139110D01*
X150413991Y-127234654D01*
X150393815Y-127336083D01*
X149118285Y-127336083D01*
X147610107Y-126330631D01*
X156964000Y-126330631D01*
X156964000Y-126478369D01*
X156992822Y-126623267D01*
X157049359Y-126759758D01*
X157131437Y-126882597D01*
X157235903Y-126987063D01*
X157358742Y-127069141D01*
X157495233Y-127125678D01*
X157640131Y-127154500D01*
X157787869Y-127154500D01*
X157932767Y-127125678D01*
X158069258Y-127069141D01*
X158192097Y-126987063D01*
X158296563Y-126882597D01*
X158329805Y-126832846D01*
X158699999Y-126832846D01*
X158699999Y-126960884D01*
X158724978Y-127086463D01*
X158773977Y-127204755D01*
X158845111Y-127311216D01*
X158935648Y-127401753D01*
X159042109Y-127472887D01*
X159160401Y-127521886D01*
X159285980Y-127546865D01*
X159414018Y-127546865D01*
X159539597Y-127521886D01*
X159657889Y-127472887D01*
X159764350Y-127401753D01*
X159854887Y-127311216D01*
X159877810Y-127276908D01*
X168597178Y-127276908D01*
X168597178Y-127380324D01*
X168617354Y-127481753D01*
X168656929Y-127577297D01*
X168714384Y-127663284D01*
X168787510Y-127736410D01*
X168873497Y-127793865D01*
X168969041Y-127833440D01*
X169070470Y-127853616D01*
X169173886Y-127853616D01*
X169275315Y-127833440D01*
X169370859Y-127793865D01*
X169456846Y-127736410D01*
X169529972Y-127663284D01*
X169587427Y-127577297D01*
X169627002Y-127481753D01*
X169647178Y-127380324D01*
X169647178Y-127276908D01*
X169627002Y-127175479D01*
X169587427Y-127079935D01*
X169529972Y-126993948D01*
X169456846Y-126920822D01*
X169370859Y-126863367D01*
X169275315Y-126823792D01*
X169173886Y-126803616D01*
X169070470Y-126803616D01*
X168969041Y-126823792D01*
X168873497Y-126863367D01*
X168787510Y-126920822D01*
X168714384Y-126993948D01*
X168656929Y-127079935D01*
X168617354Y-127175479D01*
X168597178Y-127276908D01*
X159877810Y-127276908D01*
X159926021Y-127204755D01*
X159975020Y-127086463D01*
X159999999Y-126960884D01*
X159999999Y-126832846D01*
X159975020Y-126707267D01*
X159926021Y-126588975D01*
X159854887Y-126482514D01*
X159764350Y-126391977D01*
X159672538Y-126330631D01*
X161536000Y-126330631D01*
X161536000Y-126478369D01*
X161564822Y-126623267D01*
X161621359Y-126759758D01*
X161703437Y-126882597D01*
X161807903Y-126987063D01*
X161930742Y-127069141D01*
X162067233Y-127125678D01*
X162212131Y-127154500D01*
X162359869Y-127154500D01*
X162504767Y-127125678D01*
X162641258Y-127069141D01*
X162764097Y-126987063D01*
X162868563Y-126882597D01*
X162950641Y-126759758D01*
X163007178Y-126623267D01*
X163036000Y-126478369D01*
X163036000Y-126330631D01*
X163007178Y-126185733D01*
X162950641Y-126049242D01*
X162868563Y-125926403D01*
X162764097Y-125821937D01*
X162641258Y-125739859D01*
X162504767Y-125683322D01*
X162359869Y-125654500D01*
X162212131Y-125654500D01*
X162067233Y-125683322D01*
X161930742Y-125739859D01*
X161807903Y-125821937D01*
X161703437Y-125926403D01*
X161621359Y-126049242D01*
X161564822Y-126185733D01*
X161536000Y-126330631D01*
X159672538Y-126330631D01*
X159657889Y-126320843D01*
X159539597Y-126271844D01*
X159414018Y-126246865D01*
X159285980Y-126246865D01*
X159160401Y-126271844D01*
X159042109Y-126320843D01*
X158935648Y-126391977D01*
X158845111Y-126482514D01*
X158773977Y-126588975D01*
X158724978Y-126707267D01*
X158699999Y-126832846D01*
X158329805Y-126832846D01*
X158378641Y-126759758D01*
X158435178Y-126623267D01*
X158464000Y-126478369D01*
X158464000Y-126330631D01*
X158435178Y-126185733D01*
X158378641Y-126049242D01*
X158296563Y-125926403D01*
X158192097Y-125821937D01*
X158069258Y-125739859D01*
X157932767Y-125683322D01*
X157787869Y-125654500D01*
X157640131Y-125654500D01*
X157495233Y-125683322D01*
X157358742Y-125739859D01*
X157235903Y-125821937D01*
X157131437Y-125926403D01*
X157049359Y-126049242D01*
X156992822Y-126185733D01*
X156964000Y-126330631D01*
X147610107Y-126330631D01*
X144755259Y-124427400D01*
X145072761Y-124427400D01*
X145127649Y-124482288D01*
X145234110Y-124553422D01*
X145352402Y-124602421D01*
X145477981Y-124627400D01*
X145606019Y-124627400D01*
X145731598Y-124602421D01*
X145849890Y-124553422D01*
X145956351Y-124482288D01*
X146046888Y-124391751D01*
X146118022Y-124285290D01*
X146167021Y-124166998D01*
X146177049Y-124116581D01*
X152435800Y-124116581D01*
X152435800Y-124244619D01*
X152460779Y-124370198D01*
X152509778Y-124488490D01*
X152580912Y-124594951D01*
X152671449Y-124685488D01*
X152777910Y-124756622D01*
X152896202Y-124805621D01*
X153021781Y-124830600D01*
X153149819Y-124830600D01*
X153275398Y-124805621D01*
X153393690Y-124756622D01*
X153500151Y-124685488D01*
X153590688Y-124594951D01*
X153621804Y-124548381D01*
X153985200Y-124548381D01*
X153985200Y-124676419D01*
X154010179Y-124801998D01*
X154059178Y-124920290D01*
X154130312Y-125026751D01*
X154220849Y-125117288D01*
X154327310Y-125188422D01*
X154445602Y-125237421D01*
X154571181Y-125262400D01*
X154699219Y-125262400D01*
X154824798Y-125237421D01*
X154943090Y-125188422D01*
X155049551Y-125117288D01*
X155140088Y-125026751D01*
X155211222Y-124920290D01*
X155260221Y-124801998D01*
X155285200Y-124676419D01*
X155285200Y-124598795D01*
X155433000Y-124450995D01*
X155433000Y-124549419D01*
X155457979Y-124674998D01*
X155506978Y-124793290D01*
X155578112Y-124899751D01*
X155668649Y-124990288D01*
X155775110Y-125061422D01*
X155893402Y-125110421D01*
X156018981Y-125135400D01*
X156147019Y-125135400D01*
X156272598Y-125110421D01*
X156390890Y-125061422D01*
X156497351Y-124990288D01*
X156587888Y-124899751D01*
X156659022Y-124793290D01*
X156708021Y-124674998D01*
X156730930Y-124559821D01*
X159188372Y-124559821D01*
X159188372Y-124687859D01*
X159213351Y-124813438D01*
X159262350Y-124931730D01*
X159333484Y-125038191D01*
X159424021Y-125128728D01*
X159530482Y-125199862D01*
X159648774Y-125248861D01*
X159774353Y-125273840D01*
X159902391Y-125273840D01*
X160027970Y-125248861D01*
X160146262Y-125199862D01*
X160252723Y-125128728D01*
X160343260Y-125038191D01*
X160414394Y-124931730D01*
X160463393Y-124813438D01*
X160488372Y-124687859D01*
X160488372Y-124559821D01*
X160463393Y-124434242D01*
X160414394Y-124315950D01*
X160343260Y-124209489D01*
X160252723Y-124118952D01*
X160146262Y-124047818D01*
X160027970Y-123998819D01*
X159902391Y-123973840D01*
X159774353Y-123973840D01*
X159648774Y-123998819D01*
X159530482Y-124047818D01*
X159424021Y-124118952D01*
X159333484Y-124209489D01*
X159262350Y-124315950D01*
X159213351Y-124434242D01*
X159188372Y-124559821D01*
X156730930Y-124559821D01*
X156733000Y-124549419D01*
X156733000Y-124421381D01*
X156708021Y-124295802D01*
X156659022Y-124177510D01*
X156587888Y-124071049D01*
X156497351Y-123980512D01*
X156390890Y-123909378D01*
X156272598Y-123860379D01*
X156147019Y-123835400D01*
X156048595Y-123835400D01*
X157266014Y-122617981D01*
X166863000Y-122617981D01*
X166863000Y-122746019D01*
X166887979Y-122871598D01*
X166936978Y-122989890D01*
X167008112Y-123096351D01*
X167098649Y-123186888D01*
X167205110Y-123258022D01*
X167323402Y-123307021D01*
X167448981Y-123332000D01*
X167577019Y-123332000D01*
X167702598Y-123307021D01*
X167820890Y-123258022D01*
X167927351Y-123186888D01*
X168017888Y-123096351D01*
X168089022Y-122989890D01*
X168138021Y-122871598D01*
X168163000Y-122746019D01*
X168163000Y-122617981D01*
X168138021Y-122492402D01*
X168089022Y-122374110D01*
X168017888Y-122267649D01*
X167927351Y-122177112D01*
X167820890Y-122105978D01*
X167702598Y-122056979D01*
X167577019Y-122032000D01*
X167448981Y-122032000D01*
X167323402Y-122056979D01*
X167205110Y-122105978D01*
X167098649Y-122177112D01*
X167008112Y-122267649D01*
X166936978Y-122374110D01*
X166887979Y-122492402D01*
X166863000Y-122617981D01*
X157266014Y-122617981D01*
X158493773Y-121390223D01*
X158510937Y-121376137D01*
X158525024Y-121358972D01*
X158525028Y-121358968D01*
X158567171Y-121307617D01*
X158586345Y-121271745D01*
X158608957Y-121229441D01*
X158634689Y-121144615D01*
X158641200Y-121078505D01*
X158641200Y-121078493D01*
X158643376Y-121056401D01*
X158641200Y-121034309D01*
X158641200Y-120662181D01*
X166202600Y-120662181D01*
X166202600Y-120790219D01*
X166227579Y-120915798D01*
X166276578Y-121034090D01*
X166347712Y-121140551D01*
X166438249Y-121231088D01*
X166544710Y-121302222D01*
X166663002Y-121351221D01*
X166788581Y-121376200D01*
X166916619Y-121376200D01*
X167042198Y-121351221D01*
X167160490Y-121302222D01*
X167266951Y-121231088D01*
X167357488Y-121140551D01*
X167428622Y-121034090D01*
X167477621Y-120915798D01*
X167502600Y-120790219D01*
X167502600Y-120662181D01*
X167477621Y-120536602D01*
X167428622Y-120418310D01*
X167357488Y-120311849D01*
X167266951Y-120221312D01*
X167160490Y-120150178D01*
X167042198Y-120101179D01*
X166916619Y-120076200D01*
X166788581Y-120076200D01*
X166663002Y-120101179D01*
X166544710Y-120150178D01*
X166438249Y-120221312D01*
X166347712Y-120311849D01*
X166276578Y-120418310D01*
X166227579Y-120536602D01*
X166202600Y-120662181D01*
X158641200Y-120662181D01*
X158641200Y-119214239D01*
X158696088Y-119159351D01*
X158767222Y-119052890D01*
X158816221Y-118934598D01*
X158841200Y-118809019D01*
X158841200Y-118680981D01*
X158816221Y-118555402D01*
X158767222Y-118437110D01*
X158696088Y-118330649D01*
X158605551Y-118240112D01*
X158499090Y-118168978D01*
X158380798Y-118119979D01*
X158255219Y-118095000D01*
X158127181Y-118095000D01*
X158001602Y-118119979D01*
X157883310Y-118168978D01*
X157776849Y-118240112D01*
X157686312Y-118330649D01*
X157615178Y-118437110D01*
X157566179Y-118555402D01*
X157541200Y-118680981D01*
X157541200Y-118809019D01*
X157566179Y-118934598D01*
X157615178Y-119052890D01*
X157686312Y-119159351D01*
X157741201Y-119214240D01*
X157741200Y-120870004D01*
X156577644Y-122033561D01*
X156624021Y-121921598D01*
X156649000Y-121796019D01*
X156649000Y-121667981D01*
X156624021Y-121542402D01*
X156575022Y-121424110D01*
X156503888Y-121317649D01*
X156413351Y-121227112D01*
X156306890Y-121155978D01*
X156188598Y-121106979D01*
X156063019Y-121082000D01*
X155934981Y-121082000D01*
X155809402Y-121106979D01*
X155691110Y-121155978D01*
X155584649Y-121227112D01*
X155494112Y-121317649D01*
X155422978Y-121424110D01*
X155373979Y-121542402D01*
X155349000Y-121667981D01*
X155349000Y-121796019D01*
X155373979Y-121921598D01*
X155422978Y-122039890D01*
X155494112Y-122146351D01*
X155584649Y-122236888D01*
X155691110Y-122308022D01*
X155809402Y-122357021D01*
X155934981Y-122382000D01*
X156063019Y-122382000D01*
X156188598Y-122357021D01*
X156300561Y-122310644D01*
X154648805Y-123962400D01*
X154571181Y-123962400D01*
X154445602Y-123987379D01*
X154327310Y-124036378D01*
X154220849Y-124107512D01*
X154130312Y-124198049D01*
X154059178Y-124304510D01*
X154010179Y-124422802D01*
X153985200Y-124548381D01*
X153621804Y-124548381D01*
X153661822Y-124488490D01*
X153710821Y-124370198D01*
X153735800Y-124244619D01*
X153735800Y-124116581D01*
X153710821Y-123991002D01*
X153661822Y-123872710D01*
X153590688Y-123766249D01*
X153500151Y-123675712D01*
X153393690Y-123604578D01*
X153275398Y-123555579D01*
X153149819Y-123530600D01*
X153021781Y-123530600D01*
X152896202Y-123555579D01*
X152777910Y-123604578D01*
X152671449Y-123675712D01*
X152580912Y-123766249D01*
X152509778Y-123872710D01*
X152460779Y-123991002D01*
X152435800Y-124116581D01*
X146177049Y-124116581D01*
X146192000Y-124041419D01*
X146192000Y-123913381D01*
X146167021Y-123787802D01*
X146118022Y-123669510D01*
X146046888Y-123563049D01*
X145956351Y-123472512D01*
X145849890Y-123401378D01*
X145731598Y-123352379D01*
X145606019Y-123327400D01*
X145477981Y-123327400D01*
X145352402Y-123352379D01*
X145234110Y-123401378D01*
X145127649Y-123472512D01*
X145072761Y-123527400D01*
X143874196Y-123527400D01*
X142407400Y-122060605D01*
X142407400Y-121982981D01*
X142382421Y-121857402D01*
X142333422Y-121739110D01*
X142262288Y-121632649D01*
X142171751Y-121542112D01*
X142065290Y-121470978D01*
X141946998Y-121421979D01*
X141821419Y-121397000D01*
X141693381Y-121397000D01*
X141567802Y-121421979D01*
X141449510Y-121470978D01*
X141343049Y-121542112D01*
X141252512Y-121632649D01*
X141181378Y-121739110D01*
X141132379Y-121857402D01*
X141107400Y-121982981D01*
X141107400Y-122111019D01*
X141132379Y-122236598D01*
X141181378Y-122354890D01*
X141252512Y-122461351D01*
X141343049Y-122551888D01*
X141449510Y-122623022D01*
X141567802Y-122672021D01*
X141693381Y-122697000D01*
X141771005Y-122697000D01*
X143353976Y-124279972D01*
X143368063Y-124297137D01*
X143369115Y-124298000D01*
X137702000Y-124298000D01*
X137702000Y-120831755D01*
X146458574Y-120831755D01*
X146458574Y-120959793D01*
X146483553Y-121085372D01*
X146532552Y-121203664D01*
X146603686Y-121310125D01*
X146694223Y-121400662D01*
X146800684Y-121471796D01*
X146918976Y-121520795D01*
X147044555Y-121545774D01*
X147172593Y-121545774D01*
X147298172Y-121520795D01*
X147335668Y-121505263D01*
X147965400Y-122134996D01*
X147965400Y-122212619D01*
X147990379Y-122338198D01*
X148039378Y-122456490D01*
X148110512Y-122562951D01*
X148201049Y-122653488D01*
X148307510Y-122724622D01*
X148425802Y-122773621D01*
X148551381Y-122798600D01*
X148679419Y-122798600D01*
X148804998Y-122773621D01*
X148923290Y-122724622D01*
X149029751Y-122653488D01*
X149120288Y-122562951D01*
X149191422Y-122456490D01*
X149240421Y-122338198D01*
X149265400Y-122212619D01*
X149265400Y-122084581D01*
X149240421Y-121959002D01*
X149191422Y-121840710D01*
X149120288Y-121734249D01*
X149029751Y-121643712D01*
X148923290Y-121572578D01*
X148804998Y-121523579D01*
X148679419Y-121498600D01*
X148601796Y-121498600D01*
X147696403Y-120593208D01*
X147682311Y-120576037D01*
X147669844Y-120565805D01*
X147613462Y-120481423D01*
X147522925Y-120390886D01*
X147416464Y-120319752D01*
X147298172Y-120270753D01*
X147172593Y-120245774D01*
X147044555Y-120245774D01*
X146918976Y-120270753D01*
X146800684Y-120319752D01*
X146694223Y-120390886D01*
X146603686Y-120481423D01*
X146532552Y-120587884D01*
X146483553Y-120706176D01*
X146458574Y-120831755D01*
X137702000Y-120831755D01*
X137702000Y-116451033D01*
X138729465Y-116451033D01*
X138729465Y-116579071D01*
X138754444Y-116704650D01*
X138803443Y-116822942D01*
X138874577Y-116929403D01*
X138965114Y-117019940D01*
X139071575Y-117091074D01*
X139189867Y-117140073D01*
X139315446Y-117165052D01*
X139393070Y-117165052D01*
X140716789Y-118488772D01*
X140730876Y-118505937D01*
X140748041Y-118520024D01*
X140748045Y-118520028D01*
X140799396Y-118562171D01*
X140856325Y-118592600D01*
X140877572Y-118603957D01*
X140962398Y-118629689D01*
X141028508Y-118636200D01*
X141028518Y-118636200D01*
X141050612Y-118638376D01*
X141072706Y-118636200D01*
X146571361Y-118636200D01*
X146626249Y-118691088D01*
X146732710Y-118762222D01*
X146851002Y-118811221D01*
X146976581Y-118836200D01*
X147104619Y-118836200D01*
X147230198Y-118811221D01*
X147348490Y-118762222D01*
X147454951Y-118691088D01*
X147545488Y-118600551D01*
X147616622Y-118494090D01*
X147665621Y-118375798D01*
X147690600Y-118250219D01*
X147690600Y-118122181D01*
X147665621Y-117996602D01*
X147616622Y-117878310D01*
X147545488Y-117771849D01*
X147454951Y-117681312D01*
X147348490Y-117610178D01*
X147230198Y-117561179D01*
X147104619Y-117536200D01*
X146976581Y-117536200D01*
X146851002Y-117561179D01*
X146732710Y-117610178D01*
X146626249Y-117681312D01*
X146571361Y-117736200D01*
X142644039Y-117736200D01*
X142694088Y-117686151D01*
X142765222Y-117579690D01*
X142814221Y-117461398D01*
X142839200Y-117335819D01*
X142839200Y-117207781D01*
X142814221Y-117082202D01*
X142765222Y-116963910D01*
X142694088Y-116857449D01*
X142603551Y-116766912D01*
X142497090Y-116695778D01*
X142378798Y-116646779D01*
X142253219Y-116621800D01*
X142125181Y-116621800D01*
X141999602Y-116646779D01*
X141881310Y-116695778D01*
X141774849Y-116766912D01*
X141684312Y-116857449D01*
X141613178Y-116963910D01*
X141564179Y-117082202D01*
X141539200Y-117207781D01*
X141539200Y-117335819D01*
X141564179Y-117461398D01*
X141613178Y-117579690D01*
X141684312Y-117686151D01*
X141734361Y-117736200D01*
X141237009Y-117736200D01*
X140029465Y-116528657D01*
X140029465Y-116451033D01*
X140004486Y-116325454D01*
X139955487Y-116207162D01*
X139884353Y-116100701D01*
X139793816Y-116010164D01*
X139687355Y-115939030D01*
X139569063Y-115890031D01*
X139443484Y-115865052D01*
X139315446Y-115865052D01*
X139189867Y-115890031D01*
X139071575Y-115939030D01*
X138965114Y-116010164D01*
X138874577Y-116100701D01*
X138803443Y-116207162D01*
X138754444Y-116325454D01*
X138729465Y-116451033D01*
X137702000Y-116451033D01*
X137702000Y-110776131D01*
X141450000Y-110776131D01*
X141450000Y-110923869D01*
X141478822Y-111068767D01*
X141535359Y-111205258D01*
X141617437Y-111328097D01*
X141721903Y-111432563D01*
X141844742Y-111514641D01*
X141981233Y-111571178D01*
X142126131Y-111600000D01*
X142273869Y-111600000D01*
X142418767Y-111571178D01*
X142555258Y-111514641D01*
X142678097Y-111432563D01*
X142782563Y-111328097D01*
X142864641Y-111205258D01*
X142921178Y-111068767D01*
X142950000Y-110923869D01*
X142950000Y-110776131D01*
X142921178Y-110631233D01*
X142864641Y-110494742D01*
X142782563Y-110371903D01*
X142678097Y-110267437D01*
X142555258Y-110185359D01*
X142418767Y-110128822D01*
X142273869Y-110100000D01*
X142126131Y-110100000D01*
X141981233Y-110128822D01*
X141844742Y-110185359D01*
X141721903Y-110267437D01*
X141617437Y-110371903D01*
X141535359Y-110494742D01*
X141478822Y-110631233D01*
X141450000Y-110776131D01*
X137702000Y-110776131D01*
X137702000Y-108434500D01*
X149572000Y-108434500D01*
X149583509Y-108470428D01*
X149600145Y-108520000D01*
X149583509Y-108569572D01*
X149572000Y-108605500D01*
X149711500Y-108745000D01*
X149738411Y-108745000D01*
X149745294Y-108752904D01*
X149832264Y-108820119D01*
X149930676Y-108869075D01*
X150036748Y-108897891D01*
X150146403Y-108905460D01*
X151036500Y-108903000D01*
X151176000Y-108763500D01*
X151176000Y-108276500D01*
X151584000Y-108276500D01*
X151584000Y-108763500D01*
X151723500Y-108903000D01*
X152613597Y-108905460D01*
X152723252Y-108897891D01*
X152829324Y-108869075D01*
X152927736Y-108820119D01*
X153014706Y-108752904D01*
X153021589Y-108745000D01*
X153048500Y-108745000D01*
X153188000Y-108605500D01*
X153176491Y-108569572D01*
X153159855Y-108520000D01*
X153176491Y-108470428D01*
X153188000Y-108434500D01*
X153048500Y-108295000D01*
X153021589Y-108295000D01*
X153014706Y-108287096D01*
X152927736Y-108219881D01*
X152829324Y-108170925D01*
X152723252Y-108142109D01*
X152613597Y-108134540D01*
X151723500Y-108137000D01*
X151584000Y-108276500D01*
X151176000Y-108276500D01*
X151036500Y-108137000D01*
X150146403Y-108134540D01*
X150036748Y-108142109D01*
X149930676Y-108170925D01*
X149832264Y-108219881D01*
X149745294Y-108287096D01*
X149738411Y-108295000D01*
X149711500Y-108295000D01*
X149572000Y-108434500D01*
X137702000Y-108434500D01*
X137702000Y-105105500D01*
X149572000Y-105105500D01*
X149711500Y-105245000D01*
X151176000Y-105245000D01*
X151176000Y-104776500D01*
X151036500Y-104637000D01*
X150146403Y-104634540D01*
X150036748Y-104642109D01*
X149930676Y-104670925D01*
X149832264Y-104719881D01*
X149745294Y-104787096D01*
X149673108Y-104869986D01*
X149618480Y-104965367D01*
X149583509Y-105069572D01*
X149572000Y-105105500D01*
X137702000Y-105105500D01*
X137702000Y-102796131D01*
X141450000Y-102796131D01*
X141450000Y-102943869D01*
X141478822Y-103088767D01*
X141535359Y-103225258D01*
X141617437Y-103348097D01*
X141721903Y-103452563D01*
X141844742Y-103534641D01*
X141981233Y-103591178D01*
X142126131Y-103620000D01*
X142273869Y-103620000D01*
X142418767Y-103591178D01*
X142555258Y-103534641D01*
X142678097Y-103452563D01*
X142782563Y-103348097D01*
X142864641Y-103225258D01*
X142921178Y-103088767D01*
X142950000Y-102943869D01*
X142950000Y-102796131D01*
X142921178Y-102651233D01*
X142864641Y-102514742D01*
X142782563Y-102391903D01*
X142678097Y-102287437D01*
X142555258Y-102205359D01*
X142418767Y-102148822D01*
X142273869Y-102120000D01*
X142126131Y-102120000D01*
X141981233Y-102148822D01*
X141844742Y-102205359D01*
X141721903Y-102287437D01*
X141617437Y-102391903D01*
X141535359Y-102514742D01*
X141478822Y-102651233D01*
X141450000Y-102796131D01*
X137702000Y-102796131D01*
X137702000Y-97446581D01*
X145323800Y-97446581D01*
X145323800Y-97574619D01*
X145348779Y-97700198D01*
X145397778Y-97818490D01*
X145468912Y-97924951D01*
X145559449Y-98015488D01*
X145665910Y-98086622D01*
X145784202Y-98135621D01*
X145909781Y-98160600D01*
X146037819Y-98160600D01*
X146051991Y-98157781D01*
X150327600Y-98157781D01*
X150327600Y-98285819D01*
X150352579Y-98411398D01*
X150401578Y-98529690D01*
X150472712Y-98636151D01*
X150563249Y-98726688D01*
X150669710Y-98797822D01*
X150788002Y-98846821D01*
X150913581Y-98871800D01*
X151041619Y-98871800D01*
X151167198Y-98846821D01*
X151285490Y-98797822D01*
X151391951Y-98726688D01*
X151482488Y-98636151D01*
X151553622Y-98529690D01*
X151602621Y-98411398D01*
X151627600Y-98285819D01*
X151627600Y-98157781D01*
X151602621Y-98032202D01*
X151553622Y-97913910D01*
X151482488Y-97807449D01*
X151391951Y-97716912D01*
X151285490Y-97645778D01*
X151167198Y-97596779D01*
X151041619Y-97571800D01*
X150913581Y-97571800D01*
X150788002Y-97596779D01*
X150669710Y-97645778D01*
X150563249Y-97716912D01*
X150472712Y-97807449D01*
X150401578Y-97913910D01*
X150352579Y-98032202D01*
X150327600Y-98157781D01*
X146051991Y-98157781D01*
X146163398Y-98135621D01*
X146281690Y-98086622D01*
X146388151Y-98015488D01*
X146478688Y-97924951D01*
X146549822Y-97818490D01*
X146598821Y-97700198D01*
X146623800Y-97574619D01*
X146623800Y-97446581D01*
X146598821Y-97321002D01*
X146549822Y-97202710D01*
X146478688Y-97096249D01*
X146388151Y-97005712D01*
X146281690Y-96934578D01*
X146163398Y-96885579D01*
X146037819Y-96860600D01*
X145909781Y-96860600D01*
X145784202Y-96885579D01*
X145665910Y-96934578D01*
X145559449Y-97005712D01*
X145468912Y-97096249D01*
X145397778Y-97202710D01*
X145348779Y-97321002D01*
X145323800Y-97446581D01*
X137702000Y-97446581D01*
X137702000Y-94102000D01*
X146889985Y-94102000D01*
X146899788Y-94102976D01*
X146909804Y-94102000D01*
X146909920Y-94102000D01*
X146920767Y-94100932D01*
X146939390Y-94099117D01*
X146939485Y-94099088D01*
X146939599Y-94099077D01*
X146959358Y-94093083D01*
X146977479Y-94087607D01*
X146977571Y-94087558D01*
X146977676Y-94087526D01*
X146995672Y-94077907D01*
X147003795Y-94073576D01*
X147003877Y-94073521D01*
X147012768Y-94068769D01*
X147020396Y-94062508D01*
X147196037Y-93945414D01*
X148487986Y-93945414D01*
X148487986Y-94048830D01*
X148508162Y-94150259D01*
X148547737Y-94245803D01*
X148605192Y-94331790D01*
X148678318Y-94404916D01*
X148764305Y-94462371D01*
X148859849Y-94501946D01*
X148961278Y-94522122D01*
X149064694Y-94522122D01*
X149166123Y-94501946D01*
X149261667Y-94462371D01*
X149347654Y-94404916D01*
X149420780Y-94331790D01*
X149469980Y-94258157D01*
X170495589Y-94258157D01*
X170495589Y-94361573D01*
X170515765Y-94463002D01*
X170555340Y-94558546D01*
X170612795Y-94644533D01*
X170685921Y-94717659D01*
X170771908Y-94775114D01*
X170867452Y-94814689D01*
X170968881Y-94834865D01*
X171072297Y-94834865D01*
X171173726Y-94814689D01*
X171269270Y-94775114D01*
X171355257Y-94717659D01*
X171428383Y-94644533D01*
X171485838Y-94558546D01*
X171525413Y-94463002D01*
X171545589Y-94361573D01*
X171545589Y-94258157D01*
X171525413Y-94156728D01*
X171485838Y-94061184D01*
X171428383Y-93975197D01*
X171355257Y-93902071D01*
X171269270Y-93844616D01*
X171173726Y-93805041D01*
X171072297Y-93784865D01*
X170968881Y-93784865D01*
X170867452Y-93805041D01*
X170771908Y-93844616D01*
X170685921Y-93902071D01*
X170612795Y-93975197D01*
X170555340Y-94061184D01*
X170515765Y-94156728D01*
X170495589Y-94258157D01*
X149469980Y-94258157D01*
X149478235Y-94245803D01*
X149517810Y-94150259D01*
X149537986Y-94048830D01*
X149537986Y-93945414D01*
X149517810Y-93843985D01*
X149478235Y-93748441D01*
X149420780Y-93662454D01*
X149347654Y-93589328D01*
X149261667Y-93531873D01*
X149166123Y-93492298D01*
X149064694Y-93472122D01*
X148961278Y-93472122D01*
X148859849Y-93492298D01*
X148764305Y-93531873D01*
X148678318Y-93589328D01*
X148605192Y-93662454D01*
X148547737Y-93748441D01*
X148508162Y-93843985D01*
X148487986Y-93945414D01*
X147196037Y-93945414D01*
X148740667Y-92915661D01*
X150014658Y-92915661D01*
X150014658Y-93019077D01*
X150034834Y-93120506D01*
X150074409Y-93216050D01*
X150131864Y-93302037D01*
X150204990Y-93375163D01*
X150290977Y-93432618D01*
X150386521Y-93472193D01*
X150487950Y-93492369D01*
X150591366Y-93492369D01*
X150692795Y-93472193D01*
X150788339Y-93432618D01*
X150874326Y-93375163D01*
X150947452Y-93302037D01*
X151004907Y-93216050D01*
X151044482Y-93120506D01*
X151064658Y-93019077D01*
X151064658Y-92915661D01*
X151044482Y-92814232D01*
X151004907Y-92718688D01*
X150947452Y-92632701D01*
X150874326Y-92559575D01*
X150788339Y-92502120D01*
X150692795Y-92462545D01*
X150591366Y-92442369D01*
X150487950Y-92442369D01*
X150386521Y-92462545D01*
X150290977Y-92502120D01*
X150204990Y-92559575D01*
X150131864Y-92632701D01*
X150074409Y-92718688D01*
X150034834Y-92814232D01*
X150014658Y-92915661D01*
X148740667Y-92915661D01*
X153561161Y-89702000D01*
X156200000Y-89702000D01*
X156200000Y-93750000D01*
G37*
X156200000Y-93750000D02*
X156200961Y-93759755D01*
X156203806Y-93769134D01*
X156208427Y-93777779D01*
X156214645Y-93785355D01*
X156222221Y-93791573D01*
X156230866Y-93796194D01*
X156240245Y-93799039D01*
X156250000Y-93800000D01*
X164000000Y-93800000D01*
X164009755Y-93799039D01*
X164019134Y-93796194D01*
X164027779Y-93791573D01*
X164035355Y-93785355D01*
X164041573Y-93777779D01*
X164046194Y-93769134D01*
X164049039Y-93759755D01*
X164050000Y-93750000D01*
X164050000Y-93175751D01*
X169005784Y-93175751D01*
X169005784Y-93279167D01*
X169025960Y-93380596D01*
X169065535Y-93476140D01*
X169122990Y-93562127D01*
X169196116Y-93635253D01*
X169282103Y-93692708D01*
X169377647Y-93732283D01*
X169479076Y-93752459D01*
X169582492Y-93752459D01*
X169683921Y-93732283D01*
X169779465Y-93692708D01*
X169865452Y-93635253D01*
X169938578Y-93562127D01*
X169996033Y-93476140D01*
X170035608Y-93380596D01*
X170055784Y-93279167D01*
X170055784Y-93175751D01*
X170035608Y-93074322D01*
X169996033Y-92978778D01*
X169938578Y-92892791D01*
X169865452Y-92819665D01*
X169779465Y-92762210D01*
X169683921Y-92722635D01*
X169582492Y-92702459D01*
X169479076Y-92702459D01*
X169377647Y-92722635D01*
X169282103Y-92762210D01*
X169196116Y-92819665D01*
X169122990Y-92892791D01*
X169065535Y-92978778D01*
X169025960Y-93074322D01*
X169005784Y-93175751D01*
X164050000Y-93175751D01*
X164050000Y-89702000D01*
X166435608Y-89702000D01*
X172577331Y-94060643D01*
X172587232Y-94068769D01*
X172602263Y-94076803D01*
X172617077Y-94085266D01*
X172619797Y-94086176D01*
X172622324Y-94087526D01*
X172638653Y-94092480D01*
X172654815Y-94097883D01*
X172657653Y-94098243D01*
X172660401Y-94099077D01*
X172677397Y-94100751D01*
X172694288Y-94102896D01*
X172707058Y-94102000D01*
X182298001Y-94102000D01*
X182298001Y-100062362D01*
X182289351Y-100053712D01*
X182182890Y-99982578D01*
X182064598Y-99933579D01*
X181939019Y-99908600D01*
X181810981Y-99908600D01*
X181685402Y-99933579D01*
X181567110Y-99982578D01*
X181460649Y-100053712D01*
X181370112Y-100144249D01*
X181327115Y-100208600D01*
X181326511Y-100208600D01*
X181309315Y-100206906D01*
X181240703Y-100213665D01*
X181174728Y-100233678D01*
X181113925Y-100266178D01*
X181060630Y-100309915D01*
X181049670Y-100323270D01*
X178824976Y-102547966D01*
X178811615Y-102558931D01*
X178767878Y-102612226D01*
X178737349Y-102669341D01*
X178645949Y-102730412D01*
X178555412Y-102820949D01*
X178484278Y-102927410D01*
X178435279Y-103045702D01*
X178410300Y-103171281D01*
X178410300Y-103299319D01*
X178435279Y-103424898D01*
X178484278Y-103543190D01*
X178555412Y-103649651D01*
X178645949Y-103740188D01*
X178752410Y-103811322D01*
X178870702Y-103860321D01*
X178996281Y-103885300D01*
X179124319Y-103885300D01*
X179249898Y-103860321D01*
X179368190Y-103811322D01*
X179474651Y-103740188D01*
X179565188Y-103649651D01*
X179636322Y-103543190D01*
X179668853Y-103464654D01*
X179713843Y-103531987D01*
X179804380Y-103622524D01*
X179910841Y-103693658D01*
X180029133Y-103742657D01*
X180154712Y-103767636D01*
X180282750Y-103767636D01*
X180309001Y-103762414D01*
X180309002Y-105141516D01*
X180266890Y-105113378D01*
X180148598Y-105064379D01*
X180023019Y-105039400D01*
X179894981Y-105039400D01*
X179769402Y-105064379D01*
X179651110Y-105113378D01*
X179544649Y-105184512D01*
X179454112Y-105275049D01*
X179411115Y-105339400D01*
X178873802Y-105339400D01*
X178909422Y-105286090D01*
X178958421Y-105167798D01*
X178983400Y-105042219D01*
X178983400Y-104914181D01*
X178958421Y-104788602D01*
X178909422Y-104670310D01*
X178838288Y-104563849D01*
X178747751Y-104473312D01*
X178641290Y-104402178D01*
X178522998Y-104353179D01*
X178397419Y-104328200D01*
X178269381Y-104328200D01*
X178143802Y-104353179D01*
X178025510Y-104402178D01*
X177919049Y-104473312D01*
X177828512Y-104563849D01*
X177757378Y-104670310D01*
X177708379Y-104788602D01*
X177683400Y-104914181D01*
X177683400Y-105042219D01*
X177708379Y-105167798D01*
X177757378Y-105286090D01*
X177792998Y-105339400D01*
X173240577Y-105339400D01*
X171385254Y-103484079D01*
X171374286Y-103470714D01*
X171320991Y-103426977D01*
X171260188Y-103394477D01*
X171194213Y-103374464D01*
X171142790Y-103369399D01*
X171142789Y-103369399D01*
X171125601Y-103367706D01*
X171108413Y-103369399D01*
X169332392Y-103369399D01*
X169319490Y-103360778D01*
X169206515Y-103313981D01*
X173975000Y-103313981D01*
X173975000Y-103442019D01*
X173999979Y-103567598D01*
X174048978Y-103685890D01*
X174120112Y-103792351D01*
X174210649Y-103882888D01*
X174317110Y-103954022D01*
X174435402Y-104003021D01*
X174560981Y-104028000D01*
X174586127Y-104028000D01*
X174565664Y-104077402D01*
X174540685Y-104202981D01*
X174540685Y-104331019D01*
X174565664Y-104456598D01*
X174614663Y-104574890D01*
X174685797Y-104681351D01*
X174776334Y-104771888D01*
X174882795Y-104843022D01*
X175001087Y-104892021D01*
X175126666Y-104917000D01*
X175254704Y-104917000D01*
X175380283Y-104892021D01*
X175498575Y-104843022D01*
X175605036Y-104771888D01*
X175695573Y-104681351D01*
X175766707Y-104574890D01*
X175815706Y-104456598D01*
X175840685Y-104331019D01*
X175840685Y-104202981D01*
X175815706Y-104077402D01*
X175766707Y-103959110D01*
X175695573Y-103852649D01*
X175605036Y-103762112D01*
X175498575Y-103690978D01*
X175380283Y-103641979D01*
X175254704Y-103617000D01*
X175229558Y-103617000D01*
X175250021Y-103567598D01*
X175275000Y-103442019D01*
X175275000Y-103313981D01*
X175250021Y-103188402D01*
X175201022Y-103070110D01*
X175129888Y-102963649D01*
X175039351Y-102873112D01*
X174932890Y-102801978D01*
X174814598Y-102752979D01*
X174689019Y-102728000D01*
X174560981Y-102728000D01*
X174435402Y-102752979D01*
X174317110Y-102801978D01*
X174210649Y-102873112D01*
X174120112Y-102963649D01*
X174048978Y-103070110D01*
X173999979Y-103188402D01*
X173975000Y-103313981D01*
X169206515Y-103313981D01*
X169201198Y-103311779D01*
X169075619Y-103286800D01*
X168947581Y-103286800D01*
X168822002Y-103311779D01*
X168703710Y-103360778D01*
X168597249Y-103431912D01*
X168506712Y-103522449D01*
X168435578Y-103628910D01*
X168386579Y-103747202D01*
X168361600Y-103872781D01*
X168361600Y-104000819D01*
X168386579Y-104126398D01*
X168435578Y-104244690D01*
X168506712Y-104351151D01*
X168597249Y-104441688D01*
X168703710Y-104512822D01*
X168822002Y-104561821D01*
X168947581Y-104586800D01*
X169075619Y-104586800D01*
X169201198Y-104561821D01*
X169319490Y-104512822D01*
X169425951Y-104441688D01*
X169516488Y-104351151D01*
X169587622Y-104244690D01*
X169636621Y-104126398D01*
X169647959Y-104069399D01*
X170241715Y-104069399D01*
X170213578Y-104111510D01*
X170164579Y-104229802D01*
X170139600Y-104355381D01*
X170139600Y-104483262D01*
X170132290Y-104478378D01*
X170013998Y-104429379D01*
X169888419Y-104404400D01*
X169760381Y-104404400D01*
X169634802Y-104429379D01*
X169516510Y-104478378D01*
X169410049Y-104549512D01*
X169319512Y-104640049D01*
X169248378Y-104746510D01*
X169199379Y-104864802D01*
X169174400Y-104990381D01*
X169174400Y-105118419D01*
X169199379Y-105243998D01*
X169248378Y-105362290D01*
X169319512Y-105468751D01*
X169410049Y-105559288D01*
X169516510Y-105630422D01*
X169634802Y-105679421D01*
X169760381Y-105704400D01*
X169888419Y-105704400D01*
X170013998Y-105679421D01*
X170132290Y-105630422D01*
X170238751Y-105559288D01*
X170239601Y-105558438D01*
X170239601Y-106299782D01*
X169748966Y-106790417D01*
X169703026Y-106799555D01*
X169584734Y-106848554D01*
X169478273Y-106919688D01*
X169387736Y-107010225D01*
X169316602Y-107116686D01*
X169267603Y-107234978D01*
X169242624Y-107360557D01*
X169242624Y-107488595D01*
X169267603Y-107614174D01*
X169316602Y-107732466D01*
X169387736Y-107838927D01*
X169478273Y-107929464D01*
X169584734Y-108000598D01*
X169703026Y-108049597D01*
X169828605Y-108074576D01*
X169956643Y-108074576D01*
X170082222Y-108049597D01*
X170200514Y-108000598D01*
X170306975Y-107929464D01*
X170397512Y-107838927D01*
X170468646Y-107732466D01*
X170517645Y-107614174D01*
X170526783Y-107568234D01*
X170697034Y-107397983D01*
X174432200Y-107397983D01*
X174432200Y-107526021D01*
X174457179Y-107651600D01*
X174506178Y-107769892D01*
X174577312Y-107876353D01*
X174667849Y-107966890D01*
X174774310Y-108038024D01*
X174892602Y-108087023D01*
X175018181Y-108112002D01*
X175146219Y-108112002D01*
X175271798Y-108087023D01*
X175390090Y-108038024D01*
X175496551Y-107966890D01*
X175587088Y-107876353D01*
X175658222Y-107769892D01*
X175707221Y-107651600D01*
X175726280Y-107555781D01*
X176667400Y-107555781D01*
X176667400Y-107683819D01*
X176692379Y-107809398D01*
X176741378Y-107927690D01*
X176812512Y-108034151D01*
X176903049Y-108124688D01*
X177009510Y-108195822D01*
X177127802Y-108244821D01*
X177253381Y-108269800D01*
X177381419Y-108269800D01*
X177506998Y-108244821D01*
X177625290Y-108195822D01*
X177731751Y-108124688D01*
X177822288Y-108034151D01*
X177893422Y-107927690D01*
X177942421Y-107809398D01*
X177967400Y-107683819D01*
X177967400Y-107555781D01*
X177942421Y-107430202D01*
X177893422Y-107311910D01*
X177822288Y-107205449D01*
X177731751Y-107114912D01*
X177625290Y-107043778D01*
X177506998Y-106994779D01*
X177381419Y-106969800D01*
X177253381Y-106969800D01*
X177127802Y-106994779D01*
X177009510Y-107043778D01*
X176903049Y-107114912D01*
X176812512Y-107205449D01*
X176741378Y-107311910D01*
X176692379Y-107430202D01*
X176667400Y-107555781D01*
X175726280Y-107555781D01*
X175732200Y-107526021D01*
X175732200Y-107397983D01*
X175707221Y-107272404D01*
X175658222Y-107154112D01*
X175587088Y-107047651D01*
X175496551Y-106957114D01*
X175390090Y-106885980D01*
X175271798Y-106836981D01*
X175146219Y-106812002D01*
X175018181Y-106812002D01*
X174892602Y-106836981D01*
X174774310Y-106885980D01*
X174667849Y-106957114D01*
X174577312Y-107047651D01*
X174506178Y-107154112D01*
X174457179Y-107272404D01*
X174432200Y-107397983D01*
X170697034Y-107397983D01*
X171159404Y-106935613D01*
X171180390Y-106918390D01*
X171249121Y-106834642D01*
X171300192Y-106739094D01*
X171331642Y-106635419D01*
X171339600Y-106554618D01*
X171339600Y-106554611D01*
X171342260Y-106527600D01*
X171339600Y-106500589D01*
X171339600Y-104766235D01*
X171365622Y-104727290D01*
X171414621Y-104608998D01*
X171432142Y-104520914D01*
X172835957Y-105924730D01*
X172846917Y-105938085D01*
X172900212Y-105981822D01*
X172961015Y-106014322D01*
X173006976Y-106028264D01*
X173026989Y-106034335D01*
X173095601Y-106041093D01*
X173112790Y-106039400D01*
X179411115Y-106039400D01*
X179454112Y-106103751D01*
X179544649Y-106194288D01*
X179651110Y-106265422D01*
X179769402Y-106314421D01*
X179891497Y-106338707D01*
X179876017Y-106389737D01*
X179873796Y-106397060D01*
X179867038Y-106465671D01*
X179868731Y-106482860D01*
X179868732Y-107868529D01*
X179819819Y-107858800D01*
X179691781Y-107858800D01*
X179566202Y-107883779D01*
X179447910Y-107932778D01*
X179341449Y-108003912D01*
X179250912Y-108094449D01*
X179179778Y-108200910D01*
X179130779Y-108319202D01*
X179105800Y-108444781D01*
X179105800Y-108572819D01*
X179130779Y-108698398D01*
X179179778Y-108816690D01*
X179250912Y-108923151D01*
X179341449Y-109013688D01*
X179443761Y-109082050D01*
X167998540Y-109082050D01*
X167981351Y-109080357D01*
X167912739Y-109087115D01*
X167892726Y-109093186D01*
X167846765Y-109107128D01*
X167785962Y-109139628D01*
X167732667Y-109183365D01*
X167721707Y-109196720D01*
X167469742Y-109448686D01*
X167452221Y-109360602D01*
X167403222Y-109242310D01*
X167332088Y-109135849D01*
X167241551Y-109045312D01*
X167236893Y-109042200D01*
X167241551Y-109039088D01*
X167332088Y-108948551D01*
X167403222Y-108842090D01*
X167452221Y-108723798D01*
X167477200Y-108598219D01*
X167477200Y-108470181D01*
X167452221Y-108344602D01*
X167403222Y-108226310D01*
X167332088Y-108119849D01*
X167241551Y-108029312D01*
X167135090Y-107958178D01*
X167016798Y-107909179D01*
X166891219Y-107884200D01*
X166763181Y-107884200D01*
X166637602Y-107909179D01*
X166519310Y-107958178D01*
X166412849Y-108029312D01*
X166322312Y-108119849D01*
X166251178Y-108226310D01*
X166202179Y-108344602D01*
X166177200Y-108470181D01*
X166177200Y-108598219D01*
X166202179Y-108723798D01*
X166251178Y-108842090D01*
X166322312Y-108948551D01*
X166412849Y-109039088D01*
X166417507Y-109042200D01*
X166412849Y-109045312D01*
X166322312Y-109135849D01*
X166251178Y-109242310D01*
X166202179Y-109360602D01*
X166177200Y-109486181D01*
X166177200Y-109614219D01*
X166202179Y-109739798D01*
X166251178Y-109858090D01*
X166279315Y-109900201D01*
X165995776Y-109900201D01*
X162559155Y-106463581D01*
X168031400Y-106463581D01*
X168031400Y-106591619D01*
X168056379Y-106717198D01*
X168105378Y-106835490D01*
X168176512Y-106941951D01*
X168267049Y-107032488D01*
X168373510Y-107103622D01*
X168491802Y-107152621D01*
X168617381Y-107177600D01*
X168745419Y-107177600D01*
X168870998Y-107152621D01*
X168989290Y-107103622D01*
X169095751Y-107032488D01*
X169186288Y-106941951D01*
X169257422Y-106835490D01*
X169306421Y-106717198D01*
X169331400Y-106591619D01*
X169331400Y-106463581D01*
X169306421Y-106338002D01*
X169257422Y-106219710D01*
X169186288Y-106113249D01*
X169095751Y-106022712D01*
X168989290Y-105951578D01*
X168870998Y-105902579D01*
X168745419Y-105877600D01*
X168617381Y-105877600D01*
X168491802Y-105902579D01*
X168373510Y-105951578D01*
X168267049Y-106022712D01*
X168176512Y-106113249D01*
X168105378Y-106219710D01*
X168056379Y-106338002D01*
X168031400Y-106463581D01*
X162559155Y-106463581D01*
X162178901Y-106083328D01*
X162194000Y-106007419D01*
X162194000Y-105879381D01*
X162169021Y-105753802D01*
X162120022Y-105635510D01*
X162048888Y-105529049D01*
X161958351Y-105438512D01*
X161851890Y-105367378D01*
X161733598Y-105318379D01*
X161608019Y-105293400D01*
X161479981Y-105293400D01*
X161354402Y-105318379D01*
X161236110Y-105367378D01*
X161129649Y-105438512D01*
X161039112Y-105529049D01*
X160967978Y-105635510D01*
X160918979Y-105753802D01*
X160894000Y-105879381D01*
X160894000Y-106007419D01*
X160918979Y-106132998D01*
X160967978Y-106251290D01*
X161039112Y-106357751D01*
X161129649Y-106448288D01*
X161236110Y-106519422D01*
X161354402Y-106568421D01*
X161479981Y-106593400D01*
X161608019Y-106593400D01*
X161683928Y-106578301D01*
X165591157Y-110485532D01*
X165602116Y-110498886D01*
X165655411Y-110542623D01*
X165716214Y-110575123D01*
X165782189Y-110595136D01*
X165833612Y-110600201D01*
X165833614Y-110600201D01*
X165850800Y-110601894D01*
X165867986Y-110600201D01*
X167146013Y-110600201D01*
X167163201Y-110601894D01*
X167180389Y-110600201D01*
X167180390Y-110600201D01*
X167231813Y-110595136D01*
X167297788Y-110575123D01*
X167358591Y-110542623D01*
X167411886Y-110498886D01*
X167422854Y-110485521D01*
X168126327Y-109782050D01*
X169362828Y-109782050D01*
X169299178Y-109877310D01*
X169250179Y-109995602D01*
X169225200Y-110121181D01*
X169225200Y-110249219D01*
X169250179Y-110374798D01*
X169299178Y-110493090D01*
X169325200Y-110532035D01*
X169325201Y-112584783D01*
X167370325Y-114539660D01*
X167350621Y-114440602D01*
X167301622Y-114322310D01*
X167242616Y-114234000D01*
X167353219Y-114234000D01*
X167478798Y-114209021D01*
X167597090Y-114160022D01*
X167703551Y-114088888D01*
X167794088Y-113998351D01*
X167865222Y-113891890D01*
X167914221Y-113773598D01*
X167939200Y-113648019D01*
X167939200Y-113519981D01*
X167914221Y-113394402D01*
X167865222Y-113276110D01*
X167794088Y-113169649D01*
X167703551Y-113079112D01*
X167597090Y-113007978D01*
X167478798Y-112958979D01*
X167388335Y-112940985D01*
X167428622Y-112880690D01*
X167477621Y-112762398D01*
X167502600Y-112636819D01*
X167502600Y-112508781D01*
X167477621Y-112383202D01*
X167428622Y-112264910D01*
X167357488Y-112158449D01*
X167266951Y-112067912D01*
X167160490Y-111996778D01*
X167042198Y-111947779D01*
X166916619Y-111922800D01*
X166788581Y-111922800D01*
X166663002Y-111947779D01*
X166544710Y-111996778D01*
X166438249Y-112067912D01*
X166347712Y-112158449D01*
X166276578Y-112264910D01*
X166227579Y-112383202D01*
X166202600Y-112508781D01*
X166202600Y-112636819D01*
X166227579Y-112762398D01*
X166276578Y-112880690D01*
X166347712Y-112987151D01*
X166438249Y-113077688D01*
X166544710Y-113148822D01*
X166663002Y-113197821D01*
X166753465Y-113215815D01*
X166713178Y-113276110D01*
X166664179Y-113394402D01*
X166639200Y-113519981D01*
X166639200Y-113648019D01*
X166664179Y-113773598D01*
X166713178Y-113891890D01*
X166772184Y-113980200D01*
X166661581Y-113980200D01*
X166536002Y-114005179D01*
X166417710Y-114054178D01*
X166311249Y-114125312D01*
X166256361Y-114180200D01*
X164102394Y-114180200D01*
X157460199Y-107538006D01*
X157460199Y-105869808D01*
X157462375Y-105847714D01*
X157460199Y-105825619D01*
X157460199Y-105825609D01*
X157453688Y-105759499D01*
X157427956Y-105674673D01*
X157404303Y-105630422D01*
X157386170Y-105596497D01*
X157344027Y-105545146D01*
X157344023Y-105545142D01*
X157329936Y-105527977D01*
X157312772Y-105513891D01*
X155316062Y-103517181D01*
X163230800Y-103517181D01*
X163230800Y-103645219D01*
X163255779Y-103770798D01*
X163304778Y-103889090D01*
X163375912Y-103995551D01*
X163466449Y-104086088D01*
X163572910Y-104157222D01*
X163691202Y-104206221D01*
X163816781Y-104231200D01*
X163944819Y-104231200D01*
X164070398Y-104206221D01*
X164188690Y-104157222D01*
X164295151Y-104086088D01*
X164385688Y-103995551D01*
X164428685Y-103931200D01*
X165799737Y-103931200D01*
X165796200Y-103948981D01*
X165796200Y-104077019D01*
X165821179Y-104202598D01*
X165870178Y-104320890D01*
X165941312Y-104427351D01*
X166031849Y-104517888D01*
X166138310Y-104589022D01*
X166256602Y-104638021D01*
X166382181Y-104663000D01*
X166510219Y-104663000D01*
X166635798Y-104638021D01*
X166754090Y-104589022D01*
X166860551Y-104517888D01*
X166951088Y-104427351D01*
X167022222Y-104320890D01*
X167071221Y-104202598D01*
X167096200Y-104077019D01*
X167096200Y-103948981D01*
X167071221Y-103823402D01*
X167022222Y-103705110D01*
X166951088Y-103598649D01*
X166860551Y-103508112D01*
X166754090Y-103436978D01*
X166635798Y-103387979D01*
X166510219Y-103363000D01*
X166382181Y-103363000D01*
X166306272Y-103378099D01*
X166274053Y-103345880D01*
X166263085Y-103332515D01*
X166209790Y-103288778D01*
X166148987Y-103256278D01*
X166083012Y-103236265D01*
X166031589Y-103231200D01*
X166031588Y-103231200D01*
X166014400Y-103229507D01*
X165997212Y-103231200D01*
X164428685Y-103231200D01*
X164385688Y-103166849D01*
X164295151Y-103076312D01*
X164188690Y-103005178D01*
X164070398Y-102956179D01*
X163944819Y-102931200D01*
X163816781Y-102931200D01*
X163691202Y-102956179D01*
X163572910Y-103005178D01*
X163466449Y-103076312D01*
X163375912Y-103166849D01*
X163304778Y-103273310D01*
X163255779Y-103391602D01*
X163230800Y-103517181D01*
X155316062Y-103517181D01*
X154975914Y-103177034D01*
X154961822Y-103159863D01*
X154893301Y-103103629D01*
X154815126Y-103061843D01*
X154730300Y-103036111D01*
X154664190Y-103029600D01*
X154664179Y-103029600D01*
X154642085Y-103027424D01*
X154619991Y-103029600D01*
X154545639Y-103029600D01*
X154490751Y-102974712D01*
X154384290Y-102903578D01*
X154265998Y-102854579D01*
X154140419Y-102829600D01*
X154012381Y-102829600D01*
X153886802Y-102854579D01*
X153768510Y-102903578D01*
X153662049Y-102974712D01*
X153571512Y-103065249D01*
X153500378Y-103171710D01*
X153451379Y-103290002D01*
X153426400Y-103415581D01*
X153426400Y-103543619D01*
X153451379Y-103669198D01*
X153500378Y-103787490D01*
X153571512Y-103893951D01*
X153662049Y-103984488D01*
X153768510Y-104055622D01*
X153886802Y-104104621D01*
X154012381Y-104129600D01*
X154140419Y-104129600D01*
X154265998Y-104104621D01*
X154384290Y-104055622D01*
X154490751Y-103984488D01*
X154500664Y-103974575D01*
X156560199Y-106034110D01*
X156560199Y-106543402D01*
X156279231Y-106262434D01*
X156265140Y-106245264D01*
X156196619Y-106189030D01*
X156118444Y-106147244D01*
X156033618Y-106121512D01*
X155967508Y-106115001D01*
X155967497Y-106115001D01*
X155945403Y-106112825D01*
X155923309Y-106115001D01*
X155106885Y-106115001D01*
X155135022Y-106072891D01*
X155184021Y-105954599D01*
X155209000Y-105829020D01*
X155209000Y-105700982D01*
X155184021Y-105575403D01*
X155135022Y-105457111D01*
X155063888Y-105350650D01*
X154973351Y-105260113D01*
X154866890Y-105188979D01*
X154748598Y-105139980D01*
X154623019Y-105115001D01*
X154494981Y-105115001D01*
X154369402Y-105139980D01*
X154266569Y-105182575D01*
X153053200Y-103969207D01*
X153053200Y-99173781D01*
X173111400Y-99173781D01*
X173111400Y-99301819D01*
X173136379Y-99427398D01*
X173185378Y-99545690D01*
X173256512Y-99652151D01*
X173347049Y-99742688D01*
X173453510Y-99813822D01*
X173571802Y-99862821D01*
X173697381Y-99887800D01*
X173825419Y-99887800D01*
X173950998Y-99862821D01*
X174069290Y-99813822D01*
X174175751Y-99742688D01*
X174266288Y-99652151D01*
X174337422Y-99545690D01*
X174386421Y-99427398D01*
X174391397Y-99402381D01*
X178166000Y-99402381D01*
X178166000Y-99530419D01*
X178190979Y-99655998D01*
X178239978Y-99774290D01*
X178311112Y-99880751D01*
X178401649Y-99971288D01*
X178508110Y-100042422D01*
X178626402Y-100091421D01*
X178751981Y-100116400D01*
X178880019Y-100116400D01*
X179005598Y-100091421D01*
X179123890Y-100042422D01*
X179230351Y-99971288D01*
X179253158Y-99948481D01*
X179690000Y-99948481D01*
X179690000Y-100076519D01*
X179714979Y-100202098D01*
X179763978Y-100320390D01*
X179835112Y-100426851D01*
X179925649Y-100517388D01*
X180032110Y-100588522D01*
X180150402Y-100637521D01*
X180275981Y-100662500D01*
X180404019Y-100662500D01*
X180529598Y-100637521D01*
X180647890Y-100588522D01*
X180754351Y-100517388D01*
X180844888Y-100426851D01*
X180916022Y-100320390D01*
X180965021Y-100202098D01*
X180990000Y-100076519D01*
X180990000Y-99948481D01*
X180965021Y-99822902D01*
X180916022Y-99704610D01*
X180844888Y-99598149D01*
X180754351Y-99507612D01*
X180647890Y-99436478D01*
X180529598Y-99387479D01*
X180404019Y-99362500D01*
X180275981Y-99362500D01*
X180150402Y-99387479D01*
X180032110Y-99436478D01*
X179925649Y-99507612D01*
X179835112Y-99598149D01*
X179763978Y-99704610D01*
X179714979Y-99822902D01*
X179690000Y-99948481D01*
X179253158Y-99948481D01*
X179320888Y-99880751D01*
X179392022Y-99774290D01*
X179441021Y-99655998D01*
X179466000Y-99530419D01*
X179466000Y-99402381D01*
X179441021Y-99276802D01*
X179392022Y-99158510D01*
X179320888Y-99052049D01*
X179230351Y-98961512D01*
X179123890Y-98890378D01*
X179005598Y-98841379D01*
X178880019Y-98816400D01*
X178751981Y-98816400D01*
X178626402Y-98841379D01*
X178508110Y-98890378D01*
X178401649Y-98961512D01*
X178311112Y-99052049D01*
X178239978Y-99158510D01*
X178190979Y-99276802D01*
X178166000Y-99402381D01*
X174391397Y-99402381D01*
X174411400Y-99301819D01*
X174411400Y-99173781D01*
X174386421Y-99048202D01*
X174337422Y-98929910D01*
X174266288Y-98823449D01*
X174175751Y-98732912D01*
X174069290Y-98661778D01*
X173950998Y-98612779D01*
X173825419Y-98587800D01*
X173697381Y-98587800D01*
X173571802Y-98612779D01*
X173453510Y-98661778D01*
X173347049Y-98732912D01*
X173256512Y-98823449D01*
X173185378Y-98929910D01*
X173136379Y-99048202D01*
X173111400Y-99173781D01*
X153053200Y-99173781D01*
X153053200Y-95414439D01*
X153108088Y-95359551D01*
X153179222Y-95253090D01*
X153180716Y-95249481D01*
X178293000Y-95249481D01*
X178293000Y-95377519D01*
X178317979Y-95503098D01*
X178366978Y-95621390D01*
X178438112Y-95727851D01*
X178528649Y-95818388D01*
X178635110Y-95889522D01*
X178753402Y-95938521D01*
X178803570Y-95948500D01*
X178753402Y-95958479D01*
X178635110Y-96007478D01*
X178528649Y-96078612D01*
X178438112Y-96169149D01*
X178366978Y-96275610D01*
X178317979Y-96393902D01*
X178293000Y-96519481D01*
X178293000Y-96647519D01*
X178317979Y-96773098D01*
X178366978Y-96891390D01*
X178438112Y-96997851D01*
X178528649Y-97088388D01*
X178635110Y-97159522D01*
X178753402Y-97208521D01*
X178878981Y-97233500D01*
X179007019Y-97233500D01*
X179132598Y-97208521D01*
X179250890Y-97159522D01*
X179357351Y-97088388D01*
X179447888Y-96997851D01*
X179519022Y-96891390D01*
X179568021Y-96773098D01*
X179593000Y-96647519D01*
X179593000Y-96519481D01*
X179568021Y-96393902D01*
X179519022Y-96275610D01*
X179447888Y-96169149D01*
X179357351Y-96078612D01*
X179250890Y-96007478D01*
X179132598Y-95958479D01*
X179082430Y-95948500D01*
X179132598Y-95938521D01*
X179250890Y-95889522D01*
X179357351Y-95818388D01*
X179447888Y-95727851D01*
X179519022Y-95621390D01*
X179568021Y-95503098D01*
X179593000Y-95377519D01*
X179593000Y-95249481D01*
X179568021Y-95123902D01*
X179519022Y-95005610D01*
X179447888Y-94899149D01*
X179357351Y-94808612D01*
X179250890Y-94737478D01*
X179132598Y-94688479D01*
X179007019Y-94663500D01*
X178878981Y-94663500D01*
X178753402Y-94688479D01*
X178635110Y-94737478D01*
X178528649Y-94808612D01*
X178438112Y-94899149D01*
X178366978Y-95005610D01*
X178317979Y-95123902D01*
X178293000Y-95249481D01*
X153180716Y-95249481D01*
X153228221Y-95134798D01*
X153253200Y-95009219D01*
X153253200Y-94881181D01*
X153228221Y-94755602D01*
X153179222Y-94637310D01*
X153108088Y-94530849D01*
X153017551Y-94440312D01*
X152911090Y-94369178D01*
X152792798Y-94320179D01*
X152667219Y-94295200D01*
X152539181Y-94295200D01*
X152413602Y-94320179D01*
X152295310Y-94369178D01*
X152188849Y-94440312D01*
X152098312Y-94530849D01*
X152027178Y-94637310D01*
X151978179Y-94755602D01*
X151953200Y-94881181D01*
X151953200Y-95009219D01*
X151978179Y-95134798D01*
X152027178Y-95253090D01*
X152098312Y-95359551D01*
X152153200Y-95414439D01*
X152153201Y-104133498D01*
X152151024Y-104155602D01*
X152159712Y-104243817D01*
X152185443Y-104328642D01*
X152227229Y-104406818D01*
X152269372Y-104458169D01*
X152269377Y-104458174D01*
X152283464Y-104475339D01*
X152300629Y-104489426D01*
X152446206Y-104635003D01*
X151723500Y-104637000D01*
X151584000Y-104776500D01*
X151584000Y-105245000D01*
X151604000Y-105245000D01*
X151604000Y-105495000D01*
X151584000Y-105495000D01*
X151584000Y-105545000D01*
X151176000Y-105545000D01*
X151176000Y-105495000D01*
X149711500Y-105495000D01*
X149691201Y-105515299D01*
X149659890Y-105494378D01*
X149541598Y-105445379D01*
X149416019Y-105420400D01*
X149287981Y-105420400D01*
X149162402Y-105445379D01*
X149044110Y-105494378D01*
X148937649Y-105565512D01*
X148847112Y-105656049D01*
X148775978Y-105762510D01*
X148726979Y-105880802D01*
X148702000Y-106006381D01*
X148702000Y-106134419D01*
X148726979Y-106259998D01*
X148775978Y-106378290D01*
X148847112Y-106484751D01*
X148937649Y-106575288D01*
X149044110Y-106646422D01*
X149162402Y-106695421D01*
X149287981Y-106720400D01*
X149416019Y-106720400D01*
X149541598Y-106695421D01*
X149659890Y-106646422D01*
X149766351Y-106575288D01*
X149821639Y-106520000D01*
X149891502Y-106520000D01*
X149883618Y-106545992D01*
X149878791Y-106595000D01*
X149878791Y-106945000D01*
X149883618Y-106994008D01*
X149897913Y-107041134D01*
X149921127Y-107084564D01*
X149950208Y-107120000D01*
X149921127Y-107155436D01*
X149897913Y-107198866D01*
X149883618Y-107245992D01*
X149878791Y-107295000D01*
X149878791Y-107496736D01*
X149832264Y-107519881D01*
X149745294Y-107587096D01*
X149673108Y-107669986D01*
X149618480Y-107765367D01*
X149583509Y-107869572D01*
X149572000Y-107905500D01*
X149711500Y-108045000D01*
X151176000Y-108045000D01*
X151176000Y-107995000D01*
X151584000Y-107995000D01*
X151584000Y-108045000D01*
X153048500Y-108045000D01*
X153173500Y-107920000D01*
X155145185Y-107920000D01*
X155028252Y-107968436D01*
X154921791Y-108039570D01*
X154831254Y-108130107D01*
X154760120Y-108236568D01*
X154711121Y-108354860D01*
X154705748Y-108381870D01*
X154678132Y-108315199D01*
X154606998Y-108208738D01*
X154516461Y-108118201D01*
X154410000Y-108047067D01*
X154291708Y-107998068D01*
X154166129Y-107973089D01*
X154038091Y-107973089D01*
X153912512Y-107998068D01*
X153794220Y-108047067D01*
X153687759Y-108118201D01*
X153597222Y-108208738D01*
X153526088Y-108315199D01*
X153477089Y-108433491D01*
X153452110Y-108559070D01*
X153452110Y-108687108D01*
X153477089Y-108812687D01*
X153526088Y-108930979D01*
X153597222Y-109037440D01*
X153679782Y-109120000D01*
X153173500Y-109120000D01*
X153048500Y-108995000D01*
X151584000Y-108995000D01*
X151584000Y-109045000D01*
X151176000Y-109045000D01*
X151176000Y-108995000D01*
X149711500Y-108995000D01*
X149572000Y-109134500D01*
X149583509Y-109170428D01*
X149618480Y-109274633D01*
X149673108Y-109370014D01*
X149745294Y-109452904D01*
X149832264Y-109520119D01*
X149878791Y-109543264D01*
X149878791Y-109745000D01*
X149881233Y-109769794D01*
X149867951Y-109756512D01*
X149761490Y-109685378D01*
X149643198Y-109636379D01*
X149517619Y-109611400D01*
X149389581Y-109611400D01*
X149264002Y-109636379D01*
X149145710Y-109685378D01*
X149039249Y-109756512D01*
X148948712Y-109847049D01*
X148877578Y-109953510D01*
X148828579Y-110071802D01*
X148803600Y-110197381D01*
X148803600Y-110325419D01*
X148828579Y-110450998D01*
X148877578Y-110569290D01*
X148948712Y-110675751D01*
X149039249Y-110766288D01*
X149145710Y-110837422D01*
X149264002Y-110886421D01*
X149389581Y-110911400D01*
X149517619Y-110911400D01*
X149643198Y-110886421D01*
X149761490Y-110837422D01*
X149867951Y-110766288D01*
X149883112Y-110751127D01*
X149878791Y-110795000D01*
X149878791Y-111145000D01*
X149880905Y-111166466D01*
X149867951Y-111153512D01*
X149761490Y-111082378D01*
X149643198Y-111033379D01*
X149517619Y-111008400D01*
X149389581Y-111008400D01*
X149264002Y-111033379D01*
X149145710Y-111082378D01*
X149039249Y-111153512D01*
X148948712Y-111244049D01*
X148877578Y-111350510D01*
X148828579Y-111468802D01*
X148803600Y-111594381D01*
X148803600Y-111722419D01*
X148828579Y-111847998D01*
X148877578Y-111966290D01*
X148948712Y-112072751D01*
X149039249Y-112163288D01*
X149145710Y-112234422D01*
X149264002Y-112283421D01*
X149363523Y-112303217D01*
X149354028Y-112314787D01*
X149324022Y-112370925D01*
X149312242Y-112392963D01*
X149286510Y-112477789D01*
X149279999Y-112543899D01*
X149279999Y-112543909D01*
X149277823Y-112566003D01*
X149279999Y-112588098D01*
X149280000Y-113542897D01*
X149277823Y-113565001D01*
X149286511Y-113653216D01*
X149312242Y-113738041D01*
X149354028Y-113816217D01*
X149396171Y-113867568D01*
X149396176Y-113867573D01*
X149410263Y-113884738D01*
X149427428Y-113898825D01*
X153395173Y-117866571D01*
X153409260Y-117883736D01*
X153426425Y-117897823D01*
X153426429Y-117897827D01*
X153477780Y-117939970D01*
X153555956Y-117981756D01*
X153640782Y-118007488D01*
X153706892Y-118013999D01*
X153706902Y-118013999D01*
X153728996Y-118016175D01*
X153751090Y-118013999D01*
X164688006Y-118013999D01*
X165094599Y-118420593D01*
X165094600Y-118954497D01*
X165092423Y-118976601D01*
X165101111Y-119064816D01*
X165126842Y-119149641D01*
X165168628Y-119227817D01*
X165210771Y-119279168D01*
X165210776Y-119279173D01*
X165224863Y-119296338D01*
X165242028Y-119310425D01*
X165664974Y-119733372D01*
X165679061Y-119750537D01*
X165696226Y-119764624D01*
X165696230Y-119764628D01*
X165747581Y-119806771D01*
X165774812Y-119821326D01*
X165825757Y-119848557D01*
X165910583Y-119874289D01*
X165976693Y-119880800D01*
X165976705Y-119880800D01*
X165998797Y-119882976D01*
X166020889Y-119880800D01*
X167819003Y-119880800D01*
X168725575Y-120787373D01*
X168739662Y-120804538D01*
X168756827Y-120818625D01*
X168756831Y-120818629D01*
X168808182Y-120860772D01*
X168847271Y-120881665D01*
X168886358Y-120902558D01*
X168971184Y-120928290D01*
X169037294Y-120934801D01*
X169037305Y-120934801D01*
X169059399Y-120936977D01*
X169081493Y-120934801D01*
X171008905Y-120934801D01*
X171030999Y-120936977D01*
X171053093Y-120934801D01*
X171053104Y-120934801D01*
X171119214Y-120928290D01*
X171204040Y-120902558D01*
X171282215Y-120860772D01*
X171350736Y-120804538D01*
X171364828Y-120787367D01*
X175986186Y-116166010D01*
X177562598Y-116166010D01*
X177584692Y-116168186D01*
X177606786Y-116166010D01*
X177606797Y-116166010D01*
X177672907Y-116159499D01*
X177757733Y-116133767D01*
X177835908Y-116091981D01*
X177904429Y-116035747D01*
X177918521Y-116018576D01*
X179268710Y-114668388D01*
X179306778Y-114760290D01*
X179377912Y-114866751D01*
X179468449Y-114957288D01*
X179574910Y-115028422D01*
X179693202Y-115077421D01*
X179818781Y-115102400D01*
X179946819Y-115102400D01*
X180072398Y-115077421D01*
X180190690Y-115028422D01*
X180232802Y-115000284D01*
X180232802Y-115073369D01*
X180223577Y-115084610D01*
X180191077Y-115145413D01*
X180174018Y-115201649D01*
X180171064Y-115211388D01*
X180164306Y-115279999D01*
X180165999Y-115297188D01*
X180166000Y-115914801D01*
X180164306Y-115931999D01*
X180171064Y-116000610D01*
X180187860Y-116055978D01*
X180191078Y-116066586D01*
X180223578Y-116127389D01*
X180267315Y-116180684D01*
X180280675Y-116191648D01*
X180581099Y-116492072D01*
X180566000Y-116567981D01*
X180566000Y-116696019D01*
X180590979Y-116821598D01*
X180639978Y-116939890D01*
X180711112Y-117046351D01*
X180801649Y-117136888D01*
X180908110Y-117208022D01*
X181026402Y-117257021D01*
X181151981Y-117282000D01*
X181280019Y-117282000D01*
X181405598Y-117257021D01*
X181523890Y-117208022D01*
X181630351Y-117136888D01*
X181720888Y-117046351D01*
X181792022Y-116939890D01*
X181841021Y-116821598D01*
X181866000Y-116696019D01*
X181866000Y-116567981D01*
X181841021Y-116442402D01*
X181792022Y-116324110D01*
X181720888Y-116217649D01*
X181630351Y-116127112D01*
X181625693Y-116124000D01*
X181630351Y-116120888D01*
X181720888Y-116030351D01*
X181792022Y-115923890D01*
X181841021Y-115805598D01*
X181866000Y-115680019D01*
X181866000Y-115551981D01*
X181850901Y-115476073D01*
X182151326Y-115175648D01*
X182164686Y-115164684D01*
X182208423Y-115111389D01*
X182240923Y-115050586D01*
X182260936Y-114984611D01*
X182266001Y-114933188D01*
X182267694Y-114915999D01*
X182266001Y-114898810D01*
X182266001Y-103836825D01*
X182267694Y-103819636D01*
X182260936Y-103751024D01*
X182240923Y-103685048D01*
X182208423Y-103624246D01*
X182187416Y-103598649D01*
X182164685Y-103570951D01*
X182151330Y-103559991D01*
X181853622Y-103262283D01*
X181868721Y-103186375D01*
X181868721Y-103058337D01*
X181843742Y-102932758D01*
X181794743Y-102814466D01*
X181723609Y-102708005D01*
X181633072Y-102617468D01*
X181526611Y-102546334D01*
X181408319Y-102497335D01*
X181282740Y-102472356D01*
X181154702Y-102472356D01*
X181029123Y-102497335D01*
X180910831Y-102546334D01*
X180804370Y-102617468D01*
X180721086Y-102700752D01*
X180633082Y-102612748D01*
X180526621Y-102541614D01*
X180408329Y-102492615D01*
X180282750Y-102467636D01*
X180154712Y-102467636D01*
X180029133Y-102492615D01*
X179910841Y-102541614D01*
X179804380Y-102612748D01*
X179713843Y-102703285D01*
X179642709Y-102809746D01*
X179610178Y-102888282D01*
X179565188Y-102820949D01*
X179553564Y-102809325D01*
X181380025Y-100982864D01*
X181460649Y-101063488D01*
X181567110Y-101134622D01*
X181685402Y-101183621D01*
X181810981Y-101208600D01*
X181939019Y-101208600D01*
X182064598Y-101183621D01*
X182182890Y-101134622D01*
X182289351Y-101063488D01*
X182298001Y-101054838D01*
X182298000Y-109990080D01*
X182298000Y-109990081D01*
X182298001Y-122378000D01*
X179250299Y-122378000D01*
X179252500Y-120396056D01*
X179251547Y-120386286D01*
X179248710Y-120376904D01*
X179244097Y-120368256D01*
X179237885Y-120360674D01*
X179230313Y-120354450D01*
X179221673Y-120349822D01*
X179212295Y-120346969D01*
X179202542Y-120346000D01*
X173230071Y-120341015D01*
X174576942Y-118994144D01*
X178866083Y-118994144D01*
X178875672Y-119008495D01*
X178966209Y-119099032D01*
X179072670Y-119170166D01*
X179190962Y-119219165D01*
X179316541Y-119244144D01*
X179444579Y-119244144D01*
X179570158Y-119219165D01*
X179688450Y-119170166D01*
X179794911Y-119099032D01*
X179885448Y-119008495D01*
X179956582Y-118902034D01*
X180005581Y-118783742D01*
X180030560Y-118658163D01*
X180030560Y-118530125D01*
X180005581Y-118404546D01*
X179956582Y-118286254D01*
X179885448Y-118179793D01*
X179794911Y-118089256D01*
X179688450Y-118018122D01*
X179570158Y-117969123D01*
X179444579Y-117944144D01*
X179316541Y-117944144D01*
X179190962Y-117969123D01*
X179072670Y-118018122D01*
X178966209Y-118089256D01*
X178875672Y-118179793D01*
X178866083Y-118194144D01*
X174430902Y-118194144D01*
X174411256Y-118192209D01*
X174391609Y-118194144D01*
X174332842Y-118199932D01*
X174257442Y-118222804D01*
X174206153Y-118250219D01*
X174187953Y-118259947D01*
X174142305Y-118297409D01*
X174142303Y-118297411D01*
X174127045Y-118309933D01*
X174114523Y-118325191D01*
X168647116Y-123792599D01*
X167952436Y-123792599D01*
X167932800Y-123790665D01*
X167913164Y-123792599D01*
X167913154Y-123792599D01*
X167854387Y-123798387D01*
X167778987Y-123821259D01*
X167709498Y-123858402D01*
X167648590Y-123908388D01*
X167636066Y-123923649D01*
X167390748Y-124168967D01*
X167373819Y-124165600D01*
X167245781Y-124165600D01*
X167120202Y-124190579D01*
X167001910Y-124239578D01*
X166895449Y-124310712D01*
X166804912Y-124401249D01*
X166733778Y-124507710D01*
X166684779Y-124626002D01*
X166659800Y-124751581D01*
X166659800Y-124879619D01*
X166684779Y-125005198D01*
X166733778Y-125123490D01*
X166804912Y-125229951D01*
X166895449Y-125320488D01*
X167001910Y-125391622D01*
X167120202Y-125440621D01*
X167245781Y-125465600D01*
X167373819Y-125465600D01*
X167499398Y-125440621D01*
X167617690Y-125391622D01*
X167724151Y-125320488D01*
X167814688Y-125229951D01*
X167885822Y-125123490D01*
X167934821Y-125005198D01*
X167959800Y-124879619D01*
X167959800Y-124751581D01*
X167956433Y-124734652D01*
X168098486Y-124592599D01*
X168793155Y-124592599D01*
X168812801Y-124594534D01*
X168832447Y-124592599D01*
X168832448Y-124592599D01*
X168891215Y-124586811D01*
X168966615Y-124563939D01*
X169036104Y-124526796D01*
X169097012Y-124476810D01*
X169109538Y-124461547D01*
X173066534Y-120504552D01*
X173060561Y-125883520D01*
X166438840Y-130298000D01*
X153561161Y-130298000D01*
X150662915Y-128365836D01*
X151920487Y-128365836D01*
X151920487Y-128469252D01*
X151940663Y-128570681D01*
X151980238Y-128666225D01*
X152037693Y-128752212D01*
X152110819Y-128825338D01*
X152196806Y-128882793D01*
X152292350Y-128922368D01*
X152393779Y-128942544D01*
X152497195Y-128942544D01*
X152598624Y-128922368D01*
X152694168Y-128882793D01*
X152780155Y-128825338D01*
X152853281Y-128752212D01*
X152910736Y-128666225D01*
X152950311Y-128570681D01*
X152970487Y-128469252D01*
X152970487Y-128365836D01*
X152962938Y-128327881D01*
X155952000Y-128327881D01*
X155952000Y-128926120D01*
X155966470Y-129073034D01*
X156023651Y-129261535D01*
X156116509Y-129435258D01*
X156241473Y-129587528D01*
X156393743Y-129712492D01*
X156567466Y-129805349D01*
X156755967Y-129862530D01*
X156952000Y-129881838D01*
X157148034Y-129862530D01*
X157336535Y-129805349D01*
X157510258Y-129712492D01*
X157662528Y-129587528D01*
X157787492Y-129435258D01*
X157880349Y-129261535D01*
X157937530Y-129073033D01*
X157952000Y-128926119D01*
X157952000Y-128327881D01*
X162048000Y-128327881D01*
X162048000Y-128926120D01*
X162062470Y-129073034D01*
X162119651Y-129261535D01*
X162212509Y-129435258D01*
X162337473Y-129587528D01*
X162489743Y-129712492D01*
X162663466Y-129805349D01*
X162851967Y-129862530D01*
X163048000Y-129881838D01*
X163244034Y-129862530D01*
X163432535Y-129805349D01*
X163606258Y-129712492D01*
X163758528Y-129587528D01*
X163883492Y-129435258D01*
X163976349Y-129261535D01*
X164033530Y-129073033D01*
X164048000Y-128926119D01*
X164048000Y-128327880D01*
X164043271Y-128279861D01*
X167052766Y-128279861D01*
X167052766Y-128383277D01*
X167072942Y-128484706D01*
X167112517Y-128580250D01*
X167169972Y-128666237D01*
X167243098Y-128739363D01*
X167329085Y-128796818D01*
X167424629Y-128836393D01*
X167526058Y-128856569D01*
X167629474Y-128856569D01*
X167730903Y-128836393D01*
X167826447Y-128796818D01*
X167912434Y-128739363D01*
X167985560Y-128666237D01*
X168043015Y-128580250D01*
X168082590Y-128484706D01*
X168102766Y-128383277D01*
X168102766Y-128279861D01*
X168082590Y-128178432D01*
X168043015Y-128082888D01*
X167985560Y-127996901D01*
X167912434Y-127923775D01*
X167826447Y-127866320D01*
X167730903Y-127826745D01*
X167629474Y-127806569D01*
X167526058Y-127806569D01*
X167424629Y-127826745D01*
X167329085Y-127866320D01*
X167243098Y-127923775D01*
X167169972Y-127996901D01*
X167112517Y-128082888D01*
X167072942Y-128178432D01*
X167052766Y-128279861D01*
X164043271Y-128279861D01*
X164033530Y-128180966D01*
X163976349Y-127992465D01*
X163883492Y-127818742D01*
X163758528Y-127666472D01*
X163606258Y-127541508D01*
X163432534Y-127448651D01*
X163244033Y-127391470D01*
X163048000Y-127372162D01*
X162851966Y-127391470D01*
X162663465Y-127448651D01*
X162489742Y-127541508D01*
X162337472Y-127666472D01*
X162212508Y-127818742D01*
X162119651Y-127992466D01*
X162062470Y-128180967D01*
X162048000Y-128327881D01*
X157952000Y-128327881D01*
X157952000Y-128327880D01*
X157937530Y-128180966D01*
X157880349Y-127992465D01*
X157787492Y-127818742D01*
X157662528Y-127666472D01*
X157510258Y-127541508D01*
X157336534Y-127448651D01*
X157148033Y-127391470D01*
X156952000Y-127372162D01*
X156755966Y-127391470D01*
X156567465Y-127448651D01*
X156393742Y-127541508D01*
X156241472Y-127666472D01*
X156116508Y-127818742D01*
X156023651Y-127992466D01*
X155966470Y-128180967D01*
X155952000Y-128327881D01*
X152962938Y-128327881D01*
X152950311Y-128264407D01*
X152910736Y-128168863D01*
X152853281Y-128082876D01*
X152780155Y-128009750D01*
X152694168Y-127952295D01*
X152598624Y-127912720D01*
X152497195Y-127892544D01*
X152393779Y-127892544D01*
X152292350Y-127912720D01*
X152196806Y-127952295D01*
X152110819Y-128009750D01*
X152037693Y-128082876D01*
X151980238Y-128168863D01*
X151940663Y-128264407D01*
X151920487Y-128365836D01*
X150662915Y-128365836D01*
X149118285Y-127336083D01*
X150393815Y-127336083D01*
X150393815Y-127439499D01*
X150413991Y-127540928D01*
X150453566Y-127636472D01*
X150511021Y-127722459D01*
X150584147Y-127795585D01*
X150670134Y-127853040D01*
X150765678Y-127892615D01*
X150867107Y-127912791D01*
X150970523Y-127912791D01*
X151071952Y-127892615D01*
X151167496Y-127853040D01*
X151253483Y-127795585D01*
X151326609Y-127722459D01*
X151384064Y-127636472D01*
X151423639Y-127540928D01*
X151443815Y-127439499D01*
X151443815Y-127336083D01*
X151423639Y-127234654D01*
X151384064Y-127139110D01*
X151326609Y-127053123D01*
X151253483Y-126979997D01*
X151167496Y-126922542D01*
X151071952Y-126882967D01*
X150970523Y-126862791D01*
X150867107Y-126862791D01*
X150765678Y-126882967D01*
X150670134Y-126922542D01*
X150584147Y-126979997D01*
X150511021Y-127053123D01*
X150453566Y-127139110D01*
X150413991Y-127234654D01*
X150393815Y-127336083D01*
X149118285Y-127336083D01*
X147610107Y-126330631D01*
X156964000Y-126330631D01*
X156964000Y-126478369D01*
X156992822Y-126623267D01*
X157049359Y-126759758D01*
X157131437Y-126882597D01*
X157235903Y-126987063D01*
X157358742Y-127069141D01*
X157495233Y-127125678D01*
X157640131Y-127154500D01*
X157787869Y-127154500D01*
X157932767Y-127125678D01*
X158069258Y-127069141D01*
X158192097Y-126987063D01*
X158296563Y-126882597D01*
X158329805Y-126832846D01*
X158699999Y-126832846D01*
X158699999Y-126960884D01*
X158724978Y-127086463D01*
X158773977Y-127204755D01*
X158845111Y-127311216D01*
X158935648Y-127401753D01*
X159042109Y-127472887D01*
X159160401Y-127521886D01*
X159285980Y-127546865D01*
X159414018Y-127546865D01*
X159539597Y-127521886D01*
X159657889Y-127472887D01*
X159764350Y-127401753D01*
X159854887Y-127311216D01*
X159877810Y-127276908D01*
X168597178Y-127276908D01*
X168597178Y-127380324D01*
X168617354Y-127481753D01*
X168656929Y-127577297D01*
X168714384Y-127663284D01*
X168787510Y-127736410D01*
X168873497Y-127793865D01*
X168969041Y-127833440D01*
X169070470Y-127853616D01*
X169173886Y-127853616D01*
X169275315Y-127833440D01*
X169370859Y-127793865D01*
X169456846Y-127736410D01*
X169529972Y-127663284D01*
X169587427Y-127577297D01*
X169627002Y-127481753D01*
X169647178Y-127380324D01*
X169647178Y-127276908D01*
X169627002Y-127175479D01*
X169587427Y-127079935D01*
X169529972Y-126993948D01*
X169456846Y-126920822D01*
X169370859Y-126863367D01*
X169275315Y-126823792D01*
X169173886Y-126803616D01*
X169070470Y-126803616D01*
X168969041Y-126823792D01*
X168873497Y-126863367D01*
X168787510Y-126920822D01*
X168714384Y-126993948D01*
X168656929Y-127079935D01*
X168617354Y-127175479D01*
X168597178Y-127276908D01*
X159877810Y-127276908D01*
X159926021Y-127204755D01*
X159975020Y-127086463D01*
X159999999Y-126960884D01*
X159999999Y-126832846D01*
X159975020Y-126707267D01*
X159926021Y-126588975D01*
X159854887Y-126482514D01*
X159764350Y-126391977D01*
X159672538Y-126330631D01*
X161536000Y-126330631D01*
X161536000Y-126478369D01*
X161564822Y-126623267D01*
X161621359Y-126759758D01*
X161703437Y-126882597D01*
X161807903Y-126987063D01*
X161930742Y-127069141D01*
X162067233Y-127125678D01*
X162212131Y-127154500D01*
X162359869Y-127154500D01*
X162504767Y-127125678D01*
X162641258Y-127069141D01*
X162764097Y-126987063D01*
X162868563Y-126882597D01*
X162950641Y-126759758D01*
X163007178Y-126623267D01*
X163036000Y-126478369D01*
X163036000Y-126330631D01*
X163007178Y-126185733D01*
X162950641Y-126049242D01*
X162868563Y-125926403D01*
X162764097Y-125821937D01*
X162641258Y-125739859D01*
X162504767Y-125683322D01*
X162359869Y-125654500D01*
X162212131Y-125654500D01*
X162067233Y-125683322D01*
X161930742Y-125739859D01*
X161807903Y-125821937D01*
X161703437Y-125926403D01*
X161621359Y-126049242D01*
X161564822Y-126185733D01*
X161536000Y-126330631D01*
X159672538Y-126330631D01*
X159657889Y-126320843D01*
X159539597Y-126271844D01*
X159414018Y-126246865D01*
X159285980Y-126246865D01*
X159160401Y-126271844D01*
X159042109Y-126320843D01*
X158935648Y-126391977D01*
X158845111Y-126482514D01*
X158773977Y-126588975D01*
X158724978Y-126707267D01*
X158699999Y-126832846D01*
X158329805Y-126832846D01*
X158378641Y-126759758D01*
X158435178Y-126623267D01*
X158464000Y-126478369D01*
X158464000Y-126330631D01*
X158435178Y-126185733D01*
X158378641Y-126049242D01*
X158296563Y-125926403D01*
X158192097Y-125821937D01*
X158069258Y-125739859D01*
X157932767Y-125683322D01*
X157787869Y-125654500D01*
X157640131Y-125654500D01*
X157495233Y-125683322D01*
X157358742Y-125739859D01*
X157235903Y-125821937D01*
X157131437Y-125926403D01*
X157049359Y-126049242D01*
X156992822Y-126185733D01*
X156964000Y-126330631D01*
X147610107Y-126330631D01*
X144755259Y-124427400D01*
X145072761Y-124427400D01*
X145127649Y-124482288D01*
X145234110Y-124553422D01*
X145352402Y-124602421D01*
X145477981Y-124627400D01*
X145606019Y-124627400D01*
X145731598Y-124602421D01*
X145849890Y-124553422D01*
X145956351Y-124482288D01*
X146046888Y-124391751D01*
X146118022Y-124285290D01*
X146167021Y-124166998D01*
X146177049Y-124116581D01*
X152435800Y-124116581D01*
X152435800Y-124244619D01*
X152460779Y-124370198D01*
X152509778Y-124488490D01*
X152580912Y-124594951D01*
X152671449Y-124685488D01*
X152777910Y-124756622D01*
X152896202Y-124805621D01*
X153021781Y-124830600D01*
X153149819Y-124830600D01*
X153275398Y-124805621D01*
X153393690Y-124756622D01*
X153500151Y-124685488D01*
X153590688Y-124594951D01*
X153621804Y-124548381D01*
X153985200Y-124548381D01*
X153985200Y-124676419D01*
X154010179Y-124801998D01*
X154059178Y-124920290D01*
X154130312Y-125026751D01*
X154220849Y-125117288D01*
X154327310Y-125188422D01*
X154445602Y-125237421D01*
X154571181Y-125262400D01*
X154699219Y-125262400D01*
X154824798Y-125237421D01*
X154943090Y-125188422D01*
X155049551Y-125117288D01*
X155140088Y-125026751D01*
X155211222Y-124920290D01*
X155260221Y-124801998D01*
X155285200Y-124676419D01*
X155285200Y-124598795D01*
X155433000Y-124450995D01*
X155433000Y-124549419D01*
X155457979Y-124674998D01*
X155506978Y-124793290D01*
X155578112Y-124899751D01*
X155668649Y-124990288D01*
X155775110Y-125061422D01*
X155893402Y-125110421D01*
X156018981Y-125135400D01*
X156147019Y-125135400D01*
X156272598Y-125110421D01*
X156390890Y-125061422D01*
X156497351Y-124990288D01*
X156587888Y-124899751D01*
X156659022Y-124793290D01*
X156708021Y-124674998D01*
X156730930Y-124559821D01*
X159188372Y-124559821D01*
X159188372Y-124687859D01*
X159213351Y-124813438D01*
X159262350Y-124931730D01*
X159333484Y-125038191D01*
X159424021Y-125128728D01*
X159530482Y-125199862D01*
X159648774Y-125248861D01*
X159774353Y-125273840D01*
X159902391Y-125273840D01*
X160027970Y-125248861D01*
X160146262Y-125199862D01*
X160252723Y-125128728D01*
X160343260Y-125038191D01*
X160414394Y-124931730D01*
X160463393Y-124813438D01*
X160488372Y-124687859D01*
X160488372Y-124559821D01*
X160463393Y-124434242D01*
X160414394Y-124315950D01*
X160343260Y-124209489D01*
X160252723Y-124118952D01*
X160146262Y-124047818D01*
X160027970Y-123998819D01*
X159902391Y-123973840D01*
X159774353Y-123973840D01*
X159648774Y-123998819D01*
X159530482Y-124047818D01*
X159424021Y-124118952D01*
X159333484Y-124209489D01*
X159262350Y-124315950D01*
X159213351Y-124434242D01*
X159188372Y-124559821D01*
X156730930Y-124559821D01*
X156733000Y-124549419D01*
X156733000Y-124421381D01*
X156708021Y-124295802D01*
X156659022Y-124177510D01*
X156587888Y-124071049D01*
X156497351Y-123980512D01*
X156390890Y-123909378D01*
X156272598Y-123860379D01*
X156147019Y-123835400D01*
X156048595Y-123835400D01*
X157266014Y-122617981D01*
X166863000Y-122617981D01*
X166863000Y-122746019D01*
X166887979Y-122871598D01*
X166936978Y-122989890D01*
X167008112Y-123096351D01*
X167098649Y-123186888D01*
X167205110Y-123258022D01*
X167323402Y-123307021D01*
X167448981Y-123332000D01*
X167577019Y-123332000D01*
X167702598Y-123307021D01*
X167820890Y-123258022D01*
X167927351Y-123186888D01*
X168017888Y-123096351D01*
X168089022Y-122989890D01*
X168138021Y-122871598D01*
X168163000Y-122746019D01*
X168163000Y-122617981D01*
X168138021Y-122492402D01*
X168089022Y-122374110D01*
X168017888Y-122267649D01*
X167927351Y-122177112D01*
X167820890Y-122105978D01*
X167702598Y-122056979D01*
X167577019Y-122032000D01*
X167448981Y-122032000D01*
X167323402Y-122056979D01*
X167205110Y-122105978D01*
X167098649Y-122177112D01*
X167008112Y-122267649D01*
X166936978Y-122374110D01*
X166887979Y-122492402D01*
X166863000Y-122617981D01*
X157266014Y-122617981D01*
X158493773Y-121390223D01*
X158510937Y-121376137D01*
X158525024Y-121358972D01*
X158525028Y-121358968D01*
X158567171Y-121307617D01*
X158586345Y-121271745D01*
X158608957Y-121229441D01*
X158634689Y-121144615D01*
X158641200Y-121078505D01*
X158641200Y-121078493D01*
X158643376Y-121056401D01*
X158641200Y-121034309D01*
X158641200Y-120662181D01*
X166202600Y-120662181D01*
X166202600Y-120790219D01*
X166227579Y-120915798D01*
X166276578Y-121034090D01*
X166347712Y-121140551D01*
X166438249Y-121231088D01*
X166544710Y-121302222D01*
X166663002Y-121351221D01*
X166788581Y-121376200D01*
X166916619Y-121376200D01*
X167042198Y-121351221D01*
X167160490Y-121302222D01*
X167266951Y-121231088D01*
X167357488Y-121140551D01*
X167428622Y-121034090D01*
X167477621Y-120915798D01*
X167502600Y-120790219D01*
X167502600Y-120662181D01*
X167477621Y-120536602D01*
X167428622Y-120418310D01*
X167357488Y-120311849D01*
X167266951Y-120221312D01*
X167160490Y-120150178D01*
X167042198Y-120101179D01*
X166916619Y-120076200D01*
X166788581Y-120076200D01*
X166663002Y-120101179D01*
X166544710Y-120150178D01*
X166438249Y-120221312D01*
X166347712Y-120311849D01*
X166276578Y-120418310D01*
X166227579Y-120536602D01*
X166202600Y-120662181D01*
X158641200Y-120662181D01*
X158641200Y-119214239D01*
X158696088Y-119159351D01*
X158767222Y-119052890D01*
X158816221Y-118934598D01*
X158841200Y-118809019D01*
X158841200Y-118680981D01*
X158816221Y-118555402D01*
X158767222Y-118437110D01*
X158696088Y-118330649D01*
X158605551Y-118240112D01*
X158499090Y-118168978D01*
X158380798Y-118119979D01*
X158255219Y-118095000D01*
X158127181Y-118095000D01*
X158001602Y-118119979D01*
X157883310Y-118168978D01*
X157776849Y-118240112D01*
X157686312Y-118330649D01*
X157615178Y-118437110D01*
X157566179Y-118555402D01*
X157541200Y-118680981D01*
X157541200Y-118809019D01*
X157566179Y-118934598D01*
X157615178Y-119052890D01*
X157686312Y-119159351D01*
X157741201Y-119214240D01*
X157741200Y-120870004D01*
X156577644Y-122033561D01*
X156624021Y-121921598D01*
X156649000Y-121796019D01*
X156649000Y-121667981D01*
X156624021Y-121542402D01*
X156575022Y-121424110D01*
X156503888Y-121317649D01*
X156413351Y-121227112D01*
X156306890Y-121155978D01*
X156188598Y-121106979D01*
X156063019Y-121082000D01*
X155934981Y-121082000D01*
X155809402Y-121106979D01*
X155691110Y-121155978D01*
X155584649Y-121227112D01*
X155494112Y-121317649D01*
X155422978Y-121424110D01*
X155373979Y-121542402D01*
X155349000Y-121667981D01*
X155349000Y-121796019D01*
X155373979Y-121921598D01*
X155422978Y-122039890D01*
X155494112Y-122146351D01*
X155584649Y-122236888D01*
X155691110Y-122308022D01*
X155809402Y-122357021D01*
X155934981Y-122382000D01*
X156063019Y-122382000D01*
X156188598Y-122357021D01*
X156300561Y-122310644D01*
X154648805Y-123962400D01*
X154571181Y-123962400D01*
X154445602Y-123987379D01*
X154327310Y-124036378D01*
X154220849Y-124107512D01*
X154130312Y-124198049D01*
X154059178Y-124304510D01*
X154010179Y-124422802D01*
X153985200Y-124548381D01*
X153621804Y-124548381D01*
X153661822Y-124488490D01*
X153710821Y-124370198D01*
X153735800Y-124244619D01*
X153735800Y-124116581D01*
X153710821Y-123991002D01*
X153661822Y-123872710D01*
X153590688Y-123766249D01*
X153500151Y-123675712D01*
X153393690Y-123604578D01*
X153275398Y-123555579D01*
X153149819Y-123530600D01*
X153021781Y-123530600D01*
X152896202Y-123555579D01*
X152777910Y-123604578D01*
X152671449Y-123675712D01*
X152580912Y-123766249D01*
X152509778Y-123872710D01*
X152460779Y-123991002D01*
X152435800Y-124116581D01*
X146177049Y-124116581D01*
X146192000Y-124041419D01*
X146192000Y-123913381D01*
X146167021Y-123787802D01*
X146118022Y-123669510D01*
X146046888Y-123563049D01*
X145956351Y-123472512D01*
X145849890Y-123401378D01*
X145731598Y-123352379D01*
X145606019Y-123327400D01*
X145477981Y-123327400D01*
X145352402Y-123352379D01*
X145234110Y-123401378D01*
X145127649Y-123472512D01*
X145072761Y-123527400D01*
X143874196Y-123527400D01*
X142407400Y-122060605D01*
X142407400Y-121982981D01*
X142382421Y-121857402D01*
X142333422Y-121739110D01*
X142262288Y-121632649D01*
X142171751Y-121542112D01*
X142065290Y-121470978D01*
X141946998Y-121421979D01*
X141821419Y-121397000D01*
X141693381Y-121397000D01*
X141567802Y-121421979D01*
X141449510Y-121470978D01*
X141343049Y-121542112D01*
X141252512Y-121632649D01*
X141181378Y-121739110D01*
X141132379Y-121857402D01*
X141107400Y-121982981D01*
X141107400Y-122111019D01*
X141132379Y-122236598D01*
X141181378Y-122354890D01*
X141252512Y-122461351D01*
X141343049Y-122551888D01*
X141449510Y-122623022D01*
X141567802Y-122672021D01*
X141693381Y-122697000D01*
X141771005Y-122697000D01*
X143353976Y-124279972D01*
X143368063Y-124297137D01*
X143369115Y-124298000D01*
X137702000Y-124298000D01*
X137702000Y-120831755D01*
X146458574Y-120831755D01*
X146458574Y-120959793D01*
X146483553Y-121085372D01*
X146532552Y-121203664D01*
X146603686Y-121310125D01*
X146694223Y-121400662D01*
X146800684Y-121471796D01*
X146918976Y-121520795D01*
X147044555Y-121545774D01*
X147172593Y-121545774D01*
X147298172Y-121520795D01*
X147335668Y-121505263D01*
X147965400Y-122134996D01*
X147965400Y-122212619D01*
X147990379Y-122338198D01*
X148039378Y-122456490D01*
X148110512Y-122562951D01*
X148201049Y-122653488D01*
X148307510Y-122724622D01*
X148425802Y-122773621D01*
X148551381Y-122798600D01*
X148679419Y-122798600D01*
X148804998Y-122773621D01*
X148923290Y-122724622D01*
X149029751Y-122653488D01*
X149120288Y-122562951D01*
X149191422Y-122456490D01*
X149240421Y-122338198D01*
X149265400Y-122212619D01*
X149265400Y-122084581D01*
X149240421Y-121959002D01*
X149191422Y-121840710D01*
X149120288Y-121734249D01*
X149029751Y-121643712D01*
X148923290Y-121572578D01*
X148804998Y-121523579D01*
X148679419Y-121498600D01*
X148601796Y-121498600D01*
X147696403Y-120593208D01*
X147682311Y-120576037D01*
X147669844Y-120565805D01*
X147613462Y-120481423D01*
X147522925Y-120390886D01*
X147416464Y-120319752D01*
X147298172Y-120270753D01*
X147172593Y-120245774D01*
X147044555Y-120245774D01*
X146918976Y-120270753D01*
X146800684Y-120319752D01*
X146694223Y-120390886D01*
X146603686Y-120481423D01*
X146532552Y-120587884D01*
X146483553Y-120706176D01*
X146458574Y-120831755D01*
X137702000Y-120831755D01*
X137702000Y-116451033D01*
X138729465Y-116451033D01*
X138729465Y-116579071D01*
X138754444Y-116704650D01*
X138803443Y-116822942D01*
X138874577Y-116929403D01*
X138965114Y-117019940D01*
X139071575Y-117091074D01*
X139189867Y-117140073D01*
X139315446Y-117165052D01*
X139393070Y-117165052D01*
X140716789Y-118488772D01*
X140730876Y-118505937D01*
X140748041Y-118520024D01*
X140748045Y-118520028D01*
X140799396Y-118562171D01*
X140856325Y-118592600D01*
X140877572Y-118603957D01*
X140962398Y-118629689D01*
X141028508Y-118636200D01*
X141028518Y-118636200D01*
X141050612Y-118638376D01*
X141072706Y-118636200D01*
X146571361Y-118636200D01*
X146626249Y-118691088D01*
X146732710Y-118762222D01*
X146851002Y-118811221D01*
X146976581Y-118836200D01*
X147104619Y-118836200D01*
X147230198Y-118811221D01*
X147348490Y-118762222D01*
X147454951Y-118691088D01*
X147545488Y-118600551D01*
X147616622Y-118494090D01*
X147665621Y-118375798D01*
X147690600Y-118250219D01*
X147690600Y-118122181D01*
X147665621Y-117996602D01*
X147616622Y-117878310D01*
X147545488Y-117771849D01*
X147454951Y-117681312D01*
X147348490Y-117610178D01*
X147230198Y-117561179D01*
X147104619Y-117536200D01*
X146976581Y-117536200D01*
X146851002Y-117561179D01*
X146732710Y-117610178D01*
X146626249Y-117681312D01*
X146571361Y-117736200D01*
X142644039Y-117736200D01*
X142694088Y-117686151D01*
X142765222Y-117579690D01*
X142814221Y-117461398D01*
X142839200Y-117335819D01*
X142839200Y-117207781D01*
X142814221Y-117082202D01*
X142765222Y-116963910D01*
X142694088Y-116857449D01*
X142603551Y-116766912D01*
X142497090Y-116695778D01*
X142378798Y-116646779D01*
X142253219Y-116621800D01*
X142125181Y-116621800D01*
X141999602Y-116646779D01*
X141881310Y-116695778D01*
X141774849Y-116766912D01*
X141684312Y-116857449D01*
X141613178Y-116963910D01*
X141564179Y-117082202D01*
X141539200Y-117207781D01*
X141539200Y-117335819D01*
X141564179Y-117461398D01*
X141613178Y-117579690D01*
X141684312Y-117686151D01*
X141734361Y-117736200D01*
X141237009Y-117736200D01*
X140029465Y-116528657D01*
X140029465Y-116451033D01*
X140004486Y-116325454D01*
X139955487Y-116207162D01*
X139884353Y-116100701D01*
X139793816Y-116010164D01*
X139687355Y-115939030D01*
X139569063Y-115890031D01*
X139443484Y-115865052D01*
X139315446Y-115865052D01*
X139189867Y-115890031D01*
X139071575Y-115939030D01*
X138965114Y-116010164D01*
X138874577Y-116100701D01*
X138803443Y-116207162D01*
X138754444Y-116325454D01*
X138729465Y-116451033D01*
X137702000Y-116451033D01*
X137702000Y-110776131D01*
X141450000Y-110776131D01*
X141450000Y-110923869D01*
X141478822Y-111068767D01*
X141535359Y-111205258D01*
X141617437Y-111328097D01*
X141721903Y-111432563D01*
X141844742Y-111514641D01*
X141981233Y-111571178D01*
X142126131Y-111600000D01*
X142273869Y-111600000D01*
X142418767Y-111571178D01*
X142555258Y-111514641D01*
X142678097Y-111432563D01*
X142782563Y-111328097D01*
X142864641Y-111205258D01*
X142921178Y-111068767D01*
X142950000Y-110923869D01*
X142950000Y-110776131D01*
X142921178Y-110631233D01*
X142864641Y-110494742D01*
X142782563Y-110371903D01*
X142678097Y-110267437D01*
X142555258Y-110185359D01*
X142418767Y-110128822D01*
X142273869Y-110100000D01*
X142126131Y-110100000D01*
X141981233Y-110128822D01*
X141844742Y-110185359D01*
X141721903Y-110267437D01*
X141617437Y-110371903D01*
X141535359Y-110494742D01*
X141478822Y-110631233D01*
X141450000Y-110776131D01*
X137702000Y-110776131D01*
X137702000Y-108434500D01*
X149572000Y-108434500D01*
X149583509Y-108470428D01*
X149600145Y-108520000D01*
X149583509Y-108569572D01*
X149572000Y-108605500D01*
X149711500Y-108745000D01*
X149738411Y-108745000D01*
X149745294Y-108752904D01*
X149832264Y-108820119D01*
X149930676Y-108869075D01*
X150036748Y-108897891D01*
X150146403Y-108905460D01*
X151036500Y-108903000D01*
X151176000Y-108763500D01*
X151176000Y-108276500D01*
X151584000Y-108276500D01*
X151584000Y-108763500D01*
X151723500Y-108903000D01*
X152613597Y-108905460D01*
X152723252Y-108897891D01*
X152829324Y-108869075D01*
X152927736Y-108820119D01*
X153014706Y-108752904D01*
X153021589Y-108745000D01*
X153048500Y-108745000D01*
X153188000Y-108605500D01*
X153176491Y-108569572D01*
X153159855Y-108520000D01*
X153176491Y-108470428D01*
X153188000Y-108434500D01*
X153048500Y-108295000D01*
X153021589Y-108295000D01*
X153014706Y-108287096D01*
X152927736Y-108219881D01*
X152829324Y-108170925D01*
X152723252Y-108142109D01*
X152613597Y-108134540D01*
X151723500Y-108137000D01*
X151584000Y-108276500D01*
X151176000Y-108276500D01*
X151036500Y-108137000D01*
X150146403Y-108134540D01*
X150036748Y-108142109D01*
X149930676Y-108170925D01*
X149832264Y-108219881D01*
X149745294Y-108287096D01*
X149738411Y-108295000D01*
X149711500Y-108295000D01*
X149572000Y-108434500D01*
X137702000Y-108434500D01*
X137702000Y-105105500D01*
X149572000Y-105105500D01*
X149711500Y-105245000D01*
X151176000Y-105245000D01*
X151176000Y-104776500D01*
X151036500Y-104637000D01*
X150146403Y-104634540D01*
X150036748Y-104642109D01*
X149930676Y-104670925D01*
X149832264Y-104719881D01*
X149745294Y-104787096D01*
X149673108Y-104869986D01*
X149618480Y-104965367D01*
X149583509Y-105069572D01*
X149572000Y-105105500D01*
X137702000Y-105105500D01*
X137702000Y-102796131D01*
X141450000Y-102796131D01*
X141450000Y-102943869D01*
X141478822Y-103088767D01*
X141535359Y-103225258D01*
X141617437Y-103348097D01*
X141721903Y-103452563D01*
X141844742Y-103534641D01*
X141981233Y-103591178D01*
X142126131Y-103620000D01*
X142273869Y-103620000D01*
X142418767Y-103591178D01*
X142555258Y-103534641D01*
X142678097Y-103452563D01*
X142782563Y-103348097D01*
X142864641Y-103225258D01*
X142921178Y-103088767D01*
X142950000Y-102943869D01*
X142950000Y-102796131D01*
X142921178Y-102651233D01*
X142864641Y-102514742D01*
X142782563Y-102391903D01*
X142678097Y-102287437D01*
X142555258Y-102205359D01*
X142418767Y-102148822D01*
X142273869Y-102120000D01*
X142126131Y-102120000D01*
X141981233Y-102148822D01*
X141844742Y-102205359D01*
X141721903Y-102287437D01*
X141617437Y-102391903D01*
X141535359Y-102514742D01*
X141478822Y-102651233D01*
X141450000Y-102796131D01*
X137702000Y-102796131D01*
X137702000Y-97446581D01*
X145323800Y-97446581D01*
X145323800Y-97574619D01*
X145348779Y-97700198D01*
X145397778Y-97818490D01*
X145468912Y-97924951D01*
X145559449Y-98015488D01*
X145665910Y-98086622D01*
X145784202Y-98135621D01*
X145909781Y-98160600D01*
X146037819Y-98160600D01*
X146051991Y-98157781D01*
X150327600Y-98157781D01*
X150327600Y-98285819D01*
X150352579Y-98411398D01*
X150401578Y-98529690D01*
X150472712Y-98636151D01*
X150563249Y-98726688D01*
X150669710Y-98797822D01*
X150788002Y-98846821D01*
X150913581Y-98871800D01*
X151041619Y-98871800D01*
X151167198Y-98846821D01*
X151285490Y-98797822D01*
X151391951Y-98726688D01*
X151482488Y-98636151D01*
X151553622Y-98529690D01*
X151602621Y-98411398D01*
X151627600Y-98285819D01*
X151627600Y-98157781D01*
X151602621Y-98032202D01*
X151553622Y-97913910D01*
X151482488Y-97807449D01*
X151391951Y-97716912D01*
X151285490Y-97645778D01*
X151167198Y-97596779D01*
X151041619Y-97571800D01*
X150913581Y-97571800D01*
X150788002Y-97596779D01*
X150669710Y-97645778D01*
X150563249Y-97716912D01*
X150472712Y-97807449D01*
X150401578Y-97913910D01*
X150352579Y-98032202D01*
X150327600Y-98157781D01*
X146051991Y-98157781D01*
X146163398Y-98135621D01*
X146281690Y-98086622D01*
X146388151Y-98015488D01*
X146478688Y-97924951D01*
X146549822Y-97818490D01*
X146598821Y-97700198D01*
X146623800Y-97574619D01*
X146623800Y-97446581D01*
X146598821Y-97321002D01*
X146549822Y-97202710D01*
X146478688Y-97096249D01*
X146388151Y-97005712D01*
X146281690Y-96934578D01*
X146163398Y-96885579D01*
X146037819Y-96860600D01*
X145909781Y-96860600D01*
X145784202Y-96885579D01*
X145665910Y-96934578D01*
X145559449Y-97005712D01*
X145468912Y-97096249D01*
X145397778Y-97202710D01*
X145348779Y-97321002D01*
X145323800Y-97446581D01*
X137702000Y-97446581D01*
X137702000Y-94102000D01*
X146889985Y-94102000D01*
X146899788Y-94102976D01*
X146909804Y-94102000D01*
X146909920Y-94102000D01*
X146920767Y-94100932D01*
X146939390Y-94099117D01*
X146939485Y-94099088D01*
X146939599Y-94099077D01*
X146959358Y-94093083D01*
X146977479Y-94087607D01*
X146977571Y-94087558D01*
X146977676Y-94087526D01*
X146995672Y-94077907D01*
X147003795Y-94073576D01*
X147003877Y-94073521D01*
X147012768Y-94068769D01*
X147020396Y-94062508D01*
X147196037Y-93945414D01*
X148487986Y-93945414D01*
X148487986Y-94048830D01*
X148508162Y-94150259D01*
X148547737Y-94245803D01*
X148605192Y-94331790D01*
X148678318Y-94404916D01*
X148764305Y-94462371D01*
X148859849Y-94501946D01*
X148961278Y-94522122D01*
X149064694Y-94522122D01*
X149166123Y-94501946D01*
X149261667Y-94462371D01*
X149347654Y-94404916D01*
X149420780Y-94331790D01*
X149469980Y-94258157D01*
X170495589Y-94258157D01*
X170495589Y-94361573D01*
X170515765Y-94463002D01*
X170555340Y-94558546D01*
X170612795Y-94644533D01*
X170685921Y-94717659D01*
X170771908Y-94775114D01*
X170867452Y-94814689D01*
X170968881Y-94834865D01*
X171072297Y-94834865D01*
X171173726Y-94814689D01*
X171269270Y-94775114D01*
X171355257Y-94717659D01*
X171428383Y-94644533D01*
X171485838Y-94558546D01*
X171525413Y-94463002D01*
X171545589Y-94361573D01*
X171545589Y-94258157D01*
X171525413Y-94156728D01*
X171485838Y-94061184D01*
X171428383Y-93975197D01*
X171355257Y-93902071D01*
X171269270Y-93844616D01*
X171173726Y-93805041D01*
X171072297Y-93784865D01*
X170968881Y-93784865D01*
X170867452Y-93805041D01*
X170771908Y-93844616D01*
X170685921Y-93902071D01*
X170612795Y-93975197D01*
X170555340Y-94061184D01*
X170515765Y-94156728D01*
X170495589Y-94258157D01*
X149469980Y-94258157D01*
X149478235Y-94245803D01*
X149517810Y-94150259D01*
X149537986Y-94048830D01*
X149537986Y-93945414D01*
X149517810Y-93843985D01*
X149478235Y-93748441D01*
X149420780Y-93662454D01*
X149347654Y-93589328D01*
X149261667Y-93531873D01*
X149166123Y-93492298D01*
X149064694Y-93472122D01*
X148961278Y-93472122D01*
X148859849Y-93492298D01*
X148764305Y-93531873D01*
X148678318Y-93589328D01*
X148605192Y-93662454D01*
X148547737Y-93748441D01*
X148508162Y-93843985D01*
X148487986Y-93945414D01*
X147196037Y-93945414D01*
X148740667Y-92915661D01*
X150014658Y-92915661D01*
X150014658Y-93019077D01*
X150034834Y-93120506D01*
X150074409Y-93216050D01*
X150131864Y-93302037D01*
X150204990Y-93375163D01*
X150290977Y-93432618D01*
X150386521Y-93472193D01*
X150487950Y-93492369D01*
X150591366Y-93492369D01*
X150692795Y-93472193D01*
X150788339Y-93432618D01*
X150874326Y-93375163D01*
X150947452Y-93302037D01*
X151004907Y-93216050D01*
X151044482Y-93120506D01*
X151064658Y-93019077D01*
X151064658Y-92915661D01*
X151044482Y-92814232D01*
X151004907Y-92718688D01*
X150947452Y-92632701D01*
X150874326Y-92559575D01*
X150788339Y-92502120D01*
X150692795Y-92462545D01*
X150591366Y-92442369D01*
X150487950Y-92442369D01*
X150386521Y-92462545D01*
X150290977Y-92502120D01*
X150204990Y-92559575D01*
X150131864Y-92632701D01*
X150074409Y-92718688D01*
X150034834Y-92814232D01*
X150014658Y-92915661D01*
X148740667Y-92915661D01*
X153561161Y-89702000D01*
X156200000Y-89702000D01*
X156200000Y-93750000D01*
G36*
X163582174Y-114932772D02*
G01*
X163596261Y-114949937D01*
X163613426Y-114964024D01*
X163613430Y-114964028D01*
X163664781Y-115006171D01*
X163736585Y-115044551D01*
X163742957Y-115047957D01*
X163827783Y-115073689D01*
X163893893Y-115080200D01*
X163893904Y-115080200D01*
X163915998Y-115082376D01*
X163938092Y-115080200D01*
X166256361Y-115080200D01*
X166311249Y-115135088D01*
X166417710Y-115206222D01*
X166536002Y-115255221D01*
X166635060Y-115274925D01*
X165974796Y-115935189D01*
X165953810Y-115952412D01*
X165936587Y-115973398D01*
X165906566Y-116009978D01*
X165885079Y-116036160D01*
X165834008Y-116131709D01*
X165802558Y-116235384D01*
X165794600Y-116316185D01*
X165794600Y-116316194D01*
X165791940Y-116343202D01*
X165794600Y-116370210D01*
X165794601Y-117847803D01*
X165208228Y-117261431D01*
X165194138Y-117244262D01*
X165125617Y-117188028D01*
X165047442Y-117146242D01*
X164962616Y-117120510D01*
X164896506Y-117113999D01*
X164896495Y-117113999D01*
X164874401Y-117111823D01*
X164852307Y-117113999D01*
X153915393Y-117113999D01*
X151037375Y-114235981D01*
X158150800Y-114235981D01*
X158150800Y-114364019D01*
X158175779Y-114489598D01*
X158224778Y-114607890D01*
X158295912Y-114714351D01*
X158386449Y-114804888D01*
X158492910Y-114876022D01*
X158611202Y-114925021D01*
X158736781Y-114950000D01*
X158864819Y-114950000D01*
X158990398Y-114925021D01*
X159108690Y-114876022D01*
X159215151Y-114804888D01*
X159305688Y-114714351D01*
X159376822Y-114607890D01*
X159425821Y-114489598D01*
X159450800Y-114364019D01*
X159450800Y-114235981D01*
X159425821Y-114110402D01*
X159376822Y-113992110D01*
X159305688Y-113885649D01*
X159215151Y-113795112D01*
X159108690Y-113723978D01*
X158990398Y-113674979D01*
X158864819Y-113650000D01*
X158736781Y-113650000D01*
X158611202Y-113674979D01*
X158492910Y-113723978D01*
X158386449Y-113795112D01*
X158295912Y-113885649D01*
X158224778Y-113992110D01*
X158175779Y-114110402D01*
X158150800Y-114235981D01*
X151037375Y-114235981D01*
X150605584Y-113804191D01*
X151036500Y-113803000D01*
X151176000Y-113663500D01*
X151176000Y-113195000D01*
X151584000Y-113195000D01*
X151584000Y-113663500D01*
X151723500Y-113803000D01*
X152613597Y-113805460D01*
X152723252Y-113797891D01*
X152829324Y-113769075D01*
X152927736Y-113720119D01*
X153014706Y-113652904D01*
X153086892Y-113570014D01*
X153141520Y-113474633D01*
X153176491Y-113370428D01*
X153188000Y-113334500D01*
X153048500Y-113195000D01*
X151584000Y-113195000D01*
X151176000Y-113195000D01*
X151156000Y-113195000D01*
X151156000Y-112945000D01*
X151176000Y-112945000D01*
X151176000Y-112895000D01*
X151584000Y-112895000D01*
X151584000Y-112945000D01*
X153048500Y-112945000D01*
X153188000Y-112805500D01*
X153176491Y-112769572D01*
X153141520Y-112665367D01*
X153086892Y-112569986D01*
X153014706Y-112487096D01*
X152927736Y-112419881D01*
X152881209Y-112396736D01*
X152881209Y-112195000D01*
X152876382Y-112145992D01*
X152862087Y-112098866D01*
X152838873Y-112055436D01*
X152809792Y-112020000D01*
X152838873Y-111984564D01*
X152862087Y-111941134D01*
X152876382Y-111894008D01*
X152881209Y-111845000D01*
X152881209Y-111549643D01*
X152955710Y-111599422D01*
X153074002Y-111648421D01*
X153199581Y-111673400D01*
X153327619Y-111673400D01*
X153453198Y-111648421D01*
X153571490Y-111599422D01*
X153677951Y-111528288D01*
X153768488Y-111437751D01*
X153839622Y-111331290D01*
X153888621Y-111212998D01*
X153913600Y-111087419D01*
X153913600Y-110959381D01*
X153888621Y-110833802D01*
X153839622Y-110715510D01*
X153768488Y-110609049D01*
X153677951Y-110518512D01*
X153571490Y-110447378D01*
X153453198Y-110398379D01*
X153327619Y-110373400D01*
X153199581Y-110373400D01*
X153074002Y-110398379D01*
X152955710Y-110447378D01*
X152873957Y-110502003D01*
X152876382Y-110494008D01*
X152881209Y-110445000D01*
X152881209Y-110095000D01*
X152876382Y-110045992D01*
X152868498Y-110020000D01*
X153582858Y-110020000D01*
X153594510Y-110037438D01*
X153685047Y-110127975D01*
X153791508Y-110199109D01*
X153909800Y-110248108D01*
X154035379Y-110273087D01*
X154163417Y-110273087D01*
X154288996Y-110248108D01*
X154407288Y-110199109D01*
X154513749Y-110127975D01*
X154604286Y-110037438D01*
X154675420Y-109930977D01*
X154724419Y-109812685D01*
X154749398Y-109687106D01*
X154749398Y-109559068D01*
X154724419Y-109433489D01*
X154675420Y-109315197D01*
X154604286Y-109208736D01*
X154519994Y-109124444D01*
X154606998Y-109037440D01*
X154678132Y-108930979D01*
X154727131Y-108812687D01*
X154732504Y-108785677D01*
X154760120Y-108852348D01*
X154831254Y-108958809D01*
X154921791Y-109049346D01*
X155028252Y-109120480D01*
X155146544Y-109169479D01*
X155272123Y-109194458D01*
X155400161Y-109194458D01*
X155525740Y-109169479D01*
X155644032Y-109120480D01*
X155750493Y-109049346D01*
X155805381Y-108994458D01*
X155879733Y-108994458D01*
X155901827Y-108996634D01*
X155923921Y-108994458D01*
X155923932Y-108994458D01*
X155990042Y-108987947D01*
X156074868Y-108962215D01*
X156153043Y-108920429D01*
X156221564Y-108864195D01*
X156235655Y-108847025D01*
X156690174Y-108392507D01*
X156707338Y-108378421D01*
X156721425Y-108361256D01*
X156721429Y-108361252D01*
X156763572Y-108309901D01*
X156805358Y-108231725D01*
X156813372Y-108205307D01*
X156822993Y-108173590D01*
X163582174Y-114932772D01*
G37*
X163582174Y-114932772D02*
X163596261Y-114949937D01*
X163613426Y-114964024D01*
X163613430Y-114964028D01*
X163664781Y-115006171D01*
X163736585Y-115044551D01*
X163742957Y-115047957D01*
X163827783Y-115073689D01*
X163893893Y-115080200D01*
X163893904Y-115080200D01*
X163915998Y-115082376D01*
X163938092Y-115080200D01*
X166256361Y-115080200D01*
X166311249Y-115135088D01*
X166417710Y-115206222D01*
X166536002Y-115255221D01*
X166635060Y-115274925D01*
X165974796Y-115935189D01*
X165953810Y-115952412D01*
X165936587Y-115973398D01*
X165906566Y-116009978D01*
X165885079Y-116036160D01*
X165834008Y-116131709D01*
X165802558Y-116235384D01*
X165794600Y-116316185D01*
X165794600Y-116316194D01*
X165791940Y-116343202D01*
X165794600Y-116370210D01*
X165794601Y-117847803D01*
X165208228Y-117261431D01*
X165194138Y-117244262D01*
X165125617Y-117188028D01*
X165047442Y-117146242D01*
X164962616Y-117120510D01*
X164896506Y-117113999D01*
X164896495Y-117113999D01*
X164874401Y-117111823D01*
X164852307Y-117113999D01*
X153915393Y-117113999D01*
X151037375Y-114235981D01*
X158150800Y-114235981D01*
X158150800Y-114364019D01*
X158175779Y-114489598D01*
X158224778Y-114607890D01*
X158295912Y-114714351D01*
X158386449Y-114804888D01*
X158492910Y-114876022D01*
X158611202Y-114925021D01*
X158736781Y-114950000D01*
X158864819Y-114950000D01*
X158990398Y-114925021D01*
X159108690Y-114876022D01*
X159215151Y-114804888D01*
X159305688Y-114714351D01*
X159376822Y-114607890D01*
X159425821Y-114489598D01*
X159450800Y-114364019D01*
X159450800Y-114235981D01*
X159425821Y-114110402D01*
X159376822Y-113992110D01*
X159305688Y-113885649D01*
X159215151Y-113795112D01*
X159108690Y-113723978D01*
X158990398Y-113674979D01*
X158864819Y-113650000D01*
X158736781Y-113650000D01*
X158611202Y-113674979D01*
X158492910Y-113723978D01*
X158386449Y-113795112D01*
X158295912Y-113885649D01*
X158224778Y-113992110D01*
X158175779Y-114110402D01*
X158150800Y-114235981D01*
X151037375Y-114235981D01*
X150605584Y-113804191D01*
X151036500Y-113803000D01*
X151176000Y-113663500D01*
X151176000Y-113195000D01*
X151584000Y-113195000D01*
X151584000Y-113663500D01*
X151723500Y-113803000D01*
X152613597Y-113805460D01*
X152723252Y-113797891D01*
X152829324Y-113769075D01*
X152927736Y-113720119D01*
X153014706Y-113652904D01*
X153086892Y-113570014D01*
X153141520Y-113474633D01*
X153176491Y-113370428D01*
X153188000Y-113334500D01*
X153048500Y-113195000D01*
X151584000Y-113195000D01*
X151176000Y-113195000D01*
X151156000Y-113195000D01*
X151156000Y-112945000D01*
X151176000Y-112945000D01*
X151176000Y-112895000D01*
X151584000Y-112895000D01*
X151584000Y-112945000D01*
X153048500Y-112945000D01*
X153188000Y-112805500D01*
X153176491Y-112769572D01*
X153141520Y-112665367D01*
X153086892Y-112569986D01*
X153014706Y-112487096D01*
X152927736Y-112419881D01*
X152881209Y-112396736D01*
X152881209Y-112195000D01*
X152876382Y-112145992D01*
X152862087Y-112098866D01*
X152838873Y-112055436D01*
X152809792Y-112020000D01*
X152838873Y-111984564D01*
X152862087Y-111941134D01*
X152876382Y-111894008D01*
X152881209Y-111845000D01*
X152881209Y-111549643D01*
X152955710Y-111599422D01*
X153074002Y-111648421D01*
X153199581Y-111673400D01*
X153327619Y-111673400D01*
X153453198Y-111648421D01*
X153571490Y-111599422D01*
X153677951Y-111528288D01*
X153768488Y-111437751D01*
X153839622Y-111331290D01*
X153888621Y-111212998D01*
X153913600Y-111087419D01*
X153913600Y-110959381D01*
X153888621Y-110833802D01*
X153839622Y-110715510D01*
X153768488Y-110609049D01*
X153677951Y-110518512D01*
X153571490Y-110447378D01*
X153453198Y-110398379D01*
X153327619Y-110373400D01*
X153199581Y-110373400D01*
X153074002Y-110398379D01*
X152955710Y-110447378D01*
X152873957Y-110502003D01*
X152876382Y-110494008D01*
X152881209Y-110445000D01*
X152881209Y-110095000D01*
X152876382Y-110045992D01*
X152868498Y-110020000D01*
X153582858Y-110020000D01*
X153594510Y-110037438D01*
X153685047Y-110127975D01*
X153791508Y-110199109D01*
X153909800Y-110248108D01*
X154035379Y-110273087D01*
X154163417Y-110273087D01*
X154288996Y-110248108D01*
X154407288Y-110199109D01*
X154513749Y-110127975D01*
X154604286Y-110037438D01*
X154675420Y-109930977D01*
X154724419Y-109812685D01*
X154749398Y-109687106D01*
X154749398Y-109559068D01*
X154724419Y-109433489D01*
X154675420Y-109315197D01*
X154604286Y-109208736D01*
X154519994Y-109124444D01*
X154606998Y-109037440D01*
X154678132Y-108930979D01*
X154727131Y-108812687D01*
X154732504Y-108785677D01*
X154760120Y-108852348D01*
X154831254Y-108958809D01*
X154921791Y-109049346D01*
X155028252Y-109120480D01*
X155146544Y-109169479D01*
X155272123Y-109194458D01*
X155400161Y-109194458D01*
X155525740Y-109169479D01*
X155644032Y-109120480D01*
X155750493Y-109049346D01*
X155805381Y-108994458D01*
X155879733Y-108994458D01*
X155901827Y-108996634D01*
X155923921Y-108994458D01*
X155923932Y-108994458D01*
X155990042Y-108987947D01*
X156074868Y-108962215D01*
X156153043Y-108920429D01*
X156221564Y-108864195D01*
X156235655Y-108847025D01*
X156690174Y-108392507D01*
X156707338Y-108378421D01*
X156721425Y-108361256D01*
X156721429Y-108361252D01*
X156763572Y-108309901D01*
X156805358Y-108231725D01*
X156813372Y-108205307D01*
X156822993Y-108173590D01*
X163582174Y-114932772D01*
G36*
X181029123Y-103747377D02*
G01*
X181154702Y-103772356D01*
X181282740Y-103772356D01*
X181358648Y-103757257D01*
X181566001Y-103964610D01*
X181566002Y-112020116D01*
X181523890Y-111991978D01*
X181405598Y-111942979D01*
X181280019Y-111918000D01*
X181151981Y-111918000D01*
X181026402Y-111942979D01*
X180908110Y-111991978D01*
X180801649Y-112063112D01*
X180711112Y-112153649D01*
X180639978Y-112260110D01*
X180590979Y-112378402D01*
X180568801Y-112489899D01*
X180568801Y-110534225D01*
X181075327Y-110027700D01*
X181088687Y-110016736D01*
X181132424Y-109963441D01*
X181157051Y-109917368D01*
X181164924Y-109902639D01*
X181184937Y-109836663D01*
X181191695Y-109768051D01*
X181190002Y-109750862D01*
X181190002Y-108574189D01*
X181191695Y-108557000D01*
X181187151Y-108510861D01*
X181184937Y-108488388D01*
X181168638Y-108434655D01*
X181164924Y-108422412D01*
X181153603Y-108401233D01*
X181132424Y-108361610D01*
X181088686Y-108308315D01*
X181075331Y-108297355D01*
X180568731Y-107790756D01*
X180568731Y-106610644D01*
X180894326Y-106285050D01*
X180907686Y-106274086D01*
X180951423Y-106220791D01*
X180979934Y-106167451D01*
X180983923Y-106159989D01*
X181003936Y-106094013D01*
X181004850Y-106084738D01*
X181009001Y-106042590D01*
X181010694Y-106025401D01*
X181009001Y-106008212D01*
X181009001Y-103739042D01*
X181029123Y-103747377D01*
G37*
X181029123Y-103747377D02*
X181154702Y-103772356D01*
X181282740Y-103772356D01*
X181358648Y-103757257D01*
X181566001Y-103964610D01*
X181566002Y-112020116D01*
X181523890Y-111991978D01*
X181405598Y-111942979D01*
X181280019Y-111918000D01*
X181151981Y-111918000D01*
X181026402Y-111942979D01*
X180908110Y-111991978D01*
X180801649Y-112063112D01*
X180711112Y-112153649D01*
X180639978Y-112260110D01*
X180590979Y-112378402D01*
X180568801Y-112489899D01*
X180568801Y-110534225D01*
X181075327Y-110027700D01*
X181088687Y-110016736D01*
X181132424Y-109963441D01*
X181157051Y-109917368D01*
X181164924Y-109902639D01*
X181184937Y-109836663D01*
X181191695Y-109768051D01*
X181190002Y-109750862D01*
X181190002Y-108574189D01*
X181191695Y-108557000D01*
X181187151Y-108510861D01*
X181184937Y-108488388D01*
X181168638Y-108434655D01*
X181164924Y-108422412D01*
X181153603Y-108401233D01*
X181132424Y-108361610D01*
X181088686Y-108308315D01*
X181075331Y-108297355D01*
X180568731Y-107790756D01*
X180568731Y-106610644D01*
X180894326Y-106285050D01*
X180907686Y-106274086D01*
X180951423Y-106220791D01*
X180979934Y-106167451D01*
X180983923Y-106159989D01*
X181003936Y-106094013D01*
X181004850Y-106084738D01*
X181009001Y-106042590D01*
X181010694Y-106025401D01*
X181009001Y-106008212D01*
X181009001Y-103739042D01*
X181029123Y-103747377D01*
%TD*%
D19*
X179380560Y-118594144D03*
X167309800Y-124815600D03*
X171018200Y-118592600D03*
X166344600Y-118592600D03*
X154635200Y-124612400D03*
X158191200Y-118745000D03*
X152603200Y-94945200D03*
X154559000Y-105765001D03*
X170789600Y-104419400D03*
X169892624Y-107424576D03*
X169875200Y-110185200D03*
X181875000Y-100558600D03*
X179060300Y-103235300D03*
X166827200Y-108534200D03*
X153085800Y-124180600D03*
X138379200Y-118999000D03*
X138379200Y-120523000D03*
X138379200Y-121996200D03*
X138379200Y-123494800D03*
X174447788Y-101481207D03*
X176974500Y-103251000D03*
X166141400Y-90125000D03*
X166141400Y-91262200D03*
X166141400Y-92278200D03*
X166141400Y-93294200D03*
X166141400Y-99263200D03*
X166141400Y-98298000D03*
X153847800Y-90125000D03*
X153847800Y-91287600D03*
X153847800Y-94259400D03*
X153847800Y-95300800D03*
X153847800Y-97282000D03*
X153847800Y-98247200D03*
X158013400Y-104368600D03*
X162026600Y-104368600D03*
X165684200Y-105816400D03*
X164490400Y-118364000D03*
X148310600Y-119786400D03*
X145567400Y-119151400D03*
X146380200Y-119151400D03*
X146380200Y-119964200D03*
X145567400Y-119964200D03*
X143840200Y-122478800D03*
X141121136Y-118997736D03*
X157886400Y-115519200D03*
X154609800Y-126695200D03*
X161323206Y-124781113D03*
X158191200Y-122706998D03*
X161318496Y-122719989D03*
X168452800Y-124942600D03*
X169621200Y-121691400D03*
X179959000Y-121716800D03*
X181152800Y-106654600D03*
X161569400Y-120523000D03*
X159969200Y-120497600D03*
X152349200Y-119303800D03*
X149453600Y-105003600D03*
X146939000Y-108254800D03*
X147650200Y-108839000D03*
X154127200Y-104495600D03*
X157835600Y-105816400D03*
X157810200Y-107340400D03*
X141859000Y-95453200D03*
X142595600Y-99237800D03*
X143408400Y-98298000D03*
X138125000Y-94525000D03*
X165658800Y-113538000D03*
X164665778Y-107917098D03*
X172567600Y-125603000D03*
X171754800Y-126238000D03*
X172567600Y-124536200D03*
X154940000Y-129692400D03*
X161874200Y-129819400D03*
X158191200Y-129768600D03*
X165277800Y-129895600D03*
X146558000Y-125018800D03*
X148336000Y-126136400D03*
X139141200Y-94538800D03*
X138176000Y-95504000D03*
X181864000Y-99110800D03*
X181864000Y-94538800D03*
X177469800Y-94691200D03*
X141224000Y-115595400D03*
X181216000Y-121712000D03*
X147108574Y-120895774D03*
X148615400Y-122148600D03*
X149352000Y-106070400D03*
X150977600Y-98221800D03*
X175082200Y-107462002D03*
X169824400Y-105054400D03*
X178333400Y-104978200D03*
X169595800Y-117627400D03*
X167513000Y-122682000D03*
X174625000Y-103378000D03*
X180340000Y-100012500D03*
X178943000Y-95313500D03*
X169443400Y-119684800D03*
X178943000Y-96583500D03*
X169595800Y-116586000D03*
X175190685Y-104267000D03*
X178816000Y-99466400D03*
X158800800Y-114300000D03*
X177317400Y-107619800D03*
X168681400Y-106527600D03*
X142189200Y-117271800D03*
X166852600Y-120726200D03*
X149453600Y-111658400D03*
X154076400Y-103479600D03*
X166725600Y-114630200D03*
X180218731Y-103117636D03*
X181216000Y-116632000D03*
X181218721Y-103122356D03*
X181216000Y-115616000D03*
X155336142Y-108544458D03*
X141757400Y-122047000D03*
X145542000Y-123977400D03*
X145973800Y-97510600D03*
X181216000Y-112568000D03*
X173761400Y-99237800D03*
X179882800Y-114452400D03*
X154099398Y-109623087D03*
X179755800Y-108508800D03*
X149453600Y-110261400D03*
X166852600Y-112572800D03*
X179082800Y-113639600D03*
X166827200Y-109550200D03*
X154102110Y-108623089D03*
X153263600Y-111023400D03*
X167289200Y-113584000D03*
X139379465Y-116515052D03*
X147040600Y-118186200D03*
X155587600Y-107391200D03*
X161544000Y-105943400D03*
X180140001Y-109432050D03*
X179959000Y-105689400D03*
X169011600Y-103936800D03*
X163880800Y-103581200D03*
X166446200Y-104013000D03*
X155999000Y-121732000D03*
X159838372Y-124623840D03*
X159349999Y-126896865D03*
X156083000Y-124485400D03*
X171020589Y-94309865D03*
X169530784Y-93227459D03*
X150539658Y-92967369D03*
X149012986Y-93997122D03*
X150918815Y-127387791D03*
X152445487Y-128417544D03*
X167577766Y-128331569D03*
X169122178Y-127328616D03*
X142200000Y-110850000D03*
X142200000Y-102870000D03*
D20*
X162286000Y-126404500D03*
X157714000Y-126404500D03*
D21*
X163048000Y-128627000D03*
X156952000Y-128627000D03*
M02*
