%FSLAX45Y45*%
G04 Gerber Fmt 4.5, Leading zero omitted, Abs format (unit mm)*
G04 Created by KiCad*
%MOMM*%
%LPD*%
G04 APERTURE LIST*
%TA.AperFunction,Profile*%
%ADD10C,0.050000*%
%TD*%
%ADD11C,0.200000*%
%ADD12C,0.300000*%
G04 APERTURE END LIST*
D10*
X15350000Y-13050000D02*
X14450000Y-12450000D01*
X17550000Y-12450000D02*
X16650000Y-13050000D01*
X16650000Y-8950000D02*
X17270000Y-9390000D01*
X15350000Y-8950000D02*
X14690000Y-9390000D01*
X16000000Y-8950000D02*
X15350000Y-8950000D01*
X16000000Y-13050000D02*
X15350000Y-13050000D01*
X16650000Y-13050000D02*
X16000000Y-13050000D01*
X16000000Y-8950000D02*
X16650000Y-8950000D01*
X18250000Y-12450000D02*
X17550000Y-12450000D01*
X18250000Y-9390000D02*
X17270000Y-9390000D01*
X13750000Y-9390000D02*
X14690000Y-9390000D01*
X13750000Y-12450000D02*
X14450000Y-12450000D01*
X13750000Y-11000000D02*
X13750000Y-12450000D01*
X13750000Y-11000000D02*
X13750000Y-9390000D01*
X18250000Y-11000000D02*
X18250000Y-12450000D01*
X18250000Y-11000000D02*
X18250000Y-9390000D01*
D11*
X13792500Y-9432500D02*
X13832500Y-9472500D01*
X13832500Y-9432500D02*
X13792500Y-9472500D01*
X13797600Y-9530400D02*
X13837600Y-9570400D01*
X13837600Y-9530400D02*
X13797600Y-9570400D01*
X13801410Y-11470960D02*
X13841410Y-11510960D01*
X13841410Y-11470960D02*
X13801410Y-11510960D01*
X13802680Y-9968550D02*
X13842680Y-10008550D01*
X13842680Y-9968550D02*
X13802680Y-10008550D01*
X13802680Y-10104786D02*
X13842680Y-10144786D01*
X13842680Y-10104786D02*
X13802680Y-10144786D01*
X13802680Y-10241023D02*
X13842680Y-10281023D01*
X13842680Y-10241023D02*
X13802680Y-10281023D01*
X13802680Y-10377259D02*
X13842680Y-10417259D01*
X13842680Y-10377259D02*
X13802680Y-10417259D01*
X13802680Y-10513495D02*
X13842680Y-10553495D01*
X13842680Y-10513495D02*
X13802680Y-10553495D01*
X13802680Y-10649732D02*
X13842680Y-10689732D01*
X13842680Y-10649732D02*
X13802680Y-10689732D01*
X13802680Y-10785968D02*
X13842680Y-10825968D01*
X13842680Y-10785968D02*
X13802680Y-10825968D01*
X13802680Y-10922204D02*
X13842680Y-10962204D01*
X13842680Y-10922204D02*
X13802680Y-10962204D01*
X13802680Y-11058440D02*
X13842680Y-11098440D01*
X13842680Y-11058440D02*
X13802680Y-11098440D01*
X13802680Y-11194677D02*
X13842680Y-11234677D01*
X13842680Y-11194677D02*
X13802680Y-11234677D01*
X13802680Y-11330913D02*
X13842680Y-11370913D01*
X13842680Y-11330913D02*
X13802680Y-11370913D01*
X13802680Y-11600500D02*
X13842680Y-11640500D01*
X13842680Y-11600500D02*
X13802680Y-11640500D01*
X13817920Y-11879900D02*
X13857920Y-11919900D01*
X13857920Y-11879900D02*
X13817920Y-11919900D01*
X13817920Y-12032300D02*
X13857920Y-12072300D01*
X13857920Y-12032300D02*
X13817920Y-12072300D01*
X13817920Y-12179620D02*
X13857920Y-12219620D01*
X13857920Y-12179620D02*
X13817920Y-12219620D01*
X13817920Y-12329480D02*
X13857920Y-12369480D01*
X13857920Y-12329480D02*
X13817920Y-12369480D01*
X13878880Y-10735630D02*
X13918880Y-10775630D01*
X13918880Y-10735630D02*
X13878880Y-10775630D01*
X13894120Y-9433880D02*
X13934120Y-9473880D01*
X13934120Y-9433880D02*
X13894120Y-9473880D01*
X13917946Y-11631505D02*
X13957946Y-11671505D01*
X13957946Y-11631505D02*
X13917946Y-11671505D01*
X13961430Y-10818180D02*
X14001430Y-10858180D01*
X14001430Y-10818180D02*
X13961430Y-10858180D01*
X14042710Y-10895650D02*
X14082710Y-10935650D01*
X14082710Y-10895650D02*
X14042710Y-10935650D01*
X14092114Y-11879774D02*
X14132114Y-11919774D01*
X14132114Y-11879774D02*
X14092114Y-11919774D01*
X14102400Y-11539540D02*
X14142400Y-11579540D01*
X14142400Y-11539540D02*
X14102400Y-11579540D01*
X14118910Y-10966770D02*
X14158910Y-11006770D01*
X14158910Y-10966770D02*
X14118910Y-11006770D01*
X14135420Y-10401620D02*
X14175420Y-10441620D01*
X14175420Y-10401620D02*
X14135420Y-10441620D01*
X14141770Y-10124760D02*
X14181770Y-10164760D01*
X14181770Y-10124760D02*
X14141770Y-10164760D01*
X14144310Y-10522270D02*
X14184310Y-10562270D01*
X14184310Y-10522270D02*
X14144310Y-10562270D01*
X14155740Y-12184700D02*
X14195740Y-12224700D01*
X14195740Y-12184700D02*
X14155740Y-12224700D01*
X14165900Y-9525320D02*
X14205900Y-9565320D01*
X14205900Y-9525320D02*
X14165900Y-9565320D01*
X14198920Y-11707180D02*
X14238920Y-11747180D01*
X14238920Y-11707180D02*
X14198920Y-11747180D01*
X14217970Y-9430070D02*
X14257970Y-9470070D01*
X14257970Y-9430070D02*
X14217970Y-9470070D01*
X14235750Y-10616250D02*
X14275750Y-10656250D01*
X14275750Y-10616250D02*
X14235750Y-10656250D01*
X14239560Y-9903780D02*
X14279560Y-9943780D01*
X14279560Y-9903780D02*
X14239560Y-9943780D01*
X14309410Y-11166160D02*
X14349410Y-11206160D01*
X14349410Y-11166160D02*
X14309410Y-11206160D01*
X14318300Y-10689910D02*
X14358300Y-10729910D01*
X14358300Y-10689910D02*
X14318300Y-10729910D01*
X14320840Y-9809800D02*
X14360840Y-9849800D01*
X14360840Y-9809800D02*
X14320840Y-9849800D01*
X14332270Y-9430070D02*
X14372270Y-9470070D01*
X14372270Y-9430070D02*
X14332270Y-9470070D01*
X14361480Y-11335070D02*
X14401480Y-11375070D01*
X14401480Y-11335070D02*
X14361480Y-11375070D01*
X14364020Y-12227880D02*
X14404020Y-12267880D01*
X14404020Y-12227880D02*
X14364020Y-12267880D01*
X14407200Y-10767380D02*
X14447200Y-10807380D01*
X14447200Y-10767380D02*
X14407200Y-10807380D01*
X14437680Y-9430070D02*
X14477680Y-9470070D01*
X14477680Y-9430070D02*
X14437680Y-9470070D01*
X14487210Y-10855010D02*
X14527210Y-10895010D01*
X14527210Y-10855010D02*
X14487210Y-10895010D01*
X14534200Y-12377740D02*
X14574200Y-12417740D01*
X14574200Y-12377740D02*
X14534200Y-12417740D01*
X14536740Y-11895140D02*
X14576740Y-11935140D01*
X14576740Y-11895140D02*
X14536740Y-11935140D01*
X14536740Y-11976420D02*
X14576740Y-12016420D01*
X14576740Y-11976420D02*
X14536740Y-12016420D01*
X14563410Y-9430070D02*
X14603410Y-9470070D01*
X14603410Y-9430070D02*
X14563410Y-9470070D01*
X14618020Y-11895140D02*
X14658020Y-11935140D01*
X14658020Y-11895140D02*
X14618020Y-11935140D01*
X14618020Y-11976420D02*
X14658020Y-12016420D01*
X14658020Y-11976420D02*
X14618020Y-12016420D01*
X14635800Y-12481880D02*
X14675800Y-12521880D01*
X14675800Y-12481880D02*
X14635800Y-12521880D01*
X14673900Y-10805480D02*
X14713900Y-10845480D01*
X14713900Y-10805480D02*
X14673900Y-10845480D01*
X14684060Y-11798620D02*
X14724060Y-11838620D01*
X14724060Y-11798620D02*
X14684060Y-11838620D01*
X14687870Y-11327450D02*
X14727870Y-11367450D01*
X14727870Y-11327450D02*
X14687870Y-11367450D01*
X14689140Y-11211880D02*
X14729140Y-11251880D01*
X14729140Y-11211880D02*
X14689140Y-11251880D01*
X14690857Y-12069577D02*
X14730857Y-12109577D01*
X14730857Y-12069577D02*
X14690857Y-12109577D01*
X14723430Y-12536490D02*
X14763430Y-12576490D01*
X14763430Y-12536490D02*
X14723430Y-12576490D01*
X14745020Y-10863900D02*
X14785020Y-10903900D01*
X14785020Y-10863900D02*
X14745020Y-10903900D01*
X14811060Y-11958640D02*
X14851060Y-11998640D01*
X14851060Y-11958640D02*
X14811060Y-11998640D01*
X14813600Y-12593640D02*
X14853600Y-12633640D01*
X14853600Y-12593640D02*
X14813600Y-12633640D01*
X14835190Y-9873300D02*
X14875190Y-9913300D01*
X14875190Y-9873300D02*
X14835190Y-9913300D01*
X14841540Y-12194860D02*
X14881540Y-12234860D01*
X14881540Y-12194860D02*
X14841540Y-12234860D01*
X14915200Y-10587040D02*
X14955200Y-10627040D01*
X14955200Y-10587040D02*
X14915200Y-10627040D01*
X14925360Y-10480360D02*
X14965360Y-10520360D01*
X14965360Y-10480360D02*
X14925360Y-10520360D01*
X14925360Y-11006140D02*
X14965360Y-11046140D01*
X14965360Y-11006140D02*
X14925360Y-11046140D01*
X14925360Y-11145840D02*
X14965360Y-11185840D01*
X14965360Y-11145840D02*
X14925360Y-11185840D01*
X15005370Y-10151430D02*
X15045370Y-10191430D01*
X15045370Y-10151430D02*
X15005370Y-10191430D01*
X15077760Y-9802180D02*
X15117760Y-9842180D01*
X15117760Y-9802180D02*
X15077760Y-9842180D01*
X15077760Y-10264460D02*
X15117760Y-10304460D01*
X15117760Y-10264460D02*
X15077760Y-10304460D01*
X15077760Y-10369870D02*
X15117760Y-10409870D01*
X15117760Y-10369870D02*
X15077760Y-10409870D01*
X15166660Y-12344720D02*
X15206660Y-12384720D01*
X15206660Y-12344720D02*
X15166660Y-12384720D01*
X15214920Y-11910380D02*
X15254920Y-11950380D01*
X15254920Y-11910380D02*
X15214920Y-11950380D01*
X15240320Y-9474520D02*
X15280320Y-9514520D01*
X15280320Y-9474520D02*
X15240320Y-9514520D01*
X15259370Y-9059230D02*
X15299370Y-9099230D01*
X15299370Y-9059230D02*
X15259370Y-9099230D01*
X15288580Y-12398060D02*
X15328580Y-12438060D01*
X15328580Y-12398060D02*
X15288580Y-12438060D01*
X15306360Y-11082340D02*
X15346360Y-11122340D01*
X15346360Y-11082340D02*
X15306360Y-11122340D01*
X15364780Y-8992500D02*
X15404780Y-9032500D01*
X15404780Y-8992500D02*
X15364780Y-9032500D01*
X15364780Y-9108760D02*
X15404780Y-9148760D01*
X15404780Y-9108760D02*
X15364780Y-9148760D01*
X15364780Y-9405940D02*
X15404780Y-9445940D01*
X15404780Y-9405940D02*
X15364780Y-9445940D01*
X15364780Y-9510080D02*
X15404780Y-9550080D01*
X15404780Y-9510080D02*
X15364780Y-9550080D01*
X15364780Y-9708200D02*
X15404780Y-9748200D01*
X15404780Y-9708200D02*
X15364780Y-9748200D01*
X15364780Y-9804720D02*
X15404780Y-9844720D01*
X15404780Y-9804720D02*
X15364780Y-9844720D01*
X15386370Y-12137710D02*
X15426370Y-12177710D01*
X15426370Y-12137710D02*
X15386370Y-12177710D01*
X15387640Y-10327960D02*
X15427640Y-10367960D01*
X15427640Y-10327960D02*
X15387640Y-10367960D01*
X15389940Y-10942309D02*
X15429940Y-10982309D01*
X15429940Y-10942309D02*
X15389940Y-10982309D01*
X15390211Y-10842309D02*
X15430211Y-10882309D01*
X15430211Y-10842309D02*
X15390211Y-10882309D01*
X15392720Y-10429560D02*
X15432720Y-10469560D01*
X15432720Y-10429560D02*
X15392720Y-10469560D01*
X15401610Y-12345990D02*
X15441610Y-12385990D01*
X15441610Y-12345990D02*
X15401610Y-12385990D01*
X15435900Y-10556500D02*
X15475900Y-10596500D01*
X15475900Y-10556500D02*
X15435900Y-10596500D01*
X15440980Y-12649520D02*
X15480980Y-12689520D01*
X15480980Y-12649520D02*
X15440980Y-12689520D01*
X15443520Y-12441240D02*
X15483520Y-12481240D01*
X15483520Y-12441240D02*
X15443520Y-12481240D01*
X15474000Y-12949240D02*
X15514000Y-12989240D01*
X15514000Y-12949240D02*
X15474000Y-12989240D01*
X15513614Y-10834446D02*
X15553614Y-10874446D01*
X15553614Y-10834446D02*
X15513614Y-10874446D01*
X15538760Y-10719120D02*
X15578760Y-10759120D01*
X15578760Y-10719120D02*
X15538760Y-10759120D01*
X15579900Y-12153200D02*
X15619900Y-12193200D01*
X15619900Y-12153200D02*
X15579900Y-12193200D01*
X15588300Y-12428540D02*
X15628300Y-12468540D01*
X15628300Y-12428540D02*
X15588300Y-12468540D01*
X15761020Y-10714040D02*
X15801020Y-10754040D01*
X15801020Y-10714040D02*
X15761020Y-10754040D01*
X15768640Y-11531920D02*
X15808640Y-11571920D01*
X15808640Y-11531920D02*
X15768640Y-11571920D01*
X15799120Y-11854500D02*
X15839120Y-11894500D01*
X15839120Y-11854500D02*
X15799120Y-11894500D01*
X15799120Y-12250700D02*
X15839120Y-12290700D01*
X15839120Y-12250700D02*
X15799120Y-12290700D01*
X15799120Y-12956860D02*
X15839120Y-12996860D01*
X15839120Y-12956860D02*
X15799120Y-12996860D01*
X15851190Y-10415000D02*
X15891190Y-10455000D01*
X15891190Y-10415000D02*
X15851190Y-10455000D01*
X15860080Y-11410000D02*
X15900080Y-11450000D01*
X15900080Y-11410000D02*
X15860080Y-11450000D01*
X15915000Y-12669686D02*
X15955000Y-12709686D01*
X15955000Y-12669686D02*
X15915000Y-12709686D01*
X15963837Y-12442384D02*
X16003837Y-12482384D01*
X16003837Y-12442384D02*
X15963837Y-12482384D01*
X15976920Y-12029760D02*
X16016920Y-12069760D01*
X16016920Y-12029760D02*
X15976920Y-12069760D01*
X16111850Y-12251999D02*
X16151850Y-12291999D01*
X16151850Y-12251999D02*
X16111850Y-12291999D01*
X16112321Y-12458111D02*
X16152321Y-12498111D01*
X16152321Y-12458111D02*
X16112321Y-12498111D01*
X16136940Y-12032300D02*
X16176940Y-12072300D01*
X16176940Y-12032300D02*
X16136940Y-12072300D01*
X16138210Y-12141520D02*
X16178210Y-12181520D01*
X16178210Y-12141520D02*
X16138210Y-12181520D01*
X16145830Y-10569260D02*
X16185830Y-10609260D01*
X16185830Y-10569260D02*
X16145830Y-10609260D01*
X16149640Y-10726740D02*
X16189640Y-10766740D01*
X16189640Y-10726740D02*
X16149640Y-10766740D01*
X16150910Y-12354880D02*
X16190910Y-12394880D01*
X16190910Y-12354880D02*
X16150910Y-12394880D01*
X16153450Y-10855020D02*
X16193450Y-10895020D01*
X16193450Y-10855020D02*
X16153450Y-10895020D01*
X16167420Y-12961940D02*
X16207420Y-13001940D01*
X16207420Y-12961940D02*
X16167420Y-13001940D01*
X16182660Y-10416860D02*
X16222660Y-10456860D01*
X16222660Y-10416860D02*
X16182660Y-10456860D01*
X16294420Y-10310180D02*
X16334420Y-10350180D01*
X16334420Y-10310180D02*
X16294420Y-10350180D01*
X16305850Y-10406700D02*
X16345850Y-10446700D01*
X16345850Y-10406700D02*
X16305850Y-10446700D01*
X16397290Y-10310180D02*
X16437290Y-10350180D01*
X16437290Y-10310180D02*
X16397290Y-10350180D01*
X16429040Y-11816400D02*
X16469040Y-11856400D01*
X16469040Y-11816400D02*
X16429040Y-11856400D01*
X16507780Y-12969560D02*
X16547780Y-13009560D01*
X16547780Y-12969560D02*
X16507780Y-13009560D01*
X16545880Y-11333800D02*
X16585880Y-11373800D01*
X16585880Y-11333800D02*
X16545880Y-11373800D01*
X16548420Y-10561640D02*
X16588420Y-10601640D01*
X16588420Y-10561640D02*
X16548420Y-10601640D01*
X16589060Y-10409240D02*
X16629060Y-10449240D01*
X16629060Y-10409240D02*
X16589060Y-10449240D01*
X16594140Y-8992500D02*
X16634140Y-9032500D01*
X16634140Y-8992500D02*
X16594140Y-9032500D01*
X16594140Y-9106220D02*
X16634140Y-9146220D01*
X16634140Y-9106220D02*
X16594140Y-9146220D01*
X16594140Y-9207820D02*
X16634140Y-9247820D01*
X16634140Y-9207820D02*
X16594140Y-9247820D01*
X16594140Y-9309420D02*
X16634140Y-9349420D01*
X16634140Y-9309420D02*
X16594140Y-9349420D01*
X16594140Y-9809800D02*
X16634140Y-9849800D01*
X16634140Y-9809800D02*
X16594140Y-9849800D01*
X16594140Y-9906320D02*
X16634140Y-9946320D01*
X16634140Y-9906320D02*
X16594140Y-9946320D01*
X16614460Y-11839260D02*
X16654460Y-11879260D01*
X16654460Y-11839260D02*
X16614460Y-11879260D01*
X16652560Y-11443020D02*
X16692560Y-11483020D01*
X16692560Y-11443020D02*
X16652560Y-11483020D01*
X16660180Y-10331770D02*
X16700180Y-10371770D01*
X16700180Y-10331770D02*
X16660180Y-10371770D01*
X16662720Y-10833420D02*
X16702720Y-10873420D01*
X16702720Y-10833420D02*
X16662720Y-10873420D01*
X16662720Y-10935020D02*
X16702720Y-10975020D01*
X16702720Y-10935020D02*
X16662720Y-10975020D01*
X16665260Y-11237280D02*
X16705260Y-11277280D01*
X16705260Y-11237280D02*
X16665260Y-11277280D01*
X16665260Y-12052620D02*
X16705260Y-12092620D01*
X16705260Y-12052620D02*
X16665260Y-12092620D01*
X16708920Y-11338400D02*
X16748920Y-11378400D01*
X16748920Y-11338400D02*
X16708920Y-11378400D01*
X16710980Y-12461560D02*
X16750980Y-12501560D01*
X16750980Y-12461560D02*
X16710980Y-12501560D01*
X16718600Y-9087170D02*
X16758600Y-9127170D01*
X16758600Y-9087170D02*
X16718600Y-9127170D01*
X16731300Y-12248200D02*
X16771300Y-12288200D01*
X16771300Y-12248200D02*
X16731300Y-12288200D01*
X16825280Y-12474260D02*
X16865280Y-12514260D01*
X16865280Y-12474260D02*
X16825280Y-12514260D01*
X16848140Y-10632760D02*
X16888140Y-10672760D01*
X16888140Y-10632760D02*
X16848140Y-10672760D01*
X16868460Y-9601520D02*
X16908460Y-9641520D01*
X16908460Y-9601520D02*
X16868460Y-9641520D01*
X16924340Y-11948480D02*
X16964340Y-11988480D01*
X16964340Y-11948480D02*
X16924340Y-11988480D01*
X16939580Y-11638600D02*
X16979580Y-11678600D01*
X16979580Y-11638600D02*
X16939580Y-11678600D01*
X16939580Y-11742740D02*
X16979580Y-11782740D01*
X16979580Y-11742740D02*
X16939580Y-11782740D01*
X16942120Y-12149140D02*
X16982120Y-12189140D01*
X16982120Y-12149140D02*
X16942120Y-12189140D01*
X16962440Y-10485440D02*
X17002440Y-10525440D01*
X17002440Y-10485440D02*
X16962440Y-10525440D01*
X16966250Y-11473500D02*
X17006250Y-11513500D01*
X17006250Y-11473500D02*
X16966250Y-11513500D01*
X16967520Y-10998520D02*
X17007520Y-11038520D01*
X17007520Y-10998520D02*
X16967520Y-11038520D01*
X16969262Y-10722458D02*
X17009262Y-10762458D01*
X17009262Y-10722458D02*
X16969262Y-10762458D01*
X16990380Y-10058720D02*
X17030380Y-10098720D01*
X17030380Y-10058720D02*
X16990380Y-10098720D01*
X16991650Y-9747570D02*
X17031650Y-9787570D01*
X17031650Y-9747570D02*
X16991650Y-9787570D01*
X16991650Y-9910130D02*
X17031650Y-9950130D01*
X17031650Y-9910130D02*
X16991650Y-9950130D01*
X17058960Y-10421940D02*
X17098960Y-10461940D01*
X17098960Y-10421940D02*
X17058960Y-10461940D01*
X17081820Y-11839260D02*
X17121820Y-11879260D01*
X17121820Y-11839260D02*
X17081820Y-11879260D01*
X17155480Y-11608120D02*
X17195480Y-11648120D01*
X17195480Y-11608120D02*
X17155480Y-11648120D01*
X17155480Y-11719880D02*
X17195480Y-11759880D01*
X17195480Y-11719880D02*
X17155480Y-11759880D01*
X17155480Y-12603800D02*
X17195480Y-12643800D01*
X17195480Y-12603800D02*
X17155480Y-12643800D01*
X17226600Y-12180890D02*
X17266600Y-12220890D01*
X17266600Y-12180890D02*
X17226600Y-12220890D01*
X17226600Y-12299000D02*
X17266600Y-12339000D01*
X17266600Y-12299000D02*
X17226600Y-12339000D01*
X17236760Y-12433620D02*
X17276760Y-12473620D01*
X17276760Y-12433620D02*
X17236760Y-12473620D01*
X17236760Y-12540300D02*
X17276760Y-12580300D01*
X17276760Y-12540300D02*
X17236760Y-12580300D01*
X17254540Y-11719880D02*
X17294540Y-11759880D01*
X17294540Y-11719880D02*
X17254540Y-11759880D01*
X17285020Y-9601520D02*
X17325020Y-9641520D01*
X17325020Y-9601520D02*
X17285020Y-9641520D01*
X17385350Y-9432610D02*
X17425350Y-9472610D01*
X17425350Y-9432610D02*
X17385350Y-9472610D01*
X17424779Y-10128121D02*
X17464779Y-10168121D01*
X17464779Y-10128121D02*
X17424779Y-10168121D01*
X17432340Y-11956100D02*
X17472340Y-11996100D01*
X17472340Y-11956100D02*
X17432340Y-11996100D01*
X17442500Y-10317800D02*
X17482500Y-10357800D01*
X17482500Y-10317800D02*
X17442500Y-10357800D01*
X17488220Y-10726200D02*
X17528220Y-10766200D01*
X17528220Y-10726200D02*
X17488220Y-10766200D01*
X17499069Y-10406700D02*
X17539069Y-10446700D01*
X17539069Y-10406700D02*
X17499069Y-10446700D01*
X17528860Y-11732580D02*
X17568860Y-11772580D01*
X17568860Y-11732580D02*
X17528860Y-11772580D01*
X17546640Y-11956100D02*
X17586640Y-11996100D01*
X17586640Y-11956100D02*
X17546640Y-11996100D01*
X17649510Y-11730040D02*
X17689510Y-11770040D01*
X17689510Y-11730040D02*
X17649510Y-11770040D01*
X17669830Y-11952290D02*
X17709830Y-11992290D01*
X17709830Y-11952290D02*
X17669830Y-11992290D01*
X17677450Y-10305100D02*
X17717450Y-10345100D01*
X17717450Y-10305100D02*
X17677450Y-10345100D01*
X17711740Y-10741980D02*
X17751740Y-10781980D01*
X17751740Y-10741980D02*
X17711740Y-10781980D01*
X17725710Y-9858060D02*
X17765710Y-9898060D01*
X17765710Y-9858060D02*
X17725710Y-9898060D01*
X17762540Y-11730040D02*
X17802540Y-11770040D01*
X17802540Y-11730040D02*
X17762540Y-11770040D01*
X17771430Y-9432610D02*
X17811430Y-9472610D01*
X17811430Y-9432610D02*
X17771430Y-9472610D01*
X17777780Y-11958640D02*
X17817780Y-11998640D01*
X17817780Y-11958640D02*
X17777780Y-11998640D01*
X17782860Y-10970881D02*
X17822860Y-11010881D01*
X17822860Y-10970881D02*
X17782860Y-11010881D01*
X17813340Y-10477820D02*
X17853340Y-10517820D01*
X17853340Y-10477820D02*
X17813340Y-10517820D01*
X17853980Y-11737660D02*
X17893980Y-11777660D01*
X17893980Y-11737660D02*
X17853980Y-11777660D01*
X17857790Y-11042970D02*
X17897790Y-11082970D01*
X17897790Y-11042970D02*
X17857790Y-11082970D01*
X17861600Y-9926640D02*
X17901600Y-9966640D01*
X17901600Y-9926640D02*
X17861600Y-9966640D01*
X17874300Y-9511350D02*
X17914300Y-9551350D01*
X17914300Y-9511350D02*
X17874300Y-9551350D01*
X17874300Y-9638350D02*
X17914300Y-9678350D01*
X17914300Y-9638350D02*
X17874300Y-9678350D01*
X17883190Y-11192830D02*
X17923190Y-11232830D01*
X17923190Y-11192830D02*
X17883190Y-11232830D01*
X17886030Y-10303530D02*
X17926030Y-10343530D01*
X17926030Y-10303530D02*
X17886030Y-10343530D01*
X17888280Y-11343960D02*
X17928280Y-11383960D01*
X17928280Y-11343960D02*
X17888280Y-11383960D01*
X17909860Y-10636570D02*
X17949860Y-10676570D01*
X17949860Y-10636570D02*
X17909860Y-10676570D01*
X17918056Y-11839414D02*
X17958056Y-11879414D01*
X17958056Y-11839414D02*
X17918056Y-11879414D01*
X17955580Y-10830880D02*
X17995580Y-10870880D01*
X17995580Y-10830880D02*
X17955580Y-10870880D01*
X17956723Y-11443210D02*
X17996723Y-11483210D01*
X17996723Y-11443210D02*
X17956723Y-11483210D01*
X17975900Y-12151680D02*
X18015900Y-12191680D01*
X18015900Y-12151680D02*
X17975900Y-12191680D01*
X18001873Y-10291764D02*
X18041873Y-10331764D01*
X18041873Y-10291764D02*
X18001873Y-10331764D01*
X18014000Y-9981250D02*
X18054000Y-10021250D01*
X18054000Y-9981250D02*
X18014000Y-10021250D01*
X18095280Y-10645460D02*
X18135280Y-10685460D01*
X18135280Y-10645460D02*
X18095280Y-10685460D01*
X18097820Y-11234740D02*
X18137820Y-11274740D01*
X18137820Y-11234740D02*
X18097820Y-11274740D01*
X18101600Y-11541600D02*
X18141600Y-11581600D01*
X18141600Y-11541600D02*
X18101600Y-11581600D01*
X18101600Y-11643200D02*
X18141600Y-11683200D01*
X18141600Y-11643200D02*
X18101600Y-11683200D01*
X18101600Y-12151200D02*
X18141600Y-12191200D01*
X18141600Y-12151200D02*
X18101600Y-12191200D01*
X18101872Y-10292236D02*
X18141872Y-10332236D01*
X18141872Y-10292236D02*
X18101872Y-10332236D01*
X18166400Y-9433880D02*
X18206400Y-9473880D01*
X18206400Y-9433880D02*
X18166400Y-9473880D01*
X18166400Y-9891080D02*
X18206400Y-9931080D01*
X18206400Y-9891080D02*
X18166400Y-9931080D01*
X18167500Y-10035860D02*
X18207500Y-10075860D01*
X18207500Y-10035860D02*
X18167500Y-10075860D01*
X15732700Y-12862700D02*
G75*
G03X15732700Y-12862700I-37500J0D01*
G01*
X15667700Y-12840200D02*
X15667700Y-12885200D01*
X15722700Y-12840200D02*
X15722700Y-12885200D01*
X15667700Y-12885200D02*
G75*
G03X15722700Y-12885200I27500J0D01*
G01*
X15722700Y-12840200D02*
G75*
G03X15667700Y-12840200I-27500J0D01*
G01*
X16342300Y-12862700D02*
G75*
G03X16342300Y-12862700I-37500J0D01*
G01*
X16277300Y-12840200D02*
X16277300Y-12885200D01*
X16332300Y-12840200D02*
X16332300Y-12885200D01*
X16277300Y-12885200D02*
G75*
G03X16332300Y-12885200I27500J0D01*
G01*
X16332300Y-12840200D02*
G75*
G03X16277300Y-12840200I-27500J0D01*
G01*
D12*
X14033928Y-13518214D02*
X14033928Y-13218214D01*
X14105357Y-13218214D01*
X14148214Y-13232500D01*
X14176786Y-13261071D01*
X14191071Y-13289643D01*
X14205357Y-13346786D01*
X14205357Y-13389643D01*
X14191071Y-13446786D01*
X14176786Y-13475357D01*
X14148214Y-13503929D01*
X14105357Y-13518214D01*
X14033928Y-13518214D01*
X14333928Y-13518214D02*
X14333928Y-13318214D01*
X14333928Y-13375357D02*
X14348214Y-13346786D01*
X14362500Y-13332500D01*
X14391071Y-13318214D01*
X14419643Y-13318214D01*
X14519643Y-13518214D02*
X14519643Y-13318214D01*
X14519643Y-13218214D02*
X14505357Y-13232500D01*
X14519643Y-13246786D01*
X14533928Y-13232500D01*
X14519643Y-13218214D01*
X14519643Y-13246786D01*
X14705357Y-13518214D02*
X14676786Y-13503929D01*
X14662500Y-13475357D01*
X14662500Y-13218214D01*
X14862500Y-13518214D02*
X14833928Y-13503929D01*
X14819643Y-13475357D01*
X14819643Y-13218214D01*
X15205357Y-13518214D02*
X15205357Y-13218214D01*
X15305357Y-13432500D01*
X15405357Y-13218214D01*
X15405357Y-13518214D01*
X15676786Y-13518214D02*
X15676786Y-13361071D01*
X15662500Y-13332500D01*
X15633928Y-13318214D01*
X15576786Y-13318214D01*
X15548214Y-13332500D01*
X15676786Y-13503929D02*
X15648214Y-13518214D01*
X15576786Y-13518214D01*
X15548214Y-13503929D01*
X15533928Y-13475357D01*
X15533928Y-13446786D01*
X15548214Y-13418214D01*
X15576786Y-13403929D01*
X15648214Y-13403929D01*
X15676786Y-13389643D01*
X15819643Y-13318214D02*
X15819643Y-13618214D01*
X15819643Y-13332500D02*
X15848214Y-13318214D01*
X15905357Y-13318214D01*
X15933928Y-13332500D01*
X15948214Y-13346786D01*
X15962500Y-13375357D01*
X15962500Y-13461071D01*
X15948214Y-13489643D01*
X15933928Y-13503929D01*
X15905357Y-13518214D01*
X15848214Y-13518214D01*
X15819643Y-13503929D01*
X16091071Y-13489643D02*
X16105357Y-13503929D01*
X16091071Y-13518214D01*
X16076786Y-13503929D01*
X16091071Y-13489643D01*
X16091071Y-13518214D01*
X16091071Y-13332500D02*
X16105357Y-13346786D01*
X16091071Y-13361071D01*
X16076786Y-13346786D01*
X16091071Y-13332500D01*
X16091071Y-13361071D01*
X13707500Y-13992500D02*
X13747500Y-14032500D01*
X13747500Y-13992500D02*
X13707500Y-14032500D01*
X14091071Y-13848214D02*
X14119643Y-13848214D01*
X14148214Y-13862500D01*
X14162500Y-13876786D01*
X14176786Y-13905357D01*
X14191071Y-13962500D01*
X14191071Y-14033929D01*
X14176786Y-14091071D01*
X14162500Y-14119643D01*
X14148214Y-14133929D01*
X14119643Y-14148214D01*
X14091071Y-14148214D01*
X14062500Y-14133929D01*
X14048214Y-14119643D01*
X14033928Y-14091071D01*
X14019643Y-14033929D01*
X14019643Y-13962500D01*
X14033928Y-13905357D01*
X14048214Y-13876786D01*
X14062500Y-13862500D01*
X14091071Y-13848214D01*
X14319643Y-14119643D02*
X14333928Y-14133929D01*
X14319643Y-14148214D01*
X14305357Y-14133929D01*
X14319643Y-14119643D01*
X14319643Y-14148214D01*
X14591071Y-13948214D02*
X14591071Y-14148214D01*
X14519643Y-13833929D02*
X14448214Y-14048214D01*
X14633928Y-14048214D01*
X14805357Y-13848214D02*
X14833928Y-13848214D01*
X14862500Y-13862500D01*
X14876786Y-13876786D01*
X14891071Y-13905357D01*
X14905357Y-13962500D01*
X14905357Y-14033929D01*
X14891071Y-14091071D01*
X14876786Y-14119643D01*
X14862500Y-14133929D01*
X14833928Y-14148214D01*
X14805357Y-14148214D01*
X14776786Y-14133929D01*
X14762500Y-14119643D01*
X14748214Y-14091071D01*
X14733928Y-14033929D01*
X14733928Y-13962500D01*
X14748214Y-13905357D01*
X14762500Y-13876786D01*
X14776786Y-13862500D01*
X14805357Y-13848214D01*
X15033928Y-14148214D02*
X15033928Y-13948214D01*
X15033928Y-13976786D02*
X15048214Y-13962500D01*
X15076786Y-13948214D01*
X15119643Y-13948214D01*
X15148214Y-13962500D01*
X15162500Y-13991071D01*
X15162500Y-14148214D01*
X15162500Y-13991071D02*
X15176786Y-13962500D01*
X15205357Y-13948214D01*
X15248214Y-13948214D01*
X15276786Y-13962500D01*
X15291071Y-13991071D01*
X15291071Y-14148214D01*
X15433928Y-14148214D02*
X15433928Y-13948214D01*
X15433928Y-13976786D02*
X15448214Y-13962500D01*
X15476786Y-13948214D01*
X15519643Y-13948214D01*
X15548214Y-13962500D01*
X15562500Y-13991071D01*
X15562500Y-14148214D01*
X15562500Y-13991071D02*
X15576786Y-13962500D01*
X15605357Y-13948214D01*
X15648214Y-13948214D01*
X15676786Y-13962500D01*
X15691071Y-13991071D01*
X15691071Y-14148214D01*
X16276786Y-13833929D02*
X16019643Y-14219643D01*
X16662500Y-13848214D02*
X16691071Y-13848214D01*
X16719643Y-13862500D01*
X16733928Y-13876786D01*
X16748214Y-13905357D01*
X16762500Y-13962500D01*
X16762500Y-14033929D01*
X16748214Y-14091071D01*
X16733928Y-14119643D01*
X16719643Y-14133929D01*
X16691071Y-14148214D01*
X16662500Y-14148214D01*
X16633928Y-14133929D01*
X16619643Y-14119643D01*
X16605357Y-14091071D01*
X16591071Y-14033929D01*
X16591071Y-13962500D01*
X16605357Y-13905357D01*
X16619643Y-13876786D01*
X16633928Y-13862500D01*
X16662500Y-13848214D01*
X16891071Y-14119643D02*
X16905357Y-14133929D01*
X16891071Y-14148214D01*
X16876786Y-14133929D01*
X16891071Y-14119643D01*
X16891071Y-14148214D01*
X17091071Y-13848214D02*
X17119643Y-13848214D01*
X17148214Y-13862500D01*
X17162500Y-13876786D01*
X17176786Y-13905357D01*
X17191071Y-13962500D01*
X17191071Y-14033929D01*
X17176786Y-14091071D01*
X17162500Y-14119643D01*
X17148214Y-14133929D01*
X17119643Y-14148214D01*
X17091071Y-14148214D01*
X17062500Y-14133929D01*
X17048214Y-14119643D01*
X17033928Y-14091071D01*
X17019643Y-14033929D01*
X17019643Y-13962500D01*
X17033928Y-13905357D01*
X17048214Y-13876786D01*
X17062500Y-13862500D01*
X17091071Y-13848214D01*
X17476786Y-14148214D02*
X17305357Y-14148214D01*
X17391071Y-14148214D02*
X17391071Y-13848214D01*
X17362500Y-13891071D01*
X17333928Y-13919643D01*
X17305357Y-13933929D01*
X17733928Y-13848214D02*
X17676786Y-13848214D01*
X17648214Y-13862500D01*
X17633928Y-13876786D01*
X17605357Y-13919643D01*
X17591071Y-13976786D01*
X17591071Y-14091071D01*
X17605357Y-14119643D01*
X17619643Y-14133929D01*
X17648214Y-14148214D01*
X17705357Y-14148214D01*
X17733928Y-14133929D01*
X17748214Y-14119643D01*
X17762500Y-14091071D01*
X17762500Y-14019643D01*
X17748214Y-13991071D01*
X17733928Y-13976786D01*
X17705357Y-13962500D01*
X17648214Y-13962500D01*
X17619643Y-13976786D01*
X17605357Y-13991071D01*
X17591071Y-14019643D01*
X17876786Y-13848214D02*
X17876786Y-13905357D01*
X17991071Y-13848214D02*
X17991071Y-13905357D01*
X18433928Y-14262500D02*
X18419643Y-14248214D01*
X18391071Y-14205357D01*
X18376786Y-14176786D01*
X18362500Y-14133929D01*
X18348214Y-14062500D01*
X18348214Y-14005357D01*
X18362500Y-13933929D01*
X18376786Y-13891071D01*
X18391071Y-13862500D01*
X18419643Y-13819643D01*
X18433928Y-13805357D01*
X18533928Y-13876786D02*
X18548214Y-13862500D01*
X18576786Y-13848214D01*
X18648214Y-13848214D01*
X18676786Y-13862500D01*
X18691071Y-13876786D01*
X18705357Y-13905357D01*
X18705357Y-13933929D01*
X18691071Y-13976786D01*
X18519643Y-14148214D01*
X18705357Y-14148214D01*
X18891071Y-13848214D02*
X18919643Y-13848214D01*
X18948214Y-13862500D01*
X18962500Y-13876786D01*
X18976786Y-13905357D01*
X18991071Y-13962500D01*
X18991071Y-14033929D01*
X18976786Y-14091071D01*
X18962500Y-14119643D01*
X18948214Y-14133929D01*
X18919643Y-14148214D01*
X18891071Y-14148214D01*
X18862500Y-14133929D01*
X18848214Y-14119643D01*
X18833928Y-14091071D01*
X18819643Y-14033929D01*
X18819643Y-13962500D01*
X18833928Y-13905357D01*
X18848214Y-13876786D01*
X18862500Y-13862500D01*
X18891071Y-13848214D01*
X19133928Y-14148214D02*
X19191071Y-14148214D01*
X19219643Y-14133929D01*
X19233928Y-14119643D01*
X19262500Y-14076786D01*
X19276786Y-14019643D01*
X19276786Y-13905357D01*
X19262500Y-13876786D01*
X19248214Y-13862500D01*
X19219643Y-13848214D01*
X19162500Y-13848214D01*
X19133928Y-13862500D01*
X19119643Y-13876786D01*
X19105357Y-13905357D01*
X19105357Y-13976786D01*
X19119643Y-14005357D01*
X19133928Y-14019643D01*
X19162500Y-14033929D01*
X19219643Y-14033929D01*
X19248214Y-14019643D01*
X19262500Y-14005357D01*
X19276786Y-13976786D01*
X19633928Y-14148214D02*
X19633928Y-13848214D01*
X19762500Y-14148214D02*
X19762500Y-13991071D01*
X19748214Y-13962500D01*
X19719643Y-13948214D01*
X19676786Y-13948214D01*
X19648214Y-13962500D01*
X19633928Y-13976786D01*
X19948214Y-14148214D02*
X19919643Y-14133929D01*
X19905357Y-14119643D01*
X19891071Y-14091071D01*
X19891071Y-14005357D01*
X19905357Y-13976786D01*
X19919643Y-13962500D01*
X19948214Y-13948214D01*
X19991071Y-13948214D01*
X20019643Y-13962500D01*
X20033928Y-13976786D01*
X20048214Y-14005357D01*
X20048214Y-14091071D01*
X20033928Y-14119643D01*
X20019643Y-14133929D01*
X19991071Y-14148214D01*
X19948214Y-14148214D01*
X20219643Y-14148214D02*
X20191071Y-14133929D01*
X20176786Y-14105357D01*
X20176786Y-13848214D01*
X20448214Y-14133929D02*
X20419643Y-14148214D01*
X20362500Y-14148214D01*
X20333928Y-14133929D01*
X20319643Y-14105357D01*
X20319643Y-13991071D01*
X20333928Y-13962500D01*
X20362500Y-13948214D01*
X20419643Y-13948214D01*
X20448214Y-13962500D01*
X20462500Y-13991071D01*
X20462500Y-14019643D01*
X20319643Y-14048214D01*
X20576786Y-14133929D02*
X20605357Y-14148214D01*
X20662500Y-14148214D01*
X20691071Y-14133929D01*
X20705357Y-14105357D01*
X20705357Y-14091071D01*
X20691071Y-14062500D01*
X20662500Y-14048214D01*
X20619643Y-14048214D01*
X20591071Y-14033929D01*
X20576786Y-14005357D01*
X20576786Y-13991071D01*
X20591071Y-13962500D01*
X20619643Y-13948214D01*
X20662500Y-13948214D01*
X20691071Y-13962500D01*
X20805357Y-14262500D02*
X20819643Y-14248214D01*
X20848214Y-14205357D01*
X20862500Y-14176786D01*
X20876786Y-14133929D01*
X20891071Y-14062500D01*
X20891071Y-14005357D01*
X20876786Y-13933929D01*
X20862500Y-13891071D01*
X20848214Y-13862500D01*
X20819643Y-13819643D01*
X20805357Y-13805357D01*
X13747500Y-14408500D02*
G75*
G03X13747500Y-14408500I-37500J0D01*
G01*
X14091071Y-14244214D02*
X14119643Y-14244214D01*
X14148214Y-14258500D01*
X14162500Y-14272786D01*
X14176786Y-14301357D01*
X14191071Y-14358500D01*
X14191071Y-14429929D01*
X14176786Y-14487071D01*
X14162500Y-14515643D01*
X14148214Y-14529929D01*
X14119643Y-14544214D01*
X14091071Y-14544214D01*
X14062500Y-14529929D01*
X14048214Y-14515643D01*
X14033928Y-14487071D01*
X14019643Y-14429929D01*
X14019643Y-14358500D01*
X14033928Y-14301357D01*
X14048214Y-14272786D01*
X14062500Y-14258500D01*
X14091071Y-14244214D01*
X14319643Y-14515643D02*
X14333928Y-14529929D01*
X14319643Y-14544214D01*
X14305357Y-14529929D01*
X14319643Y-14515643D01*
X14319643Y-14544214D01*
X14433928Y-14244214D02*
X14633928Y-14244214D01*
X14505357Y-14544214D01*
X14891071Y-14244214D02*
X14748214Y-14244214D01*
X14733928Y-14387071D01*
X14748214Y-14372786D01*
X14776786Y-14358500D01*
X14848214Y-14358500D01*
X14876786Y-14372786D01*
X14891071Y-14387071D01*
X14905357Y-14415643D01*
X14905357Y-14487071D01*
X14891071Y-14515643D01*
X14876786Y-14529929D01*
X14848214Y-14544214D01*
X14776786Y-14544214D01*
X14748214Y-14529929D01*
X14733928Y-14515643D01*
X15033928Y-14544214D02*
X15033928Y-14344214D01*
X15033928Y-14372786D02*
X15048214Y-14358500D01*
X15076786Y-14344214D01*
X15119643Y-14344214D01*
X15148214Y-14358500D01*
X15162500Y-14387071D01*
X15162500Y-14544214D01*
X15162500Y-14387071D02*
X15176786Y-14358500D01*
X15205357Y-14344214D01*
X15248214Y-14344214D01*
X15276786Y-14358500D01*
X15291071Y-14387071D01*
X15291071Y-14544214D01*
X15433928Y-14544214D02*
X15433928Y-14344214D01*
X15433928Y-14372786D02*
X15448214Y-14358500D01*
X15476786Y-14344214D01*
X15519643Y-14344214D01*
X15548214Y-14358500D01*
X15562500Y-14387071D01*
X15562500Y-14544214D01*
X15562500Y-14387071D02*
X15576786Y-14358500D01*
X15605357Y-14344214D01*
X15648214Y-14344214D01*
X15676786Y-14358500D01*
X15691071Y-14387071D01*
X15691071Y-14544214D01*
X16276786Y-14229929D02*
X16019643Y-14615643D01*
X16662500Y-14244214D02*
X16691071Y-14244214D01*
X16719643Y-14258500D01*
X16733928Y-14272786D01*
X16748214Y-14301357D01*
X16762500Y-14358500D01*
X16762500Y-14429929D01*
X16748214Y-14487071D01*
X16733928Y-14515643D01*
X16719643Y-14529929D01*
X16691071Y-14544214D01*
X16662500Y-14544214D01*
X16633928Y-14529929D01*
X16619643Y-14515643D01*
X16605357Y-14487071D01*
X16591071Y-14429929D01*
X16591071Y-14358500D01*
X16605357Y-14301357D01*
X16619643Y-14272786D01*
X16633928Y-14258500D01*
X16662500Y-14244214D01*
X16891071Y-14515643D02*
X16905357Y-14529929D01*
X16891071Y-14544214D01*
X16876786Y-14529929D01*
X16891071Y-14515643D01*
X16891071Y-14544214D01*
X17091071Y-14244214D02*
X17119643Y-14244214D01*
X17148214Y-14258500D01*
X17162500Y-14272786D01*
X17176786Y-14301357D01*
X17191071Y-14358500D01*
X17191071Y-14429929D01*
X17176786Y-14487071D01*
X17162500Y-14515643D01*
X17148214Y-14529929D01*
X17119643Y-14544214D01*
X17091071Y-14544214D01*
X17062500Y-14529929D01*
X17048214Y-14515643D01*
X17033928Y-14487071D01*
X17019643Y-14429929D01*
X17019643Y-14358500D01*
X17033928Y-14301357D01*
X17048214Y-14272786D01*
X17062500Y-14258500D01*
X17091071Y-14244214D01*
X17291071Y-14244214D02*
X17476786Y-14244214D01*
X17376786Y-14358500D01*
X17419643Y-14358500D01*
X17448214Y-14372786D01*
X17462500Y-14387071D01*
X17476786Y-14415643D01*
X17476786Y-14487071D01*
X17462500Y-14515643D01*
X17448214Y-14529929D01*
X17419643Y-14544214D01*
X17333928Y-14544214D01*
X17305357Y-14529929D01*
X17291071Y-14515643D01*
X17662500Y-14244214D02*
X17691071Y-14244214D01*
X17719643Y-14258500D01*
X17733928Y-14272786D01*
X17748214Y-14301357D01*
X17762500Y-14358500D01*
X17762500Y-14429929D01*
X17748214Y-14487071D01*
X17733928Y-14515643D01*
X17719643Y-14529929D01*
X17691071Y-14544214D01*
X17662500Y-14544214D01*
X17633928Y-14529929D01*
X17619643Y-14515643D01*
X17605357Y-14487071D01*
X17591071Y-14429929D01*
X17591071Y-14358500D01*
X17605357Y-14301357D01*
X17619643Y-14272786D01*
X17633928Y-14258500D01*
X17662500Y-14244214D01*
X17876786Y-14244214D02*
X17876786Y-14301357D01*
X17991071Y-14244214D02*
X17991071Y-14301357D01*
X18433928Y-14658500D02*
X18419643Y-14644214D01*
X18391071Y-14601357D01*
X18376786Y-14572786D01*
X18362500Y-14529929D01*
X18348214Y-14458500D01*
X18348214Y-14401357D01*
X18362500Y-14329929D01*
X18376786Y-14287071D01*
X18391071Y-14258500D01*
X18419643Y-14215643D01*
X18433928Y-14201357D01*
X18605357Y-14244214D02*
X18633928Y-14244214D01*
X18662500Y-14258500D01*
X18676786Y-14272786D01*
X18691071Y-14301357D01*
X18705357Y-14358500D01*
X18705357Y-14429929D01*
X18691071Y-14487071D01*
X18676786Y-14515643D01*
X18662500Y-14529929D01*
X18633928Y-14544214D01*
X18605357Y-14544214D01*
X18576786Y-14529929D01*
X18562500Y-14515643D01*
X18548214Y-14487071D01*
X18533928Y-14429929D01*
X18533928Y-14358500D01*
X18548214Y-14301357D01*
X18562500Y-14272786D01*
X18576786Y-14258500D01*
X18605357Y-14244214D01*
X19062500Y-14544214D02*
X19062500Y-14244214D01*
X19191071Y-14544214D02*
X19191071Y-14387071D01*
X19176786Y-14358500D01*
X19148214Y-14344214D01*
X19105357Y-14344214D01*
X19076786Y-14358500D01*
X19062500Y-14372786D01*
X19376786Y-14544214D02*
X19348214Y-14529929D01*
X19333928Y-14515643D01*
X19319643Y-14487071D01*
X19319643Y-14401357D01*
X19333928Y-14372786D01*
X19348214Y-14358500D01*
X19376786Y-14344214D01*
X19419643Y-14344214D01*
X19448214Y-14358500D01*
X19462500Y-14372786D01*
X19476786Y-14401357D01*
X19476786Y-14487071D01*
X19462500Y-14515643D01*
X19448214Y-14529929D01*
X19419643Y-14544214D01*
X19376786Y-14544214D01*
X19648214Y-14544214D02*
X19619643Y-14529929D01*
X19605357Y-14501357D01*
X19605357Y-14244214D01*
X19876786Y-14529929D02*
X19848214Y-14544214D01*
X19791071Y-14544214D01*
X19762500Y-14529929D01*
X19748214Y-14501357D01*
X19748214Y-14387071D01*
X19762500Y-14358500D01*
X19791071Y-14344214D01*
X19848214Y-14344214D01*
X19876786Y-14358500D01*
X19891071Y-14387071D01*
X19891071Y-14415643D01*
X19748214Y-14444214D01*
X20005357Y-14529929D02*
X20033928Y-14544214D01*
X20091071Y-14544214D01*
X20119643Y-14529929D01*
X20133928Y-14501357D01*
X20133928Y-14487071D01*
X20119643Y-14458500D01*
X20091071Y-14444214D01*
X20048214Y-14444214D01*
X20019643Y-14429929D01*
X20005357Y-14401357D01*
X20005357Y-14387071D01*
X20019643Y-14358500D01*
X20048214Y-14344214D01*
X20091071Y-14344214D01*
X20119643Y-14358500D01*
X20491071Y-14429929D02*
X20719643Y-14429929D01*
X20605357Y-14544214D02*
X20605357Y-14315643D01*
X21076786Y-14272786D02*
X21091071Y-14258500D01*
X21119643Y-14244214D01*
X21191071Y-14244214D01*
X21219643Y-14258500D01*
X21233928Y-14272786D01*
X21248214Y-14301357D01*
X21248214Y-14329929D01*
X21233928Y-14372786D01*
X21062500Y-14544214D01*
X21248214Y-14544214D01*
X21591071Y-14529929D02*
X21619643Y-14544214D01*
X21676786Y-14544214D01*
X21705357Y-14529929D01*
X21719643Y-14501357D01*
X21719643Y-14487071D01*
X21705357Y-14458500D01*
X21676786Y-14444214D01*
X21633928Y-14444214D01*
X21605357Y-14429929D01*
X21591071Y-14401357D01*
X21591071Y-14387071D01*
X21605357Y-14358500D01*
X21633928Y-14344214D01*
X21676786Y-14344214D01*
X21705357Y-14358500D01*
X21891071Y-14544214D02*
X21862500Y-14529929D01*
X21848214Y-14501357D01*
X21848214Y-14244214D01*
X22048214Y-14544214D02*
X22019643Y-14529929D01*
X22005357Y-14515643D01*
X21991071Y-14487071D01*
X21991071Y-14401357D01*
X22005357Y-14372786D01*
X22019643Y-14358500D01*
X22048214Y-14344214D01*
X22091071Y-14344214D01*
X22119643Y-14358500D01*
X22133928Y-14372786D01*
X22148214Y-14401357D01*
X22148214Y-14487071D01*
X22133928Y-14515643D01*
X22119643Y-14529929D01*
X22091071Y-14544214D01*
X22048214Y-14544214D01*
X22233928Y-14344214D02*
X22348214Y-14344214D01*
X22276786Y-14244214D02*
X22276786Y-14501357D01*
X22291071Y-14529929D01*
X22319643Y-14544214D01*
X22348214Y-14544214D01*
X22433928Y-14529929D02*
X22462500Y-14544214D01*
X22519643Y-14544214D01*
X22548214Y-14529929D01*
X22562500Y-14501357D01*
X22562500Y-14487071D01*
X22548214Y-14458500D01*
X22519643Y-14444214D01*
X22476786Y-14444214D01*
X22448214Y-14429929D01*
X22433928Y-14401357D01*
X22433928Y-14387071D01*
X22448214Y-14358500D01*
X22476786Y-14344214D01*
X22519643Y-14344214D01*
X22548214Y-14358500D01*
X22662500Y-14658500D02*
X22676786Y-14644214D01*
X22705357Y-14601357D01*
X22719643Y-14572786D01*
X22733928Y-14529929D01*
X22748214Y-14458500D01*
X22748214Y-14401357D01*
X22733928Y-14329929D01*
X22719643Y-14287071D01*
X22705357Y-14258500D01*
X22676786Y-14215643D01*
X22662500Y-14201357D01*
M02*
