%TF.GenerationSoftware,KiCad,Pcbnew,5.1.5+dfsg1-2~bpo10+1*%
%TF.CreationDate,Date%
%TF.ProjectId,osw,6f73772e-6b69-4636-9164-5f7063625858,1.0*%
%TF.SameCoordinates,Original*%
%TF.FileFunction,Legend,Bot*%
%TF.FilePolarity,Positive*%
%FSLAX46Y46*%
G04 Gerber Fmt 4.6, Leading zero omitted, Abs format (unit mm)*
G04 Created by KiCad*
%MOMM*%
%LPD*%
G04 APERTURE LIST*
%ADD10C,0.150000*%
%ADD11C,0.100000*%
G04 APERTURE END LIST*
D10*
%TO.C,U4*%
X149380000Y-103520000D02*
X151980000Y-103520000D01*
X142330000Y-114920000D02*
X151930000Y-114920000D01*
X148580000Y-113920000D02*
G75*
G03X148580000Y-113920000I-500000J0D01*
G01*
X148580000Y-103920000D02*
G75*
G03X148580000Y-103920000I-500000J0D01*
G01*
X152330000Y-114520000D02*
X152330000Y-113520000D01*
X142330000Y-102720000D02*
X148580000Y-102720000D01*
X141930000Y-103120000D02*
X141930000Y-114520000D01*
X152330000Y-104920000D02*
X152330000Y-103920000D01*
X141930000Y-103120000D02*
G75*
G02X142330000Y-102720000I400000J0D01*
G01*
X142330000Y-114920000D02*
G75*
G02X141930000Y-114520000I0J400000D01*
G01*
X148580000Y-102720000D02*
G75*
G02X148980000Y-103120000I0J-400000D01*
G01*
X149380000Y-103520000D02*
G75*
G02X148980000Y-103120000I0J400000D01*
G01*
X152330000Y-114520000D02*
G75*
G02X151930000Y-114920000I-400000J0D01*
G01*
X151930000Y-103520000D02*
G75*
G02X152330000Y-103920000I0J-400000D01*
G01*
%TD*%
%TO.C,U4*%
D11*
X145406190Y-108839047D02*
X145810952Y-108839047D01*
X145858571Y-108862857D01*
X145882380Y-108886666D01*
X145906190Y-108934285D01*
X145906190Y-109029523D01*
X145882380Y-109077142D01*
X145858571Y-109100952D01*
X145810952Y-109124761D01*
X145406190Y-109124761D01*
X145572857Y-109577142D02*
X145906190Y-109577142D01*
X145382380Y-109458095D02*
X145739523Y-109339047D01*
X145739523Y-109648571D01*
X149406190Y-112474761D02*
X149406190Y-112189047D01*
X149406190Y-112331904D02*
X148906190Y-112331904D01*
X148977619Y-112284285D01*
X149025238Y-112236666D01*
X149049047Y-112189047D01*
X148953809Y-112665238D02*
X148930000Y-112689047D01*
X148906190Y-112736666D01*
X148906190Y-112855714D01*
X148930000Y-112903333D01*
X148953809Y-112927142D01*
X149001428Y-112950952D01*
X149049047Y-112950952D01*
X149120476Y-112927142D01*
X149406190Y-112641428D01*
X149406190Y-112950952D01*
X149356190Y-105512857D02*
X149356190Y-105227142D01*
X149356190Y-105370000D02*
X148856190Y-105370000D01*
X148927619Y-105322380D01*
X148975238Y-105274761D01*
X148999047Y-105227142D01*
%TD*%
M02*
