%TF.GenerationSoftware,KiCad,Pcbnew,5.1.5+dfsg1-2~bpo10+1*%
%TF.CreationDate,Date%
%TF.ProjectId,osw,6f73772e-6b69-4636-9164-5f7063625858,1.0*%
%TF.SameCoordinates,Original*%
%TF.FileFunction,Legend,Bot*%
%TF.FilePolarity,Positive*%
%FSLAX46Y46*%
G04 Gerber Fmt 4.6, Leading zero omitted, Abs format (unit mm)*
G04 Created by KiCad*
%MOMM*%
%LPD*%
G04 APERTURE LIST*
%ADD10C,0.150000*%
%ADD11C,0.100000*%
G04 APERTURE END LIST*
D10*
%TO.C,U4*%
X149380000Y-114920000D02*
X151980000Y-114920000D01*
X142330000Y-103520000D02*
X151930000Y-103520000D01*
X148580000Y-104520000D02*
G75*
G03X148580000Y-104520000I-500000J0D01*
G01*
X148580000Y-114520000D02*
G75*
G03X148580000Y-114520000I-500000J0D01*
G01*
X152330000Y-103920000D02*
X152330000Y-104920000D01*
X142330000Y-115720000D02*
X148580000Y-115720000D01*
X141930000Y-115320000D02*
X141930000Y-103920000D01*
X152330000Y-113520000D02*
X152330000Y-114520000D01*
X141930000Y-115320000D02*
G75*
G03X142330000Y-115720000I400000J0D01*
G01*
X142330000Y-103520000D02*
G75*
G03X141930000Y-103920000I0J-400000D01*
G01*
X148580000Y-115720000D02*
G75*
G03X148980000Y-115320000I0J400000D01*
G01*
X149380000Y-114920000D02*
G75*
G03X148980000Y-115320000I0J-400000D01*
G01*
X152330000Y-103920000D02*
G75*
G03X151930000Y-103520000I-400000J0D01*
G01*
X151930000Y-114920000D02*
G75*
G03X152330000Y-114520000I0J400000D01*
G01*
%TD*%
%TO.C,J1*%
D11*
X140166666Y-124556190D02*
X140166666Y-124913333D01*
X140190476Y-124984761D01*
X140238095Y-125032380D01*
X140309523Y-125056190D01*
X140357142Y-125056190D01*
X139666666Y-125056190D02*
X139952380Y-125056190D01*
X139809523Y-125056190D02*
X139809523Y-124556190D01*
X139857142Y-124627619D01*
X139904761Y-124675238D01*
X139952380Y-124699047D01*
%TO.C,U4*%
X145406190Y-108839047D02*
X145810952Y-108839047D01*
X145858571Y-108862857D01*
X145882380Y-108886666D01*
X145906190Y-108934285D01*
X145906190Y-109029523D01*
X145882380Y-109077142D01*
X145858571Y-109100952D01*
X145810952Y-109124761D01*
X145406190Y-109124761D01*
X145572857Y-109577142D02*
X145906190Y-109577142D01*
X145382380Y-109458095D02*
X145739523Y-109339047D01*
X145739523Y-109648571D01*
X149406190Y-105774761D02*
X149406190Y-105489047D01*
X149406190Y-105631904D02*
X148906190Y-105631904D01*
X148977619Y-105584285D01*
X149025238Y-105536666D01*
X149049047Y-105489047D01*
X148953809Y-105965238D02*
X148930000Y-105989047D01*
X148906190Y-106036666D01*
X148906190Y-106155714D01*
X148930000Y-106203333D01*
X148953809Y-106227142D01*
X149001428Y-106250952D01*
X149049047Y-106250952D01*
X149120476Y-106227142D01*
X149406190Y-105941428D01*
X149406190Y-106250952D01*
X149356190Y-113212857D02*
X149356190Y-112927142D01*
X149356190Y-113070000D02*
X148856190Y-113070000D01*
X148927619Y-113022380D01*
X148975238Y-112974761D01*
X148999047Y-112927142D01*
%TD*%
M02*
