%TF.GenerationSoftware,KiCad,Pcbnew,5.1.7+dfsg1-1~bpo10+1*%
%TF.CreationDate,Date%
%TF.ProjectId,osw-light,6f73772d-6c69-4676-9874-2e6b69636164,3.3*%
%TF.SameCoordinates,Original*%
%TF.FileFunction,Other,User*%
%FSLAX46Y46*%
G04 Gerber Fmt 4.6, Leading zero omitted, Abs format (unit mm)*
G04 Created by KiCad*
%MOMM*%
%LPD*%
G01*
G04 APERTURE LIST*
%ADD10C,0.050000*%
G04 APERTURE END LIST*
D10*
%TO.C,J1*%
X58842500Y-104902000D02*
X62442500Y-104902000D01*
X58842500Y-99441000D02*
X58842500Y-104902000D01*
X62442500Y-99441000D02*
X58842500Y-99441000D01*
X62442500Y-104902000D02*
X62442500Y-99441000D01*
%TO.C,R1*%
X63671000Y-95790000D02*
X66631000Y-95790000D01*
X63671000Y-97250000D02*
X63671000Y-95790000D01*
X66631000Y-97250000D02*
X63671000Y-97250000D01*
X66631000Y-95790000D02*
X66631000Y-97250000D01*
%TO.C,U2*%
X82911000Y-90380500D02*
X82911000Y-92880500D01*
X80411000Y-90380500D02*
X82911000Y-90380500D01*
X80411000Y-92880500D02*
X80411000Y-90380500D01*
X82911000Y-92880500D02*
X80411000Y-92880500D01*
%TO.C,U5*%
X80581500Y-113982500D02*
X71818500Y-113982500D01*
X80581500Y-120459500D02*
X80581500Y-113982500D01*
X71818500Y-120459500D02*
X80581500Y-120465500D01*
X71818500Y-113982500D02*
X71818500Y-120459500D01*
%TO.C,R18*%
X70834500Y-87737500D02*
X72294500Y-87737500D01*
X72294500Y-87737500D02*
X72294500Y-90697500D01*
X72294500Y-90697500D02*
X70834500Y-90697500D01*
X70834500Y-90697500D02*
X70834500Y-87737500D01*
%TO.C,C11*%
X72294500Y-87586000D02*
X70834500Y-87586000D01*
X70834500Y-87586000D02*
X70834500Y-84626000D01*
X70834500Y-84626000D02*
X72294500Y-84626000D01*
X72294500Y-84626000D02*
X72294500Y-87586000D01*
%TO.C,C22*%
X66631000Y-97377500D02*
X66631000Y-98837500D01*
X66631000Y-98837500D02*
X63671000Y-98837500D01*
X63671000Y-98837500D02*
X63671000Y-97377500D01*
X63671000Y-97377500D02*
X66631000Y-97377500D01*
%TO.C,U13*%
X70583200Y-97404000D02*
X66983200Y-97404000D01*
X70583200Y-93604000D02*
X70583200Y-97404000D01*
X66983200Y-93604000D02*
X70583200Y-93604000D01*
X66983200Y-97404000D02*
X66983200Y-93604000D01*
%TO.C,U10*%
X75206000Y-97404000D02*
X71606000Y-97404000D01*
X75206000Y-93604000D02*
X75206000Y-97404000D01*
X71606000Y-93604000D02*
X75206000Y-93604000D01*
X71606000Y-97404000D02*
X71606000Y-93604000D01*
%TO.C,R22*%
X60305500Y-95091500D02*
X63265500Y-95091500D01*
X60305500Y-96551500D02*
X60305500Y-95091500D01*
X63265500Y-96551500D02*
X60305500Y-96551500D01*
X63265500Y-95091500D02*
X63265500Y-96551500D01*
%TO.C,R21*%
X63265500Y-94900500D02*
X60305500Y-94900500D01*
X63265500Y-93440500D02*
X63265500Y-94900500D01*
X60305500Y-93440500D02*
X63265500Y-93440500D01*
X60305500Y-94900500D02*
X60305500Y-93440500D01*
%TO.C,C19*%
X70669500Y-91916000D02*
X67709500Y-91916000D01*
X70669500Y-90456000D02*
X70669500Y-91916000D01*
X67709500Y-90456000D02*
X70669500Y-90456000D01*
X67709500Y-91916000D02*
X67709500Y-90456000D01*
%TO.C,C18*%
X75368600Y-91916000D02*
X72408600Y-91916000D01*
X75368600Y-90456000D02*
X75368600Y-91916000D01*
X72408600Y-90456000D02*
X75368600Y-90456000D01*
X72408600Y-91916000D02*
X72408600Y-90456000D01*
%TO.C,C17*%
X70669500Y-93503500D02*
X67709500Y-93503500D01*
X70669500Y-92043500D02*
X70669500Y-93503500D01*
X67709500Y-92043500D02*
X70669500Y-92043500D01*
X67709500Y-93503500D02*
X67709500Y-92043500D01*
%TO.C,C16*%
X75368600Y-93503500D02*
X72408600Y-93503500D01*
X75368600Y-92043500D02*
X75368600Y-93503500D01*
X72408600Y-92043500D02*
X75368600Y-92043500D01*
X72408600Y-93503500D02*
X72408600Y-92043500D01*
%TO.C,C15*%
X70568000Y-98977200D02*
X67608000Y-98977200D01*
X70568000Y-97517200D02*
X70568000Y-98977200D01*
X67608000Y-97517200D02*
X70568000Y-97517200D01*
X67608000Y-98977200D02*
X67608000Y-97517200D01*
%TO.C,C14*%
X75190800Y-98977200D02*
X72230800Y-98977200D01*
X75190800Y-97517200D02*
X75190800Y-98977200D01*
X72230800Y-97517200D02*
X75190800Y-97517200D01*
X72230800Y-98977200D02*
X72230800Y-97517200D01*
%TO.C,C6*%
X70555200Y-101297600D02*
X65995200Y-101297600D01*
X70555200Y-99057600D02*
X70555200Y-101297600D01*
X65995200Y-99057600D02*
X70555200Y-99057600D01*
X65995200Y-101297600D02*
X65995200Y-99057600D01*
%TO.C,C5*%
X75200400Y-101297600D02*
X70640400Y-101297600D01*
X75200400Y-99057600D02*
X75200400Y-101297600D01*
X70640400Y-99057600D02*
X75200400Y-99057600D01*
X70640400Y-101297600D02*
X70640400Y-99057600D01*
%TO.C,U9*%
X67473200Y-106550400D02*
X75173200Y-106550400D01*
X67473200Y-103050400D02*
X67473200Y-106550400D01*
X75173200Y-103050400D02*
X67473200Y-103050400D01*
X75173200Y-106550400D02*
X75173200Y-103050400D01*
%TO.C,R19*%
X72243500Y-102901500D02*
X72243500Y-101441500D01*
X72243500Y-101441500D02*
X75203500Y-101441500D01*
X75203500Y-101441500D02*
X75203500Y-102901500D01*
X75203500Y-102901500D02*
X72243500Y-102901500D01*
%TO.C,C13*%
X79077000Y-90456000D02*
X79077000Y-91916000D01*
X79077000Y-91916000D02*
X76117000Y-91916000D01*
X76117000Y-91916000D02*
X76117000Y-90456000D01*
X76117000Y-90456000D02*
X79077000Y-90456000D01*
%TO.C,C9*%
X84829200Y-112490000D02*
X84829200Y-111030000D01*
X84829200Y-111030000D02*
X87789200Y-111030000D01*
X87789200Y-111030000D02*
X87789200Y-112490000D01*
X87789200Y-112490000D02*
X84829200Y-112490000D01*
%TO.C,C8*%
X90506900Y-92488000D02*
X90506900Y-93948000D01*
X90506900Y-93948000D02*
X87546900Y-93948000D01*
X87546900Y-93948000D02*
X87546900Y-92488000D01*
X87546900Y-92488000D02*
X90506900Y-92488000D01*
%TO.C,R17*%
X64827600Y-109201200D02*
X64827600Y-110661200D01*
X64827600Y-110661200D02*
X61867600Y-110661200D01*
X61867600Y-110661200D02*
X61867600Y-109201200D01*
X61867600Y-109201200D02*
X64827600Y-109201200D01*
%TO.C,R16*%
X61867600Y-109086400D02*
X61867600Y-107626400D01*
X61867600Y-107626400D02*
X64827600Y-107626400D01*
X64827600Y-107626400D02*
X64827600Y-109086400D01*
X64827600Y-109086400D02*
X61867600Y-109086400D01*
%TO.C,R7*%
X87395500Y-92360500D02*
X84435500Y-92360500D01*
X87395500Y-90900500D02*
X87395500Y-92360500D01*
X84435500Y-90900500D02*
X87395500Y-90900500D01*
X84435500Y-92360500D02*
X84435500Y-90900500D01*
%TO.C,R6*%
X84435500Y-92488000D02*
X87395500Y-92488000D01*
X84435500Y-93948000D02*
X84435500Y-92488000D01*
X87395500Y-93948000D02*
X84435500Y-93948000D01*
X87395500Y-92488000D02*
X87395500Y-93948000D01*
%TO.C,U1*%
X79836500Y-83964800D02*
X72436500Y-83964800D01*
X79836500Y-89364800D02*
X79836500Y-83964800D01*
X72436500Y-89364800D02*
X79836500Y-89364800D01*
X72436500Y-83964800D02*
X72436500Y-89364800D01*
%TO.C,U6*%
X78333200Y-113762400D02*
X84633200Y-113762400D01*
X78333200Y-110062400D02*
X84633200Y-110062400D01*
X84633200Y-110062400D02*
X84633200Y-113762400D01*
X78333200Y-110062400D02*
X78333200Y-113762400D01*
%TO.C,U11*%
X69624800Y-108336000D02*
X73224800Y-108336000D01*
X69624800Y-112136000D02*
X69624800Y-108336000D01*
X73224800Y-112136000D02*
X69624800Y-112136000D01*
X73224800Y-108336000D02*
X73224800Y-112136000D01*
%TO.C,R11*%
X90506900Y-92373200D02*
X87546900Y-92373200D01*
X90506900Y-90913200D02*
X90506900Y-92373200D01*
X87546900Y-90913200D02*
X90506900Y-90913200D01*
X87546900Y-92373200D02*
X87546900Y-90913200D01*
%TO.C,R10*%
X62337500Y-90519500D02*
X65297500Y-90519500D01*
X62337500Y-91979500D02*
X62337500Y-90519500D01*
X65297500Y-91979500D02*
X62337500Y-91979500D01*
X65297500Y-90519500D02*
X65297500Y-91979500D01*
%TO.C,R14*%
X69132000Y-101428800D02*
X72092000Y-101428800D01*
X69132000Y-102888800D02*
X69132000Y-101428800D01*
X72092000Y-102888800D02*
X69132000Y-102888800D01*
X72092000Y-101428800D02*
X72092000Y-102888800D01*
%TO.C,R4*%
X87789200Y-110839000D02*
X84829200Y-110839000D01*
X87789200Y-109379000D02*
X87789200Y-110839000D01*
X84829200Y-109379000D02*
X87789200Y-109379000D01*
X84829200Y-110839000D02*
X84829200Y-109379000D01*
%TO.C,R15*%
X66045900Y-106712000D02*
X69005900Y-106712000D01*
X66045900Y-108172000D02*
X66045900Y-106712000D01*
X69005900Y-108172000D02*
X66045900Y-108172000D01*
X69005900Y-106712000D02*
X69005900Y-108172000D01*
%TO.C,R13*%
X69044000Y-112236000D02*
X66084000Y-112236000D01*
X69044000Y-110776000D02*
X69044000Y-112236000D01*
X66084000Y-110776000D02*
X69044000Y-110776000D01*
X66084000Y-112236000D02*
X66084000Y-110776000D01*
%TO.C,Q1*%
X63451000Y-95666500D02*
X63451000Y-92166500D01*
X66851000Y-95666500D02*
X63451000Y-95666500D01*
X66851000Y-92166500D02*
X66851000Y-95666500D01*
X63451000Y-92166500D02*
X66851000Y-92166500D01*
%TO.C,D1*%
X69447200Y-110474800D02*
X66087200Y-110474800D01*
X69447200Y-108574800D02*
X69447200Y-110474800D01*
X66087200Y-108574800D02*
X69447200Y-108574800D01*
X66087200Y-110474800D02*
X66087200Y-108574800D01*
%TO.C,C4*%
X65881000Y-100691500D02*
X65881000Y-103651500D01*
X64421000Y-100691500D02*
X65881000Y-100691500D01*
X64421000Y-103651500D02*
X64421000Y-100691500D01*
X65881000Y-103651500D02*
X64421000Y-103651500D01*
%TO.C,C3*%
X75203400Y-108172000D02*
X72243400Y-108172000D01*
X75203400Y-106712000D02*
X75203400Y-108172000D01*
X72243400Y-106712000D02*
X75203400Y-106712000D01*
X72243400Y-108172000D02*
X72243400Y-106712000D01*
%TO.C,C2*%
X72117400Y-108172000D02*
X69157400Y-108172000D01*
X72117400Y-106712000D02*
X72117400Y-108172000D01*
X69157400Y-106712000D02*
X72117400Y-106712000D01*
X69157400Y-108172000D02*
X69157400Y-106712000D01*
%TO.C,C1*%
X72117300Y-113709200D02*
X69157300Y-113709200D01*
X72117300Y-112249200D02*
X72117300Y-113709200D01*
X69157300Y-112249200D02*
X72117300Y-112249200D01*
X69157300Y-113709200D02*
X69157300Y-112249200D01*
%TO.C,R9*%
X61842100Y-110776000D02*
X64802100Y-110776000D01*
X61842100Y-112236000D02*
X61842100Y-110776000D01*
X64802100Y-112236000D02*
X61842100Y-112236000D01*
X64802100Y-110776000D02*
X64802100Y-112236000D01*
%TO.C,R8*%
X88029600Y-109353600D02*
X90989600Y-109353600D01*
X88029600Y-110813600D02*
X88029600Y-109353600D01*
X90989600Y-110813600D02*
X88029600Y-110813600D01*
X90989600Y-109353600D02*
X90989600Y-110813600D01*
%TD*%
M02*
