%TF.GenerationSoftware,KiCad,Pcbnew,5.1.7+dfsg1-1~bpo10+1*%
%TF.CreationDate,Date%
%TF.ProjectId,osw-light,6f73772d-6c69-4676-9874-2e6b69636164,3.3*%
%TF.SameCoordinates,Original*%
%TF.FileFunction,Soldermask,Bot*%
%TF.FilePolarity,Negative*%
%FSLAX46Y46*%
G04 Gerber Fmt 4.6, Leading zero omitted, Abs format (unit mm)*
G04 Created by KiCad*
%MOMM*%
%LPD*%
G01*
G04 APERTURE LIST*
%ADD10O,1.100000X1.100000*%
%ADD11O,1.600000X2.100000*%
G04 APERTURE END LIST*
%TO.C,SW5*%
G36*
G01*
X65133485Y-113622615D02*
X66139891Y-114276183D01*
G75*
G02*
X66154886Y-114346730I-27776J-42771D01*
G01*
X65501318Y-115353136D01*
G75*
G02*
X65430771Y-115368131I-42771J27776D01*
G01*
X64424365Y-114714563D01*
G75*
G02*
X64409370Y-114644016I27776J42771D01*
G01*
X65062938Y-113637610D01*
G75*
G02*
X65133485Y-113622615I42771J-27776D01*
G01*
G37*
G36*
G01*
X68967887Y-116112705D02*
X69974293Y-116766273D01*
G75*
G02*
X69989288Y-116836820I-27776J-42771D01*
G01*
X69335720Y-117843226D01*
G75*
G02*
X69265173Y-117858221I-42771J27776D01*
G01*
X68258767Y-117204653D01*
G75*
G02*
X68243772Y-117134106I27776J42771D01*
G01*
X68897340Y-116127700D01*
G75*
G02*
X68967887Y-116112705I42771J-27776D01*
G01*
G37*
%TD*%
%TO.C,SW1*%
G36*
G01*
X69974293Y-86433727D02*
X68967887Y-87087295D01*
G75*
G02*
X68897340Y-87072300I-27776J42771D01*
G01*
X68243772Y-86065894D01*
G75*
G02*
X68258767Y-85995347I42771J27776D01*
G01*
X69265173Y-85341779D01*
G75*
G02*
X69335720Y-85356774I27776J-42771D01*
G01*
X69989288Y-86363180D01*
G75*
G02*
X69974293Y-86433727I-42771J-27776D01*
G01*
G37*
G36*
G01*
X66139891Y-88923817D02*
X65133485Y-89577385D01*
G75*
G02*
X65062938Y-89562390I-27776J42771D01*
G01*
X64409370Y-88555984D01*
G75*
G02*
X64424365Y-88485437I42771J27776D01*
G01*
X65430771Y-87831869D01*
G75*
G02*
X65501318Y-87846864I27776J-42771D01*
G01*
X66154886Y-88853270D01*
G75*
G02*
X66139891Y-88923817I-42771J-27776D01*
G01*
G37*
%TD*%
%TO.C,SW2*%
G36*
G01*
X87266515Y-89577385D02*
X86260109Y-88923817D01*
G75*
G02*
X86245114Y-88853270I27776J42771D01*
G01*
X86898682Y-87846864D01*
G75*
G02*
X86969229Y-87831869I42771J-27776D01*
G01*
X87975635Y-88485437D01*
G75*
G02*
X87990630Y-88555984I-27776J-42771D01*
G01*
X87337062Y-89562390D01*
G75*
G02*
X87266515Y-89577385I-42771J27776D01*
G01*
G37*
G36*
G01*
X83432113Y-87087295D02*
X82425707Y-86433727D01*
G75*
G02*
X82410712Y-86363180I27776J42771D01*
G01*
X83064280Y-85356774D01*
G75*
G02*
X83134827Y-85341779I42771J-27776D01*
G01*
X84141233Y-85995347D01*
G75*
G02*
X84156228Y-86065894I-27776J-42771D01*
G01*
X83502660Y-87072300D01*
G75*
G02*
X83432113Y-87087295I-42771J27776D01*
G01*
G37*
%TD*%
%TO.C,SW4*%
G36*
G01*
X82425707Y-116766273D02*
X83432113Y-116112705D01*
G75*
G02*
X83502660Y-116127700I27776J-42771D01*
G01*
X84156228Y-117134106D01*
G75*
G02*
X84141233Y-117204653I-42771J-27776D01*
G01*
X83134827Y-117858221D01*
G75*
G02*
X83064280Y-117843226I-27776J42771D01*
G01*
X82410712Y-116836820D01*
G75*
G02*
X82425707Y-116766273I42771J27776D01*
G01*
G37*
G36*
G01*
X86260109Y-114276183D02*
X87266515Y-113622615D01*
G75*
G02*
X87337062Y-113637610I27776J-42771D01*
G01*
X87990630Y-114644016D01*
G75*
G02*
X87975635Y-114714563I-42771J-27776D01*
G01*
X86969229Y-115368131D01*
G75*
G02*
X86898682Y-115353136I-27776J42771D01*
G01*
X86245114Y-114346730D01*
G75*
G02*
X86260109Y-114276183I42771J27776D01*
G01*
G37*
%TD*%
D10*
%TO.C,U5*%
X78486000Y-115570000D03*
X73914000Y-115570000D03*
D11*
X79248000Y-117792500D03*
X73152000Y-117792500D03*
%TD*%
%TO.C,U4*%
G36*
G01*
X64278000Y-101151000D02*
X66778000Y-101151000D01*
G75*
G02*
X66829000Y-101202000I0J-51000D01*
G01*
X66829000Y-101552000D01*
G75*
G02*
X66778000Y-101603000I-51000J0D01*
G01*
X64278000Y-101603000D01*
G75*
G02*
X64227000Y-101552000I0J51000D01*
G01*
X64227000Y-101202000D01*
G75*
G02*
X64278000Y-101151000I51000J0D01*
G01*
G37*
G36*
G01*
X64278000Y-100451000D02*
X66778000Y-100451000D01*
G75*
G02*
X66829000Y-100502000I0J-51000D01*
G01*
X66829000Y-100852000D01*
G75*
G02*
X66778000Y-100903000I-51000J0D01*
G01*
X64278000Y-100903000D01*
G75*
G02*
X64227000Y-100852000I0J51000D01*
G01*
X64227000Y-100502000D01*
G75*
G02*
X64278000Y-100451000I51000J0D01*
G01*
G37*
G36*
G01*
X64278000Y-99751000D02*
X66778000Y-99751000D01*
G75*
G02*
X66829000Y-99802000I0J-51000D01*
G01*
X66829000Y-100152000D01*
G75*
G02*
X66778000Y-100203000I-51000J0D01*
G01*
X64278000Y-100203000D01*
G75*
G02*
X64227000Y-100152000I0J51000D01*
G01*
X64227000Y-99802000D01*
G75*
G02*
X64278000Y-99751000I51000J0D01*
G01*
G37*
G36*
G01*
X64278000Y-99051000D02*
X66778000Y-99051000D01*
G75*
G02*
X66829000Y-99102000I0J-51000D01*
G01*
X66829000Y-99452000D01*
G75*
G02*
X66778000Y-99503000I-51000J0D01*
G01*
X64278000Y-99503000D01*
G75*
G02*
X64227000Y-99452000I0J51000D01*
G01*
X64227000Y-99102000D01*
G75*
G02*
X64278000Y-99051000I51000J0D01*
G01*
G37*
G36*
G01*
X64278000Y-98351000D02*
X66778000Y-98351000D01*
G75*
G02*
X66829000Y-98402000I0J-51000D01*
G01*
X66829000Y-98752000D01*
G75*
G02*
X66778000Y-98803000I-51000J0D01*
G01*
X64278000Y-98803000D01*
G75*
G02*
X64227000Y-98752000I0J51000D01*
G01*
X64227000Y-98402000D01*
G75*
G02*
X64278000Y-98351000I51000J0D01*
G01*
G37*
G36*
G01*
X64278000Y-97651000D02*
X66778000Y-97651000D01*
G75*
G02*
X66829000Y-97702000I0J-51000D01*
G01*
X66829000Y-98052000D01*
G75*
G02*
X66778000Y-98103000I-51000J0D01*
G01*
X64278000Y-98103000D01*
G75*
G02*
X64227000Y-98052000I0J51000D01*
G01*
X64227000Y-97702000D01*
G75*
G02*
X64278000Y-97651000I51000J0D01*
G01*
G37*
G36*
G01*
X64278000Y-101851000D02*
X66778000Y-101851000D01*
G75*
G02*
X66829000Y-101902000I0J-51000D01*
G01*
X66829000Y-102252000D01*
G75*
G02*
X66778000Y-102303000I-51000J0D01*
G01*
X64278000Y-102303000D01*
G75*
G02*
X64227000Y-102252000I0J51000D01*
G01*
X64227000Y-101902000D01*
G75*
G02*
X64278000Y-101851000I51000J0D01*
G01*
G37*
G36*
G01*
X64278000Y-102551000D02*
X66778000Y-102551000D01*
G75*
G02*
X66829000Y-102602000I0J-51000D01*
G01*
X66829000Y-102952000D01*
G75*
G02*
X66778000Y-103003000I-51000J0D01*
G01*
X64278000Y-103003000D01*
G75*
G02*
X64227000Y-102952000I0J51000D01*
G01*
X64227000Y-102602000D01*
G75*
G02*
X64278000Y-102551000I51000J0D01*
G01*
G37*
G36*
G01*
X64278000Y-103251000D02*
X66778000Y-103251000D01*
G75*
G02*
X66829000Y-103302000I0J-51000D01*
G01*
X66829000Y-103652000D01*
G75*
G02*
X66778000Y-103703000I-51000J0D01*
G01*
X64278000Y-103703000D01*
G75*
G02*
X64227000Y-103652000I0J51000D01*
G01*
X64227000Y-103302000D01*
G75*
G02*
X64278000Y-103251000I51000J0D01*
G01*
G37*
G36*
G01*
X64278000Y-103951000D02*
X66778000Y-103951000D01*
G75*
G02*
X66829000Y-104002000I0J-51000D01*
G01*
X66829000Y-104352000D01*
G75*
G02*
X66778000Y-104403000I-51000J0D01*
G01*
X64278000Y-104403000D01*
G75*
G02*
X64227000Y-104352000I0J51000D01*
G01*
X64227000Y-104002000D01*
G75*
G02*
X64278000Y-103951000I51000J0D01*
G01*
G37*
G36*
G01*
X64278000Y-104651000D02*
X66778000Y-104651000D01*
G75*
G02*
X66829000Y-104702000I0J-51000D01*
G01*
X66829000Y-105052000D01*
G75*
G02*
X66778000Y-105103000I-51000J0D01*
G01*
X64278000Y-105103000D01*
G75*
G02*
X64227000Y-105052000I0J51000D01*
G01*
X64227000Y-104702000D01*
G75*
G02*
X64278000Y-104651000I51000J0D01*
G01*
G37*
G36*
G01*
X64278000Y-105351000D02*
X66778000Y-105351000D01*
G75*
G02*
X66829000Y-105402000I0J-51000D01*
G01*
X66829000Y-105752000D01*
G75*
G02*
X66778000Y-105803000I-51000J0D01*
G01*
X64278000Y-105803000D01*
G75*
G02*
X64227000Y-105752000I0J51000D01*
G01*
X64227000Y-105402000D01*
G75*
G02*
X64278000Y-105351000I51000J0D01*
G01*
G37*
%TD*%
M02*
