%TF.GenerationSoftware,KiCad,Pcbnew,5.1.5+dfsg1-2~bpo10+1*%
%TF.CreationDate,Date%
%TF.ProjectId,osw,6f73772e-6b69-4636-9164-5f7063625858,1.0*%
%TF.SameCoordinates,Original*%
%TF.FileFunction,Plated,1,4,PTH,Mixed*%
%TF.FilePolarity,Positive*%
%FSLAX46Y46*%
G04 Gerber Fmt 4.6, Leading zero omitted, Abs format (unit mm)*
G04 Created by KiCad*
%MOMM*%
%LPD*%
G04 APERTURE LIST*
%TA.AperFunction,ViaDrill*%
%ADD10C,0.400000*%
%TD*%
G04 aperture for slot hole*
%TA.AperFunction,ComponentDrill*%
%ADD11C,0.750000*%
%TD*%
G04 APERTURE END LIST*
D10*
X138125000Y-94525000D03*
X138176000Y-95504000D03*
X138214100Y-114909600D03*
X138226800Y-99885500D03*
X138226800Y-101247863D03*
X138226800Y-102610226D03*
X138226800Y-103972589D03*
X138226800Y-105334952D03*
X138226800Y-106697315D03*
X138226800Y-108059678D03*
X138226800Y-109422041D03*
X138226800Y-110784404D03*
X138226800Y-112146767D03*
X138226800Y-113509130D03*
X138226800Y-116205000D03*
X138379200Y-118999000D03*
X138379200Y-120523000D03*
X138379200Y-121996200D03*
X138379200Y-123494800D03*
X138988800Y-107556300D03*
X139141200Y-94538800D03*
X139379465Y-116515052D03*
X139814300Y-108381800D03*
X140627100Y-109156500D03*
X141121136Y-118997736D03*
X141224000Y-115595400D03*
X141389100Y-109867700D03*
X141554200Y-104216200D03*
X141617700Y-101447600D03*
X141643100Y-105422700D03*
X141757400Y-122047000D03*
X141859000Y-95453200D03*
X142189200Y-117271800D03*
X142379700Y-94500700D03*
X142557500Y-106362500D03*
X142595600Y-99237800D03*
X143294100Y-111861600D03*
X143383000Y-107099100D03*
X143408400Y-98298000D03*
X143522700Y-94500700D03*
X143814800Y-113550700D03*
X143840200Y-122478800D03*
X144272000Y-107873800D03*
X144576800Y-94500700D03*
X145072100Y-108750100D03*
X145542000Y-123977400D03*
X145567400Y-119151400D03*
X145567400Y-119964200D03*
X145834100Y-94500700D03*
X146380200Y-119151400D03*
X146380200Y-119964200D03*
X146558000Y-125018800D03*
X146939000Y-108254800D03*
X147040600Y-118186200D03*
X147078700Y-113474500D03*
X147091400Y-112318800D03*
X147108574Y-120895774D03*
X147434300Y-125564900D03*
X147650200Y-108839000D03*
X148310600Y-119786400D03*
X148336000Y-126136400D03*
X148551900Y-98933000D03*
X148615400Y-122148600D03*
X149352000Y-106070400D03*
X149453600Y-105003600D03*
X149453600Y-110261400D03*
X149453600Y-111658400D03*
X150253700Y-101714300D03*
X150977600Y-98221800D03*
X150977600Y-102844600D03*
X150977600Y-103898700D03*
X151866600Y-123647200D03*
X152349200Y-119303800D03*
X152603200Y-94945200D03*
X152793700Y-90792300D03*
X153085800Y-124180600D03*
X153263600Y-111023400D03*
X153847800Y-90125000D03*
X153847800Y-91287600D03*
X153847800Y-94259400D03*
X153847800Y-95300800D03*
X153847800Y-97282000D03*
X153847800Y-98247200D03*
X154063700Y-121577100D03*
X154076400Y-103479600D03*
X154099398Y-109623087D03*
X154102110Y-108623089D03*
X154127200Y-104495600D03*
X154216100Y-123659900D03*
X154559000Y-105765001D03*
X154609800Y-126695200D03*
X154635200Y-124612400D03*
X154940000Y-129692400D03*
X155336142Y-108544458D03*
X155587600Y-107391200D03*
X155999000Y-121732000D03*
X156083000Y-124485400D03*
X157810200Y-107340400D03*
X157886400Y-115519200D03*
X158191200Y-118745000D03*
X158191200Y-122706998D03*
X158191200Y-129768600D03*
X158711900Y-104350002D03*
X158800800Y-114300000D03*
X159349999Y-126896865D03*
X159838372Y-124623840D03*
X159969200Y-120497600D03*
X161318496Y-122719989D03*
X161323206Y-124781113D03*
X161569400Y-120523000D03*
X161582100Y-121615200D03*
X161658300Y-105892600D03*
X161696400Y-107467400D03*
X161709100Y-123748800D03*
X161734500Y-108750200D03*
X161874200Y-129819400D03*
X162026600Y-104368600D03*
X163144200Y-103301800D03*
X163258500Y-104267000D03*
X164172900Y-103301800D03*
X164490400Y-118364000D03*
X165277800Y-129895600D03*
X165658800Y-113538000D03*
X165684200Y-105816400D03*
X166090600Y-104292400D03*
X166141400Y-90125000D03*
X166141400Y-91262200D03*
X166141400Y-92278200D03*
X166141400Y-93294200D03*
X166141400Y-98298000D03*
X166141400Y-99263200D03*
X166344600Y-118592600D03*
X166725600Y-114630200D03*
X166801800Y-103517700D03*
X166827200Y-108534200D03*
X166827200Y-109550200D03*
X166852600Y-112572800D03*
X166852600Y-120726200D03*
X167289200Y-113584000D03*
X167309800Y-124815600D03*
X167386000Y-91071700D03*
X167513000Y-122682000D03*
X168452800Y-124942600D03*
X168681400Y-106527600D03*
X168884600Y-96215200D03*
X169443400Y-119684800D03*
X169595800Y-116586000D03*
X169595800Y-117627400D03*
X169621200Y-121691400D03*
X169824400Y-105054400D03*
X169862500Y-114935000D03*
X169875200Y-110185200D03*
X169892624Y-107424576D03*
X170103800Y-100787200D03*
X170116500Y-97675700D03*
X170116500Y-99301300D03*
X170789600Y-104419400D03*
X171018200Y-118592600D03*
X171754800Y-116281200D03*
X171754800Y-117398800D03*
X171754800Y-126238000D03*
X172466000Y-122008900D03*
X172466000Y-123190000D03*
X172567600Y-124536200D03*
X172567600Y-125603000D03*
X172745400Y-117398800D03*
X173050200Y-96215200D03*
X174053500Y-94526100D03*
X174447788Y-101481207D03*
X174523400Y-119761000D03*
X174625000Y-103378000D03*
X175082200Y-107462002D03*
X175190685Y-104267000D03*
X175488600Y-117525800D03*
X175666400Y-119761000D03*
X176695100Y-117500400D03*
X176898300Y-119722900D03*
X176974500Y-103251000D03*
X177317400Y-107619800D03*
X177457100Y-98780600D03*
X177825400Y-117500400D03*
X177914300Y-94526100D03*
X177977800Y-119786400D03*
X178028600Y-109908810D03*
X178333400Y-104978200D03*
X178739800Y-117576600D03*
X178777900Y-110629700D03*
X178816000Y-99466400D03*
X178943000Y-95313500D03*
X178943000Y-96583500D03*
X179031900Y-112128300D03*
X179060300Y-103235300D03*
X179082800Y-113639600D03*
X179298600Y-106565700D03*
X179380560Y-118594144D03*
X179755800Y-108508800D03*
X179767227Y-114632101D03*
X179959000Y-121716800D03*
X180218731Y-103117636D03*
X180340000Y-100012500D03*
X181152800Y-106654600D03*
X181178200Y-112547400D03*
X181216000Y-115616000D03*
X181216000Y-116632000D03*
X181216000Y-121712000D03*
X181218721Y-103122356D03*
X181864000Y-94538800D03*
X181864000Y-99110800D03*
X181875000Y-100558600D03*
D11*
%TO.C,U5*%
X156952000Y-128852000D02*
X156952000Y-128402000D01*
X163048000Y-128852000D02*
X163048000Y-128402000D01*
M02*
