%TF.GenerationSoftware,KiCad,Pcbnew,5.1.5+dfsg1-2~bpo10+1*%
%TF.CreationDate,Date%
%TF.ProjectId,osw-light,6f73772d-6c69-4676-9874-2e6b69636164,1.0*%
%TF.SameCoordinates,Original*%
%TF.FileFunction,Soldermask,Top*%
%TF.FilePolarity,Negative*%
%FSLAX46Y46*%
G04 Gerber Fmt 4.6, Leading zero omitted, Abs format (unit mm)*
G04 Created by KiCad*
%MOMM*%
%LPD*%
G04 APERTURE LIST*
%ADD10O,1.100000X1.100000*%
%ADD11R,0.500000X1.450000*%
%ADD12O,1.600000X2.100000*%
%ADD13R,2.100000X2.100000*%
%ADD14R,3.502000X1.802000*%
%ADD15C,0.652000*%
%ADD16C,0.100000*%
%ADD17R,0.752000X1.162000*%
%ADD18R,1.162000X0.752000*%
%ADD19R,0.452000X0.477000*%
%ADD20R,0.477000X0.452000*%
%ADD21R,0.602000X0.452000*%
%ADD22R,1.502000X0.402000*%
%ADD23R,1.002000X0.902000*%
%ADD24R,1.626000X0.702000*%
%ADD25R,0.702000X1.626000*%
%ADD26R,5.102000X5.102000*%
G04 APERTURE END LIST*
D10*
%TO.C,U5*%
X78486000Y-115570000D03*
X73914000Y-115570000D03*
D11*
X77500000Y-114990500D03*
X76850000Y-114990500D03*
X76200000Y-114990500D03*
X75550000Y-114990500D03*
X74900000Y-114990500D03*
D12*
X79248000Y-117792500D03*
D13*
X76200000Y-117665500D03*
D12*
X73152000Y-117792500D03*
%TD*%
D14*
%TO.C,J1*%
X60960000Y-103327200D03*
X60960000Y-105867200D03*
%TD*%
D15*
%TO.C,SW2*%
X85888834Y-88148769D03*
X84344422Y-87145816D03*
D16*
G36*
X82787661Y-88652519D02*
G01*
X82282781Y-88324646D01*
X82991901Y-87232697D01*
X83496781Y-87560570D01*
X82787661Y-88652519D01*
G37*
G36*
X85597208Y-90477060D02*
G01*
X85092328Y-90149187D01*
X85801448Y-89057238D01*
X86306328Y-89385111D01*
X85597208Y-90477060D01*
G37*
G36*
X83571722Y-86965957D02*
G01*
X82479772Y-86256837D01*
X83188892Y-85164887D01*
X84280842Y-85874007D01*
X83571722Y-86965957D01*
G37*
G36*
X87406123Y-89456046D02*
G01*
X86314173Y-88746926D01*
X87023293Y-87654976D01*
X88115243Y-88364096D01*
X87406123Y-89456046D01*
G37*
%TD*%
D15*
%TO.C,SW1*%
X68108834Y-87111231D03*
X66564422Y-88114184D03*
D16*
G36*
X67307672Y-90149187D02*
G01*
X66802792Y-90477060D01*
X66093672Y-89385111D01*
X66598552Y-89057238D01*
X67307672Y-90149187D01*
G37*
G36*
X70117219Y-88324646D02*
G01*
X69612339Y-88652519D01*
X68903219Y-87560570D01*
X69408099Y-87232697D01*
X70117219Y-88324646D01*
G37*
G36*
X66085827Y-88746926D02*
G01*
X64993877Y-89456046D01*
X64284757Y-88364096D01*
X65376707Y-87654976D01*
X66085827Y-88746926D01*
G37*
G36*
X69920228Y-86256837D02*
G01*
X68828278Y-86965957D01*
X68119158Y-85874007D01*
X69211108Y-85164887D01*
X69920228Y-86256837D01*
G37*
%TD*%
D15*
%TO.C,SW5*%
X66511166Y-115051231D03*
X68055578Y-116054184D03*
D16*
G36*
X69612339Y-114547481D02*
G01*
X70117219Y-114875354D01*
X69408099Y-115967303D01*
X68903219Y-115639430D01*
X69612339Y-114547481D01*
G37*
G36*
X66802792Y-112722940D02*
G01*
X67307672Y-113050813D01*
X66598552Y-114142762D01*
X66093672Y-113814889D01*
X66802792Y-112722940D01*
G37*
G36*
X68828278Y-116234043D02*
G01*
X69920228Y-116943163D01*
X69211108Y-118035113D01*
X68119158Y-117325993D01*
X68828278Y-116234043D01*
G37*
G36*
X64993877Y-113743954D02*
G01*
X66085827Y-114453074D01*
X65376707Y-115545024D01*
X64284757Y-114835904D01*
X64993877Y-113743954D01*
G37*
%TD*%
D15*
%TO.C,SW4*%
X84291166Y-116088769D03*
X85835578Y-115085816D03*
D16*
G36*
X85092328Y-113050813D02*
G01*
X85597208Y-112722940D01*
X86306328Y-113814889D01*
X85801448Y-114142762D01*
X85092328Y-113050813D01*
G37*
G36*
X82282781Y-114875354D02*
G01*
X82787661Y-114547481D01*
X83496781Y-115639430D01*
X82991901Y-115967303D01*
X82282781Y-114875354D01*
G37*
G36*
X86314173Y-114453074D02*
G01*
X87406123Y-113743954D01*
X88115243Y-114835904D01*
X87023293Y-115545024D01*
X86314173Y-114453074D01*
G37*
G36*
X82479772Y-116943163D02*
G01*
X83571722Y-116234043D01*
X84280842Y-117325993D01*
X83188892Y-118035113D01*
X82479772Y-116943163D01*
G37*
%TD*%
%TO.C,R18*%
G36*
X71870191Y-89517676D02*
G01*
X71893901Y-89521193D01*
X71917152Y-89527017D01*
X71939720Y-89535092D01*
X71961389Y-89545341D01*
X71981948Y-89557664D01*
X72001201Y-89571942D01*
X72018961Y-89588039D01*
X72035058Y-89605799D01*
X72049336Y-89625052D01*
X72061659Y-89645611D01*
X72071908Y-89667280D01*
X72079983Y-89689848D01*
X72085807Y-89713099D01*
X72089324Y-89736809D01*
X72090500Y-89760750D01*
X72090500Y-90249250D01*
X72089324Y-90273191D01*
X72085807Y-90296901D01*
X72079983Y-90320152D01*
X72071908Y-90342720D01*
X72061659Y-90364389D01*
X72049336Y-90384948D01*
X72035058Y-90404201D01*
X72018961Y-90421961D01*
X72001201Y-90438058D01*
X71981948Y-90452336D01*
X71961389Y-90464659D01*
X71939720Y-90474908D01*
X71917152Y-90482983D01*
X71893901Y-90488807D01*
X71870191Y-90492324D01*
X71846250Y-90493500D01*
X71282750Y-90493500D01*
X71258809Y-90492324D01*
X71235099Y-90488807D01*
X71211848Y-90482983D01*
X71189280Y-90474908D01*
X71167611Y-90464659D01*
X71147052Y-90452336D01*
X71127799Y-90438058D01*
X71110039Y-90421961D01*
X71093942Y-90404201D01*
X71079664Y-90384948D01*
X71067341Y-90364389D01*
X71057092Y-90342720D01*
X71049017Y-90320152D01*
X71043193Y-90296901D01*
X71039676Y-90273191D01*
X71038500Y-90249250D01*
X71038500Y-89760750D01*
X71039676Y-89736809D01*
X71043193Y-89713099D01*
X71049017Y-89689848D01*
X71057092Y-89667280D01*
X71067341Y-89645611D01*
X71079664Y-89625052D01*
X71093942Y-89605799D01*
X71110039Y-89588039D01*
X71127799Y-89571942D01*
X71147052Y-89557664D01*
X71167611Y-89545341D01*
X71189280Y-89535092D01*
X71211848Y-89527017D01*
X71235099Y-89521193D01*
X71258809Y-89517676D01*
X71282750Y-89516500D01*
X71846250Y-89516500D01*
X71870191Y-89517676D01*
G37*
G36*
X71870191Y-87942676D02*
G01*
X71893901Y-87946193D01*
X71917152Y-87952017D01*
X71939720Y-87960092D01*
X71961389Y-87970341D01*
X71981948Y-87982664D01*
X72001201Y-87996942D01*
X72018961Y-88013039D01*
X72035058Y-88030799D01*
X72049336Y-88050052D01*
X72061659Y-88070611D01*
X72071908Y-88092280D01*
X72079983Y-88114848D01*
X72085807Y-88138099D01*
X72089324Y-88161809D01*
X72090500Y-88185750D01*
X72090500Y-88674250D01*
X72089324Y-88698191D01*
X72085807Y-88721901D01*
X72079983Y-88745152D01*
X72071908Y-88767720D01*
X72061659Y-88789389D01*
X72049336Y-88809948D01*
X72035058Y-88829201D01*
X72018961Y-88846961D01*
X72001201Y-88863058D01*
X71981948Y-88877336D01*
X71961389Y-88889659D01*
X71939720Y-88899908D01*
X71917152Y-88907983D01*
X71893901Y-88913807D01*
X71870191Y-88917324D01*
X71846250Y-88918500D01*
X71282750Y-88918500D01*
X71258809Y-88917324D01*
X71235099Y-88913807D01*
X71211848Y-88907983D01*
X71189280Y-88899908D01*
X71167611Y-88889659D01*
X71147052Y-88877336D01*
X71127799Y-88863058D01*
X71110039Y-88846961D01*
X71093942Y-88829201D01*
X71079664Y-88809948D01*
X71067341Y-88789389D01*
X71057092Y-88767720D01*
X71049017Y-88745152D01*
X71043193Y-88721901D01*
X71039676Y-88698191D01*
X71038500Y-88674250D01*
X71038500Y-88185750D01*
X71039676Y-88161809D01*
X71043193Y-88138099D01*
X71049017Y-88114848D01*
X71057092Y-88092280D01*
X71067341Y-88070611D01*
X71079664Y-88050052D01*
X71093942Y-88030799D01*
X71110039Y-88013039D01*
X71127799Y-87996942D01*
X71147052Y-87982664D01*
X71167611Y-87970341D01*
X71189280Y-87960092D01*
X71211848Y-87952017D01*
X71235099Y-87946193D01*
X71258809Y-87942676D01*
X71282750Y-87941500D01*
X71846250Y-87941500D01*
X71870191Y-87942676D01*
G37*
%TD*%
%TO.C,C11*%
G36*
X71870191Y-84831176D02*
G01*
X71893901Y-84834693D01*
X71917152Y-84840517D01*
X71939720Y-84848592D01*
X71961389Y-84858841D01*
X71981948Y-84871164D01*
X72001201Y-84885442D01*
X72018961Y-84901539D01*
X72035058Y-84919299D01*
X72049336Y-84938552D01*
X72061659Y-84959111D01*
X72071908Y-84980780D01*
X72079983Y-85003348D01*
X72085807Y-85026599D01*
X72089324Y-85050309D01*
X72090500Y-85074250D01*
X72090500Y-85562750D01*
X72089324Y-85586691D01*
X72085807Y-85610401D01*
X72079983Y-85633652D01*
X72071908Y-85656220D01*
X72061659Y-85677889D01*
X72049336Y-85698448D01*
X72035058Y-85717701D01*
X72018961Y-85735461D01*
X72001201Y-85751558D01*
X71981948Y-85765836D01*
X71961389Y-85778159D01*
X71939720Y-85788408D01*
X71917152Y-85796483D01*
X71893901Y-85802307D01*
X71870191Y-85805824D01*
X71846250Y-85807000D01*
X71282750Y-85807000D01*
X71258809Y-85805824D01*
X71235099Y-85802307D01*
X71211848Y-85796483D01*
X71189280Y-85788408D01*
X71167611Y-85778159D01*
X71147052Y-85765836D01*
X71127799Y-85751558D01*
X71110039Y-85735461D01*
X71093942Y-85717701D01*
X71079664Y-85698448D01*
X71067341Y-85677889D01*
X71057092Y-85656220D01*
X71049017Y-85633652D01*
X71043193Y-85610401D01*
X71039676Y-85586691D01*
X71038500Y-85562750D01*
X71038500Y-85074250D01*
X71039676Y-85050309D01*
X71043193Y-85026599D01*
X71049017Y-85003348D01*
X71057092Y-84980780D01*
X71067341Y-84959111D01*
X71079664Y-84938552D01*
X71093942Y-84919299D01*
X71110039Y-84901539D01*
X71127799Y-84885442D01*
X71147052Y-84871164D01*
X71167611Y-84858841D01*
X71189280Y-84848592D01*
X71211848Y-84840517D01*
X71235099Y-84834693D01*
X71258809Y-84831176D01*
X71282750Y-84830000D01*
X71846250Y-84830000D01*
X71870191Y-84831176D01*
G37*
G36*
X71870191Y-86406176D02*
G01*
X71893901Y-86409693D01*
X71917152Y-86415517D01*
X71939720Y-86423592D01*
X71961389Y-86433841D01*
X71981948Y-86446164D01*
X72001201Y-86460442D01*
X72018961Y-86476539D01*
X72035058Y-86494299D01*
X72049336Y-86513552D01*
X72061659Y-86534111D01*
X72071908Y-86555780D01*
X72079983Y-86578348D01*
X72085807Y-86601599D01*
X72089324Y-86625309D01*
X72090500Y-86649250D01*
X72090500Y-87137750D01*
X72089324Y-87161691D01*
X72085807Y-87185401D01*
X72079983Y-87208652D01*
X72071908Y-87231220D01*
X72061659Y-87252889D01*
X72049336Y-87273448D01*
X72035058Y-87292701D01*
X72018961Y-87310461D01*
X72001201Y-87326558D01*
X71981948Y-87340836D01*
X71961389Y-87353159D01*
X71939720Y-87363408D01*
X71917152Y-87371483D01*
X71893901Y-87377307D01*
X71870191Y-87380824D01*
X71846250Y-87382000D01*
X71282750Y-87382000D01*
X71258809Y-87380824D01*
X71235099Y-87377307D01*
X71211848Y-87371483D01*
X71189280Y-87363408D01*
X71167611Y-87353159D01*
X71147052Y-87340836D01*
X71127799Y-87326558D01*
X71110039Y-87310461D01*
X71093942Y-87292701D01*
X71079664Y-87273448D01*
X71067341Y-87252889D01*
X71057092Y-87231220D01*
X71049017Y-87208652D01*
X71043193Y-87185401D01*
X71039676Y-87161691D01*
X71038500Y-87137750D01*
X71038500Y-86649250D01*
X71039676Y-86625309D01*
X71043193Y-86601599D01*
X71049017Y-86578348D01*
X71057092Y-86555780D01*
X71067341Y-86534111D01*
X71079664Y-86513552D01*
X71093942Y-86494299D01*
X71110039Y-86476539D01*
X71127799Y-86460442D01*
X71147052Y-86446164D01*
X71167611Y-86433841D01*
X71189280Y-86423592D01*
X71211848Y-86415517D01*
X71235099Y-86409693D01*
X71258809Y-86406176D01*
X71282750Y-86405000D01*
X71846250Y-86405000D01*
X71870191Y-86406176D01*
G37*
%TD*%
%TO.C,C22*%
G36*
X63424691Y-101011176D02*
G01*
X63448401Y-101014693D01*
X63471652Y-101020517D01*
X63494220Y-101028592D01*
X63515889Y-101038841D01*
X63536448Y-101051164D01*
X63555701Y-101065442D01*
X63573461Y-101081539D01*
X63589558Y-101099299D01*
X63603836Y-101118552D01*
X63616159Y-101139111D01*
X63626408Y-101160780D01*
X63634483Y-101183348D01*
X63640307Y-101206599D01*
X63643824Y-101230309D01*
X63645000Y-101254250D01*
X63645000Y-101742750D01*
X63643824Y-101766691D01*
X63640307Y-101790401D01*
X63634483Y-101813652D01*
X63626408Y-101836220D01*
X63616159Y-101857889D01*
X63603836Y-101878448D01*
X63589558Y-101897701D01*
X63573461Y-101915461D01*
X63555701Y-101931558D01*
X63536448Y-101945836D01*
X63515889Y-101958159D01*
X63494220Y-101968408D01*
X63471652Y-101976483D01*
X63448401Y-101982307D01*
X63424691Y-101985824D01*
X63400750Y-101987000D01*
X62837250Y-101987000D01*
X62813309Y-101985824D01*
X62789599Y-101982307D01*
X62766348Y-101976483D01*
X62743780Y-101968408D01*
X62722111Y-101958159D01*
X62701552Y-101945836D01*
X62682299Y-101931558D01*
X62664539Y-101915461D01*
X62648442Y-101897701D01*
X62634164Y-101878448D01*
X62621841Y-101857889D01*
X62611592Y-101836220D01*
X62603517Y-101813652D01*
X62597693Y-101790401D01*
X62594176Y-101766691D01*
X62593000Y-101742750D01*
X62593000Y-101254250D01*
X62594176Y-101230309D01*
X62597693Y-101206599D01*
X62603517Y-101183348D01*
X62611592Y-101160780D01*
X62621841Y-101139111D01*
X62634164Y-101118552D01*
X62648442Y-101099299D01*
X62664539Y-101081539D01*
X62682299Y-101065442D01*
X62701552Y-101051164D01*
X62722111Y-101038841D01*
X62743780Y-101028592D01*
X62766348Y-101020517D01*
X62789599Y-101014693D01*
X62813309Y-101011176D01*
X62837250Y-101010000D01*
X63400750Y-101010000D01*
X63424691Y-101011176D01*
G37*
G36*
X63424691Y-99436176D02*
G01*
X63448401Y-99439693D01*
X63471652Y-99445517D01*
X63494220Y-99453592D01*
X63515889Y-99463841D01*
X63536448Y-99476164D01*
X63555701Y-99490442D01*
X63573461Y-99506539D01*
X63589558Y-99524299D01*
X63603836Y-99543552D01*
X63616159Y-99564111D01*
X63626408Y-99585780D01*
X63634483Y-99608348D01*
X63640307Y-99631599D01*
X63643824Y-99655309D01*
X63645000Y-99679250D01*
X63645000Y-100167750D01*
X63643824Y-100191691D01*
X63640307Y-100215401D01*
X63634483Y-100238652D01*
X63626408Y-100261220D01*
X63616159Y-100282889D01*
X63603836Y-100303448D01*
X63589558Y-100322701D01*
X63573461Y-100340461D01*
X63555701Y-100356558D01*
X63536448Y-100370836D01*
X63515889Y-100383159D01*
X63494220Y-100393408D01*
X63471652Y-100401483D01*
X63448401Y-100407307D01*
X63424691Y-100410824D01*
X63400750Y-100412000D01*
X62837250Y-100412000D01*
X62813309Y-100410824D01*
X62789599Y-100407307D01*
X62766348Y-100401483D01*
X62743780Y-100393408D01*
X62722111Y-100383159D01*
X62701552Y-100370836D01*
X62682299Y-100356558D01*
X62664539Y-100340461D01*
X62648442Y-100322701D01*
X62634164Y-100303448D01*
X62621841Y-100282889D01*
X62611592Y-100261220D01*
X62603517Y-100238652D01*
X62597693Y-100215401D01*
X62594176Y-100191691D01*
X62593000Y-100167750D01*
X62593000Y-99679250D01*
X62594176Y-99655309D01*
X62597693Y-99631599D01*
X62603517Y-99608348D01*
X62611592Y-99585780D01*
X62621841Y-99564111D01*
X62634164Y-99543552D01*
X62648442Y-99524299D01*
X62664539Y-99506539D01*
X62682299Y-99490442D01*
X62701552Y-99476164D01*
X62722111Y-99463841D01*
X62743780Y-99453592D01*
X62766348Y-99445517D01*
X62789599Y-99439693D01*
X62813309Y-99436176D01*
X62837250Y-99435000D01*
X63400750Y-99435000D01*
X63424691Y-99436176D01*
G37*
%TD*%
D17*
%TO.C,U13*%
X67833200Y-94404000D03*
X69733200Y-94404000D03*
X69733200Y-96604000D03*
X68783200Y-96604000D03*
X67833200Y-96604000D03*
%TD*%
D18*
%TO.C,U12*%
X74973000Y-111950500D03*
X74973000Y-112900500D03*
X74973000Y-111000500D03*
X77173000Y-111000500D03*
X77173000Y-111950500D03*
X77173000Y-112900500D03*
%TD*%
D17*
%TO.C,U10*%
X72456000Y-94404000D03*
X74356000Y-94404000D03*
X74356000Y-96604000D03*
X73406000Y-96604000D03*
X72456000Y-96604000D03*
%TD*%
D16*
%TO.C,R22*%
G36*
X60198891Y-99436176D02*
G01*
X60222601Y-99439693D01*
X60245852Y-99445517D01*
X60268420Y-99453592D01*
X60290089Y-99463841D01*
X60310648Y-99476164D01*
X60329901Y-99490442D01*
X60347661Y-99506539D01*
X60363758Y-99524299D01*
X60378036Y-99543552D01*
X60390359Y-99564111D01*
X60400608Y-99585780D01*
X60408683Y-99608348D01*
X60414507Y-99631599D01*
X60418024Y-99655309D01*
X60419200Y-99679250D01*
X60419200Y-100167750D01*
X60418024Y-100191691D01*
X60414507Y-100215401D01*
X60408683Y-100238652D01*
X60400608Y-100261220D01*
X60390359Y-100282889D01*
X60378036Y-100303448D01*
X60363758Y-100322701D01*
X60347661Y-100340461D01*
X60329901Y-100356558D01*
X60310648Y-100370836D01*
X60290089Y-100383159D01*
X60268420Y-100393408D01*
X60245852Y-100401483D01*
X60222601Y-100407307D01*
X60198891Y-100410824D01*
X60174950Y-100412000D01*
X59611450Y-100412000D01*
X59587509Y-100410824D01*
X59563799Y-100407307D01*
X59540548Y-100401483D01*
X59517980Y-100393408D01*
X59496311Y-100383159D01*
X59475752Y-100370836D01*
X59456499Y-100356558D01*
X59438739Y-100340461D01*
X59422642Y-100322701D01*
X59408364Y-100303448D01*
X59396041Y-100282889D01*
X59385792Y-100261220D01*
X59377717Y-100238652D01*
X59371893Y-100215401D01*
X59368376Y-100191691D01*
X59367200Y-100167750D01*
X59367200Y-99679250D01*
X59368376Y-99655309D01*
X59371893Y-99631599D01*
X59377717Y-99608348D01*
X59385792Y-99585780D01*
X59396041Y-99564111D01*
X59408364Y-99543552D01*
X59422642Y-99524299D01*
X59438739Y-99506539D01*
X59456499Y-99490442D01*
X59475752Y-99476164D01*
X59496311Y-99463841D01*
X59517980Y-99453592D01*
X59540548Y-99445517D01*
X59563799Y-99439693D01*
X59587509Y-99436176D01*
X59611450Y-99435000D01*
X60174950Y-99435000D01*
X60198891Y-99436176D01*
G37*
G36*
X60198891Y-101011176D02*
G01*
X60222601Y-101014693D01*
X60245852Y-101020517D01*
X60268420Y-101028592D01*
X60290089Y-101038841D01*
X60310648Y-101051164D01*
X60329901Y-101065442D01*
X60347661Y-101081539D01*
X60363758Y-101099299D01*
X60378036Y-101118552D01*
X60390359Y-101139111D01*
X60400608Y-101160780D01*
X60408683Y-101183348D01*
X60414507Y-101206599D01*
X60418024Y-101230309D01*
X60419200Y-101254250D01*
X60419200Y-101742750D01*
X60418024Y-101766691D01*
X60414507Y-101790401D01*
X60408683Y-101813652D01*
X60400608Y-101836220D01*
X60390359Y-101857889D01*
X60378036Y-101878448D01*
X60363758Y-101897701D01*
X60347661Y-101915461D01*
X60329901Y-101931558D01*
X60310648Y-101945836D01*
X60290089Y-101958159D01*
X60268420Y-101968408D01*
X60245852Y-101976483D01*
X60222601Y-101982307D01*
X60198891Y-101985824D01*
X60174950Y-101987000D01*
X59611450Y-101987000D01*
X59587509Y-101985824D01*
X59563799Y-101982307D01*
X59540548Y-101976483D01*
X59517980Y-101968408D01*
X59496311Y-101958159D01*
X59475752Y-101945836D01*
X59456499Y-101931558D01*
X59438739Y-101915461D01*
X59422642Y-101897701D01*
X59408364Y-101878448D01*
X59396041Y-101857889D01*
X59385792Y-101836220D01*
X59377717Y-101813652D01*
X59371893Y-101790401D01*
X59368376Y-101766691D01*
X59367200Y-101742750D01*
X59367200Y-101254250D01*
X59368376Y-101230309D01*
X59371893Y-101206599D01*
X59377717Y-101183348D01*
X59385792Y-101160780D01*
X59396041Y-101139111D01*
X59408364Y-101118552D01*
X59422642Y-101099299D01*
X59438739Y-101081539D01*
X59456499Y-101065442D01*
X59475752Y-101051164D01*
X59496311Y-101038841D01*
X59517980Y-101028592D01*
X59540548Y-101020517D01*
X59563799Y-101014693D01*
X59587509Y-101011176D01*
X59611450Y-101010000D01*
X60174950Y-101010000D01*
X60198891Y-101011176D01*
G37*
%TD*%
%TO.C,R21*%
G36*
X61849891Y-100985676D02*
G01*
X61873601Y-100989193D01*
X61896852Y-100995017D01*
X61919420Y-101003092D01*
X61941089Y-101013341D01*
X61961648Y-101025664D01*
X61980901Y-101039942D01*
X61998661Y-101056039D01*
X62014758Y-101073799D01*
X62029036Y-101093052D01*
X62041359Y-101113611D01*
X62051608Y-101135280D01*
X62059683Y-101157848D01*
X62065507Y-101181099D01*
X62069024Y-101204809D01*
X62070200Y-101228750D01*
X62070200Y-101717250D01*
X62069024Y-101741191D01*
X62065507Y-101764901D01*
X62059683Y-101788152D01*
X62051608Y-101810720D01*
X62041359Y-101832389D01*
X62029036Y-101852948D01*
X62014758Y-101872201D01*
X61998661Y-101889961D01*
X61980901Y-101906058D01*
X61961648Y-101920336D01*
X61941089Y-101932659D01*
X61919420Y-101942908D01*
X61896852Y-101950983D01*
X61873601Y-101956807D01*
X61849891Y-101960324D01*
X61825950Y-101961500D01*
X61262450Y-101961500D01*
X61238509Y-101960324D01*
X61214799Y-101956807D01*
X61191548Y-101950983D01*
X61168980Y-101942908D01*
X61147311Y-101932659D01*
X61126752Y-101920336D01*
X61107499Y-101906058D01*
X61089739Y-101889961D01*
X61073642Y-101872201D01*
X61059364Y-101852948D01*
X61047041Y-101832389D01*
X61036792Y-101810720D01*
X61028717Y-101788152D01*
X61022893Y-101764901D01*
X61019376Y-101741191D01*
X61018200Y-101717250D01*
X61018200Y-101228750D01*
X61019376Y-101204809D01*
X61022893Y-101181099D01*
X61028717Y-101157848D01*
X61036792Y-101135280D01*
X61047041Y-101113611D01*
X61059364Y-101093052D01*
X61073642Y-101073799D01*
X61089739Y-101056039D01*
X61107499Y-101039942D01*
X61126752Y-101025664D01*
X61147311Y-101013341D01*
X61168980Y-101003092D01*
X61191548Y-100995017D01*
X61214799Y-100989193D01*
X61238509Y-100985676D01*
X61262450Y-100984500D01*
X61825950Y-100984500D01*
X61849891Y-100985676D01*
G37*
G36*
X61849891Y-99410676D02*
G01*
X61873601Y-99414193D01*
X61896852Y-99420017D01*
X61919420Y-99428092D01*
X61941089Y-99438341D01*
X61961648Y-99450664D01*
X61980901Y-99464942D01*
X61998661Y-99481039D01*
X62014758Y-99498799D01*
X62029036Y-99518052D01*
X62041359Y-99538611D01*
X62051608Y-99560280D01*
X62059683Y-99582848D01*
X62065507Y-99606099D01*
X62069024Y-99629809D01*
X62070200Y-99653750D01*
X62070200Y-100142250D01*
X62069024Y-100166191D01*
X62065507Y-100189901D01*
X62059683Y-100213152D01*
X62051608Y-100235720D01*
X62041359Y-100257389D01*
X62029036Y-100277948D01*
X62014758Y-100297201D01*
X61998661Y-100314961D01*
X61980901Y-100331058D01*
X61961648Y-100345336D01*
X61941089Y-100357659D01*
X61919420Y-100367908D01*
X61896852Y-100375983D01*
X61873601Y-100381807D01*
X61849891Y-100385324D01*
X61825950Y-100386500D01*
X61262450Y-100386500D01*
X61238509Y-100385324D01*
X61214799Y-100381807D01*
X61191548Y-100375983D01*
X61168980Y-100367908D01*
X61147311Y-100357659D01*
X61126752Y-100345336D01*
X61107499Y-100331058D01*
X61089739Y-100314961D01*
X61073642Y-100297201D01*
X61059364Y-100277948D01*
X61047041Y-100257389D01*
X61036792Y-100235720D01*
X61028717Y-100213152D01*
X61022893Y-100189901D01*
X61019376Y-100166191D01*
X61018200Y-100142250D01*
X61018200Y-99653750D01*
X61019376Y-99629809D01*
X61022893Y-99606099D01*
X61028717Y-99582848D01*
X61036792Y-99560280D01*
X61047041Y-99538611D01*
X61059364Y-99518052D01*
X61073642Y-99498799D01*
X61089739Y-99481039D01*
X61107499Y-99464942D01*
X61126752Y-99450664D01*
X61147311Y-99438341D01*
X61168980Y-99428092D01*
X61191548Y-99420017D01*
X61214799Y-99414193D01*
X61238509Y-99410676D01*
X61262450Y-99409500D01*
X61825950Y-99409500D01*
X61849891Y-99410676D01*
G37*
%TD*%
%TO.C,R20*%
G36*
X66396491Y-94635576D02*
G01*
X66420201Y-94639093D01*
X66443452Y-94644917D01*
X66466020Y-94652992D01*
X66487689Y-94663241D01*
X66508248Y-94675564D01*
X66527501Y-94689842D01*
X66545261Y-94705939D01*
X66561358Y-94723699D01*
X66575636Y-94742952D01*
X66587959Y-94763511D01*
X66598208Y-94785180D01*
X66606283Y-94807748D01*
X66612107Y-94830999D01*
X66615624Y-94854709D01*
X66616800Y-94878650D01*
X66616800Y-95367150D01*
X66615624Y-95391091D01*
X66612107Y-95414801D01*
X66606283Y-95438052D01*
X66598208Y-95460620D01*
X66587959Y-95482289D01*
X66575636Y-95502848D01*
X66561358Y-95522101D01*
X66545261Y-95539861D01*
X66527501Y-95555958D01*
X66508248Y-95570236D01*
X66487689Y-95582559D01*
X66466020Y-95592808D01*
X66443452Y-95600883D01*
X66420201Y-95606707D01*
X66396491Y-95610224D01*
X66372550Y-95611400D01*
X65809050Y-95611400D01*
X65785109Y-95610224D01*
X65761399Y-95606707D01*
X65738148Y-95600883D01*
X65715580Y-95592808D01*
X65693911Y-95582559D01*
X65673352Y-95570236D01*
X65654099Y-95555958D01*
X65636339Y-95539861D01*
X65620242Y-95522101D01*
X65605964Y-95502848D01*
X65593641Y-95482289D01*
X65583392Y-95460620D01*
X65575317Y-95438052D01*
X65569493Y-95414801D01*
X65565976Y-95391091D01*
X65564800Y-95367150D01*
X65564800Y-94878650D01*
X65565976Y-94854709D01*
X65569493Y-94830999D01*
X65575317Y-94807748D01*
X65583392Y-94785180D01*
X65593641Y-94763511D01*
X65605964Y-94742952D01*
X65620242Y-94723699D01*
X65636339Y-94705939D01*
X65654099Y-94689842D01*
X65673352Y-94675564D01*
X65693911Y-94663241D01*
X65715580Y-94652992D01*
X65738148Y-94644917D01*
X65761399Y-94639093D01*
X65785109Y-94635576D01*
X65809050Y-94634400D01*
X66372550Y-94634400D01*
X66396491Y-94635576D01*
G37*
G36*
X66396491Y-96210576D02*
G01*
X66420201Y-96214093D01*
X66443452Y-96219917D01*
X66466020Y-96227992D01*
X66487689Y-96238241D01*
X66508248Y-96250564D01*
X66527501Y-96264842D01*
X66545261Y-96280939D01*
X66561358Y-96298699D01*
X66575636Y-96317952D01*
X66587959Y-96338511D01*
X66598208Y-96360180D01*
X66606283Y-96382748D01*
X66612107Y-96405999D01*
X66615624Y-96429709D01*
X66616800Y-96453650D01*
X66616800Y-96942150D01*
X66615624Y-96966091D01*
X66612107Y-96989801D01*
X66606283Y-97013052D01*
X66598208Y-97035620D01*
X66587959Y-97057289D01*
X66575636Y-97077848D01*
X66561358Y-97097101D01*
X66545261Y-97114861D01*
X66527501Y-97130958D01*
X66508248Y-97145236D01*
X66487689Y-97157559D01*
X66466020Y-97167808D01*
X66443452Y-97175883D01*
X66420201Y-97181707D01*
X66396491Y-97185224D01*
X66372550Y-97186400D01*
X65809050Y-97186400D01*
X65785109Y-97185224D01*
X65761399Y-97181707D01*
X65738148Y-97175883D01*
X65715580Y-97167808D01*
X65693911Y-97157559D01*
X65673352Y-97145236D01*
X65654099Y-97130958D01*
X65636339Y-97114861D01*
X65620242Y-97097101D01*
X65605964Y-97077848D01*
X65593641Y-97057289D01*
X65583392Y-97035620D01*
X65575317Y-97013052D01*
X65569493Y-96989801D01*
X65565976Y-96966091D01*
X65564800Y-96942150D01*
X65564800Y-96453650D01*
X65565976Y-96429709D01*
X65569493Y-96405999D01*
X65575317Y-96382748D01*
X65583392Y-96360180D01*
X65593641Y-96338511D01*
X65605964Y-96317952D01*
X65620242Y-96298699D01*
X65636339Y-96280939D01*
X65654099Y-96264842D01*
X65673352Y-96250564D01*
X65693911Y-96238241D01*
X65715580Y-96227992D01*
X65738148Y-96219917D01*
X65761399Y-96214093D01*
X65785109Y-96210576D01*
X65809050Y-96209400D01*
X66372550Y-96209400D01*
X66396491Y-96210576D01*
G37*
%TD*%
%TO.C,C19*%
G36*
X70245191Y-90661176D02*
G01*
X70268901Y-90664693D01*
X70292152Y-90670517D01*
X70314720Y-90678592D01*
X70336389Y-90688841D01*
X70356948Y-90701164D01*
X70376201Y-90715442D01*
X70393961Y-90731539D01*
X70410058Y-90749299D01*
X70424336Y-90768552D01*
X70436659Y-90789111D01*
X70446908Y-90810780D01*
X70454983Y-90833348D01*
X70460807Y-90856599D01*
X70464324Y-90880309D01*
X70465500Y-90904250D01*
X70465500Y-91467750D01*
X70464324Y-91491691D01*
X70460807Y-91515401D01*
X70454983Y-91538652D01*
X70446908Y-91561220D01*
X70436659Y-91582889D01*
X70424336Y-91603448D01*
X70410058Y-91622701D01*
X70393961Y-91640461D01*
X70376201Y-91656558D01*
X70356948Y-91670836D01*
X70336389Y-91683159D01*
X70314720Y-91693408D01*
X70292152Y-91701483D01*
X70268901Y-91707307D01*
X70245191Y-91710824D01*
X70221250Y-91712000D01*
X69732750Y-91712000D01*
X69708809Y-91710824D01*
X69685099Y-91707307D01*
X69661848Y-91701483D01*
X69639280Y-91693408D01*
X69617611Y-91683159D01*
X69597052Y-91670836D01*
X69577799Y-91656558D01*
X69560039Y-91640461D01*
X69543942Y-91622701D01*
X69529664Y-91603448D01*
X69517341Y-91582889D01*
X69507092Y-91561220D01*
X69499017Y-91538652D01*
X69493193Y-91515401D01*
X69489676Y-91491691D01*
X69488500Y-91467750D01*
X69488500Y-90904250D01*
X69489676Y-90880309D01*
X69493193Y-90856599D01*
X69499017Y-90833348D01*
X69507092Y-90810780D01*
X69517341Y-90789111D01*
X69529664Y-90768552D01*
X69543942Y-90749299D01*
X69560039Y-90731539D01*
X69577799Y-90715442D01*
X69597052Y-90701164D01*
X69617611Y-90688841D01*
X69639280Y-90678592D01*
X69661848Y-90670517D01*
X69685099Y-90664693D01*
X69708809Y-90661176D01*
X69732750Y-90660000D01*
X70221250Y-90660000D01*
X70245191Y-90661176D01*
G37*
G36*
X68670191Y-90661176D02*
G01*
X68693901Y-90664693D01*
X68717152Y-90670517D01*
X68739720Y-90678592D01*
X68761389Y-90688841D01*
X68781948Y-90701164D01*
X68801201Y-90715442D01*
X68818961Y-90731539D01*
X68835058Y-90749299D01*
X68849336Y-90768552D01*
X68861659Y-90789111D01*
X68871908Y-90810780D01*
X68879983Y-90833348D01*
X68885807Y-90856599D01*
X68889324Y-90880309D01*
X68890500Y-90904250D01*
X68890500Y-91467750D01*
X68889324Y-91491691D01*
X68885807Y-91515401D01*
X68879983Y-91538652D01*
X68871908Y-91561220D01*
X68861659Y-91582889D01*
X68849336Y-91603448D01*
X68835058Y-91622701D01*
X68818961Y-91640461D01*
X68801201Y-91656558D01*
X68781948Y-91670836D01*
X68761389Y-91683159D01*
X68739720Y-91693408D01*
X68717152Y-91701483D01*
X68693901Y-91707307D01*
X68670191Y-91710824D01*
X68646250Y-91712000D01*
X68157750Y-91712000D01*
X68133809Y-91710824D01*
X68110099Y-91707307D01*
X68086848Y-91701483D01*
X68064280Y-91693408D01*
X68042611Y-91683159D01*
X68022052Y-91670836D01*
X68002799Y-91656558D01*
X67985039Y-91640461D01*
X67968942Y-91622701D01*
X67954664Y-91603448D01*
X67942341Y-91582889D01*
X67932092Y-91561220D01*
X67924017Y-91538652D01*
X67918193Y-91515401D01*
X67914676Y-91491691D01*
X67913500Y-91467750D01*
X67913500Y-90904250D01*
X67914676Y-90880309D01*
X67918193Y-90856599D01*
X67924017Y-90833348D01*
X67932092Y-90810780D01*
X67942341Y-90789111D01*
X67954664Y-90768552D01*
X67968942Y-90749299D01*
X67985039Y-90731539D01*
X68002799Y-90715442D01*
X68022052Y-90701164D01*
X68042611Y-90688841D01*
X68064280Y-90678592D01*
X68086848Y-90670517D01*
X68110099Y-90664693D01*
X68133809Y-90661176D01*
X68157750Y-90660000D01*
X68646250Y-90660000D01*
X68670191Y-90661176D01*
G37*
%TD*%
%TO.C,C18*%
G36*
X74944291Y-90661176D02*
G01*
X74968001Y-90664693D01*
X74991252Y-90670517D01*
X75013820Y-90678592D01*
X75035489Y-90688841D01*
X75056048Y-90701164D01*
X75075301Y-90715442D01*
X75093061Y-90731539D01*
X75109158Y-90749299D01*
X75123436Y-90768552D01*
X75135759Y-90789111D01*
X75146008Y-90810780D01*
X75154083Y-90833348D01*
X75159907Y-90856599D01*
X75163424Y-90880309D01*
X75164600Y-90904250D01*
X75164600Y-91467750D01*
X75163424Y-91491691D01*
X75159907Y-91515401D01*
X75154083Y-91538652D01*
X75146008Y-91561220D01*
X75135759Y-91582889D01*
X75123436Y-91603448D01*
X75109158Y-91622701D01*
X75093061Y-91640461D01*
X75075301Y-91656558D01*
X75056048Y-91670836D01*
X75035489Y-91683159D01*
X75013820Y-91693408D01*
X74991252Y-91701483D01*
X74968001Y-91707307D01*
X74944291Y-91710824D01*
X74920350Y-91712000D01*
X74431850Y-91712000D01*
X74407909Y-91710824D01*
X74384199Y-91707307D01*
X74360948Y-91701483D01*
X74338380Y-91693408D01*
X74316711Y-91683159D01*
X74296152Y-91670836D01*
X74276899Y-91656558D01*
X74259139Y-91640461D01*
X74243042Y-91622701D01*
X74228764Y-91603448D01*
X74216441Y-91582889D01*
X74206192Y-91561220D01*
X74198117Y-91538652D01*
X74192293Y-91515401D01*
X74188776Y-91491691D01*
X74187600Y-91467750D01*
X74187600Y-90904250D01*
X74188776Y-90880309D01*
X74192293Y-90856599D01*
X74198117Y-90833348D01*
X74206192Y-90810780D01*
X74216441Y-90789111D01*
X74228764Y-90768552D01*
X74243042Y-90749299D01*
X74259139Y-90731539D01*
X74276899Y-90715442D01*
X74296152Y-90701164D01*
X74316711Y-90688841D01*
X74338380Y-90678592D01*
X74360948Y-90670517D01*
X74384199Y-90664693D01*
X74407909Y-90661176D01*
X74431850Y-90660000D01*
X74920350Y-90660000D01*
X74944291Y-90661176D01*
G37*
G36*
X73369291Y-90661176D02*
G01*
X73393001Y-90664693D01*
X73416252Y-90670517D01*
X73438820Y-90678592D01*
X73460489Y-90688841D01*
X73481048Y-90701164D01*
X73500301Y-90715442D01*
X73518061Y-90731539D01*
X73534158Y-90749299D01*
X73548436Y-90768552D01*
X73560759Y-90789111D01*
X73571008Y-90810780D01*
X73579083Y-90833348D01*
X73584907Y-90856599D01*
X73588424Y-90880309D01*
X73589600Y-90904250D01*
X73589600Y-91467750D01*
X73588424Y-91491691D01*
X73584907Y-91515401D01*
X73579083Y-91538652D01*
X73571008Y-91561220D01*
X73560759Y-91582889D01*
X73548436Y-91603448D01*
X73534158Y-91622701D01*
X73518061Y-91640461D01*
X73500301Y-91656558D01*
X73481048Y-91670836D01*
X73460489Y-91683159D01*
X73438820Y-91693408D01*
X73416252Y-91701483D01*
X73393001Y-91707307D01*
X73369291Y-91710824D01*
X73345350Y-91712000D01*
X72856850Y-91712000D01*
X72832909Y-91710824D01*
X72809199Y-91707307D01*
X72785948Y-91701483D01*
X72763380Y-91693408D01*
X72741711Y-91683159D01*
X72721152Y-91670836D01*
X72701899Y-91656558D01*
X72684139Y-91640461D01*
X72668042Y-91622701D01*
X72653764Y-91603448D01*
X72641441Y-91582889D01*
X72631192Y-91561220D01*
X72623117Y-91538652D01*
X72617293Y-91515401D01*
X72613776Y-91491691D01*
X72612600Y-91467750D01*
X72612600Y-90904250D01*
X72613776Y-90880309D01*
X72617293Y-90856599D01*
X72623117Y-90833348D01*
X72631192Y-90810780D01*
X72641441Y-90789111D01*
X72653764Y-90768552D01*
X72668042Y-90749299D01*
X72684139Y-90731539D01*
X72701899Y-90715442D01*
X72721152Y-90701164D01*
X72741711Y-90688841D01*
X72763380Y-90678592D01*
X72785948Y-90670517D01*
X72809199Y-90664693D01*
X72832909Y-90661176D01*
X72856850Y-90660000D01*
X73345350Y-90660000D01*
X73369291Y-90661176D01*
G37*
%TD*%
%TO.C,C17*%
G36*
X70245191Y-92248676D02*
G01*
X70268901Y-92252193D01*
X70292152Y-92258017D01*
X70314720Y-92266092D01*
X70336389Y-92276341D01*
X70356948Y-92288664D01*
X70376201Y-92302942D01*
X70393961Y-92319039D01*
X70410058Y-92336799D01*
X70424336Y-92356052D01*
X70436659Y-92376611D01*
X70446908Y-92398280D01*
X70454983Y-92420848D01*
X70460807Y-92444099D01*
X70464324Y-92467809D01*
X70465500Y-92491750D01*
X70465500Y-93055250D01*
X70464324Y-93079191D01*
X70460807Y-93102901D01*
X70454983Y-93126152D01*
X70446908Y-93148720D01*
X70436659Y-93170389D01*
X70424336Y-93190948D01*
X70410058Y-93210201D01*
X70393961Y-93227961D01*
X70376201Y-93244058D01*
X70356948Y-93258336D01*
X70336389Y-93270659D01*
X70314720Y-93280908D01*
X70292152Y-93288983D01*
X70268901Y-93294807D01*
X70245191Y-93298324D01*
X70221250Y-93299500D01*
X69732750Y-93299500D01*
X69708809Y-93298324D01*
X69685099Y-93294807D01*
X69661848Y-93288983D01*
X69639280Y-93280908D01*
X69617611Y-93270659D01*
X69597052Y-93258336D01*
X69577799Y-93244058D01*
X69560039Y-93227961D01*
X69543942Y-93210201D01*
X69529664Y-93190948D01*
X69517341Y-93170389D01*
X69507092Y-93148720D01*
X69499017Y-93126152D01*
X69493193Y-93102901D01*
X69489676Y-93079191D01*
X69488500Y-93055250D01*
X69488500Y-92491750D01*
X69489676Y-92467809D01*
X69493193Y-92444099D01*
X69499017Y-92420848D01*
X69507092Y-92398280D01*
X69517341Y-92376611D01*
X69529664Y-92356052D01*
X69543942Y-92336799D01*
X69560039Y-92319039D01*
X69577799Y-92302942D01*
X69597052Y-92288664D01*
X69617611Y-92276341D01*
X69639280Y-92266092D01*
X69661848Y-92258017D01*
X69685099Y-92252193D01*
X69708809Y-92248676D01*
X69732750Y-92247500D01*
X70221250Y-92247500D01*
X70245191Y-92248676D01*
G37*
G36*
X68670191Y-92248676D02*
G01*
X68693901Y-92252193D01*
X68717152Y-92258017D01*
X68739720Y-92266092D01*
X68761389Y-92276341D01*
X68781948Y-92288664D01*
X68801201Y-92302942D01*
X68818961Y-92319039D01*
X68835058Y-92336799D01*
X68849336Y-92356052D01*
X68861659Y-92376611D01*
X68871908Y-92398280D01*
X68879983Y-92420848D01*
X68885807Y-92444099D01*
X68889324Y-92467809D01*
X68890500Y-92491750D01*
X68890500Y-93055250D01*
X68889324Y-93079191D01*
X68885807Y-93102901D01*
X68879983Y-93126152D01*
X68871908Y-93148720D01*
X68861659Y-93170389D01*
X68849336Y-93190948D01*
X68835058Y-93210201D01*
X68818961Y-93227961D01*
X68801201Y-93244058D01*
X68781948Y-93258336D01*
X68761389Y-93270659D01*
X68739720Y-93280908D01*
X68717152Y-93288983D01*
X68693901Y-93294807D01*
X68670191Y-93298324D01*
X68646250Y-93299500D01*
X68157750Y-93299500D01*
X68133809Y-93298324D01*
X68110099Y-93294807D01*
X68086848Y-93288983D01*
X68064280Y-93280908D01*
X68042611Y-93270659D01*
X68022052Y-93258336D01*
X68002799Y-93244058D01*
X67985039Y-93227961D01*
X67968942Y-93210201D01*
X67954664Y-93190948D01*
X67942341Y-93170389D01*
X67932092Y-93148720D01*
X67924017Y-93126152D01*
X67918193Y-93102901D01*
X67914676Y-93079191D01*
X67913500Y-93055250D01*
X67913500Y-92491750D01*
X67914676Y-92467809D01*
X67918193Y-92444099D01*
X67924017Y-92420848D01*
X67932092Y-92398280D01*
X67942341Y-92376611D01*
X67954664Y-92356052D01*
X67968942Y-92336799D01*
X67985039Y-92319039D01*
X68002799Y-92302942D01*
X68022052Y-92288664D01*
X68042611Y-92276341D01*
X68064280Y-92266092D01*
X68086848Y-92258017D01*
X68110099Y-92252193D01*
X68133809Y-92248676D01*
X68157750Y-92247500D01*
X68646250Y-92247500D01*
X68670191Y-92248676D01*
G37*
%TD*%
%TO.C,C16*%
G36*
X74944291Y-92248676D02*
G01*
X74968001Y-92252193D01*
X74991252Y-92258017D01*
X75013820Y-92266092D01*
X75035489Y-92276341D01*
X75056048Y-92288664D01*
X75075301Y-92302942D01*
X75093061Y-92319039D01*
X75109158Y-92336799D01*
X75123436Y-92356052D01*
X75135759Y-92376611D01*
X75146008Y-92398280D01*
X75154083Y-92420848D01*
X75159907Y-92444099D01*
X75163424Y-92467809D01*
X75164600Y-92491750D01*
X75164600Y-93055250D01*
X75163424Y-93079191D01*
X75159907Y-93102901D01*
X75154083Y-93126152D01*
X75146008Y-93148720D01*
X75135759Y-93170389D01*
X75123436Y-93190948D01*
X75109158Y-93210201D01*
X75093061Y-93227961D01*
X75075301Y-93244058D01*
X75056048Y-93258336D01*
X75035489Y-93270659D01*
X75013820Y-93280908D01*
X74991252Y-93288983D01*
X74968001Y-93294807D01*
X74944291Y-93298324D01*
X74920350Y-93299500D01*
X74431850Y-93299500D01*
X74407909Y-93298324D01*
X74384199Y-93294807D01*
X74360948Y-93288983D01*
X74338380Y-93280908D01*
X74316711Y-93270659D01*
X74296152Y-93258336D01*
X74276899Y-93244058D01*
X74259139Y-93227961D01*
X74243042Y-93210201D01*
X74228764Y-93190948D01*
X74216441Y-93170389D01*
X74206192Y-93148720D01*
X74198117Y-93126152D01*
X74192293Y-93102901D01*
X74188776Y-93079191D01*
X74187600Y-93055250D01*
X74187600Y-92491750D01*
X74188776Y-92467809D01*
X74192293Y-92444099D01*
X74198117Y-92420848D01*
X74206192Y-92398280D01*
X74216441Y-92376611D01*
X74228764Y-92356052D01*
X74243042Y-92336799D01*
X74259139Y-92319039D01*
X74276899Y-92302942D01*
X74296152Y-92288664D01*
X74316711Y-92276341D01*
X74338380Y-92266092D01*
X74360948Y-92258017D01*
X74384199Y-92252193D01*
X74407909Y-92248676D01*
X74431850Y-92247500D01*
X74920350Y-92247500D01*
X74944291Y-92248676D01*
G37*
G36*
X73369291Y-92248676D02*
G01*
X73393001Y-92252193D01*
X73416252Y-92258017D01*
X73438820Y-92266092D01*
X73460489Y-92276341D01*
X73481048Y-92288664D01*
X73500301Y-92302942D01*
X73518061Y-92319039D01*
X73534158Y-92336799D01*
X73548436Y-92356052D01*
X73560759Y-92376611D01*
X73571008Y-92398280D01*
X73579083Y-92420848D01*
X73584907Y-92444099D01*
X73588424Y-92467809D01*
X73589600Y-92491750D01*
X73589600Y-93055250D01*
X73588424Y-93079191D01*
X73584907Y-93102901D01*
X73579083Y-93126152D01*
X73571008Y-93148720D01*
X73560759Y-93170389D01*
X73548436Y-93190948D01*
X73534158Y-93210201D01*
X73518061Y-93227961D01*
X73500301Y-93244058D01*
X73481048Y-93258336D01*
X73460489Y-93270659D01*
X73438820Y-93280908D01*
X73416252Y-93288983D01*
X73393001Y-93294807D01*
X73369291Y-93298324D01*
X73345350Y-93299500D01*
X72856850Y-93299500D01*
X72832909Y-93298324D01*
X72809199Y-93294807D01*
X72785948Y-93288983D01*
X72763380Y-93280908D01*
X72741711Y-93270659D01*
X72721152Y-93258336D01*
X72701899Y-93244058D01*
X72684139Y-93227961D01*
X72668042Y-93210201D01*
X72653764Y-93190948D01*
X72641441Y-93170389D01*
X72631192Y-93148720D01*
X72623117Y-93126152D01*
X72617293Y-93102901D01*
X72613776Y-93079191D01*
X72612600Y-93055250D01*
X72612600Y-92491750D01*
X72613776Y-92467809D01*
X72617293Y-92444099D01*
X72623117Y-92420848D01*
X72631192Y-92398280D01*
X72641441Y-92376611D01*
X72653764Y-92356052D01*
X72668042Y-92336799D01*
X72684139Y-92319039D01*
X72701899Y-92302942D01*
X72721152Y-92288664D01*
X72741711Y-92276341D01*
X72763380Y-92266092D01*
X72785948Y-92258017D01*
X72809199Y-92252193D01*
X72832909Y-92248676D01*
X72856850Y-92247500D01*
X73345350Y-92247500D01*
X73369291Y-92248676D01*
G37*
%TD*%
%TO.C,C15*%
G36*
X70143691Y-97722376D02*
G01*
X70167401Y-97725893D01*
X70190652Y-97731717D01*
X70213220Y-97739792D01*
X70234889Y-97750041D01*
X70255448Y-97762364D01*
X70274701Y-97776642D01*
X70292461Y-97792739D01*
X70308558Y-97810499D01*
X70322836Y-97829752D01*
X70335159Y-97850311D01*
X70345408Y-97871980D01*
X70353483Y-97894548D01*
X70359307Y-97917799D01*
X70362824Y-97941509D01*
X70364000Y-97965450D01*
X70364000Y-98528950D01*
X70362824Y-98552891D01*
X70359307Y-98576601D01*
X70353483Y-98599852D01*
X70345408Y-98622420D01*
X70335159Y-98644089D01*
X70322836Y-98664648D01*
X70308558Y-98683901D01*
X70292461Y-98701661D01*
X70274701Y-98717758D01*
X70255448Y-98732036D01*
X70234889Y-98744359D01*
X70213220Y-98754608D01*
X70190652Y-98762683D01*
X70167401Y-98768507D01*
X70143691Y-98772024D01*
X70119750Y-98773200D01*
X69631250Y-98773200D01*
X69607309Y-98772024D01*
X69583599Y-98768507D01*
X69560348Y-98762683D01*
X69537780Y-98754608D01*
X69516111Y-98744359D01*
X69495552Y-98732036D01*
X69476299Y-98717758D01*
X69458539Y-98701661D01*
X69442442Y-98683901D01*
X69428164Y-98664648D01*
X69415841Y-98644089D01*
X69405592Y-98622420D01*
X69397517Y-98599852D01*
X69391693Y-98576601D01*
X69388176Y-98552891D01*
X69387000Y-98528950D01*
X69387000Y-97965450D01*
X69388176Y-97941509D01*
X69391693Y-97917799D01*
X69397517Y-97894548D01*
X69405592Y-97871980D01*
X69415841Y-97850311D01*
X69428164Y-97829752D01*
X69442442Y-97810499D01*
X69458539Y-97792739D01*
X69476299Y-97776642D01*
X69495552Y-97762364D01*
X69516111Y-97750041D01*
X69537780Y-97739792D01*
X69560348Y-97731717D01*
X69583599Y-97725893D01*
X69607309Y-97722376D01*
X69631250Y-97721200D01*
X70119750Y-97721200D01*
X70143691Y-97722376D01*
G37*
G36*
X68568691Y-97722376D02*
G01*
X68592401Y-97725893D01*
X68615652Y-97731717D01*
X68638220Y-97739792D01*
X68659889Y-97750041D01*
X68680448Y-97762364D01*
X68699701Y-97776642D01*
X68717461Y-97792739D01*
X68733558Y-97810499D01*
X68747836Y-97829752D01*
X68760159Y-97850311D01*
X68770408Y-97871980D01*
X68778483Y-97894548D01*
X68784307Y-97917799D01*
X68787824Y-97941509D01*
X68789000Y-97965450D01*
X68789000Y-98528950D01*
X68787824Y-98552891D01*
X68784307Y-98576601D01*
X68778483Y-98599852D01*
X68770408Y-98622420D01*
X68760159Y-98644089D01*
X68747836Y-98664648D01*
X68733558Y-98683901D01*
X68717461Y-98701661D01*
X68699701Y-98717758D01*
X68680448Y-98732036D01*
X68659889Y-98744359D01*
X68638220Y-98754608D01*
X68615652Y-98762683D01*
X68592401Y-98768507D01*
X68568691Y-98772024D01*
X68544750Y-98773200D01*
X68056250Y-98773200D01*
X68032309Y-98772024D01*
X68008599Y-98768507D01*
X67985348Y-98762683D01*
X67962780Y-98754608D01*
X67941111Y-98744359D01*
X67920552Y-98732036D01*
X67901299Y-98717758D01*
X67883539Y-98701661D01*
X67867442Y-98683901D01*
X67853164Y-98664648D01*
X67840841Y-98644089D01*
X67830592Y-98622420D01*
X67822517Y-98599852D01*
X67816693Y-98576601D01*
X67813176Y-98552891D01*
X67812000Y-98528950D01*
X67812000Y-97965450D01*
X67813176Y-97941509D01*
X67816693Y-97917799D01*
X67822517Y-97894548D01*
X67830592Y-97871980D01*
X67840841Y-97850311D01*
X67853164Y-97829752D01*
X67867442Y-97810499D01*
X67883539Y-97792739D01*
X67901299Y-97776642D01*
X67920552Y-97762364D01*
X67941111Y-97750041D01*
X67962780Y-97739792D01*
X67985348Y-97731717D01*
X68008599Y-97725893D01*
X68032309Y-97722376D01*
X68056250Y-97721200D01*
X68544750Y-97721200D01*
X68568691Y-97722376D01*
G37*
%TD*%
%TO.C,C14*%
G36*
X74766491Y-97722376D02*
G01*
X74790201Y-97725893D01*
X74813452Y-97731717D01*
X74836020Y-97739792D01*
X74857689Y-97750041D01*
X74878248Y-97762364D01*
X74897501Y-97776642D01*
X74915261Y-97792739D01*
X74931358Y-97810499D01*
X74945636Y-97829752D01*
X74957959Y-97850311D01*
X74968208Y-97871980D01*
X74976283Y-97894548D01*
X74982107Y-97917799D01*
X74985624Y-97941509D01*
X74986800Y-97965450D01*
X74986800Y-98528950D01*
X74985624Y-98552891D01*
X74982107Y-98576601D01*
X74976283Y-98599852D01*
X74968208Y-98622420D01*
X74957959Y-98644089D01*
X74945636Y-98664648D01*
X74931358Y-98683901D01*
X74915261Y-98701661D01*
X74897501Y-98717758D01*
X74878248Y-98732036D01*
X74857689Y-98744359D01*
X74836020Y-98754608D01*
X74813452Y-98762683D01*
X74790201Y-98768507D01*
X74766491Y-98772024D01*
X74742550Y-98773200D01*
X74254050Y-98773200D01*
X74230109Y-98772024D01*
X74206399Y-98768507D01*
X74183148Y-98762683D01*
X74160580Y-98754608D01*
X74138911Y-98744359D01*
X74118352Y-98732036D01*
X74099099Y-98717758D01*
X74081339Y-98701661D01*
X74065242Y-98683901D01*
X74050964Y-98664648D01*
X74038641Y-98644089D01*
X74028392Y-98622420D01*
X74020317Y-98599852D01*
X74014493Y-98576601D01*
X74010976Y-98552891D01*
X74009800Y-98528950D01*
X74009800Y-97965450D01*
X74010976Y-97941509D01*
X74014493Y-97917799D01*
X74020317Y-97894548D01*
X74028392Y-97871980D01*
X74038641Y-97850311D01*
X74050964Y-97829752D01*
X74065242Y-97810499D01*
X74081339Y-97792739D01*
X74099099Y-97776642D01*
X74118352Y-97762364D01*
X74138911Y-97750041D01*
X74160580Y-97739792D01*
X74183148Y-97731717D01*
X74206399Y-97725893D01*
X74230109Y-97722376D01*
X74254050Y-97721200D01*
X74742550Y-97721200D01*
X74766491Y-97722376D01*
G37*
G36*
X73191491Y-97722376D02*
G01*
X73215201Y-97725893D01*
X73238452Y-97731717D01*
X73261020Y-97739792D01*
X73282689Y-97750041D01*
X73303248Y-97762364D01*
X73322501Y-97776642D01*
X73340261Y-97792739D01*
X73356358Y-97810499D01*
X73370636Y-97829752D01*
X73382959Y-97850311D01*
X73393208Y-97871980D01*
X73401283Y-97894548D01*
X73407107Y-97917799D01*
X73410624Y-97941509D01*
X73411800Y-97965450D01*
X73411800Y-98528950D01*
X73410624Y-98552891D01*
X73407107Y-98576601D01*
X73401283Y-98599852D01*
X73393208Y-98622420D01*
X73382959Y-98644089D01*
X73370636Y-98664648D01*
X73356358Y-98683901D01*
X73340261Y-98701661D01*
X73322501Y-98717758D01*
X73303248Y-98732036D01*
X73282689Y-98744359D01*
X73261020Y-98754608D01*
X73238452Y-98762683D01*
X73215201Y-98768507D01*
X73191491Y-98772024D01*
X73167550Y-98773200D01*
X72679050Y-98773200D01*
X72655109Y-98772024D01*
X72631399Y-98768507D01*
X72608148Y-98762683D01*
X72585580Y-98754608D01*
X72563911Y-98744359D01*
X72543352Y-98732036D01*
X72524099Y-98717758D01*
X72506339Y-98701661D01*
X72490242Y-98683901D01*
X72475964Y-98664648D01*
X72463641Y-98644089D01*
X72453392Y-98622420D01*
X72445317Y-98599852D01*
X72439493Y-98576601D01*
X72435976Y-98552891D01*
X72434800Y-98528950D01*
X72434800Y-97965450D01*
X72435976Y-97941509D01*
X72439493Y-97917799D01*
X72445317Y-97894548D01*
X72453392Y-97871980D01*
X72463641Y-97850311D01*
X72475964Y-97829752D01*
X72490242Y-97810499D01*
X72506339Y-97792739D01*
X72524099Y-97776642D01*
X72543352Y-97762364D01*
X72563911Y-97750041D01*
X72585580Y-97739792D01*
X72608148Y-97731717D01*
X72631399Y-97725893D01*
X72655109Y-97722376D01*
X72679050Y-97721200D01*
X73167550Y-97721200D01*
X73191491Y-97722376D01*
G37*
%TD*%
%TO.C,C6*%
G36*
X70107304Y-99252902D02*
G01*
X70133552Y-99256796D01*
X70159293Y-99263243D01*
X70184278Y-99272183D01*
X70208266Y-99283528D01*
X70231026Y-99297171D01*
X70252340Y-99312978D01*
X70272002Y-99330798D01*
X70289822Y-99350460D01*
X70305629Y-99371774D01*
X70319272Y-99394534D01*
X70330617Y-99418522D01*
X70339557Y-99443507D01*
X70346004Y-99469248D01*
X70349898Y-99495496D01*
X70351200Y-99522000D01*
X70351200Y-100833200D01*
X70349898Y-100859704D01*
X70346004Y-100885952D01*
X70339557Y-100911693D01*
X70330617Y-100936678D01*
X70319272Y-100960666D01*
X70305629Y-100983426D01*
X70289822Y-101004740D01*
X70272002Y-101024402D01*
X70252340Y-101042222D01*
X70231026Y-101058029D01*
X70208266Y-101071672D01*
X70184278Y-101083017D01*
X70159293Y-101091957D01*
X70133552Y-101098404D01*
X70107304Y-101102298D01*
X70080800Y-101103600D01*
X69269600Y-101103600D01*
X69243096Y-101102298D01*
X69216848Y-101098404D01*
X69191107Y-101091957D01*
X69166122Y-101083017D01*
X69142134Y-101071672D01*
X69119374Y-101058029D01*
X69098060Y-101042222D01*
X69078398Y-101024402D01*
X69060578Y-101004740D01*
X69044771Y-100983426D01*
X69031128Y-100960666D01*
X69019783Y-100936678D01*
X69010843Y-100911693D01*
X69004396Y-100885952D01*
X69000502Y-100859704D01*
X68999200Y-100833200D01*
X68999200Y-99522000D01*
X69000502Y-99495496D01*
X69004396Y-99469248D01*
X69010843Y-99443507D01*
X69019783Y-99418522D01*
X69031128Y-99394534D01*
X69044771Y-99371774D01*
X69060578Y-99350460D01*
X69078398Y-99330798D01*
X69098060Y-99312978D01*
X69119374Y-99297171D01*
X69142134Y-99283528D01*
X69166122Y-99272183D01*
X69191107Y-99263243D01*
X69216848Y-99256796D01*
X69243096Y-99252902D01*
X69269600Y-99251600D01*
X70080800Y-99251600D01*
X70107304Y-99252902D01*
G37*
G36*
X67307304Y-99252902D02*
G01*
X67333552Y-99256796D01*
X67359293Y-99263243D01*
X67384278Y-99272183D01*
X67408266Y-99283528D01*
X67431026Y-99297171D01*
X67452340Y-99312978D01*
X67472002Y-99330798D01*
X67489822Y-99350460D01*
X67505629Y-99371774D01*
X67519272Y-99394534D01*
X67530617Y-99418522D01*
X67539557Y-99443507D01*
X67546004Y-99469248D01*
X67549898Y-99495496D01*
X67551200Y-99522000D01*
X67551200Y-100833200D01*
X67549898Y-100859704D01*
X67546004Y-100885952D01*
X67539557Y-100911693D01*
X67530617Y-100936678D01*
X67519272Y-100960666D01*
X67505629Y-100983426D01*
X67489822Y-101004740D01*
X67472002Y-101024402D01*
X67452340Y-101042222D01*
X67431026Y-101058029D01*
X67408266Y-101071672D01*
X67384278Y-101083017D01*
X67359293Y-101091957D01*
X67333552Y-101098404D01*
X67307304Y-101102298D01*
X67280800Y-101103600D01*
X66469600Y-101103600D01*
X66443096Y-101102298D01*
X66416848Y-101098404D01*
X66391107Y-101091957D01*
X66366122Y-101083017D01*
X66342134Y-101071672D01*
X66319374Y-101058029D01*
X66298060Y-101042222D01*
X66278398Y-101024402D01*
X66260578Y-101004740D01*
X66244771Y-100983426D01*
X66231128Y-100960666D01*
X66219783Y-100936678D01*
X66210843Y-100911693D01*
X66204396Y-100885952D01*
X66200502Y-100859704D01*
X66199200Y-100833200D01*
X66199200Y-99522000D01*
X66200502Y-99495496D01*
X66204396Y-99469248D01*
X66210843Y-99443507D01*
X66219783Y-99418522D01*
X66231128Y-99394534D01*
X66244771Y-99371774D01*
X66260578Y-99350460D01*
X66278398Y-99330798D01*
X66298060Y-99312978D01*
X66319374Y-99297171D01*
X66342134Y-99283528D01*
X66366122Y-99272183D01*
X66391107Y-99263243D01*
X66416848Y-99256796D01*
X66443096Y-99252902D01*
X66469600Y-99251600D01*
X67280800Y-99251600D01*
X67307304Y-99252902D01*
G37*
%TD*%
%TO.C,C5*%
G36*
X74752504Y-99252902D02*
G01*
X74778752Y-99256796D01*
X74804493Y-99263243D01*
X74829478Y-99272183D01*
X74853466Y-99283528D01*
X74876226Y-99297171D01*
X74897540Y-99312978D01*
X74917202Y-99330798D01*
X74935022Y-99350460D01*
X74950829Y-99371774D01*
X74964472Y-99394534D01*
X74975817Y-99418522D01*
X74984757Y-99443507D01*
X74991204Y-99469248D01*
X74995098Y-99495496D01*
X74996400Y-99522000D01*
X74996400Y-100833200D01*
X74995098Y-100859704D01*
X74991204Y-100885952D01*
X74984757Y-100911693D01*
X74975817Y-100936678D01*
X74964472Y-100960666D01*
X74950829Y-100983426D01*
X74935022Y-101004740D01*
X74917202Y-101024402D01*
X74897540Y-101042222D01*
X74876226Y-101058029D01*
X74853466Y-101071672D01*
X74829478Y-101083017D01*
X74804493Y-101091957D01*
X74778752Y-101098404D01*
X74752504Y-101102298D01*
X74726000Y-101103600D01*
X73914800Y-101103600D01*
X73888296Y-101102298D01*
X73862048Y-101098404D01*
X73836307Y-101091957D01*
X73811322Y-101083017D01*
X73787334Y-101071672D01*
X73764574Y-101058029D01*
X73743260Y-101042222D01*
X73723598Y-101024402D01*
X73705778Y-101004740D01*
X73689971Y-100983426D01*
X73676328Y-100960666D01*
X73664983Y-100936678D01*
X73656043Y-100911693D01*
X73649596Y-100885952D01*
X73645702Y-100859704D01*
X73644400Y-100833200D01*
X73644400Y-99522000D01*
X73645702Y-99495496D01*
X73649596Y-99469248D01*
X73656043Y-99443507D01*
X73664983Y-99418522D01*
X73676328Y-99394534D01*
X73689971Y-99371774D01*
X73705778Y-99350460D01*
X73723598Y-99330798D01*
X73743260Y-99312978D01*
X73764574Y-99297171D01*
X73787334Y-99283528D01*
X73811322Y-99272183D01*
X73836307Y-99263243D01*
X73862048Y-99256796D01*
X73888296Y-99252902D01*
X73914800Y-99251600D01*
X74726000Y-99251600D01*
X74752504Y-99252902D01*
G37*
G36*
X71952504Y-99252902D02*
G01*
X71978752Y-99256796D01*
X72004493Y-99263243D01*
X72029478Y-99272183D01*
X72053466Y-99283528D01*
X72076226Y-99297171D01*
X72097540Y-99312978D01*
X72117202Y-99330798D01*
X72135022Y-99350460D01*
X72150829Y-99371774D01*
X72164472Y-99394534D01*
X72175817Y-99418522D01*
X72184757Y-99443507D01*
X72191204Y-99469248D01*
X72195098Y-99495496D01*
X72196400Y-99522000D01*
X72196400Y-100833200D01*
X72195098Y-100859704D01*
X72191204Y-100885952D01*
X72184757Y-100911693D01*
X72175817Y-100936678D01*
X72164472Y-100960666D01*
X72150829Y-100983426D01*
X72135022Y-101004740D01*
X72117202Y-101024402D01*
X72097540Y-101042222D01*
X72076226Y-101058029D01*
X72053466Y-101071672D01*
X72029478Y-101083017D01*
X72004493Y-101091957D01*
X71978752Y-101098404D01*
X71952504Y-101102298D01*
X71926000Y-101103600D01*
X71114800Y-101103600D01*
X71088296Y-101102298D01*
X71062048Y-101098404D01*
X71036307Y-101091957D01*
X71011322Y-101083017D01*
X70987334Y-101071672D01*
X70964574Y-101058029D01*
X70943260Y-101042222D01*
X70923598Y-101024402D01*
X70905778Y-101004740D01*
X70889971Y-100983426D01*
X70876328Y-100960666D01*
X70864983Y-100936678D01*
X70856043Y-100911693D01*
X70849596Y-100885952D01*
X70845702Y-100859704D01*
X70844400Y-100833200D01*
X70844400Y-99522000D01*
X70845702Y-99495496D01*
X70849596Y-99469248D01*
X70856043Y-99443507D01*
X70864983Y-99418522D01*
X70876328Y-99394534D01*
X70889971Y-99371774D01*
X70905778Y-99350460D01*
X70923598Y-99330798D01*
X70943260Y-99312978D01*
X70964574Y-99297171D01*
X70987334Y-99283528D01*
X71011322Y-99272183D01*
X71036307Y-99263243D01*
X71062048Y-99256796D01*
X71088296Y-99252902D01*
X71114800Y-99251600D01*
X71926000Y-99251600D01*
X71952504Y-99252902D01*
G37*
%TD*%
D19*
%TO.C,U2*%
X79294800Y-91998300D03*
X78794800Y-91998300D03*
X79294800Y-93523300D03*
X78794800Y-93523300D03*
X78294800Y-91998300D03*
X78294800Y-93523300D03*
X79794800Y-91998300D03*
X79794800Y-93523300D03*
D20*
X78282300Y-92510800D03*
X78282300Y-93010800D03*
X79807300Y-93010800D03*
X79807300Y-92510800D03*
%TD*%
D16*
%TO.C,U9*%
G36*
X74861001Y-105525004D02*
G01*
X74873184Y-105526811D01*
X74885131Y-105529804D01*
X74896727Y-105533953D01*
X74907860Y-105539219D01*
X74918424Y-105545551D01*
X74928316Y-105552887D01*
X74937442Y-105561158D01*
X74945713Y-105570284D01*
X74953049Y-105580176D01*
X74959381Y-105590740D01*
X74964647Y-105601873D01*
X74968796Y-105613469D01*
X74971789Y-105625416D01*
X74973596Y-105637599D01*
X74974200Y-105649900D01*
X74974200Y-105900900D01*
X74973596Y-105913201D01*
X74971789Y-105925384D01*
X74968796Y-105937331D01*
X74964647Y-105948927D01*
X74959381Y-105960060D01*
X74953049Y-105970624D01*
X74945713Y-105980516D01*
X74937442Y-105989642D01*
X74928316Y-105997913D01*
X74918424Y-106005249D01*
X74907860Y-106011581D01*
X74896727Y-106016847D01*
X74885131Y-106020996D01*
X74873184Y-106023989D01*
X74861001Y-106025796D01*
X74848700Y-106026400D01*
X73522700Y-106026400D01*
X73510399Y-106025796D01*
X73498216Y-106023989D01*
X73486269Y-106020996D01*
X73474673Y-106016847D01*
X73463540Y-106011581D01*
X73452976Y-106005249D01*
X73443084Y-105997913D01*
X73433958Y-105989642D01*
X73425687Y-105980516D01*
X73418351Y-105970624D01*
X73412019Y-105960060D01*
X73406753Y-105948927D01*
X73402604Y-105937331D01*
X73399611Y-105925384D01*
X73397804Y-105913201D01*
X73397200Y-105900900D01*
X73397200Y-105649900D01*
X73397804Y-105637599D01*
X73399611Y-105625416D01*
X73402604Y-105613469D01*
X73406753Y-105601873D01*
X73412019Y-105590740D01*
X73418351Y-105580176D01*
X73425687Y-105570284D01*
X73433958Y-105561158D01*
X73443084Y-105552887D01*
X73452976Y-105545551D01*
X73463540Y-105539219D01*
X73474673Y-105533953D01*
X73486269Y-105529804D01*
X73498216Y-105526811D01*
X73510399Y-105525004D01*
X73522700Y-105524400D01*
X74848700Y-105524400D01*
X74861001Y-105525004D01*
G37*
G36*
X74861001Y-104875004D02*
G01*
X74873184Y-104876811D01*
X74885131Y-104879804D01*
X74896727Y-104883953D01*
X74907860Y-104889219D01*
X74918424Y-104895551D01*
X74928316Y-104902887D01*
X74937442Y-104911158D01*
X74945713Y-104920284D01*
X74953049Y-104930176D01*
X74959381Y-104940740D01*
X74964647Y-104951873D01*
X74968796Y-104963469D01*
X74971789Y-104975416D01*
X74973596Y-104987599D01*
X74974200Y-104999900D01*
X74974200Y-105250900D01*
X74973596Y-105263201D01*
X74971789Y-105275384D01*
X74968796Y-105287331D01*
X74964647Y-105298927D01*
X74959381Y-105310060D01*
X74953049Y-105320624D01*
X74945713Y-105330516D01*
X74937442Y-105339642D01*
X74928316Y-105347913D01*
X74918424Y-105355249D01*
X74907860Y-105361581D01*
X74896727Y-105366847D01*
X74885131Y-105370996D01*
X74873184Y-105373989D01*
X74861001Y-105375796D01*
X74848700Y-105376400D01*
X73522700Y-105376400D01*
X73510399Y-105375796D01*
X73498216Y-105373989D01*
X73486269Y-105370996D01*
X73474673Y-105366847D01*
X73463540Y-105361581D01*
X73452976Y-105355249D01*
X73443084Y-105347913D01*
X73433958Y-105339642D01*
X73425687Y-105330516D01*
X73418351Y-105320624D01*
X73412019Y-105310060D01*
X73406753Y-105298927D01*
X73402604Y-105287331D01*
X73399611Y-105275384D01*
X73397804Y-105263201D01*
X73397200Y-105250900D01*
X73397200Y-104999900D01*
X73397804Y-104987599D01*
X73399611Y-104975416D01*
X73402604Y-104963469D01*
X73406753Y-104951873D01*
X73412019Y-104940740D01*
X73418351Y-104930176D01*
X73425687Y-104920284D01*
X73433958Y-104911158D01*
X73443084Y-104902887D01*
X73452976Y-104895551D01*
X73463540Y-104889219D01*
X73474673Y-104883953D01*
X73486269Y-104879804D01*
X73498216Y-104876811D01*
X73510399Y-104875004D01*
X73522700Y-104874400D01*
X74848700Y-104874400D01*
X74861001Y-104875004D01*
G37*
G36*
X74861001Y-104225004D02*
G01*
X74873184Y-104226811D01*
X74885131Y-104229804D01*
X74896727Y-104233953D01*
X74907860Y-104239219D01*
X74918424Y-104245551D01*
X74928316Y-104252887D01*
X74937442Y-104261158D01*
X74945713Y-104270284D01*
X74953049Y-104280176D01*
X74959381Y-104290740D01*
X74964647Y-104301873D01*
X74968796Y-104313469D01*
X74971789Y-104325416D01*
X74973596Y-104337599D01*
X74974200Y-104349900D01*
X74974200Y-104600900D01*
X74973596Y-104613201D01*
X74971789Y-104625384D01*
X74968796Y-104637331D01*
X74964647Y-104648927D01*
X74959381Y-104660060D01*
X74953049Y-104670624D01*
X74945713Y-104680516D01*
X74937442Y-104689642D01*
X74928316Y-104697913D01*
X74918424Y-104705249D01*
X74907860Y-104711581D01*
X74896727Y-104716847D01*
X74885131Y-104720996D01*
X74873184Y-104723989D01*
X74861001Y-104725796D01*
X74848700Y-104726400D01*
X73522700Y-104726400D01*
X73510399Y-104725796D01*
X73498216Y-104723989D01*
X73486269Y-104720996D01*
X73474673Y-104716847D01*
X73463540Y-104711581D01*
X73452976Y-104705249D01*
X73443084Y-104697913D01*
X73433958Y-104689642D01*
X73425687Y-104680516D01*
X73418351Y-104670624D01*
X73412019Y-104660060D01*
X73406753Y-104648927D01*
X73402604Y-104637331D01*
X73399611Y-104625384D01*
X73397804Y-104613201D01*
X73397200Y-104600900D01*
X73397200Y-104349900D01*
X73397804Y-104337599D01*
X73399611Y-104325416D01*
X73402604Y-104313469D01*
X73406753Y-104301873D01*
X73412019Y-104290740D01*
X73418351Y-104280176D01*
X73425687Y-104270284D01*
X73433958Y-104261158D01*
X73443084Y-104252887D01*
X73452976Y-104245551D01*
X73463540Y-104239219D01*
X73474673Y-104233953D01*
X73486269Y-104229804D01*
X73498216Y-104226811D01*
X73510399Y-104225004D01*
X73522700Y-104224400D01*
X74848700Y-104224400D01*
X74861001Y-104225004D01*
G37*
G36*
X74861001Y-103575004D02*
G01*
X74873184Y-103576811D01*
X74885131Y-103579804D01*
X74896727Y-103583953D01*
X74907860Y-103589219D01*
X74918424Y-103595551D01*
X74928316Y-103602887D01*
X74937442Y-103611158D01*
X74945713Y-103620284D01*
X74953049Y-103630176D01*
X74959381Y-103640740D01*
X74964647Y-103651873D01*
X74968796Y-103663469D01*
X74971789Y-103675416D01*
X74973596Y-103687599D01*
X74974200Y-103699900D01*
X74974200Y-103950900D01*
X74973596Y-103963201D01*
X74971789Y-103975384D01*
X74968796Y-103987331D01*
X74964647Y-103998927D01*
X74959381Y-104010060D01*
X74953049Y-104020624D01*
X74945713Y-104030516D01*
X74937442Y-104039642D01*
X74928316Y-104047913D01*
X74918424Y-104055249D01*
X74907860Y-104061581D01*
X74896727Y-104066847D01*
X74885131Y-104070996D01*
X74873184Y-104073989D01*
X74861001Y-104075796D01*
X74848700Y-104076400D01*
X73522700Y-104076400D01*
X73510399Y-104075796D01*
X73498216Y-104073989D01*
X73486269Y-104070996D01*
X73474673Y-104066847D01*
X73463540Y-104061581D01*
X73452976Y-104055249D01*
X73443084Y-104047913D01*
X73433958Y-104039642D01*
X73425687Y-104030516D01*
X73418351Y-104020624D01*
X73412019Y-104010060D01*
X73406753Y-103998927D01*
X73402604Y-103987331D01*
X73399611Y-103975384D01*
X73397804Y-103963201D01*
X73397200Y-103950900D01*
X73397200Y-103699900D01*
X73397804Y-103687599D01*
X73399611Y-103675416D01*
X73402604Y-103663469D01*
X73406753Y-103651873D01*
X73412019Y-103640740D01*
X73418351Y-103630176D01*
X73425687Y-103620284D01*
X73433958Y-103611158D01*
X73443084Y-103602887D01*
X73452976Y-103595551D01*
X73463540Y-103589219D01*
X73474673Y-103583953D01*
X73486269Y-103579804D01*
X73498216Y-103576811D01*
X73510399Y-103575004D01*
X73522700Y-103574400D01*
X74848700Y-103574400D01*
X74861001Y-103575004D01*
G37*
G36*
X69136001Y-103575004D02*
G01*
X69148184Y-103576811D01*
X69160131Y-103579804D01*
X69171727Y-103583953D01*
X69182860Y-103589219D01*
X69193424Y-103595551D01*
X69203316Y-103602887D01*
X69212442Y-103611158D01*
X69220713Y-103620284D01*
X69228049Y-103630176D01*
X69234381Y-103640740D01*
X69239647Y-103651873D01*
X69243796Y-103663469D01*
X69246789Y-103675416D01*
X69248596Y-103687599D01*
X69249200Y-103699900D01*
X69249200Y-103950900D01*
X69248596Y-103963201D01*
X69246789Y-103975384D01*
X69243796Y-103987331D01*
X69239647Y-103998927D01*
X69234381Y-104010060D01*
X69228049Y-104020624D01*
X69220713Y-104030516D01*
X69212442Y-104039642D01*
X69203316Y-104047913D01*
X69193424Y-104055249D01*
X69182860Y-104061581D01*
X69171727Y-104066847D01*
X69160131Y-104070996D01*
X69148184Y-104073989D01*
X69136001Y-104075796D01*
X69123700Y-104076400D01*
X67797700Y-104076400D01*
X67785399Y-104075796D01*
X67773216Y-104073989D01*
X67761269Y-104070996D01*
X67749673Y-104066847D01*
X67738540Y-104061581D01*
X67727976Y-104055249D01*
X67718084Y-104047913D01*
X67708958Y-104039642D01*
X67700687Y-104030516D01*
X67693351Y-104020624D01*
X67687019Y-104010060D01*
X67681753Y-103998927D01*
X67677604Y-103987331D01*
X67674611Y-103975384D01*
X67672804Y-103963201D01*
X67672200Y-103950900D01*
X67672200Y-103699900D01*
X67672804Y-103687599D01*
X67674611Y-103675416D01*
X67677604Y-103663469D01*
X67681753Y-103651873D01*
X67687019Y-103640740D01*
X67693351Y-103630176D01*
X67700687Y-103620284D01*
X67708958Y-103611158D01*
X67718084Y-103602887D01*
X67727976Y-103595551D01*
X67738540Y-103589219D01*
X67749673Y-103583953D01*
X67761269Y-103579804D01*
X67773216Y-103576811D01*
X67785399Y-103575004D01*
X67797700Y-103574400D01*
X69123700Y-103574400D01*
X69136001Y-103575004D01*
G37*
G36*
X69136001Y-104225004D02*
G01*
X69148184Y-104226811D01*
X69160131Y-104229804D01*
X69171727Y-104233953D01*
X69182860Y-104239219D01*
X69193424Y-104245551D01*
X69203316Y-104252887D01*
X69212442Y-104261158D01*
X69220713Y-104270284D01*
X69228049Y-104280176D01*
X69234381Y-104290740D01*
X69239647Y-104301873D01*
X69243796Y-104313469D01*
X69246789Y-104325416D01*
X69248596Y-104337599D01*
X69249200Y-104349900D01*
X69249200Y-104600900D01*
X69248596Y-104613201D01*
X69246789Y-104625384D01*
X69243796Y-104637331D01*
X69239647Y-104648927D01*
X69234381Y-104660060D01*
X69228049Y-104670624D01*
X69220713Y-104680516D01*
X69212442Y-104689642D01*
X69203316Y-104697913D01*
X69193424Y-104705249D01*
X69182860Y-104711581D01*
X69171727Y-104716847D01*
X69160131Y-104720996D01*
X69148184Y-104723989D01*
X69136001Y-104725796D01*
X69123700Y-104726400D01*
X67797700Y-104726400D01*
X67785399Y-104725796D01*
X67773216Y-104723989D01*
X67761269Y-104720996D01*
X67749673Y-104716847D01*
X67738540Y-104711581D01*
X67727976Y-104705249D01*
X67718084Y-104697913D01*
X67708958Y-104689642D01*
X67700687Y-104680516D01*
X67693351Y-104670624D01*
X67687019Y-104660060D01*
X67681753Y-104648927D01*
X67677604Y-104637331D01*
X67674611Y-104625384D01*
X67672804Y-104613201D01*
X67672200Y-104600900D01*
X67672200Y-104349900D01*
X67672804Y-104337599D01*
X67674611Y-104325416D01*
X67677604Y-104313469D01*
X67681753Y-104301873D01*
X67687019Y-104290740D01*
X67693351Y-104280176D01*
X67700687Y-104270284D01*
X67708958Y-104261158D01*
X67718084Y-104252887D01*
X67727976Y-104245551D01*
X67738540Y-104239219D01*
X67749673Y-104233953D01*
X67761269Y-104229804D01*
X67773216Y-104226811D01*
X67785399Y-104225004D01*
X67797700Y-104224400D01*
X69123700Y-104224400D01*
X69136001Y-104225004D01*
G37*
G36*
X69136001Y-104875004D02*
G01*
X69148184Y-104876811D01*
X69160131Y-104879804D01*
X69171727Y-104883953D01*
X69182860Y-104889219D01*
X69193424Y-104895551D01*
X69203316Y-104902887D01*
X69212442Y-104911158D01*
X69220713Y-104920284D01*
X69228049Y-104930176D01*
X69234381Y-104940740D01*
X69239647Y-104951873D01*
X69243796Y-104963469D01*
X69246789Y-104975416D01*
X69248596Y-104987599D01*
X69249200Y-104999900D01*
X69249200Y-105250900D01*
X69248596Y-105263201D01*
X69246789Y-105275384D01*
X69243796Y-105287331D01*
X69239647Y-105298927D01*
X69234381Y-105310060D01*
X69228049Y-105320624D01*
X69220713Y-105330516D01*
X69212442Y-105339642D01*
X69203316Y-105347913D01*
X69193424Y-105355249D01*
X69182860Y-105361581D01*
X69171727Y-105366847D01*
X69160131Y-105370996D01*
X69148184Y-105373989D01*
X69136001Y-105375796D01*
X69123700Y-105376400D01*
X67797700Y-105376400D01*
X67785399Y-105375796D01*
X67773216Y-105373989D01*
X67761269Y-105370996D01*
X67749673Y-105366847D01*
X67738540Y-105361581D01*
X67727976Y-105355249D01*
X67718084Y-105347913D01*
X67708958Y-105339642D01*
X67700687Y-105330516D01*
X67693351Y-105320624D01*
X67687019Y-105310060D01*
X67681753Y-105298927D01*
X67677604Y-105287331D01*
X67674611Y-105275384D01*
X67672804Y-105263201D01*
X67672200Y-105250900D01*
X67672200Y-104999900D01*
X67672804Y-104987599D01*
X67674611Y-104975416D01*
X67677604Y-104963469D01*
X67681753Y-104951873D01*
X67687019Y-104940740D01*
X67693351Y-104930176D01*
X67700687Y-104920284D01*
X67708958Y-104911158D01*
X67718084Y-104902887D01*
X67727976Y-104895551D01*
X67738540Y-104889219D01*
X67749673Y-104883953D01*
X67761269Y-104879804D01*
X67773216Y-104876811D01*
X67785399Y-104875004D01*
X67797700Y-104874400D01*
X69123700Y-104874400D01*
X69136001Y-104875004D01*
G37*
G36*
X69136001Y-105525004D02*
G01*
X69148184Y-105526811D01*
X69160131Y-105529804D01*
X69171727Y-105533953D01*
X69182860Y-105539219D01*
X69193424Y-105545551D01*
X69203316Y-105552887D01*
X69212442Y-105561158D01*
X69220713Y-105570284D01*
X69228049Y-105580176D01*
X69234381Y-105590740D01*
X69239647Y-105601873D01*
X69243796Y-105613469D01*
X69246789Y-105625416D01*
X69248596Y-105637599D01*
X69249200Y-105649900D01*
X69249200Y-105900900D01*
X69248596Y-105913201D01*
X69246789Y-105925384D01*
X69243796Y-105937331D01*
X69239647Y-105948927D01*
X69234381Y-105960060D01*
X69228049Y-105970624D01*
X69220713Y-105980516D01*
X69212442Y-105989642D01*
X69203316Y-105997913D01*
X69193424Y-106005249D01*
X69182860Y-106011581D01*
X69171727Y-106016847D01*
X69160131Y-106020996D01*
X69148184Y-106023989D01*
X69136001Y-106025796D01*
X69123700Y-106026400D01*
X67797700Y-106026400D01*
X67785399Y-106025796D01*
X67773216Y-106023989D01*
X67761269Y-106020996D01*
X67749673Y-106016847D01*
X67738540Y-106011581D01*
X67727976Y-106005249D01*
X67718084Y-105997913D01*
X67708958Y-105989642D01*
X67700687Y-105980516D01*
X67693351Y-105970624D01*
X67687019Y-105960060D01*
X67681753Y-105948927D01*
X67677604Y-105937331D01*
X67674611Y-105925384D01*
X67672804Y-105913201D01*
X67672200Y-105900900D01*
X67672200Y-105649900D01*
X67672804Y-105637599D01*
X67674611Y-105625416D01*
X67677604Y-105613469D01*
X67681753Y-105601873D01*
X67687019Y-105590740D01*
X67693351Y-105580176D01*
X67700687Y-105570284D01*
X67708958Y-105561158D01*
X67718084Y-105552887D01*
X67727976Y-105545551D01*
X67738540Y-105539219D01*
X67749673Y-105533953D01*
X67761269Y-105529804D01*
X67773216Y-105526811D01*
X67785399Y-105525004D01*
X67797700Y-105524400D01*
X69123700Y-105524400D01*
X69136001Y-105525004D01*
G37*
%TD*%
%TO.C,R19*%
G36*
X74766491Y-101633976D02*
G01*
X74790201Y-101637493D01*
X74813452Y-101643317D01*
X74836020Y-101651392D01*
X74857689Y-101661641D01*
X74878248Y-101673964D01*
X74897501Y-101688242D01*
X74915261Y-101704339D01*
X74931358Y-101722099D01*
X74945636Y-101741352D01*
X74957959Y-101761911D01*
X74968208Y-101783580D01*
X74976283Y-101806148D01*
X74982107Y-101829399D01*
X74985624Y-101853109D01*
X74986800Y-101877050D01*
X74986800Y-102440550D01*
X74985624Y-102464491D01*
X74982107Y-102488201D01*
X74976283Y-102511452D01*
X74968208Y-102534020D01*
X74957959Y-102555689D01*
X74945636Y-102576248D01*
X74931358Y-102595501D01*
X74915261Y-102613261D01*
X74897501Y-102629358D01*
X74878248Y-102643636D01*
X74857689Y-102655959D01*
X74836020Y-102666208D01*
X74813452Y-102674283D01*
X74790201Y-102680107D01*
X74766491Y-102683624D01*
X74742550Y-102684800D01*
X74254050Y-102684800D01*
X74230109Y-102683624D01*
X74206399Y-102680107D01*
X74183148Y-102674283D01*
X74160580Y-102666208D01*
X74138911Y-102655959D01*
X74118352Y-102643636D01*
X74099099Y-102629358D01*
X74081339Y-102613261D01*
X74065242Y-102595501D01*
X74050964Y-102576248D01*
X74038641Y-102555689D01*
X74028392Y-102534020D01*
X74020317Y-102511452D01*
X74014493Y-102488201D01*
X74010976Y-102464491D01*
X74009800Y-102440550D01*
X74009800Y-101877050D01*
X74010976Y-101853109D01*
X74014493Y-101829399D01*
X74020317Y-101806148D01*
X74028392Y-101783580D01*
X74038641Y-101761911D01*
X74050964Y-101741352D01*
X74065242Y-101722099D01*
X74081339Y-101704339D01*
X74099099Y-101688242D01*
X74118352Y-101673964D01*
X74138911Y-101661641D01*
X74160580Y-101651392D01*
X74183148Y-101643317D01*
X74206399Y-101637493D01*
X74230109Y-101633976D01*
X74254050Y-101632800D01*
X74742550Y-101632800D01*
X74766491Y-101633976D01*
G37*
G36*
X73191491Y-101633976D02*
G01*
X73215201Y-101637493D01*
X73238452Y-101643317D01*
X73261020Y-101651392D01*
X73282689Y-101661641D01*
X73303248Y-101673964D01*
X73322501Y-101688242D01*
X73340261Y-101704339D01*
X73356358Y-101722099D01*
X73370636Y-101741352D01*
X73382959Y-101761911D01*
X73393208Y-101783580D01*
X73401283Y-101806148D01*
X73407107Y-101829399D01*
X73410624Y-101853109D01*
X73411800Y-101877050D01*
X73411800Y-102440550D01*
X73410624Y-102464491D01*
X73407107Y-102488201D01*
X73401283Y-102511452D01*
X73393208Y-102534020D01*
X73382959Y-102555689D01*
X73370636Y-102576248D01*
X73356358Y-102595501D01*
X73340261Y-102613261D01*
X73322501Y-102629358D01*
X73303248Y-102643636D01*
X73282689Y-102655959D01*
X73261020Y-102666208D01*
X73238452Y-102674283D01*
X73215201Y-102680107D01*
X73191491Y-102683624D01*
X73167550Y-102684800D01*
X72679050Y-102684800D01*
X72655109Y-102683624D01*
X72631399Y-102680107D01*
X72608148Y-102674283D01*
X72585580Y-102666208D01*
X72563911Y-102655959D01*
X72543352Y-102643636D01*
X72524099Y-102629358D01*
X72506339Y-102613261D01*
X72490242Y-102595501D01*
X72475964Y-102576248D01*
X72463641Y-102555689D01*
X72453392Y-102534020D01*
X72445317Y-102511452D01*
X72439493Y-102488201D01*
X72435976Y-102464491D01*
X72434800Y-102440550D01*
X72434800Y-101877050D01*
X72435976Y-101853109D01*
X72439493Y-101829399D01*
X72445317Y-101806148D01*
X72453392Y-101783580D01*
X72463641Y-101761911D01*
X72475964Y-101741352D01*
X72490242Y-101722099D01*
X72506339Y-101704339D01*
X72524099Y-101688242D01*
X72543352Y-101673964D01*
X72563911Y-101661641D01*
X72585580Y-101651392D01*
X72608148Y-101643317D01*
X72631399Y-101637493D01*
X72655109Y-101633976D01*
X72679050Y-101632800D01*
X73167550Y-101632800D01*
X73191491Y-101633976D01*
G37*
%TD*%
%TO.C,C13*%
G36*
X76962891Y-89606376D02*
G01*
X76986601Y-89609893D01*
X77009852Y-89615717D01*
X77032420Y-89623792D01*
X77054089Y-89634041D01*
X77074648Y-89646364D01*
X77093901Y-89660642D01*
X77111661Y-89676739D01*
X77127758Y-89694499D01*
X77142036Y-89713752D01*
X77154359Y-89734311D01*
X77164608Y-89755980D01*
X77172683Y-89778548D01*
X77178507Y-89801799D01*
X77182024Y-89825509D01*
X77183200Y-89849450D01*
X77183200Y-90337950D01*
X77182024Y-90361891D01*
X77178507Y-90385601D01*
X77172683Y-90408852D01*
X77164608Y-90431420D01*
X77154359Y-90453089D01*
X77142036Y-90473648D01*
X77127758Y-90492901D01*
X77111661Y-90510661D01*
X77093901Y-90526758D01*
X77074648Y-90541036D01*
X77054089Y-90553359D01*
X77032420Y-90563608D01*
X77009852Y-90571683D01*
X76986601Y-90577507D01*
X76962891Y-90581024D01*
X76938950Y-90582200D01*
X76375450Y-90582200D01*
X76351509Y-90581024D01*
X76327799Y-90577507D01*
X76304548Y-90571683D01*
X76281980Y-90563608D01*
X76260311Y-90553359D01*
X76239752Y-90541036D01*
X76220499Y-90526758D01*
X76202739Y-90510661D01*
X76186642Y-90492901D01*
X76172364Y-90473648D01*
X76160041Y-90453089D01*
X76149792Y-90431420D01*
X76141717Y-90408852D01*
X76135893Y-90385601D01*
X76132376Y-90361891D01*
X76131200Y-90337950D01*
X76131200Y-89849450D01*
X76132376Y-89825509D01*
X76135893Y-89801799D01*
X76141717Y-89778548D01*
X76149792Y-89755980D01*
X76160041Y-89734311D01*
X76172364Y-89713752D01*
X76186642Y-89694499D01*
X76202739Y-89676739D01*
X76220499Y-89660642D01*
X76239752Y-89646364D01*
X76260311Y-89634041D01*
X76281980Y-89623792D01*
X76304548Y-89615717D01*
X76327799Y-89609893D01*
X76351509Y-89606376D01*
X76375450Y-89605200D01*
X76938950Y-89605200D01*
X76962891Y-89606376D01*
G37*
G36*
X76962891Y-91181376D02*
G01*
X76986601Y-91184893D01*
X77009852Y-91190717D01*
X77032420Y-91198792D01*
X77054089Y-91209041D01*
X77074648Y-91221364D01*
X77093901Y-91235642D01*
X77111661Y-91251739D01*
X77127758Y-91269499D01*
X77142036Y-91288752D01*
X77154359Y-91309311D01*
X77164608Y-91330980D01*
X77172683Y-91353548D01*
X77178507Y-91376799D01*
X77182024Y-91400509D01*
X77183200Y-91424450D01*
X77183200Y-91912950D01*
X77182024Y-91936891D01*
X77178507Y-91960601D01*
X77172683Y-91983852D01*
X77164608Y-92006420D01*
X77154359Y-92028089D01*
X77142036Y-92048648D01*
X77127758Y-92067901D01*
X77111661Y-92085661D01*
X77093901Y-92101758D01*
X77074648Y-92116036D01*
X77054089Y-92128359D01*
X77032420Y-92138608D01*
X77009852Y-92146683D01*
X76986601Y-92152507D01*
X76962891Y-92156024D01*
X76938950Y-92157200D01*
X76375450Y-92157200D01*
X76351509Y-92156024D01*
X76327799Y-92152507D01*
X76304548Y-92146683D01*
X76281980Y-92138608D01*
X76260311Y-92128359D01*
X76239752Y-92116036D01*
X76220499Y-92101758D01*
X76202739Y-92085661D01*
X76186642Y-92067901D01*
X76172364Y-92048648D01*
X76160041Y-92028089D01*
X76149792Y-92006420D01*
X76141717Y-91983852D01*
X76135893Y-91960601D01*
X76132376Y-91936891D01*
X76131200Y-91912950D01*
X76131200Y-91424450D01*
X76132376Y-91400509D01*
X76135893Y-91376799D01*
X76141717Y-91353548D01*
X76149792Y-91330980D01*
X76160041Y-91309311D01*
X76172364Y-91288752D01*
X76186642Y-91269499D01*
X76202739Y-91251739D01*
X76220499Y-91235642D01*
X76239752Y-91221364D01*
X76260311Y-91209041D01*
X76281980Y-91198792D01*
X76304548Y-91190717D01*
X76327799Y-91184893D01*
X76351509Y-91181376D01*
X76375450Y-91180200D01*
X76938950Y-91180200D01*
X76962891Y-91181376D01*
G37*
%TD*%
%TO.C,C12*%
G36*
X81903591Y-91219976D02*
G01*
X81927301Y-91223493D01*
X81950552Y-91229317D01*
X81973120Y-91237392D01*
X81994789Y-91247641D01*
X82015348Y-91259964D01*
X82034601Y-91274242D01*
X82052361Y-91290339D01*
X82068458Y-91308099D01*
X82082736Y-91327352D01*
X82095059Y-91347911D01*
X82105308Y-91369580D01*
X82113383Y-91392148D01*
X82119207Y-91415399D01*
X82122724Y-91439109D01*
X82123900Y-91463050D01*
X82123900Y-92026550D01*
X82122724Y-92050491D01*
X82119207Y-92074201D01*
X82113383Y-92097452D01*
X82105308Y-92120020D01*
X82095059Y-92141689D01*
X82082736Y-92162248D01*
X82068458Y-92181501D01*
X82052361Y-92199261D01*
X82034601Y-92215358D01*
X82015348Y-92229636D01*
X81994789Y-92241959D01*
X81973120Y-92252208D01*
X81950552Y-92260283D01*
X81927301Y-92266107D01*
X81903591Y-92269624D01*
X81879650Y-92270800D01*
X81391150Y-92270800D01*
X81367209Y-92269624D01*
X81343499Y-92266107D01*
X81320248Y-92260283D01*
X81297680Y-92252208D01*
X81276011Y-92241959D01*
X81255452Y-92229636D01*
X81236199Y-92215358D01*
X81218439Y-92199261D01*
X81202342Y-92181501D01*
X81188064Y-92162248D01*
X81175741Y-92141689D01*
X81165492Y-92120020D01*
X81157417Y-92097452D01*
X81151593Y-92074201D01*
X81148076Y-92050491D01*
X81146900Y-92026550D01*
X81146900Y-91463050D01*
X81148076Y-91439109D01*
X81151593Y-91415399D01*
X81157417Y-91392148D01*
X81165492Y-91369580D01*
X81175741Y-91347911D01*
X81188064Y-91327352D01*
X81202342Y-91308099D01*
X81218439Y-91290339D01*
X81236199Y-91274242D01*
X81255452Y-91259964D01*
X81276011Y-91247641D01*
X81297680Y-91237392D01*
X81320248Y-91229317D01*
X81343499Y-91223493D01*
X81367209Y-91219976D01*
X81391150Y-91218800D01*
X81879650Y-91218800D01*
X81903591Y-91219976D01*
G37*
G36*
X83478591Y-91219976D02*
G01*
X83502301Y-91223493D01*
X83525552Y-91229317D01*
X83548120Y-91237392D01*
X83569789Y-91247641D01*
X83590348Y-91259964D01*
X83609601Y-91274242D01*
X83627361Y-91290339D01*
X83643458Y-91308099D01*
X83657736Y-91327352D01*
X83670059Y-91347911D01*
X83680308Y-91369580D01*
X83688383Y-91392148D01*
X83694207Y-91415399D01*
X83697724Y-91439109D01*
X83698900Y-91463050D01*
X83698900Y-92026550D01*
X83697724Y-92050491D01*
X83694207Y-92074201D01*
X83688383Y-92097452D01*
X83680308Y-92120020D01*
X83670059Y-92141689D01*
X83657736Y-92162248D01*
X83643458Y-92181501D01*
X83627361Y-92199261D01*
X83609601Y-92215358D01*
X83590348Y-92229636D01*
X83569789Y-92241959D01*
X83548120Y-92252208D01*
X83525552Y-92260283D01*
X83502301Y-92266107D01*
X83478591Y-92269624D01*
X83454650Y-92270800D01*
X82966150Y-92270800D01*
X82942209Y-92269624D01*
X82918499Y-92266107D01*
X82895248Y-92260283D01*
X82872680Y-92252208D01*
X82851011Y-92241959D01*
X82830452Y-92229636D01*
X82811199Y-92215358D01*
X82793439Y-92199261D01*
X82777342Y-92181501D01*
X82763064Y-92162248D01*
X82750741Y-92141689D01*
X82740492Y-92120020D01*
X82732417Y-92097452D01*
X82726593Y-92074201D01*
X82723076Y-92050491D01*
X82721900Y-92026550D01*
X82721900Y-91463050D01*
X82723076Y-91439109D01*
X82726593Y-91415399D01*
X82732417Y-91392148D01*
X82740492Y-91369580D01*
X82750741Y-91347911D01*
X82763064Y-91327352D01*
X82777342Y-91308099D01*
X82793439Y-91290339D01*
X82811199Y-91274242D01*
X82830452Y-91259964D01*
X82851011Y-91247641D01*
X82872680Y-91237392D01*
X82895248Y-91229317D01*
X82918499Y-91223493D01*
X82942209Y-91219976D01*
X82966150Y-91218800D01*
X83454650Y-91218800D01*
X83478591Y-91219976D01*
G37*
%TD*%
%TO.C,C9*%
G36*
X87364891Y-111235176D02*
G01*
X87388601Y-111238693D01*
X87411852Y-111244517D01*
X87434420Y-111252592D01*
X87456089Y-111262841D01*
X87476648Y-111275164D01*
X87495901Y-111289442D01*
X87513661Y-111305539D01*
X87529758Y-111323299D01*
X87544036Y-111342552D01*
X87556359Y-111363111D01*
X87566608Y-111384780D01*
X87574683Y-111407348D01*
X87580507Y-111430599D01*
X87584024Y-111454309D01*
X87585200Y-111478250D01*
X87585200Y-112041750D01*
X87584024Y-112065691D01*
X87580507Y-112089401D01*
X87574683Y-112112652D01*
X87566608Y-112135220D01*
X87556359Y-112156889D01*
X87544036Y-112177448D01*
X87529758Y-112196701D01*
X87513661Y-112214461D01*
X87495901Y-112230558D01*
X87476648Y-112244836D01*
X87456089Y-112257159D01*
X87434420Y-112267408D01*
X87411852Y-112275483D01*
X87388601Y-112281307D01*
X87364891Y-112284824D01*
X87340950Y-112286000D01*
X86852450Y-112286000D01*
X86828509Y-112284824D01*
X86804799Y-112281307D01*
X86781548Y-112275483D01*
X86758980Y-112267408D01*
X86737311Y-112257159D01*
X86716752Y-112244836D01*
X86697499Y-112230558D01*
X86679739Y-112214461D01*
X86663642Y-112196701D01*
X86649364Y-112177448D01*
X86637041Y-112156889D01*
X86626792Y-112135220D01*
X86618717Y-112112652D01*
X86612893Y-112089401D01*
X86609376Y-112065691D01*
X86608200Y-112041750D01*
X86608200Y-111478250D01*
X86609376Y-111454309D01*
X86612893Y-111430599D01*
X86618717Y-111407348D01*
X86626792Y-111384780D01*
X86637041Y-111363111D01*
X86649364Y-111342552D01*
X86663642Y-111323299D01*
X86679739Y-111305539D01*
X86697499Y-111289442D01*
X86716752Y-111275164D01*
X86737311Y-111262841D01*
X86758980Y-111252592D01*
X86781548Y-111244517D01*
X86804799Y-111238693D01*
X86828509Y-111235176D01*
X86852450Y-111234000D01*
X87340950Y-111234000D01*
X87364891Y-111235176D01*
G37*
G36*
X85789891Y-111235176D02*
G01*
X85813601Y-111238693D01*
X85836852Y-111244517D01*
X85859420Y-111252592D01*
X85881089Y-111262841D01*
X85901648Y-111275164D01*
X85920901Y-111289442D01*
X85938661Y-111305539D01*
X85954758Y-111323299D01*
X85969036Y-111342552D01*
X85981359Y-111363111D01*
X85991608Y-111384780D01*
X85999683Y-111407348D01*
X86005507Y-111430599D01*
X86009024Y-111454309D01*
X86010200Y-111478250D01*
X86010200Y-112041750D01*
X86009024Y-112065691D01*
X86005507Y-112089401D01*
X85999683Y-112112652D01*
X85991608Y-112135220D01*
X85981359Y-112156889D01*
X85969036Y-112177448D01*
X85954758Y-112196701D01*
X85938661Y-112214461D01*
X85920901Y-112230558D01*
X85901648Y-112244836D01*
X85881089Y-112257159D01*
X85859420Y-112267408D01*
X85836852Y-112275483D01*
X85813601Y-112281307D01*
X85789891Y-112284824D01*
X85765950Y-112286000D01*
X85277450Y-112286000D01*
X85253509Y-112284824D01*
X85229799Y-112281307D01*
X85206548Y-112275483D01*
X85183980Y-112267408D01*
X85162311Y-112257159D01*
X85141752Y-112244836D01*
X85122499Y-112230558D01*
X85104739Y-112214461D01*
X85088642Y-112196701D01*
X85074364Y-112177448D01*
X85062041Y-112156889D01*
X85051792Y-112135220D01*
X85043717Y-112112652D01*
X85037893Y-112089401D01*
X85034376Y-112065691D01*
X85033200Y-112041750D01*
X85033200Y-111478250D01*
X85034376Y-111454309D01*
X85037893Y-111430599D01*
X85043717Y-111407348D01*
X85051792Y-111384780D01*
X85062041Y-111363111D01*
X85074364Y-111342552D01*
X85088642Y-111323299D01*
X85104739Y-111305539D01*
X85122499Y-111289442D01*
X85141752Y-111275164D01*
X85162311Y-111262841D01*
X85183980Y-111252592D01*
X85206548Y-111244517D01*
X85229799Y-111238693D01*
X85253509Y-111235176D01*
X85277450Y-111234000D01*
X85765950Y-111234000D01*
X85789891Y-111235176D01*
G37*
%TD*%
%TO.C,C8*%
G36*
X88507591Y-92693176D02*
G01*
X88531301Y-92696693D01*
X88554552Y-92702517D01*
X88577120Y-92710592D01*
X88598789Y-92720841D01*
X88619348Y-92733164D01*
X88638601Y-92747442D01*
X88656361Y-92763539D01*
X88672458Y-92781299D01*
X88686736Y-92800552D01*
X88699059Y-92821111D01*
X88709308Y-92842780D01*
X88717383Y-92865348D01*
X88723207Y-92888599D01*
X88726724Y-92912309D01*
X88727900Y-92936250D01*
X88727900Y-93499750D01*
X88726724Y-93523691D01*
X88723207Y-93547401D01*
X88717383Y-93570652D01*
X88709308Y-93593220D01*
X88699059Y-93614889D01*
X88686736Y-93635448D01*
X88672458Y-93654701D01*
X88656361Y-93672461D01*
X88638601Y-93688558D01*
X88619348Y-93702836D01*
X88598789Y-93715159D01*
X88577120Y-93725408D01*
X88554552Y-93733483D01*
X88531301Y-93739307D01*
X88507591Y-93742824D01*
X88483650Y-93744000D01*
X87995150Y-93744000D01*
X87971209Y-93742824D01*
X87947499Y-93739307D01*
X87924248Y-93733483D01*
X87901680Y-93725408D01*
X87880011Y-93715159D01*
X87859452Y-93702836D01*
X87840199Y-93688558D01*
X87822439Y-93672461D01*
X87806342Y-93654701D01*
X87792064Y-93635448D01*
X87779741Y-93614889D01*
X87769492Y-93593220D01*
X87761417Y-93570652D01*
X87755593Y-93547401D01*
X87752076Y-93523691D01*
X87750900Y-93499750D01*
X87750900Y-92936250D01*
X87752076Y-92912309D01*
X87755593Y-92888599D01*
X87761417Y-92865348D01*
X87769492Y-92842780D01*
X87779741Y-92821111D01*
X87792064Y-92800552D01*
X87806342Y-92781299D01*
X87822439Y-92763539D01*
X87840199Y-92747442D01*
X87859452Y-92733164D01*
X87880011Y-92720841D01*
X87901680Y-92710592D01*
X87924248Y-92702517D01*
X87947499Y-92696693D01*
X87971209Y-92693176D01*
X87995150Y-92692000D01*
X88483650Y-92692000D01*
X88507591Y-92693176D01*
G37*
G36*
X90082591Y-92693176D02*
G01*
X90106301Y-92696693D01*
X90129552Y-92702517D01*
X90152120Y-92710592D01*
X90173789Y-92720841D01*
X90194348Y-92733164D01*
X90213601Y-92747442D01*
X90231361Y-92763539D01*
X90247458Y-92781299D01*
X90261736Y-92800552D01*
X90274059Y-92821111D01*
X90284308Y-92842780D01*
X90292383Y-92865348D01*
X90298207Y-92888599D01*
X90301724Y-92912309D01*
X90302900Y-92936250D01*
X90302900Y-93499750D01*
X90301724Y-93523691D01*
X90298207Y-93547401D01*
X90292383Y-93570652D01*
X90284308Y-93593220D01*
X90274059Y-93614889D01*
X90261736Y-93635448D01*
X90247458Y-93654701D01*
X90231361Y-93672461D01*
X90213601Y-93688558D01*
X90194348Y-93702836D01*
X90173789Y-93715159D01*
X90152120Y-93725408D01*
X90129552Y-93733483D01*
X90106301Y-93739307D01*
X90082591Y-93742824D01*
X90058650Y-93744000D01*
X89570150Y-93744000D01*
X89546209Y-93742824D01*
X89522499Y-93739307D01*
X89499248Y-93733483D01*
X89476680Y-93725408D01*
X89455011Y-93715159D01*
X89434452Y-93702836D01*
X89415199Y-93688558D01*
X89397439Y-93672461D01*
X89381342Y-93654701D01*
X89367064Y-93635448D01*
X89354741Y-93614889D01*
X89344492Y-93593220D01*
X89336417Y-93570652D01*
X89330593Y-93547401D01*
X89327076Y-93523691D01*
X89325900Y-93499750D01*
X89325900Y-92936250D01*
X89327076Y-92912309D01*
X89330593Y-92888599D01*
X89336417Y-92865348D01*
X89344492Y-92842780D01*
X89354741Y-92821111D01*
X89367064Y-92800552D01*
X89381342Y-92781299D01*
X89397439Y-92763539D01*
X89415199Y-92747442D01*
X89434452Y-92733164D01*
X89455011Y-92720841D01*
X89476680Y-92710592D01*
X89499248Y-92702517D01*
X89522499Y-92696693D01*
X89546209Y-92693176D01*
X89570150Y-92692000D01*
X90058650Y-92692000D01*
X90082591Y-92693176D01*
G37*
%TD*%
%TO.C,R17*%
G36*
X62828291Y-109406376D02*
G01*
X62852001Y-109409893D01*
X62875252Y-109415717D01*
X62897820Y-109423792D01*
X62919489Y-109434041D01*
X62940048Y-109446364D01*
X62959301Y-109460642D01*
X62977061Y-109476739D01*
X62993158Y-109494499D01*
X63007436Y-109513752D01*
X63019759Y-109534311D01*
X63030008Y-109555980D01*
X63038083Y-109578548D01*
X63043907Y-109601799D01*
X63047424Y-109625509D01*
X63048600Y-109649450D01*
X63048600Y-110212950D01*
X63047424Y-110236891D01*
X63043907Y-110260601D01*
X63038083Y-110283852D01*
X63030008Y-110306420D01*
X63019759Y-110328089D01*
X63007436Y-110348648D01*
X62993158Y-110367901D01*
X62977061Y-110385661D01*
X62959301Y-110401758D01*
X62940048Y-110416036D01*
X62919489Y-110428359D01*
X62897820Y-110438608D01*
X62875252Y-110446683D01*
X62852001Y-110452507D01*
X62828291Y-110456024D01*
X62804350Y-110457200D01*
X62315850Y-110457200D01*
X62291909Y-110456024D01*
X62268199Y-110452507D01*
X62244948Y-110446683D01*
X62222380Y-110438608D01*
X62200711Y-110428359D01*
X62180152Y-110416036D01*
X62160899Y-110401758D01*
X62143139Y-110385661D01*
X62127042Y-110367901D01*
X62112764Y-110348648D01*
X62100441Y-110328089D01*
X62090192Y-110306420D01*
X62082117Y-110283852D01*
X62076293Y-110260601D01*
X62072776Y-110236891D01*
X62071600Y-110212950D01*
X62071600Y-109649450D01*
X62072776Y-109625509D01*
X62076293Y-109601799D01*
X62082117Y-109578548D01*
X62090192Y-109555980D01*
X62100441Y-109534311D01*
X62112764Y-109513752D01*
X62127042Y-109494499D01*
X62143139Y-109476739D01*
X62160899Y-109460642D01*
X62180152Y-109446364D01*
X62200711Y-109434041D01*
X62222380Y-109423792D01*
X62244948Y-109415717D01*
X62268199Y-109409893D01*
X62291909Y-109406376D01*
X62315850Y-109405200D01*
X62804350Y-109405200D01*
X62828291Y-109406376D01*
G37*
G36*
X64403291Y-109406376D02*
G01*
X64427001Y-109409893D01*
X64450252Y-109415717D01*
X64472820Y-109423792D01*
X64494489Y-109434041D01*
X64515048Y-109446364D01*
X64534301Y-109460642D01*
X64552061Y-109476739D01*
X64568158Y-109494499D01*
X64582436Y-109513752D01*
X64594759Y-109534311D01*
X64605008Y-109555980D01*
X64613083Y-109578548D01*
X64618907Y-109601799D01*
X64622424Y-109625509D01*
X64623600Y-109649450D01*
X64623600Y-110212950D01*
X64622424Y-110236891D01*
X64618907Y-110260601D01*
X64613083Y-110283852D01*
X64605008Y-110306420D01*
X64594759Y-110328089D01*
X64582436Y-110348648D01*
X64568158Y-110367901D01*
X64552061Y-110385661D01*
X64534301Y-110401758D01*
X64515048Y-110416036D01*
X64494489Y-110428359D01*
X64472820Y-110438608D01*
X64450252Y-110446683D01*
X64427001Y-110452507D01*
X64403291Y-110456024D01*
X64379350Y-110457200D01*
X63890850Y-110457200D01*
X63866909Y-110456024D01*
X63843199Y-110452507D01*
X63819948Y-110446683D01*
X63797380Y-110438608D01*
X63775711Y-110428359D01*
X63755152Y-110416036D01*
X63735899Y-110401758D01*
X63718139Y-110385661D01*
X63702042Y-110367901D01*
X63687764Y-110348648D01*
X63675441Y-110328089D01*
X63665192Y-110306420D01*
X63657117Y-110283852D01*
X63651293Y-110260601D01*
X63647776Y-110236891D01*
X63646600Y-110212950D01*
X63646600Y-109649450D01*
X63647776Y-109625509D01*
X63651293Y-109601799D01*
X63657117Y-109578548D01*
X63665192Y-109555980D01*
X63675441Y-109534311D01*
X63687764Y-109513752D01*
X63702042Y-109494499D01*
X63718139Y-109476739D01*
X63735899Y-109460642D01*
X63755152Y-109446364D01*
X63775711Y-109434041D01*
X63797380Y-109423792D01*
X63819948Y-109415717D01*
X63843199Y-109409893D01*
X63866909Y-109406376D01*
X63890850Y-109405200D01*
X64379350Y-109405200D01*
X64403291Y-109406376D01*
G37*
%TD*%
%TO.C,R16*%
G36*
X64403291Y-107831576D02*
G01*
X64427001Y-107835093D01*
X64450252Y-107840917D01*
X64472820Y-107848992D01*
X64494489Y-107859241D01*
X64515048Y-107871564D01*
X64534301Y-107885842D01*
X64552061Y-107901939D01*
X64568158Y-107919699D01*
X64582436Y-107938952D01*
X64594759Y-107959511D01*
X64605008Y-107981180D01*
X64613083Y-108003748D01*
X64618907Y-108026999D01*
X64622424Y-108050709D01*
X64623600Y-108074650D01*
X64623600Y-108638150D01*
X64622424Y-108662091D01*
X64618907Y-108685801D01*
X64613083Y-108709052D01*
X64605008Y-108731620D01*
X64594759Y-108753289D01*
X64582436Y-108773848D01*
X64568158Y-108793101D01*
X64552061Y-108810861D01*
X64534301Y-108826958D01*
X64515048Y-108841236D01*
X64494489Y-108853559D01*
X64472820Y-108863808D01*
X64450252Y-108871883D01*
X64427001Y-108877707D01*
X64403291Y-108881224D01*
X64379350Y-108882400D01*
X63890850Y-108882400D01*
X63866909Y-108881224D01*
X63843199Y-108877707D01*
X63819948Y-108871883D01*
X63797380Y-108863808D01*
X63775711Y-108853559D01*
X63755152Y-108841236D01*
X63735899Y-108826958D01*
X63718139Y-108810861D01*
X63702042Y-108793101D01*
X63687764Y-108773848D01*
X63675441Y-108753289D01*
X63665192Y-108731620D01*
X63657117Y-108709052D01*
X63651293Y-108685801D01*
X63647776Y-108662091D01*
X63646600Y-108638150D01*
X63646600Y-108074650D01*
X63647776Y-108050709D01*
X63651293Y-108026999D01*
X63657117Y-108003748D01*
X63665192Y-107981180D01*
X63675441Y-107959511D01*
X63687764Y-107938952D01*
X63702042Y-107919699D01*
X63718139Y-107901939D01*
X63735899Y-107885842D01*
X63755152Y-107871564D01*
X63775711Y-107859241D01*
X63797380Y-107848992D01*
X63819948Y-107840917D01*
X63843199Y-107835093D01*
X63866909Y-107831576D01*
X63890850Y-107830400D01*
X64379350Y-107830400D01*
X64403291Y-107831576D01*
G37*
G36*
X62828291Y-107831576D02*
G01*
X62852001Y-107835093D01*
X62875252Y-107840917D01*
X62897820Y-107848992D01*
X62919489Y-107859241D01*
X62940048Y-107871564D01*
X62959301Y-107885842D01*
X62977061Y-107901939D01*
X62993158Y-107919699D01*
X63007436Y-107938952D01*
X63019759Y-107959511D01*
X63030008Y-107981180D01*
X63038083Y-108003748D01*
X63043907Y-108026999D01*
X63047424Y-108050709D01*
X63048600Y-108074650D01*
X63048600Y-108638150D01*
X63047424Y-108662091D01*
X63043907Y-108685801D01*
X63038083Y-108709052D01*
X63030008Y-108731620D01*
X63019759Y-108753289D01*
X63007436Y-108773848D01*
X62993158Y-108793101D01*
X62977061Y-108810861D01*
X62959301Y-108826958D01*
X62940048Y-108841236D01*
X62919489Y-108853559D01*
X62897820Y-108863808D01*
X62875252Y-108871883D01*
X62852001Y-108877707D01*
X62828291Y-108881224D01*
X62804350Y-108882400D01*
X62315850Y-108882400D01*
X62291909Y-108881224D01*
X62268199Y-108877707D01*
X62244948Y-108871883D01*
X62222380Y-108863808D01*
X62200711Y-108853559D01*
X62180152Y-108841236D01*
X62160899Y-108826958D01*
X62143139Y-108810861D01*
X62127042Y-108793101D01*
X62112764Y-108773848D01*
X62100441Y-108753289D01*
X62090192Y-108731620D01*
X62082117Y-108709052D01*
X62076293Y-108685801D01*
X62072776Y-108662091D01*
X62071600Y-108638150D01*
X62071600Y-108074650D01*
X62072776Y-108050709D01*
X62076293Y-108026999D01*
X62082117Y-108003748D01*
X62090192Y-107981180D01*
X62100441Y-107959511D01*
X62112764Y-107938952D01*
X62127042Y-107919699D01*
X62143139Y-107901939D01*
X62160899Y-107885842D01*
X62180152Y-107871564D01*
X62200711Y-107859241D01*
X62222380Y-107848992D01*
X62244948Y-107840917D01*
X62268199Y-107835093D01*
X62291909Y-107831576D01*
X62315850Y-107830400D01*
X62804350Y-107830400D01*
X62828291Y-107831576D01*
G37*
%TD*%
%TO.C,R7*%
G36*
X80430591Y-89645176D02*
G01*
X80454301Y-89648693D01*
X80477552Y-89654517D01*
X80500120Y-89662592D01*
X80521789Y-89672841D01*
X80542348Y-89685164D01*
X80561601Y-89699442D01*
X80579361Y-89715539D01*
X80595458Y-89733299D01*
X80609736Y-89752552D01*
X80622059Y-89773111D01*
X80632308Y-89794780D01*
X80640383Y-89817348D01*
X80646207Y-89840599D01*
X80649724Y-89864309D01*
X80650900Y-89888250D01*
X80650900Y-90451750D01*
X80649724Y-90475691D01*
X80646207Y-90499401D01*
X80640383Y-90522652D01*
X80632308Y-90545220D01*
X80622059Y-90566889D01*
X80609736Y-90587448D01*
X80595458Y-90606701D01*
X80579361Y-90624461D01*
X80561601Y-90640558D01*
X80542348Y-90654836D01*
X80521789Y-90667159D01*
X80500120Y-90677408D01*
X80477552Y-90685483D01*
X80454301Y-90691307D01*
X80430591Y-90694824D01*
X80406650Y-90696000D01*
X79918150Y-90696000D01*
X79894209Y-90694824D01*
X79870499Y-90691307D01*
X79847248Y-90685483D01*
X79824680Y-90677408D01*
X79803011Y-90667159D01*
X79782452Y-90654836D01*
X79763199Y-90640558D01*
X79745439Y-90624461D01*
X79729342Y-90606701D01*
X79715064Y-90587448D01*
X79702741Y-90566889D01*
X79692492Y-90545220D01*
X79684417Y-90522652D01*
X79678593Y-90499401D01*
X79675076Y-90475691D01*
X79673900Y-90451750D01*
X79673900Y-89888250D01*
X79675076Y-89864309D01*
X79678593Y-89840599D01*
X79684417Y-89817348D01*
X79692492Y-89794780D01*
X79702741Y-89773111D01*
X79715064Y-89752552D01*
X79729342Y-89733299D01*
X79745439Y-89715539D01*
X79763199Y-89699442D01*
X79782452Y-89685164D01*
X79803011Y-89672841D01*
X79824680Y-89662592D01*
X79847248Y-89654517D01*
X79870499Y-89648693D01*
X79894209Y-89645176D01*
X79918150Y-89644000D01*
X80406650Y-89644000D01*
X80430591Y-89645176D01*
G37*
G36*
X78855591Y-89645176D02*
G01*
X78879301Y-89648693D01*
X78902552Y-89654517D01*
X78925120Y-89662592D01*
X78946789Y-89672841D01*
X78967348Y-89685164D01*
X78986601Y-89699442D01*
X79004361Y-89715539D01*
X79020458Y-89733299D01*
X79034736Y-89752552D01*
X79047059Y-89773111D01*
X79057308Y-89794780D01*
X79065383Y-89817348D01*
X79071207Y-89840599D01*
X79074724Y-89864309D01*
X79075900Y-89888250D01*
X79075900Y-90451750D01*
X79074724Y-90475691D01*
X79071207Y-90499401D01*
X79065383Y-90522652D01*
X79057308Y-90545220D01*
X79047059Y-90566889D01*
X79034736Y-90587448D01*
X79020458Y-90606701D01*
X79004361Y-90624461D01*
X78986601Y-90640558D01*
X78967348Y-90654836D01*
X78946789Y-90667159D01*
X78925120Y-90677408D01*
X78902552Y-90685483D01*
X78879301Y-90691307D01*
X78855591Y-90694824D01*
X78831650Y-90696000D01*
X78343150Y-90696000D01*
X78319209Y-90694824D01*
X78295499Y-90691307D01*
X78272248Y-90685483D01*
X78249680Y-90677408D01*
X78228011Y-90667159D01*
X78207452Y-90654836D01*
X78188199Y-90640558D01*
X78170439Y-90624461D01*
X78154342Y-90606701D01*
X78140064Y-90587448D01*
X78127741Y-90566889D01*
X78117492Y-90545220D01*
X78109417Y-90522652D01*
X78103593Y-90499401D01*
X78100076Y-90475691D01*
X78098900Y-90451750D01*
X78098900Y-89888250D01*
X78100076Y-89864309D01*
X78103593Y-89840599D01*
X78109417Y-89817348D01*
X78117492Y-89794780D01*
X78127741Y-89773111D01*
X78140064Y-89752552D01*
X78154342Y-89733299D01*
X78170439Y-89715539D01*
X78188199Y-89699442D01*
X78207452Y-89685164D01*
X78228011Y-89672841D01*
X78249680Y-89662592D01*
X78272248Y-89654517D01*
X78295499Y-89648693D01*
X78319209Y-89645176D01*
X78343150Y-89644000D01*
X78831650Y-89644000D01*
X78855591Y-89645176D01*
G37*
%TD*%
%TO.C,R6*%
G36*
X81929091Y-89645176D02*
G01*
X81952801Y-89648693D01*
X81976052Y-89654517D01*
X81998620Y-89662592D01*
X82020289Y-89672841D01*
X82040848Y-89685164D01*
X82060101Y-89699442D01*
X82077861Y-89715539D01*
X82093958Y-89733299D01*
X82108236Y-89752552D01*
X82120559Y-89773111D01*
X82130808Y-89794780D01*
X82138883Y-89817348D01*
X82144707Y-89840599D01*
X82148224Y-89864309D01*
X82149400Y-89888250D01*
X82149400Y-90451750D01*
X82148224Y-90475691D01*
X82144707Y-90499401D01*
X82138883Y-90522652D01*
X82130808Y-90545220D01*
X82120559Y-90566889D01*
X82108236Y-90587448D01*
X82093958Y-90606701D01*
X82077861Y-90624461D01*
X82060101Y-90640558D01*
X82040848Y-90654836D01*
X82020289Y-90667159D01*
X81998620Y-90677408D01*
X81976052Y-90685483D01*
X81952801Y-90691307D01*
X81929091Y-90694824D01*
X81905150Y-90696000D01*
X81416650Y-90696000D01*
X81392709Y-90694824D01*
X81368999Y-90691307D01*
X81345748Y-90685483D01*
X81323180Y-90677408D01*
X81301511Y-90667159D01*
X81280952Y-90654836D01*
X81261699Y-90640558D01*
X81243939Y-90624461D01*
X81227842Y-90606701D01*
X81213564Y-90587448D01*
X81201241Y-90566889D01*
X81190992Y-90545220D01*
X81182917Y-90522652D01*
X81177093Y-90499401D01*
X81173576Y-90475691D01*
X81172400Y-90451750D01*
X81172400Y-89888250D01*
X81173576Y-89864309D01*
X81177093Y-89840599D01*
X81182917Y-89817348D01*
X81190992Y-89794780D01*
X81201241Y-89773111D01*
X81213564Y-89752552D01*
X81227842Y-89733299D01*
X81243939Y-89715539D01*
X81261699Y-89699442D01*
X81280952Y-89685164D01*
X81301511Y-89672841D01*
X81323180Y-89662592D01*
X81345748Y-89654517D01*
X81368999Y-89648693D01*
X81392709Y-89645176D01*
X81416650Y-89644000D01*
X81905150Y-89644000D01*
X81929091Y-89645176D01*
G37*
G36*
X83504091Y-89645176D02*
G01*
X83527801Y-89648693D01*
X83551052Y-89654517D01*
X83573620Y-89662592D01*
X83595289Y-89672841D01*
X83615848Y-89685164D01*
X83635101Y-89699442D01*
X83652861Y-89715539D01*
X83668958Y-89733299D01*
X83683236Y-89752552D01*
X83695559Y-89773111D01*
X83705808Y-89794780D01*
X83713883Y-89817348D01*
X83719707Y-89840599D01*
X83723224Y-89864309D01*
X83724400Y-89888250D01*
X83724400Y-90451750D01*
X83723224Y-90475691D01*
X83719707Y-90499401D01*
X83713883Y-90522652D01*
X83705808Y-90545220D01*
X83695559Y-90566889D01*
X83683236Y-90587448D01*
X83668958Y-90606701D01*
X83652861Y-90624461D01*
X83635101Y-90640558D01*
X83615848Y-90654836D01*
X83595289Y-90667159D01*
X83573620Y-90677408D01*
X83551052Y-90685483D01*
X83527801Y-90691307D01*
X83504091Y-90694824D01*
X83480150Y-90696000D01*
X82991650Y-90696000D01*
X82967709Y-90694824D01*
X82943999Y-90691307D01*
X82920748Y-90685483D01*
X82898180Y-90677408D01*
X82876511Y-90667159D01*
X82855952Y-90654836D01*
X82836699Y-90640558D01*
X82818939Y-90624461D01*
X82802842Y-90606701D01*
X82788564Y-90587448D01*
X82776241Y-90566889D01*
X82765992Y-90545220D01*
X82757917Y-90522652D01*
X82752093Y-90499401D01*
X82748576Y-90475691D01*
X82747400Y-90451750D01*
X82747400Y-89888250D01*
X82748576Y-89864309D01*
X82752093Y-89840599D01*
X82757917Y-89817348D01*
X82765992Y-89794780D01*
X82776241Y-89773111D01*
X82788564Y-89752552D01*
X82802842Y-89733299D01*
X82818939Y-89715539D01*
X82836699Y-89699442D01*
X82855952Y-89685164D01*
X82876511Y-89672841D01*
X82898180Y-89662592D01*
X82920748Y-89654517D01*
X82943999Y-89648693D01*
X82967709Y-89645176D01*
X82991650Y-89644000D01*
X83480150Y-89644000D01*
X83504091Y-89645176D01*
G37*
%TD*%
D21*
%TO.C,U3*%
X84950400Y-93431000D03*
X86550400Y-91481000D03*
X86550400Y-92131000D03*
X86550400Y-92781000D03*
X84950400Y-91481000D03*
X84950400Y-92131000D03*
X84950400Y-92781000D03*
X86550400Y-93431000D03*
%TD*%
D16*
%TO.C,U1*%
G36*
X79479202Y-84409645D02*
G01*
X79496238Y-84412172D01*
X79512945Y-84416357D01*
X79529161Y-84422159D01*
X79544730Y-84429523D01*
X79559503Y-84438377D01*
X79573336Y-84448637D01*
X79586097Y-84460203D01*
X79597663Y-84472964D01*
X79607923Y-84486797D01*
X79616777Y-84501570D01*
X79624141Y-84517139D01*
X79629943Y-84533355D01*
X79634128Y-84550062D01*
X79636655Y-84567098D01*
X79637500Y-84584300D01*
X79637500Y-84935300D01*
X79636655Y-84952502D01*
X79634128Y-84969538D01*
X79629943Y-84986245D01*
X79624141Y-85002461D01*
X79616777Y-85018030D01*
X79607923Y-85032803D01*
X79597663Y-85046636D01*
X79586097Y-85059397D01*
X79573336Y-85070963D01*
X79559503Y-85081223D01*
X79544730Y-85090077D01*
X79529161Y-85097441D01*
X79512945Y-85103243D01*
X79496238Y-85107428D01*
X79479202Y-85109955D01*
X79462000Y-85110800D01*
X77761000Y-85110800D01*
X77743798Y-85109955D01*
X77726762Y-85107428D01*
X77710055Y-85103243D01*
X77693839Y-85097441D01*
X77678270Y-85090077D01*
X77663497Y-85081223D01*
X77649664Y-85070963D01*
X77636903Y-85059397D01*
X77625337Y-85046636D01*
X77615077Y-85032803D01*
X77606223Y-85018030D01*
X77598859Y-85002461D01*
X77593057Y-84986245D01*
X77588872Y-84969538D01*
X77586345Y-84952502D01*
X77585500Y-84935300D01*
X77585500Y-84584300D01*
X77586345Y-84567098D01*
X77588872Y-84550062D01*
X77593057Y-84533355D01*
X77598859Y-84517139D01*
X77606223Y-84501570D01*
X77615077Y-84486797D01*
X77625337Y-84472964D01*
X77636903Y-84460203D01*
X77649664Y-84448637D01*
X77663497Y-84438377D01*
X77678270Y-84429523D01*
X77693839Y-84422159D01*
X77710055Y-84416357D01*
X77726762Y-84412172D01*
X77743798Y-84409645D01*
X77761000Y-84408800D01*
X79462000Y-84408800D01*
X79479202Y-84409645D01*
G37*
G36*
X79479202Y-85679645D02*
G01*
X79496238Y-85682172D01*
X79512945Y-85686357D01*
X79529161Y-85692159D01*
X79544730Y-85699523D01*
X79559503Y-85708377D01*
X79573336Y-85718637D01*
X79586097Y-85730203D01*
X79597663Y-85742964D01*
X79607923Y-85756797D01*
X79616777Y-85771570D01*
X79624141Y-85787139D01*
X79629943Y-85803355D01*
X79634128Y-85820062D01*
X79636655Y-85837098D01*
X79637500Y-85854300D01*
X79637500Y-86205300D01*
X79636655Y-86222502D01*
X79634128Y-86239538D01*
X79629943Y-86256245D01*
X79624141Y-86272461D01*
X79616777Y-86288030D01*
X79607923Y-86302803D01*
X79597663Y-86316636D01*
X79586097Y-86329397D01*
X79573336Y-86340963D01*
X79559503Y-86351223D01*
X79544730Y-86360077D01*
X79529161Y-86367441D01*
X79512945Y-86373243D01*
X79496238Y-86377428D01*
X79479202Y-86379955D01*
X79462000Y-86380800D01*
X77761000Y-86380800D01*
X77743798Y-86379955D01*
X77726762Y-86377428D01*
X77710055Y-86373243D01*
X77693839Y-86367441D01*
X77678270Y-86360077D01*
X77663497Y-86351223D01*
X77649664Y-86340963D01*
X77636903Y-86329397D01*
X77625337Y-86316636D01*
X77615077Y-86302803D01*
X77606223Y-86288030D01*
X77598859Y-86272461D01*
X77593057Y-86256245D01*
X77588872Y-86239538D01*
X77586345Y-86222502D01*
X77585500Y-86205300D01*
X77585500Y-85854300D01*
X77586345Y-85837098D01*
X77588872Y-85820062D01*
X77593057Y-85803355D01*
X77598859Y-85787139D01*
X77606223Y-85771570D01*
X77615077Y-85756797D01*
X77625337Y-85742964D01*
X77636903Y-85730203D01*
X77649664Y-85718637D01*
X77663497Y-85708377D01*
X77678270Y-85699523D01*
X77693839Y-85692159D01*
X77710055Y-85686357D01*
X77726762Y-85682172D01*
X77743798Y-85679645D01*
X77761000Y-85678800D01*
X79462000Y-85678800D01*
X79479202Y-85679645D01*
G37*
G36*
X79479202Y-86949645D02*
G01*
X79496238Y-86952172D01*
X79512945Y-86956357D01*
X79529161Y-86962159D01*
X79544730Y-86969523D01*
X79559503Y-86978377D01*
X79573336Y-86988637D01*
X79586097Y-87000203D01*
X79597663Y-87012964D01*
X79607923Y-87026797D01*
X79616777Y-87041570D01*
X79624141Y-87057139D01*
X79629943Y-87073355D01*
X79634128Y-87090062D01*
X79636655Y-87107098D01*
X79637500Y-87124300D01*
X79637500Y-87475300D01*
X79636655Y-87492502D01*
X79634128Y-87509538D01*
X79629943Y-87526245D01*
X79624141Y-87542461D01*
X79616777Y-87558030D01*
X79607923Y-87572803D01*
X79597663Y-87586636D01*
X79586097Y-87599397D01*
X79573336Y-87610963D01*
X79559503Y-87621223D01*
X79544730Y-87630077D01*
X79529161Y-87637441D01*
X79512945Y-87643243D01*
X79496238Y-87647428D01*
X79479202Y-87649955D01*
X79462000Y-87650800D01*
X77761000Y-87650800D01*
X77743798Y-87649955D01*
X77726762Y-87647428D01*
X77710055Y-87643243D01*
X77693839Y-87637441D01*
X77678270Y-87630077D01*
X77663497Y-87621223D01*
X77649664Y-87610963D01*
X77636903Y-87599397D01*
X77625337Y-87586636D01*
X77615077Y-87572803D01*
X77606223Y-87558030D01*
X77598859Y-87542461D01*
X77593057Y-87526245D01*
X77588872Y-87509538D01*
X77586345Y-87492502D01*
X77585500Y-87475300D01*
X77585500Y-87124300D01*
X77586345Y-87107098D01*
X77588872Y-87090062D01*
X77593057Y-87073355D01*
X77598859Y-87057139D01*
X77606223Y-87041570D01*
X77615077Y-87026797D01*
X77625337Y-87012964D01*
X77636903Y-87000203D01*
X77649664Y-86988637D01*
X77663497Y-86978377D01*
X77678270Y-86969523D01*
X77693839Y-86962159D01*
X77710055Y-86956357D01*
X77726762Y-86952172D01*
X77743798Y-86949645D01*
X77761000Y-86948800D01*
X79462000Y-86948800D01*
X79479202Y-86949645D01*
G37*
G36*
X79479202Y-88219645D02*
G01*
X79496238Y-88222172D01*
X79512945Y-88226357D01*
X79529161Y-88232159D01*
X79544730Y-88239523D01*
X79559503Y-88248377D01*
X79573336Y-88258637D01*
X79586097Y-88270203D01*
X79597663Y-88282964D01*
X79607923Y-88296797D01*
X79616777Y-88311570D01*
X79624141Y-88327139D01*
X79629943Y-88343355D01*
X79634128Y-88360062D01*
X79636655Y-88377098D01*
X79637500Y-88394300D01*
X79637500Y-88745300D01*
X79636655Y-88762502D01*
X79634128Y-88779538D01*
X79629943Y-88796245D01*
X79624141Y-88812461D01*
X79616777Y-88828030D01*
X79607923Y-88842803D01*
X79597663Y-88856636D01*
X79586097Y-88869397D01*
X79573336Y-88880963D01*
X79559503Y-88891223D01*
X79544730Y-88900077D01*
X79529161Y-88907441D01*
X79512945Y-88913243D01*
X79496238Y-88917428D01*
X79479202Y-88919955D01*
X79462000Y-88920800D01*
X77761000Y-88920800D01*
X77743798Y-88919955D01*
X77726762Y-88917428D01*
X77710055Y-88913243D01*
X77693839Y-88907441D01*
X77678270Y-88900077D01*
X77663497Y-88891223D01*
X77649664Y-88880963D01*
X77636903Y-88869397D01*
X77625337Y-88856636D01*
X77615077Y-88842803D01*
X77606223Y-88828030D01*
X77598859Y-88812461D01*
X77593057Y-88796245D01*
X77588872Y-88779538D01*
X77586345Y-88762502D01*
X77585500Y-88745300D01*
X77585500Y-88394300D01*
X77586345Y-88377098D01*
X77588872Y-88360062D01*
X77593057Y-88343355D01*
X77598859Y-88327139D01*
X77606223Y-88311570D01*
X77615077Y-88296797D01*
X77625337Y-88282964D01*
X77636903Y-88270203D01*
X77649664Y-88258637D01*
X77663497Y-88248377D01*
X77678270Y-88239523D01*
X77693839Y-88232159D01*
X77710055Y-88226357D01*
X77726762Y-88222172D01*
X77743798Y-88219645D01*
X77761000Y-88218800D01*
X79462000Y-88218800D01*
X79479202Y-88219645D01*
G37*
G36*
X74529202Y-88219645D02*
G01*
X74546238Y-88222172D01*
X74562945Y-88226357D01*
X74579161Y-88232159D01*
X74594730Y-88239523D01*
X74609503Y-88248377D01*
X74623336Y-88258637D01*
X74636097Y-88270203D01*
X74647663Y-88282964D01*
X74657923Y-88296797D01*
X74666777Y-88311570D01*
X74674141Y-88327139D01*
X74679943Y-88343355D01*
X74684128Y-88360062D01*
X74686655Y-88377098D01*
X74687500Y-88394300D01*
X74687500Y-88745300D01*
X74686655Y-88762502D01*
X74684128Y-88779538D01*
X74679943Y-88796245D01*
X74674141Y-88812461D01*
X74666777Y-88828030D01*
X74657923Y-88842803D01*
X74647663Y-88856636D01*
X74636097Y-88869397D01*
X74623336Y-88880963D01*
X74609503Y-88891223D01*
X74594730Y-88900077D01*
X74579161Y-88907441D01*
X74562945Y-88913243D01*
X74546238Y-88917428D01*
X74529202Y-88919955D01*
X74512000Y-88920800D01*
X72811000Y-88920800D01*
X72793798Y-88919955D01*
X72776762Y-88917428D01*
X72760055Y-88913243D01*
X72743839Y-88907441D01*
X72728270Y-88900077D01*
X72713497Y-88891223D01*
X72699664Y-88880963D01*
X72686903Y-88869397D01*
X72675337Y-88856636D01*
X72665077Y-88842803D01*
X72656223Y-88828030D01*
X72648859Y-88812461D01*
X72643057Y-88796245D01*
X72638872Y-88779538D01*
X72636345Y-88762502D01*
X72635500Y-88745300D01*
X72635500Y-88394300D01*
X72636345Y-88377098D01*
X72638872Y-88360062D01*
X72643057Y-88343355D01*
X72648859Y-88327139D01*
X72656223Y-88311570D01*
X72665077Y-88296797D01*
X72675337Y-88282964D01*
X72686903Y-88270203D01*
X72699664Y-88258637D01*
X72713497Y-88248377D01*
X72728270Y-88239523D01*
X72743839Y-88232159D01*
X72760055Y-88226357D01*
X72776762Y-88222172D01*
X72793798Y-88219645D01*
X72811000Y-88218800D01*
X74512000Y-88218800D01*
X74529202Y-88219645D01*
G37*
G36*
X74529202Y-86949645D02*
G01*
X74546238Y-86952172D01*
X74562945Y-86956357D01*
X74579161Y-86962159D01*
X74594730Y-86969523D01*
X74609503Y-86978377D01*
X74623336Y-86988637D01*
X74636097Y-87000203D01*
X74647663Y-87012964D01*
X74657923Y-87026797D01*
X74666777Y-87041570D01*
X74674141Y-87057139D01*
X74679943Y-87073355D01*
X74684128Y-87090062D01*
X74686655Y-87107098D01*
X74687500Y-87124300D01*
X74687500Y-87475300D01*
X74686655Y-87492502D01*
X74684128Y-87509538D01*
X74679943Y-87526245D01*
X74674141Y-87542461D01*
X74666777Y-87558030D01*
X74657923Y-87572803D01*
X74647663Y-87586636D01*
X74636097Y-87599397D01*
X74623336Y-87610963D01*
X74609503Y-87621223D01*
X74594730Y-87630077D01*
X74579161Y-87637441D01*
X74562945Y-87643243D01*
X74546238Y-87647428D01*
X74529202Y-87649955D01*
X74512000Y-87650800D01*
X72811000Y-87650800D01*
X72793798Y-87649955D01*
X72776762Y-87647428D01*
X72760055Y-87643243D01*
X72743839Y-87637441D01*
X72728270Y-87630077D01*
X72713497Y-87621223D01*
X72699664Y-87610963D01*
X72686903Y-87599397D01*
X72675337Y-87586636D01*
X72665077Y-87572803D01*
X72656223Y-87558030D01*
X72648859Y-87542461D01*
X72643057Y-87526245D01*
X72638872Y-87509538D01*
X72636345Y-87492502D01*
X72635500Y-87475300D01*
X72635500Y-87124300D01*
X72636345Y-87107098D01*
X72638872Y-87090062D01*
X72643057Y-87073355D01*
X72648859Y-87057139D01*
X72656223Y-87041570D01*
X72665077Y-87026797D01*
X72675337Y-87012964D01*
X72686903Y-87000203D01*
X72699664Y-86988637D01*
X72713497Y-86978377D01*
X72728270Y-86969523D01*
X72743839Y-86962159D01*
X72760055Y-86956357D01*
X72776762Y-86952172D01*
X72793798Y-86949645D01*
X72811000Y-86948800D01*
X74512000Y-86948800D01*
X74529202Y-86949645D01*
G37*
G36*
X74529202Y-85679645D02*
G01*
X74546238Y-85682172D01*
X74562945Y-85686357D01*
X74579161Y-85692159D01*
X74594730Y-85699523D01*
X74609503Y-85708377D01*
X74623336Y-85718637D01*
X74636097Y-85730203D01*
X74647663Y-85742964D01*
X74657923Y-85756797D01*
X74666777Y-85771570D01*
X74674141Y-85787139D01*
X74679943Y-85803355D01*
X74684128Y-85820062D01*
X74686655Y-85837098D01*
X74687500Y-85854300D01*
X74687500Y-86205300D01*
X74686655Y-86222502D01*
X74684128Y-86239538D01*
X74679943Y-86256245D01*
X74674141Y-86272461D01*
X74666777Y-86288030D01*
X74657923Y-86302803D01*
X74647663Y-86316636D01*
X74636097Y-86329397D01*
X74623336Y-86340963D01*
X74609503Y-86351223D01*
X74594730Y-86360077D01*
X74579161Y-86367441D01*
X74562945Y-86373243D01*
X74546238Y-86377428D01*
X74529202Y-86379955D01*
X74512000Y-86380800D01*
X72811000Y-86380800D01*
X72793798Y-86379955D01*
X72776762Y-86377428D01*
X72760055Y-86373243D01*
X72743839Y-86367441D01*
X72728270Y-86360077D01*
X72713497Y-86351223D01*
X72699664Y-86340963D01*
X72686903Y-86329397D01*
X72675337Y-86316636D01*
X72665077Y-86302803D01*
X72656223Y-86288030D01*
X72648859Y-86272461D01*
X72643057Y-86256245D01*
X72638872Y-86239538D01*
X72636345Y-86222502D01*
X72635500Y-86205300D01*
X72635500Y-85854300D01*
X72636345Y-85837098D01*
X72638872Y-85820062D01*
X72643057Y-85803355D01*
X72648859Y-85787139D01*
X72656223Y-85771570D01*
X72665077Y-85756797D01*
X72675337Y-85742964D01*
X72686903Y-85730203D01*
X72699664Y-85718637D01*
X72713497Y-85708377D01*
X72728270Y-85699523D01*
X72743839Y-85692159D01*
X72760055Y-85686357D01*
X72776762Y-85682172D01*
X72793798Y-85679645D01*
X72811000Y-85678800D01*
X74512000Y-85678800D01*
X74529202Y-85679645D01*
G37*
G36*
X74529202Y-84409645D02*
G01*
X74546238Y-84412172D01*
X74562945Y-84416357D01*
X74579161Y-84422159D01*
X74594730Y-84429523D01*
X74609503Y-84438377D01*
X74623336Y-84448637D01*
X74636097Y-84460203D01*
X74647663Y-84472964D01*
X74657923Y-84486797D01*
X74666777Y-84501570D01*
X74674141Y-84517139D01*
X74679943Y-84533355D01*
X74684128Y-84550062D01*
X74686655Y-84567098D01*
X74687500Y-84584300D01*
X74687500Y-84935300D01*
X74686655Y-84952502D01*
X74684128Y-84969538D01*
X74679943Y-84986245D01*
X74674141Y-85002461D01*
X74666777Y-85018030D01*
X74657923Y-85032803D01*
X74647663Y-85046636D01*
X74636097Y-85059397D01*
X74623336Y-85070963D01*
X74609503Y-85081223D01*
X74594730Y-85090077D01*
X74579161Y-85097441D01*
X74562945Y-85103243D01*
X74546238Y-85107428D01*
X74529202Y-85109955D01*
X74512000Y-85110800D01*
X72811000Y-85110800D01*
X72793798Y-85109955D01*
X72776762Y-85107428D01*
X72760055Y-85103243D01*
X72743839Y-85097441D01*
X72728270Y-85090077D01*
X72713497Y-85081223D01*
X72699664Y-85070963D01*
X72686903Y-85059397D01*
X72675337Y-85046636D01*
X72665077Y-85032803D01*
X72656223Y-85018030D01*
X72648859Y-85002461D01*
X72643057Y-84986245D01*
X72638872Y-84969538D01*
X72636345Y-84952502D01*
X72635500Y-84935300D01*
X72635500Y-84584300D01*
X72636345Y-84567098D01*
X72638872Y-84550062D01*
X72643057Y-84533355D01*
X72648859Y-84517139D01*
X72656223Y-84501570D01*
X72665077Y-84486797D01*
X72675337Y-84472964D01*
X72686903Y-84460203D01*
X72699664Y-84448637D01*
X72713497Y-84438377D01*
X72728270Y-84429523D01*
X72743839Y-84422159D01*
X72760055Y-84416357D01*
X72776762Y-84412172D01*
X72793798Y-84409645D01*
X72811000Y-84408800D01*
X74512000Y-84408800D01*
X74529202Y-84409645D01*
G37*
%TD*%
D22*
%TO.C,U6*%
X79283200Y-110912400D03*
X79283200Y-111412400D03*
X79283200Y-111912400D03*
X79283200Y-112412400D03*
X79283200Y-112912400D03*
X83683200Y-112912400D03*
X83683200Y-112412400D03*
X83683200Y-111912400D03*
X83683200Y-111412400D03*
X83683200Y-110912400D03*
%TD*%
D17*
%TO.C,U11*%
X72374800Y-109136000D03*
X71424800Y-109136000D03*
X70474800Y-109136000D03*
X70474800Y-111336000D03*
X72374800Y-111336000D03*
%TD*%
D16*
%TO.C,R11*%
G36*
X90082591Y-91118376D02*
G01*
X90106301Y-91121893D01*
X90129552Y-91127717D01*
X90152120Y-91135792D01*
X90173789Y-91146041D01*
X90194348Y-91158364D01*
X90213601Y-91172642D01*
X90231361Y-91188739D01*
X90247458Y-91206499D01*
X90261736Y-91225752D01*
X90274059Y-91246311D01*
X90284308Y-91267980D01*
X90292383Y-91290548D01*
X90298207Y-91313799D01*
X90301724Y-91337509D01*
X90302900Y-91361450D01*
X90302900Y-91924950D01*
X90301724Y-91948891D01*
X90298207Y-91972601D01*
X90292383Y-91995852D01*
X90284308Y-92018420D01*
X90274059Y-92040089D01*
X90261736Y-92060648D01*
X90247458Y-92079901D01*
X90231361Y-92097661D01*
X90213601Y-92113758D01*
X90194348Y-92128036D01*
X90173789Y-92140359D01*
X90152120Y-92150608D01*
X90129552Y-92158683D01*
X90106301Y-92164507D01*
X90082591Y-92168024D01*
X90058650Y-92169200D01*
X89570150Y-92169200D01*
X89546209Y-92168024D01*
X89522499Y-92164507D01*
X89499248Y-92158683D01*
X89476680Y-92150608D01*
X89455011Y-92140359D01*
X89434452Y-92128036D01*
X89415199Y-92113758D01*
X89397439Y-92097661D01*
X89381342Y-92079901D01*
X89367064Y-92060648D01*
X89354741Y-92040089D01*
X89344492Y-92018420D01*
X89336417Y-91995852D01*
X89330593Y-91972601D01*
X89327076Y-91948891D01*
X89325900Y-91924950D01*
X89325900Y-91361450D01*
X89327076Y-91337509D01*
X89330593Y-91313799D01*
X89336417Y-91290548D01*
X89344492Y-91267980D01*
X89354741Y-91246311D01*
X89367064Y-91225752D01*
X89381342Y-91206499D01*
X89397439Y-91188739D01*
X89415199Y-91172642D01*
X89434452Y-91158364D01*
X89455011Y-91146041D01*
X89476680Y-91135792D01*
X89499248Y-91127717D01*
X89522499Y-91121893D01*
X89546209Y-91118376D01*
X89570150Y-91117200D01*
X90058650Y-91117200D01*
X90082591Y-91118376D01*
G37*
G36*
X88507591Y-91118376D02*
G01*
X88531301Y-91121893D01*
X88554552Y-91127717D01*
X88577120Y-91135792D01*
X88598789Y-91146041D01*
X88619348Y-91158364D01*
X88638601Y-91172642D01*
X88656361Y-91188739D01*
X88672458Y-91206499D01*
X88686736Y-91225752D01*
X88699059Y-91246311D01*
X88709308Y-91267980D01*
X88717383Y-91290548D01*
X88723207Y-91313799D01*
X88726724Y-91337509D01*
X88727900Y-91361450D01*
X88727900Y-91924950D01*
X88726724Y-91948891D01*
X88723207Y-91972601D01*
X88717383Y-91995852D01*
X88709308Y-92018420D01*
X88699059Y-92040089D01*
X88686736Y-92060648D01*
X88672458Y-92079901D01*
X88656361Y-92097661D01*
X88638601Y-92113758D01*
X88619348Y-92128036D01*
X88598789Y-92140359D01*
X88577120Y-92150608D01*
X88554552Y-92158683D01*
X88531301Y-92164507D01*
X88507591Y-92168024D01*
X88483650Y-92169200D01*
X87995150Y-92169200D01*
X87971209Y-92168024D01*
X87947499Y-92164507D01*
X87924248Y-92158683D01*
X87901680Y-92150608D01*
X87880011Y-92140359D01*
X87859452Y-92128036D01*
X87840199Y-92113758D01*
X87822439Y-92097661D01*
X87806342Y-92079901D01*
X87792064Y-92060648D01*
X87779741Y-92040089D01*
X87769492Y-92018420D01*
X87761417Y-91995852D01*
X87755593Y-91972601D01*
X87752076Y-91948891D01*
X87750900Y-91924950D01*
X87750900Y-91361450D01*
X87752076Y-91337509D01*
X87755593Y-91313799D01*
X87761417Y-91290548D01*
X87769492Y-91267980D01*
X87779741Y-91246311D01*
X87792064Y-91225752D01*
X87806342Y-91206499D01*
X87822439Y-91188739D01*
X87840199Y-91172642D01*
X87859452Y-91158364D01*
X87880011Y-91146041D01*
X87901680Y-91135792D01*
X87924248Y-91127717D01*
X87947499Y-91121893D01*
X87971209Y-91118376D01*
X87995150Y-91117200D01*
X88483650Y-91117200D01*
X88507591Y-91118376D01*
G37*
%TD*%
%TO.C,R10*%
G36*
X62726691Y-91118376D02*
G01*
X62750401Y-91121893D01*
X62773652Y-91127717D01*
X62796220Y-91135792D01*
X62817889Y-91146041D01*
X62838448Y-91158364D01*
X62857701Y-91172642D01*
X62875461Y-91188739D01*
X62891558Y-91206499D01*
X62905836Y-91225752D01*
X62918159Y-91246311D01*
X62928408Y-91267980D01*
X62936483Y-91290548D01*
X62942307Y-91313799D01*
X62945824Y-91337509D01*
X62947000Y-91361450D01*
X62947000Y-91924950D01*
X62945824Y-91948891D01*
X62942307Y-91972601D01*
X62936483Y-91995852D01*
X62928408Y-92018420D01*
X62918159Y-92040089D01*
X62905836Y-92060648D01*
X62891558Y-92079901D01*
X62875461Y-92097661D01*
X62857701Y-92113758D01*
X62838448Y-92128036D01*
X62817889Y-92140359D01*
X62796220Y-92150608D01*
X62773652Y-92158683D01*
X62750401Y-92164507D01*
X62726691Y-92168024D01*
X62702750Y-92169200D01*
X62214250Y-92169200D01*
X62190309Y-92168024D01*
X62166599Y-92164507D01*
X62143348Y-92158683D01*
X62120780Y-92150608D01*
X62099111Y-92140359D01*
X62078552Y-92128036D01*
X62059299Y-92113758D01*
X62041539Y-92097661D01*
X62025442Y-92079901D01*
X62011164Y-92060648D01*
X61998841Y-92040089D01*
X61988592Y-92018420D01*
X61980517Y-91995852D01*
X61974693Y-91972601D01*
X61971176Y-91948891D01*
X61970000Y-91924950D01*
X61970000Y-91361450D01*
X61971176Y-91337509D01*
X61974693Y-91313799D01*
X61980517Y-91290548D01*
X61988592Y-91267980D01*
X61998841Y-91246311D01*
X62011164Y-91225752D01*
X62025442Y-91206499D01*
X62041539Y-91188739D01*
X62059299Y-91172642D01*
X62078552Y-91158364D01*
X62099111Y-91146041D01*
X62120780Y-91135792D01*
X62143348Y-91127717D01*
X62166599Y-91121893D01*
X62190309Y-91118376D01*
X62214250Y-91117200D01*
X62702750Y-91117200D01*
X62726691Y-91118376D01*
G37*
G36*
X64301691Y-91118376D02*
G01*
X64325401Y-91121893D01*
X64348652Y-91127717D01*
X64371220Y-91135792D01*
X64392889Y-91146041D01*
X64413448Y-91158364D01*
X64432701Y-91172642D01*
X64450461Y-91188739D01*
X64466558Y-91206499D01*
X64480836Y-91225752D01*
X64493159Y-91246311D01*
X64503408Y-91267980D01*
X64511483Y-91290548D01*
X64517307Y-91313799D01*
X64520824Y-91337509D01*
X64522000Y-91361450D01*
X64522000Y-91924950D01*
X64520824Y-91948891D01*
X64517307Y-91972601D01*
X64511483Y-91995852D01*
X64503408Y-92018420D01*
X64493159Y-92040089D01*
X64480836Y-92060648D01*
X64466558Y-92079901D01*
X64450461Y-92097661D01*
X64432701Y-92113758D01*
X64413448Y-92128036D01*
X64392889Y-92140359D01*
X64371220Y-92150608D01*
X64348652Y-92158683D01*
X64325401Y-92164507D01*
X64301691Y-92168024D01*
X64277750Y-92169200D01*
X63789250Y-92169200D01*
X63765309Y-92168024D01*
X63741599Y-92164507D01*
X63718348Y-92158683D01*
X63695780Y-92150608D01*
X63674111Y-92140359D01*
X63653552Y-92128036D01*
X63634299Y-92113758D01*
X63616539Y-92097661D01*
X63600442Y-92079901D01*
X63586164Y-92060648D01*
X63573841Y-92040089D01*
X63563592Y-92018420D01*
X63555517Y-91995852D01*
X63549693Y-91972601D01*
X63546176Y-91948891D01*
X63545000Y-91924950D01*
X63545000Y-91361450D01*
X63546176Y-91337509D01*
X63549693Y-91313799D01*
X63555517Y-91290548D01*
X63563592Y-91267980D01*
X63573841Y-91246311D01*
X63586164Y-91225752D01*
X63600442Y-91206499D01*
X63616539Y-91188739D01*
X63634299Y-91172642D01*
X63653552Y-91158364D01*
X63674111Y-91146041D01*
X63695780Y-91135792D01*
X63718348Y-91127717D01*
X63741599Y-91121893D01*
X63765309Y-91118376D01*
X63789250Y-91117200D01*
X64277750Y-91117200D01*
X64301691Y-91118376D01*
G37*
%TD*%
%TO.C,R14*%
G36*
X70092691Y-101633976D02*
G01*
X70116401Y-101637493D01*
X70139652Y-101643317D01*
X70162220Y-101651392D01*
X70183889Y-101661641D01*
X70204448Y-101673964D01*
X70223701Y-101688242D01*
X70241461Y-101704339D01*
X70257558Y-101722099D01*
X70271836Y-101741352D01*
X70284159Y-101761911D01*
X70294408Y-101783580D01*
X70302483Y-101806148D01*
X70308307Y-101829399D01*
X70311824Y-101853109D01*
X70313000Y-101877050D01*
X70313000Y-102440550D01*
X70311824Y-102464491D01*
X70308307Y-102488201D01*
X70302483Y-102511452D01*
X70294408Y-102534020D01*
X70284159Y-102555689D01*
X70271836Y-102576248D01*
X70257558Y-102595501D01*
X70241461Y-102613261D01*
X70223701Y-102629358D01*
X70204448Y-102643636D01*
X70183889Y-102655959D01*
X70162220Y-102666208D01*
X70139652Y-102674283D01*
X70116401Y-102680107D01*
X70092691Y-102683624D01*
X70068750Y-102684800D01*
X69580250Y-102684800D01*
X69556309Y-102683624D01*
X69532599Y-102680107D01*
X69509348Y-102674283D01*
X69486780Y-102666208D01*
X69465111Y-102655959D01*
X69444552Y-102643636D01*
X69425299Y-102629358D01*
X69407539Y-102613261D01*
X69391442Y-102595501D01*
X69377164Y-102576248D01*
X69364841Y-102555689D01*
X69354592Y-102534020D01*
X69346517Y-102511452D01*
X69340693Y-102488201D01*
X69337176Y-102464491D01*
X69336000Y-102440550D01*
X69336000Y-101877050D01*
X69337176Y-101853109D01*
X69340693Y-101829399D01*
X69346517Y-101806148D01*
X69354592Y-101783580D01*
X69364841Y-101761911D01*
X69377164Y-101741352D01*
X69391442Y-101722099D01*
X69407539Y-101704339D01*
X69425299Y-101688242D01*
X69444552Y-101673964D01*
X69465111Y-101661641D01*
X69486780Y-101651392D01*
X69509348Y-101643317D01*
X69532599Y-101637493D01*
X69556309Y-101633976D01*
X69580250Y-101632800D01*
X70068750Y-101632800D01*
X70092691Y-101633976D01*
G37*
G36*
X71667691Y-101633976D02*
G01*
X71691401Y-101637493D01*
X71714652Y-101643317D01*
X71737220Y-101651392D01*
X71758889Y-101661641D01*
X71779448Y-101673964D01*
X71798701Y-101688242D01*
X71816461Y-101704339D01*
X71832558Y-101722099D01*
X71846836Y-101741352D01*
X71859159Y-101761911D01*
X71869408Y-101783580D01*
X71877483Y-101806148D01*
X71883307Y-101829399D01*
X71886824Y-101853109D01*
X71888000Y-101877050D01*
X71888000Y-102440550D01*
X71886824Y-102464491D01*
X71883307Y-102488201D01*
X71877483Y-102511452D01*
X71869408Y-102534020D01*
X71859159Y-102555689D01*
X71846836Y-102576248D01*
X71832558Y-102595501D01*
X71816461Y-102613261D01*
X71798701Y-102629358D01*
X71779448Y-102643636D01*
X71758889Y-102655959D01*
X71737220Y-102666208D01*
X71714652Y-102674283D01*
X71691401Y-102680107D01*
X71667691Y-102683624D01*
X71643750Y-102684800D01*
X71155250Y-102684800D01*
X71131309Y-102683624D01*
X71107599Y-102680107D01*
X71084348Y-102674283D01*
X71061780Y-102666208D01*
X71040111Y-102655959D01*
X71019552Y-102643636D01*
X71000299Y-102629358D01*
X70982539Y-102613261D01*
X70966442Y-102595501D01*
X70952164Y-102576248D01*
X70939841Y-102555689D01*
X70929592Y-102534020D01*
X70921517Y-102511452D01*
X70915693Y-102488201D01*
X70912176Y-102464491D01*
X70911000Y-102440550D01*
X70911000Y-101877050D01*
X70912176Y-101853109D01*
X70915693Y-101829399D01*
X70921517Y-101806148D01*
X70929592Y-101783580D01*
X70939841Y-101761911D01*
X70952164Y-101741352D01*
X70966442Y-101722099D01*
X70982539Y-101704339D01*
X71000299Y-101688242D01*
X71019552Y-101673964D01*
X71040111Y-101661641D01*
X71061780Y-101651392D01*
X71084348Y-101643317D01*
X71107599Y-101637493D01*
X71131309Y-101633976D01*
X71155250Y-101632800D01*
X71643750Y-101632800D01*
X71667691Y-101633976D01*
G37*
%TD*%
%TO.C,R4*%
G36*
X87364891Y-109584176D02*
G01*
X87388601Y-109587693D01*
X87411852Y-109593517D01*
X87434420Y-109601592D01*
X87456089Y-109611841D01*
X87476648Y-109624164D01*
X87495901Y-109638442D01*
X87513661Y-109654539D01*
X87529758Y-109672299D01*
X87544036Y-109691552D01*
X87556359Y-109712111D01*
X87566608Y-109733780D01*
X87574683Y-109756348D01*
X87580507Y-109779599D01*
X87584024Y-109803309D01*
X87585200Y-109827250D01*
X87585200Y-110390750D01*
X87584024Y-110414691D01*
X87580507Y-110438401D01*
X87574683Y-110461652D01*
X87566608Y-110484220D01*
X87556359Y-110505889D01*
X87544036Y-110526448D01*
X87529758Y-110545701D01*
X87513661Y-110563461D01*
X87495901Y-110579558D01*
X87476648Y-110593836D01*
X87456089Y-110606159D01*
X87434420Y-110616408D01*
X87411852Y-110624483D01*
X87388601Y-110630307D01*
X87364891Y-110633824D01*
X87340950Y-110635000D01*
X86852450Y-110635000D01*
X86828509Y-110633824D01*
X86804799Y-110630307D01*
X86781548Y-110624483D01*
X86758980Y-110616408D01*
X86737311Y-110606159D01*
X86716752Y-110593836D01*
X86697499Y-110579558D01*
X86679739Y-110563461D01*
X86663642Y-110545701D01*
X86649364Y-110526448D01*
X86637041Y-110505889D01*
X86626792Y-110484220D01*
X86618717Y-110461652D01*
X86612893Y-110438401D01*
X86609376Y-110414691D01*
X86608200Y-110390750D01*
X86608200Y-109827250D01*
X86609376Y-109803309D01*
X86612893Y-109779599D01*
X86618717Y-109756348D01*
X86626792Y-109733780D01*
X86637041Y-109712111D01*
X86649364Y-109691552D01*
X86663642Y-109672299D01*
X86679739Y-109654539D01*
X86697499Y-109638442D01*
X86716752Y-109624164D01*
X86737311Y-109611841D01*
X86758980Y-109601592D01*
X86781548Y-109593517D01*
X86804799Y-109587693D01*
X86828509Y-109584176D01*
X86852450Y-109583000D01*
X87340950Y-109583000D01*
X87364891Y-109584176D01*
G37*
G36*
X85789891Y-109584176D02*
G01*
X85813601Y-109587693D01*
X85836852Y-109593517D01*
X85859420Y-109601592D01*
X85881089Y-109611841D01*
X85901648Y-109624164D01*
X85920901Y-109638442D01*
X85938661Y-109654539D01*
X85954758Y-109672299D01*
X85969036Y-109691552D01*
X85981359Y-109712111D01*
X85991608Y-109733780D01*
X85999683Y-109756348D01*
X86005507Y-109779599D01*
X86009024Y-109803309D01*
X86010200Y-109827250D01*
X86010200Y-110390750D01*
X86009024Y-110414691D01*
X86005507Y-110438401D01*
X85999683Y-110461652D01*
X85991608Y-110484220D01*
X85981359Y-110505889D01*
X85969036Y-110526448D01*
X85954758Y-110545701D01*
X85938661Y-110563461D01*
X85920901Y-110579558D01*
X85901648Y-110593836D01*
X85881089Y-110606159D01*
X85859420Y-110616408D01*
X85836852Y-110624483D01*
X85813601Y-110630307D01*
X85789891Y-110633824D01*
X85765950Y-110635000D01*
X85277450Y-110635000D01*
X85253509Y-110633824D01*
X85229799Y-110630307D01*
X85206548Y-110624483D01*
X85183980Y-110616408D01*
X85162311Y-110606159D01*
X85141752Y-110593836D01*
X85122499Y-110579558D01*
X85104739Y-110563461D01*
X85088642Y-110545701D01*
X85074364Y-110526448D01*
X85062041Y-110505889D01*
X85051792Y-110484220D01*
X85043717Y-110461652D01*
X85037893Y-110438401D01*
X85034376Y-110414691D01*
X85033200Y-110390750D01*
X85033200Y-109827250D01*
X85034376Y-109803309D01*
X85037893Y-109779599D01*
X85043717Y-109756348D01*
X85051792Y-109733780D01*
X85062041Y-109712111D01*
X85074364Y-109691552D01*
X85088642Y-109672299D01*
X85104739Y-109654539D01*
X85122499Y-109638442D01*
X85141752Y-109624164D01*
X85162311Y-109611841D01*
X85183980Y-109601592D01*
X85206548Y-109593517D01*
X85229799Y-109587693D01*
X85253509Y-109584176D01*
X85277450Y-109583000D01*
X85765950Y-109583000D01*
X85789891Y-109584176D01*
G37*
%TD*%
%TO.C,R15*%
G36*
X67006591Y-106917176D02*
G01*
X67030301Y-106920693D01*
X67053552Y-106926517D01*
X67076120Y-106934592D01*
X67097789Y-106944841D01*
X67118348Y-106957164D01*
X67137601Y-106971442D01*
X67155361Y-106987539D01*
X67171458Y-107005299D01*
X67185736Y-107024552D01*
X67198059Y-107045111D01*
X67208308Y-107066780D01*
X67216383Y-107089348D01*
X67222207Y-107112599D01*
X67225724Y-107136309D01*
X67226900Y-107160250D01*
X67226900Y-107723750D01*
X67225724Y-107747691D01*
X67222207Y-107771401D01*
X67216383Y-107794652D01*
X67208308Y-107817220D01*
X67198059Y-107838889D01*
X67185736Y-107859448D01*
X67171458Y-107878701D01*
X67155361Y-107896461D01*
X67137601Y-107912558D01*
X67118348Y-107926836D01*
X67097789Y-107939159D01*
X67076120Y-107949408D01*
X67053552Y-107957483D01*
X67030301Y-107963307D01*
X67006591Y-107966824D01*
X66982650Y-107968000D01*
X66494150Y-107968000D01*
X66470209Y-107966824D01*
X66446499Y-107963307D01*
X66423248Y-107957483D01*
X66400680Y-107949408D01*
X66379011Y-107939159D01*
X66358452Y-107926836D01*
X66339199Y-107912558D01*
X66321439Y-107896461D01*
X66305342Y-107878701D01*
X66291064Y-107859448D01*
X66278741Y-107838889D01*
X66268492Y-107817220D01*
X66260417Y-107794652D01*
X66254593Y-107771401D01*
X66251076Y-107747691D01*
X66249900Y-107723750D01*
X66249900Y-107160250D01*
X66251076Y-107136309D01*
X66254593Y-107112599D01*
X66260417Y-107089348D01*
X66268492Y-107066780D01*
X66278741Y-107045111D01*
X66291064Y-107024552D01*
X66305342Y-107005299D01*
X66321439Y-106987539D01*
X66339199Y-106971442D01*
X66358452Y-106957164D01*
X66379011Y-106944841D01*
X66400680Y-106934592D01*
X66423248Y-106926517D01*
X66446499Y-106920693D01*
X66470209Y-106917176D01*
X66494150Y-106916000D01*
X66982650Y-106916000D01*
X67006591Y-106917176D01*
G37*
G36*
X68581591Y-106917176D02*
G01*
X68605301Y-106920693D01*
X68628552Y-106926517D01*
X68651120Y-106934592D01*
X68672789Y-106944841D01*
X68693348Y-106957164D01*
X68712601Y-106971442D01*
X68730361Y-106987539D01*
X68746458Y-107005299D01*
X68760736Y-107024552D01*
X68773059Y-107045111D01*
X68783308Y-107066780D01*
X68791383Y-107089348D01*
X68797207Y-107112599D01*
X68800724Y-107136309D01*
X68801900Y-107160250D01*
X68801900Y-107723750D01*
X68800724Y-107747691D01*
X68797207Y-107771401D01*
X68791383Y-107794652D01*
X68783308Y-107817220D01*
X68773059Y-107838889D01*
X68760736Y-107859448D01*
X68746458Y-107878701D01*
X68730361Y-107896461D01*
X68712601Y-107912558D01*
X68693348Y-107926836D01*
X68672789Y-107939159D01*
X68651120Y-107949408D01*
X68628552Y-107957483D01*
X68605301Y-107963307D01*
X68581591Y-107966824D01*
X68557650Y-107968000D01*
X68069150Y-107968000D01*
X68045209Y-107966824D01*
X68021499Y-107963307D01*
X67998248Y-107957483D01*
X67975680Y-107949408D01*
X67954011Y-107939159D01*
X67933452Y-107926836D01*
X67914199Y-107912558D01*
X67896439Y-107896461D01*
X67880342Y-107878701D01*
X67866064Y-107859448D01*
X67853741Y-107838889D01*
X67843492Y-107817220D01*
X67835417Y-107794652D01*
X67829593Y-107771401D01*
X67826076Y-107747691D01*
X67824900Y-107723750D01*
X67824900Y-107160250D01*
X67826076Y-107136309D01*
X67829593Y-107112599D01*
X67835417Y-107089348D01*
X67843492Y-107066780D01*
X67853741Y-107045111D01*
X67866064Y-107024552D01*
X67880342Y-107005299D01*
X67896439Y-106987539D01*
X67914199Y-106971442D01*
X67933452Y-106957164D01*
X67954011Y-106944841D01*
X67975680Y-106934592D01*
X67998248Y-106926517D01*
X68021499Y-106920693D01*
X68045209Y-106917176D01*
X68069150Y-106916000D01*
X68557650Y-106916000D01*
X68581591Y-106917176D01*
G37*
%TD*%
%TO.C,R13*%
G36*
X68619691Y-110981176D02*
G01*
X68643401Y-110984693D01*
X68666652Y-110990517D01*
X68689220Y-110998592D01*
X68710889Y-111008841D01*
X68731448Y-111021164D01*
X68750701Y-111035442D01*
X68768461Y-111051539D01*
X68784558Y-111069299D01*
X68798836Y-111088552D01*
X68811159Y-111109111D01*
X68821408Y-111130780D01*
X68829483Y-111153348D01*
X68835307Y-111176599D01*
X68838824Y-111200309D01*
X68840000Y-111224250D01*
X68840000Y-111787750D01*
X68838824Y-111811691D01*
X68835307Y-111835401D01*
X68829483Y-111858652D01*
X68821408Y-111881220D01*
X68811159Y-111902889D01*
X68798836Y-111923448D01*
X68784558Y-111942701D01*
X68768461Y-111960461D01*
X68750701Y-111976558D01*
X68731448Y-111990836D01*
X68710889Y-112003159D01*
X68689220Y-112013408D01*
X68666652Y-112021483D01*
X68643401Y-112027307D01*
X68619691Y-112030824D01*
X68595750Y-112032000D01*
X68107250Y-112032000D01*
X68083309Y-112030824D01*
X68059599Y-112027307D01*
X68036348Y-112021483D01*
X68013780Y-112013408D01*
X67992111Y-112003159D01*
X67971552Y-111990836D01*
X67952299Y-111976558D01*
X67934539Y-111960461D01*
X67918442Y-111942701D01*
X67904164Y-111923448D01*
X67891841Y-111902889D01*
X67881592Y-111881220D01*
X67873517Y-111858652D01*
X67867693Y-111835401D01*
X67864176Y-111811691D01*
X67863000Y-111787750D01*
X67863000Y-111224250D01*
X67864176Y-111200309D01*
X67867693Y-111176599D01*
X67873517Y-111153348D01*
X67881592Y-111130780D01*
X67891841Y-111109111D01*
X67904164Y-111088552D01*
X67918442Y-111069299D01*
X67934539Y-111051539D01*
X67952299Y-111035442D01*
X67971552Y-111021164D01*
X67992111Y-111008841D01*
X68013780Y-110998592D01*
X68036348Y-110990517D01*
X68059599Y-110984693D01*
X68083309Y-110981176D01*
X68107250Y-110980000D01*
X68595750Y-110980000D01*
X68619691Y-110981176D01*
G37*
G36*
X67044691Y-110981176D02*
G01*
X67068401Y-110984693D01*
X67091652Y-110990517D01*
X67114220Y-110998592D01*
X67135889Y-111008841D01*
X67156448Y-111021164D01*
X67175701Y-111035442D01*
X67193461Y-111051539D01*
X67209558Y-111069299D01*
X67223836Y-111088552D01*
X67236159Y-111109111D01*
X67246408Y-111130780D01*
X67254483Y-111153348D01*
X67260307Y-111176599D01*
X67263824Y-111200309D01*
X67265000Y-111224250D01*
X67265000Y-111787750D01*
X67263824Y-111811691D01*
X67260307Y-111835401D01*
X67254483Y-111858652D01*
X67246408Y-111881220D01*
X67236159Y-111902889D01*
X67223836Y-111923448D01*
X67209558Y-111942701D01*
X67193461Y-111960461D01*
X67175701Y-111976558D01*
X67156448Y-111990836D01*
X67135889Y-112003159D01*
X67114220Y-112013408D01*
X67091652Y-112021483D01*
X67068401Y-112027307D01*
X67044691Y-112030824D01*
X67020750Y-112032000D01*
X66532250Y-112032000D01*
X66508309Y-112030824D01*
X66484599Y-112027307D01*
X66461348Y-112021483D01*
X66438780Y-112013408D01*
X66417111Y-112003159D01*
X66396552Y-111990836D01*
X66377299Y-111976558D01*
X66359539Y-111960461D01*
X66343442Y-111942701D01*
X66329164Y-111923448D01*
X66316841Y-111902889D01*
X66306592Y-111881220D01*
X66298517Y-111858652D01*
X66292693Y-111835401D01*
X66289176Y-111811691D01*
X66288000Y-111787750D01*
X66288000Y-111224250D01*
X66289176Y-111200309D01*
X66292693Y-111176599D01*
X66298517Y-111153348D01*
X66306592Y-111130780D01*
X66316841Y-111109111D01*
X66329164Y-111088552D01*
X66343442Y-111069299D01*
X66359539Y-111051539D01*
X66377299Y-111035442D01*
X66396552Y-111021164D01*
X66417111Y-111008841D01*
X66438780Y-110998592D01*
X66461348Y-110990517D01*
X66484599Y-110984693D01*
X66508309Y-110981176D01*
X66532250Y-110980000D01*
X67020750Y-110980000D01*
X67044691Y-110981176D01*
G37*
%TD*%
%TO.C,R1*%
G36*
X64618491Y-96210576D02*
G01*
X64642201Y-96214093D01*
X64665452Y-96219917D01*
X64688020Y-96227992D01*
X64709689Y-96238241D01*
X64730248Y-96250564D01*
X64749501Y-96264842D01*
X64767261Y-96280939D01*
X64783358Y-96298699D01*
X64797636Y-96317952D01*
X64809959Y-96338511D01*
X64820208Y-96360180D01*
X64828283Y-96382748D01*
X64834107Y-96405999D01*
X64837624Y-96429709D01*
X64838800Y-96453650D01*
X64838800Y-96942150D01*
X64837624Y-96966091D01*
X64834107Y-96989801D01*
X64828283Y-97013052D01*
X64820208Y-97035620D01*
X64809959Y-97057289D01*
X64797636Y-97077848D01*
X64783358Y-97097101D01*
X64767261Y-97114861D01*
X64749501Y-97130958D01*
X64730248Y-97145236D01*
X64709689Y-97157559D01*
X64688020Y-97167808D01*
X64665452Y-97175883D01*
X64642201Y-97181707D01*
X64618491Y-97185224D01*
X64594550Y-97186400D01*
X64031050Y-97186400D01*
X64007109Y-97185224D01*
X63983399Y-97181707D01*
X63960148Y-97175883D01*
X63937580Y-97167808D01*
X63915911Y-97157559D01*
X63895352Y-97145236D01*
X63876099Y-97130958D01*
X63858339Y-97114861D01*
X63842242Y-97097101D01*
X63827964Y-97077848D01*
X63815641Y-97057289D01*
X63805392Y-97035620D01*
X63797317Y-97013052D01*
X63791493Y-96989801D01*
X63787976Y-96966091D01*
X63786800Y-96942150D01*
X63786800Y-96453650D01*
X63787976Y-96429709D01*
X63791493Y-96405999D01*
X63797317Y-96382748D01*
X63805392Y-96360180D01*
X63815641Y-96338511D01*
X63827964Y-96317952D01*
X63842242Y-96298699D01*
X63858339Y-96280939D01*
X63876099Y-96264842D01*
X63895352Y-96250564D01*
X63915911Y-96238241D01*
X63937580Y-96227992D01*
X63960148Y-96219917D01*
X63983399Y-96214093D01*
X64007109Y-96210576D01*
X64031050Y-96209400D01*
X64594550Y-96209400D01*
X64618491Y-96210576D01*
G37*
G36*
X64618491Y-94635576D02*
G01*
X64642201Y-94639093D01*
X64665452Y-94644917D01*
X64688020Y-94652992D01*
X64709689Y-94663241D01*
X64730248Y-94675564D01*
X64749501Y-94689842D01*
X64767261Y-94705939D01*
X64783358Y-94723699D01*
X64797636Y-94742952D01*
X64809959Y-94763511D01*
X64820208Y-94785180D01*
X64828283Y-94807748D01*
X64834107Y-94830999D01*
X64837624Y-94854709D01*
X64838800Y-94878650D01*
X64838800Y-95367150D01*
X64837624Y-95391091D01*
X64834107Y-95414801D01*
X64828283Y-95438052D01*
X64820208Y-95460620D01*
X64809959Y-95482289D01*
X64797636Y-95502848D01*
X64783358Y-95522101D01*
X64767261Y-95539861D01*
X64749501Y-95555958D01*
X64730248Y-95570236D01*
X64709689Y-95582559D01*
X64688020Y-95592808D01*
X64665452Y-95600883D01*
X64642201Y-95606707D01*
X64618491Y-95610224D01*
X64594550Y-95611400D01*
X64031050Y-95611400D01*
X64007109Y-95610224D01*
X63983399Y-95606707D01*
X63960148Y-95600883D01*
X63937580Y-95592808D01*
X63915911Y-95582559D01*
X63895352Y-95570236D01*
X63876099Y-95555958D01*
X63858339Y-95539861D01*
X63842242Y-95522101D01*
X63827964Y-95502848D01*
X63815641Y-95482289D01*
X63805392Y-95460620D01*
X63797317Y-95438052D01*
X63791493Y-95414801D01*
X63787976Y-95391091D01*
X63786800Y-95367150D01*
X63786800Y-94878650D01*
X63787976Y-94854709D01*
X63791493Y-94830999D01*
X63797317Y-94807748D01*
X63805392Y-94785180D01*
X63815641Y-94763511D01*
X63827964Y-94742952D01*
X63842242Y-94723699D01*
X63858339Y-94705939D01*
X63876099Y-94689842D01*
X63895352Y-94675564D01*
X63915911Y-94663241D01*
X63937580Y-94652992D01*
X63960148Y-94644917D01*
X63983399Y-94639093D01*
X64007109Y-94635576D01*
X64031050Y-94634400D01*
X64594550Y-94634400D01*
X64618491Y-94635576D01*
G37*
%TD*%
D23*
%TO.C,Q1*%
X62772800Y-96621600D03*
X60772800Y-97571600D03*
X60772800Y-95671600D03*
%TD*%
D16*
%TO.C,D1*%
G36*
X69000341Y-108775097D02*
G01*
X69026478Y-108778974D01*
X69052109Y-108785394D01*
X69076988Y-108794295D01*
X69100874Y-108805593D01*
X69123537Y-108819177D01*
X69144760Y-108834917D01*
X69164339Y-108852661D01*
X69182083Y-108872240D01*
X69197823Y-108893463D01*
X69211407Y-108916126D01*
X69222705Y-108940012D01*
X69231606Y-108964891D01*
X69238026Y-108990522D01*
X69241903Y-109016659D01*
X69243200Y-109043050D01*
X69243200Y-110006550D01*
X69241903Y-110032941D01*
X69238026Y-110059078D01*
X69231606Y-110084709D01*
X69222705Y-110109588D01*
X69211407Y-110133474D01*
X69197823Y-110156137D01*
X69182083Y-110177360D01*
X69164339Y-110196939D01*
X69144760Y-110214683D01*
X69123537Y-110230423D01*
X69100874Y-110244007D01*
X69076988Y-110255305D01*
X69052109Y-110264206D01*
X69026478Y-110270626D01*
X69000341Y-110274503D01*
X68973950Y-110275800D01*
X68435450Y-110275800D01*
X68409059Y-110274503D01*
X68382922Y-110270626D01*
X68357291Y-110264206D01*
X68332412Y-110255305D01*
X68308526Y-110244007D01*
X68285863Y-110230423D01*
X68264640Y-110214683D01*
X68245061Y-110196939D01*
X68227317Y-110177360D01*
X68211577Y-110156137D01*
X68197993Y-110133474D01*
X68186695Y-110109588D01*
X68177794Y-110084709D01*
X68171374Y-110059078D01*
X68167497Y-110032941D01*
X68166200Y-110006550D01*
X68166200Y-109043050D01*
X68167497Y-109016659D01*
X68171374Y-108990522D01*
X68177794Y-108964891D01*
X68186695Y-108940012D01*
X68197993Y-108916126D01*
X68211577Y-108893463D01*
X68227317Y-108872240D01*
X68245061Y-108852661D01*
X68264640Y-108834917D01*
X68285863Y-108819177D01*
X68308526Y-108805593D01*
X68332412Y-108794295D01*
X68357291Y-108785394D01*
X68382922Y-108778974D01*
X68409059Y-108775097D01*
X68435450Y-108773800D01*
X68973950Y-108773800D01*
X69000341Y-108775097D01*
G37*
G36*
X67125341Y-108775097D02*
G01*
X67151478Y-108778974D01*
X67177109Y-108785394D01*
X67201988Y-108794295D01*
X67225874Y-108805593D01*
X67248537Y-108819177D01*
X67269760Y-108834917D01*
X67289339Y-108852661D01*
X67307083Y-108872240D01*
X67322823Y-108893463D01*
X67336407Y-108916126D01*
X67347705Y-108940012D01*
X67356606Y-108964891D01*
X67363026Y-108990522D01*
X67366903Y-109016659D01*
X67368200Y-109043050D01*
X67368200Y-110006550D01*
X67366903Y-110032941D01*
X67363026Y-110059078D01*
X67356606Y-110084709D01*
X67347705Y-110109588D01*
X67336407Y-110133474D01*
X67322823Y-110156137D01*
X67307083Y-110177360D01*
X67289339Y-110196939D01*
X67269760Y-110214683D01*
X67248537Y-110230423D01*
X67225874Y-110244007D01*
X67201988Y-110255305D01*
X67177109Y-110264206D01*
X67151478Y-110270626D01*
X67125341Y-110274503D01*
X67098950Y-110275800D01*
X66560450Y-110275800D01*
X66534059Y-110274503D01*
X66507922Y-110270626D01*
X66482291Y-110264206D01*
X66457412Y-110255305D01*
X66433526Y-110244007D01*
X66410863Y-110230423D01*
X66389640Y-110214683D01*
X66370061Y-110196939D01*
X66352317Y-110177360D01*
X66336577Y-110156137D01*
X66322993Y-110133474D01*
X66311695Y-110109588D01*
X66302794Y-110084709D01*
X66296374Y-110059078D01*
X66292497Y-110032941D01*
X66291200Y-110006550D01*
X66291200Y-109043050D01*
X66292497Y-109016659D01*
X66296374Y-108990522D01*
X66302794Y-108964891D01*
X66311695Y-108940012D01*
X66322993Y-108916126D01*
X66336577Y-108893463D01*
X66352317Y-108872240D01*
X66370061Y-108852661D01*
X66389640Y-108834917D01*
X66410863Y-108819177D01*
X66433526Y-108805593D01*
X66457412Y-108794295D01*
X66482291Y-108785394D01*
X66507922Y-108778974D01*
X66534059Y-108775097D01*
X66560450Y-108773800D01*
X67098950Y-108773800D01*
X67125341Y-108775097D01*
G37*
%TD*%
%TO.C,C4*%
G36*
X63945891Y-106256776D02*
G01*
X63969601Y-106260293D01*
X63992852Y-106266117D01*
X64015420Y-106274192D01*
X64037089Y-106284441D01*
X64057648Y-106296764D01*
X64076901Y-106311042D01*
X64094661Y-106327139D01*
X64110758Y-106344899D01*
X64125036Y-106364152D01*
X64137359Y-106384711D01*
X64147608Y-106406380D01*
X64155683Y-106428948D01*
X64161507Y-106452199D01*
X64165024Y-106475909D01*
X64166200Y-106499850D01*
X64166200Y-107063350D01*
X64165024Y-107087291D01*
X64161507Y-107111001D01*
X64155683Y-107134252D01*
X64147608Y-107156820D01*
X64137359Y-107178489D01*
X64125036Y-107199048D01*
X64110758Y-107218301D01*
X64094661Y-107236061D01*
X64076901Y-107252158D01*
X64057648Y-107266436D01*
X64037089Y-107278759D01*
X64015420Y-107289008D01*
X63992852Y-107297083D01*
X63969601Y-107302907D01*
X63945891Y-107306424D01*
X63921950Y-107307600D01*
X63433450Y-107307600D01*
X63409509Y-107306424D01*
X63385799Y-107302907D01*
X63362548Y-107297083D01*
X63339980Y-107289008D01*
X63318311Y-107278759D01*
X63297752Y-107266436D01*
X63278499Y-107252158D01*
X63260739Y-107236061D01*
X63244642Y-107218301D01*
X63230364Y-107199048D01*
X63218041Y-107178489D01*
X63207792Y-107156820D01*
X63199717Y-107134252D01*
X63193893Y-107111001D01*
X63190376Y-107087291D01*
X63189200Y-107063350D01*
X63189200Y-106499850D01*
X63190376Y-106475909D01*
X63193893Y-106452199D01*
X63199717Y-106428948D01*
X63207792Y-106406380D01*
X63218041Y-106384711D01*
X63230364Y-106364152D01*
X63244642Y-106344899D01*
X63260739Y-106327139D01*
X63278499Y-106311042D01*
X63297752Y-106296764D01*
X63318311Y-106284441D01*
X63339980Y-106274192D01*
X63362548Y-106266117D01*
X63385799Y-106260293D01*
X63409509Y-106256776D01*
X63433450Y-106255600D01*
X63921950Y-106255600D01*
X63945891Y-106256776D01*
G37*
G36*
X65520891Y-106256776D02*
G01*
X65544601Y-106260293D01*
X65567852Y-106266117D01*
X65590420Y-106274192D01*
X65612089Y-106284441D01*
X65632648Y-106296764D01*
X65651901Y-106311042D01*
X65669661Y-106327139D01*
X65685758Y-106344899D01*
X65700036Y-106364152D01*
X65712359Y-106384711D01*
X65722608Y-106406380D01*
X65730683Y-106428948D01*
X65736507Y-106452199D01*
X65740024Y-106475909D01*
X65741200Y-106499850D01*
X65741200Y-107063350D01*
X65740024Y-107087291D01*
X65736507Y-107111001D01*
X65730683Y-107134252D01*
X65722608Y-107156820D01*
X65712359Y-107178489D01*
X65700036Y-107199048D01*
X65685758Y-107218301D01*
X65669661Y-107236061D01*
X65651901Y-107252158D01*
X65632648Y-107266436D01*
X65612089Y-107278759D01*
X65590420Y-107289008D01*
X65567852Y-107297083D01*
X65544601Y-107302907D01*
X65520891Y-107306424D01*
X65496950Y-107307600D01*
X65008450Y-107307600D01*
X64984509Y-107306424D01*
X64960799Y-107302907D01*
X64937548Y-107297083D01*
X64914980Y-107289008D01*
X64893311Y-107278759D01*
X64872752Y-107266436D01*
X64853499Y-107252158D01*
X64835739Y-107236061D01*
X64819642Y-107218301D01*
X64805364Y-107199048D01*
X64793041Y-107178489D01*
X64782792Y-107156820D01*
X64774717Y-107134252D01*
X64768893Y-107111001D01*
X64765376Y-107087291D01*
X64764200Y-107063350D01*
X64764200Y-106499850D01*
X64765376Y-106475909D01*
X64768893Y-106452199D01*
X64774717Y-106428948D01*
X64782792Y-106406380D01*
X64793041Y-106384711D01*
X64805364Y-106364152D01*
X64819642Y-106344899D01*
X64835739Y-106327139D01*
X64853499Y-106311042D01*
X64872752Y-106296764D01*
X64893311Y-106284441D01*
X64914980Y-106274192D01*
X64937548Y-106266117D01*
X64960799Y-106260293D01*
X64984509Y-106256776D01*
X65008450Y-106255600D01*
X65496950Y-106255600D01*
X65520891Y-106256776D01*
G37*
%TD*%
%TO.C,C3*%
G36*
X74779091Y-106917176D02*
G01*
X74802801Y-106920693D01*
X74826052Y-106926517D01*
X74848620Y-106934592D01*
X74870289Y-106944841D01*
X74890848Y-106957164D01*
X74910101Y-106971442D01*
X74927861Y-106987539D01*
X74943958Y-107005299D01*
X74958236Y-107024552D01*
X74970559Y-107045111D01*
X74980808Y-107066780D01*
X74988883Y-107089348D01*
X74994707Y-107112599D01*
X74998224Y-107136309D01*
X74999400Y-107160250D01*
X74999400Y-107723750D01*
X74998224Y-107747691D01*
X74994707Y-107771401D01*
X74988883Y-107794652D01*
X74980808Y-107817220D01*
X74970559Y-107838889D01*
X74958236Y-107859448D01*
X74943958Y-107878701D01*
X74927861Y-107896461D01*
X74910101Y-107912558D01*
X74890848Y-107926836D01*
X74870289Y-107939159D01*
X74848620Y-107949408D01*
X74826052Y-107957483D01*
X74802801Y-107963307D01*
X74779091Y-107966824D01*
X74755150Y-107968000D01*
X74266650Y-107968000D01*
X74242709Y-107966824D01*
X74218999Y-107963307D01*
X74195748Y-107957483D01*
X74173180Y-107949408D01*
X74151511Y-107939159D01*
X74130952Y-107926836D01*
X74111699Y-107912558D01*
X74093939Y-107896461D01*
X74077842Y-107878701D01*
X74063564Y-107859448D01*
X74051241Y-107838889D01*
X74040992Y-107817220D01*
X74032917Y-107794652D01*
X74027093Y-107771401D01*
X74023576Y-107747691D01*
X74022400Y-107723750D01*
X74022400Y-107160250D01*
X74023576Y-107136309D01*
X74027093Y-107112599D01*
X74032917Y-107089348D01*
X74040992Y-107066780D01*
X74051241Y-107045111D01*
X74063564Y-107024552D01*
X74077842Y-107005299D01*
X74093939Y-106987539D01*
X74111699Y-106971442D01*
X74130952Y-106957164D01*
X74151511Y-106944841D01*
X74173180Y-106934592D01*
X74195748Y-106926517D01*
X74218999Y-106920693D01*
X74242709Y-106917176D01*
X74266650Y-106916000D01*
X74755150Y-106916000D01*
X74779091Y-106917176D01*
G37*
G36*
X73204091Y-106917176D02*
G01*
X73227801Y-106920693D01*
X73251052Y-106926517D01*
X73273620Y-106934592D01*
X73295289Y-106944841D01*
X73315848Y-106957164D01*
X73335101Y-106971442D01*
X73352861Y-106987539D01*
X73368958Y-107005299D01*
X73383236Y-107024552D01*
X73395559Y-107045111D01*
X73405808Y-107066780D01*
X73413883Y-107089348D01*
X73419707Y-107112599D01*
X73423224Y-107136309D01*
X73424400Y-107160250D01*
X73424400Y-107723750D01*
X73423224Y-107747691D01*
X73419707Y-107771401D01*
X73413883Y-107794652D01*
X73405808Y-107817220D01*
X73395559Y-107838889D01*
X73383236Y-107859448D01*
X73368958Y-107878701D01*
X73352861Y-107896461D01*
X73335101Y-107912558D01*
X73315848Y-107926836D01*
X73295289Y-107939159D01*
X73273620Y-107949408D01*
X73251052Y-107957483D01*
X73227801Y-107963307D01*
X73204091Y-107966824D01*
X73180150Y-107968000D01*
X72691650Y-107968000D01*
X72667709Y-107966824D01*
X72643999Y-107963307D01*
X72620748Y-107957483D01*
X72598180Y-107949408D01*
X72576511Y-107939159D01*
X72555952Y-107926836D01*
X72536699Y-107912558D01*
X72518939Y-107896461D01*
X72502842Y-107878701D01*
X72488564Y-107859448D01*
X72476241Y-107838889D01*
X72465992Y-107817220D01*
X72457917Y-107794652D01*
X72452093Y-107771401D01*
X72448576Y-107747691D01*
X72447400Y-107723750D01*
X72447400Y-107160250D01*
X72448576Y-107136309D01*
X72452093Y-107112599D01*
X72457917Y-107089348D01*
X72465992Y-107066780D01*
X72476241Y-107045111D01*
X72488564Y-107024552D01*
X72502842Y-107005299D01*
X72518939Y-106987539D01*
X72536699Y-106971442D01*
X72555952Y-106957164D01*
X72576511Y-106944841D01*
X72598180Y-106934592D01*
X72620748Y-106926517D01*
X72643999Y-106920693D01*
X72667709Y-106917176D01*
X72691650Y-106916000D01*
X73180150Y-106916000D01*
X73204091Y-106917176D01*
G37*
%TD*%
%TO.C,C2*%
G36*
X71693091Y-106917176D02*
G01*
X71716801Y-106920693D01*
X71740052Y-106926517D01*
X71762620Y-106934592D01*
X71784289Y-106944841D01*
X71804848Y-106957164D01*
X71824101Y-106971442D01*
X71841861Y-106987539D01*
X71857958Y-107005299D01*
X71872236Y-107024552D01*
X71884559Y-107045111D01*
X71894808Y-107066780D01*
X71902883Y-107089348D01*
X71908707Y-107112599D01*
X71912224Y-107136309D01*
X71913400Y-107160250D01*
X71913400Y-107723750D01*
X71912224Y-107747691D01*
X71908707Y-107771401D01*
X71902883Y-107794652D01*
X71894808Y-107817220D01*
X71884559Y-107838889D01*
X71872236Y-107859448D01*
X71857958Y-107878701D01*
X71841861Y-107896461D01*
X71824101Y-107912558D01*
X71804848Y-107926836D01*
X71784289Y-107939159D01*
X71762620Y-107949408D01*
X71740052Y-107957483D01*
X71716801Y-107963307D01*
X71693091Y-107966824D01*
X71669150Y-107968000D01*
X71180650Y-107968000D01*
X71156709Y-107966824D01*
X71132999Y-107963307D01*
X71109748Y-107957483D01*
X71087180Y-107949408D01*
X71065511Y-107939159D01*
X71044952Y-107926836D01*
X71025699Y-107912558D01*
X71007939Y-107896461D01*
X70991842Y-107878701D01*
X70977564Y-107859448D01*
X70965241Y-107838889D01*
X70954992Y-107817220D01*
X70946917Y-107794652D01*
X70941093Y-107771401D01*
X70937576Y-107747691D01*
X70936400Y-107723750D01*
X70936400Y-107160250D01*
X70937576Y-107136309D01*
X70941093Y-107112599D01*
X70946917Y-107089348D01*
X70954992Y-107066780D01*
X70965241Y-107045111D01*
X70977564Y-107024552D01*
X70991842Y-107005299D01*
X71007939Y-106987539D01*
X71025699Y-106971442D01*
X71044952Y-106957164D01*
X71065511Y-106944841D01*
X71087180Y-106934592D01*
X71109748Y-106926517D01*
X71132999Y-106920693D01*
X71156709Y-106917176D01*
X71180650Y-106916000D01*
X71669150Y-106916000D01*
X71693091Y-106917176D01*
G37*
G36*
X70118091Y-106917176D02*
G01*
X70141801Y-106920693D01*
X70165052Y-106926517D01*
X70187620Y-106934592D01*
X70209289Y-106944841D01*
X70229848Y-106957164D01*
X70249101Y-106971442D01*
X70266861Y-106987539D01*
X70282958Y-107005299D01*
X70297236Y-107024552D01*
X70309559Y-107045111D01*
X70319808Y-107066780D01*
X70327883Y-107089348D01*
X70333707Y-107112599D01*
X70337224Y-107136309D01*
X70338400Y-107160250D01*
X70338400Y-107723750D01*
X70337224Y-107747691D01*
X70333707Y-107771401D01*
X70327883Y-107794652D01*
X70319808Y-107817220D01*
X70309559Y-107838889D01*
X70297236Y-107859448D01*
X70282958Y-107878701D01*
X70266861Y-107896461D01*
X70249101Y-107912558D01*
X70229848Y-107926836D01*
X70209289Y-107939159D01*
X70187620Y-107949408D01*
X70165052Y-107957483D01*
X70141801Y-107963307D01*
X70118091Y-107966824D01*
X70094150Y-107968000D01*
X69605650Y-107968000D01*
X69581709Y-107966824D01*
X69557999Y-107963307D01*
X69534748Y-107957483D01*
X69512180Y-107949408D01*
X69490511Y-107939159D01*
X69469952Y-107926836D01*
X69450699Y-107912558D01*
X69432939Y-107896461D01*
X69416842Y-107878701D01*
X69402564Y-107859448D01*
X69390241Y-107838889D01*
X69379992Y-107817220D01*
X69371917Y-107794652D01*
X69366093Y-107771401D01*
X69362576Y-107747691D01*
X69361400Y-107723750D01*
X69361400Y-107160250D01*
X69362576Y-107136309D01*
X69366093Y-107112599D01*
X69371917Y-107089348D01*
X69379992Y-107066780D01*
X69390241Y-107045111D01*
X69402564Y-107024552D01*
X69416842Y-107005299D01*
X69432939Y-106987539D01*
X69450699Y-106971442D01*
X69469952Y-106957164D01*
X69490511Y-106944841D01*
X69512180Y-106934592D01*
X69534748Y-106926517D01*
X69557999Y-106920693D01*
X69581709Y-106917176D01*
X69605650Y-106916000D01*
X70094150Y-106916000D01*
X70118091Y-106917176D01*
G37*
%TD*%
%TO.C,C1*%
G36*
X71692991Y-112454376D02*
G01*
X71716701Y-112457893D01*
X71739952Y-112463717D01*
X71762520Y-112471792D01*
X71784189Y-112482041D01*
X71804748Y-112494364D01*
X71824001Y-112508642D01*
X71841761Y-112524739D01*
X71857858Y-112542499D01*
X71872136Y-112561752D01*
X71884459Y-112582311D01*
X71894708Y-112603980D01*
X71902783Y-112626548D01*
X71908607Y-112649799D01*
X71912124Y-112673509D01*
X71913300Y-112697450D01*
X71913300Y-113260950D01*
X71912124Y-113284891D01*
X71908607Y-113308601D01*
X71902783Y-113331852D01*
X71894708Y-113354420D01*
X71884459Y-113376089D01*
X71872136Y-113396648D01*
X71857858Y-113415901D01*
X71841761Y-113433661D01*
X71824001Y-113449758D01*
X71804748Y-113464036D01*
X71784189Y-113476359D01*
X71762520Y-113486608D01*
X71739952Y-113494683D01*
X71716701Y-113500507D01*
X71692991Y-113504024D01*
X71669050Y-113505200D01*
X71180550Y-113505200D01*
X71156609Y-113504024D01*
X71132899Y-113500507D01*
X71109648Y-113494683D01*
X71087080Y-113486608D01*
X71065411Y-113476359D01*
X71044852Y-113464036D01*
X71025599Y-113449758D01*
X71007839Y-113433661D01*
X70991742Y-113415901D01*
X70977464Y-113396648D01*
X70965141Y-113376089D01*
X70954892Y-113354420D01*
X70946817Y-113331852D01*
X70940993Y-113308601D01*
X70937476Y-113284891D01*
X70936300Y-113260950D01*
X70936300Y-112697450D01*
X70937476Y-112673509D01*
X70940993Y-112649799D01*
X70946817Y-112626548D01*
X70954892Y-112603980D01*
X70965141Y-112582311D01*
X70977464Y-112561752D01*
X70991742Y-112542499D01*
X71007839Y-112524739D01*
X71025599Y-112508642D01*
X71044852Y-112494364D01*
X71065411Y-112482041D01*
X71087080Y-112471792D01*
X71109648Y-112463717D01*
X71132899Y-112457893D01*
X71156609Y-112454376D01*
X71180550Y-112453200D01*
X71669050Y-112453200D01*
X71692991Y-112454376D01*
G37*
G36*
X70117991Y-112454376D02*
G01*
X70141701Y-112457893D01*
X70164952Y-112463717D01*
X70187520Y-112471792D01*
X70209189Y-112482041D01*
X70229748Y-112494364D01*
X70249001Y-112508642D01*
X70266761Y-112524739D01*
X70282858Y-112542499D01*
X70297136Y-112561752D01*
X70309459Y-112582311D01*
X70319708Y-112603980D01*
X70327783Y-112626548D01*
X70333607Y-112649799D01*
X70337124Y-112673509D01*
X70338300Y-112697450D01*
X70338300Y-113260950D01*
X70337124Y-113284891D01*
X70333607Y-113308601D01*
X70327783Y-113331852D01*
X70319708Y-113354420D01*
X70309459Y-113376089D01*
X70297136Y-113396648D01*
X70282858Y-113415901D01*
X70266761Y-113433661D01*
X70249001Y-113449758D01*
X70229748Y-113464036D01*
X70209189Y-113476359D01*
X70187520Y-113486608D01*
X70164952Y-113494683D01*
X70141701Y-113500507D01*
X70117991Y-113504024D01*
X70094050Y-113505200D01*
X69605550Y-113505200D01*
X69581609Y-113504024D01*
X69557899Y-113500507D01*
X69534648Y-113494683D01*
X69512080Y-113486608D01*
X69490411Y-113476359D01*
X69469852Y-113464036D01*
X69450599Y-113449758D01*
X69432839Y-113433661D01*
X69416742Y-113415901D01*
X69402464Y-113396648D01*
X69390141Y-113376089D01*
X69379892Y-113354420D01*
X69371817Y-113331852D01*
X69365993Y-113308601D01*
X69362476Y-113284891D01*
X69361300Y-113260950D01*
X69361300Y-112697450D01*
X69362476Y-112673509D01*
X69365993Y-112649799D01*
X69371817Y-112626548D01*
X69379892Y-112603980D01*
X69390141Y-112582311D01*
X69402464Y-112561752D01*
X69416742Y-112542499D01*
X69432839Y-112524739D01*
X69450599Y-112508642D01*
X69469852Y-112494364D01*
X69490411Y-112482041D01*
X69512080Y-112471792D01*
X69534648Y-112463717D01*
X69557899Y-112457893D01*
X69581609Y-112454376D01*
X69605550Y-112453200D01*
X70094050Y-112453200D01*
X70117991Y-112454376D01*
G37*
%TD*%
%TO.C,R9*%
G36*
X62802791Y-110981176D02*
G01*
X62826501Y-110984693D01*
X62849752Y-110990517D01*
X62872320Y-110998592D01*
X62893989Y-111008841D01*
X62914548Y-111021164D01*
X62933801Y-111035442D01*
X62951561Y-111051539D01*
X62967658Y-111069299D01*
X62981936Y-111088552D01*
X62994259Y-111109111D01*
X63004508Y-111130780D01*
X63012583Y-111153348D01*
X63018407Y-111176599D01*
X63021924Y-111200309D01*
X63023100Y-111224250D01*
X63023100Y-111787750D01*
X63021924Y-111811691D01*
X63018407Y-111835401D01*
X63012583Y-111858652D01*
X63004508Y-111881220D01*
X62994259Y-111902889D01*
X62981936Y-111923448D01*
X62967658Y-111942701D01*
X62951561Y-111960461D01*
X62933801Y-111976558D01*
X62914548Y-111990836D01*
X62893989Y-112003159D01*
X62872320Y-112013408D01*
X62849752Y-112021483D01*
X62826501Y-112027307D01*
X62802791Y-112030824D01*
X62778850Y-112032000D01*
X62290350Y-112032000D01*
X62266409Y-112030824D01*
X62242699Y-112027307D01*
X62219448Y-112021483D01*
X62196880Y-112013408D01*
X62175211Y-112003159D01*
X62154652Y-111990836D01*
X62135399Y-111976558D01*
X62117639Y-111960461D01*
X62101542Y-111942701D01*
X62087264Y-111923448D01*
X62074941Y-111902889D01*
X62064692Y-111881220D01*
X62056617Y-111858652D01*
X62050793Y-111835401D01*
X62047276Y-111811691D01*
X62046100Y-111787750D01*
X62046100Y-111224250D01*
X62047276Y-111200309D01*
X62050793Y-111176599D01*
X62056617Y-111153348D01*
X62064692Y-111130780D01*
X62074941Y-111109111D01*
X62087264Y-111088552D01*
X62101542Y-111069299D01*
X62117639Y-111051539D01*
X62135399Y-111035442D01*
X62154652Y-111021164D01*
X62175211Y-111008841D01*
X62196880Y-110998592D01*
X62219448Y-110990517D01*
X62242699Y-110984693D01*
X62266409Y-110981176D01*
X62290350Y-110980000D01*
X62778850Y-110980000D01*
X62802791Y-110981176D01*
G37*
G36*
X64377791Y-110981176D02*
G01*
X64401501Y-110984693D01*
X64424752Y-110990517D01*
X64447320Y-110998592D01*
X64468989Y-111008841D01*
X64489548Y-111021164D01*
X64508801Y-111035442D01*
X64526561Y-111051539D01*
X64542658Y-111069299D01*
X64556936Y-111088552D01*
X64569259Y-111109111D01*
X64579508Y-111130780D01*
X64587583Y-111153348D01*
X64593407Y-111176599D01*
X64596924Y-111200309D01*
X64598100Y-111224250D01*
X64598100Y-111787750D01*
X64596924Y-111811691D01*
X64593407Y-111835401D01*
X64587583Y-111858652D01*
X64579508Y-111881220D01*
X64569259Y-111902889D01*
X64556936Y-111923448D01*
X64542658Y-111942701D01*
X64526561Y-111960461D01*
X64508801Y-111976558D01*
X64489548Y-111990836D01*
X64468989Y-112003159D01*
X64447320Y-112013408D01*
X64424752Y-112021483D01*
X64401501Y-112027307D01*
X64377791Y-112030824D01*
X64353850Y-112032000D01*
X63865350Y-112032000D01*
X63841409Y-112030824D01*
X63817699Y-112027307D01*
X63794448Y-112021483D01*
X63771880Y-112013408D01*
X63750211Y-112003159D01*
X63729652Y-111990836D01*
X63710399Y-111976558D01*
X63692639Y-111960461D01*
X63676542Y-111942701D01*
X63662264Y-111923448D01*
X63649941Y-111902889D01*
X63639692Y-111881220D01*
X63631617Y-111858652D01*
X63625793Y-111835401D01*
X63622276Y-111811691D01*
X63621100Y-111787750D01*
X63621100Y-111224250D01*
X63622276Y-111200309D01*
X63625793Y-111176599D01*
X63631617Y-111153348D01*
X63639692Y-111130780D01*
X63649941Y-111109111D01*
X63662264Y-111088552D01*
X63676542Y-111069299D01*
X63692639Y-111051539D01*
X63710399Y-111035442D01*
X63729652Y-111021164D01*
X63750211Y-111008841D01*
X63771880Y-110998592D01*
X63794448Y-110990517D01*
X63817699Y-110984693D01*
X63841409Y-110981176D01*
X63865350Y-110980000D01*
X64353850Y-110980000D01*
X64377791Y-110981176D01*
G37*
%TD*%
%TO.C,R8*%
G36*
X88990291Y-109558776D02*
G01*
X89014001Y-109562293D01*
X89037252Y-109568117D01*
X89059820Y-109576192D01*
X89081489Y-109586441D01*
X89102048Y-109598764D01*
X89121301Y-109613042D01*
X89139061Y-109629139D01*
X89155158Y-109646899D01*
X89169436Y-109666152D01*
X89181759Y-109686711D01*
X89192008Y-109708380D01*
X89200083Y-109730948D01*
X89205907Y-109754199D01*
X89209424Y-109777909D01*
X89210600Y-109801850D01*
X89210600Y-110365350D01*
X89209424Y-110389291D01*
X89205907Y-110413001D01*
X89200083Y-110436252D01*
X89192008Y-110458820D01*
X89181759Y-110480489D01*
X89169436Y-110501048D01*
X89155158Y-110520301D01*
X89139061Y-110538061D01*
X89121301Y-110554158D01*
X89102048Y-110568436D01*
X89081489Y-110580759D01*
X89059820Y-110591008D01*
X89037252Y-110599083D01*
X89014001Y-110604907D01*
X88990291Y-110608424D01*
X88966350Y-110609600D01*
X88477850Y-110609600D01*
X88453909Y-110608424D01*
X88430199Y-110604907D01*
X88406948Y-110599083D01*
X88384380Y-110591008D01*
X88362711Y-110580759D01*
X88342152Y-110568436D01*
X88322899Y-110554158D01*
X88305139Y-110538061D01*
X88289042Y-110520301D01*
X88274764Y-110501048D01*
X88262441Y-110480489D01*
X88252192Y-110458820D01*
X88244117Y-110436252D01*
X88238293Y-110413001D01*
X88234776Y-110389291D01*
X88233600Y-110365350D01*
X88233600Y-109801850D01*
X88234776Y-109777909D01*
X88238293Y-109754199D01*
X88244117Y-109730948D01*
X88252192Y-109708380D01*
X88262441Y-109686711D01*
X88274764Y-109666152D01*
X88289042Y-109646899D01*
X88305139Y-109629139D01*
X88322899Y-109613042D01*
X88342152Y-109598764D01*
X88362711Y-109586441D01*
X88384380Y-109576192D01*
X88406948Y-109568117D01*
X88430199Y-109562293D01*
X88453909Y-109558776D01*
X88477850Y-109557600D01*
X88966350Y-109557600D01*
X88990291Y-109558776D01*
G37*
G36*
X90565291Y-109558776D02*
G01*
X90589001Y-109562293D01*
X90612252Y-109568117D01*
X90634820Y-109576192D01*
X90656489Y-109586441D01*
X90677048Y-109598764D01*
X90696301Y-109613042D01*
X90714061Y-109629139D01*
X90730158Y-109646899D01*
X90744436Y-109666152D01*
X90756759Y-109686711D01*
X90767008Y-109708380D01*
X90775083Y-109730948D01*
X90780907Y-109754199D01*
X90784424Y-109777909D01*
X90785600Y-109801850D01*
X90785600Y-110365350D01*
X90784424Y-110389291D01*
X90780907Y-110413001D01*
X90775083Y-110436252D01*
X90767008Y-110458820D01*
X90756759Y-110480489D01*
X90744436Y-110501048D01*
X90730158Y-110520301D01*
X90714061Y-110538061D01*
X90696301Y-110554158D01*
X90677048Y-110568436D01*
X90656489Y-110580759D01*
X90634820Y-110591008D01*
X90612252Y-110599083D01*
X90589001Y-110604907D01*
X90565291Y-110608424D01*
X90541350Y-110609600D01*
X90052850Y-110609600D01*
X90028909Y-110608424D01*
X90005199Y-110604907D01*
X89981948Y-110599083D01*
X89959380Y-110591008D01*
X89937711Y-110580759D01*
X89917152Y-110568436D01*
X89897899Y-110554158D01*
X89880139Y-110538061D01*
X89864042Y-110520301D01*
X89849764Y-110501048D01*
X89837441Y-110480489D01*
X89827192Y-110458820D01*
X89819117Y-110436252D01*
X89813293Y-110413001D01*
X89809776Y-110389291D01*
X89808600Y-110365350D01*
X89808600Y-109801850D01*
X89809776Y-109777909D01*
X89813293Y-109754199D01*
X89819117Y-109730948D01*
X89827192Y-109708380D01*
X89837441Y-109686711D01*
X89849764Y-109666152D01*
X89864042Y-109646899D01*
X89880139Y-109629139D01*
X89897899Y-109613042D01*
X89917152Y-109598764D01*
X89937711Y-109586441D01*
X89959380Y-109576192D01*
X89981948Y-109568117D01*
X90005199Y-109562293D01*
X90028909Y-109558776D01*
X90052850Y-109557600D01*
X90541350Y-109557600D01*
X90565291Y-109558776D01*
G37*
%TD*%
D24*
%TO.C,U7*%
X76336000Y-105156000D03*
X76336000Y-104140000D03*
X76336000Y-103124000D03*
X76336000Y-102108000D03*
X76336000Y-101092000D03*
X76336000Y-100076000D03*
X76336000Y-99060000D03*
X76336000Y-98044000D03*
D25*
X85852000Y-108100000D03*
X91948000Y-108100000D03*
X82804000Y-108100000D03*
X83820000Y-108100000D03*
X90932000Y-108100000D03*
X89916000Y-108100000D03*
X88900000Y-108100000D03*
X87884000Y-108100000D03*
X77724000Y-108100000D03*
X78740000Y-108100000D03*
X84836000Y-108100000D03*
X80772000Y-108100000D03*
X86868000Y-108100000D03*
X81788000Y-108100000D03*
X79756000Y-108100000D03*
X91948000Y-95100000D03*
X90932000Y-95100000D03*
X89916000Y-95100000D03*
X88900000Y-95100000D03*
X87884000Y-95100000D03*
X86868000Y-95100000D03*
X85852000Y-95100000D03*
X84836000Y-95100000D03*
X83836000Y-95100000D03*
X82804000Y-95100000D03*
X81788000Y-95100000D03*
X80772000Y-95100000D03*
X79756000Y-95100000D03*
X78740000Y-95100000D03*
X77724000Y-95100000D03*
D26*
X82836000Y-101600000D03*
%TD*%
M02*
