%TF.GenerationSoftware,KiCad,Pcbnew,5.1.7+dfsg1-1~bpo10+1*%
%TF.CreationDate,Date%
%TF.ProjectId,osw-light,6f73772d-6c69-4676-9874-2e6b69636164,3.1*%
%TF.SameCoordinates,Original*%
%TF.FileFunction,Soldermask,Bot*%
%TF.FilePolarity,Negative*%
%FSLAX46Y46*%
G04 Gerber Fmt 4.6, Leading zero omitted, Abs format (unit mm)*
G04 Created by KiCad*
%MOMM*%
%LPD*%
G01*
G04 APERTURE LIST*
%ADD10O,1.100000X1.100000*%
%ADD11O,1.600000X2.100000*%
%ADD12C,0.652000*%
G04 APERTURE END LIST*
D10*
%TO.C,U5*%
X78486000Y-115570000D03*
X73914000Y-115570000D03*
D11*
X79248000Y-117792500D03*
X73152000Y-117792500D03*
%TD*%
D12*
%TO.C,SW2*%
X85888834Y-88148769D03*
X84344422Y-87145816D03*
%TD*%
%TO.C,SW1*%
X68108834Y-87111231D03*
X66564422Y-88114184D03*
%TD*%
%TO.C,SW5*%
X66511166Y-115051231D03*
X68055578Y-116054184D03*
%TD*%
%TO.C,SW4*%
X84291166Y-116088769D03*
X85835578Y-115085816D03*
%TD*%
%TO.C,U4*%
G36*
G01*
X64278000Y-101151000D02*
X66778000Y-101151000D01*
G75*
G02*
X66829000Y-101202000I0J-51000D01*
G01*
X66829000Y-101552000D01*
G75*
G02*
X66778000Y-101603000I-51000J0D01*
G01*
X64278000Y-101603000D01*
G75*
G02*
X64227000Y-101552000I0J51000D01*
G01*
X64227000Y-101202000D01*
G75*
G02*
X64278000Y-101151000I51000J0D01*
G01*
G37*
G36*
G01*
X64278000Y-100451000D02*
X66778000Y-100451000D01*
G75*
G02*
X66829000Y-100502000I0J-51000D01*
G01*
X66829000Y-100852000D01*
G75*
G02*
X66778000Y-100903000I-51000J0D01*
G01*
X64278000Y-100903000D01*
G75*
G02*
X64227000Y-100852000I0J51000D01*
G01*
X64227000Y-100502000D01*
G75*
G02*
X64278000Y-100451000I51000J0D01*
G01*
G37*
G36*
G01*
X64278000Y-99751000D02*
X66778000Y-99751000D01*
G75*
G02*
X66829000Y-99802000I0J-51000D01*
G01*
X66829000Y-100152000D01*
G75*
G02*
X66778000Y-100203000I-51000J0D01*
G01*
X64278000Y-100203000D01*
G75*
G02*
X64227000Y-100152000I0J51000D01*
G01*
X64227000Y-99802000D01*
G75*
G02*
X64278000Y-99751000I51000J0D01*
G01*
G37*
G36*
G01*
X64278000Y-99051000D02*
X66778000Y-99051000D01*
G75*
G02*
X66829000Y-99102000I0J-51000D01*
G01*
X66829000Y-99452000D01*
G75*
G02*
X66778000Y-99503000I-51000J0D01*
G01*
X64278000Y-99503000D01*
G75*
G02*
X64227000Y-99452000I0J51000D01*
G01*
X64227000Y-99102000D01*
G75*
G02*
X64278000Y-99051000I51000J0D01*
G01*
G37*
G36*
G01*
X64278000Y-98351000D02*
X66778000Y-98351000D01*
G75*
G02*
X66829000Y-98402000I0J-51000D01*
G01*
X66829000Y-98752000D01*
G75*
G02*
X66778000Y-98803000I-51000J0D01*
G01*
X64278000Y-98803000D01*
G75*
G02*
X64227000Y-98752000I0J51000D01*
G01*
X64227000Y-98402000D01*
G75*
G02*
X64278000Y-98351000I51000J0D01*
G01*
G37*
G36*
G01*
X64278000Y-97651000D02*
X66778000Y-97651000D01*
G75*
G02*
X66829000Y-97702000I0J-51000D01*
G01*
X66829000Y-98052000D01*
G75*
G02*
X66778000Y-98103000I-51000J0D01*
G01*
X64278000Y-98103000D01*
G75*
G02*
X64227000Y-98052000I0J51000D01*
G01*
X64227000Y-97702000D01*
G75*
G02*
X64278000Y-97651000I51000J0D01*
G01*
G37*
G36*
G01*
X64278000Y-101851000D02*
X66778000Y-101851000D01*
G75*
G02*
X66829000Y-101902000I0J-51000D01*
G01*
X66829000Y-102252000D01*
G75*
G02*
X66778000Y-102303000I-51000J0D01*
G01*
X64278000Y-102303000D01*
G75*
G02*
X64227000Y-102252000I0J51000D01*
G01*
X64227000Y-101902000D01*
G75*
G02*
X64278000Y-101851000I51000J0D01*
G01*
G37*
G36*
G01*
X64278000Y-102551000D02*
X66778000Y-102551000D01*
G75*
G02*
X66829000Y-102602000I0J-51000D01*
G01*
X66829000Y-102952000D01*
G75*
G02*
X66778000Y-103003000I-51000J0D01*
G01*
X64278000Y-103003000D01*
G75*
G02*
X64227000Y-102952000I0J51000D01*
G01*
X64227000Y-102602000D01*
G75*
G02*
X64278000Y-102551000I51000J0D01*
G01*
G37*
G36*
G01*
X64278000Y-103251000D02*
X66778000Y-103251000D01*
G75*
G02*
X66829000Y-103302000I0J-51000D01*
G01*
X66829000Y-103652000D01*
G75*
G02*
X66778000Y-103703000I-51000J0D01*
G01*
X64278000Y-103703000D01*
G75*
G02*
X64227000Y-103652000I0J51000D01*
G01*
X64227000Y-103302000D01*
G75*
G02*
X64278000Y-103251000I51000J0D01*
G01*
G37*
G36*
G01*
X64278000Y-103951000D02*
X66778000Y-103951000D01*
G75*
G02*
X66829000Y-104002000I0J-51000D01*
G01*
X66829000Y-104352000D01*
G75*
G02*
X66778000Y-104403000I-51000J0D01*
G01*
X64278000Y-104403000D01*
G75*
G02*
X64227000Y-104352000I0J51000D01*
G01*
X64227000Y-104002000D01*
G75*
G02*
X64278000Y-103951000I51000J0D01*
G01*
G37*
G36*
G01*
X64278000Y-104651000D02*
X66778000Y-104651000D01*
G75*
G02*
X66829000Y-104702000I0J-51000D01*
G01*
X66829000Y-105052000D01*
G75*
G02*
X66778000Y-105103000I-51000J0D01*
G01*
X64278000Y-105103000D01*
G75*
G02*
X64227000Y-105052000I0J51000D01*
G01*
X64227000Y-104702000D01*
G75*
G02*
X64278000Y-104651000I51000J0D01*
G01*
G37*
G36*
G01*
X64278000Y-105351000D02*
X66778000Y-105351000D01*
G75*
G02*
X66829000Y-105402000I0J-51000D01*
G01*
X66829000Y-105752000D01*
G75*
G02*
X66778000Y-105803000I-51000J0D01*
G01*
X64278000Y-105803000D01*
G75*
G02*
X64227000Y-105752000I0J51000D01*
G01*
X64227000Y-105402000D01*
G75*
G02*
X64278000Y-105351000I51000J0D01*
G01*
G37*
%TD*%
M02*
