%TF.GenerationSoftware,KiCad,Pcbnew,5.1.5+dfsg1-2~bpo10+1*%
%TF.CreationDate,Date%
%TF.ProjectId,osw,6f73772e-6b69-4636-9164-5f7063625858,1.0*%
%TF.SameCoordinates,Original*%
%TF.FileFunction,Legend,Top*%
%TF.FilePolarity,Positive*%
%FSLAX46Y46*%
G04 Gerber Fmt 4.6, Leading zero omitted, Abs format (unit mm)*
G04 Created by KiCad*
%MOMM*%
%LPD*%
G04 APERTURE LIST*
%ADD10C,0.050000*%
%ADD11C,0.150000*%
%ADD12C,0.120000*%
%ADD13C,0.100000*%
G04 APERTURE END LIST*
D10*
X137500000Y-93900000D02*
X182500000Y-93900000D01*
X137500000Y-124500000D02*
X137500000Y-93900000D01*
X182500000Y-124500000D02*
X137500000Y-124500000D01*
X182500000Y-93900000D02*
X182500000Y-124500000D01*
D11*
%TO.C,SW2*%
X167607312Y-93066042D02*
X171717118Y-96051992D01*
X171717118Y-96051992D02*
X172892688Y-94433958D01*
X172892688Y-94433958D02*
X168782882Y-91448008D01*
X168782882Y-91448008D02*
X167607312Y-93066042D01*
X170028768Y-92353198D02*
X170933958Y-91107312D01*
X170933958Y-91107312D02*
X172551992Y-92282882D01*
X172551992Y-92282882D02*
X171646802Y-93528768D01*
%TO.C,SW1*%
X148203437Y-95749388D02*
X152414948Y-92908688D01*
X152414948Y-92908688D02*
X151296563Y-91250612D01*
X151296563Y-91250612D02*
X147085052Y-94091312D01*
X147085052Y-94091312D02*
X148203437Y-95749388D01*
X148361770Y-93230155D02*
X147500612Y-91953437D01*
X147500612Y-91953437D02*
X149158688Y-90835052D01*
X149158688Y-90835052D02*
X150019845Y-92111770D01*
%TO.C,SW5*%
X154373421Y-128511734D02*
X150161910Y-125671034D01*
X150161910Y-125671034D02*
X149043525Y-127329110D01*
X149043525Y-127329110D02*
X153255036Y-130169810D01*
X153255036Y-130169810D02*
X154373421Y-128511734D01*
X151978318Y-129308652D02*
X151117161Y-130585370D01*
X151117161Y-130585370D02*
X149459085Y-129466985D01*
X149459085Y-129466985D02*
X150320243Y-128190267D01*
%TO.C,SW4*%
X169962184Y-125590746D02*
X165701738Y-128357513D01*
X165701738Y-128357513D02*
X166791016Y-130034854D01*
X166791016Y-130034854D02*
X171051462Y-127268087D01*
X171051462Y-127268087D02*
X169962184Y-125590746D01*
X169759910Y-128106832D02*
X170598654Y-129398384D01*
X170598654Y-129398384D02*
X168921313Y-130487662D01*
X168921313Y-130487662D02*
X168082568Y-129196110D01*
%TO.C,U8*%
X155200000Y-89250000D02*
X164800000Y-89250000D01*
X162700000Y-103050000D02*
X164800000Y-103050000D01*
X153702349Y-102275000D02*
G75*
G03X153702349Y-102275000I-102349J0D01*
G01*
X155200000Y-103050000D02*
X157300000Y-103050000D01*
D12*
%TO.C,R18*%
X172171579Y-99722400D02*
X171846021Y-99722400D01*
X172171579Y-98702400D02*
X171846021Y-98702400D01*
%TO.C,C11*%
X172171579Y-98147600D02*
X171846021Y-98147600D01*
X172171579Y-97127600D02*
X171846021Y-97127600D01*
%TO.C,C21*%
X168061321Y-97127600D02*
X168386879Y-97127600D01*
X168061321Y-98147600D02*
X168386879Y-98147600D01*
%TO.C,C22*%
X156212321Y-106881200D02*
X156537879Y-106881200D01*
X156212321Y-107901200D02*
X156537879Y-107901200D01*
%TO.C,C20*%
X168061321Y-98702400D02*
X168386879Y-98702400D01*
X168061321Y-99722400D02*
X168386879Y-99722400D01*
D11*
%TO.C,XS1*%
X138900000Y-100450000D02*
X138900000Y-107800000D01*
X138900000Y-107800000D02*
X138850000Y-109150000D01*
X138850000Y-109150000D02*
X138700000Y-110300000D01*
X138700000Y-110300000D02*
X138500000Y-111400000D01*
X138500000Y-111400000D02*
X138200000Y-112450000D01*
X152200000Y-110600000D02*
X153500000Y-110600000D01*
X144000000Y-100450000D02*
X151200000Y-100450000D01*
X141200000Y-100450000D02*
X138900000Y-100450000D01*
X138200000Y-112450000D02*
X138200000Y-115150000D01*
X138200000Y-115150000D02*
X141200000Y-115150000D01*
X151200000Y-115150000D02*
X144000000Y-115150000D01*
X151600000Y-110150000D02*
X151600000Y-109850000D01*
X151600000Y-109850000D02*
X151300000Y-109850000D01*
X151300000Y-109850000D02*
X151300000Y-110150000D01*
X151300000Y-110150000D02*
X151600000Y-110150000D01*
X152200000Y-110600000D02*
X152200000Y-113600000D01*
D12*
%TO.C,U13*%
X162258100Y-109247100D02*
X162258100Y-111697100D01*
X165478100Y-111047100D02*
X165478100Y-109247100D01*
%TO.C,U12*%
X156199000Y-124292000D02*
X158649000Y-124292000D01*
X157999000Y-121072000D02*
X156199000Y-121072000D01*
%TO.C,U10*%
X157999000Y-117262000D02*
X155549000Y-117262000D01*
X156199000Y-120482000D02*
X157999000Y-120482000D01*
%TO.C,R22*%
X156537879Y-115034600D02*
X156212321Y-115034600D01*
X156537879Y-116054600D02*
X156212321Y-116054600D01*
%TO.C,R21*%
X156212321Y-114530600D02*
X156537879Y-114530600D01*
X156212321Y-113510600D02*
X156537879Y-113510600D01*
%TO.C,R20*%
X163692621Y-115038600D02*
X164018179Y-115038600D01*
X163692621Y-114018600D02*
X164018179Y-114018600D01*
%TO.C,R12*%
X160253879Y-106843100D02*
X159928321Y-106843100D01*
X160253879Y-107863100D02*
X159928321Y-107863100D01*
%TO.C,R3*%
X168061321Y-104446800D02*
X168386879Y-104446800D01*
X168061321Y-103426800D02*
X168386879Y-103426800D01*
%TO.C,R2*%
X159928321Y-106339100D02*
X160253879Y-106339100D01*
X159928321Y-105319100D02*
X160253879Y-105319100D01*
%TO.C,C19*%
X163679821Y-106339100D02*
X164005379Y-106339100D01*
X163679821Y-105319100D02*
X164005379Y-105319100D01*
%TO.C,C18*%
X161034000Y-118836221D02*
X161034000Y-119161779D01*
X162054000Y-118836221D02*
X162054000Y-119161779D01*
%TO.C,C17*%
X163679821Y-107926600D02*
X164005379Y-107926600D01*
X163679821Y-106906600D02*
X164005379Y-106906600D01*
%TO.C,C16*%
X159446500Y-118836221D02*
X159446500Y-119161779D01*
X160466500Y-118836221D02*
X160466500Y-119161779D01*
%TO.C,C15*%
X163692621Y-113463800D02*
X164018179Y-113463800D01*
X163692621Y-112443800D02*
X164018179Y-112443800D01*
%TO.C,C14*%
X153820400Y-119318821D02*
X153820400Y-119644379D01*
X154840400Y-119318821D02*
X154840400Y-119644379D01*
%TO.C,C6*%
X161641200Y-113632064D02*
X161641200Y-112427936D01*
X159821200Y-113632064D02*
X159821200Y-112427936D01*
%TO.C,C5*%
X151439200Y-118396936D02*
X151439200Y-119601064D01*
X153259200Y-118396936D02*
X153259200Y-119601064D01*
%TO.C,U2*%
X179600000Y-100500000D02*
X179600000Y-100500000D01*
X180100000Y-100500000D02*
X179600000Y-100500000D01*
X179600000Y-102200000D02*
X179600000Y-102200000D01*
X179600000Y-102700000D02*
X179600000Y-102200000D01*
X180100000Y-102700000D02*
X179600000Y-102700000D01*
X181300000Y-102700000D02*
X181300000Y-102700000D01*
X181800000Y-102700000D02*
X181300000Y-102700000D01*
X181800000Y-102200000D02*
X181800000Y-102700000D01*
X181800000Y-101000000D02*
X181800000Y-101000000D01*
X181800000Y-100500000D02*
X181800000Y-101000000D01*
X181300000Y-100500000D02*
X181800000Y-100500000D01*
%TO.C,U9*%
X145440400Y-116890000D02*
X141840400Y-116890000D01*
X145440400Y-116890000D02*
X147640400Y-116890000D01*
X145440400Y-120110000D02*
X143240400Y-120110000D01*
X145440400Y-120110000D02*
X147640400Y-120110000D01*
%TO.C,R19*%
X139029221Y-117028500D02*
X139354779Y-117028500D01*
X139029221Y-118048500D02*
X139354779Y-118048500D01*
%TO.C,C13*%
X177990000Y-101612779D02*
X177990000Y-101287221D01*
X179010000Y-101612779D02*
X179010000Y-101287221D01*
%TO.C,C12*%
X172171579Y-101297200D02*
X171846021Y-101297200D01*
X172171579Y-100277200D02*
X171846021Y-100277200D01*
%TO.C,C10*%
X168061321Y-100277200D02*
X168386879Y-100277200D01*
X168061321Y-101297200D02*
X168386879Y-101297200D01*
%TO.C,C9*%
X162621500Y-119161779D02*
X162621500Y-118836221D01*
X163641500Y-119161779D02*
X163641500Y-118836221D01*
%TO.C,C8*%
X165643779Y-120144000D02*
X165318221Y-120144000D01*
X165643779Y-119124000D02*
X165318221Y-119124000D01*
%TO.C,C7*%
X156199621Y-105331800D02*
X156525179Y-105331800D01*
X156199621Y-106351800D02*
X156525179Y-106351800D01*
%TO.C,R17*%
X144352779Y-97969500D02*
X144027221Y-97969500D01*
X144352779Y-96949500D02*
X144027221Y-96949500D01*
%TO.C,R16*%
X144027221Y-95349500D02*
X144352779Y-95349500D01*
X144027221Y-96369500D02*
X144352779Y-96369500D01*
%TO.C,R7*%
X171871321Y-102872000D02*
X172196879Y-102872000D01*
X171871321Y-101852000D02*
X172196879Y-101852000D01*
%TO.C,R6*%
X171871321Y-104446800D02*
X172196879Y-104446800D01*
X171871321Y-103426800D02*
X172196879Y-103426800D01*
D13*
%TO.C,U3*%
X177300000Y-102060000D02*
X177300000Y-102700000D01*
X175080000Y-102700000D02*
X174600000Y-102700000D01*
X174600000Y-102060000D02*
X174600000Y-102700000D01*
X177300000Y-100500000D02*
X177300000Y-101140000D01*
X174600000Y-100500000D02*
X174600000Y-101140000D01*
X175080000Y-100500000D02*
X174600000Y-100500000D01*
X177300000Y-100500000D02*
X176820000Y-100500000D01*
D12*
%TO.C,U1*%
X178100000Y-94640000D02*
X174650000Y-94640000D01*
X178100000Y-94640000D02*
X180050000Y-94640000D01*
X178100000Y-99760000D02*
X176150000Y-99760000D01*
X178100000Y-99760000D02*
X180050000Y-99760000D01*
D11*
%TO.C,U6*%
X160631000Y-121232000D02*
X159406000Y-121232000D01*
X160631000Y-124357000D02*
X163981000Y-124357000D01*
X160631000Y-121007000D02*
X163981000Y-121007000D01*
X160631000Y-124357000D02*
X160631000Y-124057000D01*
X163981000Y-124357000D02*
X163981000Y-124057000D01*
X163981000Y-121007000D02*
X163981000Y-121307000D01*
X160631000Y-121007000D02*
X160631000Y-121232000D01*
D12*
%TO.C,U11*%
X147160000Y-123350000D02*
X147160000Y-120900000D01*
X143940000Y-121550000D02*
X143940000Y-123350000D01*
%TO.C,R11*%
X168061321Y-102872000D02*
X168386879Y-102872000D01*
X168061321Y-101852000D02*
X168386879Y-101852000D01*
%TO.C,R10*%
X151526021Y-97792000D02*
X151851579Y-97792000D01*
X151526021Y-96772000D02*
X151851579Y-96772000D01*
%TO.C,R14*%
X139362779Y-119990000D02*
X139037221Y-119990000D01*
X139362779Y-121010000D02*
X139037221Y-121010000D01*
%TO.C,R4*%
X165860000Y-122519221D02*
X165860000Y-122844779D01*
X166880000Y-122519221D02*
X166880000Y-122844779D01*
%TO.C,R15*%
X139362779Y-121490000D02*
X139037221Y-121490000D01*
X139362779Y-122510000D02*
X139037221Y-122510000D01*
%TO.C,R13*%
X150928800Y-123581279D02*
X150928800Y-123255721D01*
X149908800Y-123581279D02*
X149908800Y-123255721D01*
%TO.C,R1*%
X156537879Y-108430600D02*
X156212321Y-108430600D01*
X156537879Y-109450600D02*
X156212321Y-109450600D01*
%TO.C,Q1*%
X155615100Y-109900600D02*
X157075100Y-109900600D01*
X155615100Y-113060600D02*
X157775100Y-113060600D01*
X155615100Y-113060600D02*
X155615100Y-112130600D01*
X155615100Y-109900600D02*
X155615100Y-110830600D01*
%TO.C,D1*%
X147680800Y-121782100D02*
X147680800Y-124467100D01*
X149600800Y-121782100D02*
X147680800Y-121782100D01*
X149600800Y-124467100D02*
X149600800Y-121782100D01*
%TO.C,C4*%
X139362779Y-118490000D02*
X139037221Y-118490000D01*
X139362779Y-119510000D02*
X139037221Y-119510000D01*
%TO.C,C3*%
X150801800Y-120076179D02*
X150801800Y-119750621D01*
X149781800Y-120076179D02*
X149781800Y-119750621D01*
%TO.C,C2*%
X142415800Y-121858821D02*
X142415800Y-122184379D01*
X143435800Y-121858821D02*
X143435800Y-122184379D01*
%TO.C,C1*%
X139037221Y-124010000D02*
X139362779Y-124010000D01*
X139037221Y-122990000D02*
X139362779Y-122990000D01*
%TO.C,R9*%
X154061279Y-124775500D02*
X153735721Y-124775500D01*
X154061279Y-125795500D02*
X153735721Y-125795500D01*
%TO.C,R8*%
X165953221Y-125859000D02*
X166278779Y-125859000D01*
X165953221Y-124839000D02*
X166278779Y-124839000D01*
D10*
%TO.C,U5*%
X164978400Y-130532000D02*
X154978400Y-130532000D01*
D11*
X156200000Y-125500000D02*
X156800000Y-125500000D01*
X156200000Y-127100000D02*
X156200000Y-125500000D01*
X163800000Y-125500000D02*
X163200000Y-125500000D01*
X163800000Y-127300000D02*
X163800000Y-125500000D01*
X158300000Y-125000000D02*
X158300000Y-125500000D01*
X159000000Y-125000000D02*
X158300000Y-125000000D01*
%TO.C,U7*%
X180385000Y-123600000D02*
X180385000Y-122400000D01*
X180385000Y-122400000D02*
X173654000Y-122400000D01*
X173654000Y-122400000D02*
X173654000Y-123600000D01*
X173654000Y-123600000D02*
X180385000Y-123600000D01*
X170783000Y-123055000D02*
G75*
G03X170783000Y-123055000I-635000J0D01*
G01*
X170910000Y-123817000D02*
X169386000Y-123817000D01*
X169386000Y-123817000D02*
X169386000Y-122293000D01*
X169386000Y-122293000D02*
X170910000Y-122293000D01*
X170910000Y-122293000D02*
X170910000Y-123817000D01*
X179986000Y-120696000D02*
X169446000Y-120696000D01*
X169446000Y-120696000D02*
X169446000Y-107551500D01*
X169446000Y-107551500D02*
X179986000Y-107551500D01*
X179986000Y-107551500D02*
X179986000Y-120696000D01*
X168216000Y-106800000D02*
X168216000Y-106100000D01*
X168916000Y-106100000D02*
X168216000Y-106100000D01*
X181216000Y-106800000D02*
X181216000Y-106100000D01*
X180516000Y-106100000D02*
X181216000Y-106100000D01*
X181216000Y-122350000D02*
X181216000Y-124050000D01*
X168216000Y-122350000D02*
X168216000Y-124050000D01*
X181216000Y-124050000D02*
X168216000Y-124050000D01*
%TD*%
%TO.C,J1*%
D13*
X139723833Y-100036690D02*
X139723833Y-100393833D01*
X139700023Y-100465261D01*
X139652404Y-100512880D01*
X139580976Y-100536690D01*
X139533357Y-100536690D01*
X140223833Y-100536690D02*
X139938119Y-100536690D01*
X140080976Y-100536690D02*
X140080976Y-100036690D01*
X140033357Y-100108119D01*
X139985738Y-100155738D01*
X139938119Y-100179547D01*
%TO.C,SW2*%
X168708898Y-94717072D02*
X168752690Y-94778319D01*
X168849002Y-94848294D01*
X168901521Y-94857021D01*
X168934779Y-94851754D01*
X168982031Y-94827224D01*
X169010020Y-94788699D01*
X169018748Y-94736180D01*
X169013480Y-94702923D01*
X168988951Y-94655671D01*
X168925896Y-94580429D01*
X168901367Y-94533177D01*
X168896099Y-94499919D01*
X168904827Y-94447400D01*
X168932816Y-94408875D01*
X168980069Y-94384346D01*
X169013326Y-94379078D01*
X169065845Y-94387806D01*
X169162157Y-94457780D01*
X169205949Y-94519027D01*
X169354780Y-94597729D02*
X169157199Y-95072212D01*
X169444171Y-94839257D01*
X169311297Y-95184171D01*
X169701501Y-94849637D01*
X169808348Y-94986126D02*
X169841605Y-94980858D01*
X169894125Y-94989586D01*
X169990436Y-95059560D01*
X170014966Y-95106812D01*
X170020233Y-95140070D01*
X170011506Y-95192589D01*
X169983516Y-95231114D01*
X169922269Y-95274906D01*
X169523183Y-95338115D01*
X169773593Y-95520048D01*
%TO.C,SW1*%
X150284078Y-95180977D02*
X150356609Y-95160774D01*
X150455304Y-95094203D01*
X150481468Y-95047836D01*
X150487893Y-95014783D01*
X150481003Y-94961991D01*
X150454375Y-94922513D01*
X150408008Y-94896349D01*
X150374955Y-94889924D01*
X150322163Y-94896813D01*
X150229893Y-94930331D01*
X150177100Y-94937220D01*
X150144047Y-94930795D01*
X150097680Y-94904631D01*
X150071052Y-94865153D01*
X150064163Y-94812361D01*
X150070588Y-94779308D01*
X150096751Y-94732941D01*
X150195446Y-94666370D01*
X150267977Y-94646167D01*
X150392836Y-94533229D02*
X150771128Y-94881177D01*
X150650372Y-94531836D01*
X150929040Y-94774664D01*
X150748138Y-94293575D01*
X151402775Y-94455126D02*
X151165907Y-94614895D01*
X151284341Y-94535010D02*
X151004745Y-94120492D01*
X151005209Y-94206337D01*
X150992360Y-94272443D01*
X150966196Y-94318810D01*
%TO.C,SW5*%
X151962737Y-126540986D02*
X152008640Y-126600667D01*
X152107335Y-126667238D01*
X152160127Y-126674127D01*
X152193180Y-126667702D01*
X152239547Y-126641538D01*
X152266175Y-126602060D01*
X152273064Y-126549268D01*
X152266640Y-126516215D01*
X152240476Y-126469848D01*
X152174834Y-126396852D01*
X152148670Y-126350485D01*
X152142245Y-126317432D01*
X152149134Y-126264640D01*
X152175763Y-126225162D01*
X152222130Y-126198998D01*
X152255183Y-126192573D01*
X152307975Y-126199462D01*
X152406670Y-126266033D01*
X152452573Y-126325714D01*
X152604060Y-126399174D02*
X152423158Y-126880263D01*
X152701826Y-126637435D01*
X152581070Y-126986776D01*
X152959362Y-126638828D01*
X153314664Y-126878482D02*
X153117274Y-126745341D01*
X152964394Y-126929417D01*
X152997447Y-126922992D01*
X153050239Y-126929881D01*
X153148934Y-126996452D01*
X153175098Y-127042819D01*
X153181522Y-127075872D01*
X153174633Y-127128664D01*
X153108063Y-127227359D01*
X153061695Y-127253523D01*
X153028642Y-127259948D01*
X152975850Y-127253059D01*
X152877155Y-127186488D01*
X152850991Y-127140121D01*
X152844566Y-127107068D01*
%TO.C,SW4*%
X167089510Y-127101023D02*
X167162383Y-127082089D01*
X167262225Y-127017251D01*
X167289194Y-126971347D01*
X167296195Y-126938411D01*
X167290228Y-126885507D01*
X167264293Y-126845570D01*
X167218389Y-126818601D01*
X167185453Y-126811600D01*
X167132549Y-126817567D01*
X167039708Y-126849469D01*
X166986803Y-126855436D01*
X166953868Y-126848435D01*
X166907964Y-126821466D01*
X166882029Y-126781530D01*
X166876062Y-126728625D01*
X166883063Y-126695689D01*
X166910032Y-126649786D01*
X167009874Y-126584948D01*
X167082746Y-126566013D01*
X167209557Y-126455272D02*
X167581718Y-126809769D01*
X167467078Y-126458374D01*
X167741465Y-126706028D01*
X167568987Y-126221855D01*
X167999222Y-126141184D02*
X168180769Y-126420741D01*
X167795640Y-126046276D02*
X167890312Y-126410639D01*
X168149901Y-126242060D01*
%TO.C,U8*%
X155269047Y-87576190D02*
X155269047Y-87980952D01*
X155292857Y-88028571D01*
X155316666Y-88052380D01*
X155364285Y-88076190D01*
X155459523Y-88076190D01*
X155507142Y-88052380D01*
X155530952Y-88028571D01*
X155554761Y-87980952D01*
X155554761Y-87576190D01*
X155864285Y-87790476D02*
X155816666Y-87766666D01*
X155792857Y-87742857D01*
X155769047Y-87695238D01*
X155769047Y-87671428D01*
X155792857Y-87623809D01*
X155816666Y-87600000D01*
X155864285Y-87576190D01*
X155959523Y-87576190D01*
X156007142Y-87600000D01*
X156030952Y-87623809D01*
X156054761Y-87671428D01*
X156054761Y-87695238D01*
X156030952Y-87742857D01*
X156007142Y-87766666D01*
X155959523Y-87790476D01*
X155864285Y-87790476D01*
X155816666Y-87814285D01*
X155792857Y-87838095D01*
X155769047Y-87885714D01*
X155769047Y-87980952D01*
X155792857Y-88028571D01*
X155816666Y-88052380D01*
X155864285Y-88076190D01*
X155959523Y-88076190D01*
X156007142Y-88052380D01*
X156030952Y-88028571D01*
X156054761Y-87980952D01*
X156054761Y-87885714D01*
X156030952Y-87838095D01*
X156007142Y-87814285D01*
X155959523Y-87790476D01*
%TO.C,R18*%
X174139990Y-99564828D02*
X173901895Y-99731495D01*
X174139990Y-99850542D02*
X173639990Y-99850542D01*
X173639990Y-99660066D01*
X173663800Y-99612447D01*
X173687609Y-99588638D01*
X173735228Y-99564828D01*
X173806657Y-99564828D01*
X173854276Y-99588638D01*
X173878085Y-99612447D01*
X173901895Y-99660066D01*
X173901895Y-99850542D01*
X174139990Y-99088638D02*
X174139990Y-99374352D01*
X174139990Y-99231495D02*
X173639990Y-99231495D01*
X173711419Y-99279114D01*
X173759038Y-99326733D01*
X173782847Y-99374352D01*
X173854276Y-98802923D02*
X173830466Y-98850542D01*
X173806657Y-98874352D01*
X173759038Y-98898161D01*
X173735228Y-98898161D01*
X173687609Y-98874352D01*
X173663800Y-98850542D01*
X173639990Y-98802923D01*
X173639990Y-98707685D01*
X173663800Y-98660066D01*
X173687609Y-98636257D01*
X173735228Y-98612447D01*
X173759038Y-98612447D01*
X173806657Y-98636257D01*
X173830466Y-98660066D01*
X173854276Y-98707685D01*
X173854276Y-98802923D01*
X173878085Y-98850542D01*
X173901895Y-98874352D01*
X173949514Y-98898161D01*
X174044752Y-98898161D01*
X174092371Y-98874352D01*
X174116180Y-98850542D01*
X174139990Y-98802923D01*
X174139990Y-98707685D01*
X174116180Y-98660066D01*
X174092371Y-98636257D01*
X174044752Y-98612447D01*
X173949514Y-98612447D01*
X173901895Y-98636257D01*
X173878085Y-98660066D01*
X173854276Y-98707685D01*
%TO.C,C11*%
X174066971Y-97927028D02*
X174090780Y-97950838D01*
X174114590Y-98022266D01*
X174114590Y-98069885D01*
X174090780Y-98141314D01*
X174043161Y-98188933D01*
X173995542Y-98212742D01*
X173900304Y-98236552D01*
X173828876Y-98236552D01*
X173733638Y-98212742D01*
X173686019Y-98188933D01*
X173638400Y-98141314D01*
X173614590Y-98069885D01*
X173614590Y-98022266D01*
X173638400Y-97950838D01*
X173662209Y-97927028D01*
X174114590Y-97450838D02*
X174114590Y-97736552D01*
X174114590Y-97593695D02*
X173614590Y-97593695D01*
X173686019Y-97641314D01*
X173733638Y-97688933D01*
X173757447Y-97736552D01*
X174114590Y-96974647D02*
X174114590Y-97260361D01*
X174114590Y-97117504D02*
X173614590Y-97117504D01*
X173686019Y-97165123D01*
X173733638Y-97212742D01*
X173757447Y-97260361D01*
%TO.C,C21*%
X170307771Y-97959028D02*
X170331580Y-97982838D01*
X170355390Y-98054266D01*
X170355390Y-98101885D01*
X170331580Y-98173314D01*
X170283961Y-98220933D01*
X170236342Y-98244742D01*
X170141104Y-98268552D01*
X170069676Y-98268552D01*
X169974438Y-98244742D01*
X169926819Y-98220933D01*
X169879200Y-98173314D01*
X169855390Y-98101885D01*
X169855390Y-98054266D01*
X169879200Y-97982838D01*
X169903009Y-97959028D01*
X169903009Y-97768552D02*
X169879200Y-97744742D01*
X169855390Y-97697123D01*
X169855390Y-97578076D01*
X169879200Y-97530457D01*
X169903009Y-97506647D01*
X169950628Y-97482838D01*
X169998247Y-97482838D01*
X170069676Y-97506647D01*
X170355390Y-97792361D01*
X170355390Y-97482838D01*
X170355390Y-97006647D02*
X170355390Y-97292361D01*
X170355390Y-97149504D02*
X169855390Y-97149504D01*
X169926819Y-97197123D01*
X169974438Y-97244742D01*
X169998247Y-97292361D01*
%TO.C,C22*%
X158420671Y-107839628D02*
X158444480Y-107863438D01*
X158468290Y-107934866D01*
X158468290Y-107982485D01*
X158444480Y-108053914D01*
X158396861Y-108101533D01*
X158349242Y-108125342D01*
X158254004Y-108149152D01*
X158182576Y-108149152D01*
X158087338Y-108125342D01*
X158039719Y-108101533D01*
X157992100Y-108053914D01*
X157968290Y-107982485D01*
X157968290Y-107934866D01*
X157992100Y-107863438D01*
X158015909Y-107839628D01*
X158015909Y-107649152D02*
X157992100Y-107625342D01*
X157968290Y-107577723D01*
X157968290Y-107458676D01*
X157992100Y-107411057D01*
X158015909Y-107387247D01*
X158063528Y-107363438D01*
X158111147Y-107363438D01*
X158182576Y-107387247D01*
X158468290Y-107672961D01*
X158468290Y-107363438D01*
X158015909Y-107172961D02*
X157992100Y-107149152D01*
X157968290Y-107101533D01*
X157968290Y-106982485D01*
X157992100Y-106934866D01*
X158015909Y-106911057D01*
X158063528Y-106887247D01*
X158111147Y-106887247D01*
X158182576Y-106911057D01*
X158468290Y-107196771D01*
X158468290Y-106887247D01*
%TO.C,C20*%
X170307771Y-99533828D02*
X170331580Y-99557638D01*
X170355390Y-99629066D01*
X170355390Y-99676685D01*
X170331580Y-99748114D01*
X170283961Y-99795733D01*
X170236342Y-99819542D01*
X170141104Y-99843352D01*
X170069676Y-99843352D01*
X169974438Y-99819542D01*
X169926819Y-99795733D01*
X169879200Y-99748114D01*
X169855390Y-99676685D01*
X169855390Y-99629066D01*
X169879200Y-99557638D01*
X169903009Y-99533828D01*
X169903009Y-99343352D02*
X169879200Y-99319542D01*
X169855390Y-99271923D01*
X169855390Y-99152876D01*
X169879200Y-99105257D01*
X169903009Y-99081447D01*
X169950628Y-99057638D01*
X169998247Y-99057638D01*
X170069676Y-99081447D01*
X170355390Y-99367161D01*
X170355390Y-99057638D01*
X169855390Y-98748114D02*
X169855390Y-98700495D01*
X169879200Y-98652876D01*
X169903009Y-98629066D01*
X169950628Y-98605257D01*
X170045866Y-98581447D01*
X170164914Y-98581447D01*
X170260152Y-98605257D01*
X170307771Y-98629066D01*
X170331580Y-98652876D01*
X170355390Y-98700495D01*
X170355390Y-98748114D01*
X170331580Y-98795733D01*
X170307771Y-98819542D01*
X170260152Y-98843352D01*
X170164914Y-98867161D01*
X170045866Y-98867161D01*
X169950628Y-98843352D01*
X169903009Y-98819542D01*
X169879200Y-98795733D01*
X169855390Y-98748114D01*
%TO.C,R5*%
X153743790Y-91370933D02*
X153505695Y-91537600D01*
X153743790Y-91656647D02*
X153243790Y-91656647D01*
X153243790Y-91466171D01*
X153267600Y-91418552D01*
X153291409Y-91394742D01*
X153339028Y-91370933D01*
X153410457Y-91370933D01*
X153458076Y-91394742D01*
X153481885Y-91418552D01*
X153505695Y-91466171D01*
X153505695Y-91656647D01*
X153243790Y-90918552D02*
X153243790Y-91156647D01*
X153481885Y-91180457D01*
X153458076Y-91156647D01*
X153434266Y-91109028D01*
X153434266Y-90989980D01*
X153458076Y-90942361D01*
X153481885Y-90918552D01*
X153529504Y-90894742D01*
X153648552Y-90894742D01*
X153696171Y-90918552D01*
X153719980Y-90942361D01*
X153743790Y-90989980D01*
X153743790Y-91109028D01*
X153719980Y-91156647D01*
X153696171Y-91180457D01*
%TO.C,U13*%
X165740590Y-110702647D02*
X166145352Y-110702647D01*
X166192971Y-110678838D01*
X166216780Y-110655028D01*
X166240590Y-110607409D01*
X166240590Y-110512171D01*
X166216780Y-110464552D01*
X166192971Y-110440742D01*
X166145352Y-110416933D01*
X165740590Y-110416933D01*
X166240590Y-109916933D02*
X166240590Y-110202647D01*
X166240590Y-110059790D02*
X165740590Y-110059790D01*
X165812019Y-110107409D01*
X165859638Y-110155028D01*
X165883447Y-110202647D01*
X165740590Y-109750266D02*
X165740590Y-109440742D01*
X165931066Y-109607409D01*
X165931066Y-109535980D01*
X165954876Y-109488361D01*
X165978685Y-109464552D01*
X166026304Y-109440742D01*
X166145352Y-109440742D01*
X166192971Y-109464552D01*
X166216780Y-109488361D01*
X166240590Y-109535980D01*
X166240590Y-109678838D01*
X166216780Y-109726457D01*
X166192971Y-109750266D01*
%TO.C,U12*%
X156479952Y-125308190D02*
X156479952Y-125712952D01*
X156503761Y-125760571D01*
X156527571Y-125784380D01*
X156575190Y-125808190D01*
X156670428Y-125808190D01*
X156718047Y-125784380D01*
X156741857Y-125760571D01*
X156765666Y-125712952D01*
X156765666Y-125308190D01*
X157265666Y-125808190D02*
X156979952Y-125808190D01*
X157122809Y-125808190D02*
X157122809Y-125308190D01*
X157075190Y-125379619D01*
X157027571Y-125427238D01*
X156979952Y-125451047D01*
X157456142Y-125355809D02*
X157479952Y-125332000D01*
X157527571Y-125308190D01*
X157646619Y-125308190D01*
X157694238Y-125332000D01*
X157718047Y-125355809D01*
X157741857Y-125403428D01*
X157741857Y-125451047D01*
X157718047Y-125522476D01*
X157432333Y-125808190D01*
X157741857Y-125808190D01*
%TO.C,U10*%
X156225952Y-116439190D02*
X156225952Y-116843952D01*
X156249761Y-116891571D01*
X156273571Y-116915380D01*
X156321190Y-116939190D01*
X156416428Y-116939190D01*
X156464047Y-116915380D01*
X156487857Y-116891571D01*
X156511666Y-116843952D01*
X156511666Y-116439190D01*
X157011666Y-116939190D02*
X156725952Y-116939190D01*
X156868809Y-116939190D02*
X156868809Y-116439190D01*
X156821190Y-116510619D01*
X156773571Y-116558238D01*
X156725952Y-116582047D01*
X157321190Y-116439190D02*
X157368809Y-116439190D01*
X157416428Y-116463000D01*
X157440238Y-116486809D01*
X157464047Y-116534428D01*
X157487857Y-116629666D01*
X157487857Y-116748714D01*
X157464047Y-116843952D01*
X157440238Y-116891571D01*
X157416428Y-116915380D01*
X157368809Y-116939190D01*
X157321190Y-116939190D01*
X157273571Y-116915380D01*
X157249761Y-116891571D01*
X157225952Y-116843952D01*
X157202142Y-116748714D01*
X157202142Y-116629666D01*
X157225952Y-116534428D01*
X157249761Y-116486809D01*
X157273571Y-116463000D01*
X157321190Y-116439190D01*
%TO.C,R22*%
X158506290Y-115866028D02*
X158268195Y-116032695D01*
X158506290Y-116151742D02*
X158006290Y-116151742D01*
X158006290Y-115961266D01*
X158030100Y-115913647D01*
X158053909Y-115889838D01*
X158101528Y-115866028D01*
X158172957Y-115866028D01*
X158220576Y-115889838D01*
X158244385Y-115913647D01*
X158268195Y-115961266D01*
X158268195Y-116151742D01*
X158053909Y-115675552D02*
X158030100Y-115651742D01*
X158006290Y-115604123D01*
X158006290Y-115485076D01*
X158030100Y-115437457D01*
X158053909Y-115413647D01*
X158101528Y-115389838D01*
X158149147Y-115389838D01*
X158220576Y-115413647D01*
X158506290Y-115699361D01*
X158506290Y-115389838D01*
X158053909Y-115199361D02*
X158030100Y-115175552D01*
X158006290Y-115127933D01*
X158006290Y-115008885D01*
X158030100Y-114961266D01*
X158053909Y-114937457D01*
X158101528Y-114913647D01*
X158149147Y-114913647D01*
X158220576Y-114937457D01*
X158506290Y-115223171D01*
X158506290Y-114913647D01*
%TO.C,R21*%
X158506290Y-114342028D02*
X158268195Y-114508695D01*
X158506290Y-114627742D02*
X158006290Y-114627742D01*
X158006290Y-114437266D01*
X158030100Y-114389647D01*
X158053909Y-114365838D01*
X158101528Y-114342028D01*
X158172957Y-114342028D01*
X158220576Y-114365838D01*
X158244385Y-114389647D01*
X158268195Y-114437266D01*
X158268195Y-114627742D01*
X158053909Y-114151552D02*
X158030100Y-114127742D01*
X158006290Y-114080123D01*
X158006290Y-113961076D01*
X158030100Y-113913457D01*
X158053909Y-113889647D01*
X158101528Y-113865838D01*
X158149147Y-113865838D01*
X158220576Y-113889647D01*
X158506290Y-114175361D01*
X158506290Y-113865838D01*
X158506290Y-113389647D02*
X158506290Y-113675361D01*
X158506290Y-113532504D02*
X158006290Y-113532504D01*
X158077719Y-113580123D01*
X158125338Y-113627742D01*
X158149147Y-113675361D01*
%TO.C,R20*%
X165973990Y-114811928D02*
X165735895Y-114978595D01*
X165973990Y-115097642D02*
X165473990Y-115097642D01*
X165473990Y-114907166D01*
X165497800Y-114859547D01*
X165521609Y-114835738D01*
X165569228Y-114811928D01*
X165640657Y-114811928D01*
X165688276Y-114835738D01*
X165712085Y-114859547D01*
X165735895Y-114907166D01*
X165735895Y-115097642D01*
X165521609Y-114621452D02*
X165497800Y-114597642D01*
X165473990Y-114550023D01*
X165473990Y-114430976D01*
X165497800Y-114383357D01*
X165521609Y-114359547D01*
X165569228Y-114335738D01*
X165616847Y-114335738D01*
X165688276Y-114359547D01*
X165973990Y-114645261D01*
X165973990Y-114335738D01*
X165473990Y-114026214D02*
X165473990Y-113978595D01*
X165497800Y-113930976D01*
X165521609Y-113907166D01*
X165569228Y-113883357D01*
X165664466Y-113859547D01*
X165783514Y-113859547D01*
X165878752Y-113883357D01*
X165926371Y-113907166D01*
X165950180Y-113930976D01*
X165973990Y-113978595D01*
X165973990Y-114026214D01*
X165950180Y-114073833D01*
X165926371Y-114097642D01*
X165878752Y-114121452D01*
X165783514Y-114145261D01*
X165664466Y-114145261D01*
X165569228Y-114121452D01*
X165521609Y-114097642D01*
X165497800Y-114073833D01*
X165473990Y-114026214D01*
%TO.C,R12*%
X162189290Y-107674528D02*
X161951195Y-107841195D01*
X162189290Y-107960242D02*
X161689290Y-107960242D01*
X161689290Y-107769766D01*
X161713100Y-107722147D01*
X161736909Y-107698338D01*
X161784528Y-107674528D01*
X161855957Y-107674528D01*
X161903576Y-107698338D01*
X161927385Y-107722147D01*
X161951195Y-107769766D01*
X161951195Y-107960242D01*
X162189290Y-107198338D02*
X162189290Y-107484052D01*
X162189290Y-107341195D02*
X161689290Y-107341195D01*
X161760719Y-107388814D01*
X161808338Y-107436433D01*
X161832147Y-107484052D01*
X161736909Y-107007861D02*
X161713100Y-106984052D01*
X161689290Y-106936433D01*
X161689290Y-106817385D01*
X161713100Y-106769766D01*
X161736909Y-106745957D01*
X161784528Y-106722147D01*
X161832147Y-106722147D01*
X161903576Y-106745957D01*
X162189290Y-107031671D01*
X162189290Y-106722147D01*
%TO.C,R3*%
X170304590Y-103969333D02*
X170066495Y-104136000D01*
X170304590Y-104255047D02*
X169804590Y-104255047D01*
X169804590Y-104064571D01*
X169828400Y-104016952D01*
X169852209Y-103993142D01*
X169899828Y-103969333D01*
X169971257Y-103969333D01*
X170018876Y-103993142D01*
X170042685Y-104016952D01*
X170066495Y-104064571D01*
X170066495Y-104255047D01*
X169804590Y-103802666D02*
X169804590Y-103493142D01*
X169995066Y-103659809D01*
X169995066Y-103588380D01*
X170018876Y-103540761D01*
X170042685Y-103516952D01*
X170090304Y-103493142D01*
X170209352Y-103493142D01*
X170256971Y-103516952D01*
X170280780Y-103540761D01*
X170304590Y-103588380D01*
X170304590Y-103731238D01*
X170280780Y-103778857D01*
X170256971Y-103802666D01*
%TO.C,R2*%
X162189290Y-105912433D02*
X161951195Y-106079100D01*
X162189290Y-106198147D02*
X161689290Y-106198147D01*
X161689290Y-106007671D01*
X161713100Y-105960052D01*
X161736909Y-105936242D01*
X161784528Y-105912433D01*
X161855957Y-105912433D01*
X161903576Y-105936242D01*
X161927385Y-105960052D01*
X161951195Y-106007671D01*
X161951195Y-106198147D01*
X161736909Y-105721957D02*
X161713100Y-105698147D01*
X161689290Y-105650528D01*
X161689290Y-105531480D01*
X161713100Y-105483861D01*
X161736909Y-105460052D01*
X161784528Y-105436242D01*
X161832147Y-105436242D01*
X161903576Y-105460052D01*
X162189290Y-105745766D01*
X162189290Y-105436242D01*
%TO.C,C19*%
X165951671Y-106150528D02*
X165975480Y-106174338D01*
X165999290Y-106245766D01*
X165999290Y-106293385D01*
X165975480Y-106364814D01*
X165927861Y-106412433D01*
X165880242Y-106436242D01*
X165785004Y-106460052D01*
X165713576Y-106460052D01*
X165618338Y-106436242D01*
X165570719Y-106412433D01*
X165523100Y-106364814D01*
X165499290Y-106293385D01*
X165499290Y-106245766D01*
X165523100Y-106174338D01*
X165546909Y-106150528D01*
X165999290Y-105674338D02*
X165999290Y-105960052D01*
X165999290Y-105817195D02*
X165499290Y-105817195D01*
X165570719Y-105864814D01*
X165618338Y-105912433D01*
X165642147Y-105960052D01*
X165999290Y-105436242D02*
X165999290Y-105341004D01*
X165975480Y-105293385D01*
X165951671Y-105269576D01*
X165880242Y-105221957D01*
X165785004Y-105198147D01*
X165594528Y-105198147D01*
X165546909Y-105221957D01*
X165523100Y-105245766D01*
X165499290Y-105293385D01*
X165499290Y-105388623D01*
X165523100Y-105436242D01*
X165546909Y-105460052D01*
X165594528Y-105483861D01*
X165713576Y-105483861D01*
X165761195Y-105460052D01*
X165785004Y-105436242D01*
X165808814Y-105388623D01*
X165808814Y-105293385D01*
X165785004Y-105245766D01*
X165761195Y-105221957D01*
X165713576Y-105198147D01*
%TO.C,C18*%
X161171771Y-117323371D02*
X161147961Y-117347180D01*
X161076533Y-117370990D01*
X161028914Y-117370990D01*
X160957485Y-117347180D01*
X160909866Y-117299561D01*
X160886057Y-117251942D01*
X160862247Y-117156704D01*
X160862247Y-117085276D01*
X160886057Y-116990038D01*
X160909866Y-116942419D01*
X160957485Y-116894800D01*
X161028914Y-116870990D01*
X161076533Y-116870990D01*
X161147961Y-116894800D01*
X161171771Y-116918609D01*
X161647961Y-117370990D02*
X161362247Y-117370990D01*
X161505104Y-117370990D02*
X161505104Y-116870990D01*
X161457485Y-116942419D01*
X161409866Y-116990038D01*
X161362247Y-117013847D01*
X161933676Y-117085276D02*
X161886057Y-117061466D01*
X161862247Y-117037657D01*
X161838438Y-116990038D01*
X161838438Y-116966228D01*
X161862247Y-116918609D01*
X161886057Y-116894800D01*
X161933676Y-116870990D01*
X162028914Y-116870990D01*
X162076533Y-116894800D01*
X162100342Y-116918609D01*
X162124152Y-116966228D01*
X162124152Y-116990038D01*
X162100342Y-117037657D01*
X162076533Y-117061466D01*
X162028914Y-117085276D01*
X161933676Y-117085276D01*
X161886057Y-117109085D01*
X161862247Y-117132895D01*
X161838438Y-117180514D01*
X161838438Y-117275752D01*
X161862247Y-117323371D01*
X161886057Y-117347180D01*
X161933676Y-117370990D01*
X162028914Y-117370990D01*
X162076533Y-117347180D01*
X162100342Y-117323371D01*
X162124152Y-117275752D01*
X162124152Y-117180514D01*
X162100342Y-117132895D01*
X162076533Y-117109085D01*
X162028914Y-117085276D01*
%TO.C,C17*%
X165926171Y-107738028D02*
X165949980Y-107761838D01*
X165973790Y-107833266D01*
X165973790Y-107880885D01*
X165949980Y-107952314D01*
X165902361Y-107999933D01*
X165854742Y-108023742D01*
X165759504Y-108047552D01*
X165688076Y-108047552D01*
X165592838Y-108023742D01*
X165545219Y-107999933D01*
X165497600Y-107952314D01*
X165473790Y-107880885D01*
X165473790Y-107833266D01*
X165497600Y-107761838D01*
X165521409Y-107738028D01*
X165973790Y-107261838D02*
X165973790Y-107547552D01*
X165973790Y-107404695D02*
X165473790Y-107404695D01*
X165545219Y-107452314D01*
X165592838Y-107499933D01*
X165616647Y-107547552D01*
X165473790Y-107095171D02*
X165473790Y-106761838D01*
X165973790Y-106976123D01*
%TO.C,C16*%
X159635071Y-117336071D02*
X159611261Y-117359880D01*
X159539833Y-117383690D01*
X159492214Y-117383690D01*
X159420785Y-117359880D01*
X159373166Y-117312261D01*
X159349357Y-117264642D01*
X159325547Y-117169404D01*
X159325547Y-117097976D01*
X159349357Y-117002738D01*
X159373166Y-116955119D01*
X159420785Y-116907500D01*
X159492214Y-116883690D01*
X159539833Y-116883690D01*
X159611261Y-116907500D01*
X159635071Y-116931309D01*
X160111261Y-117383690D02*
X159825547Y-117383690D01*
X159968404Y-117383690D02*
X159968404Y-116883690D01*
X159920785Y-116955119D01*
X159873166Y-117002738D01*
X159825547Y-117026547D01*
X160539833Y-116883690D02*
X160444595Y-116883690D01*
X160396976Y-116907500D01*
X160373166Y-116931309D01*
X160325547Y-117002738D01*
X160301738Y-117097976D01*
X160301738Y-117288452D01*
X160325547Y-117336071D01*
X160349357Y-117359880D01*
X160396976Y-117383690D01*
X160492214Y-117383690D01*
X160539833Y-117359880D01*
X160563642Y-117336071D01*
X160587452Y-117288452D01*
X160587452Y-117169404D01*
X160563642Y-117121785D01*
X160539833Y-117097976D01*
X160492214Y-117074166D01*
X160396976Y-117074166D01*
X160349357Y-117097976D01*
X160325547Y-117121785D01*
X160301738Y-117169404D01*
%TO.C,C15*%
X165926371Y-113249828D02*
X165950180Y-113273638D01*
X165973990Y-113345066D01*
X165973990Y-113392685D01*
X165950180Y-113464114D01*
X165902561Y-113511733D01*
X165854942Y-113535542D01*
X165759704Y-113559352D01*
X165688276Y-113559352D01*
X165593038Y-113535542D01*
X165545419Y-113511733D01*
X165497800Y-113464114D01*
X165473990Y-113392685D01*
X165473990Y-113345066D01*
X165497800Y-113273638D01*
X165521609Y-113249828D01*
X165973990Y-112773638D02*
X165973990Y-113059352D01*
X165973990Y-112916495D02*
X165473990Y-112916495D01*
X165545419Y-112964114D01*
X165593038Y-113011733D01*
X165616847Y-113059352D01*
X165473990Y-112321257D02*
X165473990Y-112559352D01*
X165712085Y-112583161D01*
X165688276Y-112559352D01*
X165664466Y-112511733D01*
X165664466Y-112392685D01*
X165688276Y-112345066D01*
X165712085Y-112321257D01*
X165759704Y-112297447D01*
X165878752Y-112297447D01*
X165926371Y-112321257D01*
X165950180Y-112345066D01*
X165973990Y-112392685D01*
X165973990Y-112511733D01*
X165950180Y-112559352D01*
X165926371Y-112583161D01*
%TO.C,C14*%
X153958171Y-117780471D02*
X153934361Y-117804280D01*
X153862933Y-117828090D01*
X153815314Y-117828090D01*
X153743885Y-117804280D01*
X153696266Y-117756661D01*
X153672457Y-117709042D01*
X153648647Y-117613804D01*
X153648647Y-117542376D01*
X153672457Y-117447138D01*
X153696266Y-117399519D01*
X153743885Y-117351900D01*
X153815314Y-117328090D01*
X153862933Y-117328090D01*
X153934361Y-117351900D01*
X153958171Y-117375709D01*
X154434361Y-117828090D02*
X154148647Y-117828090D01*
X154291504Y-117828090D02*
X154291504Y-117328090D01*
X154243885Y-117399519D01*
X154196266Y-117447138D01*
X154148647Y-117470947D01*
X154862933Y-117494757D02*
X154862933Y-117828090D01*
X154743885Y-117304280D02*
X154624838Y-117661423D01*
X154934361Y-117661423D01*
%TO.C,C6*%
X160673266Y-110566971D02*
X160649457Y-110590780D01*
X160578028Y-110614590D01*
X160530409Y-110614590D01*
X160458980Y-110590780D01*
X160411361Y-110543161D01*
X160387552Y-110495542D01*
X160363742Y-110400304D01*
X160363742Y-110328876D01*
X160387552Y-110233638D01*
X160411361Y-110186019D01*
X160458980Y-110138400D01*
X160530409Y-110114590D01*
X160578028Y-110114590D01*
X160649457Y-110138400D01*
X160673266Y-110162209D01*
X161101838Y-110114590D02*
X161006600Y-110114590D01*
X160958980Y-110138400D01*
X160935171Y-110162209D01*
X160887552Y-110233638D01*
X160863742Y-110328876D01*
X160863742Y-110519352D01*
X160887552Y-110566971D01*
X160911361Y-110590780D01*
X160958980Y-110614590D01*
X161054219Y-110614590D01*
X161101838Y-110590780D01*
X161125647Y-110566971D01*
X161149457Y-110519352D01*
X161149457Y-110400304D01*
X161125647Y-110352685D01*
X161101838Y-110328876D01*
X161054219Y-110305066D01*
X160958980Y-110305066D01*
X160911361Y-110328876D01*
X160887552Y-110352685D01*
X160863742Y-110400304D01*
%TO.C,C5*%
X152215066Y-116561371D02*
X152191257Y-116585180D01*
X152119828Y-116608990D01*
X152072209Y-116608990D01*
X152000780Y-116585180D01*
X151953161Y-116537561D01*
X151929352Y-116489942D01*
X151905542Y-116394704D01*
X151905542Y-116323276D01*
X151929352Y-116228038D01*
X151953161Y-116180419D01*
X152000780Y-116132800D01*
X152072209Y-116108990D01*
X152119828Y-116108990D01*
X152191257Y-116132800D01*
X152215066Y-116156609D01*
X152667447Y-116108990D02*
X152429352Y-116108990D01*
X152405542Y-116347085D01*
X152429352Y-116323276D01*
X152476971Y-116299466D01*
X152596019Y-116299466D01*
X152643638Y-116323276D01*
X152667447Y-116347085D01*
X152691257Y-116394704D01*
X152691257Y-116513752D01*
X152667447Y-116561371D01*
X152643638Y-116585180D01*
X152596019Y-116608990D01*
X152476971Y-116608990D01*
X152429352Y-116585180D01*
X152405542Y-116561371D01*
%TO.C,U2*%
X180416247Y-103002590D02*
X180416247Y-103407352D01*
X180440057Y-103454971D01*
X180463866Y-103478780D01*
X180511485Y-103502590D01*
X180606723Y-103502590D01*
X180654342Y-103478780D01*
X180678152Y-103454971D01*
X180701961Y-103407352D01*
X180701961Y-103002590D01*
X180916247Y-103050209D02*
X180940057Y-103026400D01*
X180987676Y-103002590D01*
X181106723Y-103002590D01*
X181154342Y-103026400D01*
X181178152Y-103050209D01*
X181201961Y-103097828D01*
X181201961Y-103145447D01*
X181178152Y-103216876D01*
X180892438Y-103502590D01*
X181201961Y-103502590D01*
%TO.C,U9*%
X145059447Y-115776190D02*
X145059447Y-116180952D01*
X145083257Y-116228571D01*
X145107066Y-116252380D01*
X145154685Y-116276190D01*
X145249923Y-116276190D01*
X145297542Y-116252380D01*
X145321352Y-116228571D01*
X145345161Y-116180952D01*
X145345161Y-115776190D01*
X145607066Y-116276190D02*
X145702304Y-116276190D01*
X145749923Y-116252380D01*
X145773733Y-116228571D01*
X145821352Y-116157142D01*
X145845161Y-116061904D01*
X145845161Y-115871428D01*
X145821352Y-115823809D01*
X145797542Y-115800000D01*
X145749923Y-115776190D01*
X145654685Y-115776190D01*
X145607066Y-115800000D01*
X145583257Y-115823809D01*
X145559447Y-115871428D01*
X145559447Y-115990476D01*
X145583257Y-116038095D01*
X145607066Y-116061904D01*
X145654685Y-116085714D01*
X145749923Y-116085714D01*
X145797542Y-116061904D01*
X145821352Y-116038095D01*
X145845161Y-115990476D01*
%TO.C,R19*%
X141297790Y-117872628D02*
X141059695Y-118039295D01*
X141297790Y-118158342D02*
X140797790Y-118158342D01*
X140797790Y-117967866D01*
X140821600Y-117920247D01*
X140845409Y-117896438D01*
X140893028Y-117872628D01*
X140964457Y-117872628D01*
X141012076Y-117896438D01*
X141035885Y-117920247D01*
X141059695Y-117967866D01*
X141059695Y-118158342D01*
X141297790Y-117396438D02*
X141297790Y-117682152D01*
X141297790Y-117539295D02*
X140797790Y-117539295D01*
X140869219Y-117586914D01*
X140916838Y-117634533D01*
X140940647Y-117682152D01*
X141297790Y-117158342D02*
X141297790Y-117063104D01*
X141273980Y-117015485D01*
X141250171Y-116991676D01*
X141178742Y-116944057D01*
X141083504Y-116920247D01*
X140893028Y-116920247D01*
X140845409Y-116944057D01*
X140821600Y-116967866D01*
X140797790Y-117015485D01*
X140797790Y-117110723D01*
X140821600Y-117158342D01*
X140845409Y-117182152D01*
X140893028Y-117205961D01*
X141012076Y-117205961D01*
X141059695Y-117182152D01*
X141083504Y-117158342D01*
X141107314Y-117110723D01*
X141107314Y-117015485D01*
X141083504Y-116967866D01*
X141059695Y-116944057D01*
X141012076Y-116920247D01*
%TO.C,C13*%
X178177071Y-103505771D02*
X178153261Y-103529580D01*
X178081833Y-103553390D01*
X178034214Y-103553390D01*
X177962785Y-103529580D01*
X177915166Y-103481961D01*
X177891357Y-103434342D01*
X177867547Y-103339104D01*
X177867547Y-103267676D01*
X177891357Y-103172438D01*
X177915166Y-103124819D01*
X177962785Y-103077200D01*
X178034214Y-103053390D01*
X178081833Y-103053390D01*
X178153261Y-103077200D01*
X178177071Y-103101009D01*
X178653261Y-103553390D02*
X178367547Y-103553390D01*
X178510404Y-103553390D02*
X178510404Y-103053390D01*
X178462785Y-103124819D01*
X178415166Y-103172438D01*
X178367547Y-103196247D01*
X178819928Y-103053390D02*
X179129452Y-103053390D01*
X178962785Y-103243866D01*
X179034214Y-103243866D01*
X179081833Y-103267676D01*
X179105642Y-103291485D01*
X179129452Y-103339104D01*
X179129452Y-103458152D01*
X179105642Y-103505771D01*
X179081833Y-103529580D01*
X179034214Y-103553390D01*
X178891357Y-103553390D01*
X178843738Y-103529580D01*
X178819928Y-103505771D01*
%TO.C,C12*%
X174066971Y-101108628D02*
X174090780Y-101132438D01*
X174114590Y-101203866D01*
X174114590Y-101251485D01*
X174090780Y-101322914D01*
X174043161Y-101370533D01*
X173995542Y-101394342D01*
X173900304Y-101418152D01*
X173828876Y-101418152D01*
X173733638Y-101394342D01*
X173686019Y-101370533D01*
X173638400Y-101322914D01*
X173614590Y-101251485D01*
X173614590Y-101203866D01*
X173638400Y-101132438D01*
X173662209Y-101108628D01*
X174114590Y-100632438D02*
X174114590Y-100918152D01*
X174114590Y-100775295D02*
X173614590Y-100775295D01*
X173686019Y-100822914D01*
X173733638Y-100870533D01*
X173757447Y-100918152D01*
X173662209Y-100441961D02*
X173638400Y-100418152D01*
X173614590Y-100370533D01*
X173614590Y-100251485D01*
X173638400Y-100203866D01*
X173662209Y-100180057D01*
X173709828Y-100156247D01*
X173757447Y-100156247D01*
X173828876Y-100180057D01*
X174114590Y-100465771D01*
X174114590Y-100156247D01*
%TO.C,C10*%
X170307771Y-101057828D02*
X170331580Y-101081638D01*
X170355390Y-101153066D01*
X170355390Y-101200685D01*
X170331580Y-101272114D01*
X170283961Y-101319733D01*
X170236342Y-101343542D01*
X170141104Y-101367352D01*
X170069676Y-101367352D01*
X169974438Y-101343542D01*
X169926819Y-101319733D01*
X169879200Y-101272114D01*
X169855390Y-101200685D01*
X169855390Y-101153066D01*
X169879200Y-101081638D01*
X169903009Y-101057828D01*
X170355390Y-100581638D02*
X170355390Y-100867352D01*
X170355390Y-100724495D02*
X169855390Y-100724495D01*
X169926819Y-100772114D01*
X169974438Y-100819733D01*
X169998247Y-100867352D01*
X169855390Y-100272114D02*
X169855390Y-100224495D01*
X169879200Y-100176876D01*
X169903009Y-100153066D01*
X169950628Y-100129257D01*
X170045866Y-100105447D01*
X170164914Y-100105447D01*
X170260152Y-100129257D01*
X170307771Y-100153066D01*
X170331580Y-100176876D01*
X170355390Y-100224495D01*
X170355390Y-100272114D01*
X170331580Y-100319733D01*
X170307771Y-100343542D01*
X170260152Y-100367352D01*
X170164914Y-100391161D01*
X170045866Y-100391161D01*
X169950628Y-100367352D01*
X169903009Y-100343542D01*
X169879200Y-100319733D01*
X169855390Y-100272114D01*
%TO.C,C9*%
X162984666Y-117323371D02*
X162960857Y-117347180D01*
X162889428Y-117370990D01*
X162841809Y-117370990D01*
X162770380Y-117347180D01*
X162722761Y-117299561D01*
X162698952Y-117251942D01*
X162675142Y-117156704D01*
X162675142Y-117085276D01*
X162698952Y-116990038D01*
X162722761Y-116942419D01*
X162770380Y-116894800D01*
X162841809Y-116870990D01*
X162889428Y-116870990D01*
X162960857Y-116894800D01*
X162984666Y-116918609D01*
X163222761Y-117370990D02*
X163318000Y-117370990D01*
X163365619Y-117347180D01*
X163389428Y-117323371D01*
X163437047Y-117251942D01*
X163460857Y-117156704D01*
X163460857Y-116966228D01*
X163437047Y-116918609D01*
X163413238Y-116894800D01*
X163365619Y-116870990D01*
X163270380Y-116870990D01*
X163222761Y-116894800D01*
X163198952Y-116918609D01*
X163175142Y-116966228D01*
X163175142Y-117085276D01*
X163198952Y-117132895D01*
X163222761Y-117156704D01*
X163270380Y-117180514D01*
X163365619Y-117180514D01*
X163413238Y-117156704D01*
X163437047Y-117132895D01*
X163460857Y-117085276D01*
%TO.C,C8*%
X165397666Y-121242571D02*
X165373857Y-121266380D01*
X165302428Y-121290190D01*
X165254809Y-121290190D01*
X165183380Y-121266380D01*
X165135761Y-121218761D01*
X165111952Y-121171142D01*
X165088142Y-121075904D01*
X165088142Y-121004476D01*
X165111952Y-120909238D01*
X165135761Y-120861619D01*
X165183380Y-120814000D01*
X165254809Y-120790190D01*
X165302428Y-120790190D01*
X165373857Y-120814000D01*
X165397666Y-120837809D01*
X165683380Y-121004476D02*
X165635761Y-120980666D01*
X165611952Y-120956857D01*
X165588142Y-120909238D01*
X165588142Y-120885428D01*
X165611952Y-120837809D01*
X165635761Y-120814000D01*
X165683380Y-120790190D01*
X165778619Y-120790190D01*
X165826238Y-120814000D01*
X165850047Y-120837809D01*
X165873857Y-120885428D01*
X165873857Y-120909238D01*
X165850047Y-120956857D01*
X165826238Y-120980666D01*
X165778619Y-121004476D01*
X165683380Y-121004476D01*
X165635761Y-121028285D01*
X165611952Y-121052095D01*
X165588142Y-121099714D01*
X165588142Y-121194952D01*
X165611952Y-121242571D01*
X165635761Y-121266380D01*
X165683380Y-121290190D01*
X165778619Y-121290190D01*
X165826238Y-121266380D01*
X165850047Y-121242571D01*
X165873857Y-121194952D01*
X165873857Y-121099714D01*
X165850047Y-121052095D01*
X165826238Y-121028285D01*
X165778619Y-121004476D01*
%TO.C,C7*%
X158431471Y-105907133D02*
X158455280Y-105930942D01*
X158479090Y-106002371D01*
X158479090Y-106049990D01*
X158455280Y-106121419D01*
X158407661Y-106169038D01*
X158360042Y-106192847D01*
X158264804Y-106216657D01*
X158193376Y-106216657D01*
X158098138Y-106192847D01*
X158050519Y-106169038D01*
X158002900Y-106121419D01*
X157979090Y-106049990D01*
X157979090Y-106002371D01*
X158002900Y-105930942D01*
X158026709Y-105907133D01*
X157979090Y-105740466D02*
X157979090Y-105407133D01*
X158479090Y-105621419D01*
%TO.C,R17*%
X143868571Y-99115690D02*
X143701904Y-98877595D01*
X143582857Y-99115690D02*
X143582857Y-98615690D01*
X143773333Y-98615690D01*
X143820952Y-98639500D01*
X143844761Y-98663309D01*
X143868571Y-98710928D01*
X143868571Y-98782357D01*
X143844761Y-98829976D01*
X143820952Y-98853785D01*
X143773333Y-98877595D01*
X143582857Y-98877595D01*
X144344761Y-99115690D02*
X144059047Y-99115690D01*
X144201904Y-99115690D02*
X144201904Y-98615690D01*
X144154285Y-98687119D01*
X144106666Y-98734738D01*
X144059047Y-98758547D01*
X144511428Y-98615690D02*
X144844761Y-98615690D01*
X144630476Y-99115690D01*
%TO.C,R16*%
X143868571Y-94655690D02*
X143701904Y-94417595D01*
X143582857Y-94655690D02*
X143582857Y-94155690D01*
X143773333Y-94155690D01*
X143820952Y-94179500D01*
X143844761Y-94203309D01*
X143868571Y-94250928D01*
X143868571Y-94322357D01*
X143844761Y-94369976D01*
X143820952Y-94393785D01*
X143773333Y-94417595D01*
X143582857Y-94417595D01*
X144344761Y-94655690D02*
X144059047Y-94655690D01*
X144201904Y-94655690D02*
X144201904Y-94155690D01*
X144154285Y-94227119D01*
X144106666Y-94274738D01*
X144059047Y-94298547D01*
X144773333Y-94155690D02*
X144678095Y-94155690D01*
X144630476Y-94179500D01*
X144606666Y-94203309D01*
X144559047Y-94274738D01*
X144535238Y-94369976D01*
X144535238Y-94560452D01*
X144559047Y-94608071D01*
X144582857Y-94631880D01*
X144630476Y-94655690D01*
X144725714Y-94655690D01*
X144773333Y-94631880D01*
X144797142Y-94608071D01*
X144820952Y-94560452D01*
X144820952Y-94441404D01*
X144797142Y-94393785D01*
X144773333Y-94369976D01*
X144725714Y-94346166D01*
X144630476Y-94346166D01*
X144582857Y-94369976D01*
X144559047Y-94393785D01*
X144535238Y-94441404D01*
%TO.C,R7*%
X174139890Y-102381833D02*
X173901795Y-102548500D01*
X174139890Y-102667547D02*
X173639890Y-102667547D01*
X173639890Y-102477071D01*
X173663700Y-102429452D01*
X173687509Y-102405642D01*
X173735128Y-102381833D01*
X173806557Y-102381833D01*
X173854176Y-102405642D01*
X173877985Y-102429452D01*
X173901795Y-102477071D01*
X173901795Y-102667547D01*
X173639890Y-102215166D02*
X173639890Y-101881833D01*
X174139890Y-102096119D01*
%TO.C,R6*%
X174139890Y-103956633D02*
X173901795Y-104123300D01*
X174139890Y-104242347D02*
X173639890Y-104242347D01*
X173639890Y-104051871D01*
X173663700Y-104004252D01*
X173687509Y-103980442D01*
X173735128Y-103956633D01*
X173806557Y-103956633D01*
X173854176Y-103980442D01*
X173877985Y-104004252D01*
X173901795Y-104051871D01*
X173901795Y-104242347D01*
X173639890Y-103528061D02*
X173639890Y-103623300D01*
X173663700Y-103670919D01*
X173687509Y-103694728D01*
X173758938Y-103742347D01*
X173854176Y-103766157D01*
X174044652Y-103766157D01*
X174092271Y-103742347D01*
X174116080Y-103718538D01*
X174139890Y-103670919D01*
X174139890Y-103575680D01*
X174116080Y-103528061D01*
X174092271Y-103504252D01*
X174044652Y-103480442D01*
X173925604Y-103480442D01*
X173877985Y-103504252D01*
X173854176Y-103528061D01*
X173830366Y-103575680D01*
X173830366Y-103670919D01*
X173854176Y-103718538D01*
X173877985Y-103742347D01*
X173925604Y-103766157D01*
%TO.C,U3*%
X175387047Y-103002590D02*
X175387047Y-103407352D01*
X175410857Y-103454971D01*
X175434666Y-103478780D01*
X175482285Y-103502590D01*
X175577523Y-103502590D01*
X175625142Y-103478780D01*
X175648952Y-103454971D01*
X175672761Y-103407352D01*
X175672761Y-103002590D01*
X175863238Y-103002590D02*
X176172761Y-103002590D01*
X176006095Y-103193066D01*
X176077523Y-103193066D01*
X176125142Y-103216876D01*
X176148952Y-103240685D01*
X176172761Y-103288304D01*
X176172761Y-103407352D01*
X176148952Y-103454971D01*
X176125142Y-103478780D01*
X176077523Y-103502590D01*
X175934666Y-103502590D01*
X175887047Y-103478780D01*
X175863238Y-103454971D01*
%TO.C,U1*%
X181894990Y-97205752D02*
X182299752Y-97205752D01*
X182347371Y-97181942D01*
X182371180Y-97158133D01*
X182394990Y-97110514D01*
X182394990Y-97015276D01*
X182371180Y-96967657D01*
X182347371Y-96943847D01*
X182299752Y-96920038D01*
X181894990Y-96920038D01*
X182394990Y-96420038D02*
X182394990Y-96705752D01*
X182394990Y-96562895D02*
X181894990Y-96562895D01*
X181966419Y-96610514D01*
X182014038Y-96658133D01*
X182037847Y-96705752D01*
%TO.C,U6*%
X161925047Y-123424190D02*
X161925047Y-123828952D01*
X161948857Y-123876571D01*
X161972666Y-123900380D01*
X162020285Y-123924190D01*
X162115523Y-123924190D01*
X162163142Y-123900380D01*
X162186952Y-123876571D01*
X162210761Y-123828952D01*
X162210761Y-123424190D01*
X162663142Y-123424190D02*
X162567904Y-123424190D01*
X162520285Y-123448000D01*
X162496476Y-123471809D01*
X162448857Y-123543238D01*
X162425047Y-123638476D01*
X162425047Y-123828952D01*
X162448857Y-123876571D01*
X162472666Y-123900380D01*
X162520285Y-123924190D01*
X162615523Y-123924190D01*
X162663142Y-123900380D01*
X162686952Y-123876571D01*
X162710761Y-123828952D01*
X162710761Y-123709904D01*
X162686952Y-123662285D01*
X162663142Y-123638476D01*
X162615523Y-123614666D01*
X162520285Y-123614666D01*
X162472666Y-123638476D01*
X162448857Y-123662285D01*
X162425047Y-123709904D01*
%TO.C,U11*%
X148176190Y-123069047D02*
X148580952Y-123069047D01*
X148628571Y-123045238D01*
X148652380Y-123021428D01*
X148676190Y-122973809D01*
X148676190Y-122878571D01*
X148652380Y-122830952D01*
X148628571Y-122807142D01*
X148580952Y-122783333D01*
X148176190Y-122783333D01*
X148676190Y-122283333D02*
X148676190Y-122569047D01*
X148676190Y-122426190D02*
X148176190Y-122426190D01*
X148247619Y-122473809D01*
X148295238Y-122521428D01*
X148319047Y-122569047D01*
X148676190Y-121807142D02*
X148676190Y-122092857D01*
X148676190Y-121950000D02*
X148176190Y-121950000D01*
X148247619Y-121997619D01*
X148295238Y-122045238D01*
X148319047Y-122092857D01*
%TO.C,R11*%
X170355390Y-102632628D02*
X170117295Y-102799295D01*
X170355390Y-102918342D02*
X169855390Y-102918342D01*
X169855390Y-102727866D01*
X169879200Y-102680247D01*
X169903009Y-102656438D01*
X169950628Y-102632628D01*
X170022057Y-102632628D01*
X170069676Y-102656438D01*
X170093485Y-102680247D01*
X170117295Y-102727866D01*
X170117295Y-102918342D01*
X170355390Y-102156438D02*
X170355390Y-102442152D01*
X170355390Y-102299295D02*
X169855390Y-102299295D01*
X169926819Y-102346914D01*
X169974438Y-102394533D01*
X169998247Y-102442152D01*
X170355390Y-101680247D02*
X170355390Y-101965961D01*
X170355390Y-101823104D02*
X169855390Y-101823104D01*
X169926819Y-101870723D01*
X169974438Y-101918342D01*
X169998247Y-101965961D01*
%TO.C,R10*%
X151367371Y-96078190D02*
X151200704Y-95840095D01*
X151081657Y-96078190D02*
X151081657Y-95578190D01*
X151272133Y-95578190D01*
X151319752Y-95602000D01*
X151343561Y-95625809D01*
X151367371Y-95673428D01*
X151367371Y-95744857D01*
X151343561Y-95792476D01*
X151319752Y-95816285D01*
X151272133Y-95840095D01*
X151081657Y-95840095D01*
X151843561Y-96078190D02*
X151557847Y-96078190D01*
X151700704Y-96078190D02*
X151700704Y-95578190D01*
X151653085Y-95649619D01*
X151605466Y-95697238D01*
X151557847Y-95721047D01*
X152153085Y-95578190D02*
X152200704Y-95578190D01*
X152248323Y-95602000D01*
X152272133Y-95625809D01*
X152295942Y-95673428D01*
X152319752Y-95768666D01*
X152319752Y-95887714D01*
X152295942Y-95982952D01*
X152272133Y-96030571D01*
X152248323Y-96054380D01*
X152200704Y-96078190D01*
X152153085Y-96078190D01*
X152105466Y-96054380D01*
X152081657Y-96030571D01*
X152057847Y-95982952D01*
X152034038Y-95887714D01*
X152034038Y-95768666D01*
X152057847Y-95673428D01*
X152081657Y-95625809D01*
X152105466Y-95602000D01*
X152153085Y-95578190D01*
%TO.C,R14*%
X141297790Y-120869828D02*
X141059695Y-121036495D01*
X141297790Y-121155542D02*
X140797790Y-121155542D01*
X140797790Y-120965066D01*
X140821600Y-120917447D01*
X140845409Y-120893638D01*
X140893028Y-120869828D01*
X140964457Y-120869828D01*
X141012076Y-120893638D01*
X141035885Y-120917447D01*
X141059695Y-120965066D01*
X141059695Y-121155542D01*
X141297790Y-120393638D02*
X141297790Y-120679352D01*
X141297790Y-120536495D02*
X140797790Y-120536495D01*
X140869219Y-120584114D01*
X140916838Y-120631733D01*
X140940647Y-120679352D01*
X140964457Y-119965066D02*
X141297790Y-119965066D01*
X140773980Y-120084114D02*
X141131123Y-120203161D01*
X141131123Y-119893638D01*
%TO.C,R4*%
X168026190Y-122765333D02*
X167788095Y-122932000D01*
X168026190Y-123051047D02*
X167526190Y-123051047D01*
X167526190Y-122860571D01*
X167550000Y-122812952D01*
X167573809Y-122789142D01*
X167621428Y-122765333D01*
X167692857Y-122765333D01*
X167740476Y-122789142D01*
X167764285Y-122812952D01*
X167788095Y-122860571D01*
X167788095Y-123051047D01*
X167692857Y-122336761D02*
X168026190Y-122336761D01*
X167502380Y-122455809D02*
X167859523Y-122574857D01*
X167859523Y-122265333D01*
%TO.C,R15*%
X141297790Y-122393828D02*
X141059695Y-122560495D01*
X141297790Y-122679542D02*
X140797790Y-122679542D01*
X140797790Y-122489066D01*
X140821600Y-122441447D01*
X140845409Y-122417638D01*
X140893028Y-122393828D01*
X140964457Y-122393828D01*
X141012076Y-122417638D01*
X141035885Y-122441447D01*
X141059695Y-122489066D01*
X141059695Y-122679542D01*
X141297790Y-121917638D02*
X141297790Y-122203352D01*
X141297790Y-122060495D02*
X140797790Y-122060495D01*
X140869219Y-122108114D01*
X140916838Y-122155733D01*
X140940647Y-122203352D01*
X140797790Y-121465257D02*
X140797790Y-121703352D01*
X141035885Y-121727161D01*
X141012076Y-121703352D01*
X140988266Y-121655733D01*
X140988266Y-121536685D01*
X141012076Y-121489066D01*
X141035885Y-121465257D01*
X141083504Y-121441447D01*
X141202552Y-121441447D01*
X141250171Y-121465257D01*
X141273980Y-121489066D01*
X141297790Y-121536685D01*
X141297790Y-121655733D01*
X141273980Y-121703352D01*
X141250171Y-121727161D01*
%TO.C,R13*%
X150097371Y-121765090D02*
X149930704Y-121526995D01*
X149811657Y-121765090D02*
X149811657Y-121265090D01*
X150002133Y-121265090D01*
X150049752Y-121288900D01*
X150073561Y-121312709D01*
X150097371Y-121360328D01*
X150097371Y-121431757D01*
X150073561Y-121479376D01*
X150049752Y-121503185D01*
X150002133Y-121526995D01*
X149811657Y-121526995D01*
X150573561Y-121765090D02*
X150287847Y-121765090D01*
X150430704Y-121765090D02*
X150430704Y-121265090D01*
X150383085Y-121336519D01*
X150335466Y-121384138D01*
X150287847Y-121407947D01*
X150740228Y-121265090D02*
X151049752Y-121265090D01*
X150883085Y-121455566D01*
X150954514Y-121455566D01*
X151002133Y-121479376D01*
X151025942Y-121503185D01*
X151049752Y-121550804D01*
X151049752Y-121669852D01*
X151025942Y-121717471D01*
X151002133Y-121741280D01*
X150954514Y-121765090D01*
X150811657Y-121765090D01*
X150764038Y-121741280D01*
X150740228Y-121717471D01*
%TO.C,R1*%
X158531790Y-109023933D02*
X158293695Y-109190600D01*
X158531790Y-109309647D02*
X158031790Y-109309647D01*
X158031790Y-109119171D01*
X158055600Y-109071552D01*
X158079409Y-109047742D01*
X158127028Y-109023933D01*
X158198457Y-109023933D01*
X158246076Y-109047742D01*
X158269885Y-109071552D01*
X158293695Y-109119171D01*
X158293695Y-109309647D01*
X158531790Y-108547742D02*
X158531790Y-108833457D01*
X158531790Y-108690600D02*
X158031790Y-108690600D01*
X158103219Y-108738219D01*
X158150838Y-108785838D01*
X158174647Y-108833457D01*
%TO.C,Q1*%
X158515809Y-111553619D02*
X158492000Y-111601238D01*
X158444380Y-111648857D01*
X158372952Y-111720285D01*
X158349142Y-111767904D01*
X158349142Y-111815523D01*
X158468190Y-111791714D02*
X158444380Y-111839333D01*
X158396761Y-111886952D01*
X158301523Y-111910761D01*
X158134857Y-111910761D01*
X158039619Y-111886952D01*
X157992000Y-111839333D01*
X157968190Y-111791714D01*
X157968190Y-111696476D01*
X157992000Y-111648857D01*
X158039619Y-111601238D01*
X158134857Y-111577428D01*
X158301523Y-111577428D01*
X158396761Y-111601238D01*
X158444380Y-111648857D01*
X158468190Y-111696476D01*
X158468190Y-111791714D01*
X158468190Y-111101238D02*
X158468190Y-111386952D01*
X158468190Y-111244095D02*
X157968190Y-111244095D01*
X158039619Y-111291714D01*
X158087238Y-111339333D01*
X158111047Y-111386952D01*
%TO.C,D1*%
X148322552Y-121587390D02*
X148322552Y-121087390D01*
X148441600Y-121087390D01*
X148513028Y-121111200D01*
X148560647Y-121158819D01*
X148584457Y-121206438D01*
X148608266Y-121301676D01*
X148608266Y-121373104D01*
X148584457Y-121468342D01*
X148560647Y-121515961D01*
X148513028Y-121563580D01*
X148441600Y-121587390D01*
X148322552Y-121587390D01*
X149084457Y-121587390D02*
X148798742Y-121587390D01*
X148941600Y-121587390D02*
X148941600Y-121087390D01*
X148893980Y-121158819D01*
X148846361Y-121206438D01*
X148798742Y-121230247D01*
%TO.C,C4*%
X141250171Y-119107733D02*
X141273980Y-119131542D01*
X141297790Y-119202971D01*
X141297790Y-119250590D01*
X141273980Y-119322019D01*
X141226361Y-119369638D01*
X141178742Y-119393447D01*
X141083504Y-119417257D01*
X141012076Y-119417257D01*
X140916838Y-119393447D01*
X140869219Y-119369638D01*
X140821600Y-119322019D01*
X140797790Y-119250590D01*
X140797790Y-119202971D01*
X140821600Y-119131542D01*
X140845409Y-119107733D01*
X140964457Y-118679161D02*
X141297790Y-118679161D01*
X140773980Y-118798209D02*
X141131123Y-118917257D01*
X141131123Y-118607733D01*
%TO.C,C3*%
X150183066Y-118237771D02*
X150159257Y-118261580D01*
X150087828Y-118285390D01*
X150040209Y-118285390D01*
X149968780Y-118261580D01*
X149921161Y-118213961D01*
X149897352Y-118166342D01*
X149873542Y-118071104D01*
X149873542Y-117999676D01*
X149897352Y-117904438D01*
X149921161Y-117856819D01*
X149968780Y-117809200D01*
X150040209Y-117785390D01*
X150087828Y-117785390D01*
X150159257Y-117809200D01*
X150183066Y-117833009D01*
X150349733Y-117785390D02*
X150659257Y-117785390D01*
X150492590Y-117975866D01*
X150564019Y-117975866D01*
X150611638Y-117999676D01*
X150635447Y-118023485D01*
X150659257Y-118071104D01*
X150659257Y-118190152D01*
X150635447Y-118237771D01*
X150611638Y-118261580D01*
X150564019Y-118285390D01*
X150421161Y-118285390D01*
X150373542Y-118261580D01*
X150349733Y-118237771D01*
%TO.C,C2*%
X142867866Y-124105171D02*
X142844057Y-124128980D01*
X142772628Y-124152790D01*
X142725009Y-124152790D01*
X142653580Y-124128980D01*
X142605961Y-124081361D01*
X142582152Y-124033742D01*
X142558342Y-123938504D01*
X142558342Y-123867076D01*
X142582152Y-123771838D01*
X142605961Y-123724219D01*
X142653580Y-123676600D01*
X142725009Y-123652790D01*
X142772628Y-123652790D01*
X142844057Y-123676600D01*
X142867866Y-123700409D01*
X143058342Y-123700409D02*
X143082152Y-123676600D01*
X143129771Y-123652790D01*
X143248819Y-123652790D01*
X143296438Y-123676600D01*
X143320247Y-123700409D01*
X143344057Y-123748028D01*
X143344057Y-123795647D01*
X143320247Y-123867076D01*
X143034533Y-124152790D01*
X143344057Y-124152790D01*
%TO.C,C1*%
X141250171Y-123578133D02*
X141273980Y-123601942D01*
X141297790Y-123673371D01*
X141297790Y-123720990D01*
X141273980Y-123792419D01*
X141226361Y-123840038D01*
X141178742Y-123863847D01*
X141083504Y-123887657D01*
X141012076Y-123887657D01*
X140916838Y-123863847D01*
X140869219Y-123840038D01*
X140821600Y-123792419D01*
X140797790Y-123720990D01*
X140797790Y-123673371D01*
X140821600Y-123601942D01*
X140845409Y-123578133D01*
X141297790Y-123101942D02*
X141297790Y-123387657D01*
X141297790Y-123244800D02*
X140797790Y-123244800D01*
X140869219Y-123292419D01*
X140916838Y-123340038D01*
X140940647Y-123387657D01*
%TO.C,R9*%
X154907466Y-126641990D02*
X154740800Y-126403895D01*
X154621752Y-126641990D02*
X154621752Y-126141990D01*
X154812228Y-126141990D01*
X154859847Y-126165800D01*
X154883657Y-126189609D01*
X154907466Y-126237228D01*
X154907466Y-126308657D01*
X154883657Y-126356276D01*
X154859847Y-126380085D01*
X154812228Y-126403895D01*
X154621752Y-126403895D01*
X155145561Y-126641990D02*
X155240800Y-126641990D01*
X155288419Y-126618180D01*
X155312228Y-126594371D01*
X155359847Y-126522942D01*
X155383657Y-126427704D01*
X155383657Y-126237228D01*
X155359847Y-126189609D01*
X155336038Y-126165800D01*
X155288419Y-126141990D01*
X155193180Y-126141990D01*
X155145561Y-126165800D01*
X155121752Y-126189609D01*
X155097942Y-126237228D01*
X155097942Y-126356276D01*
X155121752Y-126403895D01*
X155145561Y-126427704D01*
X155193180Y-126451514D01*
X155288419Y-126451514D01*
X155336038Y-126427704D01*
X155359847Y-126403895D01*
X155383657Y-126356276D01*
%TO.C,R8*%
X164965866Y-126667390D02*
X164799200Y-126429295D01*
X164680152Y-126667390D02*
X164680152Y-126167390D01*
X164870628Y-126167390D01*
X164918247Y-126191200D01*
X164942057Y-126215009D01*
X164965866Y-126262628D01*
X164965866Y-126334057D01*
X164942057Y-126381676D01*
X164918247Y-126405485D01*
X164870628Y-126429295D01*
X164680152Y-126429295D01*
X165251580Y-126381676D02*
X165203961Y-126357866D01*
X165180152Y-126334057D01*
X165156342Y-126286438D01*
X165156342Y-126262628D01*
X165180152Y-126215009D01*
X165203961Y-126191200D01*
X165251580Y-126167390D01*
X165346819Y-126167390D01*
X165394438Y-126191200D01*
X165418247Y-126215009D01*
X165442057Y-126262628D01*
X165442057Y-126286438D01*
X165418247Y-126334057D01*
X165394438Y-126357866D01*
X165346819Y-126381676D01*
X165251580Y-126381676D01*
X165203961Y-126405485D01*
X165180152Y-126429295D01*
X165156342Y-126476914D01*
X165156342Y-126572152D01*
X165180152Y-126619771D01*
X165203961Y-126643580D01*
X165251580Y-126667390D01*
X165346819Y-126667390D01*
X165394438Y-126643580D01*
X165418247Y-126619771D01*
X165442057Y-126572152D01*
X165442057Y-126476914D01*
X165418247Y-126429295D01*
X165394438Y-126405485D01*
X165346819Y-126381676D01*
%TO.C,U5*%
X159555547Y-130004190D02*
X159555547Y-130408952D01*
X159579357Y-130456571D01*
X159603166Y-130480380D01*
X159650785Y-130504190D01*
X159746023Y-130504190D01*
X159793642Y-130480380D01*
X159817452Y-130456571D01*
X159841261Y-130408952D01*
X159841261Y-130004190D01*
X160317452Y-130004190D02*
X160079357Y-130004190D01*
X160055547Y-130242285D01*
X160079357Y-130218476D01*
X160126976Y-130194666D01*
X160246023Y-130194666D01*
X160293642Y-130218476D01*
X160317452Y-130242285D01*
X160341261Y-130289904D01*
X160341261Y-130408952D01*
X160317452Y-130456571D01*
X160293642Y-130480380D01*
X160246023Y-130504190D01*
X160126976Y-130504190D01*
X160079357Y-130480380D01*
X160055547Y-130456571D01*
%TO.C,U7*%
X174442190Y-114480952D02*
X174846952Y-114480952D01*
X174894571Y-114457142D01*
X174918380Y-114433333D01*
X174942190Y-114385714D01*
X174942190Y-114290476D01*
X174918380Y-114242857D01*
X174894571Y-114219047D01*
X174846952Y-114195238D01*
X174442190Y-114195238D01*
X174442190Y-114004761D02*
X174442190Y-113671428D01*
X174942190Y-113885714D01*
%TD*%
M02*
