%FSLAX45Y45*%
G04 Gerber Fmt 4.5, Leading zero omitted, Abs format (unit mm)*
G04 Created by KiCad*
%MOMM*%
%LPD*%
G04 APERTURE LIST*
%TA.AperFunction,Profile*%
%ADD10C,0.050000*%
%TD*%
%ADD11C,0.200000*%
%ADD12C,0.300000*%
G04 APERTURE END LIST*
D10*
X15350000Y-13050000D02*
X14450000Y-12450000D01*
X17550000Y-12450000D02*
X16650000Y-13050000D01*
X16650000Y-8950000D02*
X17270000Y-9390000D01*
X15350000Y-8950000D02*
X14690000Y-9390000D01*
X16000000Y-8950000D02*
X15350000Y-8950000D01*
X16000000Y-13050000D02*
X15350000Y-13050000D01*
X16650000Y-13050000D02*
X16000000Y-13050000D01*
X16000000Y-8950000D02*
X16650000Y-8950000D01*
X18250000Y-12450000D02*
X17550000Y-12450000D01*
X18250000Y-9390000D02*
X17270000Y-9390000D01*
X13750000Y-9390000D02*
X14690000Y-9390000D01*
X13750000Y-12450000D02*
X14450000Y-12450000D01*
X13750000Y-11000000D02*
X13750000Y-12450000D01*
X13750000Y-11000000D02*
X13750000Y-9390000D01*
X18250000Y-11000000D02*
X18250000Y-12450000D01*
X18250000Y-11000000D02*
X18250000Y-9390000D01*
D11*
X14170000Y-10237000D02*
X14270000Y-10337000D01*
X14270000Y-10237000D02*
X14170000Y-10337000D01*
X14170000Y-11035000D02*
X14270000Y-11135000D01*
X14270000Y-11035000D02*
X14170000Y-11135000D01*
X15721400Y-12590450D02*
X15821400Y-12690450D01*
X15821400Y-12590450D02*
X15721400Y-12690450D01*
X15731400Y-12640450D02*
X15731400Y-12640450D01*
X15811400Y-12640450D02*
X15811400Y-12640450D01*
X15731400Y-12640450D02*
G75*
G03X15811400Y-12640450I40000J0D01*
G01*
X15811400Y-12640450D02*
G75*
G03X15731400Y-12640450I-40000J0D01*
G01*
X16178600Y-12590450D02*
X16278600Y-12690450D01*
X16278600Y-12590450D02*
X16178600Y-12690450D01*
X16188600Y-12640450D02*
X16188600Y-12640450D01*
X16268600Y-12640450D02*
X16268600Y-12640450D01*
X16188600Y-12640450D02*
G75*
G03X16268600Y-12640450I40000J0D01*
G01*
X16268600Y-12640450D02*
G75*
G03X16188600Y-12640450I-40000J0D01*
G01*
D12*
X14033928Y-13518214D02*
X14033928Y-13218214D01*
X14105357Y-13218214D01*
X14148214Y-13232500D01*
X14176786Y-13261071D01*
X14191071Y-13289643D01*
X14205357Y-13346786D01*
X14205357Y-13389643D01*
X14191071Y-13446786D01*
X14176786Y-13475357D01*
X14148214Y-13503929D01*
X14105357Y-13518214D01*
X14033928Y-13518214D01*
X14333928Y-13518214D02*
X14333928Y-13318214D01*
X14333928Y-13375357D02*
X14348214Y-13346786D01*
X14362500Y-13332500D01*
X14391071Y-13318214D01*
X14419643Y-13318214D01*
X14519643Y-13518214D02*
X14519643Y-13318214D01*
X14519643Y-13218214D02*
X14505357Y-13232500D01*
X14519643Y-13246786D01*
X14533928Y-13232500D01*
X14519643Y-13218214D01*
X14519643Y-13246786D01*
X14705357Y-13518214D02*
X14676786Y-13503929D01*
X14662500Y-13475357D01*
X14662500Y-13218214D01*
X14862500Y-13518214D02*
X14833928Y-13503929D01*
X14819643Y-13475357D01*
X14819643Y-13218214D01*
X15205357Y-13518214D02*
X15205357Y-13218214D01*
X15305357Y-13432500D01*
X15405357Y-13218214D01*
X15405357Y-13518214D01*
X15676786Y-13518214D02*
X15676786Y-13361071D01*
X15662500Y-13332500D01*
X15633928Y-13318214D01*
X15576786Y-13318214D01*
X15548214Y-13332500D01*
X15676786Y-13503929D02*
X15648214Y-13518214D01*
X15576786Y-13518214D01*
X15548214Y-13503929D01*
X15533928Y-13475357D01*
X15533928Y-13446786D01*
X15548214Y-13418214D01*
X15576786Y-13403929D01*
X15648214Y-13403929D01*
X15676786Y-13389643D01*
X15819643Y-13318214D02*
X15819643Y-13618214D01*
X15819643Y-13332500D02*
X15848214Y-13318214D01*
X15905357Y-13318214D01*
X15933928Y-13332500D01*
X15948214Y-13346786D01*
X15962500Y-13375357D01*
X15962500Y-13461071D01*
X15948214Y-13489643D01*
X15933928Y-13503929D01*
X15905357Y-13518214D01*
X15848214Y-13518214D01*
X15819643Y-13503929D01*
X16091071Y-13489643D02*
X16105357Y-13503929D01*
X16091071Y-13518214D01*
X16076786Y-13503929D01*
X16091071Y-13489643D01*
X16091071Y-13518214D01*
X16091071Y-13332500D02*
X16105357Y-13346786D01*
X16091071Y-13361071D01*
X16076786Y-13346786D01*
X16091071Y-13332500D01*
X16091071Y-13361071D01*
X13647500Y-13962500D02*
X13747500Y-14062500D01*
X13747500Y-13962500D02*
X13647500Y-14062500D01*
X14191071Y-14148214D02*
X14019643Y-14148214D01*
X14105357Y-14148214D02*
X14105357Y-13848214D01*
X14076786Y-13891071D01*
X14048214Y-13919643D01*
X14019643Y-13933929D01*
X14319643Y-14119643D02*
X14333928Y-14133929D01*
X14319643Y-14148214D01*
X14305357Y-14133929D01*
X14319643Y-14119643D01*
X14319643Y-14148214D01*
X14519643Y-13848214D02*
X14548214Y-13848214D01*
X14576786Y-13862500D01*
X14591071Y-13876786D01*
X14605357Y-13905357D01*
X14619643Y-13962500D01*
X14619643Y-14033929D01*
X14605357Y-14091071D01*
X14591071Y-14119643D01*
X14576786Y-14133929D01*
X14548214Y-14148214D01*
X14519643Y-14148214D01*
X14491071Y-14133929D01*
X14476786Y-14119643D01*
X14462500Y-14091071D01*
X14448214Y-14033929D01*
X14448214Y-13962500D01*
X14462500Y-13905357D01*
X14476786Y-13876786D01*
X14491071Y-13862500D01*
X14519643Y-13848214D01*
X14805357Y-13848214D02*
X14833928Y-13848214D01*
X14862500Y-13862500D01*
X14876786Y-13876786D01*
X14891071Y-13905357D01*
X14905357Y-13962500D01*
X14905357Y-14033929D01*
X14891071Y-14091071D01*
X14876786Y-14119643D01*
X14862500Y-14133929D01*
X14833928Y-14148214D01*
X14805357Y-14148214D01*
X14776786Y-14133929D01*
X14762500Y-14119643D01*
X14748214Y-14091071D01*
X14733928Y-14033929D01*
X14733928Y-13962500D01*
X14748214Y-13905357D01*
X14762500Y-13876786D01*
X14776786Y-13862500D01*
X14805357Y-13848214D01*
X15033928Y-14148214D02*
X15033928Y-13948214D01*
X15033928Y-13976786D02*
X15048214Y-13962500D01*
X15076786Y-13948214D01*
X15119643Y-13948214D01*
X15148214Y-13962500D01*
X15162500Y-13991071D01*
X15162500Y-14148214D01*
X15162500Y-13991071D02*
X15176786Y-13962500D01*
X15205357Y-13948214D01*
X15248214Y-13948214D01*
X15276786Y-13962500D01*
X15291071Y-13991071D01*
X15291071Y-14148214D01*
X15433928Y-14148214D02*
X15433928Y-13948214D01*
X15433928Y-13976786D02*
X15448214Y-13962500D01*
X15476786Y-13948214D01*
X15519643Y-13948214D01*
X15548214Y-13962500D01*
X15562500Y-13991071D01*
X15562500Y-14148214D01*
X15562500Y-13991071D02*
X15576786Y-13962500D01*
X15605357Y-13948214D01*
X15648214Y-13948214D01*
X15676786Y-13962500D01*
X15691071Y-13991071D01*
X15691071Y-14148214D01*
X16276786Y-13833929D02*
X16019643Y-14219643D01*
X16662500Y-13848214D02*
X16691071Y-13848214D01*
X16719643Y-13862500D01*
X16733928Y-13876786D01*
X16748214Y-13905357D01*
X16762500Y-13962500D01*
X16762500Y-14033929D01*
X16748214Y-14091071D01*
X16733928Y-14119643D01*
X16719643Y-14133929D01*
X16691071Y-14148214D01*
X16662500Y-14148214D01*
X16633928Y-14133929D01*
X16619643Y-14119643D01*
X16605357Y-14091071D01*
X16591071Y-14033929D01*
X16591071Y-13962500D01*
X16605357Y-13905357D01*
X16619643Y-13876786D01*
X16633928Y-13862500D01*
X16662500Y-13848214D01*
X16891071Y-14119643D02*
X16905357Y-14133929D01*
X16891071Y-14148214D01*
X16876786Y-14133929D01*
X16891071Y-14119643D01*
X16891071Y-14148214D01*
X17091071Y-13848214D02*
X17119643Y-13848214D01*
X17148214Y-13862500D01*
X17162500Y-13876786D01*
X17176786Y-13905357D01*
X17191071Y-13962500D01*
X17191071Y-14033929D01*
X17176786Y-14091071D01*
X17162500Y-14119643D01*
X17148214Y-14133929D01*
X17119643Y-14148214D01*
X17091071Y-14148214D01*
X17062500Y-14133929D01*
X17048214Y-14119643D01*
X17033928Y-14091071D01*
X17019643Y-14033929D01*
X17019643Y-13962500D01*
X17033928Y-13905357D01*
X17048214Y-13876786D01*
X17062500Y-13862500D01*
X17091071Y-13848214D01*
X17291071Y-13848214D02*
X17476786Y-13848214D01*
X17376786Y-13962500D01*
X17419643Y-13962500D01*
X17448214Y-13976786D01*
X17462500Y-13991071D01*
X17476786Y-14019643D01*
X17476786Y-14091071D01*
X17462500Y-14119643D01*
X17448214Y-14133929D01*
X17419643Y-14148214D01*
X17333928Y-14148214D01*
X17305357Y-14133929D01*
X17291071Y-14119643D01*
X17619643Y-14148214D02*
X17676786Y-14148214D01*
X17705357Y-14133929D01*
X17719643Y-14119643D01*
X17748214Y-14076786D01*
X17762500Y-14019643D01*
X17762500Y-13905357D01*
X17748214Y-13876786D01*
X17733928Y-13862500D01*
X17705357Y-13848214D01*
X17648214Y-13848214D01*
X17619643Y-13862500D01*
X17605357Y-13876786D01*
X17591071Y-13905357D01*
X17591071Y-13976786D01*
X17605357Y-14005357D01*
X17619643Y-14019643D01*
X17648214Y-14033929D01*
X17705357Y-14033929D01*
X17733928Y-14019643D01*
X17748214Y-14005357D01*
X17762500Y-13976786D01*
X17876786Y-13848214D02*
X17876786Y-13905357D01*
X17991071Y-13848214D02*
X17991071Y-13905357D01*
X18433928Y-14262500D02*
X18419643Y-14248214D01*
X18391071Y-14205357D01*
X18376786Y-14176786D01*
X18362500Y-14133929D01*
X18348214Y-14062500D01*
X18348214Y-14005357D01*
X18362500Y-13933929D01*
X18376786Y-13891071D01*
X18391071Y-13862500D01*
X18419643Y-13819643D01*
X18433928Y-13805357D01*
X18533928Y-13876786D02*
X18548214Y-13862500D01*
X18576786Y-13848214D01*
X18648214Y-13848214D01*
X18676786Y-13862500D01*
X18691071Y-13876786D01*
X18705357Y-13905357D01*
X18705357Y-13933929D01*
X18691071Y-13976786D01*
X18519643Y-14148214D01*
X18705357Y-14148214D01*
X19062500Y-14148214D02*
X19062500Y-13848214D01*
X19191071Y-14148214D02*
X19191071Y-13991071D01*
X19176786Y-13962500D01*
X19148214Y-13948214D01*
X19105357Y-13948214D01*
X19076786Y-13962500D01*
X19062500Y-13976786D01*
X19376786Y-14148214D02*
X19348214Y-14133929D01*
X19333928Y-14119643D01*
X19319643Y-14091071D01*
X19319643Y-14005357D01*
X19333928Y-13976786D01*
X19348214Y-13962500D01*
X19376786Y-13948214D01*
X19419643Y-13948214D01*
X19448214Y-13962500D01*
X19462500Y-13976786D01*
X19476786Y-14005357D01*
X19476786Y-14091071D01*
X19462500Y-14119643D01*
X19448214Y-14133929D01*
X19419643Y-14148214D01*
X19376786Y-14148214D01*
X19648214Y-14148214D02*
X19619643Y-14133929D01*
X19605357Y-14105357D01*
X19605357Y-13848214D01*
X19876786Y-14133929D02*
X19848214Y-14148214D01*
X19791071Y-14148214D01*
X19762500Y-14133929D01*
X19748214Y-14105357D01*
X19748214Y-13991071D01*
X19762500Y-13962500D01*
X19791071Y-13948214D01*
X19848214Y-13948214D01*
X19876786Y-13962500D01*
X19891071Y-13991071D01*
X19891071Y-14019643D01*
X19748214Y-14048214D01*
X20005357Y-14133929D02*
X20033928Y-14148214D01*
X20091071Y-14148214D01*
X20119643Y-14133929D01*
X20133928Y-14105357D01*
X20133928Y-14091071D01*
X20119643Y-14062500D01*
X20091071Y-14048214D01*
X20048214Y-14048214D01*
X20019643Y-14033929D01*
X20005357Y-14005357D01*
X20005357Y-13991071D01*
X20019643Y-13962500D01*
X20048214Y-13948214D01*
X20091071Y-13948214D01*
X20119643Y-13962500D01*
X20491071Y-14033929D02*
X20719643Y-14033929D01*
X20605357Y-14148214D02*
X20605357Y-13919643D01*
X21076786Y-13876786D02*
X21091071Y-13862500D01*
X21119643Y-13848214D01*
X21191071Y-13848214D01*
X21219643Y-13862500D01*
X21233928Y-13876786D01*
X21248214Y-13905357D01*
X21248214Y-13933929D01*
X21233928Y-13976786D01*
X21062500Y-14148214D01*
X21248214Y-14148214D01*
X21591071Y-14133929D02*
X21619643Y-14148214D01*
X21676786Y-14148214D01*
X21705357Y-14133929D01*
X21719643Y-14105357D01*
X21719643Y-14091071D01*
X21705357Y-14062500D01*
X21676786Y-14048214D01*
X21633928Y-14048214D01*
X21605357Y-14033929D01*
X21591071Y-14005357D01*
X21591071Y-13991071D01*
X21605357Y-13962500D01*
X21633928Y-13948214D01*
X21676786Y-13948214D01*
X21705357Y-13962500D01*
X21891071Y-14148214D02*
X21862500Y-14133929D01*
X21848214Y-14105357D01*
X21848214Y-13848214D01*
X22048214Y-14148214D02*
X22019643Y-14133929D01*
X22005357Y-14119643D01*
X21991071Y-14091071D01*
X21991071Y-14005357D01*
X22005357Y-13976786D01*
X22019643Y-13962500D01*
X22048214Y-13948214D01*
X22091071Y-13948214D01*
X22119643Y-13962500D01*
X22133928Y-13976786D01*
X22148214Y-14005357D01*
X22148214Y-14091071D01*
X22133928Y-14119643D01*
X22119643Y-14133929D01*
X22091071Y-14148214D01*
X22048214Y-14148214D01*
X22233928Y-13948214D02*
X22348214Y-13948214D01*
X22276786Y-13848214D02*
X22276786Y-14105357D01*
X22291071Y-14133929D01*
X22319643Y-14148214D01*
X22348214Y-14148214D01*
X22433928Y-14133929D02*
X22462500Y-14148214D01*
X22519643Y-14148214D01*
X22548214Y-14133929D01*
X22562500Y-14105357D01*
X22562500Y-14091071D01*
X22548214Y-14062500D01*
X22519643Y-14048214D01*
X22476786Y-14048214D01*
X22448214Y-14033929D01*
X22433928Y-14005357D01*
X22433928Y-13991071D01*
X22448214Y-13962500D01*
X22476786Y-13948214D01*
X22519643Y-13948214D01*
X22548214Y-13962500D01*
X22662500Y-14262500D02*
X22676786Y-14248214D01*
X22705357Y-14205357D01*
X22719643Y-14176786D01*
X22733928Y-14133929D01*
X22748214Y-14062500D01*
X22748214Y-14005357D01*
X22733928Y-13933929D01*
X22719643Y-13891071D01*
X22705357Y-13862500D01*
X22676786Y-13819643D01*
X22662500Y-13805357D01*
X23205357Y-14262500D02*
X23191071Y-14248214D01*
X23162500Y-14205357D01*
X23148214Y-14176786D01*
X23133928Y-14133929D01*
X23119643Y-14062500D01*
X23119643Y-14005357D01*
X23133928Y-13933929D01*
X23148214Y-13891071D01*
X23162500Y-13862500D01*
X23191071Y-13819643D01*
X23205357Y-13805357D01*
X23319643Y-13948214D02*
X23319643Y-14148214D01*
X23319643Y-13976786D02*
X23333928Y-13962500D01*
X23362500Y-13948214D01*
X23405357Y-13948214D01*
X23433928Y-13962500D01*
X23448214Y-13991071D01*
X23448214Y-14148214D01*
X23633928Y-14148214D02*
X23605357Y-14133929D01*
X23591071Y-14119643D01*
X23576786Y-14091071D01*
X23576786Y-14005357D01*
X23591071Y-13976786D01*
X23605357Y-13962500D01*
X23633928Y-13948214D01*
X23676786Y-13948214D01*
X23705357Y-13962500D01*
X23719643Y-13976786D01*
X23733928Y-14005357D01*
X23733928Y-14091071D01*
X23719643Y-14119643D01*
X23705357Y-14133929D01*
X23676786Y-14148214D01*
X23633928Y-14148214D01*
X23819643Y-13948214D02*
X23933928Y-13948214D01*
X23862500Y-13848214D02*
X23862500Y-14105357D01*
X23876786Y-14133929D01*
X23905357Y-14148214D01*
X23933928Y-14148214D01*
X24262500Y-13948214D02*
X24262500Y-14248214D01*
X24262500Y-13962500D02*
X24291071Y-13948214D01*
X24348214Y-13948214D01*
X24376786Y-13962500D01*
X24391071Y-13976786D01*
X24405357Y-14005357D01*
X24405357Y-14091071D01*
X24391071Y-14119643D01*
X24376786Y-14133929D01*
X24348214Y-14148214D01*
X24291071Y-14148214D01*
X24262500Y-14133929D01*
X24576786Y-14148214D02*
X24548214Y-14133929D01*
X24533928Y-14105357D01*
X24533928Y-13848214D01*
X24819643Y-14148214D02*
X24819643Y-13991071D01*
X24805357Y-13962500D01*
X24776786Y-13948214D01*
X24719643Y-13948214D01*
X24691071Y-13962500D01*
X24819643Y-14133929D02*
X24791071Y-14148214D01*
X24719643Y-14148214D01*
X24691071Y-14133929D01*
X24676786Y-14105357D01*
X24676786Y-14076786D01*
X24691071Y-14048214D01*
X24719643Y-14033929D01*
X24791071Y-14033929D01*
X24819643Y-14019643D01*
X24919643Y-13948214D02*
X25033928Y-13948214D01*
X24962500Y-13848214D02*
X24962500Y-14105357D01*
X24976786Y-14133929D01*
X25005357Y-14148214D01*
X25033928Y-14148214D01*
X25248214Y-14133929D02*
X25219643Y-14148214D01*
X25162500Y-14148214D01*
X25133928Y-14133929D01*
X25119643Y-14105357D01*
X25119643Y-13991071D01*
X25133928Y-13962500D01*
X25162500Y-13948214D01*
X25219643Y-13948214D01*
X25248214Y-13962500D01*
X25262500Y-13991071D01*
X25262500Y-14019643D01*
X25119643Y-14048214D01*
X25519643Y-14148214D02*
X25519643Y-13848214D01*
X25519643Y-14133929D02*
X25491071Y-14148214D01*
X25433928Y-14148214D01*
X25405357Y-14133929D01*
X25391071Y-14119643D01*
X25376786Y-14091071D01*
X25376786Y-14005357D01*
X25391071Y-13976786D01*
X25405357Y-13962500D01*
X25433928Y-13948214D01*
X25491071Y-13948214D01*
X25519643Y-13962500D01*
X25633928Y-14262500D02*
X25648214Y-14248214D01*
X25676786Y-14205357D01*
X25691071Y-14176786D01*
X25705357Y-14133929D01*
X25719643Y-14062500D01*
X25719643Y-14005357D01*
X25705357Y-13933929D01*
X25691071Y-13891071D01*
X25676786Y-13862500D01*
X25648214Y-13819643D01*
X25633928Y-13805357D01*
M02*
