%TF.GenerationSoftware,KiCad,Pcbnew,5.1.5+dfsg1-2~bpo10+1*%
%TF.CreationDate,Date%
%TF.ProjectId,osw,6f73772e-6b69-4636-9164-5f7063625858,rev?*%
%TF.SameCoordinates,Original*%
%TF.FileFunction,Copper,L4,Bot*%
%TF.FilePolarity,Positive*%
%FSLAX46Y46*%
G04 Gerber Fmt 4.6, Leading zero omitted, Abs format (unit mm)*
G04 Created by KiCad*
%MOMM*%
%LPD*%
G04 APERTURE LIST*
%TA.AperFunction,SMDPad,CuDef*%
%ADD10R,3.400000X1.700000*%
%TD*%
%TA.AperFunction,ComponentPad*%
%ADD11O,1.500000X2.000000*%
%TD*%
%TA.AperFunction,ComponentPad*%
%ADD12C,0.600000*%
%TD*%
%TA.AperFunction,SMDPad,CuDef*%
%ADD13R,2.500000X0.350000*%
%TD*%
%TA.AperFunction,ViaPad*%
%ADD14C,0.685800*%
%TD*%
%TA.AperFunction,Conductor*%
%ADD15C,0.152000*%
%TD*%
%TA.AperFunction,Conductor*%
%ADD16C,0.305000*%
%TD*%
%TA.AperFunction,Conductor*%
%ADD17C,0.610000*%
%TD*%
%ADD18C,0.330200*%
%ADD19C,0.350000*%
%ADD20O,0.999999X0.999999*%
%ADD21O,0.750000X1.200000*%
%ADD22C,0.400000*%
G04 APERTURE END LIST*
D10*
%TO.P,J1,2*%
%TO.N,GND*%
X140000000Y-119960000D03*
%TO.P,J1,1*%
%TO.N,/VBAT*%
X140000000Y-122500000D03*
%TD*%
D11*
%TO.P,U5,*%
%TO.N,*%
X163048000Y-128627000D03*
X156952000Y-128627000D03*
%TD*%
D12*
%TO.P,SW2,*%
%TO.N,*%
X168070486Y-92428537D02*
X168613600Y-91681005D01*
X172180292Y-95414486D02*
X172723406Y-94666954D01*
%TD*%
%TO.P,SW1,*%
%TO.N,*%
X147762793Y-95096106D02*
X147246099Y-94330076D01*
X151974304Y-92255406D02*
X151457610Y-91489376D01*
%TD*%
%TO.P,SW5,*%
%TO.N,*%
X154224304Y-128994594D02*
X153707610Y-129760624D01*
X150012793Y-126153894D02*
X149496099Y-126919924D01*
%TD*%
%TO.P,SW4,*%
%TO.N,*%
X170014760Y-126188818D02*
X170518006Y-126963750D01*
X165754314Y-128955585D02*
X166257560Y-129730517D01*
%TD*%
D13*
%TO.P,U4,6*%
%TO.N,GND*%
X151380000Y-109570000D03*
%TO.P,U4,5*%
X151380000Y-110270000D03*
%TO.P,U4,4*%
%TO.N,+3V3*%
X151380000Y-110970000D03*
%TO.P,U4,3*%
%TO.N,Net-(R1-Pad2)*%
X151380000Y-111670000D03*
%TO.P,U4,2*%
%TO.N,/LEDK*%
X151380000Y-112370000D03*
%TO.P,U4,1*%
%TO.N,GND*%
X151380000Y-113070000D03*
%TO.P,U4,7*%
%TO.N,/TFT_DC*%
X151380000Y-108870000D03*
%TO.P,U4,8*%
%TO.N,/TFT_CS*%
X151380000Y-108170000D03*
%TO.P,U4,9*%
%TO.N,/SCK*%
X151380000Y-107470000D03*
%TO.P,U4,10*%
%TO.N,/MOSI*%
X151380000Y-106770000D03*
%TO.P,U4,11*%
%TO.N,/TFT_RST*%
X151380000Y-106070000D03*
%TO.P,U4,12*%
%TO.N,GND*%
X151380000Y-105370000D03*
%TD*%
D14*
%TO.N,/EN*%
X169169080Y-124597160D03*
X166787500Y-125050000D03*
%TO.N,+3V3*%
X166052500Y-94297500D03*
X166052500Y-95250000D03*
X150749000Y-93662500D03*
X173482000Y-96647000D03*
X171767500Y-96583500D03*
X175641000Y-100076000D03*
X177673000Y-103060500D03*
X179070000Y-97853500D03*
X181864000Y-103251000D03*
X173418500Y-103441500D03*
X170434000Y-102235000D03*
X157543500Y-116713000D03*
X161671000Y-111252000D03*
X179832000Y-120713500D03*
X164147500Y-125031500D03*
X149453600Y-111226600D03*
X155829000Y-108940600D03*
X154276943Y-107613059D03*
X161607500Y-109728000D03*
X153009600Y-119024400D03*
X153822400Y-119024400D03*
X154660600Y-119024400D03*
X165633400Y-114579400D03*
X163220400Y-114046000D03*
%TO.N,/FLASH*%
X171931596Y-119683796D03*
X152151080Y-126532640D03*
X168122600Y-108534200D03*
X166243000Y-107188000D03*
%TO.N,GND*%
X142367000Y-120396000D03*
X156527500Y-124523500D03*
X161290000Y-124460000D03*
X179832000Y-121666000D03*
X179070000Y-99123500D03*
X166052500Y-90106500D03*
X166052500Y-91313000D03*
X166052500Y-92265500D03*
X166052500Y-93281500D03*
X166052500Y-98234500D03*
X166052500Y-99250500D03*
X153924000Y-90043000D03*
X153924000Y-91249500D03*
X153924000Y-94234000D03*
X153924000Y-95250000D03*
X153924000Y-97282000D03*
X153924000Y-98298000D03*
X150749000Y-99949000D03*
X144272000Y-100076000D03*
X169989500Y-98425000D03*
X173418500Y-100012500D03*
X171767500Y-102235000D03*
X161988500Y-104267000D03*
X157988000Y-104267000D03*
X157289500Y-106807000D03*
X151257000Y-104521000D03*
X149415500Y-109601000D03*
X149415500Y-113093500D03*
X149415500Y-110299500D03*
X149479000Y-105346500D03*
X155003500Y-126428500D03*
X157543500Y-113982500D03*
X154749500Y-116078000D03*
X141033500Y-115633500D03*
X152209500Y-116205000D03*
X181800500Y-106426000D03*
X180721000Y-101600000D03*
X157226000Y-110744000D03*
X163512500Y-115125500D03*
X168275000Y-122809000D03*
X138125200Y-115778280D03*
X164681200Y-110350000D03*
X148920200Y-121462800D03*
X147777200Y-121462800D03*
X147777200Y-120548400D03*
X148920200Y-120523000D03*
X146202400Y-119862600D03*
X158470600Y-119481600D03*
X157251400Y-119456200D03*
X156514800Y-120167400D03*
X157886400Y-119100600D03*
%TO.N,/VBUS*%
X151257000Y-119697500D03*
X151003000Y-124523500D03*
%TO.N,/VBAT*%
X143827500Y-122047000D03*
X143827500Y-121221500D03*
X146558000Y-117538500D03*
X143637000Y-118237000D03*
X164693287Y-108785635D03*
%TO.N,/LEDK*%
X154752040Y-111998760D03*
%TO.N,Net-(R5-Pad1)*%
X152146000Y-97853500D03*
X153924000Y-92265500D03*
%TO.N,/BTN2*%
X150431500Y-95567500D03*
X152091780Y-96021280D03*
X176240000Y-106100000D03*
%TO.N,/BTN3*%
X171038520Y-100365560D03*
X171968160Y-103286560D03*
%TO.N,/RX*%
X163542336Y-113166300D03*
X168216000Y-117648000D03*
%TO.N,/SCL*%
X176925000Y-99922360D03*
X174421800Y-103875840D03*
X167914320Y-102773480D03*
X170444189Y-111475520D03*
X171947840Y-107624880D03*
%TO.N,/SDA*%
X177698400Y-98160840D03*
X169174160Y-100512880D03*
X169489120Y-117002560D03*
X169113200Y-102539800D03*
X177520600Y-101584760D03*
X180037500Y-103850000D03*
%TO.N,/PIN_LED*%
X171018200Y-107492800D03*
X149021800Y-114020600D03*
%TO.N,/STAT_PWR*%
X141249400Y-106045000D03*
X171119800Y-105130600D03*
%TO.N,/MOSI*%
X148630640Y-106790900D03*
X167632252Y-120667652D03*
X159842200Y-113166300D03*
X159816800Y-111175800D03*
%TO.N,/MISO*%
X168173400Y-114604800D03*
X153847800Y-103378000D03*
%TO.N,/IO34*%
X180171473Y-106724404D03*
X180243480Y-116636800D03*
%TO.N,/IO35*%
X181369910Y-105232200D03*
X179552573Y-115620800D03*
%TO.N,Net-(R1-Pad2)*%
X153410131Y-111800846D03*
%TO.N,/B_MON*%
X166243884Y-108800819D03*
X166250000Y-110350000D03*
%TO.N,/RTC_INT*%
X179324000Y-105623360D03*
X179105561Y-114630200D03*
%TO.N,/TFT_DC*%
X149144549Y-108705784D03*
X169825289Y-110091329D03*
X178705100Y-108483400D03*
%TO.N,/TFT_CS*%
X168224200Y-112547400D03*
%TO.N,/TFT_RST*%
X178561999Y-113741200D03*
%TO.N,/GPS_TX*%
X163398200Y-103682800D03*
X161137600Y-101355099D03*
%TO.N,/MODE_SYNC*%
X156489400Y-121234200D03*
X168198800Y-107492800D03*
%TO.N,/SCK*%
X168173400Y-113588800D03*
X148020775Y-107559104D03*
%TO.N,/D_P*%
X157413434Y-109712806D03*
X160245256Y-124647186D03*
%TO.N,/D_N*%
X159687047Y-110170789D03*
X159359600Y-124663200D03*
%TO.N,Net-(R12-Pad2)*%
X154813000Y-121310400D03*
X159867600Y-115214400D03*
X152628600Y-122809000D03*
%TD*%
D15*
%TO.N,/EN*%
X167240340Y-124597160D02*
X166787500Y-125050000D01*
X169169080Y-124597160D02*
X167240340Y-124597160D01*
D16*
%TO.N,+3V3*%
X173418500Y-102298500D02*
X175641000Y-100076000D01*
X173418500Y-103441500D02*
X173418500Y-102298500D01*
D15*
X149710200Y-110970000D02*
X149453600Y-111226600D01*
X151380000Y-110970000D02*
X149710200Y-110970000D01*
D16*
X154501459Y-107613059D02*
X155829000Y-108940600D01*
X154276943Y-107613059D02*
X154501459Y-107613059D01*
D15*
%TO.N,/FLASH*%
X171622402Y-119992990D02*
X169182172Y-119992990D01*
X171931596Y-119683796D02*
X171622402Y-119992990D01*
X166776400Y-107188000D02*
X166243000Y-107188000D01*
X168122600Y-108534200D02*
X166776400Y-107188000D01*
X153055221Y-125628499D02*
X152151080Y-126532640D01*
X161037475Y-125628499D02*
X153055221Y-125628499D01*
X162420824Y-124245150D02*
X161037475Y-125628499D01*
X167754824Y-124245150D02*
X162420824Y-124245150D01*
X169182172Y-122817802D02*
X167754824Y-124245150D01*
X169182172Y-119992990D02*
X169182172Y-122817802D01*
D17*
%TO.N,GND*%
X141931000Y-119960000D02*
X142367000Y-120396000D01*
X140000000Y-119960000D02*
X141931000Y-119960000D01*
X151380000Y-104644000D02*
X151257000Y-104521000D01*
X151380000Y-105370000D02*
X151380000Y-104644000D01*
X149446500Y-109570000D02*
X149415500Y-109601000D01*
X151380000Y-109570000D02*
X149446500Y-109570000D01*
X149439000Y-113070000D02*
X149415500Y-113093500D01*
X151380000Y-113070000D02*
X149439000Y-113070000D01*
X149445000Y-110270000D02*
X149415500Y-110299500D01*
X151380000Y-110270000D02*
X149445000Y-110270000D01*
X151380000Y-110270000D02*
X151380000Y-109570000D01*
X149502500Y-105370000D02*
X149479000Y-105346500D01*
X151380000Y-105370000D02*
X149502500Y-105370000D01*
%TO.N,/VBAT*%
X140453000Y-122047000D02*
X140000000Y-122500000D01*
X143827500Y-122047000D02*
X140453000Y-122047000D01*
D15*
%TO.N,/LEDK*%
X154331053Y-112419747D02*
X154752040Y-111998760D01*
X151429747Y-112419747D02*
X154331053Y-112419747D01*
X151380000Y-112370000D02*
X151429747Y-112419747D01*
D16*
%TO.N,Net-(R5-Pad1)*%
X152146000Y-97853500D02*
X153098500Y-96901000D01*
X153098500Y-93091000D02*
X153924000Y-92265500D01*
X153098500Y-96901000D02*
X153098500Y-93091000D01*
%TO.N,/BTN2*%
X151638000Y-95567500D02*
X152091780Y-96021280D01*
X150431500Y-95567500D02*
X151638000Y-95567500D01*
D15*
X160714328Y-106100000D02*
X176240000Y-106100000D01*
X153086729Y-98472401D02*
X160714328Y-106100000D01*
X151848927Y-98472401D02*
X153086729Y-98472401D01*
X151527099Y-98150573D02*
X151848927Y-98472401D01*
X151527099Y-96585961D02*
X151527099Y-98150573D01*
X152091780Y-96021280D02*
X151527099Y-96585961D01*
%TO.N,/BTN3*%
X171903086Y-103286560D02*
X171968160Y-103286560D01*
X171148599Y-102532073D02*
X171903086Y-103286560D01*
X171148599Y-100475639D02*
X171148599Y-102532073D01*
X171038520Y-100365560D02*
X171148599Y-100475639D01*
%TO.N,/RX*%
X167914600Y-117648000D02*
X168216000Y-117648000D01*
X163542336Y-113166300D02*
X167132000Y-113106200D01*
X167132000Y-116564000D02*
X168216000Y-117648000D01*
X167132000Y-113106200D02*
X167132000Y-116564000D01*
%TO.N,/SCL*%
X171493073Y-103711599D02*
X168484961Y-103711599D01*
X172000213Y-104218739D02*
X171493073Y-103711599D01*
X174078901Y-104218739D02*
X172000213Y-104218739D01*
X174421800Y-103875840D02*
X174078901Y-104218739D01*
X167914320Y-103140958D02*
X167914320Y-102773480D01*
X168484961Y-103711599D02*
X167914320Y-103140958D01*
X176925000Y-101372640D02*
X174421800Y-103875840D01*
X176925000Y-99922360D02*
X176925000Y-101372640D01*
X175947374Y-103875840D02*
X174421800Y-103875840D01*
X177875341Y-106397953D02*
X177875341Y-105803807D01*
X177875341Y-105803807D02*
X175947374Y-103875840D01*
X176648414Y-107624880D02*
X177875341Y-106397953D01*
X171947840Y-107624880D02*
X176648414Y-107624880D01*
%TO.N,/SDA*%
X177698400Y-98160840D02*
X176778920Y-97241360D01*
X176754379Y-97265901D02*
X172180661Y-97265901D01*
X176778920Y-97241360D02*
X176754379Y-97265901D01*
X169174160Y-100272402D02*
X169174160Y-100512880D01*
X172180661Y-97265901D02*
X169174160Y-100272402D01*
X179785840Y-103850000D02*
X180037500Y-103850000D01*
X177520600Y-101584760D02*
X179785840Y-103850000D01*
%TO.N,/MOSI*%
X151359100Y-106790900D02*
X151380000Y-106770000D01*
X148630640Y-106790900D02*
X151359100Y-106790900D01*
X155411000Y-106770000D02*
X151380000Y-106770000D01*
X159816800Y-111175800D02*
X155411000Y-106770000D01*
X163195000Y-115824000D02*
X159842200Y-113166300D01*
X166243000Y-115824000D02*
X166547800Y-116128800D01*
X163195000Y-115824000D02*
X166243000Y-115824000D01*
X166547800Y-116128800D02*
X166547800Y-116687600D01*
X166547800Y-116687600D02*
X167563800Y-117703600D01*
X167563800Y-120599200D02*
X167632252Y-120667652D01*
X167563800Y-117703600D02*
X167563800Y-120599200D01*
%TO.N,/MISO*%
X155355701Y-104885901D02*
X153847800Y-103378000D01*
X158285073Y-104885901D02*
X155355701Y-104885901D01*
X168609482Y-111518891D02*
X164918063Y-111518891D01*
X169195111Y-112104520D02*
X168609482Y-111518891D01*
X169195111Y-113583089D02*
X169195111Y-112104520D01*
X164918063Y-111518891D02*
X158285073Y-104885901D01*
X168173400Y-114604800D02*
X169195111Y-113583089D01*
%TO.N,/IO34*%
X180171473Y-116564793D02*
X180243480Y-116636800D01*
X180171473Y-106724404D02*
X180171473Y-116564793D01*
%TO.N,/IO35*%
X179724461Y-115448912D02*
X179552573Y-115620800D01*
X180747703Y-105232200D02*
X179552572Y-106427331D01*
X179724461Y-107193366D02*
X179724461Y-115448912D01*
X179552572Y-107021477D02*
X179724461Y-107193366D01*
X179552572Y-106427331D02*
X179552572Y-107021477D01*
X181369910Y-105232200D02*
X180747703Y-105232200D01*
%TO.N,Net-(R1-Pad2)*%
X151510846Y-111800846D02*
X151380000Y-111670000D01*
X153410131Y-111800846D02*
X151510846Y-111800846D01*
%TO.N,/B_MON*%
X166243884Y-110343884D02*
X166250000Y-110350000D01*
X166243884Y-108800819D02*
X166243884Y-110343884D01*
%TO.N,/RTC_INT*%
X179324000Y-105623360D02*
X178981101Y-105966259D01*
X179324000Y-107290722D02*
X179324000Y-114411761D01*
X178981101Y-106947823D02*
X179324000Y-107290722D01*
X178981101Y-105966259D02*
X178981101Y-106947823D01*
X179324000Y-114411761D02*
X179105561Y-114630200D01*
%TO.N,/TFT_DC*%
X149308765Y-108870000D02*
X149144549Y-108705784D01*
X151380000Y-108870000D02*
X149308765Y-108870000D01*
X171433218Y-108483400D02*
X178705100Y-108483400D01*
X169825289Y-110091329D02*
X171433218Y-108483400D01*
%TO.N,/TFT_CS*%
X153099800Y-108170000D02*
X151380000Y-108170000D01*
X157477200Y-112547400D02*
X153099800Y-108170000D01*
X168224200Y-112547400D02*
X157477200Y-112547400D01*
%TO.N,/TFT_RST*%
X151875901Y-117790675D02*
X147401874Y-113316648D01*
X151875901Y-124566573D02*
X151875901Y-117790675D01*
X151532179Y-124910295D02*
X151875901Y-124566573D01*
X151532179Y-126829713D02*
X151532179Y-124910295D01*
X147401874Y-113316648D02*
X147401874Y-107103692D01*
X151882967Y-127180501D02*
X151532179Y-126829713D01*
X167501713Y-127180501D02*
X151882967Y-127180501D01*
X169787981Y-124894233D02*
X167501713Y-127180501D01*
X147401874Y-107103692D02*
X148435566Y-106070000D01*
X169787981Y-123329261D02*
X169787981Y-124894233D01*
X173002332Y-120114910D02*
X169787981Y-123329261D01*
X148435566Y-106070000D02*
X151380000Y-106070000D01*
X178219100Y-120114910D02*
X173002332Y-120114910D01*
X178219100Y-114084099D02*
X178219100Y-120114910D01*
X178561999Y-113741200D02*
X178219100Y-114084099D01*
%TO.N,/GPS_TX*%
X161137600Y-101422200D02*
X161137600Y-101355099D01*
X163398200Y-103682800D02*
X161137600Y-101422200D01*
%TO.N,/MODE_SYNC*%
X171063090Y-117614255D02*
X168630600Y-120046745D01*
X171063090Y-110992090D02*
X171063090Y-117614255D01*
X169206388Y-108500388D02*
X169206388Y-110388402D01*
X170781230Y-110710230D02*
X171063090Y-110992090D01*
X169528216Y-110710230D02*
X170781230Y-110710230D01*
X169206388Y-110388402D02*
X169528216Y-110710230D01*
X168198800Y-107492800D02*
X169206388Y-108500388D01*
X168630600Y-120585278D02*
X165416278Y-123799600D01*
X168630600Y-120046745D02*
X168630600Y-120585278D01*
X159054800Y-123799600D02*
X156489400Y-121234200D01*
X165416278Y-123799600D02*
X159054800Y-123799600D01*
%TO.N,/SCK*%
X153194472Y-107628446D02*
X151719370Y-107628446D01*
X168843101Y-112919099D02*
X168843101Y-112250327D01*
X168463675Y-111870901D02*
X157436927Y-111870901D01*
X168843101Y-112250327D02*
X168463675Y-111870901D01*
X157436927Y-111870901D02*
X153194472Y-107628446D01*
X168173400Y-113588800D02*
X168843101Y-112919099D01*
X148594812Y-107470000D02*
X151380000Y-107470000D01*
X148505708Y-107559104D02*
X148594812Y-107470000D01*
X148020775Y-107559104D02*
X148505708Y-107559104D01*
%TO.N,Net-(R12-Pad2)*%
X154813000Y-120825467D02*
X158800800Y-116837667D01*
X154813000Y-121310400D02*
X154813000Y-120825467D01*
X158800800Y-116837667D02*
X158800800Y-116027200D01*
X159613600Y-115214400D02*
X159867600Y-115214400D01*
X158800800Y-116027200D02*
X159613600Y-115214400D01*
X154127200Y-121310400D02*
X152628600Y-122809000D01*
X154813000Y-121310400D02*
X154127200Y-121310400D01*
%TD*%
D18*
X169169080Y-124597160D03*
X166787500Y-125050000D03*
X166052500Y-94297500D03*
X166052500Y-95250000D03*
X150749000Y-93662500D03*
X173482000Y-96647000D03*
X171767500Y-96583500D03*
X175641000Y-100076000D03*
X177673000Y-103060500D03*
X179070000Y-97853500D03*
X181864000Y-103251000D03*
X173418500Y-103441500D03*
X170434000Y-102235000D03*
X157543500Y-116713000D03*
X161671000Y-111252000D03*
X179832000Y-120713500D03*
X164147500Y-125031500D03*
X149453600Y-111226600D03*
X155829000Y-108940600D03*
X154276943Y-107613059D03*
X161607500Y-109728000D03*
X153009600Y-119024400D03*
X153822400Y-119024400D03*
X154660600Y-119024400D03*
X165633400Y-114579400D03*
X163220400Y-114046000D03*
X171931596Y-119683796D03*
X152151080Y-126532640D03*
X168122600Y-108534200D03*
X166243000Y-107188000D03*
X142367000Y-120396000D03*
X156527500Y-124523500D03*
X161290000Y-124460000D03*
X179832000Y-121666000D03*
X179070000Y-99123500D03*
X166052500Y-90106500D03*
X166052500Y-91313000D03*
X166052500Y-92265500D03*
X166052500Y-93281500D03*
X166052500Y-98234500D03*
X166052500Y-99250500D03*
X153924000Y-90043000D03*
X153924000Y-91249500D03*
X153924000Y-94234000D03*
X153924000Y-95250000D03*
X153924000Y-97282000D03*
X153924000Y-98298000D03*
X150749000Y-99949000D03*
X144272000Y-100076000D03*
X169989500Y-98425000D03*
X173418500Y-100012500D03*
X171767500Y-102235000D03*
X161988500Y-104267000D03*
X157988000Y-104267000D03*
X157289500Y-106807000D03*
X151257000Y-104521000D03*
X149415500Y-109601000D03*
X149415500Y-113093500D03*
X149415500Y-110299500D03*
X149479000Y-105346500D03*
X155003500Y-126428500D03*
X157543500Y-113982500D03*
X154749500Y-116078000D03*
X141033500Y-115633500D03*
X152209500Y-116205000D03*
X181800500Y-106426000D03*
X180721000Y-101600000D03*
X157226000Y-110744000D03*
X163512500Y-115125500D03*
X168275000Y-122809000D03*
X138125200Y-115778280D03*
X164681200Y-110350000D03*
X148920200Y-121462800D03*
X147777200Y-121462800D03*
X147777200Y-120548400D03*
X148920200Y-120523000D03*
X146202400Y-119862600D03*
X158470600Y-119481600D03*
X157251400Y-119456200D03*
X156514800Y-120167400D03*
X157886400Y-119100600D03*
X151257000Y-119697500D03*
X151003000Y-124523500D03*
X143827500Y-122047000D03*
X143827500Y-121221500D03*
X146558000Y-117538500D03*
X143637000Y-118237000D03*
X164693287Y-108785635D03*
X154752040Y-111998760D03*
X152146000Y-97853500D03*
X153924000Y-92265500D03*
X150431500Y-95567500D03*
X152091780Y-96021280D03*
X176240000Y-106100000D03*
X171038520Y-100365560D03*
X171968160Y-103286560D03*
X163542336Y-113166300D03*
X168216000Y-117648000D03*
X176925000Y-99922360D03*
X174421800Y-103875840D03*
X167914320Y-102773480D03*
X170444189Y-111475520D03*
X171947840Y-107624880D03*
X177698400Y-98160840D03*
X169174160Y-100512880D03*
X169489120Y-117002560D03*
X169113200Y-102539800D03*
X177520600Y-101584760D03*
X180037500Y-103850000D03*
X171018200Y-107492800D03*
X149021800Y-114020600D03*
X141249400Y-106045000D03*
X171119800Y-105130600D03*
X148630640Y-106790900D03*
X167632252Y-120667652D03*
X159842200Y-113166300D03*
X159816800Y-111175800D03*
X168173400Y-114604800D03*
X153847800Y-103378000D03*
X180171473Y-106724404D03*
X180243480Y-116636800D03*
X181369910Y-105232200D03*
X179552573Y-115620800D03*
X153410131Y-111800846D03*
X166243884Y-108800819D03*
X166250000Y-110350000D03*
X179324000Y-105623360D03*
X179105561Y-114630200D03*
X149144549Y-108705784D03*
X169825289Y-110091329D03*
X178705100Y-108483400D03*
X168224200Y-112547400D03*
X178561999Y-113741200D03*
X163398200Y-103682800D03*
X161137600Y-101355099D03*
X156489400Y-121234200D03*
X168198800Y-107492800D03*
X168173400Y-113588800D03*
X148020775Y-107559104D03*
X157413434Y-109712806D03*
X160245256Y-124647186D03*
X159687047Y-110170789D03*
X159359600Y-124663200D03*
X154813000Y-121310400D03*
X159867600Y-115214400D03*
X152628600Y-122809000D03*
D19*
X142200000Y-110850000D03*
X142200000Y-102870000D03*
D20*
X162286000Y-126404500D03*
X157714000Y-126404500D03*
D21*
X163048000Y-128627000D03*
X156952000Y-128627000D03*
D22*
X168165707Y-92297476D02*
X168518379Y-91812066D01*
X172275513Y-95283425D02*
X172628185Y-94798015D01*
X147672204Y-94961802D02*
X147336688Y-94464380D01*
X151883715Y-92121102D02*
X151548199Y-91623680D01*
X154133715Y-129128898D02*
X153798199Y-129626320D01*
X149922204Y-126288198D02*
X149586688Y-126785620D01*
X170102991Y-126324683D02*
X170429775Y-126827885D01*
X165842545Y-129091450D02*
X166169329Y-129594652D01*
M02*
