%FSLAX45Y45*%
G04 Gerber Fmt 4.5, Leading zero omitted, Abs format (unit mm)*
G04 Created by KiCad*
%MOMM*%
%LPD*%
G04 APERTURE LIST*
%TA.AperFunction,Profile*%
%ADD10C,0.050000*%
%TD*%
%ADD11C,0.200000*%
%ADD12C,0.300000*%
G04 APERTURE END LIST*
D10*
X15350000Y-13050000D02*
X14450000Y-12450000D01*
X17550000Y-12450000D02*
X16650000Y-13050000D01*
X16650000Y-8950000D02*
X17270000Y-9390000D01*
X15350000Y-8950000D02*
X14690000Y-9390000D01*
X16000000Y-8950000D02*
X15350000Y-8950000D01*
X16000000Y-13050000D02*
X15350000Y-13050000D01*
X16650000Y-13050000D02*
X16000000Y-13050000D01*
X16000000Y-8950000D02*
X16650000Y-8950000D01*
X18250000Y-12450000D02*
X17550000Y-12450000D01*
X18250000Y-9390000D02*
X17270000Y-9390000D01*
X13750000Y-9390000D02*
X14690000Y-9390000D01*
X13750000Y-12450000D02*
X14450000Y-12450000D01*
X13750000Y-11000000D02*
X13750000Y-12450000D01*
X13750000Y-11000000D02*
X13750000Y-9390000D01*
X18250000Y-11000000D02*
X18250000Y-12450000D01*
X18250000Y-11000000D02*
X18250000Y-9390000D01*
D11*
X13796010Y-11561318D02*
X13829030Y-11594338D01*
X13829030Y-11561318D02*
X13796010Y-11594338D01*
X14086840Y-11546840D02*
X14119860Y-11579860D01*
X14119860Y-11546840D02*
X14086840Y-11579860D01*
X14108430Y-10587990D02*
X14141450Y-10621010D01*
X14141450Y-10587990D02*
X14108430Y-10621010D01*
X14220190Y-12023090D02*
X14253210Y-12056110D01*
X14253210Y-12023090D02*
X14220190Y-12056110D01*
X14347190Y-11807190D02*
X14380210Y-11840210D01*
X14380210Y-11807190D02*
X14347190Y-11840210D01*
X14366240Y-12105640D02*
X14399260Y-12138660D01*
X14399260Y-12105640D02*
X14366240Y-12138660D01*
X14366240Y-12188190D02*
X14399260Y-12221210D01*
X14399260Y-12188190D02*
X14366240Y-12221210D01*
X14410690Y-9991090D02*
X14443710Y-10024110D01*
X14443710Y-9991090D02*
X14410690Y-10024110D01*
X14603730Y-11969750D02*
X14636750Y-12002770D01*
X14636750Y-11969750D02*
X14603730Y-12002770D01*
X14639290Y-11737340D02*
X14672310Y-11770360D01*
X14672310Y-11737340D02*
X14639290Y-11770360D01*
X14761210Y-12038330D02*
X14794230Y-12071350D01*
X14794230Y-12038330D02*
X14761210Y-12071350D01*
X14761210Y-12129770D02*
X14794230Y-12162790D01*
X14794230Y-12129770D02*
X14761210Y-12162790D01*
X14785567Y-10739400D02*
X14818587Y-10772420D01*
X14818587Y-10739400D02*
X14785567Y-10772420D01*
X14846554Y-10662580D02*
X14879574Y-10695600D01*
X14879574Y-10662580D02*
X14846554Y-10695600D01*
X14875510Y-12035790D02*
X14908530Y-12068810D01*
X14908530Y-12035790D02*
X14875510Y-12068810D01*
X14875510Y-12129770D02*
X14908530Y-12162790D01*
X14908530Y-12129770D02*
X14875510Y-12162790D01*
X14885670Y-11385550D02*
X14918690Y-11418570D01*
X14918690Y-11385550D02*
X14885670Y-11418570D01*
X14897945Y-10854068D02*
X14930965Y-10887088D01*
X14930965Y-10854068D02*
X14897945Y-10887088D01*
X14925040Y-10943590D02*
X14958060Y-10976610D01*
X14958060Y-10943590D02*
X14925040Y-10976610D01*
X14925040Y-11013440D02*
X14958060Y-11046460D01*
X14958060Y-11013440D02*
X14925040Y-11046460D01*
X14925040Y-11292840D02*
X14958060Y-11325860D01*
X14958060Y-11292840D02*
X14925040Y-11325860D01*
X14928850Y-11106150D02*
X14961870Y-11139170D01*
X14961870Y-11106150D02*
X14928850Y-11139170D01*
X14931390Y-10518140D02*
X14964410Y-10551160D01*
X14964410Y-10518140D02*
X14931390Y-10551160D01*
X15026640Y-9540240D02*
X15059660Y-9573260D01*
X15059660Y-9540240D02*
X15026640Y-9573260D01*
X15058390Y-9349740D02*
X15091410Y-9382760D01*
X15091410Y-9349740D02*
X15058390Y-9382760D01*
X15058390Y-9978390D02*
X15091410Y-10011410D01*
X15091410Y-9978390D02*
X15058390Y-10011410D01*
X15083790Y-12435840D02*
X15116810Y-12468860D01*
X15116810Y-12435840D02*
X15083790Y-12468860D01*
X15109190Y-10435590D02*
X15142210Y-10468610D01*
X15142210Y-10435590D02*
X15109190Y-10468610D01*
X15109190Y-11953240D02*
X15142210Y-11986260D01*
X15142210Y-11953240D02*
X15109190Y-11986260D01*
X15192668Y-9585618D02*
X15225688Y-9618638D01*
X15225688Y-9585618D02*
X15192668Y-9618638D01*
X15198090Y-9768840D02*
X15231110Y-9801860D01*
X15231110Y-9768840D02*
X15198090Y-9801860D01*
X15198598Y-12636754D02*
X15231618Y-12669774D01*
X15231618Y-12636754D02*
X15198598Y-12669774D01*
X15204440Y-11603990D02*
X15237460Y-11637010D01*
X15237460Y-11603990D02*
X15204440Y-11637010D01*
X15246350Y-12264390D02*
X15279370Y-12297410D01*
X15279370Y-12264390D02*
X15246350Y-12297410D01*
X15284450Y-11885930D02*
X15317470Y-11918950D01*
X15317470Y-11885930D02*
X15284450Y-11918950D01*
X15324503Y-11163575D02*
X15357523Y-11196595D01*
X15357523Y-11163575D02*
X15324503Y-11196595D01*
X15365730Y-11885930D02*
X15398750Y-11918950D01*
X15398750Y-11885930D02*
X15365730Y-11918950D01*
X15368270Y-10321290D02*
X15401290Y-10354310D01*
X15401290Y-10321290D02*
X15368270Y-10354310D01*
X15375890Y-8987790D02*
X15408910Y-9020810D01*
X15408910Y-8987790D02*
X15375890Y-9020810D01*
X15375890Y-9108440D02*
X15408910Y-9141460D01*
X15408910Y-9108440D02*
X15375890Y-9141460D01*
X15375890Y-9210040D02*
X15408910Y-9243060D01*
X15408910Y-9210040D02*
X15375890Y-9243060D01*
X15375890Y-9406890D02*
X15408910Y-9439910D01*
X15408910Y-9406890D02*
X15375890Y-9439910D01*
X15375890Y-9508490D02*
X15408910Y-9541510D01*
X15408910Y-9508490D02*
X15375890Y-9541510D01*
X15375890Y-9711690D02*
X15408910Y-9744710D01*
X15408910Y-9711690D02*
X15375890Y-9744710D01*
X15375890Y-9813290D02*
X15408910Y-9846310D01*
X15408910Y-9813290D02*
X15375890Y-9846310D01*
X15411184Y-10744796D02*
X15444204Y-10777816D01*
X15444204Y-10744796D02*
X15411184Y-10777816D01*
X15449550Y-11885930D02*
X15482570Y-11918950D01*
X15482570Y-11885930D02*
X15449550Y-11918950D01*
X15458440Y-11591290D02*
X15491460Y-11624310D01*
X15491460Y-11591290D02*
X15458440Y-11624310D01*
X15458694Y-11183366D02*
X15491714Y-11216386D01*
X15491714Y-11183366D02*
X15458694Y-11216386D01*
X15464790Y-12114530D02*
X15497810Y-12147550D01*
X15497810Y-12114530D02*
X15464790Y-12147550D01*
X15483840Y-12626340D02*
X15516860Y-12659360D01*
X15516860Y-12626340D02*
X15483840Y-12659360D01*
X15566390Y-10877550D02*
X15599410Y-10910570D01*
X15599410Y-10877550D02*
X15566390Y-10910570D01*
X15632430Y-12106910D02*
X15665450Y-12139930D01*
X15665450Y-12106910D02*
X15632430Y-12139930D01*
X15634970Y-12000230D02*
X15667990Y-12033250D01*
X15667990Y-12000230D02*
X15634970Y-12033250D01*
X15636240Y-12435840D02*
X15669260Y-12468860D01*
X15669260Y-12435840D02*
X15636240Y-12468860D01*
X15706090Y-11057890D02*
X15739110Y-11090910D01*
X15739110Y-11057890D02*
X15706090Y-11090910D01*
X15708630Y-11929110D02*
X15741650Y-11962130D01*
X15741650Y-11929110D02*
X15708630Y-11962130D01*
X15712440Y-10664190D02*
X15745460Y-10697210D01*
X15745460Y-10664190D02*
X15712440Y-10697210D01*
X15724833Y-10954771D02*
X15757853Y-10987791D01*
X15757853Y-10954771D02*
X15724833Y-10987791D01*
X15737840Y-11381740D02*
X15770860Y-11414760D01*
X15770860Y-11381740D02*
X15737840Y-11414760D01*
X15737840Y-11654790D02*
X15770860Y-11687810D01*
X15770860Y-11654790D02*
X15737840Y-11687810D01*
X15772130Y-11893550D02*
X15805150Y-11926570D01*
X15805150Y-11893550D02*
X15772130Y-11926570D01*
X15782290Y-10410190D02*
X15815310Y-10443210D01*
X15815310Y-10410190D02*
X15782290Y-10443210D01*
X15830550Y-11931650D02*
X15863570Y-11964670D01*
X15863570Y-11931650D02*
X15830550Y-11964670D01*
X15919450Y-12449810D02*
X15952470Y-12482830D01*
X15952470Y-12449810D02*
X15919450Y-12482830D01*
X15952195Y-11000569D02*
X15985215Y-11033589D01*
X15985215Y-11000569D02*
X15952195Y-11033589D01*
X15965170Y-11101070D02*
X15998190Y-11134090D01*
X15998190Y-11101070D02*
X15965170Y-11134090D01*
X15967710Y-11300120D02*
X16000730Y-11333140D01*
X16000730Y-11300120D02*
X15967710Y-11333140D01*
X15970250Y-11504930D02*
X16003270Y-11537950D01*
X16003270Y-11504930D02*
X15970250Y-11537950D01*
X16008016Y-12448209D02*
X16041036Y-12481229D01*
X16041036Y-12448209D02*
X16008016Y-12481229D01*
X16097250Y-10119000D02*
X16130270Y-10152020D01*
X16130270Y-10119000D02*
X16097250Y-10152020D01*
X16112490Y-12429490D02*
X16145510Y-12462510D01*
X16145510Y-12429490D02*
X16112490Y-12462510D01*
X16144240Y-10956290D02*
X16177260Y-10989310D01*
X16177260Y-10956290D02*
X16144240Y-10989310D01*
X16150590Y-11108690D02*
X16183610Y-11141710D01*
X16183610Y-11108690D02*
X16150590Y-11141710D01*
X16182340Y-10410190D02*
X16215360Y-10443210D01*
X16215360Y-10410190D02*
X16182340Y-10443210D01*
X16305530Y-11388090D02*
X16338550Y-11421110D01*
X16338550Y-11388090D02*
X16305530Y-11421110D01*
X16323310Y-10351770D02*
X16356330Y-10384790D01*
X16356330Y-10351770D02*
X16323310Y-10384790D01*
X16334740Y-11496040D02*
X16367760Y-11529060D01*
X16367760Y-11496040D02*
X16334740Y-11529060D01*
X16337724Y-11300120D02*
X16370744Y-11333140D01*
X16370744Y-11300120D02*
X16337724Y-11333140D01*
X16398240Y-12486640D02*
X16431260Y-12519660D01*
X16431260Y-12486640D02*
X16398240Y-12519660D01*
X16451610Y-11018490D02*
X16484630Y-11051510D01*
X16484630Y-11018490D02*
X16451610Y-11051510D01*
X16452819Y-10862054D02*
X16485839Y-10895074D01*
X16485839Y-10862054D02*
X16452819Y-10895074D01*
X16546830Y-11441430D02*
X16579850Y-11474450D01*
X16579850Y-11441430D02*
X16546830Y-11474450D01*
X16588740Y-8994140D02*
X16621760Y-9027160D01*
X16621760Y-8994140D02*
X16588740Y-9027160D01*
X16588740Y-9114790D02*
X16621760Y-9147810D01*
X16621760Y-9114790D02*
X16588740Y-9147810D01*
X16588740Y-9210040D02*
X16621760Y-9243060D01*
X16621760Y-9210040D02*
X16588740Y-9243060D01*
X16588740Y-9311640D02*
X16621760Y-9344660D01*
X16621760Y-9311640D02*
X16588740Y-9344660D01*
X16588740Y-9413240D02*
X16621760Y-9446260D01*
X16621760Y-9413240D02*
X16588740Y-9446260D01*
X16588740Y-9508490D02*
X16621760Y-9541510D01*
X16621760Y-9508490D02*
X16588740Y-9541510D01*
X16588740Y-9806940D02*
X16621760Y-9839960D01*
X16621760Y-9806940D02*
X16588740Y-9839960D01*
X16588740Y-9908540D02*
X16621760Y-9941560D01*
X16621760Y-9908540D02*
X16588740Y-9941560D01*
X16607790Y-10702290D02*
X16640810Y-10735310D01*
X16640810Y-10702290D02*
X16607790Y-10735310D01*
X16607878Y-10863572D02*
X16640898Y-10896592D01*
X16640898Y-10863572D02*
X16607878Y-10896592D01*
X16608490Y-11018490D02*
X16641510Y-11051510D01*
X16641510Y-11018490D02*
X16608490Y-11051510D01*
X16662240Y-12488490D02*
X16695260Y-12521510D01*
X16695260Y-12488490D02*
X16662240Y-12521510D01*
X16746715Y-12050255D02*
X16779735Y-12083275D01*
X16779735Y-12050255D02*
X16746715Y-12083275D01*
X16774922Y-10260838D02*
X16807942Y-10293858D01*
X16807942Y-10260838D02*
X16774922Y-10293858D01*
X16795750Y-10836910D02*
X16828770Y-10869930D01*
X16828770Y-10836910D02*
X16795750Y-10869930D01*
X16800830Y-11342370D02*
X16833850Y-11375390D01*
X16833850Y-11342370D02*
X16800830Y-11375390D01*
X16800830Y-11443970D02*
X16833850Y-11476990D01*
X16833850Y-11443970D02*
X16800830Y-11476990D01*
X16803370Y-10732770D02*
X16836390Y-10765790D01*
X16836390Y-10732770D02*
X16803370Y-10765790D01*
X16805090Y-11748290D02*
X16838110Y-11781310D01*
X16838110Y-11748290D02*
X16805090Y-11781310D01*
X16805910Y-11238230D02*
X16838930Y-11271250D01*
X16838930Y-11238230D02*
X16805910Y-11271250D01*
X16810990Y-12264390D02*
X16844010Y-12297410D01*
X16844010Y-12264390D02*
X16810990Y-12297410D01*
X16894810Y-10237470D02*
X16927830Y-10270490D01*
X16927830Y-10237470D02*
X16894810Y-10270490D01*
X16900398Y-12443206D02*
X16933418Y-12476226D01*
X16933418Y-12443206D02*
X16900398Y-12476226D01*
X16900906Y-10034778D02*
X16933926Y-10067798D01*
X16933926Y-10034778D02*
X16900906Y-10067798D01*
X16932402Y-11683746D02*
X16965422Y-11716766D01*
X16965422Y-11683746D02*
X16932402Y-11716766D01*
X16966019Y-10992623D02*
X16999039Y-11025643D01*
X16999039Y-10992623D02*
X16966019Y-11025643D01*
X16982440Y-9825990D02*
X17015460Y-9859010D01*
X17015460Y-9825990D02*
X16982440Y-9859010D01*
X17026890Y-10206990D02*
X17059910Y-10240010D01*
X17059910Y-10206990D02*
X17026890Y-10240010D01*
X17027909Y-11131042D02*
X17060929Y-11164062D01*
X17060929Y-11131042D02*
X17027909Y-11164062D01*
X17085310Y-10732770D02*
X17118330Y-10765790D01*
X17118330Y-10732770D02*
X17085310Y-10765790D01*
X17087342Y-10020046D02*
X17120362Y-10053066D01*
X17120362Y-10020046D02*
X17087342Y-10053066D01*
X17095470Y-10496550D02*
X17128490Y-10529570D01*
X17128490Y-10496550D02*
X17095470Y-10529570D01*
X17160240Y-9641840D02*
X17193260Y-9674860D01*
X17193260Y-9641840D02*
X17160240Y-9674860D01*
X17160240Y-10206990D02*
X17193260Y-10240010D01*
X17193260Y-10206990D02*
X17160240Y-10240010D01*
X17176650Y-11951870D02*
X17209670Y-11984890D01*
X17209670Y-11951870D02*
X17176650Y-11984890D01*
X17178274Y-10745978D02*
X17211294Y-10778998D01*
X17211294Y-10745978D02*
X17178274Y-10778998D01*
X17180306Y-10312146D02*
X17213326Y-10345166D01*
X17213326Y-10312146D02*
X17180306Y-10345166D01*
X17325340Y-9984740D02*
X17358360Y-10017760D01*
X17358360Y-9984740D02*
X17325340Y-10017760D01*
X17325340Y-10327640D02*
X17358360Y-10360660D01*
X17358360Y-10327640D02*
X17325340Y-10360660D01*
X17331690Y-9648190D02*
X17364710Y-9681210D01*
X17364710Y-9648190D02*
X17331690Y-9681210D01*
X17425670Y-10371074D02*
X17458690Y-10404094D01*
X17458690Y-10371074D02*
X17425670Y-10404094D01*
X17547590Y-9991090D02*
X17580610Y-10024110D01*
X17580610Y-9991090D02*
X17547590Y-10024110D01*
X17607490Y-10593490D02*
X17640510Y-10626510D01*
X17640510Y-10593490D02*
X17607490Y-10626510D01*
X17675990Y-9975726D02*
X17709010Y-10008746D01*
X17709010Y-9975726D02*
X17675990Y-10008746D01*
X17735550Y-10141966D02*
X17768570Y-10174986D01*
X17768570Y-10141966D02*
X17735550Y-10174986D01*
X17750790Y-10289540D02*
X17783810Y-10322560D01*
X17783810Y-10289540D02*
X17750790Y-10322560D01*
X17753330Y-9799574D02*
X17786350Y-9832594D01*
X17786350Y-9799574D02*
X17753330Y-9832594D01*
X17839690Y-11357610D02*
X17872710Y-11390630D01*
X17872710Y-11357610D02*
X17839690Y-11390630D01*
X17854000Y-10831830D02*
X17887020Y-10864850D01*
X17887020Y-10831830D02*
X17854000Y-10864850D01*
X17890490Y-9768840D02*
X17923510Y-9801860D01*
X17923510Y-9768840D02*
X17890490Y-9801860D01*
X17890490Y-9895840D02*
X17923510Y-9928860D01*
X17923510Y-9895840D02*
X17890490Y-9928860D01*
X17894046Y-11446510D02*
X17927066Y-11479530D01*
X17927066Y-11446510D02*
X17894046Y-11479530D01*
X17915890Y-10545826D02*
X17948910Y-10578846D01*
X17948910Y-10545826D02*
X17915890Y-10578846D01*
X17938747Y-11545570D02*
X17971767Y-11578590D01*
X17971767Y-11545570D02*
X17938747Y-11578590D01*
X17966690Y-12054840D02*
X17999710Y-12087860D01*
X17999710Y-12054840D02*
X17966690Y-12087860D01*
X17966690Y-12150090D02*
X17999710Y-12183110D01*
X17999710Y-12150090D02*
X17966690Y-12183110D01*
X17987240Y-10368490D02*
X18020260Y-10401510D01*
X18020260Y-10368490D02*
X17987240Y-10401510D01*
X18000637Y-10655930D02*
X18033657Y-10688950D01*
X18033657Y-10655930D02*
X18000637Y-10688950D01*
X18007838Y-11647170D02*
X18040858Y-11680190D01*
X18040858Y-11647170D02*
X18007838Y-11680190D01*
X18055590Y-10143490D02*
X18088610Y-10176510D01*
X18088610Y-10143490D02*
X18055590Y-10176510D01*
X18120481Y-10506710D02*
X18153501Y-10539730D01*
X18153501Y-10506710D02*
X18120481Y-10539730D01*
X18163540Y-10626090D02*
X18196560Y-10659110D01*
X18196560Y-10626090D02*
X18163540Y-10659110D01*
X18169890Y-10308590D02*
X18202910Y-10341610D01*
X18202910Y-10308590D02*
X18169890Y-10341610D01*
X16854204Y-9205477D02*
G75*
G03X16854204Y-9205477I-20000J0D01*
G01*
X16824661Y-9235626D02*
X16859928Y-9187084D01*
X16808481Y-9223870D02*
X16843748Y-9175329D01*
X16859928Y-9187085D02*
G75*
G03X16843748Y-9175329I-8090J5878D01*
G01*
X16808481Y-9223870D02*
G75*
G03X16824661Y-9235626I8090J-5878D01*
G01*
X17265185Y-9504072D02*
G75*
G03X17265185Y-9504072I-20000J0D01*
G01*
X17235642Y-9534220D02*
X17270909Y-9485679D01*
X17219461Y-9522465D02*
X17254728Y-9473924D01*
X17270909Y-9485679D02*
G75*
G03X17254728Y-9473924I-8090J5878D01*
G01*
X17219461Y-9522465D02*
G75*
G03X17235642Y-9534220I8090J-5878D01*
G01*
X16620594Y-12934305D02*
G75*
G03X16620594Y-12934305I-20000J0D01*
G01*
X16575868Y-12914591D02*
X16608546Y-12964912D01*
X16592641Y-12903699D02*
X16625320Y-12954019D01*
X16608546Y-12964912D02*
G75*
G03X16625320Y-12954019I8387J5446D01*
G01*
X16592641Y-12903699D02*
G75*
G03X16575868Y-12914591I-8387J-5446D01*
G01*
X17046638Y-12657628D02*
G75*
G03X17046638Y-12657628I-20000J0D01*
G01*
X17001912Y-12637915D02*
X17034591Y-12688235D01*
X17018686Y-12627022D02*
X17051364Y-12677342D01*
X17034591Y-12688235D02*
G75*
G03X17051364Y-12677342I8387J5446D01*
G01*
X17018686Y-12627022D02*
G75*
G03X17001912Y-12637915I-8387J-5446D01*
G01*
X14995445Y-12653691D02*
G75*
G03X14995445Y-12653691I-20000J0D01*
G01*
X14983930Y-12623228D02*
X14950378Y-12672970D01*
X15000511Y-12634412D02*
X14966959Y-12684154D01*
X14950378Y-12672970D02*
G75*
G03X14966959Y-12684154I8290J-5592D01*
G01*
X15000511Y-12634412D02*
G75*
G03X14983930Y-12623228I-8290J5592D01*
G01*
X15416596Y-12937761D02*
G75*
G03X15416596Y-12937761I-20000J0D01*
G01*
X15405081Y-12907298D02*
X15371529Y-12957040D01*
X15421662Y-12918482D02*
X15388110Y-12968224D01*
X15371529Y-12957040D02*
G75*
G03X15388110Y-12968224I8290J-5592D01*
G01*
X15421662Y-12918482D02*
G75*
G03X15405081Y-12907298I-8290J5592D01*
G01*
X14770445Y-9471309D02*
G75*
G03X14770445Y-9471309I-20000J0D01*
G01*
X14775511Y-9490588D02*
X14741959Y-9440846D01*
X14758930Y-9501772D02*
X14725378Y-9452030D01*
X14741959Y-9440846D02*
G75*
G03X14725378Y-9452030I-8290J-5592D01*
G01*
X14758930Y-9501772D02*
G75*
G03X14775511Y-9490588I8290J5592D01*
G01*
X15191596Y-9187239D02*
G75*
G03X15191596Y-9187239I-20000J0D01*
G01*
X15196662Y-9206518D02*
X15163110Y-9156776D01*
X15180081Y-9217702D02*
X15146529Y-9167960D01*
X15163110Y-9156776D02*
G75*
G03X15146529Y-9167960I-8290J-5592D01*
G01*
X15180081Y-9217702D02*
G75*
G03X15196662Y-9206518I8290J5592D01*
G01*
X15695200Y-12825200D02*
X15695200Y-12900200D01*
X15657700Y-12862700D02*
X15732700Y-12862700D01*
X15667700Y-12840200D02*
X15667700Y-12885200D01*
X15722700Y-12840200D02*
X15722700Y-12885200D01*
X15667700Y-12885200D02*
G75*
G03X15722700Y-12885200I27500J0D01*
G01*
X15722700Y-12840200D02*
G75*
G03X15667700Y-12840200I-27500J0D01*
G01*
X16304800Y-12825200D02*
X16304800Y-12900200D01*
X16267300Y-12862700D02*
X16342300Y-12862700D01*
X16277300Y-12840200D02*
X16277300Y-12885200D01*
X16332300Y-12840200D02*
X16332300Y-12885200D01*
X16277300Y-12885200D02*
G75*
G03X16332300Y-12885200I27500J0D01*
G01*
X16332300Y-12840200D02*
G75*
G03X16277300Y-12840200I-27500J0D01*
G01*
D12*
X14033928Y-13518214D02*
X14033928Y-13218214D01*
X14105357Y-13218214D01*
X14148214Y-13232500D01*
X14176786Y-13261071D01*
X14191071Y-13289643D01*
X14205357Y-13346786D01*
X14205357Y-13389643D01*
X14191071Y-13446786D01*
X14176786Y-13475357D01*
X14148214Y-13503929D01*
X14105357Y-13518214D01*
X14033928Y-13518214D01*
X14333928Y-13518214D02*
X14333928Y-13318214D01*
X14333928Y-13375357D02*
X14348214Y-13346786D01*
X14362500Y-13332500D01*
X14391071Y-13318214D01*
X14419643Y-13318214D01*
X14519643Y-13518214D02*
X14519643Y-13318214D01*
X14519643Y-13218214D02*
X14505357Y-13232500D01*
X14519643Y-13246786D01*
X14533928Y-13232500D01*
X14519643Y-13218214D01*
X14519643Y-13246786D01*
X14705357Y-13518214D02*
X14676786Y-13503929D01*
X14662500Y-13475357D01*
X14662500Y-13218214D01*
X14862500Y-13518214D02*
X14833928Y-13503929D01*
X14819643Y-13475357D01*
X14819643Y-13218214D01*
X15205357Y-13518214D02*
X15205357Y-13218214D01*
X15305357Y-13432500D01*
X15405357Y-13218214D01*
X15405357Y-13518214D01*
X15676786Y-13518214D02*
X15676786Y-13361071D01*
X15662500Y-13332500D01*
X15633928Y-13318214D01*
X15576786Y-13318214D01*
X15548214Y-13332500D01*
X15676786Y-13503929D02*
X15648214Y-13518214D01*
X15576786Y-13518214D01*
X15548214Y-13503929D01*
X15533928Y-13475357D01*
X15533928Y-13446786D01*
X15548214Y-13418214D01*
X15576786Y-13403929D01*
X15648214Y-13403929D01*
X15676786Y-13389643D01*
X15819643Y-13318214D02*
X15819643Y-13618214D01*
X15819643Y-13332500D02*
X15848214Y-13318214D01*
X15905357Y-13318214D01*
X15933928Y-13332500D01*
X15948214Y-13346786D01*
X15962500Y-13375357D01*
X15962500Y-13461071D01*
X15948214Y-13489643D01*
X15933928Y-13503929D01*
X15905357Y-13518214D01*
X15848214Y-13518214D01*
X15819643Y-13503929D01*
X16091071Y-13489643D02*
X16105357Y-13503929D01*
X16091071Y-13518214D01*
X16076786Y-13503929D01*
X16091071Y-13489643D01*
X16091071Y-13518214D01*
X16091071Y-13332500D02*
X16105357Y-13346786D01*
X16091071Y-13361071D01*
X16076786Y-13346786D01*
X16091071Y-13332500D01*
X16091071Y-13361071D01*
X13714480Y-13995990D02*
X13747500Y-14029010D01*
X13747500Y-13995990D02*
X13714480Y-14029010D01*
X14091071Y-13848214D02*
X14119643Y-13848214D01*
X14148214Y-13862500D01*
X14162500Y-13876786D01*
X14176786Y-13905357D01*
X14191071Y-13962500D01*
X14191071Y-14033929D01*
X14176786Y-14091071D01*
X14162500Y-14119643D01*
X14148214Y-14133929D01*
X14119643Y-14148214D01*
X14091071Y-14148214D01*
X14062500Y-14133929D01*
X14048214Y-14119643D01*
X14033928Y-14091071D01*
X14019643Y-14033929D01*
X14019643Y-13962500D01*
X14033928Y-13905357D01*
X14048214Y-13876786D01*
X14062500Y-13862500D01*
X14091071Y-13848214D01*
X14319643Y-14119643D02*
X14333928Y-14133929D01*
X14319643Y-14148214D01*
X14305357Y-14133929D01*
X14319643Y-14119643D01*
X14319643Y-14148214D01*
X14433928Y-13848214D02*
X14619643Y-13848214D01*
X14519643Y-13962500D01*
X14562500Y-13962500D01*
X14591071Y-13976786D01*
X14605357Y-13991071D01*
X14619643Y-14019643D01*
X14619643Y-14091071D01*
X14605357Y-14119643D01*
X14591071Y-14133929D01*
X14562500Y-14148214D01*
X14476786Y-14148214D01*
X14448214Y-14133929D01*
X14433928Y-14119643D01*
X14719643Y-13848214D02*
X14905357Y-13848214D01*
X14805357Y-13962500D01*
X14848214Y-13962500D01*
X14876786Y-13976786D01*
X14891071Y-13991071D01*
X14905357Y-14019643D01*
X14905357Y-14091071D01*
X14891071Y-14119643D01*
X14876786Y-14133929D01*
X14848214Y-14148214D01*
X14762500Y-14148214D01*
X14733928Y-14133929D01*
X14719643Y-14119643D01*
X15033928Y-14148214D02*
X15033928Y-13948214D01*
X15033928Y-13976786D02*
X15048214Y-13962500D01*
X15076786Y-13948214D01*
X15119643Y-13948214D01*
X15148214Y-13962500D01*
X15162500Y-13991071D01*
X15162500Y-14148214D01*
X15162500Y-13991071D02*
X15176786Y-13962500D01*
X15205357Y-13948214D01*
X15248214Y-13948214D01*
X15276786Y-13962500D01*
X15291071Y-13991071D01*
X15291071Y-14148214D01*
X15433928Y-14148214D02*
X15433928Y-13948214D01*
X15433928Y-13976786D02*
X15448214Y-13962500D01*
X15476786Y-13948214D01*
X15519643Y-13948214D01*
X15548214Y-13962500D01*
X15562500Y-13991071D01*
X15562500Y-14148214D01*
X15562500Y-13991071D02*
X15576786Y-13962500D01*
X15605357Y-13948214D01*
X15648214Y-13948214D01*
X15676786Y-13962500D01*
X15691071Y-13991071D01*
X15691071Y-14148214D01*
X16276786Y-13833929D02*
X16019643Y-14219643D01*
X16662500Y-13848214D02*
X16691071Y-13848214D01*
X16719643Y-13862500D01*
X16733928Y-13876786D01*
X16748214Y-13905357D01*
X16762500Y-13962500D01*
X16762500Y-14033929D01*
X16748214Y-14091071D01*
X16733928Y-14119643D01*
X16719643Y-14133929D01*
X16691071Y-14148214D01*
X16662500Y-14148214D01*
X16633928Y-14133929D01*
X16619643Y-14119643D01*
X16605357Y-14091071D01*
X16591071Y-14033929D01*
X16591071Y-13962500D01*
X16605357Y-13905357D01*
X16619643Y-13876786D01*
X16633928Y-13862500D01*
X16662500Y-13848214D01*
X16891071Y-14119643D02*
X16905357Y-14133929D01*
X16891071Y-14148214D01*
X16876786Y-14133929D01*
X16891071Y-14119643D01*
X16891071Y-14148214D01*
X17091071Y-13848214D02*
X17119643Y-13848214D01*
X17148214Y-13862500D01*
X17162500Y-13876786D01*
X17176786Y-13905357D01*
X17191071Y-13962500D01*
X17191071Y-14033929D01*
X17176786Y-14091071D01*
X17162500Y-14119643D01*
X17148214Y-14133929D01*
X17119643Y-14148214D01*
X17091071Y-14148214D01*
X17062500Y-14133929D01*
X17048214Y-14119643D01*
X17033928Y-14091071D01*
X17019643Y-14033929D01*
X17019643Y-13962500D01*
X17033928Y-13905357D01*
X17048214Y-13876786D01*
X17062500Y-13862500D01*
X17091071Y-13848214D01*
X17476786Y-14148214D02*
X17305357Y-14148214D01*
X17391071Y-14148214D02*
X17391071Y-13848214D01*
X17362500Y-13891071D01*
X17333928Y-13919643D01*
X17305357Y-13933929D01*
X17576786Y-13848214D02*
X17762500Y-13848214D01*
X17662500Y-13962500D01*
X17705357Y-13962500D01*
X17733928Y-13976786D01*
X17748214Y-13991071D01*
X17762500Y-14019643D01*
X17762500Y-14091071D01*
X17748214Y-14119643D01*
X17733928Y-14133929D01*
X17705357Y-14148214D01*
X17619643Y-14148214D01*
X17591071Y-14133929D01*
X17576786Y-14119643D01*
X17876786Y-13848214D02*
X17876786Y-13905357D01*
X17991071Y-13848214D02*
X17991071Y-13905357D01*
X18433928Y-14262500D02*
X18419643Y-14248214D01*
X18391071Y-14205357D01*
X18376786Y-14176786D01*
X18362500Y-14133929D01*
X18348214Y-14062500D01*
X18348214Y-14005357D01*
X18362500Y-13933929D01*
X18376786Y-13891071D01*
X18391071Y-13862500D01*
X18419643Y-13819643D01*
X18433928Y-13805357D01*
X18705357Y-14148214D02*
X18533928Y-14148214D01*
X18619643Y-14148214D02*
X18619643Y-13848214D01*
X18591071Y-13891071D01*
X18562500Y-13919643D01*
X18533928Y-13933929D01*
X18962500Y-13948214D02*
X18962500Y-14148214D01*
X18891071Y-13833929D02*
X18819643Y-14048214D01*
X19005357Y-14048214D01*
X19248214Y-13848214D02*
X19191071Y-13848214D01*
X19162500Y-13862500D01*
X19148214Y-13876786D01*
X19119643Y-13919643D01*
X19105357Y-13976786D01*
X19105357Y-14091071D01*
X19119643Y-14119643D01*
X19133928Y-14133929D01*
X19162500Y-14148214D01*
X19219643Y-14148214D01*
X19248214Y-14133929D01*
X19262500Y-14119643D01*
X19276786Y-14091071D01*
X19276786Y-14019643D01*
X19262500Y-13991071D01*
X19248214Y-13976786D01*
X19219643Y-13962500D01*
X19162500Y-13962500D01*
X19133928Y-13976786D01*
X19119643Y-13991071D01*
X19105357Y-14019643D01*
X19633928Y-14148214D02*
X19633928Y-13848214D01*
X19762500Y-14148214D02*
X19762500Y-13991071D01*
X19748214Y-13962500D01*
X19719643Y-13948214D01*
X19676786Y-13948214D01*
X19648214Y-13962500D01*
X19633928Y-13976786D01*
X19948214Y-14148214D02*
X19919643Y-14133929D01*
X19905357Y-14119643D01*
X19891071Y-14091071D01*
X19891071Y-14005357D01*
X19905357Y-13976786D01*
X19919643Y-13962500D01*
X19948214Y-13948214D01*
X19991071Y-13948214D01*
X20019643Y-13962500D01*
X20033928Y-13976786D01*
X20048214Y-14005357D01*
X20048214Y-14091071D01*
X20033928Y-14119643D01*
X20019643Y-14133929D01*
X19991071Y-14148214D01*
X19948214Y-14148214D01*
X20219643Y-14148214D02*
X20191071Y-14133929D01*
X20176786Y-14105357D01*
X20176786Y-13848214D01*
X20448214Y-14133929D02*
X20419643Y-14148214D01*
X20362500Y-14148214D01*
X20333928Y-14133929D01*
X20319643Y-14105357D01*
X20319643Y-13991071D01*
X20333928Y-13962500D01*
X20362500Y-13948214D01*
X20419643Y-13948214D01*
X20448214Y-13962500D01*
X20462500Y-13991071D01*
X20462500Y-14019643D01*
X20319643Y-14048214D01*
X20576786Y-14133929D02*
X20605357Y-14148214D01*
X20662500Y-14148214D01*
X20691071Y-14133929D01*
X20705357Y-14105357D01*
X20705357Y-14091071D01*
X20691071Y-14062500D01*
X20662500Y-14048214D01*
X20619643Y-14048214D01*
X20591071Y-14033929D01*
X20576786Y-14005357D01*
X20576786Y-13991071D01*
X20591071Y-13962500D01*
X20619643Y-13948214D01*
X20662500Y-13948214D01*
X20691071Y-13962500D01*
X20805357Y-14262500D02*
X20819643Y-14248214D01*
X20848214Y-14205357D01*
X20862500Y-14176786D01*
X20876786Y-14133929D01*
X20891071Y-14062500D01*
X20891071Y-14005357D01*
X20876786Y-13933929D01*
X20862500Y-13891071D01*
X20848214Y-13862500D01*
X20819643Y-13819643D01*
X20805357Y-13805357D01*
X13747500Y-14408500D02*
G75*
G03X13747500Y-14408500I-20000J0D01*
G01*
X14091071Y-14244214D02*
X14119643Y-14244214D01*
X14148214Y-14258500D01*
X14162500Y-14272786D01*
X14176786Y-14301357D01*
X14191071Y-14358500D01*
X14191071Y-14429929D01*
X14176786Y-14487071D01*
X14162500Y-14515643D01*
X14148214Y-14529929D01*
X14119643Y-14544214D01*
X14091071Y-14544214D01*
X14062500Y-14529929D01*
X14048214Y-14515643D01*
X14033928Y-14487071D01*
X14019643Y-14429929D01*
X14019643Y-14358500D01*
X14033928Y-14301357D01*
X14048214Y-14272786D01*
X14062500Y-14258500D01*
X14091071Y-14244214D01*
X14319643Y-14515643D02*
X14333928Y-14529929D01*
X14319643Y-14544214D01*
X14305357Y-14529929D01*
X14319643Y-14515643D01*
X14319643Y-14544214D01*
X14591071Y-14344214D02*
X14591071Y-14544214D01*
X14519643Y-14229929D02*
X14448214Y-14444214D01*
X14633928Y-14444214D01*
X14805357Y-14244214D02*
X14833928Y-14244214D01*
X14862500Y-14258500D01*
X14876786Y-14272786D01*
X14891071Y-14301357D01*
X14905357Y-14358500D01*
X14905357Y-14429929D01*
X14891071Y-14487071D01*
X14876786Y-14515643D01*
X14862500Y-14529929D01*
X14833928Y-14544214D01*
X14805357Y-14544214D01*
X14776786Y-14529929D01*
X14762500Y-14515643D01*
X14748214Y-14487071D01*
X14733928Y-14429929D01*
X14733928Y-14358500D01*
X14748214Y-14301357D01*
X14762500Y-14272786D01*
X14776786Y-14258500D01*
X14805357Y-14244214D01*
X15033928Y-14544214D02*
X15033928Y-14344214D01*
X15033928Y-14372786D02*
X15048214Y-14358500D01*
X15076786Y-14344214D01*
X15119643Y-14344214D01*
X15148214Y-14358500D01*
X15162500Y-14387071D01*
X15162500Y-14544214D01*
X15162500Y-14387071D02*
X15176786Y-14358500D01*
X15205357Y-14344214D01*
X15248214Y-14344214D01*
X15276786Y-14358500D01*
X15291071Y-14387071D01*
X15291071Y-14544214D01*
X15433928Y-14544214D02*
X15433928Y-14344214D01*
X15433928Y-14372786D02*
X15448214Y-14358500D01*
X15476786Y-14344214D01*
X15519643Y-14344214D01*
X15548214Y-14358500D01*
X15562500Y-14387071D01*
X15562500Y-14544214D01*
X15562500Y-14387071D02*
X15576786Y-14358500D01*
X15605357Y-14344214D01*
X15648214Y-14344214D01*
X15676786Y-14358500D01*
X15691071Y-14387071D01*
X15691071Y-14544214D01*
X16276786Y-14229929D02*
X16019643Y-14615643D01*
X16662500Y-14244214D02*
X16691071Y-14244214D01*
X16719643Y-14258500D01*
X16733928Y-14272786D01*
X16748214Y-14301357D01*
X16762500Y-14358500D01*
X16762500Y-14429929D01*
X16748214Y-14487071D01*
X16733928Y-14515643D01*
X16719643Y-14529929D01*
X16691071Y-14544214D01*
X16662500Y-14544214D01*
X16633928Y-14529929D01*
X16619643Y-14515643D01*
X16605357Y-14487071D01*
X16591071Y-14429929D01*
X16591071Y-14358500D01*
X16605357Y-14301357D01*
X16619643Y-14272786D01*
X16633928Y-14258500D01*
X16662500Y-14244214D01*
X16891071Y-14515643D02*
X16905357Y-14529929D01*
X16891071Y-14544214D01*
X16876786Y-14529929D01*
X16891071Y-14515643D01*
X16891071Y-14544214D01*
X17091071Y-14244214D02*
X17119643Y-14244214D01*
X17148214Y-14258500D01*
X17162500Y-14272786D01*
X17176786Y-14301357D01*
X17191071Y-14358500D01*
X17191071Y-14429929D01*
X17176786Y-14487071D01*
X17162500Y-14515643D01*
X17148214Y-14529929D01*
X17119643Y-14544214D01*
X17091071Y-14544214D01*
X17062500Y-14529929D01*
X17048214Y-14515643D01*
X17033928Y-14487071D01*
X17019643Y-14429929D01*
X17019643Y-14358500D01*
X17033928Y-14301357D01*
X17048214Y-14272786D01*
X17062500Y-14258500D01*
X17091071Y-14244214D01*
X17476786Y-14544214D02*
X17305357Y-14544214D01*
X17391071Y-14544214D02*
X17391071Y-14244214D01*
X17362500Y-14287071D01*
X17333928Y-14315643D01*
X17305357Y-14329929D01*
X17733928Y-14244214D02*
X17676786Y-14244214D01*
X17648214Y-14258500D01*
X17633928Y-14272786D01*
X17605357Y-14315643D01*
X17591071Y-14372786D01*
X17591071Y-14487071D01*
X17605357Y-14515643D01*
X17619643Y-14529929D01*
X17648214Y-14544214D01*
X17705357Y-14544214D01*
X17733928Y-14529929D01*
X17748214Y-14515643D01*
X17762500Y-14487071D01*
X17762500Y-14415643D01*
X17748214Y-14387071D01*
X17733928Y-14372786D01*
X17705357Y-14358500D01*
X17648214Y-14358500D01*
X17619643Y-14372786D01*
X17605357Y-14387071D01*
X17591071Y-14415643D01*
X17876786Y-14244214D02*
X17876786Y-14301357D01*
X17991071Y-14244214D02*
X17991071Y-14301357D01*
X18433928Y-14658500D02*
X18419643Y-14644214D01*
X18391071Y-14601357D01*
X18376786Y-14572786D01*
X18362500Y-14529929D01*
X18348214Y-14458500D01*
X18348214Y-14401357D01*
X18362500Y-14329929D01*
X18376786Y-14287071D01*
X18391071Y-14258500D01*
X18419643Y-14215643D01*
X18433928Y-14201357D01*
X18605357Y-14244214D02*
X18633928Y-14244214D01*
X18662500Y-14258500D01*
X18676786Y-14272786D01*
X18691071Y-14301357D01*
X18705357Y-14358500D01*
X18705357Y-14429929D01*
X18691071Y-14487071D01*
X18676786Y-14515643D01*
X18662500Y-14529929D01*
X18633928Y-14544214D01*
X18605357Y-14544214D01*
X18576786Y-14529929D01*
X18562500Y-14515643D01*
X18548214Y-14487071D01*
X18533928Y-14429929D01*
X18533928Y-14358500D01*
X18548214Y-14301357D01*
X18562500Y-14272786D01*
X18576786Y-14258500D01*
X18605357Y-14244214D01*
X19062500Y-14544214D02*
X19062500Y-14244214D01*
X19191071Y-14544214D02*
X19191071Y-14387071D01*
X19176786Y-14358500D01*
X19148214Y-14344214D01*
X19105357Y-14344214D01*
X19076786Y-14358500D01*
X19062500Y-14372786D01*
X19376786Y-14544214D02*
X19348214Y-14529929D01*
X19333928Y-14515643D01*
X19319643Y-14487071D01*
X19319643Y-14401357D01*
X19333928Y-14372786D01*
X19348214Y-14358500D01*
X19376786Y-14344214D01*
X19419643Y-14344214D01*
X19448214Y-14358500D01*
X19462500Y-14372786D01*
X19476786Y-14401357D01*
X19476786Y-14487071D01*
X19462500Y-14515643D01*
X19448214Y-14529929D01*
X19419643Y-14544214D01*
X19376786Y-14544214D01*
X19648214Y-14544214D02*
X19619643Y-14529929D01*
X19605357Y-14501357D01*
X19605357Y-14244214D01*
X19876786Y-14529929D02*
X19848214Y-14544214D01*
X19791071Y-14544214D01*
X19762500Y-14529929D01*
X19748214Y-14501357D01*
X19748214Y-14387071D01*
X19762500Y-14358500D01*
X19791071Y-14344214D01*
X19848214Y-14344214D01*
X19876786Y-14358500D01*
X19891071Y-14387071D01*
X19891071Y-14415643D01*
X19748214Y-14444214D01*
X20005357Y-14529929D02*
X20033928Y-14544214D01*
X20091071Y-14544214D01*
X20119643Y-14529929D01*
X20133928Y-14501357D01*
X20133928Y-14487071D01*
X20119643Y-14458500D01*
X20091071Y-14444214D01*
X20048214Y-14444214D01*
X20019643Y-14429929D01*
X20005357Y-14401357D01*
X20005357Y-14387071D01*
X20019643Y-14358500D01*
X20048214Y-14344214D01*
X20091071Y-14344214D01*
X20119643Y-14358500D01*
X20491071Y-14429929D02*
X20719643Y-14429929D01*
X20605357Y-14544214D02*
X20605357Y-14315643D01*
X21133928Y-14372786D02*
X21105357Y-14358500D01*
X21091071Y-14344214D01*
X21076786Y-14315643D01*
X21076786Y-14301357D01*
X21091071Y-14272786D01*
X21105357Y-14258500D01*
X21133928Y-14244214D01*
X21191071Y-14244214D01*
X21219643Y-14258500D01*
X21233928Y-14272786D01*
X21248214Y-14301357D01*
X21248214Y-14315643D01*
X21233928Y-14344214D01*
X21219643Y-14358500D01*
X21191071Y-14372786D01*
X21133928Y-14372786D01*
X21105357Y-14387071D01*
X21091071Y-14401357D01*
X21076786Y-14429929D01*
X21076786Y-14487071D01*
X21091071Y-14515643D01*
X21105357Y-14529929D01*
X21133928Y-14544214D01*
X21191071Y-14544214D01*
X21219643Y-14529929D01*
X21233928Y-14515643D01*
X21248214Y-14487071D01*
X21248214Y-14429929D01*
X21233928Y-14401357D01*
X21219643Y-14387071D01*
X21191071Y-14372786D01*
X21591071Y-14529929D02*
X21619643Y-14544214D01*
X21676786Y-14544214D01*
X21705357Y-14529929D01*
X21719643Y-14501357D01*
X21719643Y-14487071D01*
X21705357Y-14458500D01*
X21676786Y-14444214D01*
X21633928Y-14444214D01*
X21605357Y-14429929D01*
X21591071Y-14401357D01*
X21591071Y-14387071D01*
X21605357Y-14358500D01*
X21633928Y-14344214D01*
X21676786Y-14344214D01*
X21705357Y-14358500D01*
X21891071Y-14544214D02*
X21862500Y-14529929D01*
X21848214Y-14501357D01*
X21848214Y-14244214D01*
X22048214Y-14544214D02*
X22019643Y-14529929D01*
X22005357Y-14515643D01*
X21991071Y-14487071D01*
X21991071Y-14401357D01*
X22005357Y-14372786D01*
X22019643Y-14358500D01*
X22048214Y-14344214D01*
X22091071Y-14344214D01*
X22119643Y-14358500D01*
X22133928Y-14372786D01*
X22148214Y-14401357D01*
X22148214Y-14487071D01*
X22133928Y-14515643D01*
X22119643Y-14529929D01*
X22091071Y-14544214D01*
X22048214Y-14544214D01*
X22233928Y-14344214D02*
X22348214Y-14344214D01*
X22276786Y-14244214D02*
X22276786Y-14501357D01*
X22291071Y-14529929D01*
X22319643Y-14544214D01*
X22348214Y-14544214D01*
X22433928Y-14529929D02*
X22462500Y-14544214D01*
X22519643Y-14544214D01*
X22548214Y-14529929D01*
X22562500Y-14501357D01*
X22562500Y-14487071D01*
X22548214Y-14458500D01*
X22519643Y-14444214D01*
X22476786Y-14444214D01*
X22448214Y-14429929D01*
X22433928Y-14401357D01*
X22433928Y-14387071D01*
X22448214Y-14358500D01*
X22476786Y-14344214D01*
X22519643Y-14344214D01*
X22548214Y-14358500D01*
X22662500Y-14658500D02*
X22676786Y-14644214D01*
X22705357Y-14601357D01*
X22719643Y-14572786D01*
X22733928Y-14529929D01*
X22748214Y-14458500D01*
X22748214Y-14401357D01*
X22733928Y-14329929D01*
X22719643Y-14287071D01*
X22705357Y-14258500D01*
X22676786Y-14215643D01*
X22662500Y-14201357D01*
X13710000Y-14767000D02*
X13710000Y-14842000D01*
X13672500Y-14804500D02*
X13747500Y-14804500D01*
X14091071Y-14640214D02*
X14119643Y-14640214D01*
X14148214Y-14654500D01*
X14162500Y-14668786D01*
X14176786Y-14697357D01*
X14191071Y-14754500D01*
X14191071Y-14825929D01*
X14176786Y-14883071D01*
X14162500Y-14911643D01*
X14148214Y-14925929D01*
X14119643Y-14940214D01*
X14091071Y-14940214D01*
X14062500Y-14925929D01*
X14048214Y-14911643D01*
X14033928Y-14883071D01*
X14019643Y-14825929D01*
X14019643Y-14754500D01*
X14033928Y-14697357D01*
X14048214Y-14668786D01*
X14062500Y-14654500D01*
X14091071Y-14640214D01*
X14319643Y-14911643D02*
X14333928Y-14925929D01*
X14319643Y-14940214D01*
X14305357Y-14925929D01*
X14319643Y-14911643D01*
X14319643Y-14940214D01*
X14433928Y-14640214D02*
X14633928Y-14640214D01*
X14505357Y-14940214D01*
X14891071Y-14640214D02*
X14748214Y-14640214D01*
X14733928Y-14783071D01*
X14748214Y-14768786D01*
X14776786Y-14754500D01*
X14848214Y-14754500D01*
X14876786Y-14768786D01*
X14891071Y-14783071D01*
X14905357Y-14811643D01*
X14905357Y-14883071D01*
X14891071Y-14911643D01*
X14876786Y-14925929D01*
X14848214Y-14940214D01*
X14776786Y-14940214D01*
X14748214Y-14925929D01*
X14733928Y-14911643D01*
X15033928Y-14940214D02*
X15033928Y-14740214D01*
X15033928Y-14768786D02*
X15048214Y-14754500D01*
X15076786Y-14740214D01*
X15119643Y-14740214D01*
X15148214Y-14754500D01*
X15162500Y-14783071D01*
X15162500Y-14940214D01*
X15162500Y-14783071D02*
X15176786Y-14754500D01*
X15205357Y-14740214D01*
X15248214Y-14740214D01*
X15276786Y-14754500D01*
X15291071Y-14783071D01*
X15291071Y-14940214D01*
X15433928Y-14940214D02*
X15433928Y-14740214D01*
X15433928Y-14768786D02*
X15448214Y-14754500D01*
X15476786Y-14740214D01*
X15519643Y-14740214D01*
X15548214Y-14754500D01*
X15562500Y-14783071D01*
X15562500Y-14940214D01*
X15562500Y-14783071D02*
X15576786Y-14754500D01*
X15605357Y-14740214D01*
X15648214Y-14740214D01*
X15676786Y-14754500D01*
X15691071Y-14783071D01*
X15691071Y-14940214D01*
X16276786Y-14625929D02*
X16019643Y-15011643D01*
X16662500Y-14640214D02*
X16691071Y-14640214D01*
X16719643Y-14654500D01*
X16733928Y-14668786D01*
X16748214Y-14697357D01*
X16762500Y-14754500D01*
X16762500Y-14825929D01*
X16748214Y-14883071D01*
X16733928Y-14911643D01*
X16719643Y-14925929D01*
X16691071Y-14940214D01*
X16662500Y-14940214D01*
X16633928Y-14925929D01*
X16619643Y-14911643D01*
X16605357Y-14883071D01*
X16591071Y-14825929D01*
X16591071Y-14754500D01*
X16605357Y-14697357D01*
X16619643Y-14668786D01*
X16633928Y-14654500D01*
X16662500Y-14640214D01*
X16891071Y-14911643D02*
X16905357Y-14925929D01*
X16891071Y-14940214D01*
X16876786Y-14925929D01*
X16891071Y-14911643D01*
X16891071Y-14940214D01*
X17091071Y-14640214D02*
X17119643Y-14640214D01*
X17148214Y-14654500D01*
X17162500Y-14668786D01*
X17176786Y-14697357D01*
X17191071Y-14754500D01*
X17191071Y-14825929D01*
X17176786Y-14883071D01*
X17162500Y-14911643D01*
X17148214Y-14925929D01*
X17119643Y-14940214D01*
X17091071Y-14940214D01*
X17062500Y-14925929D01*
X17048214Y-14911643D01*
X17033928Y-14883071D01*
X17019643Y-14825929D01*
X17019643Y-14754500D01*
X17033928Y-14697357D01*
X17048214Y-14668786D01*
X17062500Y-14654500D01*
X17091071Y-14640214D01*
X17291071Y-14640214D02*
X17476786Y-14640214D01*
X17376786Y-14754500D01*
X17419643Y-14754500D01*
X17448214Y-14768786D01*
X17462500Y-14783071D01*
X17476786Y-14811643D01*
X17476786Y-14883071D01*
X17462500Y-14911643D01*
X17448214Y-14925929D01*
X17419643Y-14940214D01*
X17333928Y-14940214D01*
X17305357Y-14925929D01*
X17291071Y-14911643D01*
X17662500Y-14640214D02*
X17691071Y-14640214D01*
X17719643Y-14654500D01*
X17733928Y-14668786D01*
X17748214Y-14697357D01*
X17762500Y-14754500D01*
X17762500Y-14825929D01*
X17748214Y-14883071D01*
X17733928Y-14911643D01*
X17719643Y-14925929D01*
X17691071Y-14940214D01*
X17662500Y-14940214D01*
X17633928Y-14925929D01*
X17619643Y-14911643D01*
X17605357Y-14883071D01*
X17591071Y-14825929D01*
X17591071Y-14754500D01*
X17605357Y-14697357D01*
X17619643Y-14668786D01*
X17633928Y-14654500D01*
X17662500Y-14640214D01*
X17876786Y-14640214D02*
X17876786Y-14697357D01*
X17991071Y-14640214D02*
X17991071Y-14697357D01*
X18433928Y-15054500D02*
X18419643Y-15040214D01*
X18391071Y-14997357D01*
X18376786Y-14968786D01*
X18362500Y-14925929D01*
X18348214Y-14854500D01*
X18348214Y-14797357D01*
X18362500Y-14725929D01*
X18376786Y-14683071D01*
X18391071Y-14654500D01*
X18419643Y-14611643D01*
X18433928Y-14597357D01*
X18605357Y-14640214D02*
X18633928Y-14640214D01*
X18662500Y-14654500D01*
X18676786Y-14668786D01*
X18691071Y-14697357D01*
X18705357Y-14754500D01*
X18705357Y-14825929D01*
X18691071Y-14883071D01*
X18676786Y-14911643D01*
X18662500Y-14925929D01*
X18633928Y-14940214D01*
X18605357Y-14940214D01*
X18576786Y-14925929D01*
X18562500Y-14911643D01*
X18548214Y-14883071D01*
X18533928Y-14825929D01*
X18533928Y-14754500D01*
X18548214Y-14697357D01*
X18562500Y-14668786D01*
X18576786Y-14654500D01*
X18605357Y-14640214D01*
X19062500Y-14940214D02*
X19062500Y-14640214D01*
X19191071Y-14940214D02*
X19191071Y-14783071D01*
X19176786Y-14754500D01*
X19148214Y-14740214D01*
X19105357Y-14740214D01*
X19076786Y-14754500D01*
X19062500Y-14768786D01*
X19376786Y-14940214D02*
X19348214Y-14925929D01*
X19333928Y-14911643D01*
X19319643Y-14883071D01*
X19319643Y-14797357D01*
X19333928Y-14768786D01*
X19348214Y-14754500D01*
X19376786Y-14740214D01*
X19419643Y-14740214D01*
X19448214Y-14754500D01*
X19462500Y-14768786D01*
X19476786Y-14797357D01*
X19476786Y-14883071D01*
X19462500Y-14911643D01*
X19448214Y-14925929D01*
X19419643Y-14940214D01*
X19376786Y-14940214D01*
X19648214Y-14940214D02*
X19619643Y-14925929D01*
X19605357Y-14897357D01*
X19605357Y-14640214D01*
X19876786Y-14925929D02*
X19848214Y-14940214D01*
X19791071Y-14940214D01*
X19762500Y-14925929D01*
X19748214Y-14897357D01*
X19748214Y-14783071D01*
X19762500Y-14754500D01*
X19791071Y-14740214D01*
X19848214Y-14740214D01*
X19876786Y-14754500D01*
X19891071Y-14783071D01*
X19891071Y-14811643D01*
X19748214Y-14840214D01*
X20005357Y-14925929D02*
X20033928Y-14940214D01*
X20091071Y-14940214D01*
X20119643Y-14925929D01*
X20133928Y-14897357D01*
X20133928Y-14883071D01*
X20119643Y-14854500D01*
X20091071Y-14840214D01*
X20048214Y-14840214D01*
X20019643Y-14825929D01*
X20005357Y-14797357D01*
X20005357Y-14783071D01*
X20019643Y-14754500D01*
X20048214Y-14740214D01*
X20091071Y-14740214D01*
X20119643Y-14754500D01*
X20491071Y-14825929D02*
X20719643Y-14825929D01*
X20605357Y-14940214D02*
X20605357Y-14711643D01*
X21076786Y-14668786D02*
X21091071Y-14654500D01*
X21119643Y-14640214D01*
X21191071Y-14640214D01*
X21219643Y-14654500D01*
X21233928Y-14668786D01*
X21248214Y-14697357D01*
X21248214Y-14725929D01*
X21233928Y-14768786D01*
X21062500Y-14940214D01*
X21248214Y-14940214D01*
X21591071Y-14925929D02*
X21619643Y-14940214D01*
X21676786Y-14940214D01*
X21705357Y-14925929D01*
X21719643Y-14897357D01*
X21719643Y-14883071D01*
X21705357Y-14854500D01*
X21676786Y-14840214D01*
X21633928Y-14840214D01*
X21605357Y-14825929D01*
X21591071Y-14797357D01*
X21591071Y-14783071D01*
X21605357Y-14754500D01*
X21633928Y-14740214D01*
X21676786Y-14740214D01*
X21705357Y-14754500D01*
X21891071Y-14940214D02*
X21862500Y-14925929D01*
X21848214Y-14897357D01*
X21848214Y-14640214D01*
X22048214Y-14940214D02*
X22019643Y-14925929D01*
X22005357Y-14911643D01*
X21991071Y-14883071D01*
X21991071Y-14797357D01*
X22005357Y-14768786D01*
X22019643Y-14754500D01*
X22048214Y-14740214D01*
X22091071Y-14740214D01*
X22119643Y-14754500D01*
X22133928Y-14768786D01*
X22148214Y-14797357D01*
X22148214Y-14883071D01*
X22133928Y-14911643D01*
X22119643Y-14925929D01*
X22091071Y-14940214D01*
X22048214Y-14940214D01*
X22233928Y-14740214D02*
X22348214Y-14740214D01*
X22276786Y-14640214D02*
X22276786Y-14897357D01*
X22291071Y-14925929D01*
X22319643Y-14940214D01*
X22348214Y-14940214D01*
X22433928Y-14925929D02*
X22462500Y-14940214D01*
X22519643Y-14940214D01*
X22548214Y-14925929D01*
X22562500Y-14897357D01*
X22562500Y-14883071D01*
X22548214Y-14854500D01*
X22519643Y-14840214D01*
X22476786Y-14840214D01*
X22448214Y-14825929D01*
X22433928Y-14797357D01*
X22433928Y-14783071D01*
X22448214Y-14754500D01*
X22476786Y-14740214D01*
X22519643Y-14740214D01*
X22548214Y-14754500D01*
X22662500Y-15054500D02*
X22676786Y-15040214D01*
X22705357Y-14997357D01*
X22719643Y-14968786D01*
X22733928Y-14925929D01*
X22748214Y-14854500D01*
X22748214Y-14797357D01*
X22733928Y-14725929D01*
X22719643Y-14683071D01*
X22705357Y-14654500D01*
X22676786Y-14611643D01*
X22662500Y-14597357D01*
M02*
