%FSLAX45Y45*%
G04 Gerber Fmt 4.5, Leading zero omitted, Abs format (unit mm)*
G04 Created by KiCad*
%MOMM*%
%LPD*%
G04 APERTURE LIST*
%TA.AperFunction,Profile*%
%ADD10C,0.050000*%
%TD*%
%ADD11C,0.200000*%
%ADD12C,0.300000*%
G04 APERTURE END LIST*
D10*
X9426260Y-10160000D02*
G75*
G02X7620000Y-11966260I-1806260J0D01*
G01*
X7620000Y-11966260D02*
G75*
G02X5813740Y-10160000I0J1806260D01*
G01*
X5813740Y-10160000D02*
G75*
G02X7620000Y-8353740I1806260J0D01*
G01*
X7620000Y-8353740D02*
G75*
G02X9426260Y-10160000I0J-1806260D01*
G01*
D11*
X8401617Y-11581377D02*
X8456617Y-11636377D01*
X8456617Y-11581377D02*
X8401617Y-11636377D01*
X6628942Y-8783918D02*
X6683942Y-8838918D01*
X6683942Y-8783918D02*
X6628942Y-8838918D01*
X6783383Y-8683623D02*
X6838383Y-8738623D01*
X6838383Y-8683623D02*
X6783383Y-8738623D01*
X8406942Y-8687082D02*
X8461942Y-8742082D01*
X8461942Y-8687082D02*
X8406942Y-8742082D01*
X8561383Y-8787377D02*
X8616383Y-8842377D01*
X8616383Y-8787377D02*
X8561383Y-8842377D01*
X6623617Y-11477623D02*
X6678617Y-11532623D01*
X6678617Y-11477623D02*
X6623617Y-11532623D01*
X6778058Y-11577918D02*
X6833058Y-11632918D01*
X6833058Y-11577918D02*
X6778058Y-11632918D01*
X8556058Y-11481082D02*
X8611058Y-11536082D01*
X8611058Y-11481082D02*
X8556058Y-11536082D01*
X7441400Y-11557000D02*
G75*
G03X7441400Y-11557000I-50000J0D01*
G01*
X7351400Y-11557000D02*
X7351400Y-11557000D01*
X7431400Y-11557000D02*
X7431400Y-11557000D01*
X7351400Y-11557000D02*
G75*
G03X7431400Y-11557000I40000J0D01*
G01*
X7431400Y-11557000D02*
G75*
G03X7351400Y-11557000I-40000J0D01*
G01*
X7898600Y-11557000D02*
G75*
G03X7898600Y-11557000I-50000J0D01*
G01*
X7808600Y-11557000D02*
X7808600Y-11557000D01*
X7888600Y-11557000D02*
X7888600Y-11557000D01*
X7808600Y-11557000D02*
G75*
G03X7888600Y-11557000I40000J0D01*
G01*
X7888600Y-11557000D02*
G75*
G03X7808600Y-11557000I-40000J0D01*
G01*
D12*
X6097669Y-12434474D02*
X6097669Y-12134474D01*
X6169097Y-12134474D01*
X6211954Y-12148760D01*
X6240526Y-12177331D01*
X6254812Y-12205903D01*
X6269097Y-12263045D01*
X6269097Y-12305903D01*
X6254812Y-12363045D01*
X6240526Y-12391617D01*
X6211954Y-12420188D01*
X6169097Y-12434474D01*
X6097669Y-12434474D01*
X6397669Y-12434474D02*
X6397669Y-12234474D01*
X6397669Y-12291617D02*
X6411954Y-12263045D01*
X6426240Y-12248760D01*
X6454812Y-12234474D01*
X6483383Y-12234474D01*
X6583383Y-12434474D02*
X6583383Y-12234474D01*
X6583383Y-12134474D02*
X6569097Y-12148760D01*
X6583383Y-12163045D01*
X6597669Y-12148760D01*
X6583383Y-12134474D01*
X6583383Y-12163045D01*
X6769097Y-12434474D02*
X6740526Y-12420188D01*
X6726240Y-12391617D01*
X6726240Y-12134474D01*
X6926240Y-12434474D02*
X6897669Y-12420188D01*
X6883383Y-12391617D01*
X6883383Y-12134474D01*
X7269097Y-12434474D02*
X7269097Y-12134474D01*
X7369097Y-12348760D01*
X7469097Y-12134474D01*
X7469097Y-12434474D01*
X7740526Y-12434474D02*
X7740526Y-12277331D01*
X7726240Y-12248760D01*
X7697669Y-12234474D01*
X7640526Y-12234474D01*
X7611954Y-12248760D01*
X7740526Y-12420188D02*
X7711954Y-12434474D01*
X7640526Y-12434474D01*
X7611954Y-12420188D01*
X7597669Y-12391617D01*
X7597669Y-12363045D01*
X7611954Y-12334474D01*
X7640526Y-12320188D01*
X7711954Y-12320188D01*
X7740526Y-12305903D01*
X7883383Y-12234474D02*
X7883383Y-12534474D01*
X7883383Y-12248760D02*
X7911954Y-12234474D01*
X7969097Y-12234474D01*
X7997669Y-12248760D01*
X8011954Y-12263045D01*
X8026240Y-12291617D01*
X8026240Y-12377331D01*
X8011954Y-12405903D01*
X7997669Y-12420188D01*
X7969097Y-12434474D01*
X7911954Y-12434474D01*
X7883383Y-12420188D01*
X8154812Y-12405903D02*
X8169097Y-12420188D01*
X8154812Y-12434474D01*
X8140526Y-12420188D01*
X8154812Y-12405903D01*
X8154812Y-12434474D01*
X8154812Y-12248760D02*
X8169097Y-12263045D01*
X8154812Y-12277331D01*
X8140526Y-12263045D01*
X8154812Y-12248760D01*
X8154812Y-12277331D01*
X5756240Y-12901260D02*
X5811240Y-12956260D01*
X5811240Y-12901260D02*
X5756240Y-12956260D01*
X6154812Y-12764474D02*
X6183383Y-12764474D01*
X6211954Y-12778760D01*
X6226240Y-12793045D01*
X6240526Y-12821617D01*
X6254812Y-12878760D01*
X6254812Y-12950188D01*
X6240526Y-13007331D01*
X6226240Y-13035903D01*
X6211954Y-13050188D01*
X6183383Y-13064474D01*
X6154812Y-13064474D01*
X6126240Y-13050188D01*
X6111954Y-13035903D01*
X6097669Y-13007331D01*
X6083383Y-12950188D01*
X6083383Y-12878760D01*
X6097669Y-12821617D01*
X6111954Y-12793045D01*
X6126240Y-12778760D01*
X6154812Y-12764474D01*
X6383383Y-13035903D02*
X6397669Y-13050188D01*
X6383383Y-13064474D01*
X6369097Y-13050188D01*
X6383383Y-13035903D01*
X6383383Y-13064474D01*
X6669097Y-12764474D02*
X6526240Y-12764474D01*
X6511954Y-12907331D01*
X6526240Y-12893045D01*
X6554812Y-12878760D01*
X6626240Y-12878760D01*
X6654812Y-12893045D01*
X6669097Y-12907331D01*
X6683383Y-12935903D01*
X6683383Y-13007331D01*
X6669097Y-13035903D01*
X6654812Y-13050188D01*
X6626240Y-13064474D01*
X6554812Y-13064474D01*
X6526240Y-13050188D01*
X6511954Y-13035903D01*
X6954812Y-12764474D02*
X6811954Y-12764474D01*
X6797669Y-12907331D01*
X6811954Y-12893045D01*
X6840526Y-12878760D01*
X6911954Y-12878760D01*
X6940526Y-12893045D01*
X6954812Y-12907331D01*
X6969097Y-12935903D01*
X6969097Y-13007331D01*
X6954812Y-13035903D01*
X6940526Y-13050188D01*
X6911954Y-13064474D01*
X6840526Y-13064474D01*
X6811954Y-13050188D01*
X6797669Y-13035903D01*
X7097669Y-13064474D02*
X7097669Y-12864474D01*
X7097669Y-12893045D02*
X7111954Y-12878760D01*
X7140526Y-12864474D01*
X7183383Y-12864474D01*
X7211954Y-12878760D01*
X7226240Y-12907331D01*
X7226240Y-13064474D01*
X7226240Y-12907331D02*
X7240526Y-12878760D01*
X7269097Y-12864474D01*
X7311954Y-12864474D01*
X7340526Y-12878760D01*
X7354812Y-12907331D01*
X7354812Y-13064474D01*
X7497669Y-13064474D02*
X7497669Y-12864474D01*
X7497669Y-12893045D02*
X7511954Y-12878760D01*
X7540526Y-12864474D01*
X7583383Y-12864474D01*
X7611954Y-12878760D01*
X7626240Y-12907331D01*
X7626240Y-13064474D01*
X7626240Y-12907331D02*
X7640526Y-12878760D01*
X7669097Y-12864474D01*
X7711954Y-12864474D01*
X7740526Y-12878760D01*
X7754812Y-12907331D01*
X7754812Y-13064474D01*
X8340526Y-12750188D02*
X8083383Y-13135903D01*
X8726240Y-12764474D02*
X8754812Y-12764474D01*
X8783383Y-12778760D01*
X8797669Y-12793045D01*
X8811954Y-12821617D01*
X8826240Y-12878760D01*
X8826240Y-12950188D01*
X8811954Y-13007331D01*
X8797669Y-13035903D01*
X8783383Y-13050188D01*
X8754812Y-13064474D01*
X8726240Y-13064474D01*
X8697669Y-13050188D01*
X8683383Y-13035903D01*
X8669097Y-13007331D01*
X8654812Y-12950188D01*
X8654812Y-12878760D01*
X8669097Y-12821617D01*
X8683383Y-12793045D01*
X8697669Y-12778760D01*
X8726240Y-12764474D01*
X8954812Y-13035903D02*
X8969097Y-13050188D01*
X8954812Y-13064474D01*
X8940526Y-13050188D01*
X8954812Y-13035903D01*
X8954812Y-13064474D01*
X9154812Y-12764474D02*
X9183383Y-12764474D01*
X9211954Y-12778760D01*
X9226240Y-12793045D01*
X9240526Y-12821617D01*
X9254812Y-12878760D01*
X9254812Y-12950188D01*
X9240526Y-13007331D01*
X9226240Y-13035903D01*
X9211954Y-13050188D01*
X9183383Y-13064474D01*
X9154812Y-13064474D01*
X9126240Y-13050188D01*
X9111954Y-13035903D01*
X9097669Y-13007331D01*
X9083383Y-12950188D01*
X9083383Y-12878760D01*
X9097669Y-12821617D01*
X9111954Y-12793045D01*
X9126240Y-12778760D01*
X9154812Y-12764474D01*
X9369097Y-12793045D02*
X9383383Y-12778760D01*
X9411954Y-12764474D01*
X9483383Y-12764474D01*
X9511954Y-12778760D01*
X9526240Y-12793045D01*
X9540526Y-12821617D01*
X9540526Y-12850188D01*
X9526240Y-12893045D01*
X9354812Y-13064474D01*
X9540526Y-13064474D01*
X9654812Y-12793045D02*
X9669097Y-12778760D01*
X9697669Y-12764474D01*
X9769097Y-12764474D01*
X9797669Y-12778760D01*
X9811954Y-12793045D01*
X9826240Y-12821617D01*
X9826240Y-12850188D01*
X9811954Y-12893045D01*
X9640526Y-13064474D01*
X9826240Y-13064474D01*
X9940526Y-12764474D02*
X9940526Y-12821617D01*
X10054812Y-12764474D02*
X10054812Y-12821617D01*
X10497669Y-13178760D02*
X10483383Y-13164474D01*
X10454812Y-13121617D01*
X10440526Y-13093045D01*
X10426240Y-13050188D01*
X10411954Y-12978760D01*
X10411954Y-12921617D01*
X10426240Y-12850188D01*
X10440526Y-12807331D01*
X10454812Y-12778760D01*
X10483383Y-12735903D01*
X10497669Y-12721617D01*
X10654812Y-12893045D02*
X10626240Y-12878760D01*
X10611954Y-12864474D01*
X10597669Y-12835903D01*
X10597669Y-12821617D01*
X10611954Y-12793045D01*
X10626240Y-12778760D01*
X10654812Y-12764474D01*
X10711954Y-12764474D01*
X10740526Y-12778760D01*
X10754812Y-12793045D01*
X10769097Y-12821617D01*
X10769097Y-12835903D01*
X10754812Y-12864474D01*
X10740526Y-12878760D01*
X10711954Y-12893045D01*
X10654812Y-12893045D01*
X10626240Y-12907331D01*
X10611954Y-12921617D01*
X10597669Y-12950188D01*
X10597669Y-13007331D01*
X10611954Y-13035903D01*
X10626240Y-13050188D01*
X10654812Y-13064474D01*
X10711954Y-13064474D01*
X10740526Y-13050188D01*
X10754812Y-13035903D01*
X10769097Y-13007331D01*
X10769097Y-12950188D01*
X10754812Y-12921617D01*
X10740526Y-12907331D01*
X10711954Y-12893045D01*
X11126240Y-13064474D02*
X11126240Y-12764474D01*
X11254812Y-13064474D02*
X11254812Y-12907331D01*
X11240526Y-12878760D01*
X11211954Y-12864474D01*
X11169097Y-12864474D01*
X11140526Y-12878760D01*
X11126240Y-12893045D01*
X11440526Y-13064474D02*
X11411954Y-13050188D01*
X11397669Y-13035903D01*
X11383383Y-13007331D01*
X11383383Y-12921617D01*
X11397669Y-12893045D01*
X11411954Y-12878760D01*
X11440526Y-12864474D01*
X11483383Y-12864474D01*
X11511954Y-12878760D01*
X11526240Y-12893045D01*
X11540526Y-12921617D01*
X11540526Y-13007331D01*
X11526240Y-13035903D01*
X11511954Y-13050188D01*
X11483383Y-13064474D01*
X11440526Y-13064474D01*
X11711954Y-13064474D02*
X11683383Y-13050188D01*
X11669097Y-13021617D01*
X11669097Y-12764474D01*
X11940526Y-13050188D02*
X11911954Y-13064474D01*
X11854812Y-13064474D01*
X11826240Y-13050188D01*
X11811954Y-13021617D01*
X11811954Y-12907331D01*
X11826240Y-12878760D01*
X11854812Y-12864474D01*
X11911954Y-12864474D01*
X11940526Y-12878760D01*
X11954812Y-12907331D01*
X11954812Y-12935903D01*
X11811954Y-12964474D01*
X12069097Y-13050188D02*
X12097669Y-13064474D01*
X12154812Y-13064474D01*
X12183383Y-13050188D01*
X12197669Y-13021617D01*
X12197669Y-13007331D01*
X12183383Y-12978760D01*
X12154812Y-12964474D01*
X12111954Y-12964474D01*
X12083383Y-12950188D01*
X12069097Y-12921617D01*
X12069097Y-12907331D01*
X12083383Y-12878760D01*
X12111954Y-12864474D01*
X12154812Y-12864474D01*
X12183383Y-12878760D01*
X12297669Y-13178760D02*
X12311954Y-13164474D01*
X12340526Y-13121617D01*
X12354812Y-13093045D01*
X12369097Y-13050188D01*
X12383383Y-12978760D01*
X12383383Y-12921617D01*
X12369097Y-12850188D01*
X12354812Y-12807331D01*
X12340526Y-12778760D01*
X12311954Y-12735903D01*
X12297669Y-12721617D01*
X12840526Y-13178760D02*
X12826240Y-13164474D01*
X12797669Y-13121617D01*
X12783383Y-13093045D01*
X12769097Y-13050188D01*
X12754812Y-12978760D01*
X12754812Y-12921617D01*
X12769097Y-12850188D01*
X12783383Y-12807331D01*
X12797669Y-12778760D01*
X12826240Y-12735903D01*
X12840526Y-12721617D01*
X12954812Y-12864474D02*
X12954812Y-13064474D01*
X12954812Y-12893045D02*
X12969097Y-12878760D01*
X12997669Y-12864474D01*
X13040526Y-12864474D01*
X13069097Y-12878760D01*
X13083383Y-12907331D01*
X13083383Y-13064474D01*
X13269097Y-13064474D02*
X13240526Y-13050188D01*
X13226240Y-13035903D01*
X13211954Y-13007331D01*
X13211954Y-12921617D01*
X13226240Y-12893045D01*
X13240526Y-12878760D01*
X13269097Y-12864474D01*
X13311954Y-12864474D01*
X13340526Y-12878760D01*
X13354812Y-12893045D01*
X13369097Y-12921617D01*
X13369097Y-13007331D01*
X13354812Y-13035903D01*
X13340526Y-13050188D01*
X13311954Y-13064474D01*
X13269097Y-13064474D01*
X13454812Y-12864474D02*
X13569097Y-12864474D01*
X13497669Y-12764474D02*
X13497669Y-13021617D01*
X13511954Y-13050188D01*
X13540526Y-13064474D01*
X13569097Y-13064474D01*
X13897669Y-12864474D02*
X13897669Y-13164474D01*
X13897669Y-12878760D02*
X13926240Y-12864474D01*
X13983383Y-12864474D01*
X14011954Y-12878760D01*
X14026240Y-12893045D01*
X14040526Y-12921617D01*
X14040526Y-13007331D01*
X14026240Y-13035903D01*
X14011954Y-13050188D01*
X13983383Y-13064474D01*
X13926240Y-13064474D01*
X13897669Y-13050188D01*
X14211954Y-13064474D02*
X14183383Y-13050188D01*
X14169097Y-13021617D01*
X14169097Y-12764474D01*
X14454812Y-13064474D02*
X14454812Y-12907331D01*
X14440526Y-12878760D01*
X14411954Y-12864474D01*
X14354812Y-12864474D01*
X14326240Y-12878760D01*
X14454812Y-13050188D02*
X14426240Y-13064474D01*
X14354812Y-13064474D01*
X14326240Y-13050188D01*
X14311954Y-13021617D01*
X14311954Y-12993045D01*
X14326240Y-12964474D01*
X14354812Y-12950188D01*
X14426240Y-12950188D01*
X14454812Y-12935903D01*
X14554812Y-12864474D02*
X14669097Y-12864474D01*
X14597669Y-12764474D02*
X14597669Y-13021617D01*
X14611954Y-13050188D01*
X14640526Y-13064474D01*
X14669097Y-13064474D01*
X14883383Y-13050188D02*
X14854812Y-13064474D01*
X14797669Y-13064474D01*
X14769097Y-13050188D01*
X14754812Y-13021617D01*
X14754812Y-12907331D01*
X14769097Y-12878760D01*
X14797669Y-12864474D01*
X14854812Y-12864474D01*
X14883383Y-12878760D01*
X14897669Y-12907331D01*
X14897669Y-12935903D01*
X14754812Y-12964474D01*
X15154812Y-13064474D02*
X15154812Y-12764474D01*
X15154812Y-13050188D02*
X15126240Y-13064474D01*
X15069097Y-13064474D01*
X15040526Y-13050188D01*
X15026240Y-13035903D01*
X15011954Y-13007331D01*
X15011954Y-12921617D01*
X15026240Y-12893045D01*
X15040526Y-12878760D01*
X15069097Y-12864474D01*
X15126240Y-12864474D01*
X15154812Y-12878760D01*
X15269097Y-13178760D02*
X15283383Y-13164474D01*
X15311954Y-13121617D01*
X15326240Y-13093045D01*
X15340526Y-13050188D01*
X15354812Y-12978760D01*
X15354812Y-12921617D01*
X15340526Y-12850188D01*
X15326240Y-12807331D01*
X15311954Y-12778760D01*
X15283383Y-12735903D01*
X15269097Y-12721617D01*
X5811240Y-13324760D02*
G75*
G03X5811240Y-13324760I-50000J0D01*
G01*
X6254812Y-13460474D02*
X6083383Y-13460474D01*
X6169097Y-13460474D02*
X6169097Y-13160474D01*
X6140526Y-13203331D01*
X6111954Y-13231903D01*
X6083383Y-13246188D01*
X6383383Y-13431903D02*
X6397669Y-13446188D01*
X6383383Y-13460474D01*
X6369097Y-13446188D01*
X6383383Y-13431903D01*
X6383383Y-13460474D01*
X6583383Y-13160474D02*
X6611954Y-13160474D01*
X6640526Y-13174760D01*
X6654812Y-13189045D01*
X6669097Y-13217617D01*
X6683383Y-13274760D01*
X6683383Y-13346188D01*
X6669097Y-13403331D01*
X6654812Y-13431903D01*
X6640526Y-13446188D01*
X6611954Y-13460474D01*
X6583383Y-13460474D01*
X6554812Y-13446188D01*
X6540526Y-13431903D01*
X6526240Y-13403331D01*
X6511954Y-13346188D01*
X6511954Y-13274760D01*
X6526240Y-13217617D01*
X6540526Y-13189045D01*
X6554812Y-13174760D01*
X6583383Y-13160474D01*
X6869097Y-13160474D02*
X6897669Y-13160474D01*
X6926240Y-13174760D01*
X6940526Y-13189045D01*
X6954812Y-13217617D01*
X6969097Y-13274760D01*
X6969097Y-13346188D01*
X6954812Y-13403331D01*
X6940526Y-13431903D01*
X6926240Y-13446188D01*
X6897669Y-13460474D01*
X6869097Y-13460474D01*
X6840526Y-13446188D01*
X6826240Y-13431903D01*
X6811954Y-13403331D01*
X6797669Y-13346188D01*
X6797669Y-13274760D01*
X6811954Y-13217617D01*
X6826240Y-13189045D01*
X6840526Y-13174760D01*
X6869097Y-13160474D01*
X7097669Y-13460474D02*
X7097669Y-13260474D01*
X7097669Y-13289045D02*
X7111954Y-13274760D01*
X7140526Y-13260474D01*
X7183383Y-13260474D01*
X7211954Y-13274760D01*
X7226240Y-13303331D01*
X7226240Y-13460474D01*
X7226240Y-13303331D02*
X7240526Y-13274760D01*
X7269097Y-13260474D01*
X7311954Y-13260474D01*
X7340526Y-13274760D01*
X7354812Y-13303331D01*
X7354812Y-13460474D01*
X7497669Y-13460474D02*
X7497669Y-13260474D01*
X7497669Y-13289045D02*
X7511954Y-13274760D01*
X7540526Y-13260474D01*
X7583383Y-13260474D01*
X7611954Y-13274760D01*
X7626240Y-13303331D01*
X7626240Y-13460474D01*
X7626240Y-13303331D02*
X7640526Y-13274760D01*
X7669097Y-13260474D01*
X7711954Y-13260474D01*
X7740526Y-13274760D01*
X7754812Y-13303331D01*
X7754812Y-13460474D01*
X8340526Y-13146188D02*
X8083383Y-13531903D01*
X8726240Y-13160474D02*
X8754812Y-13160474D01*
X8783383Y-13174760D01*
X8797669Y-13189045D01*
X8811954Y-13217617D01*
X8826240Y-13274760D01*
X8826240Y-13346188D01*
X8811954Y-13403331D01*
X8797669Y-13431903D01*
X8783383Y-13446188D01*
X8754812Y-13460474D01*
X8726240Y-13460474D01*
X8697669Y-13446188D01*
X8683383Y-13431903D01*
X8669097Y-13403331D01*
X8654812Y-13346188D01*
X8654812Y-13274760D01*
X8669097Y-13217617D01*
X8683383Y-13189045D01*
X8697669Y-13174760D01*
X8726240Y-13160474D01*
X8954812Y-13431903D02*
X8969097Y-13446188D01*
X8954812Y-13460474D01*
X8940526Y-13446188D01*
X8954812Y-13431903D01*
X8954812Y-13460474D01*
X9154812Y-13160474D02*
X9183383Y-13160474D01*
X9211954Y-13174760D01*
X9226240Y-13189045D01*
X9240526Y-13217617D01*
X9254812Y-13274760D01*
X9254812Y-13346188D01*
X9240526Y-13403331D01*
X9226240Y-13431903D01*
X9211954Y-13446188D01*
X9183383Y-13460474D01*
X9154812Y-13460474D01*
X9126240Y-13446188D01*
X9111954Y-13431903D01*
X9097669Y-13403331D01*
X9083383Y-13346188D01*
X9083383Y-13274760D01*
X9097669Y-13217617D01*
X9111954Y-13189045D01*
X9126240Y-13174760D01*
X9154812Y-13160474D01*
X9354812Y-13160474D02*
X9540526Y-13160474D01*
X9440526Y-13274760D01*
X9483383Y-13274760D01*
X9511954Y-13289045D01*
X9526240Y-13303331D01*
X9540526Y-13331903D01*
X9540526Y-13403331D01*
X9526240Y-13431903D01*
X9511954Y-13446188D01*
X9483383Y-13460474D01*
X9397669Y-13460474D01*
X9369097Y-13446188D01*
X9354812Y-13431903D01*
X9683383Y-13460474D02*
X9740526Y-13460474D01*
X9769097Y-13446188D01*
X9783383Y-13431903D01*
X9811954Y-13389045D01*
X9826240Y-13331903D01*
X9826240Y-13217617D01*
X9811954Y-13189045D01*
X9797669Y-13174760D01*
X9769097Y-13160474D01*
X9711954Y-13160474D01*
X9683383Y-13174760D01*
X9669097Y-13189045D01*
X9654812Y-13217617D01*
X9654812Y-13289045D01*
X9669097Y-13317617D01*
X9683383Y-13331903D01*
X9711954Y-13346188D01*
X9769097Y-13346188D01*
X9797669Y-13331903D01*
X9811954Y-13317617D01*
X9826240Y-13289045D01*
X9940526Y-13160474D02*
X9940526Y-13217617D01*
X10054812Y-13160474D02*
X10054812Y-13217617D01*
X10497669Y-13574760D02*
X10483383Y-13560474D01*
X10454812Y-13517617D01*
X10440526Y-13489045D01*
X10426240Y-13446188D01*
X10411954Y-13374760D01*
X10411954Y-13317617D01*
X10426240Y-13246188D01*
X10440526Y-13203331D01*
X10454812Y-13174760D01*
X10483383Y-13131903D01*
X10497669Y-13117617D01*
X10669097Y-13160474D02*
X10697669Y-13160474D01*
X10726240Y-13174760D01*
X10740526Y-13189045D01*
X10754812Y-13217617D01*
X10769097Y-13274760D01*
X10769097Y-13346188D01*
X10754812Y-13403331D01*
X10740526Y-13431903D01*
X10726240Y-13446188D01*
X10697669Y-13460474D01*
X10669097Y-13460474D01*
X10640526Y-13446188D01*
X10626240Y-13431903D01*
X10611954Y-13403331D01*
X10597669Y-13346188D01*
X10597669Y-13274760D01*
X10611954Y-13217617D01*
X10626240Y-13189045D01*
X10640526Y-13174760D01*
X10669097Y-13160474D01*
X11126240Y-13460474D02*
X11126240Y-13160474D01*
X11254812Y-13460474D02*
X11254812Y-13303331D01*
X11240526Y-13274760D01*
X11211954Y-13260474D01*
X11169097Y-13260474D01*
X11140526Y-13274760D01*
X11126240Y-13289045D01*
X11440526Y-13460474D02*
X11411954Y-13446188D01*
X11397669Y-13431903D01*
X11383383Y-13403331D01*
X11383383Y-13317617D01*
X11397669Y-13289045D01*
X11411954Y-13274760D01*
X11440526Y-13260474D01*
X11483383Y-13260474D01*
X11511954Y-13274760D01*
X11526240Y-13289045D01*
X11540526Y-13317617D01*
X11540526Y-13403331D01*
X11526240Y-13431903D01*
X11511954Y-13446188D01*
X11483383Y-13460474D01*
X11440526Y-13460474D01*
X11711954Y-13460474D02*
X11683383Y-13446188D01*
X11669097Y-13417617D01*
X11669097Y-13160474D01*
X11940526Y-13446188D02*
X11911954Y-13460474D01*
X11854812Y-13460474D01*
X11826240Y-13446188D01*
X11811954Y-13417617D01*
X11811954Y-13303331D01*
X11826240Y-13274760D01*
X11854812Y-13260474D01*
X11911954Y-13260474D01*
X11940526Y-13274760D01*
X11954812Y-13303331D01*
X11954812Y-13331903D01*
X11811954Y-13360474D01*
X12069097Y-13446188D02*
X12097669Y-13460474D01*
X12154812Y-13460474D01*
X12183383Y-13446188D01*
X12197669Y-13417617D01*
X12197669Y-13403331D01*
X12183383Y-13374760D01*
X12154812Y-13360474D01*
X12111954Y-13360474D01*
X12083383Y-13346188D01*
X12069097Y-13317617D01*
X12069097Y-13303331D01*
X12083383Y-13274760D01*
X12111954Y-13260474D01*
X12154812Y-13260474D01*
X12183383Y-13274760D01*
X12554812Y-13346188D02*
X12783383Y-13346188D01*
X12669097Y-13460474D02*
X12669097Y-13231903D01*
X13140526Y-13189045D02*
X13154812Y-13174760D01*
X13183383Y-13160474D01*
X13254812Y-13160474D01*
X13283383Y-13174760D01*
X13297669Y-13189045D01*
X13311954Y-13217617D01*
X13311954Y-13246188D01*
X13297669Y-13289045D01*
X13126240Y-13460474D01*
X13311954Y-13460474D01*
X13654812Y-13446188D02*
X13683383Y-13460474D01*
X13740526Y-13460474D01*
X13769097Y-13446188D01*
X13783383Y-13417617D01*
X13783383Y-13403331D01*
X13769097Y-13374760D01*
X13740526Y-13360474D01*
X13697669Y-13360474D01*
X13669097Y-13346188D01*
X13654812Y-13317617D01*
X13654812Y-13303331D01*
X13669097Y-13274760D01*
X13697669Y-13260474D01*
X13740526Y-13260474D01*
X13769097Y-13274760D01*
X13954812Y-13460474D02*
X13926240Y-13446188D01*
X13911954Y-13417617D01*
X13911954Y-13160474D01*
X14111954Y-13460474D02*
X14083383Y-13446188D01*
X14069097Y-13431903D01*
X14054812Y-13403331D01*
X14054812Y-13317617D01*
X14069097Y-13289045D01*
X14083383Y-13274760D01*
X14111954Y-13260474D01*
X14154812Y-13260474D01*
X14183383Y-13274760D01*
X14197669Y-13289045D01*
X14211954Y-13317617D01*
X14211954Y-13403331D01*
X14197669Y-13431903D01*
X14183383Y-13446188D01*
X14154812Y-13460474D01*
X14111954Y-13460474D01*
X14297669Y-13260474D02*
X14411954Y-13260474D01*
X14340526Y-13160474D02*
X14340526Y-13417617D01*
X14354812Y-13446188D01*
X14383383Y-13460474D01*
X14411954Y-13460474D01*
X14497669Y-13446188D02*
X14526240Y-13460474D01*
X14583383Y-13460474D01*
X14611954Y-13446188D01*
X14626240Y-13417617D01*
X14626240Y-13403331D01*
X14611954Y-13374760D01*
X14583383Y-13360474D01*
X14540526Y-13360474D01*
X14511954Y-13346188D01*
X14497669Y-13317617D01*
X14497669Y-13303331D01*
X14511954Y-13274760D01*
X14540526Y-13260474D01*
X14583383Y-13260474D01*
X14611954Y-13274760D01*
X14726240Y-13574760D02*
X14740526Y-13560474D01*
X14769097Y-13517617D01*
X14783383Y-13489045D01*
X14797669Y-13446188D01*
X14811954Y-13374760D01*
X14811954Y-13317617D01*
X14797669Y-13246188D01*
X14783383Y-13203331D01*
X14769097Y-13174760D01*
X14740526Y-13131903D01*
X14726240Y-13117617D01*
X15269097Y-13574760D02*
X15254812Y-13560474D01*
X15226240Y-13517617D01*
X15211954Y-13489045D01*
X15197669Y-13446188D01*
X15183383Y-13374760D01*
X15183383Y-13317617D01*
X15197669Y-13246188D01*
X15211954Y-13203331D01*
X15226240Y-13174760D01*
X15254812Y-13131903D01*
X15269097Y-13117617D01*
X15383383Y-13260474D02*
X15383383Y-13460474D01*
X15383383Y-13289045D02*
X15397669Y-13274760D01*
X15426240Y-13260474D01*
X15469097Y-13260474D01*
X15497669Y-13274760D01*
X15511954Y-13303331D01*
X15511954Y-13460474D01*
X15697669Y-13460474D02*
X15669097Y-13446188D01*
X15654812Y-13431903D01*
X15640526Y-13403331D01*
X15640526Y-13317617D01*
X15654812Y-13289045D01*
X15669097Y-13274760D01*
X15697669Y-13260474D01*
X15740526Y-13260474D01*
X15769097Y-13274760D01*
X15783383Y-13289045D01*
X15797669Y-13317617D01*
X15797669Y-13403331D01*
X15783383Y-13431903D01*
X15769097Y-13446188D01*
X15740526Y-13460474D01*
X15697669Y-13460474D01*
X15883383Y-13260474D02*
X15997669Y-13260474D01*
X15926240Y-13160474D02*
X15926240Y-13417617D01*
X15940526Y-13446188D01*
X15969097Y-13460474D01*
X15997669Y-13460474D01*
X16326240Y-13260474D02*
X16326240Y-13560474D01*
X16326240Y-13274760D02*
X16354812Y-13260474D01*
X16411954Y-13260474D01*
X16440526Y-13274760D01*
X16454812Y-13289045D01*
X16469097Y-13317617D01*
X16469097Y-13403331D01*
X16454812Y-13431903D01*
X16440526Y-13446188D01*
X16411954Y-13460474D01*
X16354812Y-13460474D01*
X16326240Y-13446188D01*
X16640526Y-13460474D02*
X16611954Y-13446188D01*
X16597669Y-13417617D01*
X16597669Y-13160474D01*
X16883383Y-13460474D02*
X16883383Y-13303331D01*
X16869097Y-13274760D01*
X16840526Y-13260474D01*
X16783383Y-13260474D01*
X16754812Y-13274760D01*
X16883383Y-13446188D02*
X16854812Y-13460474D01*
X16783383Y-13460474D01*
X16754812Y-13446188D01*
X16740526Y-13417617D01*
X16740526Y-13389045D01*
X16754812Y-13360474D01*
X16783383Y-13346188D01*
X16854812Y-13346188D01*
X16883383Y-13331903D01*
X16983383Y-13260474D02*
X17097669Y-13260474D01*
X17026240Y-13160474D02*
X17026240Y-13417617D01*
X17040526Y-13446188D01*
X17069097Y-13460474D01*
X17097669Y-13460474D01*
X17311954Y-13446188D02*
X17283383Y-13460474D01*
X17226240Y-13460474D01*
X17197669Y-13446188D01*
X17183383Y-13417617D01*
X17183383Y-13303331D01*
X17197669Y-13274760D01*
X17226240Y-13260474D01*
X17283383Y-13260474D01*
X17311954Y-13274760D01*
X17326240Y-13303331D01*
X17326240Y-13331903D01*
X17183383Y-13360474D01*
X17583383Y-13460474D02*
X17583383Y-13160474D01*
X17583383Y-13446188D02*
X17554812Y-13460474D01*
X17497669Y-13460474D01*
X17469097Y-13446188D01*
X17454812Y-13431903D01*
X17440526Y-13403331D01*
X17440526Y-13317617D01*
X17454812Y-13289045D01*
X17469097Y-13274760D01*
X17497669Y-13260474D01*
X17554812Y-13260474D01*
X17583383Y-13274760D01*
X17697669Y-13574760D02*
X17711954Y-13560474D01*
X17740526Y-13517617D01*
X17754812Y-13489045D01*
X17769097Y-13446188D01*
X17783383Y-13374760D01*
X17783383Y-13317617D01*
X17769097Y-13246188D01*
X17754812Y-13203331D01*
X17740526Y-13174760D01*
X17711954Y-13131903D01*
X17697669Y-13117617D01*
M02*
