M48
; DRILL file {KiCad 5.1.5+dfsg1-2~bpo10+1} date Sat Nov 14 11:47:58 2020
; FORMAT={-:-/ absolute / metric / decimal}
; #@! TF.CreationDate,2020-11-14T11:47:58+00:00
; #@! TF.GenerationSoftware,Kicad,Pcbnew,5.1.5+dfsg1-2~bpo10+1
; #@! TF.FileFunction,Plated,1,4,PTH
FMAT,2
METRIC
T1C0.400
T2C0.750
%
G90
G05
T1
X138.125Y-94.525
X138.176Y-95.504
X138.379Y-118.999
X138.379Y-120.523
X138.379Y-121.996
X138.379Y-123.495
X139.141Y-94.539
X139.379Y-116.515
X141.121Y-118.998
X141.224Y-115.595
X141.757Y-122.047
X141.859Y-95.453
X142.189Y-117.272
X142.596Y-99.238
X143.408Y-98.298
X143.84Y-122.479
X145.542Y-123.977
X145.567Y-119.151
X145.567Y-119.964
X145.974Y-97.511
X146.38Y-119.151
X146.38Y-119.964
X146.558Y-125.019
X146.939Y-108.255
X147.041Y-118.186
X147.109Y-120.896
X147.65Y-108.839
X148.311Y-119.786
X148.336Y-126.136
X148.615Y-122.149
X149.352Y-106.07
X149.454Y-105.004
X149.454Y-110.261
X149.454Y-111.658
X150.978Y-98.222
X152.349Y-119.304
X152.603Y-94.945
X153.086Y-124.181
X153.264Y-111.023
X153.848Y-90.125
X153.848Y-91.288
X153.848Y-94.259
X153.848Y-95.301
X153.848Y-97.282
X153.848Y-98.247
X154.076Y-103.48
X154.099Y-109.623
X154.102Y-108.623
X154.127Y-104.496
X154.559Y-105.765
X154.61Y-126.695
X154.635Y-124.612
X154.94Y-129.692
X155.336Y-108.544
X155.588Y-107.391
X155.999Y-121.732
X156.083Y-124.485
X157.81Y-107.34
X157.836Y-105.816
X157.886Y-115.519
X158.013Y-104.369
X158.191Y-118.745
X158.191Y-122.707
X158.191Y-129.769
X158.801Y-114.3
X159.35Y-126.897
X159.838Y-124.624
X159.969Y-120.498
X161.318Y-122.72
X161.323Y-124.781
X161.544Y-105.943
X161.569Y-120.523
X161.874Y-129.819
X162.027Y-104.369
X163.881Y-103.581
X164.49Y-118.364
X164.666Y-107.917
X165.278Y-129.896
X165.659Y-113.538
X165.684Y-105.816
X166.141Y-90.125
X166.141Y-91.262
X166.141Y-92.278
X166.141Y-93.294
X166.141Y-98.298
X166.141Y-99.263
X166.345Y-118.593
X166.446Y-104.013
X166.726Y-114.63
X166.827Y-108.534
X166.827Y-109.55
X166.853Y-112.573
X166.853Y-120.726
X167.289Y-113.584
X167.31Y-124.816
X167.513Y-122.682
X168.453Y-124.943
X168.681Y-106.528
X169.012Y-103.937
X169.443Y-119.685
X169.596Y-116.586
X169.596Y-117.627
X169.621Y-121.691
X169.824Y-105.054
X169.875Y-110.185
X169.893Y-107.425
X170.79Y-104.419
X171.018Y-118.593
X171.755Y-126.238
X172.568Y-124.536
X172.568Y-125.603
X173.761Y-99.238
X174.448Y-101.481
X174.625Y-103.378
X175.082Y-107.462
X175.191Y-104.267
X176.975Y-103.251
X177.317Y-107.62
X177.47Y-94.691
X178.333Y-104.978
X178.816Y-99.466
X178.943Y-95.313
X178.943Y-96.584
X179.06Y-103.235
X179.083Y-113.64
X179.381Y-118.594
X179.756Y-108.509
X179.883Y-114.452
X179.959Y-105.689
X179.959Y-121.717
X180.14Y-109.432
X180.219Y-103.118
X180.34Y-100.012
X181.153Y-106.655
X181.216Y-112.568
X181.216Y-115.616
X181.216Y-116.632
X181.216Y-121.712
X181.219Y-103.122
X181.864Y-94.539
X181.864Y-99.111
X181.875Y-100.559
T2
G00X156.952Y-128.402
M15
G01X156.952Y-128.852
M16
G05
G00X163.048Y-128.402
M15
G01X163.048Y-128.852
M16
G05
T0
M30
