%TF.GenerationSoftware,KiCad,Pcbnew,5.1.5+dfsg1-2~bpo10+1*%
%TF.CreationDate,Date%
%TF.ProjectId,osw,6f73772e-6b69-4636-9164-5f7063625858,1.0*%
%TF.SameCoordinates,Original*%
%TF.FileFunction,Copper,L3,Inr*%
%TF.FilePolarity,Positive*%
%FSLAX46Y46*%
G04 Gerber Fmt 4.6, Leading zero omitted, Abs format (unit mm)*
G04 Created by KiCad*
%MOMM*%
%LPD*%
G04 APERTURE LIST*
%TA.AperFunction,ViaPad*%
%ADD10O,1.500000X2.000000*%
%TD*%
%TA.AperFunction,ViaPad*%
%ADD11C,0.800000*%
%TD*%
%TA.AperFunction,Conductor*%
%ADD12C,0.400000*%
%TD*%
%TA.AperFunction,Conductor*%
%ADD13C,0.200000*%
%TD*%
%TA.AperFunction,Conductor*%
%ADD14C,0.100000*%
%TD*%
%ADD15C,0.350000*%
%ADD16O,0.999999X0.999999*%
%ADD17O,0.750000X1.200000*%
G04 APERTURE END LIST*
D10*
%TO.N,*%
%TO.C,U5*%
X163048000Y-128627000D03*
X156952000Y-128627000D03*
%TD*%
D11*
%TO.N,/EN*%
X179380560Y-118594144D03*
X167309800Y-124815600D03*
%TO.N,+3V3*%
X171018200Y-118592600D03*
X166344600Y-118592600D03*
X154635200Y-124612400D03*
X158191200Y-118745000D03*
X152603200Y-94945200D03*
X154559000Y-105765001D03*
X170789600Y-104419400D03*
X169892624Y-107424576D03*
X169875200Y-110185200D03*
X181875000Y-100558600D03*
X179060300Y-103235300D03*
%TO.N,/FLASH*%
X166827200Y-108534200D03*
X153085800Y-124180600D03*
%TO.N,GND*%
X138379200Y-118999000D03*
X138379200Y-120523000D03*
X138379200Y-121996200D03*
X138379200Y-123494800D03*
X174447788Y-101481207D03*
X176974500Y-103251000D03*
X166141400Y-90125000D03*
X166141400Y-91262200D03*
X166141400Y-92278200D03*
X166141400Y-93294200D03*
X166141400Y-99263200D03*
X166141400Y-98298000D03*
X153847800Y-90125000D03*
X153847800Y-91287600D03*
X153847800Y-94259400D03*
X153847800Y-95300800D03*
X153847800Y-97282000D03*
X153847800Y-98247200D03*
X162026600Y-104368600D03*
X165684200Y-105816400D03*
X164490400Y-118364000D03*
X148310600Y-119786400D03*
X145567400Y-119151400D03*
X146380200Y-119151400D03*
X146380200Y-119964200D03*
X145567400Y-119964200D03*
X143840200Y-122478800D03*
X141121136Y-118997736D03*
X157886400Y-115519200D03*
X154609800Y-126695200D03*
X161323206Y-124781113D03*
X158191200Y-122706998D03*
X161318496Y-122719989D03*
X168452800Y-124942600D03*
X169621200Y-121691400D03*
X179959000Y-121716800D03*
X181152800Y-106654600D03*
X161569400Y-120523000D03*
X159969200Y-120497600D03*
X152349200Y-119303800D03*
X149453600Y-105003600D03*
X146939000Y-108254800D03*
X147650200Y-108839000D03*
X154127200Y-104495600D03*
X157810200Y-107340400D03*
X141859000Y-95453200D03*
X142595600Y-99237800D03*
X143408400Y-98298000D03*
X138125000Y-94525000D03*
X165658800Y-113538000D03*
X172567600Y-125603000D03*
X171754800Y-126238000D03*
X172567600Y-124536200D03*
X154940000Y-129692400D03*
X161874200Y-129819400D03*
X158191200Y-129768600D03*
X165277800Y-129895600D03*
X146558000Y-125018800D03*
X148336000Y-126136400D03*
X139141200Y-94538800D03*
X138176000Y-95504000D03*
X181864000Y-99110800D03*
X181864000Y-94538800D03*
X177914300Y-94526100D03*
X141224000Y-115595400D03*
X181216000Y-121712000D03*
X161734500Y-108750200D03*
X158711900Y-104350002D03*
X168884600Y-96215200D03*
X173050200Y-96215200D03*
X174053500Y-94526100D03*
X163144200Y-103301800D03*
X164172900Y-103301800D03*
X166801800Y-103517700D03*
X166090600Y-104292400D03*
X163258500Y-104267000D03*
X142379700Y-94500700D03*
X143522700Y-94500700D03*
X144576800Y-94500700D03*
X145834100Y-94500700D03*
X138226800Y-99885500D03*
X138226800Y-101247863D03*
X138226800Y-102610226D03*
X138226800Y-103972589D03*
X138226800Y-105334952D03*
X141617700Y-101447600D03*
X141554200Y-104216200D03*
X141643100Y-105422700D03*
X142557500Y-106362500D03*
X143383000Y-107099100D03*
X144272000Y-107873800D03*
X145072100Y-108750100D03*
X138226800Y-106697315D03*
X138988800Y-107556300D03*
X139814300Y-108381800D03*
X140627100Y-109156500D03*
X141389100Y-109867700D03*
X143294100Y-111861600D03*
X143814800Y-113550700D03*
X147078700Y-113474500D03*
X147091400Y-112318800D03*
X150977600Y-103898700D03*
X150977600Y-102844600D03*
X150253700Y-101714300D03*
X138226800Y-116205000D03*
X138214100Y-114909600D03*
X138226800Y-113509130D03*
X138226800Y-112146767D03*
X138226800Y-110784404D03*
X138226800Y-109422041D03*
X138226800Y-108059678D03*
X147434300Y-125564900D03*
X154063700Y-121577100D03*
X151866600Y-123647200D03*
X154216100Y-123659900D03*
X161582100Y-121615200D03*
X161709100Y-123748800D03*
X172466000Y-123190000D03*
X172466000Y-122008900D03*
X174523400Y-119761000D03*
X175666400Y-119761000D03*
X176898300Y-119722900D03*
X177977800Y-119786400D03*
X178739800Y-117576600D03*
X177825400Y-117500400D03*
X176695100Y-117500400D03*
X175488600Y-117525800D03*
X172745400Y-117398800D03*
X171754800Y-117398800D03*
X167386000Y-91071700D03*
X152793700Y-90792300D03*
X170116500Y-97675700D03*
X170116500Y-99301300D03*
X170103800Y-100787200D03*
X171754800Y-116281200D03*
X169862500Y-114935000D03*
X179031900Y-112128300D03*
%TO.N,Net-(D1-Pad1)*%
X147108574Y-120895774D03*
X148615400Y-122148600D03*
%TO.N,/LEDK*%
X149352000Y-106070400D03*
%TO.N,/BTN2*%
X150977600Y-98221800D03*
X175082200Y-107462002D03*
%TO.N,/BTN3*%
X169824400Y-105054400D03*
X178333400Y-104978200D03*
%TO.N,/RX*%
X169595800Y-117627400D03*
X167513000Y-122682000D03*
%TO.N,/SCL*%
X174625000Y-103378000D03*
X180340000Y-100012500D03*
X178943000Y-95313500D03*
X169443400Y-119684800D03*
%TO.N,/SDA*%
X178943000Y-96583500D03*
X169595800Y-116586000D03*
X175190685Y-104267000D03*
X178816000Y-99466400D03*
%TO.N,/PIN_LED*%
X158800800Y-114300000D03*
X177317400Y-107619800D03*
%TO.N,/STAT_PWR*%
X168681400Y-106527600D03*
X142189200Y-117271800D03*
%TO.N,/MOSI*%
X166852600Y-120726200D03*
X149453600Y-111658400D03*
%TO.N,/MISO*%
X154076400Y-103479600D03*
X166725600Y-114630200D03*
%TO.N,/IO34*%
X180218731Y-103117636D03*
X181216000Y-116632000D03*
%TO.N,/IO35*%
X181218721Y-103122356D03*
X181216000Y-115616000D03*
%TO.N,Net-(R1-Pad2)*%
X155336142Y-108544458D03*
%TO.N,Net-(R15-Pad1)*%
X141757400Y-122047000D03*
X145542000Y-123977400D03*
%TO.N,/B_MON*%
X148551900Y-98933000D03*
X181178200Y-112547400D03*
%TO.N,/RTC_INT*%
X177457100Y-98780600D03*
X179298600Y-106565700D03*
X179767227Y-114632101D03*
%TO.N,/TFT_DC*%
X154099398Y-109623087D03*
X179755800Y-108508800D03*
%TO.N,/TFT_CS*%
X149453600Y-110261400D03*
X166852600Y-112572800D03*
%TO.N,/TFT_RST*%
X179082800Y-113639600D03*
%TO.N,/SD_CS*%
X166827200Y-109550200D03*
X154102110Y-108623089D03*
%TO.N,/SCK*%
X153263600Y-111023400D03*
X167289200Y-113584000D03*
%TO.N,/VCC*%
X139379465Y-116515052D03*
X147040600Y-118186200D03*
%TO.N,/3V3_2*%
X155587600Y-107391200D03*
%TO.N,/GPS_RX3V3*%
X161696400Y-107467400D03*
X178028600Y-109908810D03*
%TO.N,/GPS_TX3V3*%
X161658300Y-105892600D03*
X178777900Y-110629700D03*
%TO.N,/D2_P*%
X155999000Y-121732000D03*
X159838372Y-124623840D03*
%TO.N,/D2_N*%
X159349999Y-126896865D03*
X156083000Y-124485400D03*
%TD*%
D12*
%TO.N,+3V3*%
X157086399Y-117640199D02*
X158191200Y-118745000D01*
X157086399Y-107705997D02*
X157086399Y-117640199D01*
X155145403Y-105765001D02*
X157086399Y-107705997D01*
X154559000Y-105765001D02*
X155145403Y-105765001D01*
D13*
%TO.N,/FLASH*%
X168345399Y-105827599D02*
X166827200Y-107345798D01*
X169381401Y-106191599D02*
X169017401Y-105827599D01*
X169381401Y-106863601D02*
X169381401Y-106191599D01*
X169081410Y-107163592D02*
X169381401Y-106863601D01*
X166827200Y-107345798D02*
X166827200Y-108534200D01*
X169017401Y-105827599D02*
X168345399Y-105827599D01*
X169081410Y-113310392D02*
X169081410Y-107163592D01*
X167061601Y-115330201D02*
X169081410Y-113310392D01*
X156849987Y-119845011D02*
X158692890Y-119845011D01*
X163207700Y-115330201D02*
X167061601Y-115330201D01*
X158692890Y-119845011D02*
X163207700Y-115330201D01*
X153085800Y-123609198D02*
X156849987Y-119845011D01*
X153085800Y-124180600D02*
X153085800Y-123609198D01*
%TO.N,/SCL*%
X174155100Y-103403400D02*
X174625000Y-103378000D01*
X171018200Y-106565700D02*
X174155100Y-103403400D01*
X171018200Y-117563900D02*
X171018200Y-106565700D01*
X169443400Y-119119115D02*
X171018200Y-117563900D01*
X169443400Y-119684800D02*
X169443400Y-119119115D01*
%TO.N,/SDA*%
X175190685Y-104267000D02*
X174625000Y-104267000D01*
X175325001Y-104132684D02*
X175190685Y-104267000D01*
X175067999Y-102677999D02*
X175325001Y-102935001D01*
X174288999Y-102677999D02*
X175067999Y-102677999D01*
X170592625Y-106374373D02*
X174288999Y-102677999D01*
X170592625Y-115589175D02*
X170592625Y-106374373D01*
X175325001Y-102935001D02*
X175325001Y-104132684D01*
X169595800Y-116586000D02*
X170592625Y-115589175D01*
%TO.N,/STAT_PWR*%
X155681998Y-117271800D02*
X142189200Y-117271800D01*
X158527201Y-119445001D02*
X157855199Y-119445001D01*
X168681400Y-109290802D02*
X158527201Y-119445001D01*
X157855199Y-119445001D02*
X155681998Y-117271800D01*
X168681400Y-106527600D02*
X168681400Y-109290802D01*
%TO.N,/B_MON*%
X180091801Y-107808799D02*
X181178200Y-108895198D01*
X180091801Y-105700599D02*
X180091801Y-107808799D01*
X178669401Y-104278199D02*
X180091801Y-105700599D01*
X176965697Y-104278199D02*
X178669401Y-104278199D01*
X176274499Y-103587001D02*
X176965697Y-104278199D01*
X175485608Y-102181208D02*
X176274499Y-102970099D01*
X151800108Y-102181208D02*
X175485608Y-102181208D01*
X176274499Y-102970099D02*
X176274499Y-103587001D01*
X148551900Y-98933000D02*
X151800108Y-102181208D01*
X181178200Y-108895198D02*
X181178200Y-112547400D01*
%TO.N,/RTC_INT*%
X179782801Y-109571803D02*
X179782801Y-114616527D01*
X178898601Y-108687603D02*
X179782801Y-109571803D01*
X178898601Y-106965699D02*
X178898601Y-108687603D01*
X179782801Y-114616527D02*
X179767227Y-114632101D01*
X179298600Y-106565700D02*
X178898601Y-106965699D01*
%TD*%
D14*
%TO.N,GND*%
G36*
X156200000Y-93750000D02*
G01*
X156200961Y-93759755D01*
X156203806Y-93769134D01*
X156208427Y-93777779D01*
X156214645Y-93785355D01*
X156222221Y-93791573D01*
X156230866Y-93796194D01*
X156240245Y-93799039D01*
X156250000Y-93800000D01*
X164000000Y-93800000D01*
X164009755Y-93799039D01*
X164019134Y-93796194D01*
X164027779Y-93791573D01*
X164035355Y-93785355D01*
X164041573Y-93777779D01*
X164046194Y-93769134D01*
X164049039Y-93759755D01*
X164050000Y-93750000D01*
X164050000Y-93175751D01*
X169005784Y-93175751D01*
X169005784Y-93279167D01*
X169025960Y-93380596D01*
X169065535Y-93476140D01*
X169122990Y-93562127D01*
X169196116Y-93635253D01*
X169282103Y-93692708D01*
X169377647Y-93732283D01*
X169479076Y-93752459D01*
X169582492Y-93752459D01*
X169683921Y-93732283D01*
X169779465Y-93692708D01*
X169865452Y-93635253D01*
X169938578Y-93562127D01*
X169996033Y-93476140D01*
X170035608Y-93380596D01*
X170055784Y-93279167D01*
X170055784Y-93175751D01*
X170035608Y-93074322D01*
X169996033Y-92978778D01*
X169938578Y-92892791D01*
X169865452Y-92819665D01*
X169779465Y-92762210D01*
X169683921Y-92722635D01*
X169582492Y-92702459D01*
X169479076Y-92702459D01*
X169377647Y-92722635D01*
X169282103Y-92762210D01*
X169196116Y-92819665D01*
X169122990Y-92892791D01*
X169065535Y-92978778D01*
X169025960Y-93074322D01*
X169005784Y-93175751D01*
X164050000Y-93175751D01*
X164050000Y-89702000D01*
X166435608Y-89702000D01*
X172577331Y-94060643D01*
X172587232Y-94068769D01*
X172602263Y-94076803D01*
X172617077Y-94085266D01*
X172619797Y-94086176D01*
X172622324Y-94087526D01*
X172638653Y-94092480D01*
X172654815Y-94097883D01*
X172657653Y-94098243D01*
X172660401Y-94099077D01*
X172677397Y-94100751D01*
X172694288Y-94102896D01*
X172707058Y-94102000D01*
X182298001Y-94102000D01*
X182298001Y-100062362D01*
X182289351Y-100053712D01*
X182182890Y-99982578D01*
X182064598Y-99933579D01*
X181939019Y-99908600D01*
X181810981Y-99908600D01*
X181685402Y-99933579D01*
X181567110Y-99982578D01*
X181460649Y-100053712D01*
X181370112Y-100144249D01*
X181298978Y-100250710D01*
X181249979Y-100369002D01*
X181225000Y-100494581D01*
X181225000Y-100622619D01*
X181249979Y-100748198D01*
X181298978Y-100866490D01*
X181370112Y-100972951D01*
X181460649Y-101063488D01*
X181567110Y-101134622D01*
X181685402Y-101183621D01*
X181810981Y-101208600D01*
X181939019Y-101208600D01*
X182064598Y-101183621D01*
X182182890Y-101134622D01*
X182289351Y-101063488D01*
X182298001Y-101054838D01*
X182298000Y-109990080D01*
X182298000Y-109990081D01*
X182298001Y-122378000D01*
X179250299Y-122378000D01*
X179252500Y-120396056D01*
X179251547Y-120386286D01*
X179248710Y-120376904D01*
X179244097Y-120368256D01*
X179237885Y-120360674D01*
X179230313Y-120354450D01*
X179221673Y-120349822D01*
X179212295Y-120346969D01*
X179202542Y-120346000D01*
X173116702Y-120340920D01*
X173106960Y-120341870D01*
X173097577Y-120344705D01*
X173088928Y-120349316D01*
X173081344Y-120355525D01*
X173075117Y-120363095D01*
X173070487Y-120371735D01*
X173067632Y-120381111D01*
X173066660Y-120390864D01*
X173060561Y-125883520D01*
X166438840Y-130298000D01*
X153561161Y-130298000D01*
X150662915Y-128365836D01*
X151920487Y-128365836D01*
X151920487Y-128469252D01*
X151940663Y-128570681D01*
X151980238Y-128666225D01*
X152037693Y-128752212D01*
X152110819Y-128825338D01*
X152196806Y-128882793D01*
X152292350Y-128922368D01*
X152393779Y-128942544D01*
X152497195Y-128942544D01*
X152598624Y-128922368D01*
X152694168Y-128882793D01*
X152780155Y-128825338D01*
X152853281Y-128752212D01*
X152910736Y-128666225D01*
X152950311Y-128570681D01*
X152970487Y-128469252D01*
X152970487Y-128365836D01*
X152962938Y-128327881D01*
X155952000Y-128327881D01*
X155952000Y-128926120D01*
X155966470Y-129073034D01*
X156023651Y-129261535D01*
X156116509Y-129435258D01*
X156241473Y-129587528D01*
X156393743Y-129712492D01*
X156567466Y-129805349D01*
X156755967Y-129862530D01*
X156952000Y-129881838D01*
X157148034Y-129862530D01*
X157336535Y-129805349D01*
X157510258Y-129712492D01*
X157662528Y-129587528D01*
X157787492Y-129435258D01*
X157880349Y-129261535D01*
X157937530Y-129073033D01*
X157952000Y-128926119D01*
X157952000Y-128327881D01*
X162048000Y-128327881D01*
X162048000Y-128926120D01*
X162062470Y-129073034D01*
X162119651Y-129261535D01*
X162212509Y-129435258D01*
X162337473Y-129587528D01*
X162489743Y-129712492D01*
X162663466Y-129805349D01*
X162851967Y-129862530D01*
X163048000Y-129881838D01*
X163244034Y-129862530D01*
X163432535Y-129805349D01*
X163606258Y-129712492D01*
X163758528Y-129587528D01*
X163883492Y-129435258D01*
X163976349Y-129261535D01*
X164033530Y-129073033D01*
X164048000Y-128926119D01*
X164048000Y-128327880D01*
X164043271Y-128279861D01*
X167052766Y-128279861D01*
X167052766Y-128383277D01*
X167072942Y-128484706D01*
X167112517Y-128580250D01*
X167169972Y-128666237D01*
X167243098Y-128739363D01*
X167329085Y-128796818D01*
X167424629Y-128836393D01*
X167526058Y-128856569D01*
X167629474Y-128856569D01*
X167730903Y-128836393D01*
X167826447Y-128796818D01*
X167912434Y-128739363D01*
X167985560Y-128666237D01*
X168043015Y-128580250D01*
X168082590Y-128484706D01*
X168102766Y-128383277D01*
X168102766Y-128279861D01*
X168082590Y-128178432D01*
X168043015Y-128082888D01*
X167985560Y-127996901D01*
X167912434Y-127923775D01*
X167826447Y-127866320D01*
X167730903Y-127826745D01*
X167629474Y-127806569D01*
X167526058Y-127806569D01*
X167424629Y-127826745D01*
X167329085Y-127866320D01*
X167243098Y-127923775D01*
X167169972Y-127996901D01*
X167112517Y-128082888D01*
X167072942Y-128178432D01*
X167052766Y-128279861D01*
X164043271Y-128279861D01*
X164033530Y-128180966D01*
X163976349Y-127992465D01*
X163883492Y-127818742D01*
X163758528Y-127666472D01*
X163606258Y-127541508D01*
X163432534Y-127448651D01*
X163244033Y-127391470D01*
X163048000Y-127372162D01*
X162851966Y-127391470D01*
X162663465Y-127448651D01*
X162489742Y-127541508D01*
X162337472Y-127666472D01*
X162212508Y-127818742D01*
X162119651Y-127992466D01*
X162062470Y-128180967D01*
X162048000Y-128327881D01*
X157952000Y-128327881D01*
X157952000Y-128327880D01*
X157937530Y-128180966D01*
X157880349Y-127992465D01*
X157787492Y-127818742D01*
X157662528Y-127666472D01*
X157510258Y-127541508D01*
X157336534Y-127448651D01*
X157148033Y-127391470D01*
X156952000Y-127372162D01*
X156755966Y-127391470D01*
X156567465Y-127448651D01*
X156393742Y-127541508D01*
X156241472Y-127666472D01*
X156116508Y-127818742D01*
X156023651Y-127992466D01*
X155966470Y-128180967D01*
X155952000Y-128327881D01*
X152962938Y-128327881D01*
X152950311Y-128264407D01*
X152910736Y-128168863D01*
X152853281Y-128082876D01*
X152780155Y-128009750D01*
X152694168Y-127952295D01*
X152598624Y-127912720D01*
X152497195Y-127892544D01*
X152393779Y-127892544D01*
X152292350Y-127912720D01*
X152196806Y-127952295D01*
X152110819Y-128009750D01*
X152037693Y-128082876D01*
X151980238Y-128168863D01*
X151940663Y-128264407D01*
X151920487Y-128365836D01*
X150662915Y-128365836D01*
X149118285Y-127336083D01*
X150393815Y-127336083D01*
X150393815Y-127439499D01*
X150413991Y-127540928D01*
X150453566Y-127636472D01*
X150511021Y-127722459D01*
X150584147Y-127795585D01*
X150670134Y-127853040D01*
X150765678Y-127892615D01*
X150867107Y-127912791D01*
X150970523Y-127912791D01*
X151071952Y-127892615D01*
X151167496Y-127853040D01*
X151253483Y-127795585D01*
X151326609Y-127722459D01*
X151384064Y-127636472D01*
X151423639Y-127540928D01*
X151443815Y-127439499D01*
X151443815Y-127336083D01*
X151423639Y-127234654D01*
X151384064Y-127139110D01*
X151326609Y-127053123D01*
X151253483Y-126979997D01*
X151167496Y-126922542D01*
X151071952Y-126882967D01*
X150970523Y-126862791D01*
X150867107Y-126862791D01*
X150765678Y-126882967D01*
X150670134Y-126922542D01*
X150584147Y-126979997D01*
X150511021Y-127053123D01*
X150453566Y-127139110D01*
X150413991Y-127234654D01*
X150393815Y-127336083D01*
X149118285Y-127336083D01*
X147610107Y-126330631D01*
X156964000Y-126330631D01*
X156964000Y-126478369D01*
X156992822Y-126623267D01*
X157049359Y-126759758D01*
X157131437Y-126882597D01*
X157235903Y-126987063D01*
X157358742Y-127069141D01*
X157495233Y-127125678D01*
X157640131Y-127154500D01*
X157787869Y-127154500D01*
X157932767Y-127125678D01*
X158069258Y-127069141D01*
X158192097Y-126987063D01*
X158296563Y-126882597D01*
X158329805Y-126832846D01*
X158699999Y-126832846D01*
X158699999Y-126960884D01*
X158724978Y-127086463D01*
X158773977Y-127204755D01*
X158845111Y-127311216D01*
X158935648Y-127401753D01*
X159042109Y-127472887D01*
X159160401Y-127521886D01*
X159285980Y-127546865D01*
X159414018Y-127546865D01*
X159539597Y-127521886D01*
X159657889Y-127472887D01*
X159764350Y-127401753D01*
X159854887Y-127311216D01*
X159877810Y-127276908D01*
X168597178Y-127276908D01*
X168597178Y-127380324D01*
X168617354Y-127481753D01*
X168656929Y-127577297D01*
X168714384Y-127663284D01*
X168787510Y-127736410D01*
X168873497Y-127793865D01*
X168969041Y-127833440D01*
X169070470Y-127853616D01*
X169173886Y-127853616D01*
X169275315Y-127833440D01*
X169370859Y-127793865D01*
X169456846Y-127736410D01*
X169529972Y-127663284D01*
X169587427Y-127577297D01*
X169627002Y-127481753D01*
X169647178Y-127380324D01*
X169647178Y-127276908D01*
X169627002Y-127175479D01*
X169587427Y-127079935D01*
X169529972Y-126993948D01*
X169456846Y-126920822D01*
X169370859Y-126863367D01*
X169275315Y-126823792D01*
X169173886Y-126803616D01*
X169070470Y-126803616D01*
X168969041Y-126823792D01*
X168873497Y-126863367D01*
X168787510Y-126920822D01*
X168714384Y-126993948D01*
X168656929Y-127079935D01*
X168617354Y-127175479D01*
X168597178Y-127276908D01*
X159877810Y-127276908D01*
X159926021Y-127204755D01*
X159975020Y-127086463D01*
X159999999Y-126960884D01*
X159999999Y-126832846D01*
X159975020Y-126707267D01*
X159926021Y-126588975D01*
X159854887Y-126482514D01*
X159764350Y-126391977D01*
X159672538Y-126330631D01*
X161536000Y-126330631D01*
X161536000Y-126478369D01*
X161564822Y-126623267D01*
X161621359Y-126759758D01*
X161703437Y-126882597D01*
X161807903Y-126987063D01*
X161930742Y-127069141D01*
X162067233Y-127125678D01*
X162212131Y-127154500D01*
X162359869Y-127154500D01*
X162504767Y-127125678D01*
X162641258Y-127069141D01*
X162764097Y-126987063D01*
X162868563Y-126882597D01*
X162950641Y-126759758D01*
X163007178Y-126623267D01*
X163036000Y-126478369D01*
X163036000Y-126330631D01*
X163007178Y-126185733D01*
X162950641Y-126049242D01*
X162868563Y-125926403D01*
X162764097Y-125821937D01*
X162641258Y-125739859D01*
X162504767Y-125683322D01*
X162359869Y-125654500D01*
X162212131Y-125654500D01*
X162067233Y-125683322D01*
X161930742Y-125739859D01*
X161807903Y-125821937D01*
X161703437Y-125926403D01*
X161621359Y-126049242D01*
X161564822Y-126185733D01*
X161536000Y-126330631D01*
X159672538Y-126330631D01*
X159657889Y-126320843D01*
X159539597Y-126271844D01*
X159414018Y-126246865D01*
X159285980Y-126246865D01*
X159160401Y-126271844D01*
X159042109Y-126320843D01*
X158935648Y-126391977D01*
X158845111Y-126482514D01*
X158773977Y-126588975D01*
X158724978Y-126707267D01*
X158699999Y-126832846D01*
X158329805Y-126832846D01*
X158378641Y-126759758D01*
X158435178Y-126623267D01*
X158464000Y-126478369D01*
X158464000Y-126330631D01*
X158435178Y-126185733D01*
X158378641Y-126049242D01*
X158296563Y-125926403D01*
X158192097Y-125821937D01*
X158069258Y-125739859D01*
X157932767Y-125683322D01*
X157787869Y-125654500D01*
X157640131Y-125654500D01*
X157495233Y-125683322D01*
X157358742Y-125739859D01*
X157235903Y-125821937D01*
X157131437Y-125926403D01*
X157049359Y-126049242D01*
X156992822Y-126185733D01*
X156964000Y-126330631D01*
X147610107Y-126330631D01*
X144620396Y-124337492D01*
X144612768Y-124331231D01*
X144603877Y-124326479D01*
X144603795Y-124326424D01*
X144595672Y-124322093D01*
X144577676Y-124312474D01*
X144577571Y-124312442D01*
X144577479Y-124312393D01*
X144559358Y-124306917D01*
X144539599Y-124300923D01*
X144539485Y-124300912D01*
X144539390Y-124300883D01*
X144520767Y-124299068D01*
X144509920Y-124298000D01*
X144509804Y-124298000D01*
X144499788Y-124297024D01*
X144489985Y-124298000D01*
X137702000Y-124298000D01*
X137702000Y-123913381D01*
X144892000Y-123913381D01*
X144892000Y-124041419D01*
X144916979Y-124166998D01*
X144965978Y-124285290D01*
X145037112Y-124391751D01*
X145127649Y-124482288D01*
X145234110Y-124553422D01*
X145352402Y-124602421D01*
X145477981Y-124627400D01*
X145606019Y-124627400D01*
X145731598Y-124602421D01*
X145849890Y-124553422D01*
X145956351Y-124482288D01*
X146046888Y-124391751D01*
X146118022Y-124285290D01*
X146167021Y-124166998D01*
X146192000Y-124041419D01*
X146192000Y-123913381D01*
X146167021Y-123787802D01*
X146118022Y-123669510D01*
X146046888Y-123563049D01*
X145956351Y-123472512D01*
X145849890Y-123401378D01*
X145731598Y-123352379D01*
X145606019Y-123327400D01*
X145477981Y-123327400D01*
X145352402Y-123352379D01*
X145234110Y-123401378D01*
X145127649Y-123472512D01*
X145037112Y-123563049D01*
X144965978Y-123669510D01*
X144916979Y-123787802D01*
X144892000Y-123913381D01*
X137702000Y-123913381D01*
X137702000Y-121982981D01*
X141107400Y-121982981D01*
X141107400Y-122111019D01*
X141132379Y-122236598D01*
X141181378Y-122354890D01*
X141252512Y-122461351D01*
X141343049Y-122551888D01*
X141449510Y-122623022D01*
X141567802Y-122672021D01*
X141693381Y-122697000D01*
X141821419Y-122697000D01*
X141946998Y-122672021D01*
X142065290Y-122623022D01*
X142171751Y-122551888D01*
X142262288Y-122461351D01*
X142333422Y-122354890D01*
X142382421Y-122236598D01*
X142407400Y-122111019D01*
X142407400Y-122084581D01*
X147965400Y-122084581D01*
X147965400Y-122212619D01*
X147990379Y-122338198D01*
X148039378Y-122456490D01*
X148110512Y-122562951D01*
X148201049Y-122653488D01*
X148307510Y-122724622D01*
X148425802Y-122773621D01*
X148551381Y-122798600D01*
X148679419Y-122798600D01*
X148804998Y-122773621D01*
X148923290Y-122724622D01*
X149029751Y-122653488D01*
X149120288Y-122562951D01*
X149191422Y-122456490D01*
X149240421Y-122338198D01*
X149265400Y-122212619D01*
X149265400Y-122084581D01*
X149240421Y-121959002D01*
X149191422Y-121840710D01*
X149120288Y-121734249D01*
X149029751Y-121643712D01*
X148923290Y-121572578D01*
X148804998Y-121523579D01*
X148679419Y-121498600D01*
X148551381Y-121498600D01*
X148425802Y-121523579D01*
X148307510Y-121572578D01*
X148201049Y-121643712D01*
X148110512Y-121734249D01*
X148039378Y-121840710D01*
X147990379Y-121959002D01*
X147965400Y-122084581D01*
X142407400Y-122084581D01*
X142407400Y-121982981D01*
X142382421Y-121857402D01*
X142333422Y-121739110D01*
X142262288Y-121632649D01*
X142171751Y-121542112D01*
X142065290Y-121470978D01*
X141946998Y-121421979D01*
X141821419Y-121397000D01*
X141693381Y-121397000D01*
X141567802Y-121421979D01*
X141449510Y-121470978D01*
X141343049Y-121542112D01*
X141252512Y-121632649D01*
X141181378Y-121739110D01*
X141132379Y-121857402D01*
X141107400Y-121982981D01*
X137702000Y-121982981D01*
X137702000Y-120831755D01*
X146458574Y-120831755D01*
X146458574Y-120959793D01*
X146483553Y-121085372D01*
X146532552Y-121203664D01*
X146603686Y-121310125D01*
X146694223Y-121400662D01*
X146800684Y-121471796D01*
X146918976Y-121520795D01*
X147044555Y-121545774D01*
X147172593Y-121545774D01*
X147298172Y-121520795D01*
X147416464Y-121471796D01*
X147522925Y-121400662D01*
X147613462Y-121310125D01*
X147684596Y-121203664D01*
X147733595Y-121085372D01*
X147758574Y-120959793D01*
X147758574Y-120831755D01*
X147733595Y-120706176D01*
X147684596Y-120587884D01*
X147613462Y-120481423D01*
X147522925Y-120390886D01*
X147416464Y-120319752D01*
X147298172Y-120270753D01*
X147172593Y-120245774D01*
X147044555Y-120245774D01*
X146918976Y-120270753D01*
X146800684Y-120319752D01*
X146694223Y-120390886D01*
X146603686Y-120481423D01*
X146532552Y-120587884D01*
X146483553Y-120706176D01*
X146458574Y-120831755D01*
X137702000Y-120831755D01*
X137702000Y-117207781D01*
X141539200Y-117207781D01*
X141539200Y-117335819D01*
X141564179Y-117461398D01*
X141613178Y-117579690D01*
X141684312Y-117686151D01*
X141774849Y-117776688D01*
X141881310Y-117847822D01*
X141999602Y-117896821D01*
X142125181Y-117921800D01*
X142253219Y-117921800D01*
X142378798Y-117896821D01*
X142497090Y-117847822D01*
X142603551Y-117776688D01*
X142694088Y-117686151D01*
X142737085Y-117621800D01*
X146715316Y-117621800D01*
X146626249Y-117681312D01*
X146535712Y-117771849D01*
X146464578Y-117878310D01*
X146415579Y-117996602D01*
X146390600Y-118122181D01*
X146390600Y-118250219D01*
X146415579Y-118375798D01*
X146464578Y-118494090D01*
X146535712Y-118600551D01*
X146626249Y-118691088D01*
X146732710Y-118762222D01*
X146851002Y-118811221D01*
X146976581Y-118836200D01*
X147104619Y-118836200D01*
X147230198Y-118811221D01*
X147348490Y-118762222D01*
X147454951Y-118691088D01*
X147545488Y-118600551D01*
X147616622Y-118494090D01*
X147665621Y-118375798D01*
X147690600Y-118250219D01*
X147690600Y-118122181D01*
X147665621Y-117996602D01*
X147616622Y-117878310D01*
X147545488Y-117771849D01*
X147454951Y-117681312D01*
X147365884Y-117621800D01*
X155537025Y-117621800D01*
X157410234Y-119495011D01*
X156867172Y-119495011D01*
X156849986Y-119493318D01*
X156832800Y-119495011D01*
X156832798Y-119495011D01*
X156781375Y-119500076D01*
X156715400Y-119520089D01*
X156654597Y-119552589D01*
X156601302Y-119596326D01*
X156590344Y-119609679D01*
X152850476Y-123349549D01*
X152837116Y-123360513D01*
X152793379Y-123413808D01*
X152762001Y-123472512D01*
X152760879Y-123474611D01*
X152740865Y-123540587D01*
X152734107Y-123609198D01*
X152735801Y-123626396D01*
X152735801Y-123632714D01*
X152671449Y-123675712D01*
X152580912Y-123766249D01*
X152509778Y-123872710D01*
X152460779Y-123991002D01*
X152435800Y-124116581D01*
X152435800Y-124244619D01*
X152460779Y-124370198D01*
X152509778Y-124488490D01*
X152580912Y-124594951D01*
X152671449Y-124685488D01*
X152777910Y-124756622D01*
X152896202Y-124805621D01*
X153021781Y-124830600D01*
X153149819Y-124830600D01*
X153275398Y-124805621D01*
X153393690Y-124756622D01*
X153500151Y-124685488D01*
X153590688Y-124594951D01*
X153621804Y-124548381D01*
X153985200Y-124548381D01*
X153985200Y-124676419D01*
X154010179Y-124801998D01*
X154059178Y-124920290D01*
X154130312Y-125026751D01*
X154220849Y-125117288D01*
X154327310Y-125188422D01*
X154445602Y-125237421D01*
X154571181Y-125262400D01*
X154699219Y-125262400D01*
X154824798Y-125237421D01*
X154943090Y-125188422D01*
X155049551Y-125117288D01*
X155140088Y-125026751D01*
X155211222Y-124920290D01*
X155260221Y-124801998D01*
X155285200Y-124676419D01*
X155285200Y-124548381D01*
X155260221Y-124422802D01*
X155259633Y-124421381D01*
X155433000Y-124421381D01*
X155433000Y-124549419D01*
X155457979Y-124674998D01*
X155506978Y-124793290D01*
X155578112Y-124899751D01*
X155668649Y-124990288D01*
X155775110Y-125061422D01*
X155893402Y-125110421D01*
X156018981Y-125135400D01*
X156147019Y-125135400D01*
X156272598Y-125110421D01*
X156390890Y-125061422D01*
X156497351Y-124990288D01*
X156587888Y-124899751D01*
X156659022Y-124793290D01*
X156708021Y-124674998D01*
X156730930Y-124559821D01*
X159188372Y-124559821D01*
X159188372Y-124687859D01*
X159213351Y-124813438D01*
X159262350Y-124931730D01*
X159333484Y-125038191D01*
X159424021Y-125128728D01*
X159530482Y-125199862D01*
X159648774Y-125248861D01*
X159774353Y-125273840D01*
X159902391Y-125273840D01*
X160027970Y-125248861D01*
X160146262Y-125199862D01*
X160252723Y-125128728D01*
X160343260Y-125038191D01*
X160414394Y-124931730D01*
X160463393Y-124813438D01*
X160475697Y-124751581D01*
X166659800Y-124751581D01*
X166659800Y-124879619D01*
X166684779Y-125005198D01*
X166733778Y-125123490D01*
X166804912Y-125229951D01*
X166895449Y-125320488D01*
X167001910Y-125391622D01*
X167120202Y-125440621D01*
X167245781Y-125465600D01*
X167373819Y-125465600D01*
X167499398Y-125440621D01*
X167617690Y-125391622D01*
X167724151Y-125320488D01*
X167814688Y-125229951D01*
X167885822Y-125123490D01*
X167934821Y-125005198D01*
X167959800Y-124879619D01*
X167959800Y-124751581D01*
X167934821Y-124626002D01*
X167885822Y-124507710D01*
X167814688Y-124401249D01*
X167724151Y-124310712D01*
X167617690Y-124239578D01*
X167499398Y-124190579D01*
X167373819Y-124165600D01*
X167245781Y-124165600D01*
X167120202Y-124190579D01*
X167001910Y-124239578D01*
X166895449Y-124310712D01*
X166804912Y-124401249D01*
X166733778Y-124507710D01*
X166684779Y-124626002D01*
X166659800Y-124751581D01*
X160475697Y-124751581D01*
X160488372Y-124687859D01*
X160488372Y-124559821D01*
X160463393Y-124434242D01*
X160414394Y-124315950D01*
X160343260Y-124209489D01*
X160252723Y-124118952D01*
X160146262Y-124047818D01*
X160027970Y-123998819D01*
X159902391Y-123973840D01*
X159774353Y-123973840D01*
X159648774Y-123998819D01*
X159530482Y-124047818D01*
X159424021Y-124118952D01*
X159333484Y-124209489D01*
X159262350Y-124315950D01*
X159213351Y-124434242D01*
X159188372Y-124559821D01*
X156730930Y-124559821D01*
X156733000Y-124549419D01*
X156733000Y-124421381D01*
X156708021Y-124295802D01*
X156659022Y-124177510D01*
X156587888Y-124071049D01*
X156497351Y-123980512D01*
X156390890Y-123909378D01*
X156272598Y-123860379D01*
X156147019Y-123835400D01*
X156018981Y-123835400D01*
X155893402Y-123860379D01*
X155775110Y-123909378D01*
X155668649Y-123980512D01*
X155578112Y-124071049D01*
X155506978Y-124177510D01*
X155457979Y-124295802D01*
X155433000Y-124421381D01*
X155259633Y-124421381D01*
X155211222Y-124304510D01*
X155140088Y-124198049D01*
X155049551Y-124107512D01*
X154943090Y-124036378D01*
X154824798Y-123987379D01*
X154699219Y-123962400D01*
X154571181Y-123962400D01*
X154445602Y-123987379D01*
X154327310Y-124036378D01*
X154220849Y-124107512D01*
X154130312Y-124198049D01*
X154059178Y-124304510D01*
X154010179Y-124422802D01*
X153985200Y-124548381D01*
X153621804Y-124548381D01*
X153661822Y-124488490D01*
X153710821Y-124370198D01*
X153735800Y-124244619D01*
X153735800Y-124116581D01*
X153710821Y-123991002D01*
X153661822Y-123872710D01*
X153590688Y-123766249D01*
X153507205Y-123682766D01*
X154571990Y-122617981D01*
X166863000Y-122617981D01*
X166863000Y-122746019D01*
X166887979Y-122871598D01*
X166936978Y-122989890D01*
X167008112Y-123096351D01*
X167098649Y-123186888D01*
X167205110Y-123258022D01*
X167323402Y-123307021D01*
X167448981Y-123332000D01*
X167577019Y-123332000D01*
X167702598Y-123307021D01*
X167820890Y-123258022D01*
X167927351Y-123186888D01*
X168017888Y-123096351D01*
X168089022Y-122989890D01*
X168138021Y-122871598D01*
X168163000Y-122746019D01*
X168163000Y-122617981D01*
X168138021Y-122492402D01*
X168089022Y-122374110D01*
X168017888Y-122267649D01*
X167927351Y-122177112D01*
X167820890Y-122105978D01*
X167702598Y-122056979D01*
X167577019Y-122032000D01*
X167448981Y-122032000D01*
X167323402Y-122056979D01*
X167205110Y-122105978D01*
X167098649Y-122177112D01*
X167008112Y-122267649D01*
X166936978Y-122374110D01*
X166887979Y-122492402D01*
X166863000Y-122617981D01*
X154571990Y-122617981D01*
X155356458Y-121833514D01*
X155373979Y-121921598D01*
X155422978Y-122039890D01*
X155494112Y-122146351D01*
X155584649Y-122236888D01*
X155691110Y-122308022D01*
X155809402Y-122357021D01*
X155934981Y-122382000D01*
X156063019Y-122382000D01*
X156188598Y-122357021D01*
X156306890Y-122308022D01*
X156413351Y-122236888D01*
X156503888Y-122146351D01*
X156575022Y-122039890D01*
X156624021Y-121921598D01*
X156649000Y-121796019D01*
X156649000Y-121667981D01*
X156624021Y-121542402D01*
X156575022Y-121424110D01*
X156503888Y-121317649D01*
X156413351Y-121227112D01*
X156306890Y-121155978D01*
X156188598Y-121106979D01*
X156100514Y-121089458D01*
X156527791Y-120662181D01*
X166202600Y-120662181D01*
X166202600Y-120790219D01*
X166227579Y-120915798D01*
X166276578Y-121034090D01*
X166347712Y-121140551D01*
X166438249Y-121231088D01*
X166544710Y-121302222D01*
X166663002Y-121351221D01*
X166788581Y-121376200D01*
X166916619Y-121376200D01*
X167042198Y-121351221D01*
X167160490Y-121302222D01*
X167266951Y-121231088D01*
X167357488Y-121140551D01*
X167428622Y-121034090D01*
X167477621Y-120915798D01*
X167502600Y-120790219D01*
X167502600Y-120662181D01*
X167477621Y-120536602D01*
X167428622Y-120418310D01*
X167357488Y-120311849D01*
X167266951Y-120221312D01*
X167160490Y-120150178D01*
X167042198Y-120101179D01*
X166916619Y-120076200D01*
X166788581Y-120076200D01*
X166663002Y-120101179D01*
X166544710Y-120150178D01*
X166438249Y-120221312D01*
X166347712Y-120311849D01*
X166276578Y-120418310D01*
X166227579Y-120536602D01*
X166202600Y-120662181D01*
X156527791Y-120662181D01*
X156994962Y-120195011D01*
X158675702Y-120195011D01*
X158692890Y-120196704D01*
X158710078Y-120195011D01*
X158710079Y-120195011D01*
X158761502Y-120189946D01*
X158827477Y-120169933D01*
X158888280Y-120137433D01*
X158941575Y-120093696D01*
X158952544Y-120080330D01*
X160504293Y-118528581D01*
X165694600Y-118528581D01*
X165694600Y-118656619D01*
X165719579Y-118782198D01*
X165768578Y-118900490D01*
X165839712Y-119006951D01*
X165930249Y-119097488D01*
X166036710Y-119168622D01*
X166155002Y-119217621D01*
X166280581Y-119242600D01*
X166408619Y-119242600D01*
X166534198Y-119217621D01*
X166652490Y-119168622D01*
X166758951Y-119097488D01*
X166849488Y-119006951D01*
X166920622Y-118900490D01*
X166969621Y-118782198D01*
X166994600Y-118656619D01*
X166994600Y-118528581D01*
X166969621Y-118403002D01*
X166920622Y-118284710D01*
X166849488Y-118178249D01*
X166758951Y-118087712D01*
X166652490Y-118016578D01*
X166534198Y-117967579D01*
X166408619Y-117942600D01*
X166280581Y-117942600D01*
X166155002Y-117967579D01*
X166036710Y-118016578D01*
X165930249Y-118087712D01*
X165839712Y-118178249D01*
X165768578Y-118284710D01*
X165719579Y-118403002D01*
X165694600Y-118528581D01*
X160504293Y-118528581D01*
X163352675Y-115680201D01*
X167044413Y-115680201D01*
X167061601Y-115681894D01*
X167078789Y-115680201D01*
X167078790Y-115680201D01*
X167130213Y-115675136D01*
X167196188Y-115655123D01*
X167256991Y-115622623D01*
X167310286Y-115578886D01*
X167321254Y-115565521D01*
X169316745Y-113570032D01*
X169330094Y-113559077D01*
X169373832Y-113505782D01*
X169406332Y-113444979D01*
X169426345Y-113379004D01*
X169431410Y-113327581D01*
X169431410Y-113327579D01*
X169433103Y-113310393D01*
X169431410Y-113293207D01*
X169431410Y-110660649D01*
X169460849Y-110690088D01*
X169567310Y-110761222D01*
X169685602Y-110810221D01*
X169811181Y-110835200D01*
X169939219Y-110835200D01*
X170064798Y-110810221D01*
X170183090Y-110761222D01*
X170242626Y-110721442D01*
X170242625Y-115444200D01*
X169735727Y-115951099D01*
X169659819Y-115936000D01*
X169531781Y-115936000D01*
X169406202Y-115960979D01*
X169287910Y-116009978D01*
X169181449Y-116081112D01*
X169090912Y-116171649D01*
X169019778Y-116278110D01*
X168970779Y-116396402D01*
X168945800Y-116521981D01*
X168945800Y-116650019D01*
X168970779Y-116775598D01*
X169019778Y-116893890D01*
X169090912Y-117000351D01*
X169181449Y-117090888D01*
X169205114Y-117106700D01*
X169181449Y-117122512D01*
X169090912Y-117213049D01*
X169019778Y-117319510D01*
X168970779Y-117437802D01*
X168945800Y-117563381D01*
X168945800Y-117691419D01*
X168970779Y-117816998D01*
X169019778Y-117935290D01*
X169090912Y-118041751D01*
X169181449Y-118132288D01*
X169287910Y-118203422D01*
X169406202Y-118252421D01*
X169531781Y-118277400D01*
X169659819Y-118277400D01*
X169785398Y-118252421D01*
X169850008Y-118225658D01*
X169208921Y-118858773D01*
X169194716Y-118870430D01*
X169173493Y-118896291D01*
X169152207Y-118921900D01*
X169151681Y-118922870D01*
X169150979Y-118923725D01*
X169135248Y-118953155D01*
X169119327Y-118982498D01*
X169118999Y-118983555D01*
X169118479Y-118984528D01*
X169108815Y-119016386D01*
X169098901Y-119048347D01*
X169098785Y-119049450D01*
X169098466Y-119050503D01*
X169095208Y-119083581D01*
X169091714Y-119116915D01*
X169093401Y-119135214D01*
X169093401Y-119136914D01*
X169029049Y-119179912D01*
X168938512Y-119270449D01*
X168867378Y-119376910D01*
X168818379Y-119495202D01*
X168793400Y-119620781D01*
X168793400Y-119748819D01*
X168818379Y-119874398D01*
X168867378Y-119992690D01*
X168938512Y-120099151D01*
X169029049Y-120189688D01*
X169135510Y-120260822D01*
X169253802Y-120309821D01*
X169379381Y-120334800D01*
X169507419Y-120334800D01*
X169632998Y-120309821D01*
X169751290Y-120260822D01*
X169857751Y-120189688D01*
X169948288Y-120099151D01*
X170019422Y-119992690D01*
X170068421Y-119874398D01*
X170093400Y-119748819D01*
X170093400Y-119620781D01*
X170068421Y-119495202D01*
X170019422Y-119376910D01*
X169948288Y-119270449D01*
X169868775Y-119190936D01*
X170375034Y-118690974D01*
X170393179Y-118782198D01*
X170442178Y-118900490D01*
X170513312Y-119006951D01*
X170603849Y-119097488D01*
X170710310Y-119168622D01*
X170828602Y-119217621D01*
X170954181Y-119242600D01*
X171082219Y-119242600D01*
X171207798Y-119217621D01*
X171326090Y-119168622D01*
X171432551Y-119097488D01*
X171523088Y-119006951D01*
X171594222Y-118900490D01*
X171643221Y-118782198D01*
X171668200Y-118656619D01*
X171668200Y-118530125D01*
X178730560Y-118530125D01*
X178730560Y-118658163D01*
X178755539Y-118783742D01*
X178804538Y-118902034D01*
X178875672Y-119008495D01*
X178966209Y-119099032D01*
X179072670Y-119170166D01*
X179190962Y-119219165D01*
X179316541Y-119244144D01*
X179444579Y-119244144D01*
X179570158Y-119219165D01*
X179688450Y-119170166D01*
X179794911Y-119099032D01*
X179885448Y-119008495D01*
X179956582Y-118902034D01*
X180005581Y-118783742D01*
X180030560Y-118658163D01*
X180030560Y-118530125D01*
X180005581Y-118404546D01*
X179956582Y-118286254D01*
X179885448Y-118179793D01*
X179794911Y-118089256D01*
X179688450Y-118018122D01*
X179570158Y-117969123D01*
X179444579Y-117944144D01*
X179316541Y-117944144D01*
X179190962Y-117969123D01*
X179072670Y-118018122D01*
X178966209Y-118089256D01*
X178875672Y-118179793D01*
X178804538Y-118286254D01*
X178755539Y-118404546D01*
X178730560Y-118530125D01*
X171668200Y-118530125D01*
X171668200Y-118528581D01*
X171643221Y-118403002D01*
X171594222Y-118284710D01*
X171523088Y-118178249D01*
X171432551Y-118087712D01*
X171326090Y-118016578D01*
X171207798Y-117967579D01*
X171124347Y-117950980D01*
X171252691Y-117824233D01*
X171266884Y-117812585D01*
X171288038Y-117786808D01*
X171309393Y-117761116D01*
X171309919Y-117760147D01*
X171310622Y-117759290D01*
X171326383Y-117729803D01*
X171342273Y-117700518D01*
X171342600Y-117699463D01*
X171343122Y-117698487D01*
X171352809Y-117666551D01*
X171362699Y-117634670D01*
X171362814Y-117633569D01*
X171363135Y-117632512D01*
X171366406Y-117599300D01*
X171369886Y-117566101D01*
X171368200Y-117547812D01*
X171368200Y-115551981D01*
X180566000Y-115551981D01*
X180566000Y-115680019D01*
X180590979Y-115805598D01*
X180639978Y-115923890D01*
X180711112Y-116030351D01*
X180801649Y-116120888D01*
X180806307Y-116124000D01*
X180801649Y-116127112D01*
X180711112Y-116217649D01*
X180639978Y-116324110D01*
X180590979Y-116442402D01*
X180566000Y-116567981D01*
X180566000Y-116696019D01*
X180590979Y-116821598D01*
X180639978Y-116939890D01*
X180711112Y-117046351D01*
X180801649Y-117136888D01*
X180908110Y-117208022D01*
X181026402Y-117257021D01*
X181151981Y-117282000D01*
X181280019Y-117282000D01*
X181405598Y-117257021D01*
X181523890Y-117208022D01*
X181630351Y-117136888D01*
X181720888Y-117046351D01*
X181792022Y-116939890D01*
X181841021Y-116821598D01*
X181866000Y-116696019D01*
X181866000Y-116567981D01*
X181841021Y-116442402D01*
X181792022Y-116324110D01*
X181720888Y-116217649D01*
X181630351Y-116127112D01*
X181625693Y-116124000D01*
X181630351Y-116120888D01*
X181720888Y-116030351D01*
X181792022Y-115923890D01*
X181841021Y-115805598D01*
X181866000Y-115680019D01*
X181866000Y-115551981D01*
X181841021Y-115426402D01*
X181792022Y-115308110D01*
X181720888Y-115201649D01*
X181630351Y-115111112D01*
X181523890Y-115039978D01*
X181405598Y-114990979D01*
X181280019Y-114966000D01*
X181151981Y-114966000D01*
X181026402Y-114990979D01*
X180908110Y-115039978D01*
X180801649Y-115111112D01*
X180711112Y-115201649D01*
X180639978Y-115308110D01*
X180590979Y-115426402D01*
X180566000Y-115551981D01*
X171368200Y-115551981D01*
X171368200Y-109855000D01*
X171908000Y-109855000D01*
X171908000Y-115316000D01*
X171908961Y-115325755D01*
X171911806Y-115335134D01*
X171916427Y-115343779D01*
X171922645Y-115351355D01*
X171930221Y-115357573D01*
X171938866Y-115362194D01*
X171948245Y-115365039D01*
X171958000Y-115366000D01*
X177419000Y-115366000D01*
X177428755Y-115365039D01*
X177438134Y-115362194D01*
X177446779Y-115357573D01*
X177454355Y-115351355D01*
X177460573Y-115343779D01*
X177465194Y-115335134D01*
X177468039Y-115325755D01*
X177469000Y-115316000D01*
X177469000Y-110241278D01*
X177523712Y-110323161D01*
X177614249Y-110413698D01*
X177720710Y-110484832D01*
X177839002Y-110533831D01*
X177964581Y-110558810D01*
X178092619Y-110558810D01*
X178130776Y-110551220D01*
X178127900Y-110565681D01*
X178127900Y-110693719D01*
X178152879Y-110819298D01*
X178201878Y-110937590D01*
X178273012Y-111044051D01*
X178363549Y-111134588D01*
X178470010Y-111205722D01*
X178588302Y-111254721D01*
X178713881Y-111279700D01*
X178841919Y-111279700D01*
X178967498Y-111254721D01*
X179085790Y-111205722D01*
X179192251Y-111134588D01*
X179282788Y-111044051D01*
X179353922Y-110937590D01*
X179402921Y-110819298D01*
X179427900Y-110693719D01*
X179427900Y-110565681D01*
X179402921Y-110440102D01*
X179353922Y-110321810D01*
X179282788Y-110215349D01*
X179192251Y-110124812D01*
X179085790Y-110053678D01*
X178967498Y-110004679D01*
X178841919Y-109979700D01*
X178713881Y-109979700D01*
X178675724Y-109987290D01*
X178678600Y-109972829D01*
X178678600Y-109844791D01*
X178653621Y-109719212D01*
X178604622Y-109600920D01*
X178533488Y-109494459D01*
X178442951Y-109403922D01*
X178336490Y-109332788D01*
X178218198Y-109283789D01*
X178092619Y-109258810D01*
X177964581Y-109258810D01*
X177839002Y-109283789D01*
X177720710Y-109332788D01*
X177614249Y-109403922D01*
X177523712Y-109494459D01*
X177452578Y-109600920D01*
X177403579Y-109719212D01*
X177386515Y-109805000D01*
X171958000Y-109805000D01*
X171948245Y-109805961D01*
X171938866Y-109808806D01*
X171930221Y-109813427D01*
X171922645Y-109819645D01*
X171916427Y-109827221D01*
X171911806Y-109835866D01*
X171908961Y-109845245D01*
X171908000Y-109855000D01*
X171368200Y-109855000D01*
X171368200Y-107397983D01*
X174432200Y-107397983D01*
X174432200Y-107526021D01*
X174457179Y-107651600D01*
X174506178Y-107769892D01*
X174577312Y-107876353D01*
X174667849Y-107966890D01*
X174774310Y-108038024D01*
X174892602Y-108087023D01*
X175018181Y-108112002D01*
X175146219Y-108112002D01*
X175271798Y-108087023D01*
X175390090Y-108038024D01*
X175496551Y-107966890D01*
X175587088Y-107876353D01*
X175658222Y-107769892D01*
X175707221Y-107651600D01*
X175726280Y-107555781D01*
X176667400Y-107555781D01*
X176667400Y-107683819D01*
X176692379Y-107809398D01*
X176741378Y-107927690D01*
X176812512Y-108034151D01*
X176903049Y-108124688D01*
X177009510Y-108195822D01*
X177127802Y-108244821D01*
X177253381Y-108269800D01*
X177381419Y-108269800D01*
X177506998Y-108244821D01*
X177625290Y-108195822D01*
X177731751Y-108124688D01*
X177822288Y-108034151D01*
X177893422Y-107927690D01*
X177942421Y-107809398D01*
X177967400Y-107683819D01*
X177967400Y-107555781D01*
X177942421Y-107430202D01*
X177893422Y-107311910D01*
X177822288Y-107205449D01*
X177731751Y-107114912D01*
X177625290Y-107043778D01*
X177506998Y-106994779D01*
X177381419Y-106969800D01*
X177253381Y-106969800D01*
X177127802Y-106994779D01*
X177009510Y-107043778D01*
X176903049Y-107114912D01*
X176812512Y-107205449D01*
X176741378Y-107311910D01*
X176692379Y-107430202D01*
X176667400Y-107555781D01*
X175726280Y-107555781D01*
X175732200Y-107526021D01*
X175732200Y-107397983D01*
X175707221Y-107272404D01*
X175658222Y-107154112D01*
X175587088Y-107047651D01*
X175496551Y-106957114D01*
X175390090Y-106885980D01*
X175271798Y-106836981D01*
X175146219Y-106812002D01*
X175018181Y-106812002D01*
X174892602Y-106836981D01*
X174774310Y-106885980D01*
X174667849Y-106957114D01*
X174577312Y-107047651D01*
X174506178Y-107154112D01*
X174457179Y-107272404D01*
X174432200Y-107397983D01*
X171368200Y-107397983D01*
X171368200Y-106709847D01*
X174191475Y-103863714D01*
X174210649Y-103882888D01*
X174317110Y-103954022D01*
X174408520Y-103991886D01*
X174376315Y-104018315D01*
X174332578Y-104071610D01*
X174300078Y-104132413D01*
X174280065Y-104198388D01*
X174273307Y-104267000D01*
X174280065Y-104335612D01*
X174300078Y-104401587D01*
X174332578Y-104462390D01*
X174376315Y-104515685D01*
X174429610Y-104559422D01*
X174490413Y-104591922D01*
X174556388Y-104611935D01*
X174607811Y-104617000D01*
X174642800Y-104617000D01*
X174685797Y-104681351D01*
X174776334Y-104771888D01*
X174882795Y-104843022D01*
X175001087Y-104892021D01*
X175126666Y-104917000D01*
X175254704Y-104917000D01*
X175380283Y-104892021D01*
X175498575Y-104843022D01*
X175605036Y-104771888D01*
X175695573Y-104681351D01*
X175766707Y-104574890D01*
X175815706Y-104456598D01*
X175840685Y-104331019D01*
X175840685Y-104202981D01*
X175815706Y-104077402D01*
X175766707Y-103959110D01*
X175695573Y-103852649D01*
X175675001Y-103832077D01*
X175675001Y-102952190D01*
X175676694Y-102935001D01*
X175669936Y-102866389D01*
X175667376Y-102857950D01*
X175924499Y-103115074D01*
X175924500Y-103569803D01*
X175922806Y-103587001D01*
X175929564Y-103655612D01*
X175948710Y-103718728D01*
X175949578Y-103721588D01*
X175982078Y-103782391D01*
X176025815Y-103835686D01*
X176039175Y-103846650D01*
X176706052Y-104513529D01*
X176717012Y-104526884D01*
X176756661Y-104559422D01*
X176770307Y-104570621D01*
X176831110Y-104603121D01*
X176897085Y-104623134D01*
X176965697Y-104629892D01*
X176982886Y-104628199D01*
X177785515Y-104628199D01*
X177757378Y-104670310D01*
X177708379Y-104788602D01*
X177683400Y-104914181D01*
X177683400Y-105042219D01*
X177708379Y-105167798D01*
X177757378Y-105286090D01*
X177828512Y-105392551D01*
X177919049Y-105483088D01*
X178025510Y-105554222D01*
X178143802Y-105603221D01*
X178269381Y-105628200D01*
X178397419Y-105628200D01*
X178522998Y-105603221D01*
X178641290Y-105554222D01*
X178747751Y-105483088D01*
X178838288Y-105392551D01*
X178909422Y-105286090D01*
X178958421Y-105167798D01*
X178975942Y-105079714D01*
X179741801Y-105845574D01*
X179741801Y-106089662D01*
X179712951Y-106060812D01*
X179606490Y-105989678D01*
X179488198Y-105940679D01*
X179362619Y-105915700D01*
X179234581Y-105915700D01*
X179109002Y-105940679D01*
X178990710Y-105989678D01*
X178884249Y-106060812D01*
X178793712Y-106151349D01*
X178722578Y-106257810D01*
X178673579Y-106376102D01*
X178648600Y-106501681D01*
X178648600Y-106629719D01*
X178663699Y-106705628D01*
X178663277Y-106706050D01*
X178649916Y-106717015D01*
X178606179Y-106770310D01*
X178573679Y-106831113D01*
X178565726Y-106857331D01*
X178553666Y-106897088D01*
X178546908Y-106965699D01*
X178548601Y-106982887D01*
X178548602Y-108670405D01*
X178546908Y-108687603D01*
X178553666Y-108756214D01*
X178561757Y-108782885D01*
X178573680Y-108822190D01*
X178606180Y-108882993D01*
X178649917Y-108936288D01*
X178663277Y-108947252D01*
X179432801Y-109716778D01*
X179432802Y-113091716D01*
X179390690Y-113063578D01*
X179272398Y-113014579D01*
X179146819Y-112989600D01*
X179018781Y-112989600D01*
X178893202Y-113014579D01*
X178774910Y-113063578D01*
X178668449Y-113134712D01*
X178577912Y-113225249D01*
X178506778Y-113331710D01*
X178457779Y-113450002D01*
X178432800Y-113575581D01*
X178432800Y-113703619D01*
X178457779Y-113829198D01*
X178506778Y-113947490D01*
X178577912Y-114053951D01*
X178668449Y-114144488D01*
X178774910Y-114215622D01*
X178893202Y-114264621D01*
X179018781Y-114289600D01*
X179146819Y-114289600D01*
X179224679Y-114274113D01*
X179191205Y-114324211D01*
X179142206Y-114442503D01*
X179117227Y-114568082D01*
X179117227Y-114696120D01*
X179142206Y-114821699D01*
X179191205Y-114939991D01*
X179262339Y-115046452D01*
X179352876Y-115136989D01*
X179459337Y-115208123D01*
X179577629Y-115257122D01*
X179703208Y-115282101D01*
X179831246Y-115282101D01*
X179956825Y-115257122D01*
X180075117Y-115208123D01*
X180181578Y-115136989D01*
X180272115Y-115046452D01*
X180343249Y-114939991D01*
X180392248Y-114821699D01*
X180417227Y-114696120D01*
X180417227Y-114568082D01*
X180392248Y-114442503D01*
X180343249Y-114324211D01*
X180272115Y-114217750D01*
X180181578Y-114127213D01*
X180132801Y-114094622D01*
X180132801Y-109588992D01*
X180134494Y-109571803D01*
X180127736Y-109503191D01*
X180107723Y-109437216D01*
X180075223Y-109376413D01*
X180042443Y-109336470D01*
X180042441Y-109336468D01*
X180031485Y-109323118D01*
X180018136Y-109312163D01*
X179857314Y-109151342D01*
X179945398Y-109133821D01*
X180063690Y-109084822D01*
X180170151Y-109013688D01*
X180260688Y-108923151D01*
X180331822Y-108816690D01*
X180380821Y-108698398D01*
X180398342Y-108610314D01*
X180828200Y-109040173D01*
X180828201Y-111999514D01*
X180763849Y-112042512D01*
X180673312Y-112133049D01*
X180602178Y-112239510D01*
X180553179Y-112357802D01*
X180528200Y-112483381D01*
X180528200Y-112611419D01*
X180553179Y-112736998D01*
X180602178Y-112855290D01*
X180673312Y-112961751D01*
X180763849Y-113052288D01*
X180870310Y-113123422D01*
X180988602Y-113172421D01*
X181114181Y-113197400D01*
X181242219Y-113197400D01*
X181367798Y-113172421D01*
X181486090Y-113123422D01*
X181592551Y-113052288D01*
X181683088Y-112961751D01*
X181754222Y-112855290D01*
X181803221Y-112736998D01*
X181828200Y-112611419D01*
X181828200Y-112483381D01*
X181803221Y-112357802D01*
X181754222Y-112239510D01*
X181683088Y-112133049D01*
X181592551Y-112042512D01*
X181528200Y-111999515D01*
X181528200Y-108912386D01*
X181529893Y-108895197D01*
X181523135Y-108826585D01*
X181517064Y-108806572D01*
X181503122Y-108760611D01*
X181470622Y-108699808D01*
X181426884Y-108646513D01*
X181413535Y-108635558D01*
X180441801Y-107663826D01*
X180441801Y-105717784D01*
X180443494Y-105700598D01*
X180441408Y-105679421D01*
X180436736Y-105631987D01*
X180416723Y-105566012D01*
X180384223Y-105505209D01*
X180340485Y-105451914D01*
X180327136Y-105440959D01*
X178929054Y-104042879D01*
X178918086Y-104029514D01*
X178864791Y-103985777D01*
X178803988Y-103953277D01*
X178738013Y-103933264D01*
X178686590Y-103928199D01*
X178686589Y-103928199D01*
X178669401Y-103926506D01*
X178652213Y-103928199D01*
X177110672Y-103928199D01*
X176624499Y-103442028D01*
X176624499Y-103171281D01*
X178410300Y-103171281D01*
X178410300Y-103299319D01*
X178435279Y-103424898D01*
X178484278Y-103543190D01*
X178555412Y-103649651D01*
X178645949Y-103740188D01*
X178752410Y-103811322D01*
X178870702Y-103860321D01*
X178996281Y-103885300D01*
X179124319Y-103885300D01*
X179249898Y-103860321D01*
X179368190Y-103811322D01*
X179474651Y-103740188D01*
X179565188Y-103649651D01*
X179636322Y-103543190D01*
X179668853Y-103464654D01*
X179713843Y-103531987D01*
X179804380Y-103622524D01*
X179910841Y-103693658D01*
X180029133Y-103742657D01*
X180154712Y-103767636D01*
X180282750Y-103767636D01*
X180408329Y-103742657D01*
X180526621Y-103693658D01*
X180633082Y-103622524D01*
X180716366Y-103539240D01*
X180804370Y-103627244D01*
X180910831Y-103698378D01*
X181029123Y-103747377D01*
X181154702Y-103772356D01*
X181282740Y-103772356D01*
X181408319Y-103747377D01*
X181526611Y-103698378D01*
X181633072Y-103627244D01*
X181723609Y-103536707D01*
X181794743Y-103430246D01*
X181843742Y-103311954D01*
X181868721Y-103186375D01*
X181868721Y-103058337D01*
X181843742Y-102932758D01*
X181794743Y-102814466D01*
X181723609Y-102708005D01*
X181633072Y-102617468D01*
X181526611Y-102546334D01*
X181408319Y-102497335D01*
X181282740Y-102472356D01*
X181154702Y-102472356D01*
X181029123Y-102497335D01*
X180910831Y-102546334D01*
X180804370Y-102617468D01*
X180721086Y-102700752D01*
X180633082Y-102612748D01*
X180526621Y-102541614D01*
X180408329Y-102492615D01*
X180282750Y-102467636D01*
X180154712Y-102467636D01*
X180029133Y-102492615D01*
X179910841Y-102541614D01*
X179804380Y-102612748D01*
X179713843Y-102703285D01*
X179642709Y-102809746D01*
X179610178Y-102888282D01*
X179565188Y-102820949D01*
X179474651Y-102730412D01*
X179368190Y-102659278D01*
X179249898Y-102610279D01*
X179124319Y-102585300D01*
X178996281Y-102585300D01*
X178870702Y-102610279D01*
X178752410Y-102659278D01*
X178645949Y-102730412D01*
X178555412Y-102820949D01*
X178484278Y-102927410D01*
X178435279Y-103045702D01*
X178410300Y-103171281D01*
X176624499Y-103171281D01*
X176624499Y-102987284D01*
X176626192Y-102970098D01*
X176621987Y-102927410D01*
X176619434Y-102901487D01*
X176599421Y-102835512D01*
X176566921Y-102774709D01*
X176523183Y-102721414D01*
X176509834Y-102710459D01*
X175745261Y-101945888D01*
X175734293Y-101932523D01*
X175680998Y-101888786D01*
X175620195Y-101856286D01*
X175554220Y-101836273D01*
X175502797Y-101831208D01*
X175502796Y-101831208D01*
X175485608Y-101829515D01*
X175468420Y-101831208D01*
X151945082Y-101831208D01*
X149186801Y-99072928D01*
X149201900Y-98997019D01*
X149201900Y-98868981D01*
X149176921Y-98743402D01*
X149127922Y-98625110D01*
X149056788Y-98518649D01*
X148966251Y-98428112D01*
X148859790Y-98356978D01*
X148741498Y-98307979D01*
X148615919Y-98283000D01*
X148487881Y-98283000D01*
X148362302Y-98307979D01*
X148244010Y-98356978D01*
X148137549Y-98428112D01*
X148047012Y-98518649D01*
X147975878Y-98625110D01*
X147926879Y-98743402D01*
X147901900Y-98868981D01*
X147901900Y-98997019D01*
X147926879Y-99122598D01*
X147975878Y-99240890D01*
X148047012Y-99347351D01*
X148137549Y-99437888D01*
X148244010Y-99509022D01*
X148362302Y-99558021D01*
X148487881Y-99583000D01*
X148615919Y-99583000D01*
X148691828Y-99567901D01*
X151540459Y-102416533D01*
X151551423Y-102429893D01*
X151597414Y-102467636D01*
X151604718Y-102473630D01*
X151665520Y-102506130D01*
X151731496Y-102526143D01*
X151800108Y-102532901D01*
X151817297Y-102531208D01*
X173940815Y-102531208D01*
X170357301Y-106114724D01*
X170343941Y-106125688D01*
X170300204Y-106178983D01*
X170287539Y-106202678D01*
X170267704Y-106239786D01*
X170247690Y-106305762D01*
X170240932Y-106374373D01*
X170242626Y-106391571D01*
X170242626Y-106876692D01*
X170200514Y-106848554D01*
X170082222Y-106799555D01*
X169956643Y-106774576D01*
X169828605Y-106774576D01*
X169731401Y-106793911D01*
X169731401Y-106208788D01*
X169733094Y-106191599D01*
X169726336Y-106122987D01*
X169706323Y-106057012D01*
X169673823Y-105996209D01*
X169668463Y-105989678D01*
X169630086Y-105942914D01*
X169616731Y-105931954D01*
X169277054Y-105592279D01*
X169266086Y-105578914D01*
X169212791Y-105535177D01*
X169151988Y-105502677D01*
X169086013Y-105482664D01*
X169034590Y-105477599D01*
X169034589Y-105477599D01*
X169017401Y-105475906D01*
X169000213Y-105477599D01*
X168362588Y-105477599D01*
X168345399Y-105475906D01*
X168328210Y-105477599D01*
X168276787Y-105482664D01*
X168210812Y-105502677D01*
X168150009Y-105535177D01*
X168096714Y-105578914D01*
X168085754Y-105592269D01*
X166591876Y-107086149D01*
X166578515Y-107097114D01*
X166534778Y-107150409D01*
X166502278Y-107211212D01*
X166495911Y-107232203D01*
X166482265Y-107277187D01*
X166475507Y-107345798D01*
X166477200Y-107362987D01*
X166477201Y-107986314D01*
X166412849Y-108029312D01*
X166322312Y-108119849D01*
X166251178Y-108226310D01*
X166202179Y-108344602D01*
X166177200Y-108470181D01*
X166177200Y-108598219D01*
X166202179Y-108723798D01*
X166251178Y-108842090D01*
X166322312Y-108948551D01*
X166412849Y-109039088D01*
X166417507Y-109042200D01*
X166412849Y-109045312D01*
X166322312Y-109135849D01*
X166251178Y-109242310D01*
X166202179Y-109360602D01*
X166177200Y-109486181D01*
X166177200Y-109614219D01*
X166202179Y-109739798D01*
X166251178Y-109858090D01*
X166322312Y-109964551D01*
X166412849Y-110055088D01*
X166519310Y-110126222D01*
X166637602Y-110175221D01*
X166763181Y-110200200D01*
X166891219Y-110200200D01*
X167016798Y-110175221D01*
X167135090Y-110126222D01*
X167241551Y-110055088D01*
X167332088Y-109964551D01*
X167403222Y-109858090D01*
X167452221Y-109739798D01*
X167477200Y-109614219D01*
X167477200Y-109486181D01*
X167452221Y-109360602D01*
X167403222Y-109242310D01*
X167332088Y-109135849D01*
X167241551Y-109045312D01*
X167236893Y-109042200D01*
X167241551Y-109039088D01*
X167332088Y-108948551D01*
X167403222Y-108842090D01*
X167452221Y-108723798D01*
X167477200Y-108598219D01*
X167477200Y-108470181D01*
X167452221Y-108344602D01*
X167403222Y-108226310D01*
X167332088Y-108119849D01*
X167241551Y-108029312D01*
X167177200Y-107986315D01*
X167177200Y-107490771D01*
X168038858Y-106629114D01*
X168056379Y-106717198D01*
X168105378Y-106835490D01*
X168176512Y-106941951D01*
X168267049Y-107032488D01*
X168331400Y-107075486D01*
X168331401Y-109145827D01*
X158833742Y-118643487D01*
X158816221Y-118555402D01*
X158767222Y-118437110D01*
X158696088Y-118330649D01*
X158605551Y-118240112D01*
X158499090Y-118168978D01*
X158380798Y-118119979D01*
X158255219Y-118095000D01*
X158177596Y-118095000D01*
X157536399Y-117453804D01*
X157536399Y-114235981D01*
X158150800Y-114235981D01*
X158150800Y-114364019D01*
X158175779Y-114489598D01*
X158224778Y-114607890D01*
X158295912Y-114714351D01*
X158386449Y-114804888D01*
X158492910Y-114876022D01*
X158611202Y-114925021D01*
X158736781Y-114950000D01*
X158864819Y-114950000D01*
X158990398Y-114925021D01*
X159108690Y-114876022D01*
X159215151Y-114804888D01*
X159305688Y-114714351D01*
X159376822Y-114607890D01*
X159425821Y-114489598D01*
X159450800Y-114364019D01*
X159450800Y-114235981D01*
X159425821Y-114110402D01*
X159376822Y-113992110D01*
X159305688Y-113885649D01*
X159215151Y-113795112D01*
X159108690Y-113723978D01*
X158990398Y-113674979D01*
X158864819Y-113650000D01*
X158736781Y-113650000D01*
X158611202Y-113674979D01*
X158492910Y-113723978D01*
X158386449Y-113795112D01*
X158295912Y-113885649D01*
X158224778Y-113992110D01*
X158175779Y-114110402D01*
X158150800Y-114235981D01*
X157536399Y-114235981D01*
X157536399Y-107728091D01*
X157538575Y-107705997D01*
X157536399Y-107683902D01*
X157536399Y-107683892D01*
X157529888Y-107617782D01*
X157504156Y-107532956D01*
X157491098Y-107508527D01*
X157462370Y-107454780D01*
X157420227Y-107403429D01*
X157420223Y-107403425D01*
X157420187Y-107403381D01*
X161046400Y-107403381D01*
X161046400Y-107531419D01*
X161071379Y-107656998D01*
X161120378Y-107775290D01*
X161191512Y-107881751D01*
X161282049Y-107972288D01*
X161388510Y-108043422D01*
X161506802Y-108092421D01*
X161632381Y-108117400D01*
X161760419Y-108117400D01*
X161885998Y-108092421D01*
X162004290Y-108043422D01*
X162110751Y-107972288D01*
X162201288Y-107881751D01*
X162272422Y-107775290D01*
X162321421Y-107656998D01*
X162346400Y-107531419D01*
X162346400Y-107403381D01*
X162321421Y-107277802D01*
X162272422Y-107159510D01*
X162201288Y-107053049D01*
X162110751Y-106962512D01*
X162004290Y-106891378D01*
X161885998Y-106842379D01*
X161760419Y-106817400D01*
X161632381Y-106817400D01*
X161506802Y-106842379D01*
X161388510Y-106891378D01*
X161282049Y-106962512D01*
X161191512Y-107053049D01*
X161120378Y-107159510D01*
X161071379Y-107277802D01*
X161046400Y-107403381D01*
X157420187Y-107403381D01*
X157406136Y-107386260D01*
X157388972Y-107372174D01*
X155845379Y-105828581D01*
X161008300Y-105828581D01*
X161008300Y-105956619D01*
X161033279Y-106082198D01*
X161082278Y-106200490D01*
X161153412Y-106306951D01*
X161243949Y-106397488D01*
X161350410Y-106468622D01*
X161468702Y-106517621D01*
X161594281Y-106542600D01*
X161722319Y-106542600D01*
X161847898Y-106517621D01*
X161966190Y-106468622D01*
X162072651Y-106397488D01*
X162163188Y-106306951D01*
X162234322Y-106200490D01*
X162283321Y-106082198D01*
X162308300Y-105956619D01*
X162308300Y-105828581D01*
X162283321Y-105703002D01*
X162234322Y-105584710D01*
X162163188Y-105478249D01*
X162072651Y-105387712D01*
X161966190Y-105316578D01*
X161847898Y-105267579D01*
X161722319Y-105242600D01*
X161594281Y-105242600D01*
X161468702Y-105267579D01*
X161350410Y-105316578D01*
X161243949Y-105387712D01*
X161153412Y-105478249D01*
X161082278Y-105584710D01*
X161033279Y-105703002D01*
X161008300Y-105828581D01*
X155845379Y-105828581D01*
X155479232Y-105462435D01*
X155465140Y-105445264D01*
X155396619Y-105389030D01*
X155318444Y-105347244D01*
X155233618Y-105321512D01*
X155167508Y-105315001D01*
X155167497Y-105315001D01*
X155145403Y-105312825D01*
X155123309Y-105315001D01*
X155028239Y-105315001D01*
X154973351Y-105260113D01*
X154866890Y-105188979D01*
X154748598Y-105139980D01*
X154623019Y-105115001D01*
X154494981Y-105115001D01*
X154369402Y-105139980D01*
X154251110Y-105188979D01*
X154144649Y-105260113D01*
X154054112Y-105350650D01*
X153982978Y-105457111D01*
X153933979Y-105575403D01*
X153909000Y-105700982D01*
X153909000Y-105829020D01*
X153933979Y-105954599D01*
X153982978Y-106072891D01*
X154054112Y-106179352D01*
X154144649Y-106269889D01*
X154251110Y-106341023D01*
X154369402Y-106390022D01*
X154494981Y-106415001D01*
X154623019Y-106415001D01*
X154748598Y-106390022D01*
X154866890Y-106341023D01*
X154973351Y-106269889D01*
X154993623Y-106249617D01*
X155491573Y-106747567D01*
X155398002Y-106766179D01*
X155279710Y-106815178D01*
X155173249Y-106886312D01*
X155082712Y-106976849D01*
X155011578Y-107083310D01*
X154962579Y-107201602D01*
X154937600Y-107327181D01*
X154937600Y-107455219D01*
X154962579Y-107580798D01*
X155011578Y-107699090D01*
X155082712Y-107805551D01*
X155173249Y-107896088D01*
X155194051Y-107909987D01*
X155146544Y-107919437D01*
X155028252Y-107968436D01*
X154921791Y-108039570D01*
X154831254Y-108130107D01*
X154760120Y-108236568D01*
X154711121Y-108354860D01*
X154705748Y-108381870D01*
X154678132Y-108315199D01*
X154606998Y-108208738D01*
X154516461Y-108118201D01*
X154410000Y-108047067D01*
X154291708Y-107998068D01*
X154166129Y-107973089D01*
X154038091Y-107973089D01*
X153912512Y-107998068D01*
X153794220Y-108047067D01*
X153687759Y-108118201D01*
X153597222Y-108208738D01*
X153526088Y-108315199D01*
X153477089Y-108433491D01*
X153452110Y-108559070D01*
X153452110Y-108687108D01*
X153477089Y-108812687D01*
X153526088Y-108930979D01*
X153597222Y-109037440D01*
X153681514Y-109121732D01*
X153594510Y-109208736D01*
X153523376Y-109315197D01*
X153474377Y-109433489D01*
X153449398Y-109559068D01*
X153449398Y-109687106D01*
X153474377Y-109812685D01*
X153523376Y-109930977D01*
X153594510Y-110037438D01*
X153685047Y-110127975D01*
X153791508Y-110199109D01*
X153909800Y-110248108D01*
X154035379Y-110273087D01*
X154163417Y-110273087D01*
X154288996Y-110248108D01*
X154407288Y-110199109D01*
X154513749Y-110127975D01*
X154604286Y-110037438D01*
X154675420Y-109930977D01*
X154724419Y-109812685D01*
X154749398Y-109687106D01*
X154749398Y-109559068D01*
X154724419Y-109433489D01*
X154675420Y-109315197D01*
X154604286Y-109208736D01*
X154519994Y-109124444D01*
X154606998Y-109037440D01*
X154678132Y-108930979D01*
X154727131Y-108812687D01*
X154732504Y-108785677D01*
X154760120Y-108852348D01*
X154831254Y-108958809D01*
X154921791Y-109049346D01*
X155028252Y-109120480D01*
X155146544Y-109169479D01*
X155272123Y-109194458D01*
X155400161Y-109194458D01*
X155525740Y-109169479D01*
X155644032Y-109120480D01*
X155750493Y-109049346D01*
X155841030Y-108958809D01*
X155912164Y-108852348D01*
X155961163Y-108734056D01*
X155986142Y-108608477D01*
X155986142Y-108480439D01*
X155961163Y-108354860D01*
X155912164Y-108236568D01*
X155841030Y-108130107D01*
X155750493Y-108039570D01*
X155729691Y-108025671D01*
X155777198Y-108016221D01*
X155895490Y-107967222D01*
X156001951Y-107896088D01*
X156092488Y-107805551D01*
X156163622Y-107699090D01*
X156212621Y-107580798D01*
X156231233Y-107487227D01*
X156636399Y-107892393D01*
X156636400Y-117618095D01*
X156634223Y-117640199D01*
X156642911Y-117728414D01*
X156646971Y-117741800D01*
X155941651Y-117036480D01*
X155930683Y-117023115D01*
X155877388Y-116979378D01*
X155816585Y-116946878D01*
X155750610Y-116926865D01*
X155699187Y-116921800D01*
X155699186Y-116921800D01*
X155681998Y-116920107D01*
X155664810Y-116921800D01*
X142737085Y-116921800D01*
X142694088Y-116857449D01*
X142603551Y-116766912D01*
X142497090Y-116695778D01*
X142378798Y-116646779D01*
X142253219Y-116621800D01*
X142125181Y-116621800D01*
X141999602Y-116646779D01*
X141881310Y-116695778D01*
X141774849Y-116766912D01*
X141684312Y-116857449D01*
X141613178Y-116963910D01*
X141564179Y-117082202D01*
X141539200Y-117207781D01*
X137702000Y-117207781D01*
X137702000Y-116451033D01*
X138729465Y-116451033D01*
X138729465Y-116579071D01*
X138754444Y-116704650D01*
X138803443Y-116822942D01*
X138874577Y-116929403D01*
X138965114Y-117019940D01*
X139071575Y-117091074D01*
X139189867Y-117140073D01*
X139315446Y-117165052D01*
X139443484Y-117165052D01*
X139569063Y-117140073D01*
X139687355Y-117091074D01*
X139793816Y-117019940D01*
X139884353Y-116929403D01*
X139955487Y-116822942D01*
X140004486Y-116704650D01*
X140029465Y-116579071D01*
X140029465Y-116451033D01*
X140004486Y-116325454D01*
X139955487Y-116207162D01*
X139884353Y-116100701D01*
X139793816Y-116010164D01*
X139687355Y-115939030D01*
X139569063Y-115890031D01*
X139443484Y-115865052D01*
X139315446Y-115865052D01*
X139189867Y-115890031D01*
X139071575Y-115939030D01*
X138965114Y-116010164D01*
X138874577Y-116100701D01*
X138803443Y-116207162D01*
X138754444Y-116325454D01*
X138729465Y-116451033D01*
X137702000Y-116451033D01*
X137702000Y-110776131D01*
X141450000Y-110776131D01*
X141450000Y-110923869D01*
X141478822Y-111068767D01*
X141535359Y-111205258D01*
X141617437Y-111328097D01*
X141721903Y-111432563D01*
X141844742Y-111514641D01*
X141981233Y-111571178D01*
X142126131Y-111600000D01*
X142273869Y-111600000D01*
X142302117Y-111594381D01*
X148803600Y-111594381D01*
X148803600Y-111722419D01*
X148828579Y-111847998D01*
X148877578Y-111966290D01*
X148948712Y-112072751D01*
X149039249Y-112163288D01*
X149145710Y-112234422D01*
X149264002Y-112283421D01*
X149389581Y-112308400D01*
X149517619Y-112308400D01*
X149643198Y-112283421D01*
X149761490Y-112234422D01*
X149867951Y-112163288D01*
X149958488Y-112072751D01*
X150029622Y-111966290D01*
X150078621Y-111847998D01*
X150103600Y-111722419D01*
X150103600Y-111594381D01*
X150078621Y-111468802D01*
X150029622Y-111350510D01*
X149958488Y-111244049D01*
X149867951Y-111153512D01*
X149761490Y-111082378D01*
X149643198Y-111033379D01*
X149517619Y-111008400D01*
X149389581Y-111008400D01*
X149264002Y-111033379D01*
X149145710Y-111082378D01*
X149039249Y-111153512D01*
X148948712Y-111244049D01*
X148877578Y-111350510D01*
X148828579Y-111468802D01*
X148803600Y-111594381D01*
X142302117Y-111594381D01*
X142418767Y-111571178D01*
X142555258Y-111514641D01*
X142678097Y-111432563D01*
X142782563Y-111328097D01*
X142864641Y-111205258D01*
X142921178Y-111068767D01*
X142942936Y-110959381D01*
X152613600Y-110959381D01*
X152613600Y-111087419D01*
X152638579Y-111212998D01*
X152687578Y-111331290D01*
X152758712Y-111437751D01*
X152849249Y-111528288D01*
X152955710Y-111599422D01*
X153074002Y-111648421D01*
X153199581Y-111673400D01*
X153327619Y-111673400D01*
X153453198Y-111648421D01*
X153571490Y-111599422D01*
X153677951Y-111528288D01*
X153768488Y-111437751D01*
X153839622Y-111331290D01*
X153888621Y-111212998D01*
X153913600Y-111087419D01*
X153913600Y-110959381D01*
X153888621Y-110833802D01*
X153839622Y-110715510D01*
X153768488Y-110609049D01*
X153677951Y-110518512D01*
X153571490Y-110447378D01*
X153453198Y-110398379D01*
X153327619Y-110373400D01*
X153199581Y-110373400D01*
X153074002Y-110398379D01*
X152955710Y-110447378D01*
X152849249Y-110518512D01*
X152758712Y-110609049D01*
X152687578Y-110715510D01*
X152638579Y-110833802D01*
X152613600Y-110959381D01*
X142942936Y-110959381D01*
X142950000Y-110923869D01*
X142950000Y-110776131D01*
X142921178Y-110631233D01*
X142864641Y-110494742D01*
X142782563Y-110371903D01*
X142678097Y-110267437D01*
X142573251Y-110197381D01*
X148803600Y-110197381D01*
X148803600Y-110325419D01*
X148828579Y-110450998D01*
X148877578Y-110569290D01*
X148948712Y-110675751D01*
X149039249Y-110766288D01*
X149145710Y-110837422D01*
X149264002Y-110886421D01*
X149389581Y-110911400D01*
X149517619Y-110911400D01*
X149643198Y-110886421D01*
X149761490Y-110837422D01*
X149867951Y-110766288D01*
X149958488Y-110675751D01*
X150029622Y-110569290D01*
X150078621Y-110450998D01*
X150103600Y-110325419D01*
X150103600Y-110197381D01*
X150078621Y-110071802D01*
X150029622Y-109953510D01*
X149958488Y-109847049D01*
X149867951Y-109756512D01*
X149761490Y-109685378D01*
X149643198Y-109636379D01*
X149517619Y-109611400D01*
X149389581Y-109611400D01*
X149264002Y-109636379D01*
X149145710Y-109685378D01*
X149039249Y-109756512D01*
X148948712Y-109847049D01*
X148877578Y-109953510D01*
X148828579Y-110071802D01*
X148803600Y-110197381D01*
X142573251Y-110197381D01*
X142555258Y-110185359D01*
X142418767Y-110128822D01*
X142273869Y-110100000D01*
X142126131Y-110100000D01*
X141981233Y-110128822D01*
X141844742Y-110185359D01*
X141721903Y-110267437D01*
X141617437Y-110371903D01*
X141535359Y-110494742D01*
X141478822Y-110631233D01*
X141450000Y-110776131D01*
X137702000Y-110776131D01*
X137702000Y-106006381D01*
X148702000Y-106006381D01*
X148702000Y-106134419D01*
X148726979Y-106259998D01*
X148775978Y-106378290D01*
X148847112Y-106484751D01*
X148937649Y-106575288D01*
X149044110Y-106646422D01*
X149162402Y-106695421D01*
X149287981Y-106720400D01*
X149416019Y-106720400D01*
X149541598Y-106695421D01*
X149659890Y-106646422D01*
X149766351Y-106575288D01*
X149856888Y-106484751D01*
X149928022Y-106378290D01*
X149977021Y-106259998D01*
X150002000Y-106134419D01*
X150002000Y-106006381D01*
X149977021Y-105880802D01*
X149928022Y-105762510D01*
X149856888Y-105656049D01*
X149766351Y-105565512D01*
X149659890Y-105494378D01*
X149541598Y-105445379D01*
X149416019Y-105420400D01*
X149287981Y-105420400D01*
X149162402Y-105445379D01*
X149044110Y-105494378D01*
X148937649Y-105565512D01*
X148847112Y-105656049D01*
X148775978Y-105762510D01*
X148726979Y-105880802D01*
X148702000Y-106006381D01*
X137702000Y-106006381D01*
X137702000Y-104990381D01*
X169174400Y-104990381D01*
X169174400Y-105118419D01*
X169199379Y-105243998D01*
X169248378Y-105362290D01*
X169319512Y-105468751D01*
X169410049Y-105559288D01*
X169516510Y-105630422D01*
X169634802Y-105679421D01*
X169760381Y-105704400D01*
X169888419Y-105704400D01*
X170013998Y-105679421D01*
X170132290Y-105630422D01*
X170238751Y-105559288D01*
X170329288Y-105468751D01*
X170400422Y-105362290D01*
X170449421Y-105243998D01*
X170474400Y-105118419D01*
X170474400Y-104990538D01*
X170481710Y-104995422D01*
X170600002Y-105044421D01*
X170725581Y-105069400D01*
X170853619Y-105069400D01*
X170979198Y-105044421D01*
X171097490Y-104995422D01*
X171203951Y-104924288D01*
X171294488Y-104833751D01*
X171365622Y-104727290D01*
X171414621Y-104608998D01*
X171439600Y-104483419D01*
X171439600Y-104355381D01*
X171414621Y-104229802D01*
X171365622Y-104111510D01*
X171294488Y-104005049D01*
X171203951Y-103914512D01*
X171097490Y-103843378D01*
X170979198Y-103794379D01*
X170853619Y-103769400D01*
X170725581Y-103769400D01*
X170600002Y-103794379D01*
X170481710Y-103843378D01*
X170375249Y-103914512D01*
X170284712Y-104005049D01*
X170213578Y-104111510D01*
X170164579Y-104229802D01*
X170139600Y-104355381D01*
X170139600Y-104483262D01*
X170132290Y-104478378D01*
X170013998Y-104429379D01*
X169888419Y-104404400D01*
X169760381Y-104404400D01*
X169634802Y-104429379D01*
X169516510Y-104478378D01*
X169410049Y-104549512D01*
X169319512Y-104640049D01*
X169248378Y-104746510D01*
X169199379Y-104864802D01*
X169174400Y-104990381D01*
X137702000Y-104990381D01*
X137702000Y-102796131D01*
X141450000Y-102796131D01*
X141450000Y-102943869D01*
X141478822Y-103088767D01*
X141535359Y-103225258D01*
X141617437Y-103348097D01*
X141721903Y-103452563D01*
X141844742Y-103534641D01*
X141981233Y-103591178D01*
X142126131Y-103620000D01*
X142273869Y-103620000D01*
X142418767Y-103591178D01*
X142555258Y-103534641D01*
X142678097Y-103452563D01*
X142715079Y-103415581D01*
X153426400Y-103415581D01*
X153426400Y-103543619D01*
X153451379Y-103669198D01*
X153500378Y-103787490D01*
X153571512Y-103893951D01*
X153662049Y-103984488D01*
X153768510Y-104055622D01*
X153886802Y-104104621D01*
X154012381Y-104129600D01*
X154140419Y-104129600D01*
X154265998Y-104104621D01*
X154384290Y-104055622D01*
X154490751Y-103984488D01*
X154581288Y-103893951D01*
X154652422Y-103787490D01*
X154701421Y-103669198D01*
X154726400Y-103543619D01*
X154726400Y-103415581D01*
X154701421Y-103290002D01*
X154652422Y-103171710D01*
X154581288Y-103065249D01*
X154490751Y-102974712D01*
X154384290Y-102903578D01*
X154265998Y-102854579D01*
X154140419Y-102829600D01*
X154012381Y-102829600D01*
X153886802Y-102854579D01*
X153768510Y-102903578D01*
X153662049Y-102974712D01*
X153571512Y-103065249D01*
X153500378Y-103171710D01*
X153451379Y-103290002D01*
X153426400Y-103415581D01*
X142715079Y-103415581D01*
X142782563Y-103348097D01*
X142864641Y-103225258D01*
X142921178Y-103088767D01*
X142950000Y-102943869D01*
X142950000Y-102796131D01*
X142921178Y-102651233D01*
X142864641Y-102514742D01*
X142782563Y-102391903D01*
X142678097Y-102287437D01*
X142555258Y-102205359D01*
X142418767Y-102148822D01*
X142273869Y-102120000D01*
X142126131Y-102120000D01*
X141981233Y-102148822D01*
X141844742Y-102205359D01*
X141721903Y-102287437D01*
X141617437Y-102391903D01*
X141535359Y-102514742D01*
X141478822Y-102651233D01*
X141450000Y-102796131D01*
X137702000Y-102796131D01*
X137702000Y-98157781D01*
X150327600Y-98157781D01*
X150327600Y-98285819D01*
X150352579Y-98411398D01*
X150401578Y-98529690D01*
X150472712Y-98636151D01*
X150563249Y-98726688D01*
X150669710Y-98797822D01*
X150788002Y-98846821D01*
X150913581Y-98871800D01*
X151041619Y-98871800D01*
X151167198Y-98846821D01*
X151285490Y-98797822D01*
X151391951Y-98726688D01*
X151402058Y-98716581D01*
X176807100Y-98716581D01*
X176807100Y-98844619D01*
X176832079Y-98970198D01*
X176881078Y-99088490D01*
X176952212Y-99194951D01*
X177042749Y-99285488D01*
X177149210Y-99356622D01*
X177267502Y-99405621D01*
X177393081Y-99430600D01*
X177521119Y-99430600D01*
X177646698Y-99405621D01*
X177654519Y-99402381D01*
X178166000Y-99402381D01*
X178166000Y-99530419D01*
X178190979Y-99655998D01*
X178239978Y-99774290D01*
X178311112Y-99880751D01*
X178401649Y-99971288D01*
X178508110Y-100042422D01*
X178626402Y-100091421D01*
X178751981Y-100116400D01*
X178880019Y-100116400D01*
X179005598Y-100091421D01*
X179123890Y-100042422D01*
X179230351Y-99971288D01*
X179253158Y-99948481D01*
X179690000Y-99948481D01*
X179690000Y-100076519D01*
X179714979Y-100202098D01*
X179763978Y-100320390D01*
X179835112Y-100426851D01*
X179925649Y-100517388D01*
X180032110Y-100588522D01*
X180150402Y-100637521D01*
X180275981Y-100662500D01*
X180404019Y-100662500D01*
X180529598Y-100637521D01*
X180647890Y-100588522D01*
X180754351Y-100517388D01*
X180844888Y-100426851D01*
X180916022Y-100320390D01*
X180965021Y-100202098D01*
X180990000Y-100076519D01*
X180990000Y-99948481D01*
X180965021Y-99822902D01*
X180916022Y-99704610D01*
X180844888Y-99598149D01*
X180754351Y-99507612D01*
X180647890Y-99436478D01*
X180529598Y-99387479D01*
X180404019Y-99362500D01*
X180275981Y-99362500D01*
X180150402Y-99387479D01*
X180032110Y-99436478D01*
X179925649Y-99507612D01*
X179835112Y-99598149D01*
X179763978Y-99704610D01*
X179714979Y-99822902D01*
X179690000Y-99948481D01*
X179253158Y-99948481D01*
X179320888Y-99880751D01*
X179392022Y-99774290D01*
X179441021Y-99655998D01*
X179466000Y-99530419D01*
X179466000Y-99402381D01*
X179441021Y-99276802D01*
X179392022Y-99158510D01*
X179320888Y-99052049D01*
X179230351Y-98961512D01*
X179123890Y-98890378D01*
X179005598Y-98841379D01*
X178880019Y-98816400D01*
X178751981Y-98816400D01*
X178626402Y-98841379D01*
X178508110Y-98890378D01*
X178401649Y-98961512D01*
X178311112Y-99052049D01*
X178239978Y-99158510D01*
X178190979Y-99276802D01*
X178166000Y-99402381D01*
X177654519Y-99402381D01*
X177764990Y-99356622D01*
X177871451Y-99285488D01*
X177961988Y-99194951D01*
X178033122Y-99088490D01*
X178082121Y-98970198D01*
X178107100Y-98844619D01*
X178107100Y-98716581D01*
X178082121Y-98591002D01*
X178033122Y-98472710D01*
X177961988Y-98366249D01*
X177871451Y-98275712D01*
X177764990Y-98204578D01*
X177646698Y-98155579D01*
X177521119Y-98130600D01*
X177393081Y-98130600D01*
X177267502Y-98155579D01*
X177149210Y-98204578D01*
X177042749Y-98275712D01*
X176952212Y-98366249D01*
X176881078Y-98472710D01*
X176832079Y-98591002D01*
X176807100Y-98716581D01*
X151402058Y-98716581D01*
X151482488Y-98636151D01*
X151553622Y-98529690D01*
X151602621Y-98411398D01*
X151627600Y-98285819D01*
X151627600Y-98157781D01*
X151602621Y-98032202D01*
X151553622Y-97913910D01*
X151482488Y-97807449D01*
X151391951Y-97716912D01*
X151285490Y-97645778D01*
X151167198Y-97596779D01*
X151041619Y-97571800D01*
X150913581Y-97571800D01*
X150788002Y-97596779D01*
X150669710Y-97645778D01*
X150563249Y-97716912D01*
X150472712Y-97807449D01*
X150401578Y-97913910D01*
X150352579Y-98032202D01*
X150327600Y-98157781D01*
X137702000Y-98157781D01*
X137702000Y-94881181D01*
X151953200Y-94881181D01*
X151953200Y-95009219D01*
X151978179Y-95134798D01*
X152027178Y-95253090D01*
X152098312Y-95359551D01*
X152188849Y-95450088D01*
X152295310Y-95521222D01*
X152413602Y-95570221D01*
X152539181Y-95595200D01*
X152667219Y-95595200D01*
X152792798Y-95570221D01*
X152911090Y-95521222D01*
X153017551Y-95450088D01*
X153108088Y-95359551D01*
X153179222Y-95253090D01*
X153180716Y-95249481D01*
X178293000Y-95249481D01*
X178293000Y-95377519D01*
X178317979Y-95503098D01*
X178366978Y-95621390D01*
X178438112Y-95727851D01*
X178528649Y-95818388D01*
X178635110Y-95889522D01*
X178753402Y-95938521D01*
X178803570Y-95948500D01*
X178753402Y-95958479D01*
X178635110Y-96007478D01*
X178528649Y-96078612D01*
X178438112Y-96169149D01*
X178366978Y-96275610D01*
X178317979Y-96393902D01*
X178293000Y-96519481D01*
X178293000Y-96647519D01*
X178317979Y-96773098D01*
X178366978Y-96891390D01*
X178438112Y-96997851D01*
X178528649Y-97088388D01*
X178635110Y-97159522D01*
X178753402Y-97208521D01*
X178878981Y-97233500D01*
X179007019Y-97233500D01*
X179132598Y-97208521D01*
X179250890Y-97159522D01*
X179357351Y-97088388D01*
X179447888Y-96997851D01*
X179519022Y-96891390D01*
X179568021Y-96773098D01*
X179593000Y-96647519D01*
X179593000Y-96519481D01*
X179568021Y-96393902D01*
X179519022Y-96275610D01*
X179447888Y-96169149D01*
X179357351Y-96078612D01*
X179250890Y-96007478D01*
X179132598Y-95958479D01*
X179082430Y-95948500D01*
X179132598Y-95938521D01*
X179250890Y-95889522D01*
X179357351Y-95818388D01*
X179447888Y-95727851D01*
X179519022Y-95621390D01*
X179568021Y-95503098D01*
X179593000Y-95377519D01*
X179593000Y-95249481D01*
X179568021Y-95123902D01*
X179519022Y-95005610D01*
X179447888Y-94899149D01*
X179357351Y-94808612D01*
X179250890Y-94737478D01*
X179132598Y-94688479D01*
X179007019Y-94663500D01*
X178878981Y-94663500D01*
X178753402Y-94688479D01*
X178635110Y-94737478D01*
X178528649Y-94808612D01*
X178438112Y-94899149D01*
X178366978Y-95005610D01*
X178317979Y-95123902D01*
X178293000Y-95249481D01*
X153180716Y-95249481D01*
X153228221Y-95134798D01*
X153253200Y-95009219D01*
X153253200Y-94881181D01*
X153228221Y-94755602D01*
X153179222Y-94637310D01*
X153108088Y-94530849D01*
X153017551Y-94440312D01*
X152911090Y-94369178D01*
X152792798Y-94320179D01*
X152667219Y-94295200D01*
X152539181Y-94295200D01*
X152413602Y-94320179D01*
X152295310Y-94369178D01*
X152188849Y-94440312D01*
X152098312Y-94530849D01*
X152027178Y-94637310D01*
X151978179Y-94755602D01*
X151953200Y-94881181D01*
X137702000Y-94881181D01*
X137702000Y-94102000D01*
X146889985Y-94102000D01*
X146899788Y-94102976D01*
X146909804Y-94102000D01*
X146909920Y-94102000D01*
X146920767Y-94100932D01*
X146939390Y-94099117D01*
X146939485Y-94099088D01*
X146939599Y-94099077D01*
X146959358Y-94093083D01*
X146977479Y-94087607D01*
X146977571Y-94087558D01*
X146977676Y-94087526D01*
X146995672Y-94077907D01*
X147003795Y-94073576D01*
X147003877Y-94073521D01*
X147012768Y-94068769D01*
X147020396Y-94062508D01*
X147196037Y-93945414D01*
X148487986Y-93945414D01*
X148487986Y-94048830D01*
X148508162Y-94150259D01*
X148547737Y-94245803D01*
X148605192Y-94331790D01*
X148678318Y-94404916D01*
X148764305Y-94462371D01*
X148859849Y-94501946D01*
X148961278Y-94522122D01*
X149064694Y-94522122D01*
X149166123Y-94501946D01*
X149261667Y-94462371D01*
X149347654Y-94404916D01*
X149420780Y-94331790D01*
X149469980Y-94258157D01*
X170495589Y-94258157D01*
X170495589Y-94361573D01*
X170515765Y-94463002D01*
X170555340Y-94558546D01*
X170612795Y-94644533D01*
X170685921Y-94717659D01*
X170771908Y-94775114D01*
X170867452Y-94814689D01*
X170968881Y-94834865D01*
X171072297Y-94834865D01*
X171173726Y-94814689D01*
X171269270Y-94775114D01*
X171355257Y-94717659D01*
X171428383Y-94644533D01*
X171485838Y-94558546D01*
X171525413Y-94463002D01*
X171545589Y-94361573D01*
X171545589Y-94258157D01*
X171525413Y-94156728D01*
X171485838Y-94061184D01*
X171428383Y-93975197D01*
X171355257Y-93902071D01*
X171269270Y-93844616D01*
X171173726Y-93805041D01*
X171072297Y-93784865D01*
X170968881Y-93784865D01*
X170867452Y-93805041D01*
X170771908Y-93844616D01*
X170685921Y-93902071D01*
X170612795Y-93975197D01*
X170555340Y-94061184D01*
X170515765Y-94156728D01*
X170495589Y-94258157D01*
X149469980Y-94258157D01*
X149478235Y-94245803D01*
X149517810Y-94150259D01*
X149537986Y-94048830D01*
X149537986Y-93945414D01*
X149517810Y-93843985D01*
X149478235Y-93748441D01*
X149420780Y-93662454D01*
X149347654Y-93589328D01*
X149261667Y-93531873D01*
X149166123Y-93492298D01*
X149064694Y-93472122D01*
X148961278Y-93472122D01*
X148859849Y-93492298D01*
X148764305Y-93531873D01*
X148678318Y-93589328D01*
X148605192Y-93662454D01*
X148547737Y-93748441D01*
X148508162Y-93843985D01*
X148487986Y-93945414D01*
X147196037Y-93945414D01*
X148740667Y-92915661D01*
X150014658Y-92915661D01*
X150014658Y-93019077D01*
X150034834Y-93120506D01*
X150074409Y-93216050D01*
X150131864Y-93302037D01*
X150204990Y-93375163D01*
X150290977Y-93432618D01*
X150386521Y-93472193D01*
X150487950Y-93492369D01*
X150591366Y-93492369D01*
X150692795Y-93472193D01*
X150788339Y-93432618D01*
X150874326Y-93375163D01*
X150947452Y-93302037D01*
X151004907Y-93216050D01*
X151044482Y-93120506D01*
X151064658Y-93019077D01*
X151064658Y-92915661D01*
X151044482Y-92814232D01*
X151004907Y-92718688D01*
X150947452Y-92632701D01*
X150874326Y-92559575D01*
X150788339Y-92502120D01*
X150692795Y-92462545D01*
X150591366Y-92442369D01*
X150487950Y-92442369D01*
X150386521Y-92462545D01*
X150290977Y-92502120D01*
X150204990Y-92559575D01*
X150131864Y-92632701D01*
X150074409Y-92718688D01*
X150034834Y-92814232D01*
X150014658Y-92915661D01*
X148740667Y-92915661D01*
X153561161Y-89702000D01*
X156200000Y-89702000D01*
X156200000Y-93750000D01*
G37*
X156200000Y-93750000D02*
X156200961Y-93759755D01*
X156203806Y-93769134D01*
X156208427Y-93777779D01*
X156214645Y-93785355D01*
X156222221Y-93791573D01*
X156230866Y-93796194D01*
X156240245Y-93799039D01*
X156250000Y-93800000D01*
X164000000Y-93800000D01*
X164009755Y-93799039D01*
X164019134Y-93796194D01*
X164027779Y-93791573D01*
X164035355Y-93785355D01*
X164041573Y-93777779D01*
X164046194Y-93769134D01*
X164049039Y-93759755D01*
X164050000Y-93750000D01*
X164050000Y-93175751D01*
X169005784Y-93175751D01*
X169005784Y-93279167D01*
X169025960Y-93380596D01*
X169065535Y-93476140D01*
X169122990Y-93562127D01*
X169196116Y-93635253D01*
X169282103Y-93692708D01*
X169377647Y-93732283D01*
X169479076Y-93752459D01*
X169582492Y-93752459D01*
X169683921Y-93732283D01*
X169779465Y-93692708D01*
X169865452Y-93635253D01*
X169938578Y-93562127D01*
X169996033Y-93476140D01*
X170035608Y-93380596D01*
X170055784Y-93279167D01*
X170055784Y-93175751D01*
X170035608Y-93074322D01*
X169996033Y-92978778D01*
X169938578Y-92892791D01*
X169865452Y-92819665D01*
X169779465Y-92762210D01*
X169683921Y-92722635D01*
X169582492Y-92702459D01*
X169479076Y-92702459D01*
X169377647Y-92722635D01*
X169282103Y-92762210D01*
X169196116Y-92819665D01*
X169122990Y-92892791D01*
X169065535Y-92978778D01*
X169025960Y-93074322D01*
X169005784Y-93175751D01*
X164050000Y-93175751D01*
X164050000Y-89702000D01*
X166435608Y-89702000D01*
X172577331Y-94060643D01*
X172587232Y-94068769D01*
X172602263Y-94076803D01*
X172617077Y-94085266D01*
X172619797Y-94086176D01*
X172622324Y-94087526D01*
X172638653Y-94092480D01*
X172654815Y-94097883D01*
X172657653Y-94098243D01*
X172660401Y-94099077D01*
X172677397Y-94100751D01*
X172694288Y-94102896D01*
X172707058Y-94102000D01*
X182298001Y-94102000D01*
X182298001Y-100062362D01*
X182289351Y-100053712D01*
X182182890Y-99982578D01*
X182064598Y-99933579D01*
X181939019Y-99908600D01*
X181810981Y-99908600D01*
X181685402Y-99933579D01*
X181567110Y-99982578D01*
X181460649Y-100053712D01*
X181370112Y-100144249D01*
X181298978Y-100250710D01*
X181249979Y-100369002D01*
X181225000Y-100494581D01*
X181225000Y-100622619D01*
X181249979Y-100748198D01*
X181298978Y-100866490D01*
X181370112Y-100972951D01*
X181460649Y-101063488D01*
X181567110Y-101134622D01*
X181685402Y-101183621D01*
X181810981Y-101208600D01*
X181939019Y-101208600D01*
X182064598Y-101183621D01*
X182182890Y-101134622D01*
X182289351Y-101063488D01*
X182298001Y-101054838D01*
X182298000Y-109990080D01*
X182298000Y-109990081D01*
X182298001Y-122378000D01*
X179250299Y-122378000D01*
X179252500Y-120396056D01*
X179251547Y-120386286D01*
X179248710Y-120376904D01*
X179244097Y-120368256D01*
X179237885Y-120360674D01*
X179230313Y-120354450D01*
X179221673Y-120349822D01*
X179212295Y-120346969D01*
X179202542Y-120346000D01*
X173116702Y-120340920D01*
X173106960Y-120341870D01*
X173097577Y-120344705D01*
X173088928Y-120349316D01*
X173081344Y-120355525D01*
X173075117Y-120363095D01*
X173070487Y-120371735D01*
X173067632Y-120381111D01*
X173066660Y-120390864D01*
X173060561Y-125883520D01*
X166438840Y-130298000D01*
X153561161Y-130298000D01*
X150662915Y-128365836D01*
X151920487Y-128365836D01*
X151920487Y-128469252D01*
X151940663Y-128570681D01*
X151980238Y-128666225D01*
X152037693Y-128752212D01*
X152110819Y-128825338D01*
X152196806Y-128882793D01*
X152292350Y-128922368D01*
X152393779Y-128942544D01*
X152497195Y-128942544D01*
X152598624Y-128922368D01*
X152694168Y-128882793D01*
X152780155Y-128825338D01*
X152853281Y-128752212D01*
X152910736Y-128666225D01*
X152950311Y-128570681D01*
X152970487Y-128469252D01*
X152970487Y-128365836D01*
X152962938Y-128327881D01*
X155952000Y-128327881D01*
X155952000Y-128926120D01*
X155966470Y-129073034D01*
X156023651Y-129261535D01*
X156116509Y-129435258D01*
X156241473Y-129587528D01*
X156393743Y-129712492D01*
X156567466Y-129805349D01*
X156755967Y-129862530D01*
X156952000Y-129881838D01*
X157148034Y-129862530D01*
X157336535Y-129805349D01*
X157510258Y-129712492D01*
X157662528Y-129587528D01*
X157787492Y-129435258D01*
X157880349Y-129261535D01*
X157937530Y-129073033D01*
X157952000Y-128926119D01*
X157952000Y-128327881D01*
X162048000Y-128327881D01*
X162048000Y-128926120D01*
X162062470Y-129073034D01*
X162119651Y-129261535D01*
X162212509Y-129435258D01*
X162337473Y-129587528D01*
X162489743Y-129712492D01*
X162663466Y-129805349D01*
X162851967Y-129862530D01*
X163048000Y-129881838D01*
X163244034Y-129862530D01*
X163432535Y-129805349D01*
X163606258Y-129712492D01*
X163758528Y-129587528D01*
X163883492Y-129435258D01*
X163976349Y-129261535D01*
X164033530Y-129073033D01*
X164048000Y-128926119D01*
X164048000Y-128327880D01*
X164043271Y-128279861D01*
X167052766Y-128279861D01*
X167052766Y-128383277D01*
X167072942Y-128484706D01*
X167112517Y-128580250D01*
X167169972Y-128666237D01*
X167243098Y-128739363D01*
X167329085Y-128796818D01*
X167424629Y-128836393D01*
X167526058Y-128856569D01*
X167629474Y-128856569D01*
X167730903Y-128836393D01*
X167826447Y-128796818D01*
X167912434Y-128739363D01*
X167985560Y-128666237D01*
X168043015Y-128580250D01*
X168082590Y-128484706D01*
X168102766Y-128383277D01*
X168102766Y-128279861D01*
X168082590Y-128178432D01*
X168043015Y-128082888D01*
X167985560Y-127996901D01*
X167912434Y-127923775D01*
X167826447Y-127866320D01*
X167730903Y-127826745D01*
X167629474Y-127806569D01*
X167526058Y-127806569D01*
X167424629Y-127826745D01*
X167329085Y-127866320D01*
X167243098Y-127923775D01*
X167169972Y-127996901D01*
X167112517Y-128082888D01*
X167072942Y-128178432D01*
X167052766Y-128279861D01*
X164043271Y-128279861D01*
X164033530Y-128180966D01*
X163976349Y-127992465D01*
X163883492Y-127818742D01*
X163758528Y-127666472D01*
X163606258Y-127541508D01*
X163432534Y-127448651D01*
X163244033Y-127391470D01*
X163048000Y-127372162D01*
X162851966Y-127391470D01*
X162663465Y-127448651D01*
X162489742Y-127541508D01*
X162337472Y-127666472D01*
X162212508Y-127818742D01*
X162119651Y-127992466D01*
X162062470Y-128180967D01*
X162048000Y-128327881D01*
X157952000Y-128327881D01*
X157952000Y-128327880D01*
X157937530Y-128180966D01*
X157880349Y-127992465D01*
X157787492Y-127818742D01*
X157662528Y-127666472D01*
X157510258Y-127541508D01*
X157336534Y-127448651D01*
X157148033Y-127391470D01*
X156952000Y-127372162D01*
X156755966Y-127391470D01*
X156567465Y-127448651D01*
X156393742Y-127541508D01*
X156241472Y-127666472D01*
X156116508Y-127818742D01*
X156023651Y-127992466D01*
X155966470Y-128180967D01*
X155952000Y-128327881D01*
X152962938Y-128327881D01*
X152950311Y-128264407D01*
X152910736Y-128168863D01*
X152853281Y-128082876D01*
X152780155Y-128009750D01*
X152694168Y-127952295D01*
X152598624Y-127912720D01*
X152497195Y-127892544D01*
X152393779Y-127892544D01*
X152292350Y-127912720D01*
X152196806Y-127952295D01*
X152110819Y-128009750D01*
X152037693Y-128082876D01*
X151980238Y-128168863D01*
X151940663Y-128264407D01*
X151920487Y-128365836D01*
X150662915Y-128365836D01*
X149118285Y-127336083D01*
X150393815Y-127336083D01*
X150393815Y-127439499D01*
X150413991Y-127540928D01*
X150453566Y-127636472D01*
X150511021Y-127722459D01*
X150584147Y-127795585D01*
X150670134Y-127853040D01*
X150765678Y-127892615D01*
X150867107Y-127912791D01*
X150970523Y-127912791D01*
X151071952Y-127892615D01*
X151167496Y-127853040D01*
X151253483Y-127795585D01*
X151326609Y-127722459D01*
X151384064Y-127636472D01*
X151423639Y-127540928D01*
X151443815Y-127439499D01*
X151443815Y-127336083D01*
X151423639Y-127234654D01*
X151384064Y-127139110D01*
X151326609Y-127053123D01*
X151253483Y-126979997D01*
X151167496Y-126922542D01*
X151071952Y-126882967D01*
X150970523Y-126862791D01*
X150867107Y-126862791D01*
X150765678Y-126882967D01*
X150670134Y-126922542D01*
X150584147Y-126979997D01*
X150511021Y-127053123D01*
X150453566Y-127139110D01*
X150413991Y-127234654D01*
X150393815Y-127336083D01*
X149118285Y-127336083D01*
X147610107Y-126330631D01*
X156964000Y-126330631D01*
X156964000Y-126478369D01*
X156992822Y-126623267D01*
X157049359Y-126759758D01*
X157131437Y-126882597D01*
X157235903Y-126987063D01*
X157358742Y-127069141D01*
X157495233Y-127125678D01*
X157640131Y-127154500D01*
X157787869Y-127154500D01*
X157932767Y-127125678D01*
X158069258Y-127069141D01*
X158192097Y-126987063D01*
X158296563Y-126882597D01*
X158329805Y-126832846D01*
X158699999Y-126832846D01*
X158699999Y-126960884D01*
X158724978Y-127086463D01*
X158773977Y-127204755D01*
X158845111Y-127311216D01*
X158935648Y-127401753D01*
X159042109Y-127472887D01*
X159160401Y-127521886D01*
X159285980Y-127546865D01*
X159414018Y-127546865D01*
X159539597Y-127521886D01*
X159657889Y-127472887D01*
X159764350Y-127401753D01*
X159854887Y-127311216D01*
X159877810Y-127276908D01*
X168597178Y-127276908D01*
X168597178Y-127380324D01*
X168617354Y-127481753D01*
X168656929Y-127577297D01*
X168714384Y-127663284D01*
X168787510Y-127736410D01*
X168873497Y-127793865D01*
X168969041Y-127833440D01*
X169070470Y-127853616D01*
X169173886Y-127853616D01*
X169275315Y-127833440D01*
X169370859Y-127793865D01*
X169456846Y-127736410D01*
X169529972Y-127663284D01*
X169587427Y-127577297D01*
X169627002Y-127481753D01*
X169647178Y-127380324D01*
X169647178Y-127276908D01*
X169627002Y-127175479D01*
X169587427Y-127079935D01*
X169529972Y-126993948D01*
X169456846Y-126920822D01*
X169370859Y-126863367D01*
X169275315Y-126823792D01*
X169173886Y-126803616D01*
X169070470Y-126803616D01*
X168969041Y-126823792D01*
X168873497Y-126863367D01*
X168787510Y-126920822D01*
X168714384Y-126993948D01*
X168656929Y-127079935D01*
X168617354Y-127175479D01*
X168597178Y-127276908D01*
X159877810Y-127276908D01*
X159926021Y-127204755D01*
X159975020Y-127086463D01*
X159999999Y-126960884D01*
X159999999Y-126832846D01*
X159975020Y-126707267D01*
X159926021Y-126588975D01*
X159854887Y-126482514D01*
X159764350Y-126391977D01*
X159672538Y-126330631D01*
X161536000Y-126330631D01*
X161536000Y-126478369D01*
X161564822Y-126623267D01*
X161621359Y-126759758D01*
X161703437Y-126882597D01*
X161807903Y-126987063D01*
X161930742Y-127069141D01*
X162067233Y-127125678D01*
X162212131Y-127154500D01*
X162359869Y-127154500D01*
X162504767Y-127125678D01*
X162641258Y-127069141D01*
X162764097Y-126987063D01*
X162868563Y-126882597D01*
X162950641Y-126759758D01*
X163007178Y-126623267D01*
X163036000Y-126478369D01*
X163036000Y-126330631D01*
X163007178Y-126185733D01*
X162950641Y-126049242D01*
X162868563Y-125926403D01*
X162764097Y-125821937D01*
X162641258Y-125739859D01*
X162504767Y-125683322D01*
X162359869Y-125654500D01*
X162212131Y-125654500D01*
X162067233Y-125683322D01*
X161930742Y-125739859D01*
X161807903Y-125821937D01*
X161703437Y-125926403D01*
X161621359Y-126049242D01*
X161564822Y-126185733D01*
X161536000Y-126330631D01*
X159672538Y-126330631D01*
X159657889Y-126320843D01*
X159539597Y-126271844D01*
X159414018Y-126246865D01*
X159285980Y-126246865D01*
X159160401Y-126271844D01*
X159042109Y-126320843D01*
X158935648Y-126391977D01*
X158845111Y-126482514D01*
X158773977Y-126588975D01*
X158724978Y-126707267D01*
X158699999Y-126832846D01*
X158329805Y-126832846D01*
X158378641Y-126759758D01*
X158435178Y-126623267D01*
X158464000Y-126478369D01*
X158464000Y-126330631D01*
X158435178Y-126185733D01*
X158378641Y-126049242D01*
X158296563Y-125926403D01*
X158192097Y-125821937D01*
X158069258Y-125739859D01*
X157932767Y-125683322D01*
X157787869Y-125654500D01*
X157640131Y-125654500D01*
X157495233Y-125683322D01*
X157358742Y-125739859D01*
X157235903Y-125821937D01*
X157131437Y-125926403D01*
X157049359Y-126049242D01*
X156992822Y-126185733D01*
X156964000Y-126330631D01*
X147610107Y-126330631D01*
X144620396Y-124337492D01*
X144612768Y-124331231D01*
X144603877Y-124326479D01*
X144603795Y-124326424D01*
X144595672Y-124322093D01*
X144577676Y-124312474D01*
X144577571Y-124312442D01*
X144577479Y-124312393D01*
X144559358Y-124306917D01*
X144539599Y-124300923D01*
X144539485Y-124300912D01*
X144539390Y-124300883D01*
X144520767Y-124299068D01*
X144509920Y-124298000D01*
X144509804Y-124298000D01*
X144499788Y-124297024D01*
X144489985Y-124298000D01*
X137702000Y-124298000D01*
X137702000Y-123913381D01*
X144892000Y-123913381D01*
X144892000Y-124041419D01*
X144916979Y-124166998D01*
X144965978Y-124285290D01*
X145037112Y-124391751D01*
X145127649Y-124482288D01*
X145234110Y-124553422D01*
X145352402Y-124602421D01*
X145477981Y-124627400D01*
X145606019Y-124627400D01*
X145731598Y-124602421D01*
X145849890Y-124553422D01*
X145956351Y-124482288D01*
X146046888Y-124391751D01*
X146118022Y-124285290D01*
X146167021Y-124166998D01*
X146192000Y-124041419D01*
X146192000Y-123913381D01*
X146167021Y-123787802D01*
X146118022Y-123669510D01*
X146046888Y-123563049D01*
X145956351Y-123472512D01*
X145849890Y-123401378D01*
X145731598Y-123352379D01*
X145606019Y-123327400D01*
X145477981Y-123327400D01*
X145352402Y-123352379D01*
X145234110Y-123401378D01*
X145127649Y-123472512D01*
X145037112Y-123563049D01*
X144965978Y-123669510D01*
X144916979Y-123787802D01*
X144892000Y-123913381D01*
X137702000Y-123913381D01*
X137702000Y-121982981D01*
X141107400Y-121982981D01*
X141107400Y-122111019D01*
X141132379Y-122236598D01*
X141181378Y-122354890D01*
X141252512Y-122461351D01*
X141343049Y-122551888D01*
X141449510Y-122623022D01*
X141567802Y-122672021D01*
X141693381Y-122697000D01*
X141821419Y-122697000D01*
X141946998Y-122672021D01*
X142065290Y-122623022D01*
X142171751Y-122551888D01*
X142262288Y-122461351D01*
X142333422Y-122354890D01*
X142382421Y-122236598D01*
X142407400Y-122111019D01*
X142407400Y-122084581D01*
X147965400Y-122084581D01*
X147965400Y-122212619D01*
X147990379Y-122338198D01*
X148039378Y-122456490D01*
X148110512Y-122562951D01*
X148201049Y-122653488D01*
X148307510Y-122724622D01*
X148425802Y-122773621D01*
X148551381Y-122798600D01*
X148679419Y-122798600D01*
X148804998Y-122773621D01*
X148923290Y-122724622D01*
X149029751Y-122653488D01*
X149120288Y-122562951D01*
X149191422Y-122456490D01*
X149240421Y-122338198D01*
X149265400Y-122212619D01*
X149265400Y-122084581D01*
X149240421Y-121959002D01*
X149191422Y-121840710D01*
X149120288Y-121734249D01*
X149029751Y-121643712D01*
X148923290Y-121572578D01*
X148804998Y-121523579D01*
X148679419Y-121498600D01*
X148551381Y-121498600D01*
X148425802Y-121523579D01*
X148307510Y-121572578D01*
X148201049Y-121643712D01*
X148110512Y-121734249D01*
X148039378Y-121840710D01*
X147990379Y-121959002D01*
X147965400Y-122084581D01*
X142407400Y-122084581D01*
X142407400Y-121982981D01*
X142382421Y-121857402D01*
X142333422Y-121739110D01*
X142262288Y-121632649D01*
X142171751Y-121542112D01*
X142065290Y-121470978D01*
X141946998Y-121421979D01*
X141821419Y-121397000D01*
X141693381Y-121397000D01*
X141567802Y-121421979D01*
X141449510Y-121470978D01*
X141343049Y-121542112D01*
X141252512Y-121632649D01*
X141181378Y-121739110D01*
X141132379Y-121857402D01*
X141107400Y-121982981D01*
X137702000Y-121982981D01*
X137702000Y-120831755D01*
X146458574Y-120831755D01*
X146458574Y-120959793D01*
X146483553Y-121085372D01*
X146532552Y-121203664D01*
X146603686Y-121310125D01*
X146694223Y-121400662D01*
X146800684Y-121471796D01*
X146918976Y-121520795D01*
X147044555Y-121545774D01*
X147172593Y-121545774D01*
X147298172Y-121520795D01*
X147416464Y-121471796D01*
X147522925Y-121400662D01*
X147613462Y-121310125D01*
X147684596Y-121203664D01*
X147733595Y-121085372D01*
X147758574Y-120959793D01*
X147758574Y-120831755D01*
X147733595Y-120706176D01*
X147684596Y-120587884D01*
X147613462Y-120481423D01*
X147522925Y-120390886D01*
X147416464Y-120319752D01*
X147298172Y-120270753D01*
X147172593Y-120245774D01*
X147044555Y-120245774D01*
X146918976Y-120270753D01*
X146800684Y-120319752D01*
X146694223Y-120390886D01*
X146603686Y-120481423D01*
X146532552Y-120587884D01*
X146483553Y-120706176D01*
X146458574Y-120831755D01*
X137702000Y-120831755D01*
X137702000Y-117207781D01*
X141539200Y-117207781D01*
X141539200Y-117335819D01*
X141564179Y-117461398D01*
X141613178Y-117579690D01*
X141684312Y-117686151D01*
X141774849Y-117776688D01*
X141881310Y-117847822D01*
X141999602Y-117896821D01*
X142125181Y-117921800D01*
X142253219Y-117921800D01*
X142378798Y-117896821D01*
X142497090Y-117847822D01*
X142603551Y-117776688D01*
X142694088Y-117686151D01*
X142737085Y-117621800D01*
X146715316Y-117621800D01*
X146626249Y-117681312D01*
X146535712Y-117771849D01*
X146464578Y-117878310D01*
X146415579Y-117996602D01*
X146390600Y-118122181D01*
X146390600Y-118250219D01*
X146415579Y-118375798D01*
X146464578Y-118494090D01*
X146535712Y-118600551D01*
X146626249Y-118691088D01*
X146732710Y-118762222D01*
X146851002Y-118811221D01*
X146976581Y-118836200D01*
X147104619Y-118836200D01*
X147230198Y-118811221D01*
X147348490Y-118762222D01*
X147454951Y-118691088D01*
X147545488Y-118600551D01*
X147616622Y-118494090D01*
X147665621Y-118375798D01*
X147690600Y-118250219D01*
X147690600Y-118122181D01*
X147665621Y-117996602D01*
X147616622Y-117878310D01*
X147545488Y-117771849D01*
X147454951Y-117681312D01*
X147365884Y-117621800D01*
X155537025Y-117621800D01*
X157410234Y-119495011D01*
X156867172Y-119495011D01*
X156849986Y-119493318D01*
X156832800Y-119495011D01*
X156832798Y-119495011D01*
X156781375Y-119500076D01*
X156715400Y-119520089D01*
X156654597Y-119552589D01*
X156601302Y-119596326D01*
X156590344Y-119609679D01*
X152850476Y-123349549D01*
X152837116Y-123360513D01*
X152793379Y-123413808D01*
X152762001Y-123472512D01*
X152760879Y-123474611D01*
X152740865Y-123540587D01*
X152734107Y-123609198D01*
X152735801Y-123626396D01*
X152735801Y-123632714D01*
X152671449Y-123675712D01*
X152580912Y-123766249D01*
X152509778Y-123872710D01*
X152460779Y-123991002D01*
X152435800Y-124116581D01*
X152435800Y-124244619D01*
X152460779Y-124370198D01*
X152509778Y-124488490D01*
X152580912Y-124594951D01*
X152671449Y-124685488D01*
X152777910Y-124756622D01*
X152896202Y-124805621D01*
X153021781Y-124830600D01*
X153149819Y-124830600D01*
X153275398Y-124805621D01*
X153393690Y-124756622D01*
X153500151Y-124685488D01*
X153590688Y-124594951D01*
X153621804Y-124548381D01*
X153985200Y-124548381D01*
X153985200Y-124676419D01*
X154010179Y-124801998D01*
X154059178Y-124920290D01*
X154130312Y-125026751D01*
X154220849Y-125117288D01*
X154327310Y-125188422D01*
X154445602Y-125237421D01*
X154571181Y-125262400D01*
X154699219Y-125262400D01*
X154824798Y-125237421D01*
X154943090Y-125188422D01*
X155049551Y-125117288D01*
X155140088Y-125026751D01*
X155211222Y-124920290D01*
X155260221Y-124801998D01*
X155285200Y-124676419D01*
X155285200Y-124548381D01*
X155260221Y-124422802D01*
X155259633Y-124421381D01*
X155433000Y-124421381D01*
X155433000Y-124549419D01*
X155457979Y-124674998D01*
X155506978Y-124793290D01*
X155578112Y-124899751D01*
X155668649Y-124990288D01*
X155775110Y-125061422D01*
X155893402Y-125110421D01*
X156018981Y-125135400D01*
X156147019Y-125135400D01*
X156272598Y-125110421D01*
X156390890Y-125061422D01*
X156497351Y-124990288D01*
X156587888Y-124899751D01*
X156659022Y-124793290D01*
X156708021Y-124674998D01*
X156730930Y-124559821D01*
X159188372Y-124559821D01*
X159188372Y-124687859D01*
X159213351Y-124813438D01*
X159262350Y-124931730D01*
X159333484Y-125038191D01*
X159424021Y-125128728D01*
X159530482Y-125199862D01*
X159648774Y-125248861D01*
X159774353Y-125273840D01*
X159902391Y-125273840D01*
X160027970Y-125248861D01*
X160146262Y-125199862D01*
X160252723Y-125128728D01*
X160343260Y-125038191D01*
X160414394Y-124931730D01*
X160463393Y-124813438D01*
X160475697Y-124751581D01*
X166659800Y-124751581D01*
X166659800Y-124879619D01*
X166684779Y-125005198D01*
X166733778Y-125123490D01*
X166804912Y-125229951D01*
X166895449Y-125320488D01*
X167001910Y-125391622D01*
X167120202Y-125440621D01*
X167245781Y-125465600D01*
X167373819Y-125465600D01*
X167499398Y-125440621D01*
X167617690Y-125391622D01*
X167724151Y-125320488D01*
X167814688Y-125229951D01*
X167885822Y-125123490D01*
X167934821Y-125005198D01*
X167959800Y-124879619D01*
X167959800Y-124751581D01*
X167934821Y-124626002D01*
X167885822Y-124507710D01*
X167814688Y-124401249D01*
X167724151Y-124310712D01*
X167617690Y-124239578D01*
X167499398Y-124190579D01*
X167373819Y-124165600D01*
X167245781Y-124165600D01*
X167120202Y-124190579D01*
X167001910Y-124239578D01*
X166895449Y-124310712D01*
X166804912Y-124401249D01*
X166733778Y-124507710D01*
X166684779Y-124626002D01*
X166659800Y-124751581D01*
X160475697Y-124751581D01*
X160488372Y-124687859D01*
X160488372Y-124559821D01*
X160463393Y-124434242D01*
X160414394Y-124315950D01*
X160343260Y-124209489D01*
X160252723Y-124118952D01*
X160146262Y-124047818D01*
X160027970Y-123998819D01*
X159902391Y-123973840D01*
X159774353Y-123973840D01*
X159648774Y-123998819D01*
X159530482Y-124047818D01*
X159424021Y-124118952D01*
X159333484Y-124209489D01*
X159262350Y-124315950D01*
X159213351Y-124434242D01*
X159188372Y-124559821D01*
X156730930Y-124559821D01*
X156733000Y-124549419D01*
X156733000Y-124421381D01*
X156708021Y-124295802D01*
X156659022Y-124177510D01*
X156587888Y-124071049D01*
X156497351Y-123980512D01*
X156390890Y-123909378D01*
X156272598Y-123860379D01*
X156147019Y-123835400D01*
X156018981Y-123835400D01*
X155893402Y-123860379D01*
X155775110Y-123909378D01*
X155668649Y-123980512D01*
X155578112Y-124071049D01*
X155506978Y-124177510D01*
X155457979Y-124295802D01*
X155433000Y-124421381D01*
X155259633Y-124421381D01*
X155211222Y-124304510D01*
X155140088Y-124198049D01*
X155049551Y-124107512D01*
X154943090Y-124036378D01*
X154824798Y-123987379D01*
X154699219Y-123962400D01*
X154571181Y-123962400D01*
X154445602Y-123987379D01*
X154327310Y-124036378D01*
X154220849Y-124107512D01*
X154130312Y-124198049D01*
X154059178Y-124304510D01*
X154010179Y-124422802D01*
X153985200Y-124548381D01*
X153621804Y-124548381D01*
X153661822Y-124488490D01*
X153710821Y-124370198D01*
X153735800Y-124244619D01*
X153735800Y-124116581D01*
X153710821Y-123991002D01*
X153661822Y-123872710D01*
X153590688Y-123766249D01*
X153507205Y-123682766D01*
X154571990Y-122617981D01*
X166863000Y-122617981D01*
X166863000Y-122746019D01*
X166887979Y-122871598D01*
X166936978Y-122989890D01*
X167008112Y-123096351D01*
X167098649Y-123186888D01*
X167205110Y-123258022D01*
X167323402Y-123307021D01*
X167448981Y-123332000D01*
X167577019Y-123332000D01*
X167702598Y-123307021D01*
X167820890Y-123258022D01*
X167927351Y-123186888D01*
X168017888Y-123096351D01*
X168089022Y-122989890D01*
X168138021Y-122871598D01*
X168163000Y-122746019D01*
X168163000Y-122617981D01*
X168138021Y-122492402D01*
X168089022Y-122374110D01*
X168017888Y-122267649D01*
X167927351Y-122177112D01*
X167820890Y-122105978D01*
X167702598Y-122056979D01*
X167577019Y-122032000D01*
X167448981Y-122032000D01*
X167323402Y-122056979D01*
X167205110Y-122105978D01*
X167098649Y-122177112D01*
X167008112Y-122267649D01*
X166936978Y-122374110D01*
X166887979Y-122492402D01*
X166863000Y-122617981D01*
X154571990Y-122617981D01*
X155356458Y-121833514D01*
X155373979Y-121921598D01*
X155422978Y-122039890D01*
X155494112Y-122146351D01*
X155584649Y-122236888D01*
X155691110Y-122308022D01*
X155809402Y-122357021D01*
X155934981Y-122382000D01*
X156063019Y-122382000D01*
X156188598Y-122357021D01*
X156306890Y-122308022D01*
X156413351Y-122236888D01*
X156503888Y-122146351D01*
X156575022Y-122039890D01*
X156624021Y-121921598D01*
X156649000Y-121796019D01*
X156649000Y-121667981D01*
X156624021Y-121542402D01*
X156575022Y-121424110D01*
X156503888Y-121317649D01*
X156413351Y-121227112D01*
X156306890Y-121155978D01*
X156188598Y-121106979D01*
X156100514Y-121089458D01*
X156527791Y-120662181D01*
X166202600Y-120662181D01*
X166202600Y-120790219D01*
X166227579Y-120915798D01*
X166276578Y-121034090D01*
X166347712Y-121140551D01*
X166438249Y-121231088D01*
X166544710Y-121302222D01*
X166663002Y-121351221D01*
X166788581Y-121376200D01*
X166916619Y-121376200D01*
X167042198Y-121351221D01*
X167160490Y-121302222D01*
X167266951Y-121231088D01*
X167357488Y-121140551D01*
X167428622Y-121034090D01*
X167477621Y-120915798D01*
X167502600Y-120790219D01*
X167502600Y-120662181D01*
X167477621Y-120536602D01*
X167428622Y-120418310D01*
X167357488Y-120311849D01*
X167266951Y-120221312D01*
X167160490Y-120150178D01*
X167042198Y-120101179D01*
X166916619Y-120076200D01*
X166788581Y-120076200D01*
X166663002Y-120101179D01*
X166544710Y-120150178D01*
X166438249Y-120221312D01*
X166347712Y-120311849D01*
X166276578Y-120418310D01*
X166227579Y-120536602D01*
X166202600Y-120662181D01*
X156527791Y-120662181D01*
X156994962Y-120195011D01*
X158675702Y-120195011D01*
X158692890Y-120196704D01*
X158710078Y-120195011D01*
X158710079Y-120195011D01*
X158761502Y-120189946D01*
X158827477Y-120169933D01*
X158888280Y-120137433D01*
X158941575Y-120093696D01*
X158952544Y-120080330D01*
X160504293Y-118528581D01*
X165694600Y-118528581D01*
X165694600Y-118656619D01*
X165719579Y-118782198D01*
X165768578Y-118900490D01*
X165839712Y-119006951D01*
X165930249Y-119097488D01*
X166036710Y-119168622D01*
X166155002Y-119217621D01*
X166280581Y-119242600D01*
X166408619Y-119242600D01*
X166534198Y-119217621D01*
X166652490Y-119168622D01*
X166758951Y-119097488D01*
X166849488Y-119006951D01*
X166920622Y-118900490D01*
X166969621Y-118782198D01*
X166994600Y-118656619D01*
X166994600Y-118528581D01*
X166969621Y-118403002D01*
X166920622Y-118284710D01*
X166849488Y-118178249D01*
X166758951Y-118087712D01*
X166652490Y-118016578D01*
X166534198Y-117967579D01*
X166408619Y-117942600D01*
X166280581Y-117942600D01*
X166155002Y-117967579D01*
X166036710Y-118016578D01*
X165930249Y-118087712D01*
X165839712Y-118178249D01*
X165768578Y-118284710D01*
X165719579Y-118403002D01*
X165694600Y-118528581D01*
X160504293Y-118528581D01*
X163352675Y-115680201D01*
X167044413Y-115680201D01*
X167061601Y-115681894D01*
X167078789Y-115680201D01*
X167078790Y-115680201D01*
X167130213Y-115675136D01*
X167196188Y-115655123D01*
X167256991Y-115622623D01*
X167310286Y-115578886D01*
X167321254Y-115565521D01*
X169316745Y-113570032D01*
X169330094Y-113559077D01*
X169373832Y-113505782D01*
X169406332Y-113444979D01*
X169426345Y-113379004D01*
X169431410Y-113327581D01*
X169431410Y-113327579D01*
X169433103Y-113310393D01*
X169431410Y-113293207D01*
X169431410Y-110660649D01*
X169460849Y-110690088D01*
X169567310Y-110761222D01*
X169685602Y-110810221D01*
X169811181Y-110835200D01*
X169939219Y-110835200D01*
X170064798Y-110810221D01*
X170183090Y-110761222D01*
X170242626Y-110721442D01*
X170242625Y-115444200D01*
X169735727Y-115951099D01*
X169659819Y-115936000D01*
X169531781Y-115936000D01*
X169406202Y-115960979D01*
X169287910Y-116009978D01*
X169181449Y-116081112D01*
X169090912Y-116171649D01*
X169019778Y-116278110D01*
X168970779Y-116396402D01*
X168945800Y-116521981D01*
X168945800Y-116650019D01*
X168970779Y-116775598D01*
X169019778Y-116893890D01*
X169090912Y-117000351D01*
X169181449Y-117090888D01*
X169205114Y-117106700D01*
X169181449Y-117122512D01*
X169090912Y-117213049D01*
X169019778Y-117319510D01*
X168970779Y-117437802D01*
X168945800Y-117563381D01*
X168945800Y-117691419D01*
X168970779Y-117816998D01*
X169019778Y-117935290D01*
X169090912Y-118041751D01*
X169181449Y-118132288D01*
X169287910Y-118203422D01*
X169406202Y-118252421D01*
X169531781Y-118277400D01*
X169659819Y-118277400D01*
X169785398Y-118252421D01*
X169850008Y-118225658D01*
X169208921Y-118858773D01*
X169194716Y-118870430D01*
X169173493Y-118896291D01*
X169152207Y-118921900D01*
X169151681Y-118922870D01*
X169150979Y-118923725D01*
X169135248Y-118953155D01*
X169119327Y-118982498D01*
X169118999Y-118983555D01*
X169118479Y-118984528D01*
X169108815Y-119016386D01*
X169098901Y-119048347D01*
X169098785Y-119049450D01*
X169098466Y-119050503D01*
X169095208Y-119083581D01*
X169091714Y-119116915D01*
X169093401Y-119135214D01*
X169093401Y-119136914D01*
X169029049Y-119179912D01*
X168938512Y-119270449D01*
X168867378Y-119376910D01*
X168818379Y-119495202D01*
X168793400Y-119620781D01*
X168793400Y-119748819D01*
X168818379Y-119874398D01*
X168867378Y-119992690D01*
X168938512Y-120099151D01*
X169029049Y-120189688D01*
X169135510Y-120260822D01*
X169253802Y-120309821D01*
X169379381Y-120334800D01*
X169507419Y-120334800D01*
X169632998Y-120309821D01*
X169751290Y-120260822D01*
X169857751Y-120189688D01*
X169948288Y-120099151D01*
X170019422Y-119992690D01*
X170068421Y-119874398D01*
X170093400Y-119748819D01*
X170093400Y-119620781D01*
X170068421Y-119495202D01*
X170019422Y-119376910D01*
X169948288Y-119270449D01*
X169868775Y-119190936D01*
X170375034Y-118690974D01*
X170393179Y-118782198D01*
X170442178Y-118900490D01*
X170513312Y-119006951D01*
X170603849Y-119097488D01*
X170710310Y-119168622D01*
X170828602Y-119217621D01*
X170954181Y-119242600D01*
X171082219Y-119242600D01*
X171207798Y-119217621D01*
X171326090Y-119168622D01*
X171432551Y-119097488D01*
X171523088Y-119006951D01*
X171594222Y-118900490D01*
X171643221Y-118782198D01*
X171668200Y-118656619D01*
X171668200Y-118530125D01*
X178730560Y-118530125D01*
X178730560Y-118658163D01*
X178755539Y-118783742D01*
X178804538Y-118902034D01*
X178875672Y-119008495D01*
X178966209Y-119099032D01*
X179072670Y-119170166D01*
X179190962Y-119219165D01*
X179316541Y-119244144D01*
X179444579Y-119244144D01*
X179570158Y-119219165D01*
X179688450Y-119170166D01*
X179794911Y-119099032D01*
X179885448Y-119008495D01*
X179956582Y-118902034D01*
X180005581Y-118783742D01*
X180030560Y-118658163D01*
X180030560Y-118530125D01*
X180005581Y-118404546D01*
X179956582Y-118286254D01*
X179885448Y-118179793D01*
X179794911Y-118089256D01*
X179688450Y-118018122D01*
X179570158Y-117969123D01*
X179444579Y-117944144D01*
X179316541Y-117944144D01*
X179190962Y-117969123D01*
X179072670Y-118018122D01*
X178966209Y-118089256D01*
X178875672Y-118179793D01*
X178804538Y-118286254D01*
X178755539Y-118404546D01*
X178730560Y-118530125D01*
X171668200Y-118530125D01*
X171668200Y-118528581D01*
X171643221Y-118403002D01*
X171594222Y-118284710D01*
X171523088Y-118178249D01*
X171432551Y-118087712D01*
X171326090Y-118016578D01*
X171207798Y-117967579D01*
X171124347Y-117950980D01*
X171252691Y-117824233D01*
X171266884Y-117812585D01*
X171288038Y-117786808D01*
X171309393Y-117761116D01*
X171309919Y-117760147D01*
X171310622Y-117759290D01*
X171326383Y-117729803D01*
X171342273Y-117700518D01*
X171342600Y-117699463D01*
X171343122Y-117698487D01*
X171352809Y-117666551D01*
X171362699Y-117634670D01*
X171362814Y-117633569D01*
X171363135Y-117632512D01*
X171366406Y-117599300D01*
X171369886Y-117566101D01*
X171368200Y-117547812D01*
X171368200Y-115551981D01*
X180566000Y-115551981D01*
X180566000Y-115680019D01*
X180590979Y-115805598D01*
X180639978Y-115923890D01*
X180711112Y-116030351D01*
X180801649Y-116120888D01*
X180806307Y-116124000D01*
X180801649Y-116127112D01*
X180711112Y-116217649D01*
X180639978Y-116324110D01*
X180590979Y-116442402D01*
X180566000Y-116567981D01*
X180566000Y-116696019D01*
X180590979Y-116821598D01*
X180639978Y-116939890D01*
X180711112Y-117046351D01*
X180801649Y-117136888D01*
X180908110Y-117208022D01*
X181026402Y-117257021D01*
X181151981Y-117282000D01*
X181280019Y-117282000D01*
X181405598Y-117257021D01*
X181523890Y-117208022D01*
X181630351Y-117136888D01*
X181720888Y-117046351D01*
X181792022Y-116939890D01*
X181841021Y-116821598D01*
X181866000Y-116696019D01*
X181866000Y-116567981D01*
X181841021Y-116442402D01*
X181792022Y-116324110D01*
X181720888Y-116217649D01*
X181630351Y-116127112D01*
X181625693Y-116124000D01*
X181630351Y-116120888D01*
X181720888Y-116030351D01*
X181792022Y-115923890D01*
X181841021Y-115805598D01*
X181866000Y-115680019D01*
X181866000Y-115551981D01*
X181841021Y-115426402D01*
X181792022Y-115308110D01*
X181720888Y-115201649D01*
X181630351Y-115111112D01*
X181523890Y-115039978D01*
X181405598Y-114990979D01*
X181280019Y-114966000D01*
X181151981Y-114966000D01*
X181026402Y-114990979D01*
X180908110Y-115039978D01*
X180801649Y-115111112D01*
X180711112Y-115201649D01*
X180639978Y-115308110D01*
X180590979Y-115426402D01*
X180566000Y-115551981D01*
X171368200Y-115551981D01*
X171368200Y-109855000D01*
X171908000Y-109855000D01*
X171908000Y-115316000D01*
X171908961Y-115325755D01*
X171911806Y-115335134D01*
X171916427Y-115343779D01*
X171922645Y-115351355D01*
X171930221Y-115357573D01*
X171938866Y-115362194D01*
X171948245Y-115365039D01*
X171958000Y-115366000D01*
X177419000Y-115366000D01*
X177428755Y-115365039D01*
X177438134Y-115362194D01*
X177446779Y-115357573D01*
X177454355Y-115351355D01*
X177460573Y-115343779D01*
X177465194Y-115335134D01*
X177468039Y-115325755D01*
X177469000Y-115316000D01*
X177469000Y-110241278D01*
X177523712Y-110323161D01*
X177614249Y-110413698D01*
X177720710Y-110484832D01*
X177839002Y-110533831D01*
X177964581Y-110558810D01*
X178092619Y-110558810D01*
X178130776Y-110551220D01*
X178127900Y-110565681D01*
X178127900Y-110693719D01*
X178152879Y-110819298D01*
X178201878Y-110937590D01*
X178273012Y-111044051D01*
X178363549Y-111134588D01*
X178470010Y-111205722D01*
X178588302Y-111254721D01*
X178713881Y-111279700D01*
X178841919Y-111279700D01*
X178967498Y-111254721D01*
X179085790Y-111205722D01*
X179192251Y-111134588D01*
X179282788Y-111044051D01*
X179353922Y-110937590D01*
X179402921Y-110819298D01*
X179427900Y-110693719D01*
X179427900Y-110565681D01*
X179402921Y-110440102D01*
X179353922Y-110321810D01*
X179282788Y-110215349D01*
X179192251Y-110124812D01*
X179085790Y-110053678D01*
X178967498Y-110004679D01*
X178841919Y-109979700D01*
X178713881Y-109979700D01*
X178675724Y-109987290D01*
X178678600Y-109972829D01*
X178678600Y-109844791D01*
X178653621Y-109719212D01*
X178604622Y-109600920D01*
X178533488Y-109494459D01*
X178442951Y-109403922D01*
X178336490Y-109332788D01*
X178218198Y-109283789D01*
X178092619Y-109258810D01*
X177964581Y-109258810D01*
X177839002Y-109283789D01*
X177720710Y-109332788D01*
X177614249Y-109403922D01*
X177523712Y-109494459D01*
X177452578Y-109600920D01*
X177403579Y-109719212D01*
X177386515Y-109805000D01*
X171958000Y-109805000D01*
X171948245Y-109805961D01*
X171938866Y-109808806D01*
X171930221Y-109813427D01*
X171922645Y-109819645D01*
X171916427Y-109827221D01*
X171911806Y-109835866D01*
X171908961Y-109845245D01*
X171908000Y-109855000D01*
X171368200Y-109855000D01*
X171368200Y-107397983D01*
X174432200Y-107397983D01*
X174432200Y-107526021D01*
X174457179Y-107651600D01*
X174506178Y-107769892D01*
X174577312Y-107876353D01*
X174667849Y-107966890D01*
X174774310Y-108038024D01*
X174892602Y-108087023D01*
X175018181Y-108112002D01*
X175146219Y-108112002D01*
X175271798Y-108087023D01*
X175390090Y-108038024D01*
X175496551Y-107966890D01*
X175587088Y-107876353D01*
X175658222Y-107769892D01*
X175707221Y-107651600D01*
X175726280Y-107555781D01*
X176667400Y-107555781D01*
X176667400Y-107683819D01*
X176692379Y-107809398D01*
X176741378Y-107927690D01*
X176812512Y-108034151D01*
X176903049Y-108124688D01*
X177009510Y-108195822D01*
X177127802Y-108244821D01*
X177253381Y-108269800D01*
X177381419Y-108269800D01*
X177506998Y-108244821D01*
X177625290Y-108195822D01*
X177731751Y-108124688D01*
X177822288Y-108034151D01*
X177893422Y-107927690D01*
X177942421Y-107809398D01*
X177967400Y-107683819D01*
X177967400Y-107555781D01*
X177942421Y-107430202D01*
X177893422Y-107311910D01*
X177822288Y-107205449D01*
X177731751Y-107114912D01*
X177625290Y-107043778D01*
X177506998Y-106994779D01*
X177381419Y-106969800D01*
X177253381Y-106969800D01*
X177127802Y-106994779D01*
X177009510Y-107043778D01*
X176903049Y-107114912D01*
X176812512Y-107205449D01*
X176741378Y-107311910D01*
X176692379Y-107430202D01*
X176667400Y-107555781D01*
X175726280Y-107555781D01*
X175732200Y-107526021D01*
X175732200Y-107397983D01*
X175707221Y-107272404D01*
X175658222Y-107154112D01*
X175587088Y-107047651D01*
X175496551Y-106957114D01*
X175390090Y-106885980D01*
X175271798Y-106836981D01*
X175146219Y-106812002D01*
X175018181Y-106812002D01*
X174892602Y-106836981D01*
X174774310Y-106885980D01*
X174667849Y-106957114D01*
X174577312Y-107047651D01*
X174506178Y-107154112D01*
X174457179Y-107272404D01*
X174432200Y-107397983D01*
X171368200Y-107397983D01*
X171368200Y-106709847D01*
X174191475Y-103863714D01*
X174210649Y-103882888D01*
X174317110Y-103954022D01*
X174408520Y-103991886D01*
X174376315Y-104018315D01*
X174332578Y-104071610D01*
X174300078Y-104132413D01*
X174280065Y-104198388D01*
X174273307Y-104267000D01*
X174280065Y-104335612D01*
X174300078Y-104401587D01*
X174332578Y-104462390D01*
X174376315Y-104515685D01*
X174429610Y-104559422D01*
X174490413Y-104591922D01*
X174556388Y-104611935D01*
X174607811Y-104617000D01*
X174642800Y-104617000D01*
X174685797Y-104681351D01*
X174776334Y-104771888D01*
X174882795Y-104843022D01*
X175001087Y-104892021D01*
X175126666Y-104917000D01*
X175254704Y-104917000D01*
X175380283Y-104892021D01*
X175498575Y-104843022D01*
X175605036Y-104771888D01*
X175695573Y-104681351D01*
X175766707Y-104574890D01*
X175815706Y-104456598D01*
X175840685Y-104331019D01*
X175840685Y-104202981D01*
X175815706Y-104077402D01*
X175766707Y-103959110D01*
X175695573Y-103852649D01*
X175675001Y-103832077D01*
X175675001Y-102952190D01*
X175676694Y-102935001D01*
X175669936Y-102866389D01*
X175667376Y-102857950D01*
X175924499Y-103115074D01*
X175924500Y-103569803D01*
X175922806Y-103587001D01*
X175929564Y-103655612D01*
X175948710Y-103718728D01*
X175949578Y-103721588D01*
X175982078Y-103782391D01*
X176025815Y-103835686D01*
X176039175Y-103846650D01*
X176706052Y-104513529D01*
X176717012Y-104526884D01*
X176756661Y-104559422D01*
X176770307Y-104570621D01*
X176831110Y-104603121D01*
X176897085Y-104623134D01*
X176965697Y-104629892D01*
X176982886Y-104628199D01*
X177785515Y-104628199D01*
X177757378Y-104670310D01*
X177708379Y-104788602D01*
X177683400Y-104914181D01*
X177683400Y-105042219D01*
X177708379Y-105167798D01*
X177757378Y-105286090D01*
X177828512Y-105392551D01*
X177919049Y-105483088D01*
X178025510Y-105554222D01*
X178143802Y-105603221D01*
X178269381Y-105628200D01*
X178397419Y-105628200D01*
X178522998Y-105603221D01*
X178641290Y-105554222D01*
X178747751Y-105483088D01*
X178838288Y-105392551D01*
X178909422Y-105286090D01*
X178958421Y-105167798D01*
X178975942Y-105079714D01*
X179741801Y-105845574D01*
X179741801Y-106089662D01*
X179712951Y-106060812D01*
X179606490Y-105989678D01*
X179488198Y-105940679D01*
X179362619Y-105915700D01*
X179234581Y-105915700D01*
X179109002Y-105940679D01*
X178990710Y-105989678D01*
X178884249Y-106060812D01*
X178793712Y-106151349D01*
X178722578Y-106257810D01*
X178673579Y-106376102D01*
X178648600Y-106501681D01*
X178648600Y-106629719D01*
X178663699Y-106705628D01*
X178663277Y-106706050D01*
X178649916Y-106717015D01*
X178606179Y-106770310D01*
X178573679Y-106831113D01*
X178565726Y-106857331D01*
X178553666Y-106897088D01*
X178546908Y-106965699D01*
X178548601Y-106982887D01*
X178548602Y-108670405D01*
X178546908Y-108687603D01*
X178553666Y-108756214D01*
X178561757Y-108782885D01*
X178573680Y-108822190D01*
X178606180Y-108882993D01*
X178649917Y-108936288D01*
X178663277Y-108947252D01*
X179432801Y-109716778D01*
X179432802Y-113091716D01*
X179390690Y-113063578D01*
X179272398Y-113014579D01*
X179146819Y-112989600D01*
X179018781Y-112989600D01*
X178893202Y-113014579D01*
X178774910Y-113063578D01*
X178668449Y-113134712D01*
X178577912Y-113225249D01*
X178506778Y-113331710D01*
X178457779Y-113450002D01*
X178432800Y-113575581D01*
X178432800Y-113703619D01*
X178457779Y-113829198D01*
X178506778Y-113947490D01*
X178577912Y-114053951D01*
X178668449Y-114144488D01*
X178774910Y-114215622D01*
X178893202Y-114264621D01*
X179018781Y-114289600D01*
X179146819Y-114289600D01*
X179224679Y-114274113D01*
X179191205Y-114324211D01*
X179142206Y-114442503D01*
X179117227Y-114568082D01*
X179117227Y-114696120D01*
X179142206Y-114821699D01*
X179191205Y-114939991D01*
X179262339Y-115046452D01*
X179352876Y-115136989D01*
X179459337Y-115208123D01*
X179577629Y-115257122D01*
X179703208Y-115282101D01*
X179831246Y-115282101D01*
X179956825Y-115257122D01*
X180075117Y-115208123D01*
X180181578Y-115136989D01*
X180272115Y-115046452D01*
X180343249Y-114939991D01*
X180392248Y-114821699D01*
X180417227Y-114696120D01*
X180417227Y-114568082D01*
X180392248Y-114442503D01*
X180343249Y-114324211D01*
X180272115Y-114217750D01*
X180181578Y-114127213D01*
X180132801Y-114094622D01*
X180132801Y-109588992D01*
X180134494Y-109571803D01*
X180127736Y-109503191D01*
X180107723Y-109437216D01*
X180075223Y-109376413D01*
X180042443Y-109336470D01*
X180042441Y-109336468D01*
X180031485Y-109323118D01*
X180018136Y-109312163D01*
X179857314Y-109151342D01*
X179945398Y-109133821D01*
X180063690Y-109084822D01*
X180170151Y-109013688D01*
X180260688Y-108923151D01*
X180331822Y-108816690D01*
X180380821Y-108698398D01*
X180398342Y-108610314D01*
X180828200Y-109040173D01*
X180828201Y-111999514D01*
X180763849Y-112042512D01*
X180673312Y-112133049D01*
X180602178Y-112239510D01*
X180553179Y-112357802D01*
X180528200Y-112483381D01*
X180528200Y-112611419D01*
X180553179Y-112736998D01*
X180602178Y-112855290D01*
X180673312Y-112961751D01*
X180763849Y-113052288D01*
X180870310Y-113123422D01*
X180988602Y-113172421D01*
X181114181Y-113197400D01*
X181242219Y-113197400D01*
X181367798Y-113172421D01*
X181486090Y-113123422D01*
X181592551Y-113052288D01*
X181683088Y-112961751D01*
X181754222Y-112855290D01*
X181803221Y-112736998D01*
X181828200Y-112611419D01*
X181828200Y-112483381D01*
X181803221Y-112357802D01*
X181754222Y-112239510D01*
X181683088Y-112133049D01*
X181592551Y-112042512D01*
X181528200Y-111999515D01*
X181528200Y-108912386D01*
X181529893Y-108895197D01*
X181523135Y-108826585D01*
X181517064Y-108806572D01*
X181503122Y-108760611D01*
X181470622Y-108699808D01*
X181426884Y-108646513D01*
X181413535Y-108635558D01*
X180441801Y-107663826D01*
X180441801Y-105717784D01*
X180443494Y-105700598D01*
X180441408Y-105679421D01*
X180436736Y-105631987D01*
X180416723Y-105566012D01*
X180384223Y-105505209D01*
X180340485Y-105451914D01*
X180327136Y-105440959D01*
X178929054Y-104042879D01*
X178918086Y-104029514D01*
X178864791Y-103985777D01*
X178803988Y-103953277D01*
X178738013Y-103933264D01*
X178686590Y-103928199D01*
X178686589Y-103928199D01*
X178669401Y-103926506D01*
X178652213Y-103928199D01*
X177110672Y-103928199D01*
X176624499Y-103442028D01*
X176624499Y-103171281D01*
X178410300Y-103171281D01*
X178410300Y-103299319D01*
X178435279Y-103424898D01*
X178484278Y-103543190D01*
X178555412Y-103649651D01*
X178645949Y-103740188D01*
X178752410Y-103811322D01*
X178870702Y-103860321D01*
X178996281Y-103885300D01*
X179124319Y-103885300D01*
X179249898Y-103860321D01*
X179368190Y-103811322D01*
X179474651Y-103740188D01*
X179565188Y-103649651D01*
X179636322Y-103543190D01*
X179668853Y-103464654D01*
X179713843Y-103531987D01*
X179804380Y-103622524D01*
X179910841Y-103693658D01*
X180029133Y-103742657D01*
X180154712Y-103767636D01*
X180282750Y-103767636D01*
X180408329Y-103742657D01*
X180526621Y-103693658D01*
X180633082Y-103622524D01*
X180716366Y-103539240D01*
X180804370Y-103627244D01*
X180910831Y-103698378D01*
X181029123Y-103747377D01*
X181154702Y-103772356D01*
X181282740Y-103772356D01*
X181408319Y-103747377D01*
X181526611Y-103698378D01*
X181633072Y-103627244D01*
X181723609Y-103536707D01*
X181794743Y-103430246D01*
X181843742Y-103311954D01*
X181868721Y-103186375D01*
X181868721Y-103058337D01*
X181843742Y-102932758D01*
X181794743Y-102814466D01*
X181723609Y-102708005D01*
X181633072Y-102617468D01*
X181526611Y-102546334D01*
X181408319Y-102497335D01*
X181282740Y-102472356D01*
X181154702Y-102472356D01*
X181029123Y-102497335D01*
X180910831Y-102546334D01*
X180804370Y-102617468D01*
X180721086Y-102700752D01*
X180633082Y-102612748D01*
X180526621Y-102541614D01*
X180408329Y-102492615D01*
X180282750Y-102467636D01*
X180154712Y-102467636D01*
X180029133Y-102492615D01*
X179910841Y-102541614D01*
X179804380Y-102612748D01*
X179713843Y-102703285D01*
X179642709Y-102809746D01*
X179610178Y-102888282D01*
X179565188Y-102820949D01*
X179474651Y-102730412D01*
X179368190Y-102659278D01*
X179249898Y-102610279D01*
X179124319Y-102585300D01*
X178996281Y-102585300D01*
X178870702Y-102610279D01*
X178752410Y-102659278D01*
X178645949Y-102730412D01*
X178555412Y-102820949D01*
X178484278Y-102927410D01*
X178435279Y-103045702D01*
X178410300Y-103171281D01*
X176624499Y-103171281D01*
X176624499Y-102987284D01*
X176626192Y-102970098D01*
X176621987Y-102927410D01*
X176619434Y-102901487D01*
X176599421Y-102835512D01*
X176566921Y-102774709D01*
X176523183Y-102721414D01*
X176509834Y-102710459D01*
X175745261Y-101945888D01*
X175734293Y-101932523D01*
X175680998Y-101888786D01*
X175620195Y-101856286D01*
X175554220Y-101836273D01*
X175502797Y-101831208D01*
X175502796Y-101831208D01*
X175485608Y-101829515D01*
X175468420Y-101831208D01*
X151945082Y-101831208D01*
X149186801Y-99072928D01*
X149201900Y-98997019D01*
X149201900Y-98868981D01*
X149176921Y-98743402D01*
X149127922Y-98625110D01*
X149056788Y-98518649D01*
X148966251Y-98428112D01*
X148859790Y-98356978D01*
X148741498Y-98307979D01*
X148615919Y-98283000D01*
X148487881Y-98283000D01*
X148362302Y-98307979D01*
X148244010Y-98356978D01*
X148137549Y-98428112D01*
X148047012Y-98518649D01*
X147975878Y-98625110D01*
X147926879Y-98743402D01*
X147901900Y-98868981D01*
X147901900Y-98997019D01*
X147926879Y-99122598D01*
X147975878Y-99240890D01*
X148047012Y-99347351D01*
X148137549Y-99437888D01*
X148244010Y-99509022D01*
X148362302Y-99558021D01*
X148487881Y-99583000D01*
X148615919Y-99583000D01*
X148691828Y-99567901D01*
X151540459Y-102416533D01*
X151551423Y-102429893D01*
X151597414Y-102467636D01*
X151604718Y-102473630D01*
X151665520Y-102506130D01*
X151731496Y-102526143D01*
X151800108Y-102532901D01*
X151817297Y-102531208D01*
X173940815Y-102531208D01*
X170357301Y-106114724D01*
X170343941Y-106125688D01*
X170300204Y-106178983D01*
X170287539Y-106202678D01*
X170267704Y-106239786D01*
X170247690Y-106305762D01*
X170240932Y-106374373D01*
X170242626Y-106391571D01*
X170242626Y-106876692D01*
X170200514Y-106848554D01*
X170082222Y-106799555D01*
X169956643Y-106774576D01*
X169828605Y-106774576D01*
X169731401Y-106793911D01*
X169731401Y-106208788D01*
X169733094Y-106191599D01*
X169726336Y-106122987D01*
X169706323Y-106057012D01*
X169673823Y-105996209D01*
X169668463Y-105989678D01*
X169630086Y-105942914D01*
X169616731Y-105931954D01*
X169277054Y-105592279D01*
X169266086Y-105578914D01*
X169212791Y-105535177D01*
X169151988Y-105502677D01*
X169086013Y-105482664D01*
X169034590Y-105477599D01*
X169034589Y-105477599D01*
X169017401Y-105475906D01*
X169000213Y-105477599D01*
X168362588Y-105477599D01*
X168345399Y-105475906D01*
X168328210Y-105477599D01*
X168276787Y-105482664D01*
X168210812Y-105502677D01*
X168150009Y-105535177D01*
X168096714Y-105578914D01*
X168085754Y-105592269D01*
X166591876Y-107086149D01*
X166578515Y-107097114D01*
X166534778Y-107150409D01*
X166502278Y-107211212D01*
X166495911Y-107232203D01*
X166482265Y-107277187D01*
X166475507Y-107345798D01*
X166477200Y-107362987D01*
X166477201Y-107986314D01*
X166412849Y-108029312D01*
X166322312Y-108119849D01*
X166251178Y-108226310D01*
X166202179Y-108344602D01*
X166177200Y-108470181D01*
X166177200Y-108598219D01*
X166202179Y-108723798D01*
X166251178Y-108842090D01*
X166322312Y-108948551D01*
X166412849Y-109039088D01*
X166417507Y-109042200D01*
X166412849Y-109045312D01*
X166322312Y-109135849D01*
X166251178Y-109242310D01*
X166202179Y-109360602D01*
X166177200Y-109486181D01*
X166177200Y-109614219D01*
X166202179Y-109739798D01*
X166251178Y-109858090D01*
X166322312Y-109964551D01*
X166412849Y-110055088D01*
X166519310Y-110126222D01*
X166637602Y-110175221D01*
X166763181Y-110200200D01*
X166891219Y-110200200D01*
X167016798Y-110175221D01*
X167135090Y-110126222D01*
X167241551Y-110055088D01*
X167332088Y-109964551D01*
X167403222Y-109858090D01*
X167452221Y-109739798D01*
X167477200Y-109614219D01*
X167477200Y-109486181D01*
X167452221Y-109360602D01*
X167403222Y-109242310D01*
X167332088Y-109135849D01*
X167241551Y-109045312D01*
X167236893Y-109042200D01*
X167241551Y-109039088D01*
X167332088Y-108948551D01*
X167403222Y-108842090D01*
X167452221Y-108723798D01*
X167477200Y-108598219D01*
X167477200Y-108470181D01*
X167452221Y-108344602D01*
X167403222Y-108226310D01*
X167332088Y-108119849D01*
X167241551Y-108029312D01*
X167177200Y-107986315D01*
X167177200Y-107490771D01*
X168038858Y-106629114D01*
X168056379Y-106717198D01*
X168105378Y-106835490D01*
X168176512Y-106941951D01*
X168267049Y-107032488D01*
X168331400Y-107075486D01*
X168331401Y-109145827D01*
X158833742Y-118643487D01*
X158816221Y-118555402D01*
X158767222Y-118437110D01*
X158696088Y-118330649D01*
X158605551Y-118240112D01*
X158499090Y-118168978D01*
X158380798Y-118119979D01*
X158255219Y-118095000D01*
X158177596Y-118095000D01*
X157536399Y-117453804D01*
X157536399Y-114235981D01*
X158150800Y-114235981D01*
X158150800Y-114364019D01*
X158175779Y-114489598D01*
X158224778Y-114607890D01*
X158295912Y-114714351D01*
X158386449Y-114804888D01*
X158492910Y-114876022D01*
X158611202Y-114925021D01*
X158736781Y-114950000D01*
X158864819Y-114950000D01*
X158990398Y-114925021D01*
X159108690Y-114876022D01*
X159215151Y-114804888D01*
X159305688Y-114714351D01*
X159376822Y-114607890D01*
X159425821Y-114489598D01*
X159450800Y-114364019D01*
X159450800Y-114235981D01*
X159425821Y-114110402D01*
X159376822Y-113992110D01*
X159305688Y-113885649D01*
X159215151Y-113795112D01*
X159108690Y-113723978D01*
X158990398Y-113674979D01*
X158864819Y-113650000D01*
X158736781Y-113650000D01*
X158611202Y-113674979D01*
X158492910Y-113723978D01*
X158386449Y-113795112D01*
X158295912Y-113885649D01*
X158224778Y-113992110D01*
X158175779Y-114110402D01*
X158150800Y-114235981D01*
X157536399Y-114235981D01*
X157536399Y-107728091D01*
X157538575Y-107705997D01*
X157536399Y-107683902D01*
X157536399Y-107683892D01*
X157529888Y-107617782D01*
X157504156Y-107532956D01*
X157491098Y-107508527D01*
X157462370Y-107454780D01*
X157420227Y-107403429D01*
X157420223Y-107403425D01*
X157420187Y-107403381D01*
X161046400Y-107403381D01*
X161046400Y-107531419D01*
X161071379Y-107656998D01*
X161120378Y-107775290D01*
X161191512Y-107881751D01*
X161282049Y-107972288D01*
X161388510Y-108043422D01*
X161506802Y-108092421D01*
X161632381Y-108117400D01*
X161760419Y-108117400D01*
X161885998Y-108092421D01*
X162004290Y-108043422D01*
X162110751Y-107972288D01*
X162201288Y-107881751D01*
X162272422Y-107775290D01*
X162321421Y-107656998D01*
X162346400Y-107531419D01*
X162346400Y-107403381D01*
X162321421Y-107277802D01*
X162272422Y-107159510D01*
X162201288Y-107053049D01*
X162110751Y-106962512D01*
X162004290Y-106891378D01*
X161885998Y-106842379D01*
X161760419Y-106817400D01*
X161632381Y-106817400D01*
X161506802Y-106842379D01*
X161388510Y-106891378D01*
X161282049Y-106962512D01*
X161191512Y-107053049D01*
X161120378Y-107159510D01*
X161071379Y-107277802D01*
X161046400Y-107403381D01*
X157420187Y-107403381D01*
X157406136Y-107386260D01*
X157388972Y-107372174D01*
X155845379Y-105828581D01*
X161008300Y-105828581D01*
X161008300Y-105956619D01*
X161033279Y-106082198D01*
X161082278Y-106200490D01*
X161153412Y-106306951D01*
X161243949Y-106397488D01*
X161350410Y-106468622D01*
X161468702Y-106517621D01*
X161594281Y-106542600D01*
X161722319Y-106542600D01*
X161847898Y-106517621D01*
X161966190Y-106468622D01*
X162072651Y-106397488D01*
X162163188Y-106306951D01*
X162234322Y-106200490D01*
X162283321Y-106082198D01*
X162308300Y-105956619D01*
X162308300Y-105828581D01*
X162283321Y-105703002D01*
X162234322Y-105584710D01*
X162163188Y-105478249D01*
X162072651Y-105387712D01*
X161966190Y-105316578D01*
X161847898Y-105267579D01*
X161722319Y-105242600D01*
X161594281Y-105242600D01*
X161468702Y-105267579D01*
X161350410Y-105316578D01*
X161243949Y-105387712D01*
X161153412Y-105478249D01*
X161082278Y-105584710D01*
X161033279Y-105703002D01*
X161008300Y-105828581D01*
X155845379Y-105828581D01*
X155479232Y-105462435D01*
X155465140Y-105445264D01*
X155396619Y-105389030D01*
X155318444Y-105347244D01*
X155233618Y-105321512D01*
X155167508Y-105315001D01*
X155167497Y-105315001D01*
X155145403Y-105312825D01*
X155123309Y-105315001D01*
X155028239Y-105315001D01*
X154973351Y-105260113D01*
X154866890Y-105188979D01*
X154748598Y-105139980D01*
X154623019Y-105115001D01*
X154494981Y-105115001D01*
X154369402Y-105139980D01*
X154251110Y-105188979D01*
X154144649Y-105260113D01*
X154054112Y-105350650D01*
X153982978Y-105457111D01*
X153933979Y-105575403D01*
X153909000Y-105700982D01*
X153909000Y-105829020D01*
X153933979Y-105954599D01*
X153982978Y-106072891D01*
X154054112Y-106179352D01*
X154144649Y-106269889D01*
X154251110Y-106341023D01*
X154369402Y-106390022D01*
X154494981Y-106415001D01*
X154623019Y-106415001D01*
X154748598Y-106390022D01*
X154866890Y-106341023D01*
X154973351Y-106269889D01*
X154993623Y-106249617D01*
X155491573Y-106747567D01*
X155398002Y-106766179D01*
X155279710Y-106815178D01*
X155173249Y-106886312D01*
X155082712Y-106976849D01*
X155011578Y-107083310D01*
X154962579Y-107201602D01*
X154937600Y-107327181D01*
X154937600Y-107455219D01*
X154962579Y-107580798D01*
X155011578Y-107699090D01*
X155082712Y-107805551D01*
X155173249Y-107896088D01*
X155194051Y-107909987D01*
X155146544Y-107919437D01*
X155028252Y-107968436D01*
X154921791Y-108039570D01*
X154831254Y-108130107D01*
X154760120Y-108236568D01*
X154711121Y-108354860D01*
X154705748Y-108381870D01*
X154678132Y-108315199D01*
X154606998Y-108208738D01*
X154516461Y-108118201D01*
X154410000Y-108047067D01*
X154291708Y-107998068D01*
X154166129Y-107973089D01*
X154038091Y-107973089D01*
X153912512Y-107998068D01*
X153794220Y-108047067D01*
X153687759Y-108118201D01*
X153597222Y-108208738D01*
X153526088Y-108315199D01*
X153477089Y-108433491D01*
X153452110Y-108559070D01*
X153452110Y-108687108D01*
X153477089Y-108812687D01*
X153526088Y-108930979D01*
X153597222Y-109037440D01*
X153681514Y-109121732D01*
X153594510Y-109208736D01*
X153523376Y-109315197D01*
X153474377Y-109433489D01*
X153449398Y-109559068D01*
X153449398Y-109687106D01*
X153474377Y-109812685D01*
X153523376Y-109930977D01*
X153594510Y-110037438D01*
X153685047Y-110127975D01*
X153791508Y-110199109D01*
X153909800Y-110248108D01*
X154035379Y-110273087D01*
X154163417Y-110273087D01*
X154288996Y-110248108D01*
X154407288Y-110199109D01*
X154513749Y-110127975D01*
X154604286Y-110037438D01*
X154675420Y-109930977D01*
X154724419Y-109812685D01*
X154749398Y-109687106D01*
X154749398Y-109559068D01*
X154724419Y-109433489D01*
X154675420Y-109315197D01*
X154604286Y-109208736D01*
X154519994Y-109124444D01*
X154606998Y-109037440D01*
X154678132Y-108930979D01*
X154727131Y-108812687D01*
X154732504Y-108785677D01*
X154760120Y-108852348D01*
X154831254Y-108958809D01*
X154921791Y-109049346D01*
X155028252Y-109120480D01*
X155146544Y-109169479D01*
X155272123Y-109194458D01*
X155400161Y-109194458D01*
X155525740Y-109169479D01*
X155644032Y-109120480D01*
X155750493Y-109049346D01*
X155841030Y-108958809D01*
X155912164Y-108852348D01*
X155961163Y-108734056D01*
X155986142Y-108608477D01*
X155986142Y-108480439D01*
X155961163Y-108354860D01*
X155912164Y-108236568D01*
X155841030Y-108130107D01*
X155750493Y-108039570D01*
X155729691Y-108025671D01*
X155777198Y-108016221D01*
X155895490Y-107967222D01*
X156001951Y-107896088D01*
X156092488Y-107805551D01*
X156163622Y-107699090D01*
X156212621Y-107580798D01*
X156231233Y-107487227D01*
X156636399Y-107892393D01*
X156636400Y-117618095D01*
X156634223Y-117640199D01*
X156642911Y-117728414D01*
X156646971Y-117741800D01*
X155941651Y-117036480D01*
X155930683Y-117023115D01*
X155877388Y-116979378D01*
X155816585Y-116946878D01*
X155750610Y-116926865D01*
X155699187Y-116921800D01*
X155699186Y-116921800D01*
X155681998Y-116920107D01*
X155664810Y-116921800D01*
X142737085Y-116921800D01*
X142694088Y-116857449D01*
X142603551Y-116766912D01*
X142497090Y-116695778D01*
X142378798Y-116646779D01*
X142253219Y-116621800D01*
X142125181Y-116621800D01*
X141999602Y-116646779D01*
X141881310Y-116695778D01*
X141774849Y-116766912D01*
X141684312Y-116857449D01*
X141613178Y-116963910D01*
X141564179Y-117082202D01*
X141539200Y-117207781D01*
X137702000Y-117207781D01*
X137702000Y-116451033D01*
X138729465Y-116451033D01*
X138729465Y-116579071D01*
X138754444Y-116704650D01*
X138803443Y-116822942D01*
X138874577Y-116929403D01*
X138965114Y-117019940D01*
X139071575Y-117091074D01*
X139189867Y-117140073D01*
X139315446Y-117165052D01*
X139443484Y-117165052D01*
X139569063Y-117140073D01*
X139687355Y-117091074D01*
X139793816Y-117019940D01*
X139884353Y-116929403D01*
X139955487Y-116822942D01*
X140004486Y-116704650D01*
X140029465Y-116579071D01*
X140029465Y-116451033D01*
X140004486Y-116325454D01*
X139955487Y-116207162D01*
X139884353Y-116100701D01*
X139793816Y-116010164D01*
X139687355Y-115939030D01*
X139569063Y-115890031D01*
X139443484Y-115865052D01*
X139315446Y-115865052D01*
X139189867Y-115890031D01*
X139071575Y-115939030D01*
X138965114Y-116010164D01*
X138874577Y-116100701D01*
X138803443Y-116207162D01*
X138754444Y-116325454D01*
X138729465Y-116451033D01*
X137702000Y-116451033D01*
X137702000Y-110776131D01*
X141450000Y-110776131D01*
X141450000Y-110923869D01*
X141478822Y-111068767D01*
X141535359Y-111205258D01*
X141617437Y-111328097D01*
X141721903Y-111432563D01*
X141844742Y-111514641D01*
X141981233Y-111571178D01*
X142126131Y-111600000D01*
X142273869Y-111600000D01*
X142302117Y-111594381D01*
X148803600Y-111594381D01*
X148803600Y-111722419D01*
X148828579Y-111847998D01*
X148877578Y-111966290D01*
X148948712Y-112072751D01*
X149039249Y-112163288D01*
X149145710Y-112234422D01*
X149264002Y-112283421D01*
X149389581Y-112308400D01*
X149517619Y-112308400D01*
X149643198Y-112283421D01*
X149761490Y-112234422D01*
X149867951Y-112163288D01*
X149958488Y-112072751D01*
X150029622Y-111966290D01*
X150078621Y-111847998D01*
X150103600Y-111722419D01*
X150103600Y-111594381D01*
X150078621Y-111468802D01*
X150029622Y-111350510D01*
X149958488Y-111244049D01*
X149867951Y-111153512D01*
X149761490Y-111082378D01*
X149643198Y-111033379D01*
X149517619Y-111008400D01*
X149389581Y-111008400D01*
X149264002Y-111033379D01*
X149145710Y-111082378D01*
X149039249Y-111153512D01*
X148948712Y-111244049D01*
X148877578Y-111350510D01*
X148828579Y-111468802D01*
X148803600Y-111594381D01*
X142302117Y-111594381D01*
X142418767Y-111571178D01*
X142555258Y-111514641D01*
X142678097Y-111432563D01*
X142782563Y-111328097D01*
X142864641Y-111205258D01*
X142921178Y-111068767D01*
X142942936Y-110959381D01*
X152613600Y-110959381D01*
X152613600Y-111087419D01*
X152638579Y-111212998D01*
X152687578Y-111331290D01*
X152758712Y-111437751D01*
X152849249Y-111528288D01*
X152955710Y-111599422D01*
X153074002Y-111648421D01*
X153199581Y-111673400D01*
X153327619Y-111673400D01*
X153453198Y-111648421D01*
X153571490Y-111599422D01*
X153677951Y-111528288D01*
X153768488Y-111437751D01*
X153839622Y-111331290D01*
X153888621Y-111212998D01*
X153913600Y-111087419D01*
X153913600Y-110959381D01*
X153888621Y-110833802D01*
X153839622Y-110715510D01*
X153768488Y-110609049D01*
X153677951Y-110518512D01*
X153571490Y-110447378D01*
X153453198Y-110398379D01*
X153327619Y-110373400D01*
X153199581Y-110373400D01*
X153074002Y-110398379D01*
X152955710Y-110447378D01*
X152849249Y-110518512D01*
X152758712Y-110609049D01*
X152687578Y-110715510D01*
X152638579Y-110833802D01*
X152613600Y-110959381D01*
X142942936Y-110959381D01*
X142950000Y-110923869D01*
X142950000Y-110776131D01*
X142921178Y-110631233D01*
X142864641Y-110494742D01*
X142782563Y-110371903D01*
X142678097Y-110267437D01*
X142573251Y-110197381D01*
X148803600Y-110197381D01*
X148803600Y-110325419D01*
X148828579Y-110450998D01*
X148877578Y-110569290D01*
X148948712Y-110675751D01*
X149039249Y-110766288D01*
X149145710Y-110837422D01*
X149264002Y-110886421D01*
X149389581Y-110911400D01*
X149517619Y-110911400D01*
X149643198Y-110886421D01*
X149761490Y-110837422D01*
X149867951Y-110766288D01*
X149958488Y-110675751D01*
X150029622Y-110569290D01*
X150078621Y-110450998D01*
X150103600Y-110325419D01*
X150103600Y-110197381D01*
X150078621Y-110071802D01*
X150029622Y-109953510D01*
X149958488Y-109847049D01*
X149867951Y-109756512D01*
X149761490Y-109685378D01*
X149643198Y-109636379D01*
X149517619Y-109611400D01*
X149389581Y-109611400D01*
X149264002Y-109636379D01*
X149145710Y-109685378D01*
X149039249Y-109756512D01*
X148948712Y-109847049D01*
X148877578Y-109953510D01*
X148828579Y-110071802D01*
X148803600Y-110197381D01*
X142573251Y-110197381D01*
X142555258Y-110185359D01*
X142418767Y-110128822D01*
X142273869Y-110100000D01*
X142126131Y-110100000D01*
X141981233Y-110128822D01*
X141844742Y-110185359D01*
X141721903Y-110267437D01*
X141617437Y-110371903D01*
X141535359Y-110494742D01*
X141478822Y-110631233D01*
X141450000Y-110776131D01*
X137702000Y-110776131D01*
X137702000Y-106006381D01*
X148702000Y-106006381D01*
X148702000Y-106134419D01*
X148726979Y-106259998D01*
X148775978Y-106378290D01*
X148847112Y-106484751D01*
X148937649Y-106575288D01*
X149044110Y-106646422D01*
X149162402Y-106695421D01*
X149287981Y-106720400D01*
X149416019Y-106720400D01*
X149541598Y-106695421D01*
X149659890Y-106646422D01*
X149766351Y-106575288D01*
X149856888Y-106484751D01*
X149928022Y-106378290D01*
X149977021Y-106259998D01*
X150002000Y-106134419D01*
X150002000Y-106006381D01*
X149977021Y-105880802D01*
X149928022Y-105762510D01*
X149856888Y-105656049D01*
X149766351Y-105565512D01*
X149659890Y-105494378D01*
X149541598Y-105445379D01*
X149416019Y-105420400D01*
X149287981Y-105420400D01*
X149162402Y-105445379D01*
X149044110Y-105494378D01*
X148937649Y-105565512D01*
X148847112Y-105656049D01*
X148775978Y-105762510D01*
X148726979Y-105880802D01*
X148702000Y-106006381D01*
X137702000Y-106006381D01*
X137702000Y-104990381D01*
X169174400Y-104990381D01*
X169174400Y-105118419D01*
X169199379Y-105243998D01*
X169248378Y-105362290D01*
X169319512Y-105468751D01*
X169410049Y-105559288D01*
X169516510Y-105630422D01*
X169634802Y-105679421D01*
X169760381Y-105704400D01*
X169888419Y-105704400D01*
X170013998Y-105679421D01*
X170132290Y-105630422D01*
X170238751Y-105559288D01*
X170329288Y-105468751D01*
X170400422Y-105362290D01*
X170449421Y-105243998D01*
X170474400Y-105118419D01*
X170474400Y-104990538D01*
X170481710Y-104995422D01*
X170600002Y-105044421D01*
X170725581Y-105069400D01*
X170853619Y-105069400D01*
X170979198Y-105044421D01*
X171097490Y-104995422D01*
X171203951Y-104924288D01*
X171294488Y-104833751D01*
X171365622Y-104727290D01*
X171414621Y-104608998D01*
X171439600Y-104483419D01*
X171439600Y-104355381D01*
X171414621Y-104229802D01*
X171365622Y-104111510D01*
X171294488Y-104005049D01*
X171203951Y-103914512D01*
X171097490Y-103843378D01*
X170979198Y-103794379D01*
X170853619Y-103769400D01*
X170725581Y-103769400D01*
X170600002Y-103794379D01*
X170481710Y-103843378D01*
X170375249Y-103914512D01*
X170284712Y-104005049D01*
X170213578Y-104111510D01*
X170164579Y-104229802D01*
X170139600Y-104355381D01*
X170139600Y-104483262D01*
X170132290Y-104478378D01*
X170013998Y-104429379D01*
X169888419Y-104404400D01*
X169760381Y-104404400D01*
X169634802Y-104429379D01*
X169516510Y-104478378D01*
X169410049Y-104549512D01*
X169319512Y-104640049D01*
X169248378Y-104746510D01*
X169199379Y-104864802D01*
X169174400Y-104990381D01*
X137702000Y-104990381D01*
X137702000Y-102796131D01*
X141450000Y-102796131D01*
X141450000Y-102943869D01*
X141478822Y-103088767D01*
X141535359Y-103225258D01*
X141617437Y-103348097D01*
X141721903Y-103452563D01*
X141844742Y-103534641D01*
X141981233Y-103591178D01*
X142126131Y-103620000D01*
X142273869Y-103620000D01*
X142418767Y-103591178D01*
X142555258Y-103534641D01*
X142678097Y-103452563D01*
X142715079Y-103415581D01*
X153426400Y-103415581D01*
X153426400Y-103543619D01*
X153451379Y-103669198D01*
X153500378Y-103787490D01*
X153571512Y-103893951D01*
X153662049Y-103984488D01*
X153768510Y-104055622D01*
X153886802Y-104104621D01*
X154012381Y-104129600D01*
X154140419Y-104129600D01*
X154265998Y-104104621D01*
X154384290Y-104055622D01*
X154490751Y-103984488D01*
X154581288Y-103893951D01*
X154652422Y-103787490D01*
X154701421Y-103669198D01*
X154726400Y-103543619D01*
X154726400Y-103415581D01*
X154701421Y-103290002D01*
X154652422Y-103171710D01*
X154581288Y-103065249D01*
X154490751Y-102974712D01*
X154384290Y-102903578D01*
X154265998Y-102854579D01*
X154140419Y-102829600D01*
X154012381Y-102829600D01*
X153886802Y-102854579D01*
X153768510Y-102903578D01*
X153662049Y-102974712D01*
X153571512Y-103065249D01*
X153500378Y-103171710D01*
X153451379Y-103290002D01*
X153426400Y-103415581D01*
X142715079Y-103415581D01*
X142782563Y-103348097D01*
X142864641Y-103225258D01*
X142921178Y-103088767D01*
X142950000Y-102943869D01*
X142950000Y-102796131D01*
X142921178Y-102651233D01*
X142864641Y-102514742D01*
X142782563Y-102391903D01*
X142678097Y-102287437D01*
X142555258Y-102205359D01*
X142418767Y-102148822D01*
X142273869Y-102120000D01*
X142126131Y-102120000D01*
X141981233Y-102148822D01*
X141844742Y-102205359D01*
X141721903Y-102287437D01*
X141617437Y-102391903D01*
X141535359Y-102514742D01*
X141478822Y-102651233D01*
X141450000Y-102796131D01*
X137702000Y-102796131D01*
X137702000Y-98157781D01*
X150327600Y-98157781D01*
X150327600Y-98285819D01*
X150352579Y-98411398D01*
X150401578Y-98529690D01*
X150472712Y-98636151D01*
X150563249Y-98726688D01*
X150669710Y-98797822D01*
X150788002Y-98846821D01*
X150913581Y-98871800D01*
X151041619Y-98871800D01*
X151167198Y-98846821D01*
X151285490Y-98797822D01*
X151391951Y-98726688D01*
X151402058Y-98716581D01*
X176807100Y-98716581D01*
X176807100Y-98844619D01*
X176832079Y-98970198D01*
X176881078Y-99088490D01*
X176952212Y-99194951D01*
X177042749Y-99285488D01*
X177149210Y-99356622D01*
X177267502Y-99405621D01*
X177393081Y-99430600D01*
X177521119Y-99430600D01*
X177646698Y-99405621D01*
X177654519Y-99402381D01*
X178166000Y-99402381D01*
X178166000Y-99530419D01*
X178190979Y-99655998D01*
X178239978Y-99774290D01*
X178311112Y-99880751D01*
X178401649Y-99971288D01*
X178508110Y-100042422D01*
X178626402Y-100091421D01*
X178751981Y-100116400D01*
X178880019Y-100116400D01*
X179005598Y-100091421D01*
X179123890Y-100042422D01*
X179230351Y-99971288D01*
X179253158Y-99948481D01*
X179690000Y-99948481D01*
X179690000Y-100076519D01*
X179714979Y-100202098D01*
X179763978Y-100320390D01*
X179835112Y-100426851D01*
X179925649Y-100517388D01*
X180032110Y-100588522D01*
X180150402Y-100637521D01*
X180275981Y-100662500D01*
X180404019Y-100662500D01*
X180529598Y-100637521D01*
X180647890Y-100588522D01*
X180754351Y-100517388D01*
X180844888Y-100426851D01*
X180916022Y-100320390D01*
X180965021Y-100202098D01*
X180990000Y-100076519D01*
X180990000Y-99948481D01*
X180965021Y-99822902D01*
X180916022Y-99704610D01*
X180844888Y-99598149D01*
X180754351Y-99507612D01*
X180647890Y-99436478D01*
X180529598Y-99387479D01*
X180404019Y-99362500D01*
X180275981Y-99362500D01*
X180150402Y-99387479D01*
X180032110Y-99436478D01*
X179925649Y-99507612D01*
X179835112Y-99598149D01*
X179763978Y-99704610D01*
X179714979Y-99822902D01*
X179690000Y-99948481D01*
X179253158Y-99948481D01*
X179320888Y-99880751D01*
X179392022Y-99774290D01*
X179441021Y-99655998D01*
X179466000Y-99530419D01*
X179466000Y-99402381D01*
X179441021Y-99276802D01*
X179392022Y-99158510D01*
X179320888Y-99052049D01*
X179230351Y-98961512D01*
X179123890Y-98890378D01*
X179005598Y-98841379D01*
X178880019Y-98816400D01*
X178751981Y-98816400D01*
X178626402Y-98841379D01*
X178508110Y-98890378D01*
X178401649Y-98961512D01*
X178311112Y-99052049D01*
X178239978Y-99158510D01*
X178190979Y-99276802D01*
X178166000Y-99402381D01*
X177654519Y-99402381D01*
X177764990Y-99356622D01*
X177871451Y-99285488D01*
X177961988Y-99194951D01*
X178033122Y-99088490D01*
X178082121Y-98970198D01*
X178107100Y-98844619D01*
X178107100Y-98716581D01*
X178082121Y-98591002D01*
X178033122Y-98472710D01*
X177961988Y-98366249D01*
X177871451Y-98275712D01*
X177764990Y-98204578D01*
X177646698Y-98155579D01*
X177521119Y-98130600D01*
X177393081Y-98130600D01*
X177267502Y-98155579D01*
X177149210Y-98204578D01*
X177042749Y-98275712D01*
X176952212Y-98366249D01*
X176881078Y-98472710D01*
X176832079Y-98591002D01*
X176807100Y-98716581D01*
X151402058Y-98716581D01*
X151482488Y-98636151D01*
X151553622Y-98529690D01*
X151602621Y-98411398D01*
X151627600Y-98285819D01*
X151627600Y-98157781D01*
X151602621Y-98032202D01*
X151553622Y-97913910D01*
X151482488Y-97807449D01*
X151391951Y-97716912D01*
X151285490Y-97645778D01*
X151167198Y-97596779D01*
X151041619Y-97571800D01*
X150913581Y-97571800D01*
X150788002Y-97596779D01*
X150669710Y-97645778D01*
X150563249Y-97716912D01*
X150472712Y-97807449D01*
X150401578Y-97913910D01*
X150352579Y-98032202D01*
X150327600Y-98157781D01*
X137702000Y-98157781D01*
X137702000Y-94881181D01*
X151953200Y-94881181D01*
X151953200Y-95009219D01*
X151978179Y-95134798D01*
X152027178Y-95253090D01*
X152098312Y-95359551D01*
X152188849Y-95450088D01*
X152295310Y-95521222D01*
X152413602Y-95570221D01*
X152539181Y-95595200D01*
X152667219Y-95595200D01*
X152792798Y-95570221D01*
X152911090Y-95521222D01*
X153017551Y-95450088D01*
X153108088Y-95359551D01*
X153179222Y-95253090D01*
X153180716Y-95249481D01*
X178293000Y-95249481D01*
X178293000Y-95377519D01*
X178317979Y-95503098D01*
X178366978Y-95621390D01*
X178438112Y-95727851D01*
X178528649Y-95818388D01*
X178635110Y-95889522D01*
X178753402Y-95938521D01*
X178803570Y-95948500D01*
X178753402Y-95958479D01*
X178635110Y-96007478D01*
X178528649Y-96078612D01*
X178438112Y-96169149D01*
X178366978Y-96275610D01*
X178317979Y-96393902D01*
X178293000Y-96519481D01*
X178293000Y-96647519D01*
X178317979Y-96773098D01*
X178366978Y-96891390D01*
X178438112Y-96997851D01*
X178528649Y-97088388D01*
X178635110Y-97159522D01*
X178753402Y-97208521D01*
X178878981Y-97233500D01*
X179007019Y-97233500D01*
X179132598Y-97208521D01*
X179250890Y-97159522D01*
X179357351Y-97088388D01*
X179447888Y-96997851D01*
X179519022Y-96891390D01*
X179568021Y-96773098D01*
X179593000Y-96647519D01*
X179593000Y-96519481D01*
X179568021Y-96393902D01*
X179519022Y-96275610D01*
X179447888Y-96169149D01*
X179357351Y-96078612D01*
X179250890Y-96007478D01*
X179132598Y-95958479D01*
X179082430Y-95948500D01*
X179132598Y-95938521D01*
X179250890Y-95889522D01*
X179357351Y-95818388D01*
X179447888Y-95727851D01*
X179519022Y-95621390D01*
X179568021Y-95503098D01*
X179593000Y-95377519D01*
X179593000Y-95249481D01*
X179568021Y-95123902D01*
X179519022Y-95005610D01*
X179447888Y-94899149D01*
X179357351Y-94808612D01*
X179250890Y-94737478D01*
X179132598Y-94688479D01*
X179007019Y-94663500D01*
X178878981Y-94663500D01*
X178753402Y-94688479D01*
X178635110Y-94737478D01*
X178528649Y-94808612D01*
X178438112Y-94899149D01*
X178366978Y-95005610D01*
X178317979Y-95123902D01*
X178293000Y-95249481D01*
X153180716Y-95249481D01*
X153228221Y-95134798D01*
X153253200Y-95009219D01*
X153253200Y-94881181D01*
X153228221Y-94755602D01*
X153179222Y-94637310D01*
X153108088Y-94530849D01*
X153017551Y-94440312D01*
X152911090Y-94369178D01*
X152792798Y-94320179D01*
X152667219Y-94295200D01*
X152539181Y-94295200D01*
X152413602Y-94320179D01*
X152295310Y-94369178D01*
X152188849Y-94440312D01*
X152098312Y-94530849D01*
X152027178Y-94637310D01*
X151978179Y-94755602D01*
X151953200Y-94881181D01*
X137702000Y-94881181D01*
X137702000Y-94102000D01*
X146889985Y-94102000D01*
X146899788Y-94102976D01*
X146909804Y-94102000D01*
X146909920Y-94102000D01*
X146920767Y-94100932D01*
X146939390Y-94099117D01*
X146939485Y-94099088D01*
X146939599Y-94099077D01*
X146959358Y-94093083D01*
X146977479Y-94087607D01*
X146977571Y-94087558D01*
X146977676Y-94087526D01*
X146995672Y-94077907D01*
X147003795Y-94073576D01*
X147003877Y-94073521D01*
X147012768Y-94068769D01*
X147020396Y-94062508D01*
X147196037Y-93945414D01*
X148487986Y-93945414D01*
X148487986Y-94048830D01*
X148508162Y-94150259D01*
X148547737Y-94245803D01*
X148605192Y-94331790D01*
X148678318Y-94404916D01*
X148764305Y-94462371D01*
X148859849Y-94501946D01*
X148961278Y-94522122D01*
X149064694Y-94522122D01*
X149166123Y-94501946D01*
X149261667Y-94462371D01*
X149347654Y-94404916D01*
X149420780Y-94331790D01*
X149469980Y-94258157D01*
X170495589Y-94258157D01*
X170495589Y-94361573D01*
X170515765Y-94463002D01*
X170555340Y-94558546D01*
X170612795Y-94644533D01*
X170685921Y-94717659D01*
X170771908Y-94775114D01*
X170867452Y-94814689D01*
X170968881Y-94834865D01*
X171072297Y-94834865D01*
X171173726Y-94814689D01*
X171269270Y-94775114D01*
X171355257Y-94717659D01*
X171428383Y-94644533D01*
X171485838Y-94558546D01*
X171525413Y-94463002D01*
X171545589Y-94361573D01*
X171545589Y-94258157D01*
X171525413Y-94156728D01*
X171485838Y-94061184D01*
X171428383Y-93975197D01*
X171355257Y-93902071D01*
X171269270Y-93844616D01*
X171173726Y-93805041D01*
X171072297Y-93784865D01*
X170968881Y-93784865D01*
X170867452Y-93805041D01*
X170771908Y-93844616D01*
X170685921Y-93902071D01*
X170612795Y-93975197D01*
X170555340Y-94061184D01*
X170515765Y-94156728D01*
X170495589Y-94258157D01*
X149469980Y-94258157D01*
X149478235Y-94245803D01*
X149517810Y-94150259D01*
X149537986Y-94048830D01*
X149537986Y-93945414D01*
X149517810Y-93843985D01*
X149478235Y-93748441D01*
X149420780Y-93662454D01*
X149347654Y-93589328D01*
X149261667Y-93531873D01*
X149166123Y-93492298D01*
X149064694Y-93472122D01*
X148961278Y-93472122D01*
X148859849Y-93492298D01*
X148764305Y-93531873D01*
X148678318Y-93589328D01*
X148605192Y-93662454D01*
X148547737Y-93748441D01*
X148508162Y-93843985D01*
X148487986Y-93945414D01*
X147196037Y-93945414D01*
X148740667Y-92915661D01*
X150014658Y-92915661D01*
X150014658Y-93019077D01*
X150034834Y-93120506D01*
X150074409Y-93216050D01*
X150131864Y-93302037D01*
X150204990Y-93375163D01*
X150290977Y-93432618D01*
X150386521Y-93472193D01*
X150487950Y-93492369D01*
X150591366Y-93492369D01*
X150692795Y-93472193D01*
X150788339Y-93432618D01*
X150874326Y-93375163D01*
X150947452Y-93302037D01*
X151004907Y-93216050D01*
X151044482Y-93120506D01*
X151064658Y-93019077D01*
X151064658Y-92915661D01*
X151044482Y-92814232D01*
X151004907Y-92718688D01*
X150947452Y-92632701D01*
X150874326Y-92559575D01*
X150788339Y-92502120D01*
X150692795Y-92462545D01*
X150591366Y-92442369D01*
X150487950Y-92442369D01*
X150386521Y-92462545D01*
X150290977Y-92502120D01*
X150204990Y-92559575D01*
X150131864Y-92632701D01*
X150074409Y-92718688D01*
X150034834Y-92814232D01*
X150014658Y-92915661D01*
X148740667Y-92915661D01*
X153561161Y-89702000D01*
X156200000Y-89702000D01*
X156200000Y-93750000D01*
G36*
X168731410Y-113165417D02*
G01*
X167368142Y-114528687D01*
X167350621Y-114440602D01*
X167301622Y-114322310D01*
X167242616Y-114234000D01*
X167353219Y-114234000D01*
X167478798Y-114209021D01*
X167597090Y-114160022D01*
X167703551Y-114088888D01*
X167794088Y-113998351D01*
X167865222Y-113891890D01*
X167914221Y-113773598D01*
X167939200Y-113648019D01*
X167939200Y-113519981D01*
X167914221Y-113394402D01*
X167865222Y-113276110D01*
X167794088Y-113169649D01*
X167703551Y-113079112D01*
X167597090Y-113007978D01*
X167478798Y-112958979D01*
X167388335Y-112940985D01*
X167428622Y-112880690D01*
X167477621Y-112762398D01*
X167502600Y-112636819D01*
X167502600Y-112508781D01*
X167477621Y-112383202D01*
X167428622Y-112264910D01*
X167357488Y-112158449D01*
X167266951Y-112067912D01*
X167160490Y-111996778D01*
X167042198Y-111947779D01*
X166916619Y-111922800D01*
X166788581Y-111922800D01*
X166663002Y-111947779D01*
X166544710Y-111996778D01*
X166438249Y-112067912D01*
X166347712Y-112158449D01*
X166276578Y-112264910D01*
X166227579Y-112383202D01*
X166202600Y-112508781D01*
X166202600Y-112636819D01*
X166227579Y-112762398D01*
X166276578Y-112880690D01*
X166347712Y-112987151D01*
X166438249Y-113077688D01*
X166544710Y-113148822D01*
X166663002Y-113197821D01*
X166753465Y-113215815D01*
X166713178Y-113276110D01*
X166664179Y-113394402D01*
X166639200Y-113519981D01*
X166639200Y-113648019D01*
X166664179Y-113773598D01*
X166713178Y-113891890D01*
X166772184Y-113980200D01*
X166661581Y-113980200D01*
X166536002Y-114005179D01*
X166417710Y-114054178D01*
X166311249Y-114125312D01*
X166220712Y-114215849D01*
X166149578Y-114322310D01*
X166100579Y-114440602D01*
X166075600Y-114566181D01*
X166075600Y-114694219D01*
X166100579Y-114819798D01*
X166149578Y-114938090D01*
X166177715Y-114980201D01*
X163486974Y-114980201D01*
X168731411Y-109735765D01*
X168731410Y-113165417D01*
G37*
X168731410Y-113165417D02*
X167368142Y-114528687D01*
X167350621Y-114440602D01*
X167301622Y-114322310D01*
X167242616Y-114234000D01*
X167353219Y-114234000D01*
X167478798Y-114209021D01*
X167597090Y-114160022D01*
X167703551Y-114088888D01*
X167794088Y-113998351D01*
X167865222Y-113891890D01*
X167914221Y-113773598D01*
X167939200Y-113648019D01*
X167939200Y-113519981D01*
X167914221Y-113394402D01*
X167865222Y-113276110D01*
X167794088Y-113169649D01*
X167703551Y-113079112D01*
X167597090Y-113007978D01*
X167478798Y-112958979D01*
X167388335Y-112940985D01*
X167428622Y-112880690D01*
X167477621Y-112762398D01*
X167502600Y-112636819D01*
X167502600Y-112508781D01*
X167477621Y-112383202D01*
X167428622Y-112264910D01*
X167357488Y-112158449D01*
X167266951Y-112067912D01*
X167160490Y-111996778D01*
X167042198Y-111947779D01*
X166916619Y-111922800D01*
X166788581Y-111922800D01*
X166663002Y-111947779D01*
X166544710Y-111996778D01*
X166438249Y-112067912D01*
X166347712Y-112158449D01*
X166276578Y-112264910D01*
X166227579Y-112383202D01*
X166202600Y-112508781D01*
X166202600Y-112636819D01*
X166227579Y-112762398D01*
X166276578Y-112880690D01*
X166347712Y-112987151D01*
X166438249Y-113077688D01*
X166544710Y-113148822D01*
X166663002Y-113197821D01*
X166753465Y-113215815D01*
X166713178Y-113276110D01*
X166664179Y-113394402D01*
X166639200Y-113519981D01*
X166639200Y-113648019D01*
X166664179Y-113773598D01*
X166713178Y-113891890D01*
X166772184Y-113980200D01*
X166661581Y-113980200D01*
X166536002Y-114005179D01*
X166417710Y-114054178D01*
X166311249Y-114125312D01*
X166220712Y-114215849D01*
X166149578Y-114322310D01*
X166100579Y-114440602D01*
X166075600Y-114566181D01*
X166075600Y-114694219D01*
X166100579Y-114819798D01*
X166149578Y-114938090D01*
X166177715Y-114980201D01*
X163486974Y-114980201D01*
X168731411Y-109735765D01*
X168731410Y-113165417D01*
G36*
X146685800Y-118730878D02*
G01*
X146685800Y-120399309D01*
X146603686Y-120481423D01*
X146558399Y-120549200D01*
X145973800Y-120549200D01*
X145964045Y-120550161D01*
X145954666Y-120553006D01*
X145946021Y-120557627D01*
X145938445Y-120563845D01*
X145932227Y-120571421D01*
X145927606Y-120580066D01*
X145924761Y-120589445D01*
X145923800Y-120599200D01*
X145923800Y-121184200D01*
X145261800Y-121184200D01*
X145261800Y-118693400D01*
X146629709Y-118693400D01*
X146685800Y-118730878D01*
G37*
X146685800Y-118730878D02*
X146685800Y-120399309D01*
X146603686Y-120481423D01*
X146558399Y-120549200D01*
X145973800Y-120549200D01*
X145964045Y-120550161D01*
X145954666Y-120553006D01*
X145946021Y-120557627D01*
X145938445Y-120563845D01*
X145932227Y-120571421D01*
X145927606Y-120580066D01*
X145924761Y-120589445D01*
X145923800Y-120599200D01*
X145923800Y-121184200D01*
X145261800Y-121184200D01*
X145261800Y-118693400D01*
X146629709Y-118693400D01*
X146685800Y-118730878D01*
G36*
X146711200Y-120379542D02*
G01*
X146694223Y-120390886D01*
X146662909Y-120422200D01*
X145796000Y-120422200D01*
X145786245Y-120423161D01*
X145776866Y-120426006D01*
X145768221Y-120430627D01*
X145760645Y-120436845D01*
X145754427Y-120444421D01*
X145749806Y-120453066D01*
X145746961Y-120462445D01*
X145746000Y-120472200D01*
X145746000Y-121311200D01*
X145236400Y-121311200D01*
X145236400Y-118769600D01*
X146711200Y-118769600D01*
X146711200Y-120379542D01*
G37*
X146711200Y-120379542D02*
X146694223Y-120390886D01*
X146662909Y-120422200D01*
X145796000Y-120422200D01*
X145786245Y-120423161D01*
X145776866Y-120426006D01*
X145768221Y-120430627D01*
X145760645Y-120436845D01*
X145754427Y-120444421D01*
X145749806Y-120453066D01*
X145746961Y-120462445D01*
X145746000Y-120472200D01*
X145746000Y-121311200D01*
X145236400Y-121311200D01*
X145236400Y-118769600D01*
X146711200Y-118769600D01*
X146711200Y-120379542D01*
%TD*%
D15*
X179380560Y-118594144D03*
X167309800Y-124815600D03*
X171018200Y-118592600D03*
X166344600Y-118592600D03*
X154635200Y-124612400D03*
X158191200Y-118745000D03*
X152603200Y-94945200D03*
X154559000Y-105765001D03*
X170789600Y-104419400D03*
X169892624Y-107424576D03*
X169875200Y-110185200D03*
X181875000Y-100558600D03*
X179060300Y-103235300D03*
X166827200Y-108534200D03*
X153085800Y-124180600D03*
X138379200Y-118999000D03*
X138379200Y-120523000D03*
X138379200Y-121996200D03*
X138379200Y-123494800D03*
X174447788Y-101481207D03*
X176974500Y-103251000D03*
X166141400Y-90125000D03*
X166141400Y-91262200D03*
X166141400Y-92278200D03*
X166141400Y-93294200D03*
X166141400Y-99263200D03*
X166141400Y-98298000D03*
X153847800Y-90125000D03*
X153847800Y-91287600D03*
X153847800Y-94259400D03*
X153847800Y-95300800D03*
X153847800Y-97282000D03*
X153847800Y-98247200D03*
X162026600Y-104368600D03*
X165684200Y-105816400D03*
X164490400Y-118364000D03*
X148310600Y-119786400D03*
X145567400Y-119151400D03*
X146380200Y-119151400D03*
X146380200Y-119964200D03*
X145567400Y-119964200D03*
X143840200Y-122478800D03*
X141121136Y-118997736D03*
X157886400Y-115519200D03*
X154609800Y-126695200D03*
X161323206Y-124781113D03*
X158191200Y-122706998D03*
X161318496Y-122719989D03*
X168452800Y-124942600D03*
X169621200Y-121691400D03*
X179959000Y-121716800D03*
X181152800Y-106654600D03*
X161569400Y-120523000D03*
X159969200Y-120497600D03*
X152349200Y-119303800D03*
X149453600Y-105003600D03*
X146939000Y-108254800D03*
X147650200Y-108839000D03*
X154127200Y-104495600D03*
X157810200Y-107340400D03*
X141859000Y-95453200D03*
X142595600Y-99237800D03*
X143408400Y-98298000D03*
X138125000Y-94525000D03*
X165658800Y-113538000D03*
X172567600Y-125603000D03*
X171754800Y-126238000D03*
X172567600Y-124536200D03*
X154940000Y-129692400D03*
X161874200Y-129819400D03*
X158191200Y-129768600D03*
X165277800Y-129895600D03*
X146558000Y-125018800D03*
X148336000Y-126136400D03*
X139141200Y-94538800D03*
X138176000Y-95504000D03*
X181864000Y-99110800D03*
X181864000Y-94538800D03*
X177914300Y-94526100D03*
X141224000Y-115595400D03*
X181216000Y-121712000D03*
X161734500Y-108750200D03*
X158711900Y-104350002D03*
X168884600Y-96215200D03*
X173050200Y-96215200D03*
X174053500Y-94526100D03*
X163144200Y-103301800D03*
X164172900Y-103301800D03*
X166801800Y-103517700D03*
X166090600Y-104292400D03*
X163258500Y-104267000D03*
X142379700Y-94500700D03*
X143522700Y-94500700D03*
X144576800Y-94500700D03*
X145834100Y-94500700D03*
X138226800Y-99885500D03*
X138226800Y-101247863D03*
X138226800Y-102610226D03*
X138226800Y-103972589D03*
X138226800Y-105334952D03*
X141617700Y-101447600D03*
X141554200Y-104216200D03*
X141643100Y-105422700D03*
X142557500Y-106362500D03*
X143383000Y-107099100D03*
X144272000Y-107873800D03*
X145072100Y-108750100D03*
X138226800Y-106697315D03*
X138988800Y-107556300D03*
X139814300Y-108381800D03*
X140627100Y-109156500D03*
X141389100Y-109867700D03*
X143294100Y-111861600D03*
X143814800Y-113550700D03*
X147078700Y-113474500D03*
X147091400Y-112318800D03*
X150977600Y-103898700D03*
X150977600Y-102844600D03*
X150253700Y-101714300D03*
X138226800Y-116205000D03*
X138214100Y-114909600D03*
X138226800Y-113509130D03*
X138226800Y-112146767D03*
X138226800Y-110784404D03*
X138226800Y-109422041D03*
X138226800Y-108059678D03*
X147434300Y-125564900D03*
X154063700Y-121577100D03*
X151866600Y-123647200D03*
X154216100Y-123659900D03*
X161582100Y-121615200D03*
X161709100Y-123748800D03*
X172466000Y-123190000D03*
X172466000Y-122008900D03*
X174523400Y-119761000D03*
X175666400Y-119761000D03*
X176898300Y-119722900D03*
X177977800Y-119786400D03*
X178739800Y-117576600D03*
X177825400Y-117500400D03*
X176695100Y-117500400D03*
X175488600Y-117525800D03*
X172745400Y-117398800D03*
X171754800Y-117398800D03*
X167386000Y-91071700D03*
X152793700Y-90792300D03*
X170116500Y-97675700D03*
X170116500Y-99301300D03*
X170103800Y-100787200D03*
X171754800Y-116281200D03*
X169862500Y-114935000D03*
X179031900Y-112128300D03*
X147108574Y-120895774D03*
X148615400Y-122148600D03*
X149352000Y-106070400D03*
X150977600Y-98221800D03*
X175082200Y-107462002D03*
X169824400Y-105054400D03*
X178333400Y-104978200D03*
X169595800Y-117627400D03*
X167513000Y-122682000D03*
X174625000Y-103378000D03*
X180340000Y-100012500D03*
X178943000Y-95313500D03*
X169443400Y-119684800D03*
X178943000Y-96583500D03*
X169595800Y-116586000D03*
X175190685Y-104267000D03*
X178816000Y-99466400D03*
X158800800Y-114300000D03*
X177317400Y-107619800D03*
X168681400Y-106527600D03*
X142189200Y-117271800D03*
X166852600Y-120726200D03*
X149453600Y-111658400D03*
X154076400Y-103479600D03*
X166725600Y-114630200D03*
X180218731Y-103117636D03*
X181216000Y-116632000D03*
X181218721Y-103122356D03*
X181216000Y-115616000D03*
X155336142Y-108544458D03*
X141757400Y-122047000D03*
X145542000Y-123977400D03*
X148551900Y-98933000D03*
X181178200Y-112547400D03*
X177457100Y-98780600D03*
X179298600Y-106565700D03*
X179767227Y-114632101D03*
X154099398Y-109623087D03*
X179755800Y-108508800D03*
X149453600Y-110261400D03*
X166852600Y-112572800D03*
X179082800Y-113639600D03*
X166827200Y-109550200D03*
X154102110Y-108623089D03*
X153263600Y-111023400D03*
X167289200Y-113584000D03*
X139379465Y-116515052D03*
X147040600Y-118186200D03*
X155587600Y-107391200D03*
X161696400Y-107467400D03*
X178028600Y-109908810D03*
X161658300Y-105892600D03*
X178777900Y-110629700D03*
X155999000Y-121732000D03*
X159838372Y-124623840D03*
X159349999Y-126896865D03*
X156083000Y-124485400D03*
X171020589Y-94309865D03*
X169530784Y-93227459D03*
X150539658Y-92967369D03*
X149012986Y-93997122D03*
X150918815Y-127387791D03*
X152445487Y-128417544D03*
X167577766Y-128331569D03*
X169122178Y-127328616D03*
X142200000Y-110850000D03*
X142200000Y-102870000D03*
D16*
X162286000Y-126404500D03*
X157714000Y-126404500D03*
D17*
X163048000Y-128627000D03*
X156952000Y-128627000D03*
M02*
