%TF.GenerationSoftware,KiCad,Pcbnew,5.1.5+dfsg1-2~bpo10+1*%
%TF.CreationDate,Date%
%TF.ProjectId,osw,6f73772e-6b69-4636-9164-5f7063625858,1.0*%
%TF.SameCoordinates,Original*%
%TF.FileFunction,Other,User*%
%FSLAX46Y46*%
G04 Gerber Fmt 4.6, Leading zero omitted, Abs format (unit mm)*
G04 Created by KiCad*
%MOMM*%
%LPD*%
G04 APERTURE LIST*
%ADD10C,0.050000*%
%ADD11C,0.150000*%
G04 APERTURE END LIST*
D10*
%TO.C,J1*%
X138090500Y-98933000D02*
X141690500Y-98933000D01*
X138090500Y-94488000D02*
X138090500Y-98933000D01*
X141690500Y-94488000D02*
X138090500Y-94488000D01*
X141690500Y-98933000D02*
X141690500Y-94488000D01*
D11*
%TO.C,U8*%
X154056400Y-88884000D02*
X165994400Y-88884000D01*
X154005600Y-104378000D02*
X165994400Y-104378000D01*
X154005600Y-104378000D02*
X154056400Y-88884000D01*
X165994400Y-104378000D02*
X165994400Y-88884000D01*
D10*
%TO.C,R18*%
X173488800Y-98482400D02*
X173488800Y-99942400D01*
X173488800Y-99942400D02*
X170528800Y-99942400D01*
X170528800Y-99942400D02*
X170528800Y-98482400D01*
X170528800Y-98482400D02*
X173488800Y-98482400D01*
%TO.C,C11*%
X173488800Y-96907600D02*
X173488800Y-98367600D01*
X173488800Y-98367600D02*
X170528800Y-98367600D01*
X170528800Y-98367600D02*
X170528800Y-96907600D01*
X170528800Y-96907600D02*
X173488800Y-96907600D01*
%TO.C,C21*%
X166744100Y-98367600D02*
X166744100Y-96907600D01*
X166744100Y-96907600D02*
X169704100Y-96907600D01*
X169704100Y-96907600D02*
X169704100Y-98367600D01*
X169704100Y-98367600D02*
X166744100Y-98367600D01*
%TO.C,C22*%
X154895100Y-108121200D02*
X154895100Y-106661200D01*
X154895100Y-106661200D02*
X157855100Y-106661200D01*
X157855100Y-106661200D02*
X157855100Y-108121200D01*
X157855100Y-108121200D02*
X154895100Y-108121200D01*
%TO.C,C20*%
X166744100Y-99942400D02*
X166744100Y-98482400D01*
X166744100Y-98482400D02*
X169704100Y-98482400D01*
X169704100Y-98482400D02*
X169704100Y-99942400D01*
X169704100Y-99942400D02*
X166744100Y-99942400D01*
%TO.C,XS1*%
X137700000Y-100050000D02*
X137700000Y-115550000D01*
X137700000Y-100050000D02*
X141200000Y-100050000D01*
X141200000Y-100050000D02*
X141200000Y-99050000D01*
X141200000Y-99050000D02*
X143950000Y-99050000D01*
X143950000Y-99050000D02*
X143950000Y-100050000D01*
X143950000Y-100050000D02*
X151200000Y-100050000D01*
X151200000Y-100050000D02*
X151200000Y-99050000D01*
X151200000Y-99050000D02*
X153200000Y-99050000D01*
X153200000Y-99050000D02*
X153200000Y-100550000D01*
X153200000Y-100550000D02*
X153700000Y-100550000D01*
X153700000Y-100550000D02*
X153700000Y-110550000D01*
X153700000Y-110550000D02*
X152450000Y-110550000D01*
X152450000Y-110550000D02*
X152450000Y-113550000D01*
X152450000Y-113550000D02*
X153200000Y-113550000D01*
X153200000Y-113550000D02*
X153200000Y-115800000D01*
X153200000Y-115800000D02*
X151200000Y-115800000D01*
X151200000Y-115800000D02*
X151200000Y-115550000D01*
X151200000Y-115550000D02*
X143950000Y-115550000D01*
X143950000Y-115550000D02*
X143950000Y-116550000D01*
X143950000Y-116550000D02*
X141200000Y-116550000D01*
X141200000Y-116550000D02*
X141200000Y-115550000D01*
X141200000Y-115550000D02*
X137700000Y-115550000D01*
%TO.C,R5*%
X153073000Y-93693200D02*
X153073000Y-91833200D01*
X154013000Y-93693200D02*
X153073000Y-93693200D01*
X154013000Y-91833200D02*
X154013000Y-93693200D01*
X153073000Y-91833200D02*
X154013000Y-91833200D01*
%TO.C,U13*%
X165668100Y-112047100D02*
X162068100Y-112047100D01*
X165668100Y-108247100D02*
X165668100Y-112047100D01*
X162068100Y-108247100D02*
X165668100Y-108247100D01*
X162068100Y-112047100D02*
X162068100Y-108247100D01*
%TO.C,U12*%
X158999000Y-124482000D02*
X158999000Y-120882000D01*
X158999000Y-120882000D02*
X155199000Y-120882000D01*
X155199000Y-120882000D02*
X155199000Y-124482000D01*
X155199000Y-124482000D02*
X158999000Y-124482000D01*
%TO.C,U10*%
X155199000Y-120672000D02*
X155199000Y-117072000D01*
X158999000Y-120672000D02*
X155199000Y-120672000D01*
X158999000Y-117072000D02*
X158999000Y-120672000D01*
X155199000Y-117072000D02*
X158999000Y-117072000D01*
%TO.C,R22*%
X154895100Y-114814600D02*
X157855100Y-114814600D01*
X154895100Y-116274600D02*
X154895100Y-114814600D01*
X157855100Y-116274600D02*
X154895100Y-116274600D01*
X157855100Y-114814600D02*
X157855100Y-116274600D01*
%TO.C,R21*%
X157855100Y-114750600D02*
X154895100Y-114750600D01*
X157855100Y-113290600D02*
X157855100Y-114750600D01*
X154895100Y-113290600D02*
X157855100Y-113290600D01*
X154895100Y-114750600D02*
X154895100Y-113290600D01*
%TO.C,R20*%
X165335400Y-115258600D02*
X162375400Y-115258600D01*
X165335400Y-113798600D02*
X165335400Y-115258600D01*
X162375400Y-113798600D02*
X165335400Y-113798600D01*
X162375400Y-115258600D02*
X162375400Y-113798600D01*
%TO.C,R12*%
X158611100Y-106623100D02*
X161571100Y-106623100D01*
X158611100Y-108083100D02*
X158611100Y-106623100D01*
X161571100Y-108083100D02*
X158611100Y-108083100D01*
X161571100Y-106623100D02*
X161571100Y-108083100D01*
%TO.C,R3*%
X169704100Y-104666800D02*
X166744100Y-104666800D01*
X169704100Y-103206800D02*
X169704100Y-104666800D01*
X166744100Y-103206800D02*
X169704100Y-103206800D01*
X166744100Y-104666800D02*
X166744100Y-103206800D01*
%TO.C,R2*%
X161571100Y-106559100D02*
X158611100Y-106559100D01*
X161571100Y-105099100D02*
X161571100Y-106559100D01*
X158611100Y-105099100D02*
X161571100Y-105099100D01*
X158611100Y-106559100D02*
X158611100Y-105099100D01*
%TO.C,C19*%
X165322600Y-106559100D02*
X162362600Y-106559100D01*
X165322600Y-105099100D02*
X165322600Y-106559100D01*
X162362600Y-105099100D02*
X165322600Y-105099100D01*
X162362600Y-106559100D02*
X162362600Y-105099100D01*
%TO.C,C18*%
X160814000Y-120479000D02*
X160814000Y-117519000D01*
X162274000Y-120479000D02*
X160814000Y-120479000D01*
X162274000Y-117519000D02*
X162274000Y-120479000D01*
X160814000Y-117519000D02*
X162274000Y-117519000D01*
%TO.C,C17*%
X165322600Y-108146600D02*
X162362600Y-108146600D01*
X165322600Y-106686600D02*
X165322600Y-108146600D01*
X162362600Y-106686600D02*
X165322600Y-106686600D01*
X162362600Y-108146600D02*
X162362600Y-106686600D01*
%TO.C,C16*%
X159226500Y-120479000D02*
X159226500Y-117519000D01*
X160686500Y-120479000D02*
X159226500Y-120479000D01*
X160686500Y-117519000D02*
X160686500Y-120479000D01*
X159226500Y-117519000D02*
X160686500Y-117519000D01*
%TO.C,C15*%
X165335400Y-113683800D02*
X162375400Y-113683800D01*
X165335400Y-112223800D02*
X165335400Y-113683800D01*
X162375400Y-112223800D02*
X165335400Y-112223800D01*
X162375400Y-113683800D02*
X162375400Y-112223800D01*
%TO.C,C14*%
X153600400Y-120961600D02*
X153600400Y-118001600D01*
X155060400Y-120961600D02*
X153600400Y-120961600D01*
X155060400Y-118001600D02*
X155060400Y-120961600D01*
X153600400Y-118001600D02*
X155060400Y-118001600D01*
%TO.C,C6*%
X161851200Y-110750000D02*
X161851200Y-115310000D01*
X159611200Y-110750000D02*
X161851200Y-110750000D01*
X159611200Y-115310000D02*
X159611200Y-110750000D01*
X161851200Y-115310000D02*
X159611200Y-115310000D01*
%TO.C,C5*%
X151229200Y-121279000D02*
X151229200Y-116719000D01*
X153469200Y-121279000D02*
X151229200Y-121279000D01*
X153469200Y-116719000D02*
X153469200Y-121279000D01*
X151229200Y-116719000D02*
X153469200Y-116719000D01*
%TO.C,U2*%
X179450000Y-100350000D02*
X181950000Y-100350000D01*
X179450000Y-102850000D02*
X179450000Y-100350000D01*
X181950000Y-102850000D02*
X179450000Y-102850000D01*
X181950000Y-100350000D02*
X181950000Y-102850000D01*
%TO.C,U9*%
X149290400Y-116750000D02*
X141590400Y-116750000D01*
X149290400Y-120250000D02*
X149290400Y-116750000D01*
X141590400Y-120250000D02*
X149290400Y-120250000D01*
X141590400Y-116750000D02*
X141590400Y-120250000D01*
%TO.C,R19*%
X137712000Y-118268500D02*
X137712000Y-116808500D01*
X137712000Y-116808500D02*
X140672000Y-116808500D01*
X140672000Y-116808500D02*
X140672000Y-118268500D01*
X140672000Y-118268500D02*
X137712000Y-118268500D01*
%TO.C,C13*%
X179230000Y-102930000D02*
X177770000Y-102930000D01*
X177770000Y-102930000D02*
X177770000Y-99970000D01*
X177770000Y-99970000D02*
X179230000Y-99970000D01*
X179230000Y-99970000D02*
X179230000Y-102930000D01*
%TO.C,C12*%
X173488800Y-100057200D02*
X173488800Y-101517200D01*
X173488800Y-101517200D02*
X170528800Y-101517200D01*
X170528800Y-101517200D02*
X170528800Y-100057200D01*
X170528800Y-100057200D02*
X173488800Y-100057200D01*
%TO.C,C10*%
X166744100Y-101517200D02*
X166744100Y-100057200D01*
X166744100Y-100057200D02*
X169704100Y-100057200D01*
X169704100Y-100057200D02*
X169704100Y-101517200D01*
X169704100Y-101517200D02*
X166744100Y-101517200D01*
%TO.C,C9*%
X163861500Y-120479000D02*
X162401500Y-120479000D01*
X162401500Y-120479000D02*
X162401500Y-117519000D01*
X162401500Y-117519000D02*
X163861500Y-117519000D01*
X163861500Y-117519000D02*
X163861500Y-120479000D01*
%TO.C,C8*%
X166961000Y-118904000D02*
X166961000Y-120364000D01*
X166961000Y-120364000D02*
X164001000Y-120364000D01*
X164001000Y-120364000D02*
X164001000Y-118904000D01*
X164001000Y-118904000D02*
X166961000Y-118904000D01*
%TO.C,C7*%
X154882400Y-106571800D02*
X154882400Y-105111800D01*
X154882400Y-105111800D02*
X157842400Y-105111800D01*
X157842400Y-105111800D02*
X157842400Y-106571800D01*
X157842400Y-106571800D02*
X154882400Y-106571800D01*
%TO.C,R17*%
X145670000Y-96729500D02*
X145670000Y-98189500D01*
X145670000Y-98189500D02*
X142710000Y-98189500D01*
X142710000Y-98189500D02*
X142710000Y-96729500D01*
X142710000Y-96729500D02*
X145670000Y-96729500D01*
%TO.C,R16*%
X142710000Y-96589500D02*
X142710000Y-95129500D01*
X142710000Y-95129500D02*
X145670000Y-95129500D01*
X145670000Y-95129500D02*
X145670000Y-96589500D01*
X145670000Y-96589500D02*
X142710000Y-96589500D01*
%TO.C,R7*%
X173514100Y-103092000D02*
X170554100Y-103092000D01*
X173514100Y-101632000D02*
X173514100Y-103092000D01*
X170554100Y-101632000D02*
X173514100Y-101632000D01*
X170554100Y-103092000D02*
X170554100Y-101632000D01*
%TO.C,R6*%
X173514100Y-104666800D02*
X170554100Y-104666800D01*
X173514100Y-103206800D02*
X173514100Y-104666800D01*
X170554100Y-103206800D02*
X173514100Y-103206800D01*
X170554100Y-104666800D02*
X170554100Y-103206800D01*
%TO.C,U3*%
X177500000Y-100300000D02*
X177500000Y-102900000D01*
X174400000Y-100300000D02*
X177500000Y-100300000D01*
X174400000Y-102900000D02*
X174400000Y-100300000D01*
X177500000Y-102900000D02*
X174400000Y-102900000D01*
%TO.C,U1*%
X181800000Y-94500000D02*
X174400000Y-94500000D01*
X181800000Y-99900000D02*
X181800000Y-94500000D01*
X174400000Y-99900000D02*
X181800000Y-99900000D01*
X174400000Y-94500000D02*
X174400000Y-99900000D01*
%TO.C,U6*%
X159156000Y-124532000D02*
X165456000Y-124532000D01*
X159156000Y-120832000D02*
X165456000Y-120832000D01*
X165456000Y-120832000D02*
X165456000Y-124532000D01*
X159156000Y-120832000D02*
X159156000Y-124532000D01*
%TO.C,U11*%
X143750000Y-120550000D02*
X147350000Y-120550000D01*
X143750000Y-124350000D02*
X143750000Y-120550000D01*
X147350000Y-124350000D02*
X143750000Y-124350000D01*
X147350000Y-120550000D02*
X147350000Y-124350000D01*
%TO.C,R11*%
X169704100Y-103092000D02*
X166744100Y-103092000D01*
X169704100Y-101632000D02*
X169704100Y-103092000D01*
X166744100Y-101632000D02*
X169704100Y-101632000D01*
X166744100Y-103092000D02*
X166744100Y-101632000D01*
%TO.C,R10*%
X153168800Y-98012000D02*
X150208800Y-98012000D01*
X153168800Y-96552000D02*
X153168800Y-98012000D01*
X150208800Y-96552000D02*
X153168800Y-96552000D01*
X150208800Y-98012000D02*
X150208800Y-96552000D01*
%TO.C,R14*%
X137720000Y-119770000D02*
X140680000Y-119770000D01*
X137720000Y-121230000D02*
X137720000Y-119770000D01*
X140680000Y-121230000D02*
X137720000Y-121230000D01*
X140680000Y-119770000D02*
X140680000Y-121230000D01*
%TO.C,R4*%
X165640000Y-124162000D02*
X165640000Y-121202000D01*
X167100000Y-124162000D02*
X165640000Y-124162000D01*
X167100000Y-121202000D02*
X167100000Y-124162000D01*
X165640000Y-121202000D02*
X167100000Y-121202000D01*
%TO.C,R15*%
X137720000Y-121270000D02*
X140680000Y-121270000D01*
X137720000Y-122730000D02*
X137720000Y-121270000D01*
X140680000Y-122730000D02*
X137720000Y-122730000D01*
X140680000Y-121270000D02*
X140680000Y-122730000D01*
%TO.C,R13*%
X151148800Y-121938500D02*
X151148800Y-124898500D01*
X149688800Y-121938500D02*
X151148800Y-121938500D01*
X149688800Y-124898500D02*
X149688800Y-121938500D01*
X151148800Y-124898500D02*
X149688800Y-124898500D01*
%TO.C,R1*%
X154895100Y-108210600D02*
X157855100Y-108210600D01*
X154895100Y-109670600D02*
X154895100Y-108210600D01*
X157855100Y-109670600D02*
X154895100Y-109670600D01*
X157855100Y-108210600D02*
X157855100Y-109670600D01*
%TO.C,Q1*%
X158075100Y-109730600D02*
X158075100Y-113230600D01*
X154675100Y-109730600D02*
X158075100Y-109730600D01*
X154675100Y-113230600D02*
X154675100Y-109730600D01*
X158075100Y-113230600D02*
X154675100Y-113230600D01*
%TO.C,D1*%
X147690800Y-125147100D02*
X147690800Y-121787100D01*
X149590800Y-125147100D02*
X147690800Y-125147100D01*
X149590800Y-121787100D02*
X149590800Y-125147100D01*
X147690800Y-121787100D02*
X149590800Y-121787100D01*
%TO.C,C4*%
X137720000Y-118270000D02*
X140680000Y-118270000D01*
X137720000Y-119730000D02*
X137720000Y-118270000D01*
X140680000Y-119730000D02*
X137720000Y-119730000D01*
X140680000Y-118270000D02*
X140680000Y-119730000D01*
%TO.C,C3*%
X151021800Y-118433400D02*
X151021800Y-121393400D01*
X149561800Y-118433400D02*
X151021800Y-118433400D01*
X149561800Y-121393400D02*
X149561800Y-118433400D01*
X151021800Y-121393400D02*
X149561800Y-121393400D01*
%TO.C,C2*%
X142195800Y-123501600D02*
X142195800Y-120541600D01*
X143655800Y-123501600D02*
X142195800Y-123501600D01*
X143655800Y-120541600D02*
X143655800Y-123501600D01*
X142195800Y-120541600D02*
X143655800Y-120541600D01*
%TO.C,C1*%
X140680000Y-124230000D02*
X137720000Y-124230000D01*
X140680000Y-122770000D02*
X140680000Y-124230000D01*
X137720000Y-122770000D02*
X140680000Y-122770000D01*
X137720000Y-124230000D02*
X137720000Y-122770000D01*
%TO.C,R9*%
X152418500Y-124555500D02*
X155378500Y-124555500D01*
X152418500Y-126015500D02*
X152418500Y-124555500D01*
X155378500Y-126015500D02*
X152418500Y-126015500D01*
X155378500Y-124555500D02*
X155378500Y-126015500D01*
%TO.C,R8*%
X167596000Y-126079000D02*
X164636000Y-126079000D01*
X167596000Y-124619000D02*
X167596000Y-126079000D01*
X164636000Y-124619000D02*
X167596000Y-124619000D01*
X164636000Y-126079000D02*
X164636000Y-124619000D01*
%TO.C,U5*%
X164381500Y-124817000D02*
X155618500Y-124817000D01*
X164381500Y-131294000D02*
X164381500Y-124817000D01*
X155618500Y-131294000D02*
X164381500Y-131300000D01*
X155618500Y-124817000D02*
X155618500Y-131294000D01*
%TD*%
M02*
