%TF.GenerationSoftware,KiCad,Pcbnew,5.1.5+dfsg1-2~bpo10+1*%
%TF.CreationDate,Date%
%TF.ProjectId,osw,6f73772e-6b69-4636-9164-5f7063625858,rev?*%
%TF.SameCoordinates,Original*%
%TF.FileFunction,Plated,1,4,PTH,Mixed*%
%TF.FilePolarity,Positive*%
%FSLAX46Y46*%
G04 Gerber Fmt 4.6, Leading zero omitted, Abs format (unit mm)*
G04 Created by KiCad*
%MOMM*%
%LPD*%
G04 APERTURE LIST*
%TA.AperFunction,ViaDrill*%
%ADD10C,0.330200*%
%TD*%
G04 aperture for slot hole*
%TA.AperFunction,ComponentDrill*%
%ADD11C,0.400000*%
%TD*%
G04 aperture for slot hole*
%TA.AperFunction,ComponentDrill*%
%ADD12C,0.750000*%
%TD*%
G04 APERTURE END LIST*
D10*
X138125200Y-115778280D03*
X141033500Y-115633500D03*
X141249400Y-106045000D03*
X142367000Y-120396000D03*
X143637000Y-118237000D03*
X143827500Y-121221500D03*
X143827500Y-122047000D03*
X144272000Y-100076000D03*
X146202400Y-119862600D03*
X146558000Y-117538500D03*
X147777200Y-120548400D03*
X147777200Y-121462800D03*
X148020775Y-107559104D03*
X148630640Y-106790900D03*
X148920200Y-120523000D03*
X148920200Y-121462800D03*
X149021800Y-114020600D03*
X149144549Y-108705784D03*
X149415500Y-109601000D03*
X149415500Y-110299500D03*
X149415500Y-113093500D03*
X149453600Y-111226600D03*
X149479000Y-105346500D03*
X150431500Y-95567500D03*
X150749000Y-93662500D03*
X150749000Y-99949000D03*
X151003000Y-124523500D03*
X151257000Y-104521000D03*
X151257000Y-119697500D03*
X152091780Y-96021280D03*
X152146000Y-97853500D03*
X152151080Y-126532640D03*
X152209500Y-116205000D03*
X152628600Y-122809000D03*
X153009600Y-119024400D03*
X153410131Y-111800846D03*
X153822400Y-119024400D03*
X153847800Y-103378000D03*
X153924000Y-90043000D03*
X153924000Y-91249500D03*
X153924000Y-92265500D03*
X153924000Y-94234000D03*
X153924000Y-95250000D03*
X153924000Y-97282000D03*
X153924000Y-98298000D03*
X154276943Y-107613059D03*
X154660600Y-119024400D03*
X154749500Y-116078000D03*
X154752040Y-111998760D03*
X154813000Y-121310400D03*
X155003500Y-126428500D03*
X155829000Y-108940600D03*
X156489400Y-121234200D03*
X156514800Y-120167400D03*
X156527500Y-124523500D03*
X157226000Y-110744000D03*
X157251400Y-119456200D03*
X157289500Y-106807000D03*
X157413434Y-109712806D03*
X157543500Y-113982500D03*
X157543500Y-116713000D03*
X157886400Y-119100600D03*
X157988000Y-104267000D03*
X158470600Y-119481600D03*
X159359600Y-124663200D03*
X159687047Y-110170789D03*
X159816800Y-111175800D03*
X159842200Y-113166300D03*
X159867600Y-115214400D03*
X160245256Y-124647186D03*
X161137600Y-101355099D03*
X161290000Y-124460000D03*
X161607500Y-109728000D03*
X161671000Y-111252000D03*
X161988500Y-104267000D03*
X163220400Y-114046000D03*
X163398200Y-103682800D03*
X163512500Y-115125500D03*
X163542336Y-113166300D03*
X164147500Y-125031500D03*
X164681200Y-110350000D03*
X164693287Y-108785635D03*
X165633400Y-114579400D03*
X166052500Y-90106500D03*
X166052500Y-91313000D03*
X166052500Y-92265500D03*
X166052500Y-93281500D03*
X166052500Y-94297500D03*
X166052500Y-95250000D03*
X166052500Y-98234500D03*
X166052500Y-99250500D03*
X166243000Y-107188000D03*
X166243884Y-108800819D03*
X166250000Y-110350000D03*
X166787500Y-125050000D03*
X167632252Y-120667652D03*
X167914320Y-102773480D03*
X168122600Y-108534200D03*
X168173400Y-113588800D03*
X168173400Y-114604800D03*
X168198800Y-107492800D03*
X168216000Y-117648000D03*
X168224200Y-112547400D03*
X168275000Y-122809000D03*
X169113200Y-102539800D03*
X169169080Y-124597160D03*
X169174160Y-100512880D03*
X169489120Y-117002560D03*
X169825289Y-110091329D03*
X169989500Y-98425000D03*
X170434000Y-102235000D03*
X170444189Y-111475520D03*
X171018200Y-107492800D03*
X171038520Y-100365560D03*
X171119800Y-105130600D03*
X171767500Y-96583500D03*
X171767500Y-102235000D03*
X171931596Y-119683796D03*
X171947840Y-107624880D03*
X171968160Y-103286560D03*
X173418500Y-100012500D03*
X173418500Y-103441500D03*
X173482000Y-96647000D03*
X174421800Y-103875840D03*
X175641000Y-100076000D03*
X176240000Y-106100000D03*
X176925000Y-99922360D03*
X177520600Y-101584760D03*
X177673000Y-103060500D03*
X177698400Y-98160840D03*
X178561999Y-113741200D03*
X178705100Y-108483400D03*
X179070000Y-97853500D03*
X179070000Y-99123500D03*
X179105561Y-114630200D03*
X179324000Y-105623360D03*
X179552573Y-115620800D03*
X179832000Y-120713500D03*
X179832000Y-121666000D03*
X180037500Y-103850000D03*
X180171473Y-106724404D03*
X180243480Y-116636800D03*
X180721000Y-101600000D03*
X181369910Y-105232200D03*
X181800500Y-106426000D03*
X181864000Y-103251000D03*
D11*
%TO.C,SW2*%
X168518379Y-91812066D02*
X168165707Y-92297476D01*
X172628185Y-94798015D02*
X172275513Y-95283425D01*
%TO.C,SW4*%
X166169329Y-129594652D02*
X165842545Y-129091450D01*
X170429775Y-126827885D02*
X170102991Y-126324683D01*
%TO.C,SW5*%
X149586688Y-126785620D02*
X149922204Y-126288198D01*
X153798199Y-129626320D02*
X154133715Y-129128898D01*
%TO.C,SW1*%
X147336688Y-94464380D02*
X147672204Y-94961802D01*
X151548199Y-91623680D02*
X151883715Y-92121102D01*
D12*
%TO.C,U5*%
X156952000Y-128852000D02*
X156952000Y-128402000D01*
X163048000Y-128852000D02*
X163048000Y-128402000D01*
M02*
