%TF.GenerationSoftware,KiCad,Pcbnew,5.1.5+dfsg1-2~bpo10+1*%
%TF.CreationDate,Date%
%TF.ProjectId,osw-light,6f73772d-6c69-4676-9874-2e6b69636164,1.0*%
%TF.SameCoordinates,Original*%
%TF.FileFunction,Paste,Top*%
%TF.FilePolarity,Positive*%
%FSLAX46Y46*%
G04 Gerber Fmt 4.6, Leading zero omitted, Abs format (unit mm)*
G04 Created by KiCad*
%MOMM*%
%LPD*%
G04 APERTURE LIST*
%ADD10C,0.100000*%
%ADD11R,0.400000X1.350000*%
%ADD12O,1.500000X2.000000*%
%ADD13R,2.000000X2.000000*%
%ADD14R,3.400000X1.700000*%
%ADD15R,0.650000X1.060000*%
%ADD16R,1.060000X0.650000*%
%ADD17R,0.350000X0.375000*%
%ADD18R,0.375000X0.350000*%
%ADD19R,0.500000X0.350000*%
%ADD20R,1.400000X0.300000*%
%ADD21R,0.900000X0.800000*%
%ADD22R,1.524000X0.600000*%
%ADD23R,0.600000X1.524000*%
G04 APERTURE END LIST*
D10*
%TO.C,U7*%
G36*
X83036000Y-101400000D02*
G01*
X83036000Y-99600000D01*
X84836000Y-99600000D01*
X84836000Y-101400000D01*
X83036000Y-101400000D01*
G37*
X83036000Y-101400000D02*
X83036000Y-99600000D01*
X84836000Y-99600000D01*
X84836000Y-101400000D01*
X83036000Y-101400000D01*
G36*
X83036000Y-103700000D02*
G01*
X83036000Y-101900000D01*
X84836000Y-101900000D01*
X84836000Y-103700000D01*
X83036000Y-103700000D01*
G37*
X83036000Y-103700000D02*
X83036000Y-101900000D01*
X84836000Y-101900000D01*
X84836000Y-103700000D01*
X83036000Y-103700000D01*
G36*
X80736000Y-103700000D02*
G01*
X80736000Y-101900000D01*
X82536000Y-101900000D01*
X82536000Y-103700000D01*
X80736000Y-103700000D01*
G37*
X80736000Y-103700000D02*
X80736000Y-101900000D01*
X82536000Y-101900000D01*
X82536000Y-103700000D01*
X80736000Y-103700000D01*
G36*
X80736000Y-101400000D02*
G01*
X80736000Y-99600000D01*
X82536000Y-99600000D01*
X82536000Y-101400000D01*
X80736000Y-101400000D01*
G37*
X80736000Y-101400000D02*
X80736000Y-99600000D01*
X82536000Y-99600000D01*
X82536000Y-101400000D01*
X80736000Y-101400000D01*
%TD*%
D11*
%TO.C,U5*%
X77500000Y-114990500D03*
X76850000Y-114990500D03*
X76200000Y-114990500D03*
X75550000Y-114990500D03*
X74900000Y-114990500D03*
D12*
X79248000Y-117792500D03*
D13*
X76200000Y-117665500D03*
D12*
X73152000Y-117792500D03*
%TD*%
D14*
%TO.C,J1*%
X60960000Y-103327200D03*
X60960000Y-105867200D03*
%TD*%
D10*
%TO.C,SW2*%
G36*
X82772665Y-88581970D02*
G01*
X82353330Y-88309651D01*
X83006897Y-87303246D01*
X83426232Y-87575565D01*
X82772665Y-88581970D01*
G37*
G36*
X85582212Y-90406511D02*
G01*
X85162877Y-90134192D01*
X85816444Y-89127787D01*
X86235779Y-89400106D01*
X85582212Y-90406511D01*
G37*
G36*
X83556726Y-86895408D02*
G01*
X82550321Y-86241841D01*
X83203888Y-85235436D01*
X84210293Y-85889003D01*
X83556726Y-86895408D01*
G37*
G36*
X87391127Y-89385497D02*
G01*
X86384722Y-88731930D01*
X87038289Y-87725525D01*
X88044694Y-88379092D01*
X87391127Y-89385497D01*
G37*
%TD*%
%TO.C,SW1*%
G36*
X67237123Y-90134192D02*
G01*
X66817788Y-90406511D01*
X66164221Y-89400106D01*
X66583556Y-89127787D01*
X67237123Y-90134192D01*
G37*
G36*
X70046670Y-88309651D02*
G01*
X69627335Y-88581970D01*
X68973768Y-87575565D01*
X69393103Y-87303246D01*
X70046670Y-88309651D01*
G37*
G36*
X66015278Y-88731930D02*
G01*
X65008873Y-89385497D01*
X64355306Y-88379092D01*
X65361711Y-87725525D01*
X66015278Y-88731930D01*
G37*
G36*
X69849679Y-86241841D02*
G01*
X68843274Y-86895408D01*
X68189707Y-85889003D01*
X69196112Y-85235436D01*
X69849679Y-86241841D01*
G37*
%TD*%
%TO.C,SW5*%
G36*
X69627335Y-114618030D02*
G01*
X70046670Y-114890349D01*
X69393103Y-115896754D01*
X68973768Y-115624435D01*
X69627335Y-114618030D01*
G37*
G36*
X66817788Y-112793489D02*
G01*
X67237123Y-113065808D01*
X66583556Y-114072213D01*
X66164221Y-113799894D01*
X66817788Y-112793489D01*
G37*
G36*
X68843274Y-116304592D02*
G01*
X69849679Y-116958159D01*
X69196112Y-117964564D01*
X68189707Y-117310997D01*
X68843274Y-116304592D01*
G37*
G36*
X65008873Y-113814503D02*
G01*
X66015278Y-114468070D01*
X65361711Y-115474475D01*
X64355306Y-114820908D01*
X65008873Y-113814503D01*
G37*
%TD*%
%TO.C,SW4*%
G36*
X85162877Y-113065808D02*
G01*
X85582212Y-112793489D01*
X86235779Y-113799894D01*
X85816444Y-114072213D01*
X85162877Y-113065808D01*
G37*
G36*
X82353330Y-114890349D02*
G01*
X82772665Y-114618030D01*
X83426232Y-115624435D01*
X83006897Y-115896754D01*
X82353330Y-114890349D01*
G37*
G36*
X86384722Y-114468070D02*
G01*
X87391127Y-113814503D01*
X88044694Y-114820908D01*
X87038289Y-115474475D01*
X86384722Y-114468070D01*
G37*
G36*
X82550321Y-116958159D02*
G01*
X83556726Y-116304592D01*
X84210293Y-117310997D01*
X83203888Y-117964564D01*
X82550321Y-116958159D01*
G37*
%TD*%
%TO.C,R18*%
G36*
X71842191Y-89568553D02*
G01*
X71863426Y-89571703D01*
X71884250Y-89576919D01*
X71904462Y-89584151D01*
X71923868Y-89593330D01*
X71942281Y-89604366D01*
X71959524Y-89617154D01*
X71975430Y-89631570D01*
X71989846Y-89647476D01*
X72002634Y-89664719D01*
X72013670Y-89683132D01*
X72022849Y-89702538D01*
X72030081Y-89722750D01*
X72035297Y-89743574D01*
X72038447Y-89764809D01*
X72039500Y-89786250D01*
X72039500Y-90223750D01*
X72038447Y-90245191D01*
X72035297Y-90266426D01*
X72030081Y-90287250D01*
X72022849Y-90307462D01*
X72013670Y-90326868D01*
X72002634Y-90345281D01*
X71989846Y-90362524D01*
X71975430Y-90378430D01*
X71959524Y-90392846D01*
X71942281Y-90405634D01*
X71923868Y-90416670D01*
X71904462Y-90425849D01*
X71884250Y-90433081D01*
X71863426Y-90438297D01*
X71842191Y-90441447D01*
X71820750Y-90442500D01*
X71308250Y-90442500D01*
X71286809Y-90441447D01*
X71265574Y-90438297D01*
X71244750Y-90433081D01*
X71224538Y-90425849D01*
X71205132Y-90416670D01*
X71186719Y-90405634D01*
X71169476Y-90392846D01*
X71153570Y-90378430D01*
X71139154Y-90362524D01*
X71126366Y-90345281D01*
X71115330Y-90326868D01*
X71106151Y-90307462D01*
X71098919Y-90287250D01*
X71093703Y-90266426D01*
X71090553Y-90245191D01*
X71089500Y-90223750D01*
X71089500Y-89786250D01*
X71090553Y-89764809D01*
X71093703Y-89743574D01*
X71098919Y-89722750D01*
X71106151Y-89702538D01*
X71115330Y-89683132D01*
X71126366Y-89664719D01*
X71139154Y-89647476D01*
X71153570Y-89631570D01*
X71169476Y-89617154D01*
X71186719Y-89604366D01*
X71205132Y-89593330D01*
X71224538Y-89584151D01*
X71244750Y-89576919D01*
X71265574Y-89571703D01*
X71286809Y-89568553D01*
X71308250Y-89567500D01*
X71820750Y-89567500D01*
X71842191Y-89568553D01*
G37*
G36*
X71842191Y-87993553D02*
G01*
X71863426Y-87996703D01*
X71884250Y-88001919D01*
X71904462Y-88009151D01*
X71923868Y-88018330D01*
X71942281Y-88029366D01*
X71959524Y-88042154D01*
X71975430Y-88056570D01*
X71989846Y-88072476D01*
X72002634Y-88089719D01*
X72013670Y-88108132D01*
X72022849Y-88127538D01*
X72030081Y-88147750D01*
X72035297Y-88168574D01*
X72038447Y-88189809D01*
X72039500Y-88211250D01*
X72039500Y-88648750D01*
X72038447Y-88670191D01*
X72035297Y-88691426D01*
X72030081Y-88712250D01*
X72022849Y-88732462D01*
X72013670Y-88751868D01*
X72002634Y-88770281D01*
X71989846Y-88787524D01*
X71975430Y-88803430D01*
X71959524Y-88817846D01*
X71942281Y-88830634D01*
X71923868Y-88841670D01*
X71904462Y-88850849D01*
X71884250Y-88858081D01*
X71863426Y-88863297D01*
X71842191Y-88866447D01*
X71820750Y-88867500D01*
X71308250Y-88867500D01*
X71286809Y-88866447D01*
X71265574Y-88863297D01*
X71244750Y-88858081D01*
X71224538Y-88850849D01*
X71205132Y-88841670D01*
X71186719Y-88830634D01*
X71169476Y-88817846D01*
X71153570Y-88803430D01*
X71139154Y-88787524D01*
X71126366Y-88770281D01*
X71115330Y-88751868D01*
X71106151Y-88732462D01*
X71098919Y-88712250D01*
X71093703Y-88691426D01*
X71090553Y-88670191D01*
X71089500Y-88648750D01*
X71089500Y-88211250D01*
X71090553Y-88189809D01*
X71093703Y-88168574D01*
X71098919Y-88147750D01*
X71106151Y-88127538D01*
X71115330Y-88108132D01*
X71126366Y-88089719D01*
X71139154Y-88072476D01*
X71153570Y-88056570D01*
X71169476Y-88042154D01*
X71186719Y-88029366D01*
X71205132Y-88018330D01*
X71224538Y-88009151D01*
X71244750Y-88001919D01*
X71265574Y-87996703D01*
X71286809Y-87993553D01*
X71308250Y-87992500D01*
X71820750Y-87992500D01*
X71842191Y-87993553D01*
G37*
%TD*%
%TO.C,C11*%
G36*
X71842191Y-84882053D02*
G01*
X71863426Y-84885203D01*
X71884250Y-84890419D01*
X71904462Y-84897651D01*
X71923868Y-84906830D01*
X71942281Y-84917866D01*
X71959524Y-84930654D01*
X71975430Y-84945070D01*
X71989846Y-84960976D01*
X72002634Y-84978219D01*
X72013670Y-84996632D01*
X72022849Y-85016038D01*
X72030081Y-85036250D01*
X72035297Y-85057074D01*
X72038447Y-85078309D01*
X72039500Y-85099750D01*
X72039500Y-85537250D01*
X72038447Y-85558691D01*
X72035297Y-85579926D01*
X72030081Y-85600750D01*
X72022849Y-85620962D01*
X72013670Y-85640368D01*
X72002634Y-85658781D01*
X71989846Y-85676024D01*
X71975430Y-85691930D01*
X71959524Y-85706346D01*
X71942281Y-85719134D01*
X71923868Y-85730170D01*
X71904462Y-85739349D01*
X71884250Y-85746581D01*
X71863426Y-85751797D01*
X71842191Y-85754947D01*
X71820750Y-85756000D01*
X71308250Y-85756000D01*
X71286809Y-85754947D01*
X71265574Y-85751797D01*
X71244750Y-85746581D01*
X71224538Y-85739349D01*
X71205132Y-85730170D01*
X71186719Y-85719134D01*
X71169476Y-85706346D01*
X71153570Y-85691930D01*
X71139154Y-85676024D01*
X71126366Y-85658781D01*
X71115330Y-85640368D01*
X71106151Y-85620962D01*
X71098919Y-85600750D01*
X71093703Y-85579926D01*
X71090553Y-85558691D01*
X71089500Y-85537250D01*
X71089500Y-85099750D01*
X71090553Y-85078309D01*
X71093703Y-85057074D01*
X71098919Y-85036250D01*
X71106151Y-85016038D01*
X71115330Y-84996632D01*
X71126366Y-84978219D01*
X71139154Y-84960976D01*
X71153570Y-84945070D01*
X71169476Y-84930654D01*
X71186719Y-84917866D01*
X71205132Y-84906830D01*
X71224538Y-84897651D01*
X71244750Y-84890419D01*
X71265574Y-84885203D01*
X71286809Y-84882053D01*
X71308250Y-84881000D01*
X71820750Y-84881000D01*
X71842191Y-84882053D01*
G37*
G36*
X71842191Y-86457053D02*
G01*
X71863426Y-86460203D01*
X71884250Y-86465419D01*
X71904462Y-86472651D01*
X71923868Y-86481830D01*
X71942281Y-86492866D01*
X71959524Y-86505654D01*
X71975430Y-86520070D01*
X71989846Y-86535976D01*
X72002634Y-86553219D01*
X72013670Y-86571632D01*
X72022849Y-86591038D01*
X72030081Y-86611250D01*
X72035297Y-86632074D01*
X72038447Y-86653309D01*
X72039500Y-86674750D01*
X72039500Y-87112250D01*
X72038447Y-87133691D01*
X72035297Y-87154926D01*
X72030081Y-87175750D01*
X72022849Y-87195962D01*
X72013670Y-87215368D01*
X72002634Y-87233781D01*
X71989846Y-87251024D01*
X71975430Y-87266930D01*
X71959524Y-87281346D01*
X71942281Y-87294134D01*
X71923868Y-87305170D01*
X71904462Y-87314349D01*
X71884250Y-87321581D01*
X71863426Y-87326797D01*
X71842191Y-87329947D01*
X71820750Y-87331000D01*
X71308250Y-87331000D01*
X71286809Y-87329947D01*
X71265574Y-87326797D01*
X71244750Y-87321581D01*
X71224538Y-87314349D01*
X71205132Y-87305170D01*
X71186719Y-87294134D01*
X71169476Y-87281346D01*
X71153570Y-87266930D01*
X71139154Y-87251024D01*
X71126366Y-87233781D01*
X71115330Y-87215368D01*
X71106151Y-87195962D01*
X71098919Y-87175750D01*
X71093703Y-87154926D01*
X71090553Y-87133691D01*
X71089500Y-87112250D01*
X71089500Y-86674750D01*
X71090553Y-86653309D01*
X71093703Y-86632074D01*
X71098919Y-86611250D01*
X71106151Y-86591038D01*
X71115330Y-86571632D01*
X71126366Y-86553219D01*
X71139154Y-86535976D01*
X71153570Y-86520070D01*
X71169476Y-86505654D01*
X71186719Y-86492866D01*
X71205132Y-86481830D01*
X71224538Y-86472651D01*
X71244750Y-86465419D01*
X71265574Y-86460203D01*
X71286809Y-86457053D01*
X71308250Y-86456000D01*
X71820750Y-86456000D01*
X71842191Y-86457053D01*
G37*
%TD*%
%TO.C,C22*%
G36*
X63396691Y-101062053D02*
G01*
X63417926Y-101065203D01*
X63438750Y-101070419D01*
X63458962Y-101077651D01*
X63478368Y-101086830D01*
X63496781Y-101097866D01*
X63514024Y-101110654D01*
X63529930Y-101125070D01*
X63544346Y-101140976D01*
X63557134Y-101158219D01*
X63568170Y-101176632D01*
X63577349Y-101196038D01*
X63584581Y-101216250D01*
X63589797Y-101237074D01*
X63592947Y-101258309D01*
X63594000Y-101279750D01*
X63594000Y-101717250D01*
X63592947Y-101738691D01*
X63589797Y-101759926D01*
X63584581Y-101780750D01*
X63577349Y-101800962D01*
X63568170Y-101820368D01*
X63557134Y-101838781D01*
X63544346Y-101856024D01*
X63529930Y-101871930D01*
X63514024Y-101886346D01*
X63496781Y-101899134D01*
X63478368Y-101910170D01*
X63458962Y-101919349D01*
X63438750Y-101926581D01*
X63417926Y-101931797D01*
X63396691Y-101934947D01*
X63375250Y-101936000D01*
X62862750Y-101936000D01*
X62841309Y-101934947D01*
X62820074Y-101931797D01*
X62799250Y-101926581D01*
X62779038Y-101919349D01*
X62759632Y-101910170D01*
X62741219Y-101899134D01*
X62723976Y-101886346D01*
X62708070Y-101871930D01*
X62693654Y-101856024D01*
X62680866Y-101838781D01*
X62669830Y-101820368D01*
X62660651Y-101800962D01*
X62653419Y-101780750D01*
X62648203Y-101759926D01*
X62645053Y-101738691D01*
X62644000Y-101717250D01*
X62644000Y-101279750D01*
X62645053Y-101258309D01*
X62648203Y-101237074D01*
X62653419Y-101216250D01*
X62660651Y-101196038D01*
X62669830Y-101176632D01*
X62680866Y-101158219D01*
X62693654Y-101140976D01*
X62708070Y-101125070D01*
X62723976Y-101110654D01*
X62741219Y-101097866D01*
X62759632Y-101086830D01*
X62779038Y-101077651D01*
X62799250Y-101070419D01*
X62820074Y-101065203D01*
X62841309Y-101062053D01*
X62862750Y-101061000D01*
X63375250Y-101061000D01*
X63396691Y-101062053D01*
G37*
G36*
X63396691Y-99487053D02*
G01*
X63417926Y-99490203D01*
X63438750Y-99495419D01*
X63458962Y-99502651D01*
X63478368Y-99511830D01*
X63496781Y-99522866D01*
X63514024Y-99535654D01*
X63529930Y-99550070D01*
X63544346Y-99565976D01*
X63557134Y-99583219D01*
X63568170Y-99601632D01*
X63577349Y-99621038D01*
X63584581Y-99641250D01*
X63589797Y-99662074D01*
X63592947Y-99683309D01*
X63594000Y-99704750D01*
X63594000Y-100142250D01*
X63592947Y-100163691D01*
X63589797Y-100184926D01*
X63584581Y-100205750D01*
X63577349Y-100225962D01*
X63568170Y-100245368D01*
X63557134Y-100263781D01*
X63544346Y-100281024D01*
X63529930Y-100296930D01*
X63514024Y-100311346D01*
X63496781Y-100324134D01*
X63478368Y-100335170D01*
X63458962Y-100344349D01*
X63438750Y-100351581D01*
X63417926Y-100356797D01*
X63396691Y-100359947D01*
X63375250Y-100361000D01*
X62862750Y-100361000D01*
X62841309Y-100359947D01*
X62820074Y-100356797D01*
X62799250Y-100351581D01*
X62779038Y-100344349D01*
X62759632Y-100335170D01*
X62741219Y-100324134D01*
X62723976Y-100311346D01*
X62708070Y-100296930D01*
X62693654Y-100281024D01*
X62680866Y-100263781D01*
X62669830Y-100245368D01*
X62660651Y-100225962D01*
X62653419Y-100205750D01*
X62648203Y-100184926D01*
X62645053Y-100163691D01*
X62644000Y-100142250D01*
X62644000Y-99704750D01*
X62645053Y-99683309D01*
X62648203Y-99662074D01*
X62653419Y-99641250D01*
X62660651Y-99621038D01*
X62669830Y-99601632D01*
X62680866Y-99583219D01*
X62693654Y-99565976D01*
X62708070Y-99550070D01*
X62723976Y-99535654D01*
X62741219Y-99522866D01*
X62759632Y-99511830D01*
X62779038Y-99502651D01*
X62799250Y-99495419D01*
X62820074Y-99490203D01*
X62841309Y-99487053D01*
X62862750Y-99486000D01*
X63375250Y-99486000D01*
X63396691Y-99487053D01*
G37*
%TD*%
D15*
%TO.C,U13*%
X67833200Y-94404000D03*
X69733200Y-94404000D03*
X69733200Y-96604000D03*
X68783200Y-96604000D03*
X67833200Y-96604000D03*
%TD*%
D16*
%TO.C,U12*%
X74973000Y-111950500D03*
X74973000Y-112900500D03*
X74973000Y-111000500D03*
X77173000Y-111000500D03*
X77173000Y-111950500D03*
X77173000Y-112900500D03*
%TD*%
D15*
%TO.C,U10*%
X72456000Y-94404000D03*
X74356000Y-94404000D03*
X74356000Y-96604000D03*
X73406000Y-96604000D03*
X72456000Y-96604000D03*
%TD*%
D10*
%TO.C,R22*%
G36*
X60170891Y-99487053D02*
G01*
X60192126Y-99490203D01*
X60212950Y-99495419D01*
X60233162Y-99502651D01*
X60252568Y-99511830D01*
X60270981Y-99522866D01*
X60288224Y-99535654D01*
X60304130Y-99550070D01*
X60318546Y-99565976D01*
X60331334Y-99583219D01*
X60342370Y-99601632D01*
X60351549Y-99621038D01*
X60358781Y-99641250D01*
X60363997Y-99662074D01*
X60367147Y-99683309D01*
X60368200Y-99704750D01*
X60368200Y-100142250D01*
X60367147Y-100163691D01*
X60363997Y-100184926D01*
X60358781Y-100205750D01*
X60351549Y-100225962D01*
X60342370Y-100245368D01*
X60331334Y-100263781D01*
X60318546Y-100281024D01*
X60304130Y-100296930D01*
X60288224Y-100311346D01*
X60270981Y-100324134D01*
X60252568Y-100335170D01*
X60233162Y-100344349D01*
X60212950Y-100351581D01*
X60192126Y-100356797D01*
X60170891Y-100359947D01*
X60149450Y-100361000D01*
X59636950Y-100361000D01*
X59615509Y-100359947D01*
X59594274Y-100356797D01*
X59573450Y-100351581D01*
X59553238Y-100344349D01*
X59533832Y-100335170D01*
X59515419Y-100324134D01*
X59498176Y-100311346D01*
X59482270Y-100296930D01*
X59467854Y-100281024D01*
X59455066Y-100263781D01*
X59444030Y-100245368D01*
X59434851Y-100225962D01*
X59427619Y-100205750D01*
X59422403Y-100184926D01*
X59419253Y-100163691D01*
X59418200Y-100142250D01*
X59418200Y-99704750D01*
X59419253Y-99683309D01*
X59422403Y-99662074D01*
X59427619Y-99641250D01*
X59434851Y-99621038D01*
X59444030Y-99601632D01*
X59455066Y-99583219D01*
X59467854Y-99565976D01*
X59482270Y-99550070D01*
X59498176Y-99535654D01*
X59515419Y-99522866D01*
X59533832Y-99511830D01*
X59553238Y-99502651D01*
X59573450Y-99495419D01*
X59594274Y-99490203D01*
X59615509Y-99487053D01*
X59636950Y-99486000D01*
X60149450Y-99486000D01*
X60170891Y-99487053D01*
G37*
G36*
X60170891Y-101062053D02*
G01*
X60192126Y-101065203D01*
X60212950Y-101070419D01*
X60233162Y-101077651D01*
X60252568Y-101086830D01*
X60270981Y-101097866D01*
X60288224Y-101110654D01*
X60304130Y-101125070D01*
X60318546Y-101140976D01*
X60331334Y-101158219D01*
X60342370Y-101176632D01*
X60351549Y-101196038D01*
X60358781Y-101216250D01*
X60363997Y-101237074D01*
X60367147Y-101258309D01*
X60368200Y-101279750D01*
X60368200Y-101717250D01*
X60367147Y-101738691D01*
X60363997Y-101759926D01*
X60358781Y-101780750D01*
X60351549Y-101800962D01*
X60342370Y-101820368D01*
X60331334Y-101838781D01*
X60318546Y-101856024D01*
X60304130Y-101871930D01*
X60288224Y-101886346D01*
X60270981Y-101899134D01*
X60252568Y-101910170D01*
X60233162Y-101919349D01*
X60212950Y-101926581D01*
X60192126Y-101931797D01*
X60170891Y-101934947D01*
X60149450Y-101936000D01*
X59636950Y-101936000D01*
X59615509Y-101934947D01*
X59594274Y-101931797D01*
X59573450Y-101926581D01*
X59553238Y-101919349D01*
X59533832Y-101910170D01*
X59515419Y-101899134D01*
X59498176Y-101886346D01*
X59482270Y-101871930D01*
X59467854Y-101856024D01*
X59455066Y-101838781D01*
X59444030Y-101820368D01*
X59434851Y-101800962D01*
X59427619Y-101780750D01*
X59422403Y-101759926D01*
X59419253Y-101738691D01*
X59418200Y-101717250D01*
X59418200Y-101279750D01*
X59419253Y-101258309D01*
X59422403Y-101237074D01*
X59427619Y-101216250D01*
X59434851Y-101196038D01*
X59444030Y-101176632D01*
X59455066Y-101158219D01*
X59467854Y-101140976D01*
X59482270Y-101125070D01*
X59498176Y-101110654D01*
X59515419Y-101097866D01*
X59533832Y-101086830D01*
X59553238Y-101077651D01*
X59573450Y-101070419D01*
X59594274Y-101065203D01*
X59615509Y-101062053D01*
X59636950Y-101061000D01*
X60149450Y-101061000D01*
X60170891Y-101062053D01*
G37*
%TD*%
%TO.C,R21*%
G36*
X61821891Y-101036553D02*
G01*
X61843126Y-101039703D01*
X61863950Y-101044919D01*
X61884162Y-101052151D01*
X61903568Y-101061330D01*
X61921981Y-101072366D01*
X61939224Y-101085154D01*
X61955130Y-101099570D01*
X61969546Y-101115476D01*
X61982334Y-101132719D01*
X61993370Y-101151132D01*
X62002549Y-101170538D01*
X62009781Y-101190750D01*
X62014997Y-101211574D01*
X62018147Y-101232809D01*
X62019200Y-101254250D01*
X62019200Y-101691750D01*
X62018147Y-101713191D01*
X62014997Y-101734426D01*
X62009781Y-101755250D01*
X62002549Y-101775462D01*
X61993370Y-101794868D01*
X61982334Y-101813281D01*
X61969546Y-101830524D01*
X61955130Y-101846430D01*
X61939224Y-101860846D01*
X61921981Y-101873634D01*
X61903568Y-101884670D01*
X61884162Y-101893849D01*
X61863950Y-101901081D01*
X61843126Y-101906297D01*
X61821891Y-101909447D01*
X61800450Y-101910500D01*
X61287950Y-101910500D01*
X61266509Y-101909447D01*
X61245274Y-101906297D01*
X61224450Y-101901081D01*
X61204238Y-101893849D01*
X61184832Y-101884670D01*
X61166419Y-101873634D01*
X61149176Y-101860846D01*
X61133270Y-101846430D01*
X61118854Y-101830524D01*
X61106066Y-101813281D01*
X61095030Y-101794868D01*
X61085851Y-101775462D01*
X61078619Y-101755250D01*
X61073403Y-101734426D01*
X61070253Y-101713191D01*
X61069200Y-101691750D01*
X61069200Y-101254250D01*
X61070253Y-101232809D01*
X61073403Y-101211574D01*
X61078619Y-101190750D01*
X61085851Y-101170538D01*
X61095030Y-101151132D01*
X61106066Y-101132719D01*
X61118854Y-101115476D01*
X61133270Y-101099570D01*
X61149176Y-101085154D01*
X61166419Y-101072366D01*
X61184832Y-101061330D01*
X61204238Y-101052151D01*
X61224450Y-101044919D01*
X61245274Y-101039703D01*
X61266509Y-101036553D01*
X61287950Y-101035500D01*
X61800450Y-101035500D01*
X61821891Y-101036553D01*
G37*
G36*
X61821891Y-99461553D02*
G01*
X61843126Y-99464703D01*
X61863950Y-99469919D01*
X61884162Y-99477151D01*
X61903568Y-99486330D01*
X61921981Y-99497366D01*
X61939224Y-99510154D01*
X61955130Y-99524570D01*
X61969546Y-99540476D01*
X61982334Y-99557719D01*
X61993370Y-99576132D01*
X62002549Y-99595538D01*
X62009781Y-99615750D01*
X62014997Y-99636574D01*
X62018147Y-99657809D01*
X62019200Y-99679250D01*
X62019200Y-100116750D01*
X62018147Y-100138191D01*
X62014997Y-100159426D01*
X62009781Y-100180250D01*
X62002549Y-100200462D01*
X61993370Y-100219868D01*
X61982334Y-100238281D01*
X61969546Y-100255524D01*
X61955130Y-100271430D01*
X61939224Y-100285846D01*
X61921981Y-100298634D01*
X61903568Y-100309670D01*
X61884162Y-100318849D01*
X61863950Y-100326081D01*
X61843126Y-100331297D01*
X61821891Y-100334447D01*
X61800450Y-100335500D01*
X61287950Y-100335500D01*
X61266509Y-100334447D01*
X61245274Y-100331297D01*
X61224450Y-100326081D01*
X61204238Y-100318849D01*
X61184832Y-100309670D01*
X61166419Y-100298634D01*
X61149176Y-100285846D01*
X61133270Y-100271430D01*
X61118854Y-100255524D01*
X61106066Y-100238281D01*
X61095030Y-100219868D01*
X61085851Y-100200462D01*
X61078619Y-100180250D01*
X61073403Y-100159426D01*
X61070253Y-100138191D01*
X61069200Y-100116750D01*
X61069200Y-99679250D01*
X61070253Y-99657809D01*
X61073403Y-99636574D01*
X61078619Y-99615750D01*
X61085851Y-99595538D01*
X61095030Y-99576132D01*
X61106066Y-99557719D01*
X61118854Y-99540476D01*
X61133270Y-99524570D01*
X61149176Y-99510154D01*
X61166419Y-99497366D01*
X61184832Y-99486330D01*
X61204238Y-99477151D01*
X61224450Y-99469919D01*
X61245274Y-99464703D01*
X61266509Y-99461553D01*
X61287950Y-99460500D01*
X61800450Y-99460500D01*
X61821891Y-99461553D01*
G37*
%TD*%
%TO.C,R20*%
G36*
X66368491Y-94686453D02*
G01*
X66389726Y-94689603D01*
X66410550Y-94694819D01*
X66430762Y-94702051D01*
X66450168Y-94711230D01*
X66468581Y-94722266D01*
X66485824Y-94735054D01*
X66501730Y-94749470D01*
X66516146Y-94765376D01*
X66528934Y-94782619D01*
X66539970Y-94801032D01*
X66549149Y-94820438D01*
X66556381Y-94840650D01*
X66561597Y-94861474D01*
X66564747Y-94882709D01*
X66565800Y-94904150D01*
X66565800Y-95341650D01*
X66564747Y-95363091D01*
X66561597Y-95384326D01*
X66556381Y-95405150D01*
X66549149Y-95425362D01*
X66539970Y-95444768D01*
X66528934Y-95463181D01*
X66516146Y-95480424D01*
X66501730Y-95496330D01*
X66485824Y-95510746D01*
X66468581Y-95523534D01*
X66450168Y-95534570D01*
X66430762Y-95543749D01*
X66410550Y-95550981D01*
X66389726Y-95556197D01*
X66368491Y-95559347D01*
X66347050Y-95560400D01*
X65834550Y-95560400D01*
X65813109Y-95559347D01*
X65791874Y-95556197D01*
X65771050Y-95550981D01*
X65750838Y-95543749D01*
X65731432Y-95534570D01*
X65713019Y-95523534D01*
X65695776Y-95510746D01*
X65679870Y-95496330D01*
X65665454Y-95480424D01*
X65652666Y-95463181D01*
X65641630Y-95444768D01*
X65632451Y-95425362D01*
X65625219Y-95405150D01*
X65620003Y-95384326D01*
X65616853Y-95363091D01*
X65615800Y-95341650D01*
X65615800Y-94904150D01*
X65616853Y-94882709D01*
X65620003Y-94861474D01*
X65625219Y-94840650D01*
X65632451Y-94820438D01*
X65641630Y-94801032D01*
X65652666Y-94782619D01*
X65665454Y-94765376D01*
X65679870Y-94749470D01*
X65695776Y-94735054D01*
X65713019Y-94722266D01*
X65731432Y-94711230D01*
X65750838Y-94702051D01*
X65771050Y-94694819D01*
X65791874Y-94689603D01*
X65813109Y-94686453D01*
X65834550Y-94685400D01*
X66347050Y-94685400D01*
X66368491Y-94686453D01*
G37*
G36*
X66368491Y-96261453D02*
G01*
X66389726Y-96264603D01*
X66410550Y-96269819D01*
X66430762Y-96277051D01*
X66450168Y-96286230D01*
X66468581Y-96297266D01*
X66485824Y-96310054D01*
X66501730Y-96324470D01*
X66516146Y-96340376D01*
X66528934Y-96357619D01*
X66539970Y-96376032D01*
X66549149Y-96395438D01*
X66556381Y-96415650D01*
X66561597Y-96436474D01*
X66564747Y-96457709D01*
X66565800Y-96479150D01*
X66565800Y-96916650D01*
X66564747Y-96938091D01*
X66561597Y-96959326D01*
X66556381Y-96980150D01*
X66549149Y-97000362D01*
X66539970Y-97019768D01*
X66528934Y-97038181D01*
X66516146Y-97055424D01*
X66501730Y-97071330D01*
X66485824Y-97085746D01*
X66468581Y-97098534D01*
X66450168Y-97109570D01*
X66430762Y-97118749D01*
X66410550Y-97125981D01*
X66389726Y-97131197D01*
X66368491Y-97134347D01*
X66347050Y-97135400D01*
X65834550Y-97135400D01*
X65813109Y-97134347D01*
X65791874Y-97131197D01*
X65771050Y-97125981D01*
X65750838Y-97118749D01*
X65731432Y-97109570D01*
X65713019Y-97098534D01*
X65695776Y-97085746D01*
X65679870Y-97071330D01*
X65665454Y-97055424D01*
X65652666Y-97038181D01*
X65641630Y-97019768D01*
X65632451Y-97000362D01*
X65625219Y-96980150D01*
X65620003Y-96959326D01*
X65616853Y-96938091D01*
X65615800Y-96916650D01*
X65615800Y-96479150D01*
X65616853Y-96457709D01*
X65620003Y-96436474D01*
X65625219Y-96415650D01*
X65632451Y-96395438D01*
X65641630Y-96376032D01*
X65652666Y-96357619D01*
X65665454Y-96340376D01*
X65679870Y-96324470D01*
X65695776Y-96310054D01*
X65713019Y-96297266D01*
X65731432Y-96286230D01*
X65750838Y-96277051D01*
X65771050Y-96269819D01*
X65791874Y-96264603D01*
X65813109Y-96261453D01*
X65834550Y-96260400D01*
X66347050Y-96260400D01*
X66368491Y-96261453D01*
G37*
%TD*%
%TO.C,C19*%
G36*
X70217191Y-90712053D02*
G01*
X70238426Y-90715203D01*
X70259250Y-90720419D01*
X70279462Y-90727651D01*
X70298868Y-90736830D01*
X70317281Y-90747866D01*
X70334524Y-90760654D01*
X70350430Y-90775070D01*
X70364846Y-90790976D01*
X70377634Y-90808219D01*
X70388670Y-90826632D01*
X70397849Y-90846038D01*
X70405081Y-90866250D01*
X70410297Y-90887074D01*
X70413447Y-90908309D01*
X70414500Y-90929750D01*
X70414500Y-91442250D01*
X70413447Y-91463691D01*
X70410297Y-91484926D01*
X70405081Y-91505750D01*
X70397849Y-91525962D01*
X70388670Y-91545368D01*
X70377634Y-91563781D01*
X70364846Y-91581024D01*
X70350430Y-91596930D01*
X70334524Y-91611346D01*
X70317281Y-91624134D01*
X70298868Y-91635170D01*
X70279462Y-91644349D01*
X70259250Y-91651581D01*
X70238426Y-91656797D01*
X70217191Y-91659947D01*
X70195750Y-91661000D01*
X69758250Y-91661000D01*
X69736809Y-91659947D01*
X69715574Y-91656797D01*
X69694750Y-91651581D01*
X69674538Y-91644349D01*
X69655132Y-91635170D01*
X69636719Y-91624134D01*
X69619476Y-91611346D01*
X69603570Y-91596930D01*
X69589154Y-91581024D01*
X69576366Y-91563781D01*
X69565330Y-91545368D01*
X69556151Y-91525962D01*
X69548919Y-91505750D01*
X69543703Y-91484926D01*
X69540553Y-91463691D01*
X69539500Y-91442250D01*
X69539500Y-90929750D01*
X69540553Y-90908309D01*
X69543703Y-90887074D01*
X69548919Y-90866250D01*
X69556151Y-90846038D01*
X69565330Y-90826632D01*
X69576366Y-90808219D01*
X69589154Y-90790976D01*
X69603570Y-90775070D01*
X69619476Y-90760654D01*
X69636719Y-90747866D01*
X69655132Y-90736830D01*
X69674538Y-90727651D01*
X69694750Y-90720419D01*
X69715574Y-90715203D01*
X69736809Y-90712053D01*
X69758250Y-90711000D01*
X70195750Y-90711000D01*
X70217191Y-90712053D01*
G37*
G36*
X68642191Y-90712053D02*
G01*
X68663426Y-90715203D01*
X68684250Y-90720419D01*
X68704462Y-90727651D01*
X68723868Y-90736830D01*
X68742281Y-90747866D01*
X68759524Y-90760654D01*
X68775430Y-90775070D01*
X68789846Y-90790976D01*
X68802634Y-90808219D01*
X68813670Y-90826632D01*
X68822849Y-90846038D01*
X68830081Y-90866250D01*
X68835297Y-90887074D01*
X68838447Y-90908309D01*
X68839500Y-90929750D01*
X68839500Y-91442250D01*
X68838447Y-91463691D01*
X68835297Y-91484926D01*
X68830081Y-91505750D01*
X68822849Y-91525962D01*
X68813670Y-91545368D01*
X68802634Y-91563781D01*
X68789846Y-91581024D01*
X68775430Y-91596930D01*
X68759524Y-91611346D01*
X68742281Y-91624134D01*
X68723868Y-91635170D01*
X68704462Y-91644349D01*
X68684250Y-91651581D01*
X68663426Y-91656797D01*
X68642191Y-91659947D01*
X68620750Y-91661000D01*
X68183250Y-91661000D01*
X68161809Y-91659947D01*
X68140574Y-91656797D01*
X68119750Y-91651581D01*
X68099538Y-91644349D01*
X68080132Y-91635170D01*
X68061719Y-91624134D01*
X68044476Y-91611346D01*
X68028570Y-91596930D01*
X68014154Y-91581024D01*
X68001366Y-91563781D01*
X67990330Y-91545368D01*
X67981151Y-91525962D01*
X67973919Y-91505750D01*
X67968703Y-91484926D01*
X67965553Y-91463691D01*
X67964500Y-91442250D01*
X67964500Y-90929750D01*
X67965553Y-90908309D01*
X67968703Y-90887074D01*
X67973919Y-90866250D01*
X67981151Y-90846038D01*
X67990330Y-90826632D01*
X68001366Y-90808219D01*
X68014154Y-90790976D01*
X68028570Y-90775070D01*
X68044476Y-90760654D01*
X68061719Y-90747866D01*
X68080132Y-90736830D01*
X68099538Y-90727651D01*
X68119750Y-90720419D01*
X68140574Y-90715203D01*
X68161809Y-90712053D01*
X68183250Y-90711000D01*
X68620750Y-90711000D01*
X68642191Y-90712053D01*
G37*
%TD*%
%TO.C,C18*%
G36*
X74916291Y-90712053D02*
G01*
X74937526Y-90715203D01*
X74958350Y-90720419D01*
X74978562Y-90727651D01*
X74997968Y-90736830D01*
X75016381Y-90747866D01*
X75033624Y-90760654D01*
X75049530Y-90775070D01*
X75063946Y-90790976D01*
X75076734Y-90808219D01*
X75087770Y-90826632D01*
X75096949Y-90846038D01*
X75104181Y-90866250D01*
X75109397Y-90887074D01*
X75112547Y-90908309D01*
X75113600Y-90929750D01*
X75113600Y-91442250D01*
X75112547Y-91463691D01*
X75109397Y-91484926D01*
X75104181Y-91505750D01*
X75096949Y-91525962D01*
X75087770Y-91545368D01*
X75076734Y-91563781D01*
X75063946Y-91581024D01*
X75049530Y-91596930D01*
X75033624Y-91611346D01*
X75016381Y-91624134D01*
X74997968Y-91635170D01*
X74978562Y-91644349D01*
X74958350Y-91651581D01*
X74937526Y-91656797D01*
X74916291Y-91659947D01*
X74894850Y-91661000D01*
X74457350Y-91661000D01*
X74435909Y-91659947D01*
X74414674Y-91656797D01*
X74393850Y-91651581D01*
X74373638Y-91644349D01*
X74354232Y-91635170D01*
X74335819Y-91624134D01*
X74318576Y-91611346D01*
X74302670Y-91596930D01*
X74288254Y-91581024D01*
X74275466Y-91563781D01*
X74264430Y-91545368D01*
X74255251Y-91525962D01*
X74248019Y-91505750D01*
X74242803Y-91484926D01*
X74239653Y-91463691D01*
X74238600Y-91442250D01*
X74238600Y-90929750D01*
X74239653Y-90908309D01*
X74242803Y-90887074D01*
X74248019Y-90866250D01*
X74255251Y-90846038D01*
X74264430Y-90826632D01*
X74275466Y-90808219D01*
X74288254Y-90790976D01*
X74302670Y-90775070D01*
X74318576Y-90760654D01*
X74335819Y-90747866D01*
X74354232Y-90736830D01*
X74373638Y-90727651D01*
X74393850Y-90720419D01*
X74414674Y-90715203D01*
X74435909Y-90712053D01*
X74457350Y-90711000D01*
X74894850Y-90711000D01*
X74916291Y-90712053D01*
G37*
G36*
X73341291Y-90712053D02*
G01*
X73362526Y-90715203D01*
X73383350Y-90720419D01*
X73403562Y-90727651D01*
X73422968Y-90736830D01*
X73441381Y-90747866D01*
X73458624Y-90760654D01*
X73474530Y-90775070D01*
X73488946Y-90790976D01*
X73501734Y-90808219D01*
X73512770Y-90826632D01*
X73521949Y-90846038D01*
X73529181Y-90866250D01*
X73534397Y-90887074D01*
X73537547Y-90908309D01*
X73538600Y-90929750D01*
X73538600Y-91442250D01*
X73537547Y-91463691D01*
X73534397Y-91484926D01*
X73529181Y-91505750D01*
X73521949Y-91525962D01*
X73512770Y-91545368D01*
X73501734Y-91563781D01*
X73488946Y-91581024D01*
X73474530Y-91596930D01*
X73458624Y-91611346D01*
X73441381Y-91624134D01*
X73422968Y-91635170D01*
X73403562Y-91644349D01*
X73383350Y-91651581D01*
X73362526Y-91656797D01*
X73341291Y-91659947D01*
X73319850Y-91661000D01*
X72882350Y-91661000D01*
X72860909Y-91659947D01*
X72839674Y-91656797D01*
X72818850Y-91651581D01*
X72798638Y-91644349D01*
X72779232Y-91635170D01*
X72760819Y-91624134D01*
X72743576Y-91611346D01*
X72727670Y-91596930D01*
X72713254Y-91581024D01*
X72700466Y-91563781D01*
X72689430Y-91545368D01*
X72680251Y-91525962D01*
X72673019Y-91505750D01*
X72667803Y-91484926D01*
X72664653Y-91463691D01*
X72663600Y-91442250D01*
X72663600Y-90929750D01*
X72664653Y-90908309D01*
X72667803Y-90887074D01*
X72673019Y-90866250D01*
X72680251Y-90846038D01*
X72689430Y-90826632D01*
X72700466Y-90808219D01*
X72713254Y-90790976D01*
X72727670Y-90775070D01*
X72743576Y-90760654D01*
X72760819Y-90747866D01*
X72779232Y-90736830D01*
X72798638Y-90727651D01*
X72818850Y-90720419D01*
X72839674Y-90715203D01*
X72860909Y-90712053D01*
X72882350Y-90711000D01*
X73319850Y-90711000D01*
X73341291Y-90712053D01*
G37*
%TD*%
%TO.C,C17*%
G36*
X70217191Y-92299553D02*
G01*
X70238426Y-92302703D01*
X70259250Y-92307919D01*
X70279462Y-92315151D01*
X70298868Y-92324330D01*
X70317281Y-92335366D01*
X70334524Y-92348154D01*
X70350430Y-92362570D01*
X70364846Y-92378476D01*
X70377634Y-92395719D01*
X70388670Y-92414132D01*
X70397849Y-92433538D01*
X70405081Y-92453750D01*
X70410297Y-92474574D01*
X70413447Y-92495809D01*
X70414500Y-92517250D01*
X70414500Y-93029750D01*
X70413447Y-93051191D01*
X70410297Y-93072426D01*
X70405081Y-93093250D01*
X70397849Y-93113462D01*
X70388670Y-93132868D01*
X70377634Y-93151281D01*
X70364846Y-93168524D01*
X70350430Y-93184430D01*
X70334524Y-93198846D01*
X70317281Y-93211634D01*
X70298868Y-93222670D01*
X70279462Y-93231849D01*
X70259250Y-93239081D01*
X70238426Y-93244297D01*
X70217191Y-93247447D01*
X70195750Y-93248500D01*
X69758250Y-93248500D01*
X69736809Y-93247447D01*
X69715574Y-93244297D01*
X69694750Y-93239081D01*
X69674538Y-93231849D01*
X69655132Y-93222670D01*
X69636719Y-93211634D01*
X69619476Y-93198846D01*
X69603570Y-93184430D01*
X69589154Y-93168524D01*
X69576366Y-93151281D01*
X69565330Y-93132868D01*
X69556151Y-93113462D01*
X69548919Y-93093250D01*
X69543703Y-93072426D01*
X69540553Y-93051191D01*
X69539500Y-93029750D01*
X69539500Y-92517250D01*
X69540553Y-92495809D01*
X69543703Y-92474574D01*
X69548919Y-92453750D01*
X69556151Y-92433538D01*
X69565330Y-92414132D01*
X69576366Y-92395719D01*
X69589154Y-92378476D01*
X69603570Y-92362570D01*
X69619476Y-92348154D01*
X69636719Y-92335366D01*
X69655132Y-92324330D01*
X69674538Y-92315151D01*
X69694750Y-92307919D01*
X69715574Y-92302703D01*
X69736809Y-92299553D01*
X69758250Y-92298500D01*
X70195750Y-92298500D01*
X70217191Y-92299553D01*
G37*
G36*
X68642191Y-92299553D02*
G01*
X68663426Y-92302703D01*
X68684250Y-92307919D01*
X68704462Y-92315151D01*
X68723868Y-92324330D01*
X68742281Y-92335366D01*
X68759524Y-92348154D01*
X68775430Y-92362570D01*
X68789846Y-92378476D01*
X68802634Y-92395719D01*
X68813670Y-92414132D01*
X68822849Y-92433538D01*
X68830081Y-92453750D01*
X68835297Y-92474574D01*
X68838447Y-92495809D01*
X68839500Y-92517250D01*
X68839500Y-93029750D01*
X68838447Y-93051191D01*
X68835297Y-93072426D01*
X68830081Y-93093250D01*
X68822849Y-93113462D01*
X68813670Y-93132868D01*
X68802634Y-93151281D01*
X68789846Y-93168524D01*
X68775430Y-93184430D01*
X68759524Y-93198846D01*
X68742281Y-93211634D01*
X68723868Y-93222670D01*
X68704462Y-93231849D01*
X68684250Y-93239081D01*
X68663426Y-93244297D01*
X68642191Y-93247447D01*
X68620750Y-93248500D01*
X68183250Y-93248500D01*
X68161809Y-93247447D01*
X68140574Y-93244297D01*
X68119750Y-93239081D01*
X68099538Y-93231849D01*
X68080132Y-93222670D01*
X68061719Y-93211634D01*
X68044476Y-93198846D01*
X68028570Y-93184430D01*
X68014154Y-93168524D01*
X68001366Y-93151281D01*
X67990330Y-93132868D01*
X67981151Y-93113462D01*
X67973919Y-93093250D01*
X67968703Y-93072426D01*
X67965553Y-93051191D01*
X67964500Y-93029750D01*
X67964500Y-92517250D01*
X67965553Y-92495809D01*
X67968703Y-92474574D01*
X67973919Y-92453750D01*
X67981151Y-92433538D01*
X67990330Y-92414132D01*
X68001366Y-92395719D01*
X68014154Y-92378476D01*
X68028570Y-92362570D01*
X68044476Y-92348154D01*
X68061719Y-92335366D01*
X68080132Y-92324330D01*
X68099538Y-92315151D01*
X68119750Y-92307919D01*
X68140574Y-92302703D01*
X68161809Y-92299553D01*
X68183250Y-92298500D01*
X68620750Y-92298500D01*
X68642191Y-92299553D01*
G37*
%TD*%
%TO.C,C16*%
G36*
X74916291Y-92299553D02*
G01*
X74937526Y-92302703D01*
X74958350Y-92307919D01*
X74978562Y-92315151D01*
X74997968Y-92324330D01*
X75016381Y-92335366D01*
X75033624Y-92348154D01*
X75049530Y-92362570D01*
X75063946Y-92378476D01*
X75076734Y-92395719D01*
X75087770Y-92414132D01*
X75096949Y-92433538D01*
X75104181Y-92453750D01*
X75109397Y-92474574D01*
X75112547Y-92495809D01*
X75113600Y-92517250D01*
X75113600Y-93029750D01*
X75112547Y-93051191D01*
X75109397Y-93072426D01*
X75104181Y-93093250D01*
X75096949Y-93113462D01*
X75087770Y-93132868D01*
X75076734Y-93151281D01*
X75063946Y-93168524D01*
X75049530Y-93184430D01*
X75033624Y-93198846D01*
X75016381Y-93211634D01*
X74997968Y-93222670D01*
X74978562Y-93231849D01*
X74958350Y-93239081D01*
X74937526Y-93244297D01*
X74916291Y-93247447D01*
X74894850Y-93248500D01*
X74457350Y-93248500D01*
X74435909Y-93247447D01*
X74414674Y-93244297D01*
X74393850Y-93239081D01*
X74373638Y-93231849D01*
X74354232Y-93222670D01*
X74335819Y-93211634D01*
X74318576Y-93198846D01*
X74302670Y-93184430D01*
X74288254Y-93168524D01*
X74275466Y-93151281D01*
X74264430Y-93132868D01*
X74255251Y-93113462D01*
X74248019Y-93093250D01*
X74242803Y-93072426D01*
X74239653Y-93051191D01*
X74238600Y-93029750D01*
X74238600Y-92517250D01*
X74239653Y-92495809D01*
X74242803Y-92474574D01*
X74248019Y-92453750D01*
X74255251Y-92433538D01*
X74264430Y-92414132D01*
X74275466Y-92395719D01*
X74288254Y-92378476D01*
X74302670Y-92362570D01*
X74318576Y-92348154D01*
X74335819Y-92335366D01*
X74354232Y-92324330D01*
X74373638Y-92315151D01*
X74393850Y-92307919D01*
X74414674Y-92302703D01*
X74435909Y-92299553D01*
X74457350Y-92298500D01*
X74894850Y-92298500D01*
X74916291Y-92299553D01*
G37*
G36*
X73341291Y-92299553D02*
G01*
X73362526Y-92302703D01*
X73383350Y-92307919D01*
X73403562Y-92315151D01*
X73422968Y-92324330D01*
X73441381Y-92335366D01*
X73458624Y-92348154D01*
X73474530Y-92362570D01*
X73488946Y-92378476D01*
X73501734Y-92395719D01*
X73512770Y-92414132D01*
X73521949Y-92433538D01*
X73529181Y-92453750D01*
X73534397Y-92474574D01*
X73537547Y-92495809D01*
X73538600Y-92517250D01*
X73538600Y-93029750D01*
X73537547Y-93051191D01*
X73534397Y-93072426D01*
X73529181Y-93093250D01*
X73521949Y-93113462D01*
X73512770Y-93132868D01*
X73501734Y-93151281D01*
X73488946Y-93168524D01*
X73474530Y-93184430D01*
X73458624Y-93198846D01*
X73441381Y-93211634D01*
X73422968Y-93222670D01*
X73403562Y-93231849D01*
X73383350Y-93239081D01*
X73362526Y-93244297D01*
X73341291Y-93247447D01*
X73319850Y-93248500D01*
X72882350Y-93248500D01*
X72860909Y-93247447D01*
X72839674Y-93244297D01*
X72818850Y-93239081D01*
X72798638Y-93231849D01*
X72779232Y-93222670D01*
X72760819Y-93211634D01*
X72743576Y-93198846D01*
X72727670Y-93184430D01*
X72713254Y-93168524D01*
X72700466Y-93151281D01*
X72689430Y-93132868D01*
X72680251Y-93113462D01*
X72673019Y-93093250D01*
X72667803Y-93072426D01*
X72664653Y-93051191D01*
X72663600Y-93029750D01*
X72663600Y-92517250D01*
X72664653Y-92495809D01*
X72667803Y-92474574D01*
X72673019Y-92453750D01*
X72680251Y-92433538D01*
X72689430Y-92414132D01*
X72700466Y-92395719D01*
X72713254Y-92378476D01*
X72727670Y-92362570D01*
X72743576Y-92348154D01*
X72760819Y-92335366D01*
X72779232Y-92324330D01*
X72798638Y-92315151D01*
X72818850Y-92307919D01*
X72839674Y-92302703D01*
X72860909Y-92299553D01*
X72882350Y-92298500D01*
X73319850Y-92298500D01*
X73341291Y-92299553D01*
G37*
%TD*%
%TO.C,C15*%
G36*
X70115691Y-97773253D02*
G01*
X70136926Y-97776403D01*
X70157750Y-97781619D01*
X70177962Y-97788851D01*
X70197368Y-97798030D01*
X70215781Y-97809066D01*
X70233024Y-97821854D01*
X70248930Y-97836270D01*
X70263346Y-97852176D01*
X70276134Y-97869419D01*
X70287170Y-97887832D01*
X70296349Y-97907238D01*
X70303581Y-97927450D01*
X70308797Y-97948274D01*
X70311947Y-97969509D01*
X70313000Y-97990950D01*
X70313000Y-98503450D01*
X70311947Y-98524891D01*
X70308797Y-98546126D01*
X70303581Y-98566950D01*
X70296349Y-98587162D01*
X70287170Y-98606568D01*
X70276134Y-98624981D01*
X70263346Y-98642224D01*
X70248930Y-98658130D01*
X70233024Y-98672546D01*
X70215781Y-98685334D01*
X70197368Y-98696370D01*
X70177962Y-98705549D01*
X70157750Y-98712781D01*
X70136926Y-98717997D01*
X70115691Y-98721147D01*
X70094250Y-98722200D01*
X69656750Y-98722200D01*
X69635309Y-98721147D01*
X69614074Y-98717997D01*
X69593250Y-98712781D01*
X69573038Y-98705549D01*
X69553632Y-98696370D01*
X69535219Y-98685334D01*
X69517976Y-98672546D01*
X69502070Y-98658130D01*
X69487654Y-98642224D01*
X69474866Y-98624981D01*
X69463830Y-98606568D01*
X69454651Y-98587162D01*
X69447419Y-98566950D01*
X69442203Y-98546126D01*
X69439053Y-98524891D01*
X69438000Y-98503450D01*
X69438000Y-97990950D01*
X69439053Y-97969509D01*
X69442203Y-97948274D01*
X69447419Y-97927450D01*
X69454651Y-97907238D01*
X69463830Y-97887832D01*
X69474866Y-97869419D01*
X69487654Y-97852176D01*
X69502070Y-97836270D01*
X69517976Y-97821854D01*
X69535219Y-97809066D01*
X69553632Y-97798030D01*
X69573038Y-97788851D01*
X69593250Y-97781619D01*
X69614074Y-97776403D01*
X69635309Y-97773253D01*
X69656750Y-97772200D01*
X70094250Y-97772200D01*
X70115691Y-97773253D01*
G37*
G36*
X68540691Y-97773253D02*
G01*
X68561926Y-97776403D01*
X68582750Y-97781619D01*
X68602962Y-97788851D01*
X68622368Y-97798030D01*
X68640781Y-97809066D01*
X68658024Y-97821854D01*
X68673930Y-97836270D01*
X68688346Y-97852176D01*
X68701134Y-97869419D01*
X68712170Y-97887832D01*
X68721349Y-97907238D01*
X68728581Y-97927450D01*
X68733797Y-97948274D01*
X68736947Y-97969509D01*
X68738000Y-97990950D01*
X68738000Y-98503450D01*
X68736947Y-98524891D01*
X68733797Y-98546126D01*
X68728581Y-98566950D01*
X68721349Y-98587162D01*
X68712170Y-98606568D01*
X68701134Y-98624981D01*
X68688346Y-98642224D01*
X68673930Y-98658130D01*
X68658024Y-98672546D01*
X68640781Y-98685334D01*
X68622368Y-98696370D01*
X68602962Y-98705549D01*
X68582750Y-98712781D01*
X68561926Y-98717997D01*
X68540691Y-98721147D01*
X68519250Y-98722200D01*
X68081750Y-98722200D01*
X68060309Y-98721147D01*
X68039074Y-98717997D01*
X68018250Y-98712781D01*
X67998038Y-98705549D01*
X67978632Y-98696370D01*
X67960219Y-98685334D01*
X67942976Y-98672546D01*
X67927070Y-98658130D01*
X67912654Y-98642224D01*
X67899866Y-98624981D01*
X67888830Y-98606568D01*
X67879651Y-98587162D01*
X67872419Y-98566950D01*
X67867203Y-98546126D01*
X67864053Y-98524891D01*
X67863000Y-98503450D01*
X67863000Y-97990950D01*
X67864053Y-97969509D01*
X67867203Y-97948274D01*
X67872419Y-97927450D01*
X67879651Y-97907238D01*
X67888830Y-97887832D01*
X67899866Y-97869419D01*
X67912654Y-97852176D01*
X67927070Y-97836270D01*
X67942976Y-97821854D01*
X67960219Y-97809066D01*
X67978632Y-97798030D01*
X67998038Y-97788851D01*
X68018250Y-97781619D01*
X68039074Y-97776403D01*
X68060309Y-97773253D01*
X68081750Y-97772200D01*
X68519250Y-97772200D01*
X68540691Y-97773253D01*
G37*
%TD*%
%TO.C,C14*%
G36*
X74738491Y-97773253D02*
G01*
X74759726Y-97776403D01*
X74780550Y-97781619D01*
X74800762Y-97788851D01*
X74820168Y-97798030D01*
X74838581Y-97809066D01*
X74855824Y-97821854D01*
X74871730Y-97836270D01*
X74886146Y-97852176D01*
X74898934Y-97869419D01*
X74909970Y-97887832D01*
X74919149Y-97907238D01*
X74926381Y-97927450D01*
X74931597Y-97948274D01*
X74934747Y-97969509D01*
X74935800Y-97990950D01*
X74935800Y-98503450D01*
X74934747Y-98524891D01*
X74931597Y-98546126D01*
X74926381Y-98566950D01*
X74919149Y-98587162D01*
X74909970Y-98606568D01*
X74898934Y-98624981D01*
X74886146Y-98642224D01*
X74871730Y-98658130D01*
X74855824Y-98672546D01*
X74838581Y-98685334D01*
X74820168Y-98696370D01*
X74800762Y-98705549D01*
X74780550Y-98712781D01*
X74759726Y-98717997D01*
X74738491Y-98721147D01*
X74717050Y-98722200D01*
X74279550Y-98722200D01*
X74258109Y-98721147D01*
X74236874Y-98717997D01*
X74216050Y-98712781D01*
X74195838Y-98705549D01*
X74176432Y-98696370D01*
X74158019Y-98685334D01*
X74140776Y-98672546D01*
X74124870Y-98658130D01*
X74110454Y-98642224D01*
X74097666Y-98624981D01*
X74086630Y-98606568D01*
X74077451Y-98587162D01*
X74070219Y-98566950D01*
X74065003Y-98546126D01*
X74061853Y-98524891D01*
X74060800Y-98503450D01*
X74060800Y-97990950D01*
X74061853Y-97969509D01*
X74065003Y-97948274D01*
X74070219Y-97927450D01*
X74077451Y-97907238D01*
X74086630Y-97887832D01*
X74097666Y-97869419D01*
X74110454Y-97852176D01*
X74124870Y-97836270D01*
X74140776Y-97821854D01*
X74158019Y-97809066D01*
X74176432Y-97798030D01*
X74195838Y-97788851D01*
X74216050Y-97781619D01*
X74236874Y-97776403D01*
X74258109Y-97773253D01*
X74279550Y-97772200D01*
X74717050Y-97772200D01*
X74738491Y-97773253D01*
G37*
G36*
X73163491Y-97773253D02*
G01*
X73184726Y-97776403D01*
X73205550Y-97781619D01*
X73225762Y-97788851D01*
X73245168Y-97798030D01*
X73263581Y-97809066D01*
X73280824Y-97821854D01*
X73296730Y-97836270D01*
X73311146Y-97852176D01*
X73323934Y-97869419D01*
X73334970Y-97887832D01*
X73344149Y-97907238D01*
X73351381Y-97927450D01*
X73356597Y-97948274D01*
X73359747Y-97969509D01*
X73360800Y-97990950D01*
X73360800Y-98503450D01*
X73359747Y-98524891D01*
X73356597Y-98546126D01*
X73351381Y-98566950D01*
X73344149Y-98587162D01*
X73334970Y-98606568D01*
X73323934Y-98624981D01*
X73311146Y-98642224D01*
X73296730Y-98658130D01*
X73280824Y-98672546D01*
X73263581Y-98685334D01*
X73245168Y-98696370D01*
X73225762Y-98705549D01*
X73205550Y-98712781D01*
X73184726Y-98717997D01*
X73163491Y-98721147D01*
X73142050Y-98722200D01*
X72704550Y-98722200D01*
X72683109Y-98721147D01*
X72661874Y-98717997D01*
X72641050Y-98712781D01*
X72620838Y-98705549D01*
X72601432Y-98696370D01*
X72583019Y-98685334D01*
X72565776Y-98672546D01*
X72549870Y-98658130D01*
X72535454Y-98642224D01*
X72522666Y-98624981D01*
X72511630Y-98606568D01*
X72502451Y-98587162D01*
X72495219Y-98566950D01*
X72490003Y-98546126D01*
X72486853Y-98524891D01*
X72485800Y-98503450D01*
X72485800Y-97990950D01*
X72486853Y-97969509D01*
X72490003Y-97948274D01*
X72495219Y-97927450D01*
X72502451Y-97907238D01*
X72511630Y-97887832D01*
X72522666Y-97869419D01*
X72535454Y-97852176D01*
X72549870Y-97836270D01*
X72565776Y-97821854D01*
X72583019Y-97809066D01*
X72601432Y-97798030D01*
X72620838Y-97788851D01*
X72641050Y-97781619D01*
X72661874Y-97776403D01*
X72683109Y-97773253D01*
X72704550Y-97772200D01*
X73142050Y-97772200D01*
X73163491Y-97773253D01*
G37*
%TD*%
%TO.C,C6*%
G36*
X70074704Y-99303804D02*
G01*
X70098973Y-99307404D01*
X70122771Y-99313365D01*
X70145871Y-99321630D01*
X70168049Y-99332120D01*
X70189093Y-99344733D01*
X70208798Y-99359347D01*
X70226977Y-99375823D01*
X70243453Y-99394002D01*
X70258067Y-99413707D01*
X70270680Y-99434751D01*
X70281170Y-99456929D01*
X70289435Y-99480029D01*
X70295396Y-99503827D01*
X70298996Y-99528096D01*
X70300200Y-99552600D01*
X70300200Y-100802600D01*
X70298996Y-100827104D01*
X70295396Y-100851373D01*
X70289435Y-100875171D01*
X70281170Y-100898271D01*
X70270680Y-100920449D01*
X70258067Y-100941493D01*
X70243453Y-100961198D01*
X70226977Y-100979377D01*
X70208798Y-100995853D01*
X70189093Y-101010467D01*
X70168049Y-101023080D01*
X70145871Y-101033570D01*
X70122771Y-101041835D01*
X70098973Y-101047796D01*
X70074704Y-101051396D01*
X70050200Y-101052600D01*
X69300200Y-101052600D01*
X69275696Y-101051396D01*
X69251427Y-101047796D01*
X69227629Y-101041835D01*
X69204529Y-101033570D01*
X69182351Y-101023080D01*
X69161307Y-101010467D01*
X69141602Y-100995853D01*
X69123423Y-100979377D01*
X69106947Y-100961198D01*
X69092333Y-100941493D01*
X69079720Y-100920449D01*
X69069230Y-100898271D01*
X69060965Y-100875171D01*
X69055004Y-100851373D01*
X69051404Y-100827104D01*
X69050200Y-100802600D01*
X69050200Y-99552600D01*
X69051404Y-99528096D01*
X69055004Y-99503827D01*
X69060965Y-99480029D01*
X69069230Y-99456929D01*
X69079720Y-99434751D01*
X69092333Y-99413707D01*
X69106947Y-99394002D01*
X69123423Y-99375823D01*
X69141602Y-99359347D01*
X69161307Y-99344733D01*
X69182351Y-99332120D01*
X69204529Y-99321630D01*
X69227629Y-99313365D01*
X69251427Y-99307404D01*
X69275696Y-99303804D01*
X69300200Y-99302600D01*
X70050200Y-99302600D01*
X70074704Y-99303804D01*
G37*
G36*
X67274704Y-99303804D02*
G01*
X67298973Y-99307404D01*
X67322771Y-99313365D01*
X67345871Y-99321630D01*
X67368049Y-99332120D01*
X67389093Y-99344733D01*
X67408798Y-99359347D01*
X67426977Y-99375823D01*
X67443453Y-99394002D01*
X67458067Y-99413707D01*
X67470680Y-99434751D01*
X67481170Y-99456929D01*
X67489435Y-99480029D01*
X67495396Y-99503827D01*
X67498996Y-99528096D01*
X67500200Y-99552600D01*
X67500200Y-100802600D01*
X67498996Y-100827104D01*
X67495396Y-100851373D01*
X67489435Y-100875171D01*
X67481170Y-100898271D01*
X67470680Y-100920449D01*
X67458067Y-100941493D01*
X67443453Y-100961198D01*
X67426977Y-100979377D01*
X67408798Y-100995853D01*
X67389093Y-101010467D01*
X67368049Y-101023080D01*
X67345871Y-101033570D01*
X67322771Y-101041835D01*
X67298973Y-101047796D01*
X67274704Y-101051396D01*
X67250200Y-101052600D01*
X66500200Y-101052600D01*
X66475696Y-101051396D01*
X66451427Y-101047796D01*
X66427629Y-101041835D01*
X66404529Y-101033570D01*
X66382351Y-101023080D01*
X66361307Y-101010467D01*
X66341602Y-100995853D01*
X66323423Y-100979377D01*
X66306947Y-100961198D01*
X66292333Y-100941493D01*
X66279720Y-100920449D01*
X66269230Y-100898271D01*
X66260965Y-100875171D01*
X66255004Y-100851373D01*
X66251404Y-100827104D01*
X66250200Y-100802600D01*
X66250200Y-99552600D01*
X66251404Y-99528096D01*
X66255004Y-99503827D01*
X66260965Y-99480029D01*
X66269230Y-99456929D01*
X66279720Y-99434751D01*
X66292333Y-99413707D01*
X66306947Y-99394002D01*
X66323423Y-99375823D01*
X66341602Y-99359347D01*
X66361307Y-99344733D01*
X66382351Y-99332120D01*
X66404529Y-99321630D01*
X66427629Y-99313365D01*
X66451427Y-99307404D01*
X66475696Y-99303804D01*
X66500200Y-99302600D01*
X67250200Y-99302600D01*
X67274704Y-99303804D01*
G37*
%TD*%
%TO.C,C5*%
G36*
X74719904Y-99303804D02*
G01*
X74744173Y-99307404D01*
X74767971Y-99313365D01*
X74791071Y-99321630D01*
X74813249Y-99332120D01*
X74834293Y-99344733D01*
X74853998Y-99359347D01*
X74872177Y-99375823D01*
X74888653Y-99394002D01*
X74903267Y-99413707D01*
X74915880Y-99434751D01*
X74926370Y-99456929D01*
X74934635Y-99480029D01*
X74940596Y-99503827D01*
X74944196Y-99528096D01*
X74945400Y-99552600D01*
X74945400Y-100802600D01*
X74944196Y-100827104D01*
X74940596Y-100851373D01*
X74934635Y-100875171D01*
X74926370Y-100898271D01*
X74915880Y-100920449D01*
X74903267Y-100941493D01*
X74888653Y-100961198D01*
X74872177Y-100979377D01*
X74853998Y-100995853D01*
X74834293Y-101010467D01*
X74813249Y-101023080D01*
X74791071Y-101033570D01*
X74767971Y-101041835D01*
X74744173Y-101047796D01*
X74719904Y-101051396D01*
X74695400Y-101052600D01*
X73945400Y-101052600D01*
X73920896Y-101051396D01*
X73896627Y-101047796D01*
X73872829Y-101041835D01*
X73849729Y-101033570D01*
X73827551Y-101023080D01*
X73806507Y-101010467D01*
X73786802Y-100995853D01*
X73768623Y-100979377D01*
X73752147Y-100961198D01*
X73737533Y-100941493D01*
X73724920Y-100920449D01*
X73714430Y-100898271D01*
X73706165Y-100875171D01*
X73700204Y-100851373D01*
X73696604Y-100827104D01*
X73695400Y-100802600D01*
X73695400Y-99552600D01*
X73696604Y-99528096D01*
X73700204Y-99503827D01*
X73706165Y-99480029D01*
X73714430Y-99456929D01*
X73724920Y-99434751D01*
X73737533Y-99413707D01*
X73752147Y-99394002D01*
X73768623Y-99375823D01*
X73786802Y-99359347D01*
X73806507Y-99344733D01*
X73827551Y-99332120D01*
X73849729Y-99321630D01*
X73872829Y-99313365D01*
X73896627Y-99307404D01*
X73920896Y-99303804D01*
X73945400Y-99302600D01*
X74695400Y-99302600D01*
X74719904Y-99303804D01*
G37*
G36*
X71919904Y-99303804D02*
G01*
X71944173Y-99307404D01*
X71967971Y-99313365D01*
X71991071Y-99321630D01*
X72013249Y-99332120D01*
X72034293Y-99344733D01*
X72053998Y-99359347D01*
X72072177Y-99375823D01*
X72088653Y-99394002D01*
X72103267Y-99413707D01*
X72115880Y-99434751D01*
X72126370Y-99456929D01*
X72134635Y-99480029D01*
X72140596Y-99503827D01*
X72144196Y-99528096D01*
X72145400Y-99552600D01*
X72145400Y-100802600D01*
X72144196Y-100827104D01*
X72140596Y-100851373D01*
X72134635Y-100875171D01*
X72126370Y-100898271D01*
X72115880Y-100920449D01*
X72103267Y-100941493D01*
X72088653Y-100961198D01*
X72072177Y-100979377D01*
X72053998Y-100995853D01*
X72034293Y-101010467D01*
X72013249Y-101023080D01*
X71991071Y-101033570D01*
X71967971Y-101041835D01*
X71944173Y-101047796D01*
X71919904Y-101051396D01*
X71895400Y-101052600D01*
X71145400Y-101052600D01*
X71120896Y-101051396D01*
X71096627Y-101047796D01*
X71072829Y-101041835D01*
X71049729Y-101033570D01*
X71027551Y-101023080D01*
X71006507Y-101010467D01*
X70986802Y-100995853D01*
X70968623Y-100979377D01*
X70952147Y-100961198D01*
X70937533Y-100941493D01*
X70924920Y-100920449D01*
X70914430Y-100898271D01*
X70906165Y-100875171D01*
X70900204Y-100851373D01*
X70896604Y-100827104D01*
X70895400Y-100802600D01*
X70895400Y-99552600D01*
X70896604Y-99528096D01*
X70900204Y-99503827D01*
X70906165Y-99480029D01*
X70914430Y-99456929D01*
X70924920Y-99434751D01*
X70937533Y-99413707D01*
X70952147Y-99394002D01*
X70968623Y-99375823D01*
X70986802Y-99359347D01*
X71006507Y-99344733D01*
X71027551Y-99332120D01*
X71049729Y-99321630D01*
X71072829Y-99313365D01*
X71096627Y-99307404D01*
X71120896Y-99303804D01*
X71145400Y-99302600D01*
X71895400Y-99302600D01*
X71919904Y-99303804D01*
G37*
%TD*%
D17*
%TO.C,U2*%
X79294800Y-91998300D03*
X78794800Y-91998300D03*
X79294800Y-93523300D03*
X78794800Y-93523300D03*
X78294800Y-91998300D03*
X78294800Y-93523300D03*
X79794800Y-91998300D03*
X79794800Y-93523300D03*
D18*
X78282300Y-92510800D03*
X78282300Y-93010800D03*
X79807300Y-93010800D03*
X79807300Y-92510800D03*
%TD*%
D10*
%TO.C,U9*%
G36*
X74833002Y-105575882D02*
G01*
X74842709Y-105577321D01*
X74852228Y-105579706D01*
X74861468Y-105583012D01*
X74870340Y-105587208D01*
X74878757Y-105592253D01*
X74886639Y-105598099D01*
X74893911Y-105604689D01*
X74900501Y-105611961D01*
X74906347Y-105619843D01*
X74911392Y-105628260D01*
X74915588Y-105637132D01*
X74918894Y-105646372D01*
X74921279Y-105655891D01*
X74922718Y-105665598D01*
X74923200Y-105675400D01*
X74923200Y-105875400D01*
X74922718Y-105885202D01*
X74921279Y-105894909D01*
X74918894Y-105904428D01*
X74915588Y-105913668D01*
X74911392Y-105922540D01*
X74906347Y-105930957D01*
X74900501Y-105938839D01*
X74893911Y-105946111D01*
X74886639Y-105952701D01*
X74878757Y-105958547D01*
X74870340Y-105963592D01*
X74861468Y-105967788D01*
X74852228Y-105971094D01*
X74842709Y-105973479D01*
X74833002Y-105974918D01*
X74823200Y-105975400D01*
X73548200Y-105975400D01*
X73538398Y-105974918D01*
X73528691Y-105973479D01*
X73519172Y-105971094D01*
X73509932Y-105967788D01*
X73501060Y-105963592D01*
X73492643Y-105958547D01*
X73484761Y-105952701D01*
X73477489Y-105946111D01*
X73470899Y-105938839D01*
X73465053Y-105930957D01*
X73460008Y-105922540D01*
X73455812Y-105913668D01*
X73452506Y-105904428D01*
X73450121Y-105894909D01*
X73448682Y-105885202D01*
X73448200Y-105875400D01*
X73448200Y-105675400D01*
X73448682Y-105665598D01*
X73450121Y-105655891D01*
X73452506Y-105646372D01*
X73455812Y-105637132D01*
X73460008Y-105628260D01*
X73465053Y-105619843D01*
X73470899Y-105611961D01*
X73477489Y-105604689D01*
X73484761Y-105598099D01*
X73492643Y-105592253D01*
X73501060Y-105587208D01*
X73509932Y-105583012D01*
X73519172Y-105579706D01*
X73528691Y-105577321D01*
X73538398Y-105575882D01*
X73548200Y-105575400D01*
X74823200Y-105575400D01*
X74833002Y-105575882D01*
G37*
G36*
X74833002Y-104925882D02*
G01*
X74842709Y-104927321D01*
X74852228Y-104929706D01*
X74861468Y-104933012D01*
X74870340Y-104937208D01*
X74878757Y-104942253D01*
X74886639Y-104948099D01*
X74893911Y-104954689D01*
X74900501Y-104961961D01*
X74906347Y-104969843D01*
X74911392Y-104978260D01*
X74915588Y-104987132D01*
X74918894Y-104996372D01*
X74921279Y-105005891D01*
X74922718Y-105015598D01*
X74923200Y-105025400D01*
X74923200Y-105225400D01*
X74922718Y-105235202D01*
X74921279Y-105244909D01*
X74918894Y-105254428D01*
X74915588Y-105263668D01*
X74911392Y-105272540D01*
X74906347Y-105280957D01*
X74900501Y-105288839D01*
X74893911Y-105296111D01*
X74886639Y-105302701D01*
X74878757Y-105308547D01*
X74870340Y-105313592D01*
X74861468Y-105317788D01*
X74852228Y-105321094D01*
X74842709Y-105323479D01*
X74833002Y-105324918D01*
X74823200Y-105325400D01*
X73548200Y-105325400D01*
X73538398Y-105324918D01*
X73528691Y-105323479D01*
X73519172Y-105321094D01*
X73509932Y-105317788D01*
X73501060Y-105313592D01*
X73492643Y-105308547D01*
X73484761Y-105302701D01*
X73477489Y-105296111D01*
X73470899Y-105288839D01*
X73465053Y-105280957D01*
X73460008Y-105272540D01*
X73455812Y-105263668D01*
X73452506Y-105254428D01*
X73450121Y-105244909D01*
X73448682Y-105235202D01*
X73448200Y-105225400D01*
X73448200Y-105025400D01*
X73448682Y-105015598D01*
X73450121Y-105005891D01*
X73452506Y-104996372D01*
X73455812Y-104987132D01*
X73460008Y-104978260D01*
X73465053Y-104969843D01*
X73470899Y-104961961D01*
X73477489Y-104954689D01*
X73484761Y-104948099D01*
X73492643Y-104942253D01*
X73501060Y-104937208D01*
X73509932Y-104933012D01*
X73519172Y-104929706D01*
X73528691Y-104927321D01*
X73538398Y-104925882D01*
X73548200Y-104925400D01*
X74823200Y-104925400D01*
X74833002Y-104925882D01*
G37*
G36*
X74833002Y-104275882D02*
G01*
X74842709Y-104277321D01*
X74852228Y-104279706D01*
X74861468Y-104283012D01*
X74870340Y-104287208D01*
X74878757Y-104292253D01*
X74886639Y-104298099D01*
X74893911Y-104304689D01*
X74900501Y-104311961D01*
X74906347Y-104319843D01*
X74911392Y-104328260D01*
X74915588Y-104337132D01*
X74918894Y-104346372D01*
X74921279Y-104355891D01*
X74922718Y-104365598D01*
X74923200Y-104375400D01*
X74923200Y-104575400D01*
X74922718Y-104585202D01*
X74921279Y-104594909D01*
X74918894Y-104604428D01*
X74915588Y-104613668D01*
X74911392Y-104622540D01*
X74906347Y-104630957D01*
X74900501Y-104638839D01*
X74893911Y-104646111D01*
X74886639Y-104652701D01*
X74878757Y-104658547D01*
X74870340Y-104663592D01*
X74861468Y-104667788D01*
X74852228Y-104671094D01*
X74842709Y-104673479D01*
X74833002Y-104674918D01*
X74823200Y-104675400D01*
X73548200Y-104675400D01*
X73538398Y-104674918D01*
X73528691Y-104673479D01*
X73519172Y-104671094D01*
X73509932Y-104667788D01*
X73501060Y-104663592D01*
X73492643Y-104658547D01*
X73484761Y-104652701D01*
X73477489Y-104646111D01*
X73470899Y-104638839D01*
X73465053Y-104630957D01*
X73460008Y-104622540D01*
X73455812Y-104613668D01*
X73452506Y-104604428D01*
X73450121Y-104594909D01*
X73448682Y-104585202D01*
X73448200Y-104575400D01*
X73448200Y-104375400D01*
X73448682Y-104365598D01*
X73450121Y-104355891D01*
X73452506Y-104346372D01*
X73455812Y-104337132D01*
X73460008Y-104328260D01*
X73465053Y-104319843D01*
X73470899Y-104311961D01*
X73477489Y-104304689D01*
X73484761Y-104298099D01*
X73492643Y-104292253D01*
X73501060Y-104287208D01*
X73509932Y-104283012D01*
X73519172Y-104279706D01*
X73528691Y-104277321D01*
X73538398Y-104275882D01*
X73548200Y-104275400D01*
X74823200Y-104275400D01*
X74833002Y-104275882D01*
G37*
G36*
X74833002Y-103625882D02*
G01*
X74842709Y-103627321D01*
X74852228Y-103629706D01*
X74861468Y-103633012D01*
X74870340Y-103637208D01*
X74878757Y-103642253D01*
X74886639Y-103648099D01*
X74893911Y-103654689D01*
X74900501Y-103661961D01*
X74906347Y-103669843D01*
X74911392Y-103678260D01*
X74915588Y-103687132D01*
X74918894Y-103696372D01*
X74921279Y-103705891D01*
X74922718Y-103715598D01*
X74923200Y-103725400D01*
X74923200Y-103925400D01*
X74922718Y-103935202D01*
X74921279Y-103944909D01*
X74918894Y-103954428D01*
X74915588Y-103963668D01*
X74911392Y-103972540D01*
X74906347Y-103980957D01*
X74900501Y-103988839D01*
X74893911Y-103996111D01*
X74886639Y-104002701D01*
X74878757Y-104008547D01*
X74870340Y-104013592D01*
X74861468Y-104017788D01*
X74852228Y-104021094D01*
X74842709Y-104023479D01*
X74833002Y-104024918D01*
X74823200Y-104025400D01*
X73548200Y-104025400D01*
X73538398Y-104024918D01*
X73528691Y-104023479D01*
X73519172Y-104021094D01*
X73509932Y-104017788D01*
X73501060Y-104013592D01*
X73492643Y-104008547D01*
X73484761Y-104002701D01*
X73477489Y-103996111D01*
X73470899Y-103988839D01*
X73465053Y-103980957D01*
X73460008Y-103972540D01*
X73455812Y-103963668D01*
X73452506Y-103954428D01*
X73450121Y-103944909D01*
X73448682Y-103935202D01*
X73448200Y-103925400D01*
X73448200Y-103725400D01*
X73448682Y-103715598D01*
X73450121Y-103705891D01*
X73452506Y-103696372D01*
X73455812Y-103687132D01*
X73460008Y-103678260D01*
X73465053Y-103669843D01*
X73470899Y-103661961D01*
X73477489Y-103654689D01*
X73484761Y-103648099D01*
X73492643Y-103642253D01*
X73501060Y-103637208D01*
X73509932Y-103633012D01*
X73519172Y-103629706D01*
X73528691Y-103627321D01*
X73538398Y-103625882D01*
X73548200Y-103625400D01*
X74823200Y-103625400D01*
X74833002Y-103625882D01*
G37*
G36*
X69108002Y-103625882D02*
G01*
X69117709Y-103627321D01*
X69127228Y-103629706D01*
X69136468Y-103633012D01*
X69145340Y-103637208D01*
X69153757Y-103642253D01*
X69161639Y-103648099D01*
X69168911Y-103654689D01*
X69175501Y-103661961D01*
X69181347Y-103669843D01*
X69186392Y-103678260D01*
X69190588Y-103687132D01*
X69193894Y-103696372D01*
X69196279Y-103705891D01*
X69197718Y-103715598D01*
X69198200Y-103725400D01*
X69198200Y-103925400D01*
X69197718Y-103935202D01*
X69196279Y-103944909D01*
X69193894Y-103954428D01*
X69190588Y-103963668D01*
X69186392Y-103972540D01*
X69181347Y-103980957D01*
X69175501Y-103988839D01*
X69168911Y-103996111D01*
X69161639Y-104002701D01*
X69153757Y-104008547D01*
X69145340Y-104013592D01*
X69136468Y-104017788D01*
X69127228Y-104021094D01*
X69117709Y-104023479D01*
X69108002Y-104024918D01*
X69098200Y-104025400D01*
X67823200Y-104025400D01*
X67813398Y-104024918D01*
X67803691Y-104023479D01*
X67794172Y-104021094D01*
X67784932Y-104017788D01*
X67776060Y-104013592D01*
X67767643Y-104008547D01*
X67759761Y-104002701D01*
X67752489Y-103996111D01*
X67745899Y-103988839D01*
X67740053Y-103980957D01*
X67735008Y-103972540D01*
X67730812Y-103963668D01*
X67727506Y-103954428D01*
X67725121Y-103944909D01*
X67723682Y-103935202D01*
X67723200Y-103925400D01*
X67723200Y-103725400D01*
X67723682Y-103715598D01*
X67725121Y-103705891D01*
X67727506Y-103696372D01*
X67730812Y-103687132D01*
X67735008Y-103678260D01*
X67740053Y-103669843D01*
X67745899Y-103661961D01*
X67752489Y-103654689D01*
X67759761Y-103648099D01*
X67767643Y-103642253D01*
X67776060Y-103637208D01*
X67784932Y-103633012D01*
X67794172Y-103629706D01*
X67803691Y-103627321D01*
X67813398Y-103625882D01*
X67823200Y-103625400D01*
X69098200Y-103625400D01*
X69108002Y-103625882D01*
G37*
G36*
X69108002Y-104275882D02*
G01*
X69117709Y-104277321D01*
X69127228Y-104279706D01*
X69136468Y-104283012D01*
X69145340Y-104287208D01*
X69153757Y-104292253D01*
X69161639Y-104298099D01*
X69168911Y-104304689D01*
X69175501Y-104311961D01*
X69181347Y-104319843D01*
X69186392Y-104328260D01*
X69190588Y-104337132D01*
X69193894Y-104346372D01*
X69196279Y-104355891D01*
X69197718Y-104365598D01*
X69198200Y-104375400D01*
X69198200Y-104575400D01*
X69197718Y-104585202D01*
X69196279Y-104594909D01*
X69193894Y-104604428D01*
X69190588Y-104613668D01*
X69186392Y-104622540D01*
X69181347Y-104630957D01*
X69175501Y-104638839D01*
X69168911Y-104646111D01*
X69161639Y-104652701D01*
X69153757Y-104658547D01*
X69145340Y-104663592D01*
X69136468Y-104667788D01*
X69127228Y-104671094D01*
X69117709Y-104673479D01*
X69108002Y-104674918D01*
X69098200Y-104675400D01*
X67823200Y-104675400D01*
X67813398Y-104674918D01*
X67803691Y-104673479D01*
X67794172Y-104671094D01*
X67784932Y-104667788D01*
X67776060Y-104663592D01*
X67767643Y-104658547D01*
X67759761Y-104652701D01*
X67752489Y-104646111D01*
X67745899Y-104638839D01*
X67740053Y-104630957D01*
X67735008Y-104622540D01*
X67730812Y-104613668D01*
X67727506Y-104604428D01*
X67725121Y-104594909D01*
X67723682Y-104585202D01*
X67723200Y-104575400D01*
X67723200Y-104375400D01*
X67723682Y-104365598D01*
X67725121Y-104355891D01*
X67727506Y-104346372D01*
X67730812Y-104337132D01*
X67735008Y-104328260D01*
X67740053Y-104319843D01*
X67745899Y-104311961D01*
X67752489Y-104304689D01*
X67759761Y-104298099D01*
X67767643Y-104292253D01*
X67776060Y-104287208D01*
X67784932Y-104283012D01*
X67794172Y-104279706D01*
X67803691Y-104277321D01*
X67813398Y-104275882D01*
X67823200Y-104275400D01*
X69098200Y-104275400D01*
X69108002Y-104275882D01*
G37*
G36*
X69108002Y-104925882D02*
G01*
X69117709Y-104927321D01*
X69127228Y-104929706D01*
X69136468Y-104933012D01*
X69145340Y-104937208D01*
X69153757Y-104942253D01*
X69161639Y-104948099D01*
X69168911Y-104954689D01*
X69175501Y-104961961D01*
X69181347Y-104969843D01*
X69186392Y-104978260D01*
X69190588Y-104987132D01*
X69193894Y-104996372D01*
X69196279Y-105005891D01*
X69197718Y-105015598D01*
X69198200Y-105025400D01*
X69198200Y-105225400D01*
X69197718Y-105235202D01*
X69196279Y-105244909D01*
X69193894Y-105254428D01*
X69190588Y-105263668D01*
X69186392Y-105272540D01*
X69181347Y-105280957D01*
X69175501Y-105288839D01*
X69168911Y-105296111D01*
X69161639Y-105302701D01*
X69153757Y-105308547D01*
X69145340Y-105313592D01*
X69136468Y-105317788D01*
X69127228Y-105321094D01*
X69117709Y-105323479D01*
X69108002Y-105324918D01*
X69098200Y-105325400D01*
X67823200Y-105325400D01*
X67813398Y-105324918D01*
X67803691Y-105323479D01*
X67794172Y-105321094D01*
X67784932Y-105317788D01*
X67776060Y-105313592D01*
X67767643Y-105308547D01*
X67759761Y-105302701D01*
X67752489Y-105296111D01*
X67745899Y-105288839D01*
X67740053Y-105280957D01*
X67735008Y-105272540D01*
X67730812Y-105263668D01*
X67727506Y-105254428D01*
X67725121Y-105244909D01*
X67723682Y-105235202D01*
X67723200Y-105225400D01*
X67723200Y-105025400D01*
X67723682Y-105015598D01*
X67725121Y-105005891D01*
X67727506Y-104996372D01*
X67730812Y-104987132D01*
X67735008Y-104978260D01*
X67740053Y-104969843D01*
X67745899Y-104961961D01*
X67752489Y-104954689D01*
X67759761Y-104948099D01*
X67767643Y-104942253D01*
X67776060Y-104937208D01*
X67784932Y-104933012D01*
X67794172Y-104929706D01*
X67803691Y-104927321D01*
X67813398Y-104925882D01*
X67823200Y-104925400D01*
X69098200Y-104925400D01*
X69108002Y-104925882D01*
G37*
G36*
X69108002Y-105575882D02*
G01*
X69117709Y-105577321D01*
X69127228Y-105579706D01*
X69136468Y-105583012D01*
X69145340Y-105587208D01*
X69153757Y-105592253D01*
X69161639Y-105598099D01*
X69168911Y-105604689D01*
X69175501Y-105611961D01*
X69181347Y-105619843D01*
X69186392Y-105628260D01*
X69190588Y-105637132D01*
X69193894Y-105646372D01*
X69196279Y-105655891D01*
X69197718Y-105665598D01*
X69198200Y-105675400D01*
X69198200Y-105875400D01*
X69197718Y-105885202D01*
X69196279Y-105894909D01*
X69193894Y-105904428D01*
X69190588Y-105913668D01*
X69186392Y-105922540D01*
X69181347Y-105930957D01*
X69175501Y-105938839D01*
X69168911Y-105946111D01*
X69161639Y-105952701D01*
X69153757Y-105958547D01*
X69145340Y-105963592D01*
X69136468Y-105967788D01*
X69127228Y-105971094D01*
X69117709Y-105973479D01*
X69108002Y-105974918D01*
X69098200Y-105975400D01*
X67823200Y-105975400D01*
X67813398Y-105974918D01*
X67803691Y-105973479D01*
X67794172Y-105971094D01*
X67784932Y-105967788D01*
X67776060Y-105963592D01*
X67767643Y-105958547D01*
X67759761Y-105952701D01*
X67752489Y-105946111D01*
X67745899Y-105938839D01*
X67740053Y-105930957D01*
X67735008Y-105922540D01*
X67730812Y-105913668D01*
X67727506Y-105904428D01*
X67725121Y-105894909D01*
X67723682Y-105885202D01*
X67723200Y-105875400D01*
X67723200Y-105675400D01*
X67723682Y-105665598D01*
X67725121Y-105655891D01*
X67727506Y-105646372D01*
X67730812Y-105637132D01*
X67735008Y-105628260D01*
X67740053Y-105619843D01*
X67745899Y-105611961D01*
X67752489Y-105604689D01*
X67759761Y-105598099D01*
X67767643Y-105592253D01*
X67776060Y-105587208D01*
X67784932Y-105583012D01*
X67794172Y-105579706D01*
X67803691Y-105577321D01*
X67813398Y-105575882D01*
X67823200Y-105575400D01*
X69098200Y-105575400D01*
X69108002Y-105575882D01*
G37*
%TD*%
%TO.C,R19*%
G36*
X74738491Y-101684853D02*
G01*
X74759726Y-101688003D01*
X74780550Y-101693219D01*
X74800762Y-101700451D01*
X74820168Y-101709630D01*
X74838581Y-101720666D01*
X74855824Y-101733454D01*
X74871730Y-101747870D01*
X74886146Y-101763776D01*
X74898934Y-101781019D01*
X74909970Y-101799432D01*
X74919149Y-101818838D01*
X74926381Y-101839050D01*
X74931597Y-101859874D01*
X74934747Y-101881109D01*
X74935800Y-101902550D01*
X74935800Y-102415050D01*
X74934747Y-102436491D01*
X74931597Y-102457726D01*
X74926381Y-102478550D01*
X74919149Y-102498762D01*
X74909970Y-102518168D01*
X74898934Y-102536581D01*
X74886146Y-102553824D01*
X74871730Y-102569730D01*
X74855824Y-102584146D01*
X74838581Y-102596934D01*
X74820168Y-102607970D01*
X74800762Y-102617149D01*
X74780550Y-102624381D01*
X74759726Y-102629597D01*
X74738491Y-102632747D01*
X74717050Y-102633800D01*
X74279550Y-102633800D01*
X74258109Y-102632747D01*
X74236874Y-102629597D01*
X74216050Y-102624381D01*
X74195838Y-102617149D01*
X74176432Y-102607970D01*
X74158019Y-102596934D01*
X74140776Y-102584146D01*
X74124870Y-102569730D01*
X74110454Y-102553824D01*
X74097666Y-102536581D01*
X74086630Y-102518168D01*
X74077451Y-102498762D01*
X74070219Y-102478550D01*
X74065003Y-102457726D01*
X74061853Y-102436491D01*
X74060800Y-102415050D01*
X74060800Y-101902550D01*
X74061853Y-101881109D01*
X74065003Y-101859874D01*
X74070219Y-101839050D01*
X74077451Y-101818838D01*
X74086630Y-101799432D01*
X74097666Y-101781019D01*
X74110454Y-101763776D01*
X74124870Y-101747870D01*
X74140776Y-101733454D01*
X74158019Y-101720666D01*
X74176432Y-101709630D01*
X74195838Y-101700451D01*
X74216050Y-101693219D01*
X74236874Y-101688003D01*
X74258109Y-101684853D01*
X74279550Y-101683800D01*
X74717050Y-101683800D01*
X74738491Y-101684853D01*
G37*
G36*
X73163491Y-101684853D02*
G01*
X73184726Y-101688003D01*
X73205550Y-101693219D01*
X73225762Y-101700451D01*
X73245168Y-101709630D01*
X73263581Y-101720666D01*
X73280824Y-101733454D01*
X73296730Y-101747870D01*
X73311146Y-101763776D01*
X73323934Y-101781019D01*
X73334970Y-101799432D01*
X73344149Y-101818838D01*
X73351381Y-101839050D01*
X73356597Y-101859874D01*
X73359747Y-101881109D01*
X73360800Y-101902550D01*
X73360800Y-102415050D01*
X73359747Y-102436491D01*
X73356597Y-102457726D01*
X73351381Y-102478550D01*
X73344149Y-102498762D01*
X73334970Y-102518168D01*
X73323934Y-102536581D01*
X73311146Y-102553824D01*
X73296730Y-102569730D01*
X73280824Y-102584146D01*
X73263581Y-102596934D01*
X73245168Y-102607970D01*
X73225762Y-102617149D01*
X73205550Y-102624381D01*
X73184726Y-102629597D01*
X73163491Y-102632747D01*
X73142050Y-102633800D01*
X72704550Y-102633800D01*
X72683109Y-102632747D01*
X72661874Y-102629597D01*
X72641050Y-102624381D01*
X72620838Y-102617149D01*
X72601432Y-102607970D01*
X72583019Y-102596934D01*
X72565776Y-102584146D01*
X72549870Y-102569730D01*
X72535454Y-102553824D01*
X72522666Y-102536581D01*
X72511630Y-102518168D01*
X72502451Y-102498762D01*
X72495219Y-102478550D01*
X72490003Y-102457726D01*
X72486853Y-102436491D01*
X72485800Y-102415050D01*
X72485800Y-101902550D01*
X72486853Y-101881109D01*
X72490003Y-101859874D01*
X72495219Y-101839050D01*
X72502451Y-101818838D01*
X72511630Y-101799432D01*
X72522666Y-101781019D01*
X72535454Y-101763776D01*
X72549870Y-101747870D01*
X72565776Y-101733454D01*
X72583019Y-101720666D01*
X72601432Y-101709630D01*
X72620838Y-101700451D01*
X72641050Y-101693219D01*
X72661874Y-101688003D01*
X72683109Y-101684853D01*
X72704550Y-101683800D01*
X73142050Y-101683800D01*
X73163491Y-101684853D01*
G37*
%TD*%
%TO.C,C13*%
G36*
X76934891Y-89657253D02*
G01*
X76956126Y-89660403D01*
X76976950Y-89665619D01*
X76997162Y-89672851D01*
X77016568Y-89682030D01*
X77034981Y-89693066D01*
X77052224Y-89705854D01*
X77068130Y-89720270D01*
X77082546Y-89736176D01*
X77095334Y-89753419D01*
X77106370Y-89771832D01*
X77115549Y-89791238D01*
X77122781Y-89811450D01*
X77127997Y-89832274D01*
X77131147Y-89853509D01*
X77132200Y-89874950D01*
X77132200Y-90312450D01*
X77131147Y-90333891D01*
X77127997Y-90355126D01*
X77122781Y-90375950D01*
X77115549Y-90396162D01*
X77106370Y-90415568D01*
X77095334Y-90433981D01*
X77082546Y-90451224D01*
X77068130Y-90467130D01*
X77052224Y-90481546D01*
X77034981Y-90494334D01*
X77016568Y-90505370D01*
X76997162Y-90514549D01*
X76976950Y-90521781D01*
X76956126Y-90526997D01*
X76934891Y-90530147D01*
X76913450Y-90531200D01*
X76400950Y-90531200D01*
X76379509Y-90530147D01*
X76358274Y-90526997D01*
X76337450Y-90521781D01*
X76317238Y-90514549D01*
X76297832Y-90505370D01*
X76279419Y-90494334D01*
X76262176Y-90481546D01*
X76246270Y-90467130D01*
X76231854Y-90451224D01*
X76219066Y-90433981D01*
X76208030Y-90415568D01*
X76198851Y-90396162D01*
X76191619Y-90375950D01*
X76186403Y-90355126D01*
X76183253Y-90333891D01*
X76182200Y-90312450D01*
X76182200Y-89874950D01*
X76183253Y-89853509D01*
X76186403Y-89832274D01*
X76191619Y-89811450D01*
X76198851Y-89791238D01*
X76208030Y-89771832D01*
X76219066Y-89753419D01*
X76231854Y-89736176D01*
X76246270Y-89720270D01*
X76262176Y-89705854D01*
X76279419Y-89693066D01*
X76297832Y-89682030D01*
X76317238Y-89672851D01*
X76337450Y-89665619D01*
X76358274Y-89660403D01*
X76379509Y-89657253D01*
X76400950Y-89656200D01*
X76913450Y-89656200D01*
X76934891Y-89657253D01*
G37*
G36*
X76934891Y-91232253D02*
G01*
X76956126Y-91235403D01*
X76976950Y-91240619D01*
X76997162Y-91247851D01*
X77016568Y-91257030D01*
X77034981Y-91268066D01*
X77052224Y-91280854D01*
X77068130Y-91295270D01*
X77082546Y-91311176D01*
X77095334Y-91328419D01*
X77106370Y-91346832D01*
X77115549Y-91366238D01*
X77122781Y-91386450D01*
X77127997Y-91407274D01*
X77131147Y-91428509D01*
X77132200Y-91449950D01*
X77132200Y-91887450D01*
X77131147Y-91908891D01*
X77127997Y-91930126D01*
X77122781Y-91950950D01*
X77115549Y-91971162D01*
X77106370Y-91990568D01*
X77095334Y-92008981D01*
X77082546Y-92026224D01*
X77068130Y-92042130D01*
X77052224Y-92056546D01*
X77034981Y-92069334D01*
X77016568Y-92080370D01*
X76997162Y-92089549D01*
X76976950Y-92096781D01*
X76956126Y-92101997D01*
X76934891Y-92105147D01*
X76913450Y-92106200D01*
X76400950Y-92106200D01*
X76379509Y-92105147D01*
X76358274Y-92101997D01*
X76337450Y-92096781D01*
X76317238Y-92089549D01*
X76297832Y-92080370D01*
X76279419Y-92069334D01*
X76262176Y-92056546D01*
X76246270Y-92042130D01*
X76231854Y-92026224D01*
X76219066Y-92008981D01*
X76208030Y-91990568D01*
X76198851Y-91971162D01*
X76191619Y-91950950D01*
X76186403Y-91930126D01*
X76183253Y-91908891D01*
X76182200Y-91887450D01*
X76182200Y-91449950D01*
X76183253Y-91428509D01*
X76186403Y-91407274D01*
X76191619Y-91386450D01*
X76198851Y-91366238D01*
X76208030Y-91346832D01*
X76219066Y-91328419D01*
X76231854Y-91311176D01*
X76246270Y-91295270D01*
X76262176Y-91280854D01*
X76279419Y-91268066D01*
X76297832Y-91257030D01*
X76317238Y-91247851D01*
X76337450Y-91240619D01*
X76358274Y-91235403D01*
X76379509Y-91232253D01*
X76400950Y-91231200D01*
X76913450Y-91231200D01*
X76934891Y-91232253D01*
G37*
%TD*%
%TO.C,C12*%
G36*
X81875591Y-91270853D02*
G01*
X81896826Y-91274003D01*
X81917650Y-91279219D01*
X81937862Y-91286451D01*
X81957268Y-91295630D01*
X81975681Y-91306666D01*
X81992924Y-91319454D01*
X82008830Y-91333870D01*
X82023246Y-91349776D01*
X82036034Y-91367019D01*
X82047070Y-91385432D01*
X82056249Y-91404838D01*
X82063481Y-91425050D01*
X82068697Y-91445874D01*
X82071847Y-91467109D01*
X82072900Y-91488550D01*
X82072900Y-92001050D01*
X82071847Y-92022491D01*
X82068697Y-92043726D01*
X82063481Y-92064550D01*
X82056249Y-92084762D01*
X82047070Y-92104168D01*
X82036034Y-92122581D01*
X82023246Y-92139824D01*
X82008830Y-92155730D01*
X81992924Y-92170146D01*
X81975681Y-92182934D01*
X81957268Y-92193970D01*
X81937862Y-92203149D01*
X81917650Y-92210381D01*
X81896826Y-92215597D01*
X81875591Y-92218747D01*
X81854150Y-92219800D01*
X81416650Y-92219800D01*
X81395209Y-92218747D01*
X81373974Y-92215597D01*
X81353150Y-92210381D01*
X81332938Y-92203149D01*
X81313532Y-92193970D01*
X81295119Y-92182934D01*
X81277876Y-92170146D01*
X81261970Y-92155730D01*
X81247554Y-92139824D01*
X81234766Y-92122581D01*
X81223730Y-92104168D01*
X81214551Y-92084762D01*
X81207319Y-92064550D01*
X81202103Y-92043726D01*
X81198953Y-92022491D01*
X81197900Y-92001050D01*
X81197900Y-91488550D01*
X81198953Y-91467109D01*
X81202103Y-91445874D01*
X81207319Y-91425050D01*
X81214551Y-91404838D01*
X81223730Y-91385432D01*
X81234766Y-91367019D01*
X81247554Y-91349776D01*
X81261970Y-91333870D01*
X81277876Y-91319454D01*
X81295119Y-91306666D01*
X81313532Y-91295630D01*
X81332938Y-91286451D01*
X81353150Y-91279219D01*
X81373974Y-91274003D01*
X81395209Y-91270853D01*
X81416650Y-91269800D01*
X81854150Y-91269800D01*
X81875591Y-91270853D01*
G37*
G36*
X83450591Y-91270853D02*
G01*
X83471826Y-91274003D01*
X83492650Y-91279219D01*
X83512862Y-91286451D01*
X83532268Y-91295630D01*
X83550681Y-91306666D01*
X83567924Y-91319454D01*
X83583830Y-91333870D01*
X83598246Y-91349776D01*
X83611034Y-91367019D01*
X83622070Y-91385432D01*
X83631249Y-91404838D01*
X83638481Y-91425050D01*
X83643697Y-91445874D01*
X83646847Y-91467109D01*
X83647900Y-91488550D01*
X83647900Y-92001050D01*
X83646847Y-92022491D01*
X83643697Y-92043726D01*
X83638481Y-92064550D01*
X83631249Y-92084762D01*
X83622070Y-92104168D01*
X83611034Y-92122581D01*
X83598246Y-92139824D01*
X83583830Y-92155730D01*
X83567924Y-92170146D01*
X83550681Y-92182934D01*
X83532268Y-92193970D01*
X83512862Y-92203149D01*
X83492650Y-92210381D01*
X83471826Y-92215597D01*
X83450591Y-92218747D01*
X83429150Y-92219800D01*
X82991650Y-92219800D01*
X82970209Y-92218747D01*
X82948974Y-92215597D01*
X82928150Y-92210381D01*
X82907938Y-92203149D01*
X82888532Y-92193970D01*
X82870119Y-92182934D01*
X82852876Y-92170146D01*
X82836970Y-92155730D01*
X82822554Y-92139824D01*
X82809766Y-92122581D01*
X82798730Y-92104168D01*
X82789551Y-92084762D01*
X82782319Y-92064550D01*
X82777103Y-92043726D01*
X82773953Y-92022491D01*
X82772900Y-92001050D01*
X82772900Y-91488550D01*
X82773953Y-91467109D01*
X82777103Y-91445874D01*
X82782319Y-91425050D01*
X82789551Y-91404838D01*
X82798730Y-91385432D01*
X82809766Y-91367019D01*
X82822554Y-91349776D01*
X82836970Y-91333870D01*
X82852876Y-91319454D01*
X82870119Y-91306666D01*
X82888532Y-91295630D01*
X82907938Y-91286451D01*
X82928150Y-91279219D01*
X82948974Y-91274003D01*
X82970209Y-91270853D01*
X82991650Y-91269800D01*
X83429150Y-91269800D01*
X83450591Y-91270853D01*
G37*
%TD*%
%TO.C,C9*%
G36*
X87336891Y-111286053D02*
G01*
X87358126Y-111289203D01*
X87378950Y-111294419D01*
X87399162Y-111301651D01*
X87418568Y-111310830D01*
X87436981Y-111321866D01*
X87454224Y-111334654D01*
X87470130Y-111349070D01*
X87484546Y-111364976D01*
X87497334Y-111382219D01*
X87508370Y-111400632D01*
X87517549Y-111420038D01*
X87524781Y-111440250D01*
X87529997Y-111461074D01*
X87533147Y-111482309D01*
X87534200Y-111503750D01*
X87534200Y-112016250D01*
X87533147Y-112037691D01*
X87529997Y-112058926D01*
X87524781Y-112079750D01*
X87517549Y-112099962D01*
X87508370Y-112119368D01*
X87497334Y-112137781D01*
X87484546Y-112155024D01*
X87470130Y-112170930D01*
X87454224Y-112185346D01*
X87436981Y-112198134D01*
X87418568Y-112209170D01*
X87399162Y-112218349D01*
X87378950Y-112225581D01*
X87358126Y-112230797D01*
X87336891Y-112233947D01*
X87315450Y-112235000D01*
X86877950Y-112235000D01*
X86856509Y-112233947D01*
X86835274Y-112230797D01*
X86814450Y-112225581D01*
X86794238Y-112218349D01*
X86774832Y-112209170D01*
X86756419Y-112198134D01*
X86739176Y-112185346D01*
X86723270Y-112170930D01*
X86708854Y-112155024D01*
X86696066Y-112137781D01*
X86685030Y-112119368D01*
X86675851Y-112099962D01*
X86668619Y-112079750D01*
X86663403Y-112058926D01*
X86660253Y-112037691D01*
X86659200Y-112016250D01*
X86659200Y-111503750D01*
X86660253Y-111482309D01*
X86663403Y-111461074D01*
X86668619Y-111440250D01*
X86675851Y-111420038D01*
X86685030Y-111400632D01*
X86696066Y-111382219D01*
X86708854Y-111364976D01*
X86723270Y-111349070D01*
X86739176Y-111334654D01*
X86756419Y-111321866D01*
X86774832Y-111310830D01*
X86794238Y-111301651D01*
X86814450Y-111294419D01*
X86835274Y-111289203D01*
X86856509Y-111286053D01*
X86877950Y-111285000D01*
X87315450Y-111285000D01*
X87336891Y-111286053D01*
G37*
G36*
X85761891Y-111286053D02*
G01*
X85783126Y-111289203D01*
X85803950Y-111294419D01*
X85824162Y-111301651D01*
X85843568Y-111310830D01*
X85861981Y-111321866D01*
X85879224Y-111334654D01*
X85895130Y-111349070D01*
X85909546Y-111364976D01*
X85922334Y-111382219D01*
X85933370Y-111400632D01*
X85942549Y-111420038D01*
X85949781Y-111440250D01*
X85954997Y-111461074D01*
X85958147Y-111482309D01*
X85959200Y-111503750D01*
X85959200Y-112016250D01*
X85958147Y-112037691D01*
X85954997Y-112058926D01*
X85949781Y-112079750D01*
X85942549Y-112099962D01*
X85933370Y-112119368D01*
X85922334Y-112137781D01*
X85909546Y-112155024D01*
X85895130Y-112170930D01*
X85879224Y-112185346D01*
X85861981Y-112198134D01*
X85843568Y-112209170D01*
X85824162Y-112218349D01*
X85803950Y-112225581D01*
X85783126Y-112230797D01*
X85761891Y-112233947D01*
X85740450Y-112235000D01*
X85302950Y-112235000D01*
X85281509Y-112233947D01*
X85260274Y-112230797D01*
X85239450Y-112225581D01*
X85219238Y-112218349D01*
X85199832Y-112209170D01*
X85181419Y-112198134D01*
X85164176Y-112185346D01*
X85148270Y-112170930D01*
X85133854Y-112155024D01*
X85121066Y-112137781D01*
X85110030Y-112119368D01*
X85100851Y-112099962D01*
X85093619Y-112079750D01*
X85088403Y-112058926D01*
X85085253Y-112037691D01*
X85084200Y-112016250D01*
X85084200Y-111503750D01*
X85085253Y-111482309D01*
X85088403Y-111461074D01*
X85093619Y-111440250D01*
X85100851Y-111420038D01*
X85110030Y-111400632D01*
X85121066Y-111382219D01*
X85133854Y-111364976D01*
X85148270Y-111349070D01*
X85164176Y-111334654D01*
X85181419Y-111321866D01*
X85199832Y-111310830D01*
X85219238Y-111301651D01*
X85239450Y-111294419D01*
X85260274Y-111289203D01*
X85281509Y-111286053D01*
X85302950Y-111285000D01*
X85740450Y-111285000D01*
X85761891Y-111286053D01*
G37*
%TD*%
%TO.C,C8*%
G36*
X88479591Y-92744053D02*
G01*
X88500826Y-92747203D01*
X88521650Y-92752419D01*
X88541862Y-92759651D01*
X88561268Y-92768830D01*
X88579681Y-92779866D01*
X88596924Y-92792654D01*
X88612830Y-92807070D01*
X88627246Y-92822976D01*
X88640034Y-92840219D01*
X88651070Y-92858632D01*
X88660249Y-92878038D01*
X88667481Y-92898250D01*
X88672697Y-92919074D01*
X88675847Y-92940309D01*
X88676900Y-92961750D01*
X88676900Y-93474250D01*
X88675847Y-93495691D01*
X88672697Y-93516926D01*
X88667481Y-93537750D01*
X88660249Y-93557962D01*
X88651070Y-93577368D01*
X88640034Y-93595781D01*
X88627246Y-93613024D01*
X88612830Y-93628930D01*
X88596924Y-93643346D01*
X88579681Y-93656134D01*
X88561268Y-93667170D01*
X88541862Y-93676349D01*
X88521650Y-93683581D01*
X88500826Y-93688797D01*
X88479591Y-93691947D01*
X88458150Y-93693000D01*
X88020650Y-93693000D01*
X87999209Y-93691947D01*
X87977974Y-93688797D01*
X87957150Y-93683581D01*
X87936938Y-93676349D01*
X87917532Y-93667170D01*
X87899119Y-93656134D01*
X87881876Y-93643346D01*
X87865970Y-93628930D01*
X87851554Y-93613024D01*
X87838766Y-93595781D01*
X87827730Y-93577368D01*
X87818551Y-93557962D01*
X87811319Y-93537750D01*
X87806103Y-93516926D01*
X87802953Y-93495691D01*
X87801900Y-93474250D01*
X87801900Y-92961750D01*
X87802953Y-92940309D01*
X87806103Y-92919074D01*
X87811319Y-92898250D01*
X87818551Y-92878038D01*
X87827730Y-92858632D01*
X87838766Y-92840219D01*
X87851554Y-92822976D01*
X87865970Y-92807070D01*
X87881876Y-92792654D01*
X87899119Y-92779866D01*
X87917532Y-92768830D01*
X87936938Y-92759651D01*
X87957150Y-92752419D01*
X87977974Y-92747203D01*
X87999209Y-92744053D01*
X88020650Y-92743000D01*
X88458150Y-92743000D01*
X88479591Y-92744053D01*
G37*
G36*
X90054591Y-92744053D02*
G01*
X90075826Y-92747203D01*
X90096650Y-92752419D01*
X90116862Y-92759651D01*
X90136268Y-92768830D01*
X90154681Y-92779866D01*
X90171924Y-92792654D01*
X90187830Y-92807070D01*
X90202246Y-92822976D01*
X90215034Y-92840219D01*
X90226070Y-92858632D01*
X90235249Y-92878038D01*
X90242481Y-92898250D01*
X90247697Y-92919074D01*
X90250847Y-92940309D01*
X90251900Y-92961750D01*
X90251900Y-93474250D01*
X90250847Y-93495691D01*
X90247697Y-93516926D01*
X90242481Y-93537750D01*
X90235249Y-93557962D01*
X90226070Y-93577368D01*
X90215034Y-93595781D01*
X90202246Y-93613024D01*
X90187830Y-93628930D01*
X90171924Y-93643346D01*
X90154681Y-93656134D01*
X90136268Y-93667170D01*
X90116862Y-93676349D01*
X90096650Y-93683581D01*
X90075826Y-93688797D01*
X90054591Y-93691947D01*
X90033150Y-93693000D01*
X89595650Y-93693000D01*
X89574209Y-93691947D01*
X89552974Y-93688797D01*
X89532150Y-93683581D01*
X89511938Y-93676349D01*
X89492532Y-93667170D01*
X89474119Y-93656134D01*
X89456876Y-93643346D01*
X89440970Y-93628930D01*
X89426554Y-93613024D01*
X89413766Y-93595781D01*
X89402730Y-93577368D01*
X89393551Y-93557962D01*
X89386319Y-93537750D01*
X89381103Y-93516926D01*
X89377953Y-93495691D01*
X89376900Y-93474250D01*
X89376900Y-92961750D01*
X89377953Y-92940309D01*
X89381103Y-92919074D01*
X89386319Y-92898250D01*
X89393551Y-92878038D01*
X89402730Y-92858632D01*
X89413766Y-92840219D01*
X89426554Y-92822976D01*
X89440970Y-92807070D01*
X89456876Y-92792654D01*
X89474119Y-92779866D01*
X89492532Y-92768830D01*
X89511938Y-92759651D01*
X89532150Y-92752419D01*
X89552974Y-92747203D01*
X89574209Y-92744053D01*
X89595650Y-92743000D01*
X90033150Y-92743000D01*
X90054591Y-92744053D01*
G37*
%TD*%
%TO.C,R17*%
G36*
X62800291Y-109457253D02*
G01*
X62821526Y-109460403D01*
X62842350Y-109465619D01*
X62862562Y-109472851D01*
X62881968Y-109482030D01*
X62900381Y-109493066D01*
X62917624Y-109505854D01*
X62933530Y-109520270D01*
X62947946Y-109536176D01*
X62960734Y-109553419D01*
X62971770Y-109571832D01*
X62980949Y-109591238D01*
X62988181Y-109611450D01*
X62993397Y-109632274D01*
X62996547Y-109653509D01*
X62997600Y-109674950D01*
X62997600Y-110187450D01*
X62996547Y-110208891D01*
X62993397Y-110230126D01*
X62988181Y-110250950D01*
X62980949Y-110271162D01*
X62971770Y-110290568D01*
X62960734Y-110308981D01*
X62947946Y-110326224D01*
X62933530Y-110342130D01*
X62917624Y-110356546D01*
X62900381Y-110369334D01*
X62881968Y-110380370D01*
X62862562Y-110389549D01*
X62842350Y-110396781D01*
X62821526Y-110401997D01*
X62800291Y-110405147D01*
X62778850Y-110406200D01*
X62341350Y-110406200D01*
X62319909Y-110405147D01*
X62298674Y-110401997D01*
X62277850Y-110396781D01*
X62257638Y-110389549D01*
X62238232Y-110380370D01*
X62219819Y-110369334D01*
X62202576Y-110356546D01*
X62186670Y-110342130D01*
X62172254Y-110326224D01*
X62159466Y-110308981D01*
X62148430Y-110290568D01*
X62139251Y-110271162D01*
X62132019Y-110250950D01*
X62126803Y-110230126D01*
X62123653Y-110208891D01*
X62122600Y-110187450D01*
X62122600Y-109674950D01*
X62123653Y-109653509D01*
X62126803Y-109632274D01*
X62132019Y-109611450D01*
X62139251Y-109591238D01*
X62148430Y-109571832D01*
X62159466Y-109553419D01*
X62172254Y-109536176D01*
X62186670Y-109520270D01*
X62202576Y-109505854D01*
X62219819Y-109493066D01*
X62238232Y-109482030D01*
X62257638Y-109472851D01*
X62277850Y-109465619D01*
X62298674Y-109460403D01*
X62319909Y-109457253D01*
X62341350Y-109456200D01*
X62778850Y-109456200D01*
X62800291Y-109457253D01*
G37*
G36*
X64375291Y-109457253D02*
G01*
X64396526Y-109460403D01*
X64417350Y-109465619D01*
X64437562Y-109472851D01*
X64456968Y-109482030D01*
X64475381Y-109493066D01*
X64492624Y-109505854D01*
X64508530Y-109520270D01*
X64522946Y-109536176D01*
X64535734Y-109553419D01*
X64546770Y-109571832D01*
X64555949Y-109591238D01*
X64563181Y-109611450D01*
X64568397Y-109632274D01*
X64571547Y-109653509D01*
X64572600Y-109674950D01*
X64572600Y-110187450D01*
X64571547Y-110208891D01*
X64568397Y-110230126D01*
X64563181Y-110250950D01*
X64555949Y-110271162D01*
X64546770Y-110290568D01*
X64535734Y-110308981D01*
X64522946Y-110326224D01*
X64508530Y-110342130D01*
X64492624Y-110356546D01*
X64475381Y-110369334D01*
X64456968Y-110380370D01*
X64437562Y-110389549D01*
X64417350Y-110396781D01*
X64396526Y-110401997D01*
X64375291Y-110405147D01*
X64353850Y-110406200D01*
X63916350Y-110406200D01*
X63894909Y-110405147D01*
X63873674Y-110401997D01*
X63852850Y-110396781D01*
X63832638Y-110389549D01*
X63813232Y-110380370D01*
X63794819Y-110369334D01*
X63777576Y-110356546D01*
X63761670Y-110342130D01*
X63747254Y-110326224D01*
X63734466Y-110308981D01*
X63723430Y-110290568D01*
X63714251Y-110271162D01*
X63707019Y-110250950D01*
X63701803Y-110230126D01*
X63698653Y-110208891D01*
X63697600Y-110187450D01*
X63697600Y-109674950D01*
X63698653Y-109653509D01*
X63701803Y-109632274D01*
X63707019Y-109611450D01*
X63714251Y-109591238D01*
X63723430Y-109571832D01*
X63734466Y-109553419D01*
X63747254Y-109536176D01*
X63761670Y-109520270D01*
X63777576Y-109505854D01*
X63794819Y-109493066D01*
X63813232Y-109482030D01*
X63832638Y-109472851D01*
X63852850Y-109465619D01*
X63873674Y-109460403D01*
X63894909Y-109457253D01*
X63916350Y-109456200D01*
X64353850Y-109456200D01*
X64375291Y-109457253D01*
G37*
%TD*%
%TO.C,R16*%
G36*
X64375291Y-107882453D02*
G01*
X64396526Y-107885603D01*
X64417350Y-107890819D01*
X64437562Y-107898051D01*
X64456968Y-107907230D01*
X64475381Y-107918266D01*
X64492624Y-107931054D01*
X64508530Y-107945470D01*
X64522946Y-107961376D01*
X64535734Y-107978619D01*
X64546770Y-107997032D01*
X64555949Y-108016438D01*
X64563181Y-108036650D01*
X64568397Y-108057474D01*
X64571547Y-108078709D01*
X64572600Y-108100150D01*
X64572600Y-108612650D01*
X64571547Y-108634091D01*
X64568397Y-108655326D01*
X64563181Y-108676150D01*
X64555949Y-108696362D01*
X64546770Y-108715768D01*
X64535734Y-108734181D01*
X64522946Y-108751424D01*
X64508530Y-108767330D01*
X64492624Y-108781746D01*
X64475381Y-108794534D01*
X64456968Y-108805570D01*
X64437562Y-108814749D01*
X64417350Y-108821981D01*
X64396526Y-108827197D01*
X64375291Y-108830347D01*
X64353850Y-108831400D01*
X63916350Y-108831400D01*
X63894909Y-108830347D01*
X63873674Y-108827197D01*
X63852850Y-108821981D01*
X63832638Y-108814749D01*
X63813232Y-108805570D01*
X63794819Y-108794534D01*
X63777576Y-108781746D01*
X63761670Y-108767330D01*
X63747254Y-108751424D01*
X63734466Y-108734181D01*
X63723430Y-108715768D01*
X63714251Y-108696362D01*
X63707019Y-108676150D01*
X63701803Y-108655326D01*
X63698653Y-108634091D01*
X63697600Y-108612650D01*
X63697600Y-108100150D01*
X63698653Y-108078709D01*
X63701803Y-108057474D01*
X63707019Y-108036650D01*
X63714251Y-108016438D01*
X63723430Y-107997032D01*
X63734466Y-107978619D01*
X63747254Y-107961376D01*
X63761670Y-107945470D01*
X63777576Y-107931054D01*
X63794819Y-107918266D01*
X63813232Y-107907230D01*
X63832638Y-107898051D01*
X63852850Y-107890819D01*
X63873674Y-107885603D01*
X63894909Y-107882453D01*
X63916350Y-107881400D01*
X64353850Y-107881400D01*
X64375291Y-107882453D01*
G37*
G36*
X62800291Y-107882453D02*
G01*
X62821526Y-107885603D01*
X62842350Y-107890819D01*
X62862562Y-107898051D01*
X62881968Y-107907230D01*
X62900381Y-107918266D01*
X62917624Y-107931054D01*
X62933530Y-107945470D01*
X62947946Y-107961376D01*
X62960734Y-107978619D01*
X62971770Y-107997032D01*
X62980949Y-108016438D01*
X62988181Y-108036650D01*
X62993397Y-108057474D01*
X62996547Y-108078709D01*
X62997600Y-108100150D01*
X62997600Y-108612650D01*
X62996547Y-108634091D01*
X62993397Y-108655326D01*
X62988181Y-108676150D01*
X62980949Y-108696362D01*
X62971770Y-108715768D01*
X62960734Y-108734181D01*
X62947946Y-108751424D01*
X62933530Y-108767330D01*
X62917624Y-108781746D01*
X62900381Y-108794534D01*
X62881968Y-108805570D01*
X62862562Y-108814749D01*
X62842350Y-108821981D01*
X62821526Y-108827197D01*
X62800291Y-108830347D01*
X62778850Y-108831400D01*
X62341350Y-108831400D01*
X62319909Y-108830347D01*
X62298674Y-108827197D01*
X62277850Y-108821981D01*
X62257638Y-108814749D01*
X62238232Y-108805570D01*
X62219819Y-108794534D01*
X62202576Y-108781746D01*
X62186670Y-108767330D01*
X62172254Y-108751424D01*
X62159466Y-108734181D01*
X62148430Y-108715768D01*
X62139251Y-108696362D01*
X62132019Y-108676150D01*
X62126803Y-108655326D01*
X62123653Y-108634091D01*
X62122600Y-108612650D01*
X62122600Y-108100150D01*
X62123653Y-108078709D01*
X62126803Y-108057474D01*
X62132019Y-108036650D01*
X62139251Y-108016438D01*
X62148430Y-107997032D01*
X62159466Y-107978619D01*
X62172254Y-107961376D01*
X62186670Y-107945470D01*
X62202576Y-107931054D01*
X62219819Y-107918266D01*
X62238232Y-107907230D01*
X62257638Y-107898051D01*
X62277850Y-107890819D01*
X62298674Y-107885603D01*
X62319909Y-107882453D01*
X62341350Y-107881400D01*
X62778850Y-107881400D01*
X62800291Y-107882453D01*
G37*
%TD*%
%TO.C,R7*%
G36*
X80402591Y-89696053D02*
G01*
X80423826Y-89699203D01*
X80444650Y-89704419D01*
X80464862Y-89711651D01*
X80484268Y-89720830D01*
X80502681Y-89731866D01*
X80519924Y-89744654D01*
X80535830Y-89759070D01*
X80550246Y-89774976D01*
X80563034Y-89792219D01*
X80574070Y-89810632D01*
X80583249Y-89830038D01*
X80590481Y-89850250D01*
X80595697Y-89871074D01*
X80598847Y-89892309D01*
X80599900Y-89913750D01*
X80599900Y-90426250D01*
X80598847Y-90447691D01*
X80595697Y-90468926D01*
X80590481Y-90489750D01*
X80583249Y-90509962D01*
X80574070Y-90529368D01*
X80563034Y-90547781D01*
X80550246Y-90565024D01*
X80535830Y-90580930D01*
X80519924Y-90595346D01*
X80502681Y-90608134D01*
X80484268Y-90619170D01*
X80464862Y-90628349D01*
X80444650Y-90635581D01*
X80423826Y-90640797D01*
X80402591Y-90643947D01*
X80381150Y-90645000D01*
X79943650Y-90645000D01*
X79922209Y-90643947D01*
X79900974Y-90640797D01*
X79880150Y-90635581D01*
X79859938Y-90628349D01*
X79840532Y-90619170D01*
X79822119Y-90608134D01*
X79804876Y-90595346D01*
X79788970Y-90580930D01*
X79774554Y-90565024D01*
X79761766Y-90547781D01*
X79750730Y-90529368D01*
X79741551Y-90509962D01*
X79734319Y-90489750D01*
X79729103Y-90468926D01*
X79725953Y-90447691D01*
X79724900Y-90426250D01*
X79724900Y-89913750D01*
X79725953Y-89892309D01*
X79729103Y-89871074D01*
X79734319Y-89850250D01*
X79741551Y-89830038D01*
X79750730Y-89810632D01*
X79761766Y-89792219D01*
X79774554Y-89774976D01*
X79788970Y-89759070D01*
X79804876Y-89744654D01*
X79822119Y-89731866D01*
X79840532Y-89720830D01*
X79859938Y-89711651D01*
X79880150Y-89704419D01*
X79900974Y-89699203D01*
X79922209Y-89696053D01*
X79943650Y-89695000D01*
X80381150Y-89695000D01*
X80402591Y-89696053D01*
G37*
G36*
X78827591Y-89696053D02*
G01*
X78848826Y-89699203D01*
X78869650Y-89704419D01*
X78889862Y-89711651D01*
X78909268Y-89720830D01*
X78927681Y-89731866D01*
X78944924Y-89744654D01*
X78960830Y-89759070D01*
X78975246Y-89774976D01*
X78988034Y-89792219D01*
X78999070Y-89810632D01*
X79008249Y-89830038D01*
X79015481Y-89850250D01*
X79020697Y-89871074D01*
X79023847Y-89892309D01*
X79024900Y-89913750D01*
X79024900Y-90426250D01*
X79023847Y-90447691D01*
X79020697Y-90468926D01*
X79015481Y-90489750D01*
X79008249Y-90509962D01*
X78999070Y-90529368D01*
X78988034Y-90547781D01*
X78975246Y-90565024D01*
X78960830Y-90580930D01*
X78944924Y-90595346D01*
X78927681Y-90608134D01*
X78909268Y-90619170D01*
X78889862Y-90628349D01*
X78869650Y-90635581D01*
X78848826Y-90640797D01*
X78827591Y-90643947D01*
X78806150Y-90645000D01*
X78368650Y-90645000D01*
X78347209Y-90643947D01*
X78325974Y-90640797D01*
X78305150Y-90635581D01*
X78284938Y-90628349D01*
X78265532Y-90619170D01*
X78247119Y-90608134D01*
X78229876Y-90595346D01*
X78213970Y-90580930D01*
X78199554Y-90565024D01*
X78186766Y-90547781D01*
X78175730Y-90529368D01*
X78166551Y-90509962D01*
X78159319Y-90489750D01*
X78154103Y-90468926D01*
X78150953Y-90447691D01*
X78149900Y-90426250D01*
X78149900Y-89913750D01*
X78150953Y-89892309D01*
X78154103Y-89871074D01*
X78159319Y-89850250D01*
X78166551Y-89830038D01*
X78175730Y-89810632D01*
X78186766Y-89792219D01*
X78199554Y-89774976D01*
X78213970Y-89759070D01*
X78229876Y-89744654D01*
X78247119Y-89731866D01*
X78265532Y-89720830D01*
X78284938Y-89711651D01*
X78305150Y-89704419D01*
X78325974Y-89699203D01*
X78347209Y-89696053D01*
X78368650Y-89695000D01*
X78806150Y-89695000D01*
X78827591Y-89696053D01*
G37*
%TD*%
%TO.C,R6*%
G36*
X81901091Y-89696053D02*
G01*
X81922326Y-89699203D01*
X81943150Y-89704419D01*
X81963362Y-89711651D01*
X81982768Y-89720830D01*
X82001181Y-89731866D01*
X82018424Y-89744654D01*
X82034330Y-89759070D01*
X82048746Y-89774976D01*
X82061534Y-89792219D01*
X82072570Y-89810632D01*
X82081749Y-89830038D01*
X82088981Y-89850250D01*
X82094197Y-89871074D01*
X82097347Y-89892309D01*
X82098400Y-89913750D01*
X82098400Y-90426250D01*
X82097347Y-90447691D01*
X82094197Y-90468926D01*
X82088981Y-90489750D01*
X82081749Y-90509962D01*
X82072570Y-90529368D01*
X82061534Y-90547781D01*
X82048746Y-90565024D01*
X82034330Y-90580930D01*
X82018424Y-90595346D01*
X82001181Y-90608134D01*
X81982768Y-90619170D01*
X81963362Y-90628349D01*
X81943150Y-90635581D01*
X81922326Y-90640797D01*
X81901091Y-90643947D01*
X81879650Y-90645000D01*
X81442150Y-90645000D01*
X81420709Y-90643947D01*
X81399474Y-90640797D01*
X81378650Y-90635581D01*
X81358438Y-90628349D01*
X81339032Y-90619170D01*
X81320619Y-90608134D01*
X81303376Y-90595346D01*
X81287470Y-90580930D01*
X81273054Y-90565024D01*
X81260266Y-90547781D01*
X81249230Y-90529368D01*
X81240051Y-90509962D01*
X81232819Y-90489750D01*
X81227603Y-90468926D01*
X81224453Y-90447691D01*
X81223400Y-90426250D01*
X81223400Y-89913750D01*
X81224453Y-89892309D01*
X81227603Y-89871074D01*
X81232819Y-89850250D01*
X81240051Y-89830038D01*
X81249230Y-89810632D01*
X81260266Y-89792219D01*
X81273054Y-89774976D01*
X81287470Y-89759070D01*
X81303376Y-89744654D01*
X81320619Y-89731866D01*
X81339032Y-89720830D01*
X81358438Y-89711651D01*
X81378650Y-89704419D01*
X81399474Y-89699203D01*
X81420709Y-89696053D01*
X81442150Y-89695000D01*
X81879650Y-89695000D01*
X81901091Y-89696053D01*
G37*
G36*
X83476091Y-89696053D02*
G01*
X83497326Y-89699203D01*
X83518150Y-89704419D01*
X83538362Y-89711651D01*
X83557768Y-89720830D01*
X83576181Y-89731866D01*
X83593424Y-89744654D01*
X83609330Y-89759070D01*
X83623746Y-89774976D01*
X83636534Y-89792219D01*
X83647570Y-89810632D01*
X83656749Y-89830038D01*
X83663981Y-89850250D01*
X83669197Y-89871074D01*
X83672347Y-89892309D01*
X83673400Y-89913750D01*
X83673400Y-90426250D01*
X83672347Y-90447691D01*
X83669197Y-90468926D01*
X83663981Y-90489750D01*
X83656749Y-90509962D01*
X83647570Y-90529368D01*
X83636534Y-90547781D01*
X83623746Y-90565024D01*
X83609330Y-90580930D01*
X83593424Y-90595346D01*
X83576181Y-90608134D01*
X83557768Y-90619170D01*
X83538362Y-90628349D01*
X83518150Y-90635581D01*
X83497326Y-90640797D01*
X83476091Y-90643947D01*
X83454650Y-90645000D01*
X83017150Y-90645000D01*
X82995709Y-90643947D01*
X82974474Y-90640797D01*
X82953650Y-90635581D01*
X82933438Y-90628349D01*
X82914032Y-90619170D01*
X82895619Y-90608134D01*
X82878376Y-90595346D01*
X82862470Y-90580930D01*
X82848054Y-90565024D01*
X82835266Y-90547781D01*
X82824230Y-90529368D01*
X82815051Y-90509962D01*
X82807819Y-90489750D01*
X82802603Y-90468926D01*
X82799453Y-90447691D01*
X82798400Y-90426250D01*
X82798400Y-89913750D01*
X82799453Y-89892309D01*
X82802603Y-89871074D01*
X82807819Y-89850250D01*
X82815051Y-89830038D01*
X82824230Y-89810632D01*
X82835266Y-89792219D01*
X82848054Y-89774976D01*
X82862470Y-89759070D01*
X82878376Y-89744654D01*
X82895619Y-89731866D01*
X82914032Y-89720830D01*
X82933438Y-89711651D01*
X82953650Y-89704419D01*
X82974474Y-89699203D01*
X82995709Y-89696053D01*
X83017150Y-89695000D01*
X83454650Y-89695000D01*
X83476091Y-89696053D01*
G37*
%TD*%
D19*
%TO.C,U3*%
X84950400Y-93431000D03*
X86550400Y-91481000D03*
X86550400Y-92131000D03*
X86550400Y-92781000D03*
X84950400Y-91481000D03*
X84950400Y-92131000D03*
X84950400Y-92781000D03*
X86550400Y-93431000D03*
%TD*%
D10*
%TO.C,U1*%
G36*
X79451203Y-84460522D02*
G01*
X79465764Y-84462682D01*
X79480043Y-84466259D01*
X79493903Y-84471218D01*
X79507210Y-84477512D01*
X79519836Y-84485080D01*
X79531659Y-84493848D01*
X79542566Y-84503734D01*
X79552452Y-84514641D01*
X79561220Y-84526464D01*
X79568788Y-84539090D01*
X79575082Y-84552397D01*
X79580041Y-84566257D01*
X79583618Y-84580536D01*
X79585778Y-84595097D01*
X79586500Y-84609800D01*
X79586500Y-84909800D01*
X79585778Y-84924503D01*
X79583618Y-84939064D01*
X79580041Y-84953343D01*
X79575082Y-84967203D01*
X79568788Y-84980510D01*
X79561220Y-84993136D01*
X79552452Y-85004959D01*
X79542566Y-85015866D01*
X79531659Y-85025752D01*
X79519836Y-85034520D01*
X79507210Y-85042088D01*
X79493903Y-85048382D01*
X79480043Y-85053341D01*
X79465764Y-85056918D01*
X79451203Y-85059078D01*
X79436500Y-85059800D01*
X77786500Y-85059800D01*
X77771797Y-85059078D01*
X77757236Y-85056918D01*
X77742957Y-85053341D01*
X77729097Y-85048382D01*
X77715790Y-85042088D01*
X77703164Y-85034520D01*
X77691341Y-85025752D01*
X77680434Y-85015866D01*
X77670548Y-85004959D01*
X77661780Y-84993136D01*
X77654212Y-84980510D01*
X77647918Y-84967203D01*
X77642959Y-84953343D01*
X77639382Y-84939064D01*
X77637222Y-84924503D01*
X77636500Y-84909800D01*
X77636500Y-84609800D01*
X77637222Y-84595097D01*
X77639382Y-84580536D01*
X77642959Y-84566257D01*
X77647918Y-84552397D01*
X77654212Y-84539090D01*
X77661780Y-84526464D01*
X77670548Y-84514641D01*
X77680434Y-84503734D01*
X77691341Y-84493848D01*
X77703164Y-84485080D01*
X77715790Y-84477512D01*
X77729097Y-84471218D01*
X77742957Y-84466259D01*
X77757236Y-84462682D01*
X77771797Y-84460522D01*
X77786500Y-84459800D01*
X79436500Y-84459800D01*
X79451203Y-84460522D01*
G37*
G36*
X79451203Y-85730522D02*
G01*
X79465764Y-85732682D01*
X79480043Y-85736259D01*
X79493903Y-85741218D01*
X79507210Y-85747512D01*
X79519836Y-85755080D01*
X79531659Y-85763848D01*
X79542566Y-85773734D01*
X79552452Y-85784641D01*
X79561220Y-85796464D01*
X79568788Y-85809090D01*
X79575082Y-85822397D01*
X79580041Y-85836257D01*
X79583618Y-85850536D01*
X79585778Y-85865097D01*
X79586500Y-85879800D01*
X79586500Y-86179800D01*
X79585778Y-86194503D01*
X79583618Y-86209064D01*
X79580041Y-86223343D01*
X79575082Y-86237203D01*
X79568788Y-86250510D01*
X79561220Y-86263136D01*
X79552452Y-86274959D01*
X79542566Y-86285866D01*
X79531659Y-86295752D01*
X79519836Y-86304520D01*
X79507210Y-86312088D01*
X79493903Y-86318382D01*
X79480043Y-86323341D01*
X79465764Y-86326918D01*
X79451203Y-86329078D01*
X79436500Y-86329800D01*
X77786500Y-86329800D01*
X77771797Y-86329078D01*
X77757236Y-86326918D01*
X77742957Y-86323341D01*
X77729097Y-86318382D01*
X77715790Y-86312088D01*
X77703164Y-86304520D01*
X77691341Y-86295752D01*
X77680434Y-86285866D01*
X77670548Y-86274959D01*
X77661780Y-86263136D01*
X77654212Y-86250510D01*
X77647918Y-86237203D01*
X77642959Y-86223343D01*
X77639382Y-86209064D01*
X77637222Y-86194503D01*
X77636500Y-86179800D01*
X77636500Y-85879800D01*
X77637222Y-85865097D01*
X77639382Y-85850536D01*
X77642959Y-85836257D01*
X77647918Y-85822397D01*
X77654212Y-85809090D01*
X77661780Y-85796464D01*
X77670548Y-85784641D01*
X77680434Y-85773734D01*
X77691341Y-85763848D01*
X77703164Y-85755080D01*
X77715790Y-85747512D01*
X77729097Y-85741218D01*
X77742957Y-85736259D01*
X77757236Y-85732682D01*
X77771797Y-85730522D01*
X77786500Y-85729800D01*
X79436500Y-85729800D01*
X79451203Y-85730522D01*
G37*
G36*
X79451203Y-87000522D02*
G01*
X79465764Y-87002682D01*
X79480043Y-87006259D01*
X79493903Y-87011218D01*
X79507210Y-87017512D01*
X79519836Y-87025080D01*
X79531659Y-87033848D01*
X79542566Y-87043734D01*
X79552452Y-87054641D01*
X79561220Y-87066464D01*
X79568788Y-87079090D01*
X79575082Y-87092397D01*
X79580041Y-87106257D01*
X79583618Y-87120536D01*
X79585778Y-87135097D01*
X79586500Y-87149800D01*
X79586500Y-87449800D01*
X79585778Y-87464503D01*
X79583618Y-87479064D01*
X79580041Y-87493343D01*
X79575082Y-87507203D01*
X79568788Y-87520510D01*
X79561220Y-87533136D01*
X79552452Y-87544959D01*
X79542566Y-87555866D01*
X79531659Y-87565752D01*
X79519836Y-87574520D01*
X79507210Y-87582088D01*
X79493903Y-87588382D01*
X79480043Y-87593341D01*
X79465764Y-87596918D01*
X79451203Y-87599078D01*
X79436500Y-87599800D01*
X77786500Y-87599800D01*
X77771797Y-87599078D01*
X77757236Y-87596918D01*
X77742957Y-87593341D01*
X77729097Y-87588382D01*
X77715790Y-87582088D01*
X77703164Y-87574520D01*
X77691341Y-87565752D01*
X77680434Y-87555866D01*
X77670548Y-87544959D01*
X77661780Y-87533136D01*
X77654212Y-87520510D01*
X77647918Y-87507203D01*
X77642959Y-87493343D01*
X77639382Y-87479064D01*
X77637222Y-87464503D01*
X77636500Y-87449800D01*
X77636500Y-87149800D01*
X77637222Y-87135097D01*
X77639382Y-87120536D01*
X77642959Y-87106257D01*
X77647918Y-87092397D01*
X77654212Y-87079090D01*
X77661780Y-87066464D01*
X77670548Y-87054641D01*
X77680434Y-87043734D01*
X77691341Y-87033848D01*
X77703164Y-87025080D01*
X77715790Y-87017512D01*
X77729097Y-87011218D01*
X77742957Y-87006259D01*
X77757236Y-87002682D01*
X77771797Y-87000522D01*
X77786500Y-86999800D01*
X79436500Y-86999800D01*
X79451203Y-87000522D01*
G37*
G36*
X79451203Y-88270522D02*
G01*
X79465764Y-88272682D01*
X79480043Y-88276259D01*
X79493903Y-88281218D01*
X79507210Y-88287512D01*
X79519836Y-88295080D01*
X79531659Y-88303848D01*
X79542566Y-88313734D01*
X79552452Y-88324641D01*
X79561220Y-88336464D01*
X79568788Y-88349090D01*
X79575082Y-88362397D01*
X79580041Y-88376257D01*
X79583618Y-88390536D01*
X79585778Y-88405097D01*
X79586500Y-88419800D01*
X79586500Y-88719800D01*
X79585778Y-88734503D01*
X79583618Y-88749064D01*
X79580041Y-88763343D01*
X79575082Y-88777203D01*
X79568788Y-88790510D01*
X79561220Y-88803136D01*
X79552452Y-88814959D01*
X79542566Y-88825866D01*
X79531659Y-88835752D01*
X79519836Y-88844520D01*
X79507210Y-88852088D01*
X79493903Y-88858382D01*
X79480043Y-88863341D01*
X79465764Y-88866918D01*
X79451203Y-88869078D01*
X79436500Y-88869800D01*
X77786500Y-88869800D01*
X77771797Y-88869078D01*
X77757236Y-88866918D01*
X77742957Y-88863341D01*
X77729097Y-88858382D01*
X77715790Y-88852088D01*
X77703164Y-88844520D01*
X77691341Y-88835752D01*
X77680434Y-88825866D01*
X77670548Y-88814959D01*
X77661780Y-88803136D01*
X77654212Y-88790510D01*
X77647918Y-88777203D01*
X77642959Y-88763343D01*
X77639382Y-88749064D01*
X77637222Y-88734503D01*
X77636500Y-88719800D01*
X77636500Y-88419800D01*
X77637222Y-88405097D01*
X77639382Y-88390536D01*
X77642959Y-88376257D01*
X77647918Y-88362397D01*
X77654212Y-88349090D01*
X77661780Y-88336464D01*
X77670548Y-88324641D01*
X77680434Y-88313734D01*
X77691341Y-88303848D01*
X77703164Y-88295080D01*
X77715790Y-88287512D01*
X77729097Y-88281218D01*
X77742957Y-88276259D01*
X77757236Y-88272682D01*
X77771797Y-88270522D01*
X77786500Y-88269800D01*
X79436500Y-88269800D01*
X79451203Y-88270522D01*
G37*
G36*
X74501203Y-88270522D02*
G01*
X74515764Y-88272682D01*
X74530043Y-88276259D01*
X74543903Y-88281218D01*
X74557210Y-88287512D01*
X74569836Y-88295080D01*
X74581659Y-88303848D01*
X74592566Y-88313734D01*
X74602452Y-88324641D01*
X74611220Y-88336464D01*
X74618788Y-88349090D01*
X74625082Y-88362397D01*
X74630041Y-88376257D01*
X74633618Y-88390536D01*
X74635778Y-88405097D01*
X74636500Y-88419800D01*
X74636500Y-88719800D01*
X74635778Y-88734503D01*
X74633618Y-88749064D01*
X74630041Y-88763343D01*
X74625082Y-88777203D01*
X74618788Y-88790510D01*
X74611220Y-88803136D01*
X74602452Y-88814959D01*
X74592566Y-88825866D01*
X74581659Y-88835752D01*
X74569836Y-88844520D01*
X74557210Y-88852088D01*
X74543903Y-88858382D01*
X74530043Y-88863341D01*
X74515764Y-88866918D01*
X74501203Y-88869078D01*
X74486500Y-88869800D01*
X72836500Y-88869800D01*
X72821797Y-88869078D01*
X72807236Y-88866918D01*
X72792957Y-88863341D01*
X72779097Y-88858382D01*
X72765790Y-88852088D01*
X72753164Y-88844520D01*
X72741341Y-88835752D01*
X72730434Y-88825866D01*
X72720548Y-88814959D01*
X72711780Y-88803136D01*
X72704212Y-88790510D01*
X72697918Y-88777203D01*
X72692959Y-88763343D01*
X72689382Y-88749064D01*
X72687222Y-88734503D01*
X72686500Y-88719800D01*
X72686500Y-88419800D01*
X72687222Y-88405097D01*
X72689382Y-88390536D01*
X72692959Y-88376257D01*
X72697918Y-88362397D01*
X72704212Y-88349090D01*
X72711780Y-88336464D01*
X72720548Y-88324641D01*
X72730434Y-88313734D01*
X72741341Y-88303848D01*
X72753164Y-88295080D01*
X72765790Y-88287512D01*
X72779097Y-88281218D01*
X72792957Y-88276259D01*
X72807236Y-88272682D01*
X72821797Y-88270522D01*
X72836500Y-88269800D01*
X74486500Y-88269800D01*
X74501203Y-88270522D01*
G37*
G36*
X74501203Y-87000522D02*
G01*
X74515764Y-87002682D01*
X74530043Y-87006259D01*
X74543903Y-87011218D01*
X74557210Y-87017512D01*
X74569836Y-87025080D01*
X74581659Y-87033848D01*
X74592566Y-87043734D01*
X74602452Y-87054641D01*
X74611220Y-87066464D01*
X74618788Y-87079090D01*
X74625082Y-87092397D01*
X74630041Y-87106257D01*
X74633618Y-87120536D01*
X74635778Y-87135097D01*
X74636500Y-87149800D01*
X74636500Y-87449800D01*
X74635778Y-87464503D01*
X74633618Y-87479064D01*
X74630041Y-87493343D01*
X74625082Y-87507203D01*
X74618788Y-87520510D01*
X74611220Y-87533136D01*
X74602452Y-87544959D01*
X74592566Y-87555866D01*
X74581659Y-87565752D01*
X74569836Y-87574520D01*
X74557210Y-87582088D01*
X74543903Y-87588382D01*
X74530043Y-87593341D01*
X74515764Y-87596918D01*
X74501203Y-87599078D01*
X74486500Y-87599800D01*
X72836500Y-87599800D01*
X72821797Y-87599078D01*
X72807236Y-87596918D01*
X72792957Y-87593341D01*
X72779097Y-87588382D01*
X72765790Y-87582088D01*
X72753164Y-87574520D01*
X72741341Y-87565752D01*
X72730434Y-87555866D01*
X72720548Y-87544959D01*
X72711780Y-87533136D01*
X72704212Y-87520510D01*
X72697918Y-87507203D01*
X72692959Y-87493343D01*
X72689382Y-87479064D01*
X72687222Y-87464503D01*
X72686500Y-87449800D01*
X72686500Y-87149800D01*
X72687222Y-87135097D01*
X72689382Y-87120536D01*
X72692959Y-87106257D01*
X72697918Y-87092397D01*
X72704212Y-87079090D01*
X72711780Y-87066464D01*
X72720548Y-87054641D01*
X72730434Y-87043734D01*
X72741341Y-87033848D01*
X72753164Y-87025080D01*
X72765790Y-87017512D01*
X72779097Y-87011218D01*
X72792957Y-87006259D01*
X72807236Y-87002682D01*
X72821797Y-87000522D01*
X72836500Y-86999800D01*
X74486500Y-86999800D01*
X74501203Y-87000522D01*
G37*
G36*
X74501203Y-85730522D02*
G01*
X74515764Y-85732682D01*
X74530043Y-85736259D01*
X74543903Y-85741218D01*
X74557210Y-85747512D01*
X74569836Y-85755080D01*
X74581659Y-85763848D01*
X74592566Y-85773734D01*
X74602452Y-85784641D01*
X74611220Y-85796464D01*
X74618788Y-85809090D01*
X74625082Y-85822397D01*
X74630041Y-85836257D01*
X74633618Y-85850536D01*
X74635778Y-85865097D01*
X74636500Y-85879800D01*
X74636500Y-86179800D01*
X74635778Y-86194503D01*
X74633618Y-86209064D01*
X74630041Y-86223343D01*
X74625082Y-86237203D01*
X74618788Y-86250510D01*
X74611220Y-86263136D01*
X74602452Y-86274959D01*
X74592566Y-86285866D01*
X74581659Y-86295752D01*
X74569836Y-86304520D01*
X74557210Y-86312088D01*
X74543903Y-86318382D01*
X74530043Y-86323341D01*
X74515764Y-86326918D01*
X74501203Y-86329078D01*
X74486500Y-86329800D01*
X72836500Y-86329800D01*
X72821797Y-86329078D01*
X72807236Y-86326918D01*
X72792957Y-86323341D01*
X72779097Y-86318382D01*
X72765790Y-86312088D01*
X72753164Y-86304520D01*
X72741341Y-86295752D01*
X72730434Y-86285866D01*
X72720548Y-86274959D01*
X72711780Y-86263136D01*
X72704212Y-86250510D01*
X72697918Y-86237203D01*
X72692959Y-86223343D01*
X72689382Y-86209064D01*
X72687222Y-86194503D01*
X72686500Y-86179800D01*
X72686500Y-85879800D01*
X72687222Y-85865097D01*
X72689382Y-85850536D01*
X72692959Y-85836257D01*
X72697918Y-85822397D01*
X72704212Y-85809090D01*
X72711780Y-85796464D01*
X72720548Y-85784641D01*
X72730434Y-85773734D01*
X72741341Y-85763848D01*
X72753164Y-85755080D01*
X72765790Y-85747512D01*
X72779097Y-85741218D01*
X72792957Y-85736259D01*
X72807236Y-85732682D01*
X72821797Y-85730522D01*
X72836500Y-85729800D01*
X74486500Y-85729800D01*
X74501203Y-85730522D01*
G37*
G36*
X74501203Y-84460522D02*
G01*
X74515764Y-84462682D01*
X74530043Y-84466259D01*
X74543903Y-84471218D01*
X74557210Y-84477512D01*
X74569836Y-84485080D01*
X74581659Y-84493848D01*
X74592566Y-84503734D01*
X74602452Y-84514641D01*
X74611220Y-84526464D01*
X74618788Y-84539090D01*
X74625082Y-84552397D01*
X74630041Y-84566257D01*
X74633618Y-84580536D01*
X74635778Y-84595097D01*
X74636500Y-84609800D01*
X74636500Y-84909800D01*
X74635778Y-84924503D01*
X74633618Y-84939064D01*
X74630041Y-84953343D01*
X74625082Y-84967203D01*
X74618788Y-84980510D01*
X74611220Y-84993136D01*
X74602452Y-85004959D01*
X74592566Y-85015866D01*
X74581659Y-85025752D01*
X74569836Y-85034520D01*
X74557210Y-85042088D01*
X74543903Y-85048382D01*
X74530043Y-85053341D01*
X74515764Y-85056918D01*
X74501203Y-85059078D01*
X74486500Y-85059800D01*
X72836500Y-85059800D01*
X72821797Y-85059078D01*
X72807236Y-85056918D01*
X72792957Y-85053341D01*
X72779097Y-85048382D01*
X72765790Y-85042088D01*
X72753164Y-85034520D01*
X72741341Y-85025752D01*
X72730434Y-85015866D01*
X72720548Y-85004959D01*
X72711780Y-84993136D01*
X72704212Y-84980510D01*
X72697918Y-84967203D01*
X72692959Y-84953343D01*
X72689382Y-84939064D01*
X72687222Y-84924503D01*
X72686500Y-84909800D01*
X72686500Y-84609800D01*
X72687222Y-84595097D01*
X72689382Y-84580536D01*
X72692959Y-84566257D01*
X72697918Y-84552397D01*
X72704212Y-84539090D01*
X72711780Y-84526464D01*
X72720548Y-84514641D01*
X72730434Y-84503734D01*
X72741341Y-84493848D01*
X72753164Y-84485080D01*
X72765790Y-84477512D01*
X72779097Y-84471218D01*
X72792957Y-84466259D01*
X72807236Y-84462682D01*
X72821797Y-84460522D01*
X72836500Y-84459800D01*
X74486500Y-84459800D01*
X74501203Y-84460522D01*
G37*
%TD*%
D20*
%TO.C,U6*%
X79283200Y-110912400D03*
X79283200Y-111412400D03*
X79283200Y-111912400D03*
X79283200Y-112412400D03*
X79283200Y-112912400D03*
X83683200Y-112912400D03*
X83683200Y-112412400D03*
X83683200Y-111912400D03*
X83683200Y-111412400D03*
X83683200Y-110912400D03*
%TD*%
D15*
%TO.C,U11*%
X72374800Y-109136000D03*
X71424800Y-109136000D03*
X70474800Y-109136000D03*
X70474800Y-111336000D03*
X72374800Y-111336000D03*
%TD*%
D10*
%TO.C,R11*%
G36*
X90054591Y-91169253D02*
G01*
X90075826Y-91172403D01*
X90096650Y-91177619D01*
X90116862Y-91184851D01*
X90136268Y-91194030D01*
X90154681Y-91205066D01*
X90171924Y-91217854D01*
X90187830Y-91232270D01*
X90202246Y-91248176D01*
X90215034Y-91265419D01*
X90226070Y-91283832D01*
X90235249Y-91303238D01*
X90242481Y-91323450D01*
X90247697Y-91344274D01*
X90250847Y-91365509D01*
X90251900Y-91386950D01*
X90251900Y-91899450D01*
X90250847Y-91920891D01*
X90247697Y-91942126D01*
X90242481Y-91962950D01*
X90235249Y-91983162D01*
X90226070Y-92002568D01*
X90215034Y-92020981D01*
X90202246Y-92038224D01*
X90187830Y-92054130D01*
X90171924Y-92068546D01*
X90154681Y-92081334D01*
X90136268Y-92092370D01*
X90116862Y-92101549D01*
X90096650Y-92108781D01*
X90075826Y-92113997D01*
X90054591Y-92117147D01*
X90033150Y-92118200D01*
X89595650Y-92118200D01*
X89574209Y-92117147D01*
X89552974Y-92113997D01*
X89532150Y-92108781D01*
X89511938Y-92101549D01*
X89492532Y-92092370D01*
X89474119Y-92081334D01*
X89456876Y-92068546D01*
X89440970Y-92054130D01*
X89426554Y-92038224D01*
X89413766Y-92020981D01*
X89402730Y-92002568D01*
X89393551Y-91983162D01*
X89386319Y-91962950D01*
X89381103Y-91942126D01*
X89377953Y-91920891D01*
X89376900Y-91899450D01*
X89376900Y-91386950D01*
X89377953Y-91365509D01*
X89381103Y-91344274D01*
X89386319Y-91323450D01*
X89393551Y-91303238D01*
X89402730Y-91283832D01*
X89413766Y-91265419D01*
X89426554Y-91248176D01*
X89440970Y-91232270D01*
X89456876Y-91217854D01*
X89474119Y-91205066D01*
X89492532Y-91194030D01*
X89511938Y-91184851D01*
X89532150Y-91177619D01*
X89552974Y-91172403D01*
X89574209Y-91169253D01*
X89595650Y-91168200D01*
X90033150Y-91168200D01*
X90054591Y-91169253D01*
G37*
G36*
X88479591Y-91169253D02*
G01*
X88500826Y-91172403D01*
X88521650Y-91177619D01*
X88541862Y-91184851D01*
X88561268Y-91194030D01*
X88579681Y-91205066D01*
X88596924Y-91217854D01*
X88612830Y-91232270D01*
X88627246Y-91248176D01*
X88640034Y-91265419D01*
X88651070Y-91283832D01*
X88660249Y-91303238D01*
X88667481Y-91323450D01*
X88672697Y-91344274D01*
X88675847Y-91365509D01*
X88676900Y-91386950D01*
X88676900Y-91899450D01*
X88675847Y-91920891D01*
X88672697Y-91942126D01*
X88667481Y-91962950D01*
X88660249Y-91983162D01*
X88651070Y-92002568D01*
X88640034Y-92020981D01*
X88627246Y-92038224D01*
X88612830Y-92054130D01*
X88596924Y-92068546D01*
X88579681Y-92081334D01*
X88561268Y-92092370D01*
X88541862Y-92101549D01*
X88521650Y-92108781D01*
X88500826Y-92113997D01*
X88479591Y-92117147D01*
X88458150Y-92118200D01*
X88020650Y-92118200D01*
X87999209Y-92117147D01*
X87977974Y-92113997D01*
X87957150Y-92108781D01*
X87936938Y-92101549D01*
X87917532Y-92092370D01*
X87899119Y-92081334D01*
X87881876Y-92068546D01*
X87865970Y-92054130D01*
X87851554Y-92038224D01*
X87838766Y-92020981D01*
X87827730Y-92002568D01*
X87818551Y-91983162D01*
X87811319Y-91962950D01*
X87806103Y-91942126D01*
X87802953Y-91920891D01*
X87801900Y-91899450D01*
X87801900Y-91386950D01*
X87802953Y-91365509D01*
X87806103Y-91344274D01*
X87811319Y-91323450D01*
X87818551Y-91303238D01*
X87827730Y-91283832D01*
X87838766Y-91265419D01*
X87851554Y-91248176D01*
X87865970Y-91232270D01*
X87881876Y-91217854D01*
X87899119Y-91205066D01*
X87917532Y-91194030D01*
X87936938Y-91184851D01*
X87957150Y-91177619D01*
X87977974Y-91172403D01*
X87999209Y-91169253D01*
X88020650Y-91168200D01*
X88458150Y-91168200D01*
X88479591Y-91169253D01*
G37*
%TD*%
%TO.C,R10*%
G36*
X62698691Y-91169253D02*
G01*
X62719926Y-91172403D01*
X62740750Y-91177619D01*
X62760962Y-91184851D01*
X62780368Y-91194030D01*
X62798781Y-91205066D01*
X62816024Y-91217854D01*
X62831930Y-91232270D01*
X62846346Y-91248176D01*
X62859134Y-91265419D01*
X62870170Y-91283832D01*
X62879349Y-91303238D01*
X62886581Y-91323450D01*
X62891797Y-91344274D01*
X62894947Y-91365509D01*
X62896000Y-91386950D01*
X62896000Y-91899450D01*
X62894947Y-91920891D01*
X62891797Y-91942126D01*
X62886581Y-91962950D01*
X62879349Y-91983162D01*
X62870170Y-92002568D01*
X62859134Y-92020981D01*
X62846346Y-92038224D01*
X62831930Y-92054130D01*
X62816024Y-92068546D01*
X62798781Y-92081334D01*
X62780368Y-92092370D01*
X62760962Y-92101549D01*
X62740750Y-92108781D01*
X62719926Y-92113997D01*
X62698691Y-92117147D01*
X62677250Y-92118200D01*
X62239750Y-92118200D01*
X62218309Y-92117147D01*
X62197074Y-92113997D01*
X62176250Y-92108781D01*
X62156038Y-92101549D01*
X62136632Y-92092370D01*
X62118219Y-92081334D01*
X62100976Y-92068546D01*
X62085070Y-92054130D01*
X62070654Y-92038224D01*
X62057866Y-92020981D01*
X62046830Y-92002568D01*
X62037651Y-91983162D01*
X62030419Y-91962950D01*
X62025203Y-91942126D01*
X62022053Y-91920891D01*
X62021000Y-91899450D01*
X62021000Y-91386950D01*
X62022053Y-91365509D01*
X62025203Y-91344274D01*
X62030419Y-91323450D01*
X62037651Y-91303238D01*
X62046830Y-91283832D01*
X62057866Y-91265419D01*
X62070654Y-91248176D01*
X62085070Y-91232270D01*
X62100976Y-91217854D01*
X62118219Y-91205066D01*
X62136632Y-91194030D01*
X62156038Y-91184851D01*
X62176250Y-91177619D01*
X62197074Y-91172403D01*
X62218309Y-91169253D01*
X62239750Y-91168200D01*
X62677250Y-91168200D01*
X62698691Y-91169253D01*
G37*
G36*
X64273691Y-91169253D02*
G01*
X64294926Y-91172403D01*
X64315750Y-91177619D01*
X64335962Y-91184851D01*
X64355368Y-91194030D01*
X64373781Y-91205066D01*
X64391024Y-91217854D01*
X64406930Y-91232270D01*
X64421346Y-91248176D01*
X64434134Y-91265419D01*
X64445170Y-91283832D01*
X64454349Y-91303238D01*
X64461581Y-91323450D01*
X64466797Y-91344274D01*
X64469947Y-91365509D01*
X64471000Y-91386950D01*
X64471000Y-91899450D01*
X64469947Y-91920891D01*
X64466797Y-91942126D01*
X64461581Y-91962950D01*
X64454349Y-91983162D01*
X64445170Y-92002568D01*
X64434134Y-92020981D01*
X64421346Y-92038224D01*
X64406930Y-92054130D01*
X64391024Y-92068546D01*
X64373781Y-92081334D01*
X64355368Y-92092370D01*
X64335962Y-92101549D01*
X64315750Y-92108781D01*
X64294926Y-92113997D01*
X64273691Y-92117147D01*
X64252250Y-92118200D01*
X63814750Y-92118200D01*
X63793309Y-92117147D01*
X63772074Y-92113997D01*
X63751250Y-92108781D01*
X63731038Y-92101549D01*
X63711632Y-92092370D01*
X63693219Y-92081334D01*
X63675976Y-92068546D01*
X63660070Y-92054130D01*
X63645654Y-92038224D01*
X63632866Y-92020981D01*
X63621830Y-92002568D01*
X63612651Y-91983162D01*
X63605419Y-91962950D01*
X63600203Y-91942126D01*
X63597053Y-91920891D01*
X63596000Y-91899450D01*
X63596000Y-91386950D01*
X63597053Y-91365509D01*
X63600203Y-91344274D01*
X63605419Y-91323450D01*
X63612651Y-91303238D01*
X63621830Y-91283832D01*
X63632866Y-91265419D01*
X63645654Y-91248176D01*
X63660070Y-91232270D01*
X63675976Y-91217854D01*
X63693219Y-91205066D01*
X63711632Y-91194030D01*
X63731038Y-91184851D01*
X63751250Y-91177619D01*
X63772074Y-91172403D01*
X63793309Y-91169253D01*
X63814750Y-91168200D01*
X64252250Y-91168200D01*
X64273691Y-91169253D01*
G37*
%TD*%
%TO.C,R14*%
G36*
X70064691Y-101684853D02*
G01*
X70085926Y-101688003D01*
X70106750Y-101693219D01*
X70126962Y-101700451D01*
X70146368Y-101709630D01*
X70164781Y-101720666D01*
X70182024Y-101733454D01*
X70197930Y-101747870D01*
X70212346Y-101763776D01*
X70225134Y-101781019D01*
X70236170Y-101799432D01*
X70245349Y-101818838D01*
X70252581Y-101839050D01*
X70257797Y-101859874D01*
X70260947Y-101881109D01*
X70262000Y-101902550D01*
X70262000Y-102415050D01*
X70260947Y-102436491D01*
X70257797Y-102457726D01*
X70252581Y-102478550D01*
X70245349Y-102498762D01*
X70236170Y-102518168D01*
X70225134Y-102536581D01*
X70212346Y-102553824D01*
X70197930Y-102569730D01*
X70182024Y-102584146D01*
X70164781Y-102596934D01*
X70146368Y-102607970D01*
X70126962Y-102617149D01*
X70106750Y-102624381D01*
X70085926Y-102629597D01*
X70064691Y-102632747D01*
X70043250Y-102633800D01*
X69605750Y-102633800D01*
X69584309Y-102632747D01*
X69563074Y-102629597D01*
X69542250Y-102624381D01*
X69522038Y-102617149D01*
X69502632Y-102607970D01*
X69484219Y-102596934D01*
X69466976Y-102584146D01*
X69451070Y-102569730D01*
X69436654Y-102553824D01*
X69423866Y-102536581D01*
X69412830Y-102518168D01*
X69403651Y-102498762D01*
X69396419Y-102478550D01*
X69391203Y-102457726D01*
X69388053Y-102436491D01*
X69387000Y-102415050D01*
X69387000Y-101902550D01*
X69388053Y-101881109D01*
X69391203Y-101859874D01*
X69396419Y-101839050D01*
X69403651Y-101818838D01*
X69412830Y-101799432D01*
X69423866Y-101781019D01*
X69436654Y-101763776D01*
X69451070Y-101747870D01*
X69466976Y-101733454D01*
X69484219Y-101720666D01*
X69502632Y-101709630D01*
X69522038Y-101700451D01*
X69542250Y-101693219D01*
X69563074Y-101688003D01*
X69584309Y-101684853D01*
X69605750Y-101683800D01*
X70043250Y-101683800D01*
X70064691Y-101684853D01*
G37*
G36*
X71639691Y-101684853D02*
G01*
X71660926Y-101688003D01*
X71681750Y-101693219D01*
X71701962Y-101700451D01*
X71721368Y-101709630D01*
X71739781Y-101720666D01*
X71757024Y-101733454D01*
X71772930Y-101747870D01*
X71787346Y-101763776D01*
X71800134Y-101781019D01*
X71811170Y-101799432D01*
X71820349Y-101818838D01*
X71827581Y-101839050D01*
X71832797Y-101859874D01*
X71835947Y-101881109D01*
X71837000Y-101902550D01*
X71837000Y-102415050D01*
X71835947Y-102436491D01*
X71832797Y-102457726D01*
X71827581Y-102478550D01*
X71820349Y-102498762D01*
X71811170Y-102518168D01*
X71800134Y-102536581D01*
X71787346Y-102553824D01*
X71772930Y-102569730D01*
X71757024Y-102584146D01*
X71739781Y-102596934D01*
X71721368Y-102607970D01*
X71701962Y-102617149D01*
X71681750Y-102624381D01*
X71660926Y-102629597D01*
X71639691Y-102632747D01*
X71618250Y-102633800D01*
X71180750Y-102633800D01*
X71159309Y-102632747D01*
X71138074Y-102629597D01*
X71117250Y-102624381D01*
X71097038Y-102617149D01*
X71077632Y-102607970D01*
X71059219Y-102596934D01*
X71041976Y-102584146D01*
X71026070Y-102569730D01*
X71011654Y-102553824D01*
X70998866Y-102536581D01*
X70987830Y-102518168D01*
X70978651Y-102498762D01*
X70971419Y-102478550D01*
X70966203Y-102457726D01*
X70963053Y-102436491D01*
X70962000Y-102415050D01*
X70962000Y-101902550D01*
X70963053Y-101881109D01*
X70966203Y-101859874D01*
X70971419Y-101839050D01*
X70978651Y-101818838D01*
X70987830Y-101799432D01*
X70998866Y-101781019D01*
X71011654Y-101763776D01*
X71026070Y-101747870D01*
X71041976Y-101733454D01*
X71059219Y-101720666D01*
X71077632Y-101709630D01*
X71097038Y-101700451D01*
X71117250Y-101693219D01*
X71138074Y-101688003D01*
X71159309Y-101684853D01*
X71180750Y-101683800D01*
X71618250Y-101683800D01*
X71639691Y-101684853D01*
G37*
%TD*%
%TO.C,R4*%
G36*
X87336891Y-109635053D02*
G01*
X87358126Y-109638203D01*
X87378950Y-109643419D01*
X87399162Y-109650651D01*
X87418568Y-109659830D01*
X87436981Y-109670866D01*
X87454224Y-109683654D01*
X87470130Y-109698070D01*
X87484546Y-109713976D01*
X87497334Y-109731219D01*
X87508370Y-109749632D01*
X87517549Y-109769038D01*
X87524781Y-109789250D01*
X87529997Y-109810074D01*
X87533147Y-109831309D01*
X87534200Y-109852750D01*
X87534200Y-110365250D01*
X87533147Y-110386691D01*
X87529997Y-110407926D01*
X87524781Y-110428750D01*
X87517549Y-110448962D01*
X87508370Y-110468368D01*
X87497334Y-110486781D01*
X87484546Y-110504024D01*
X87470130Y-110519930D01*
X87454224Y-110534346D01*
X87436981Y-110547134D01*
X87418568Y-110558170D01*
X87399162Y-110567349D01*
X87378950Y-110574581D01*
X87358126Y-110579797D01*
X87336891Y-110582947D01*
X87315450Y-110584000D01*
X86877950Y-110584000D01*
X86856509Y-110582947D01*
X86835274Y-110579797D01*
X86814450Y-110574581D01*
X86794238Y-110567349D01*
X86774832Y-110558170D01*
X86756419Y-110547134D01*
X86739176Y-110534346D01*
X86723270Y-110519930D01*
X86708854Y-110504024D01*
X86696066Y-110486781D01*
X86685030Y-110468368D01*
X86675851Y-110448962D01*
X86668619Y-110428750D01*
X86663403Y-110407926D01*
X86660253Y-110386691D01*
X86659200Y-110365250D01*
X86659200Y-109852750D01*
X86660253Y-109831309D01*
X86663403Y-109810074D01*
X86668619Y-109789250D01*
X86675851Y-109769038D01*
X86685030Y-109749632D01*
X86696066Y-109731219D01*
X86708854Y-109713976D01*
X86723270Y-109698070D01*
X86739176Y-109683654D01*
X86756419Y-109670866D01*
X86774832Y-109659830D01*
X86794238Y-109650651D01*
X86814450Y-109643419D01*
X86835274Y-109638203D01*
X86856509Y-109635053D01*
X86877950Y-109634000D01*
X87315450Y-109634000D01*
X87336891Y-109635053D01*
G37*
G36*
X85761891Y-109635053D02*
G01*
X85783126Y-109638203D01*
X85803950Y-109643419D01*
X85824162Y-109650651D01*
X85843568Y-109659830D01*
X85861981Y-109670866D01*
X85879224Y-109683654D01*
X85895130Y-109698070D01*
X85909546Y-109713976D01*
X85922334Y-109731219D01*
X85933370Y-109749632D01*
X85942549Y-109769038D01*
X85949781Y-109789250D01*
X85954997Y-109810074D01*
X85958147Y-109831309D01*
X85959200Y-109852750D01*
X85959200Y-110365250D01*
X85958147Y-110386691D01*
X85954997Y-110407926D01*
X85949781Y-110428750D01*
X85942549Y-110448962D01*
X85933370Y-110468368D01*
X85922334Y-110486781D01*
X85909546Y-110504024D01*
X85895130Y-110519930D01*
X85879224Y-110534346D01*
X85861981Y-110547134D01*
X85843568Y-110558170D01*
X85824162Y-110567349D01*
X85803950Y-110574581D01*
X85783126Y-110579797D01*
X85761891Y-110582947D01*
X85740450Y-110584000D01*
X85302950Y-110584000D01*
X85281509Y-110582947D01*
X85260274Y-110579797D01*
X85239450Y-110574581D01*
X85219238Y-110567349D01*
X85199832Y-110558170D01*
X85181419Y-110547134D01*
X85164176Y-110534346D01*
X85148270Y-110519930D01*
X85133854Y-110504024D01*
X85121066Y-110486781D01*
X85110030Y-110468368D01*
X85100851Y-110448962D01*
X85093619Y-110428750D01*
X85088403Y-110407926D01*
X85085253Y-110386691D01*
X85084200Y-110365250D01*
X85084200Y-109852750D01*
X85085253Y-109831309D01*
X85088403Y-109810074D01*
X85093619Y-109789250D01*
X85100851Y-109769038D01*
X85110030Y-109749632D01*
X85121066Y-109731219D01*
X85133854Y-109713976D01*
X85148270Y-109698070D01*
X85164176Y-109683654D01*
X85181419Y-109670866D01*
X85199832Y-109659830D01*
X85219238Y-109650651D01*
X85239450Y-109643419D01*
X85260274Y-109638203D01*
X85281509Y-109635053D01*
X85302950Y-109634000D01*
X85740450Y-109634000D01*
X85761891Y-109635053D01*
G37*
%TD*%
%TO.C,R15*%
G36*
X66978591Y-106968053D02*
G01*
X66999826Y-106971203D01*
X67020650Y-106976419D01*
X67040862Y-106983651D01*
X67060268Y-106992830D01*
X67078681Y-107003866D01*
X67095924Y-107016654D01*
X67111830Y-107031070D01*
X67126246Y-107046976D01*
X67139034Y-107064219D01*
X67150070Y-107082632D01*
X67159249Y-107102038D01*
X67166481Y-107122250D01*
X67171697Y-107143074D01*
X67174847Y-107164309D01*
X67175900Y-107185750D01*
X67175900Y-107698250D01*
X67174847Y-107719691D01*
X67171697Y-107740926D01*
X67166481Y-107761750D01*
X67159249Y-107781962D01*
X67150070Y-107801368D01*
X67139034Y-107819781D01*
X67126246Y-107837024D01*
X67111830Y-107852930D01*
X67095924Y-107867346D01*
X67078681Y-107880134D01*
X67060268Y-107891170D01*
X67040862Y-107900349D01*
X67020650Y-107907581D01*
X66999826Y-107912797D01*
X66978591Y-107915947D01*
X66957150Y-107917000D01*
X66519650Y-107917000D01*
X66498209Y-107915947D01*
X66476974Y-107912797D01*
X66456150Y-107907581D01*
X66435938Y-107900349D01*
X66416532Y-107891170D01*
X66398119Y-107880134D01*
X66380876Y-107867346D01*
X66364970Y-107852930D01*
X66350554Y-107837024D01*
X66337766Y-107819781D01*
X66326730Y-107801368D01*
X66317551Y-107781962D01*
X66310319Y-107761750D01*
X66305103Y-107740926D01*
X66301953Y-107719691D01*
X66300900Y-107698250D01*
X66300900Y-107185750D01*
X66301953Y-107164309D01*
X66305103Y-107143074D01*
X66310319Y-107122250D01*
X66317551Y-107102038D01*
X66326730Y-107082632D01*
X66337766Y-107064219D01*
X66350554Y-107046976D01*
X66364970Y-107031070D01*
X66380876Y-107016654D01*
X66398119Y-107003866D01*
X66416532Y-106992830D01*
X66435938Y-106983651D01*
X66456150Y-106976419D01*
X66476974Y-106971203D01*
X66498209Y-106968053D01*
X66519650Y-106967000D01*
X66957150Y-106967000D01*
X66978591Y-106968053D01*
G37*
G36*
X68553591Y-106968053D02*
G01*
X68574826Y-106971203D01*
X68595650Y-106976419D01*
X68615862Y-106983651D01*
X68635268Y-106992830D01*
X68653681Y-107003866D01*
X68670924Y-107016654D01*
X68686830Y-107031070D01*
X68701246Y-107046976D01*
X68714034Y-107064219D01*
X68725070Y-107082632D01*
X68734249Y-107102038D01*
X68741481Y-107122250D01*
X68746697Y-107143074D01*
X68749847Y-107164309D01*
X68750900Y-107185750D01*
X68750900Y-107698250D01*
X68749847Y-107719691D01*
X68746697Y-107740926D01*
X68741481Y-107761750D01*
X68734249Y-107781962D01*
X68725070Y-107801368D01*
X68714034Y-107819781D01*
X68701246Y-107837024D01*
X68686830Y-107852930D01*
X68670924Y-107867346D01*
X68653681Y-107880134D01*
X68635268Y-107891170D01*
X68615862Y-107900349D01*
X68595650Y-107907581D01*
X68574826Y-107912797D01*
X68553591Y-107915947D01*
X68532150Y-107917000D01*
X68094650Y-107917000D01*
X68073209Y-107915947D01*
X68051974Y-107912797D01*
X68031150Y-107907581D01*
X68010938Y-107900349D01*
X67991532Y-107891170D01*
X67973119Y-107880134D01*
X67955876Y-107867346D01*
X67939970Y-107852930D01*
X67925554Y-107837024D01*
X67912766Y-107819781D01*
X67901730Y-107801368D01*
X67892551Y-107781962D01*
X67885319Y-107761750D01*
X67880103Y-107740926D01*
X67876953Y-107719691D01*
X67875900Y-107698250D01*
X67875900Y-107185750D01*
X67876953Y-107164309D01*
X67880103Y-107143074D01*
X67885319Y-107122250D01*
X67892551Y-107102038D01*
X67901730Y-107082632D01*
X67912766Y-107064219D01*
X67925554Y-107046976D01*
X67939970Y-107031070D01*
X67955876Y-107016654D01*
X67973119Y-107003866D01*
X67991532Y-106992830D01*
X68010938Y-106983651D01*
X68031150Y-106976419D01*
X68051974Y-106971203D01*
X68073209Y-106968053D01*
X68094650Y-106967000D01*
X68532150Y-106967000D01*
X68553591Y-106968053D01*
G37*
%TD*%
%TO.C,R13*%
G36*
X68591691Y-111032053D02*
G01*
X68612926Y-111035203D01*
X68633750Y-111040419D01*
X68653962Y-111047651D01*
X68673368Y-111056830D01*
X68691781Y-111067866D01*
X68709024Y-111080654D01*
X68724930Y-111095070D01*
X68739346Y-111110976D01*
X68752134Y-111128219D01*
X68763170Y-111146632D01*
X68772349Y-111166038D01*
X68779581Y-111186250D01*
X68784797Y-111207074D01*
X68787947Y-111228309D01*
X68789000Y-111249750D01*
X68789000Y-111762250D01*
X68787947Y-111783691D01*
X68784797Y-111804926D01*
X68779581Y-111825750D01*
X68772349Y-111845962D01*
X68763170Y-111865368D01*
X68752134Y-111883781D01*
X68739346Y-111901024D01*
X68724930Y-111916930D01*
X68709024Y-111931346D01*
X68691781Y-111944134D01*
X68673368Y-111955170D01*
X68653962Y-111964349D01*
X68633750Y-111971581D01*
X68612926Y-111976797D01*
X68591691Y-111979947D01*
X68570250Y-111981000D01*
X68132750Y-111981000D01*
X68111309Y-111979947D01*
X68090074Y-111976797D01*
X68069250Y-111971581D01*
X68049038Y-111964349D01*
X68029632Y-111955170D01*
X68011219Y-111944134D01*
X67993976Y-111931346D01*
X67978070Y-111916930D01*
X67963654Y-111901024D01*
X67950866Y-111883781D01*
X67939830Y-111865368D01*
X67930651Y-111845962D01*
X67923419Y-111825750D01*
X67918203Y-111804926D01*
X67915053Y-111783691D01*
X67914000Y-111762250D01*
X67914000Y-111249750D01*
X67915053Y-111228309D01*
X67918203Y-111207074D01*
X67923419Y-111186250D01*
X67930651Y-111166038D01*
X67939830Y-111146632D01*
X67950866Y-111128219D01*
X67963654Y-111110976D01*
X67978070Y-111095070D01*
X67993976Y-111080654D01*
X68011219Y-111067866D01*
X68029632Y-111056830D01*
X68049038Y-111047651D01*
X68069250Y-111040419D01*
X68090074Y-111035203D01*
X68111309Y-111032053D01*
X68132750Y-111031000D01*
X68570250Y-111031000D01*
X68591691Y-111032053D01*
G37*
G36*
X67016691Y-111032053D02*
G01*
X67037926Y-111035203D01*
X67058750Y-111040419D01*
X67078962Y-111047651D01*
X67098368Y-111056830D01*
X67116781Y-111067866D01*
X67134024Y-111080654D01*
X67149930Y-111095070D01*
X67164346Y-111110976D01*
X67177134Y-111128219D01*
X67188170Y-111146632D01*
X67197349Y-111166038D01*
X67204581Y-111186250D01*
X67209797Y-111207074D01*
X67212947Y-111228309D01*
X67214000Y-111249750D01*
X67214000Y-111762250D01*
X67212947Y-111783691D01*
X67209797Y-111804926D01*
X67204581Y-111825750D01*
X67197349Y-111845962D01*
X67188170Y-111865368D01*
X67177134Y-111883781D01*
X67164346Y-111901024D01*
X67149930Y-111916930D01*
X67134024Y-111931346D01*
X67116781Y-111944134D01*
X67098368Y-111955170D01*
X67078962Y-111964349D01*
X67058750Y-111971581D01*
X67037926Y-111976797D01*
X67016691Y-111979947D01*
X66995250Y-111981000D01*
X66557750Y-111981000D01*
X66536309Y-111979947D01*
X66515074Y-111976797D01*
X66494250Y-111971581D01*
X66474038Y-111964349D01*
X66454632Y-111955170D01*
X66436219Y-111944134D01*
X66418976Y-111931346D01*
X66403070Y-111916930D01*
X66388654Y-111901024D01*
X66375866Y-111883781D01*
X66364830Y-111865368D01*
X66355651Y-111845962D01*
X66348419Y-111825750D01*
X66343203Y-111804926D01*
X66340053Y-111783691D01*
X66339000Y-111762250D01*
X66339000Y-111249750D01*
X66340053Y-111228309D01*
X66343203Y-111207074D01*
X66348419Y-111186250D01*
X66355651Y-111166038D01*
X66364830Y-111146632D01*
X66375866Y-111128219D01*
X66388654Y-111110976D01*
X66403070Y-111095070D01*
X66418976Y-111080654D01*
X66436219Y-111067866D01*
X66454632Y-111056830D01*
X66474038Y-111047651D01*
X66494250Y-111040419D01*
X66515074Y-111035203D01*
X66536309Y-111032053D01*
X66557750Y-111031000D01*
X66995250Y-111031000D01*
X67016691Y-111032053D01*
G37*
%TD*%
%TO.C,R1*%
G36*
X64590491Y-96261453D02*
G01*
X64611726Y-96264603D01*
X64632550Y-96269819D01*
X64652762Y-96277051D01*
X64672168Y-96286230D01*
X64690581Y-96297266D01*
X64707824Y-96310054D01*
X64723730Y-96324470D01*
X64738146Y-96340376D01*
X64750934Y-96357619D01*
X64761970Y-96376032D01*
X64771149Y-96395438D01*
X64778381Y-96415650D01*
X64783597Y-96436474D01*
X64786747Y-96457709D01*
X64787800Y-96479150D01*
X64787800Y-96916650D01*
X64786747Y-96938091D01*
X64783597Y-96959326D01*
X64778381Y-96980150D01*
X64771149Y-97000362D01*
X64761970Y-97019768D01*
X64750934Y-97038181D01*
X64738146Y-97055424D01*
X64723730Y-97071330D01*
X64707824Y-97085746D01*
X64690581Y-97098534D01*
X64672168Y-97109570D01*
X64652762Y-97118749D01*
X64632550Y-97125981D01*
X64611726Y-97131197D01*
X64590491Y-97134347D01*
X64569050Y-97135400D01*
X64056550Y-97135400D01*
X64035109Y-97134347D01*
X64013874Y-97131197D01*
X63993050Y-97125981D01*
X63972838Y-97118749D01*
X63953432Y-97109570D01*
X63935019Y-97098534D01*
X63917776Y-97085746D01*
X63901870Y-97071330D01*
X63887454Y-97055424D01*
X63874666Y-97038181D01*
X63863630Y-97019768D01*
X63854451Y-97000362D01*
X63847219Y-96980150D01*
X63842003Y-96959326D01*
X63838853Y-96938091D01*
X63837800Y-96916650D01*
X63837800Y-96479150D01*
X63838853Y-96457709D01*
X63842003Y-96436474D01*
X63847219Y-96415650D01*
X63854451Y-96395438D01*
X63863630Y-96376032D01*
X63874666Y-96357619D01*
X63887454Y-96340376D01*
X63901870Y-96324470D01*
X63917776Y-96310054D01*
X63935019Y-96297266D01*
X63953432Y-96286230D01*
X63972838Y-96277051D01*
X63993050Y-96269819D01*
X64013874Y-96264603D01*
X64035109Y-96261453D01*
X64056550Y-96260400D01*
X64569050Y-96260400D01*
X64590491Y-96261453D01*
G37*
G36*
X64590491Y-94686453D02*
G01*
X64611726Y-94689603D01*
X64632550Y-94694819D01*
X64652762Y-94702051D01*
X64672168Y-94711230D01*
X64690581Y-94722266D01*
X64707824Y-94735054D01*
X64723730Y-94749470D01*
X64738146Y-94765376D01*
X64750934Y-94782619D01*
X64761970Y-94801032D01*
X64771149Y-94820438D01*
X64778381Y-94840650D01*
X64783597Y-94861474D01*
X64786747Y-94882709D01*
X64787800Y-94904150D01*
X64787800Y-95341650D01*
X64786747Y-95363091D01*
X64783597Y-95384326D01*
X64778381Y-95405150D01*
X64771149Y-95425362D01*
X64761970Y-95444768D01*
X64750934Y-95463181D01*
X64738146Y-95480424D01*
X64723730Y-95496330D01*
X64707824Y-95510746D01*
X64690581Y-95523534D01*
X64672168Y-95534570D01*
X64652762Y-95543749D01*
X64632550Y-95550981D01*
X64611726Y-95556197D01*
X64590491Y-95559347D01*
X64569050Y-95560400D01*
X64056550Y-95560400D01*
X64035109Y-95559347D01*
X64013874Y-95556197D01*
X63993050Y-95550981D01*
X63972838Y-95543749D01*
X63953432Y-95534570D01*
X63935019Y-95523534D01*
X63917776Y-95510746D01*
X63901870Y-95496330D01*
X63887454Y-95480424D01*
X63874666Y-95463181D01*
X63863630Y-95444768D01*
X63854451Y-95425362D01*
X63847219Y-95405150D01*
X63842003Y-95384326D01*
X63838853Y-95363091D01*
X63837800Y-95341650D01*
X63837800Y-94904150D01*
X63838853Y-94882709D01*
X63842003Y-94861474D01*
X63847219Y-94840650D01*
X63854451Y-94820438D01*
X63863630Y-94801032D01*
X63874666Y-94782619D01*
X63887454Y-94765376D01*
X63901870Y-94749470D01*
X63917776Y-94735054D01*
X63935019Y-94722266D01*
X63953432Y-94711230D01*
X63972838Y-94702051D01*
X63993050Y-94694819D01*
X64013874Y-94689603D01*
X64035109Y-94686453D01*
X64056550Y-94685400D01*
X64569050Y-94685400D01*
X64590491Y-94686453D01*
G37*
%TD*%
D21*
%TO.C,Q1*%
X62772800Y-96621600D03*
X60772800Y-97571600D03*
X60772800Y-95671600D03*
%TD*%
D10*
%TO.C,D1*%
G36*
X68972342Y-108825974D02*
G01*
X68996003Y-108829484D01*
X69019207Y-108835296D01*
X69041729Y-108843354D01*
X69063353Y-108853582D01*
X69083870Y-108865879D01*
X69103083Y-108880129D01*
X69120807Y-108896193D01*
X69136871Y-108913917D01*
X69151121Y-108933130D01*
X69163418Y-108953647D01*
X69173646Y-108975271D01*
X69181704Y-108997793D01*
X69187516Y-109020997D01*
X69191026Y-109044658D01*
X69192200Y-109068550D01*
X69192200Y-109981050D01*
X69191026Y-110004942D01*
X69187516Y-110028603D01*
X69181704Y-110051807D01*
X69173646Y-110074329D01*
X69163418Y-110095953D01*
X69151121Y-110116470D01*
X69136871Y-110135683D01*
X69120807Y-110153407D01*
X69103083Y-110169471D01*
X69083870Y-110183721D01*
X69063353Y-110196018D01*
X69041729Y-110206246D01*
X69019207Y-110214304D01*
X68996003Y-110220116D01*
X68972342Y-110223626D01*
X68948450Y-110224800D01*
X68460950Y-110224800D01*
X68437058Y-110223626D01*
X68413397Y-110220116D01*
X68390193Y-110214304D01*
X68367671Y-110206246D01*
X68346047Y-110196018D01*
X68325530Y-110183721D01*
X68306317Y-110169471D01*
X68288593Y-110153407D01*
X68272529Y-110135683D01*
X68258279Y-110116470D01*
X68245982Y-110095953D01*
X68235754Y-110074329D01*
X68227696Y-110051807D01*
X68221884Y-110028603D01*
X68218374Y-110004942D01*
X68217200Y-109981050D01*
X68217200Y-109068550D01*
X68218374Y-109044658D01*
X68221884Y-109020997D01*
X68227696Y-108997793D01*
X68235754Y-108975271D01*
X68245982Y-108953647D01*
X68258279Y-108933130D01*
X68272529Y-108913917D01*
X68288593Y-108896193D01*
X68306317Y-108880129D01*
X68325530Y-108865879D01*
X68346047Y-108853582D01*
X68367671Y-108843354D01*
X68390193Y-108835296D01*
X68413397Y-108829484D01*
X68437058Y-108825974D01*
X68460950Y-108824800D01*
X68948450Y-108824800D01*
X68972342Y-108825974D01*
G37*
G36*
X67097342Y-108825974D02*
G01*
X67121003Y-108829484D01*
X67144207Y-108835296D01*
X67166729Y-108843354D01*
X67188353Y-108853582D01*
X67208870Y-108865879D01*
X67228083Y-108880129D01*
X67245807Y-108896193D01*
X67261871Y-108913917D01*
X67276121Y-108933130D01*
X67288418Y-108953647D01*
X67298646Y-108975271D01*
X67306704Y-108997793D01*
X67312516Y-109020997D01*
X67316026Y-109044658D01*
X67317200Y-109068550D01*
X67317200Y-109981050D01*
X67316026Y-110004942D01*
X67312516Y-110028603D01*
X67306704Y-110051807D01*
X67298646Y-110074329D01*
X67288418Y-110095953D01*
X67276121Y-110116470D01*
X67261871Y-110135683D01*
X67245807Y-110153407D01*
X67228083Y-110169471D01*
X67208870Y-110183721D01*
X67188353Y-110196018D01*
X67166729Y-110206246D01*
X67144207Y-110214304D01*
X67121003Y-110220116D01*
X67097342Y-110223626D01*
X67073450Y-110224800D01*
X66585950Y-110224800D01*
X66562058Y-110223626D01*
X66538397Y-110220116D01*
X66515193Y-110214304D01*
X66492671Y-110206246D01*
X66471047Y-110196018D01*
X66450530Y-110183721D01*
X66431317Y-110169471D01*
X66413593Y-110153407D01*
X66397529Y-110135683D01*
X66383279Y-110116470D01*
X66370982Y-110095953D01*
X66360754Y-110074329D01*
X66352696Y-110051807D01*
X66346884Y-110028603D01*
X66343374Y-110004942D01*
X66342200Y-109981050D01*
X66342200Y-109068550D01*
X66343374Y-109044658D01*
X66346884Y-109020997D01*
X66352696Y-108997793D01*
X66360754Y-108975271D01*
X66370982Y-108953647D01*
X66383279Y-108933130D01*
X66397529Y-108913917D01*
X66413593Y-108896193D01*
X66431317Y-108880129D01*
X66450530Y-108865879D01*
X66471047Y-108853582D01*
X66492671Y-108843354D01*
X66515193Y-108835296D01*
X66538397Y-108829484D01*
X66562058Y-108825974D01*
X66585950Y-108824800D01*
X67073450Y-108824800D01*
X67097342Y-108825974D01*
G37*
%TD*%
%TO.C,C4*%
G36*
X63917891Y-106307653D02*
G01*
X63939126Y-106310803D01*
X63959950Y-106316019D01*
X63980162Y-106323251D01*
X63999568Y-106332430D01*
X64017981Y-106343466D01*
X64035224Y-106356254D01*
X64051130Y-106370670D01*
X64065546Y-106386576D01*
X64078334Y-106403819D01*
X64089370Y-106422232D01*
X64098549Y-106441638D01*
X64105781Y-106461850D01*
X64110997Y-106482674D01*
X64114147Y-106503909D01*
X64115200Y-106525350D01*
X64115200Y-107037850D01*
X64114147Y-107059291D01*
X64110997Y-107080526D01*
X64105781Y-107101350D01*
X64098549Y-107121562D01*
X64089370Y-107140968D01*
X64078334Y-107159381D01*
X64065546Y-107176624D01*
X64051130Y-107192530D01*
X64035224Y-107206946D01*
X64017981Y-107219734D01*
X63999568Y-107230770D01*
X63980162Y-107239949D01*
X63959950Y-107247181D01*
X63939126Y-107252397D01*
X63917891Y-107255547D01*
X63896450Y-107256600D01*
X63458950Y-107256600D01*
X63437509Y-107255547D01*
X63416274Y-107252397D01*
X63395450Y-107247181D01*
X63375238Y-107239949D01*
X63355832Y-107230770D01*
X63337419Y-107219734D01*
X63320176Y-107206946D01*
X63304270Y-107192530D01*
X63289854Y-107176624D01*
X63277066Y-107159381D01*
X63266030Y-107140968D01*
X63256851Y-107121562D01*
X63249619Y-107101350D01*
X63244403Y-107080526D01*
X63241253Y-107059291D01*
X63240200Y-107037850D01*
X63240200Y-106525350D01*
X63241253Y-106503909D01*
X63244403Y-106482674D01*
X63249619Y-106461850D01*
X63256851Y-106441638D01*
X63266030Y-106422232D01*
X63277066Y-106403819D01*
X63289854Y-106386576D01*
X63304270Y-106370670D01*
X63320176Y-106356254D01*
X63337419Y-106343466D01*
X63355832Y-106332430D01*
X63375238Y-106323251D01*
X63395450Y-106316019D01*
X63416274Y-106310803D01*
X63437509Y-106307653D01*
X63458950Y-106306600D01*
X63896450Y-106306600D01*
X63917891Y-106307653D01*
G37*
G36*
X65492891Y-106307653D02*
G01*
X65514126Y-106310803D01*
X65534950Y-106316019D01*
X65555162Y-106323251D01*
X65574568Y-106332430D01*
X65592981Y-106343466D01*
X65610224Y-106356254D01*
X65626130Y-106370670D01*
X65640546Y-106386576D01*
X65653334Y-106403819D01*
X65664370Y-106422232D01*
X65673549Y-106441638D01*
X65680781Y-106461850D01*
X65685997Y-106482674D01*
X65689147Y-106503909D01*
X65690200Y-106525350D01*
X65690200Y-107037850D01*
X65689147Y-107059291D01*
X65685997Y-107080526D01*
X65680781Y-107101350D01*
X65673549Y-107121562D01*
X65664370Y-107140968D01*
X65653334Y-107159381D01*
X65640546Y-107176624D01*
X65626130Y-107192530D01*
X65610224Y-107206946D01*
X65592981Y-107219734D01*
X65574568Y-107230770D01*
X65555162Y-107239949D01*
X65534950Y-107247181D01*
X65514126Y-107252397D01*
X65492891Y-107255547D01*
X65471450Y-107256600D01*
X65033950Y-107256600D01*
X65012509Y-107255547D01*
X64991274Y-107252397D01*
X64970450Y-107247181D01*
X64950238Y-107239949D01*
X64930832Y-107230770D01*
X64912419Y-107219734D01*
X64895176Y-107206946D01*
X64879270Y-107192530D01*
X64864854Y-107176624D01*
X64852066Y-107159381D01*
X64841030Y-107140968D01*
X64831851Y-107121562D01*
X64824619Y-107101350D01*
X64819403Y-107080526D01*
X64816253Y-107059291D01*
X64815200Y-107037850D01*
X64815200Y-106525350D01*
X64816253Y-106503909D01*
X64819403Y-106482674D01*
X64824619Y-106461850D01*
X64831851Y-106441638D01*
X64841030Y-106422232D01*
X64852066Y-106403819D01*
X64864854Y-106386576D01*
X64879270Y-106370670D01*
X64895176Y-106356254D01*
X64912419Y-106343466D01*
X64930832Y-106332430D01*
X64950238Y-106323251D01*
X64970450Y-106316019D01*
X64991274Y-106310803D01*
X65012509Y-106307653D01*
X65033950Y-106306600D01*
X65471450Y-106306600D01*
X65492891Y-106307653D01*
G37*
%TD*%
%TO.C,C3*%
G36*
X74751091Y-106968053D02*
G01*
X74772326Y-106971203D01*
X74793150Y-106976419D01*
X74813362Y-106983651D01*
X74832768Y-106992830D01*
X74851181Y-107003866D01*
X74868424Y-107016654D01*
X74884330Y-107031070D01*
X74898746Y-107046976D01*
X74911534Y-107064219D01*
X74922570Y-107082632D01*
X74931749Y-107102038D01*
X74938981Y-107122250D01*
X74944197Y-107143074D01*
X74947347Y-107164309D01*
X74948400Y-107185750D01*
X74948400Y-107698250D01*
X74947347Y-107719691D01*
X74944197Y-107740926D01*
X74938981Y-107761750D01*
X74931749Y-107781962D01*
X74922570Y-107801368D01*
X74911534Y-107819781D01*
X74898746Y-107837024D01*
X74884330Y-107852930D01*
X74868424Y-107867346D01*
X74851181Y-107880134D01*
X74832768Y-107891170D01*
X74813362Y-107900349D01*
X74793150Y-107907581D01*
X74772326Y-107912797D01*
X74751091Y-107915947D01*
X74729650Y-107917000D01*
X74292150Y-107917000D01*
X74270709Y-107915947D01*
X74249474Y-107912797D01*
X74228650Y-107907581D01*
X74208438Y-107900349D01*
X74189032Y-107891170D01*
X74170619Y-107880134D01*
X74153376Y-107867346D01*
X74137470Y-107852930D01*
X74123054Y-107837024D01*
X74110266Y-107819781D01*
X74099230Y-107801368D01*
X74090051Y-107781962D01*
X74082819Y-107761750D01*
X74077603Y-107740926D01*
X74074453Y-107719691D01*
X74073400Y-107698250D01*
X74073400Y-107185750D01*
X74074453Y-107164309D01*
X74077603Y-107143074D01*
X74082819Y-107122250D01*
X74090051Y-107102038D01*
X74099230Y-107082632D01*
X74110266Y-107064219D01*
X74123054Y-107046976D01*
X74137470Y-107031070D01*
X74153376Y-107016654D01*
X74170619Y-107003866D01*
X74189032Y-106992830D01*
X74208438Y-106983651D01*
X74228650Y-106976419D01*
X74249474Y-106971203D01*
X74270709Y-106968053D01*
X74292150Y-106967000D01*
X74729650Y-106967000D01*
X74751091Y-106968053D01*
G37*
G36*
X73176091Y-106968053D02*
G01*
X73197326Y-106971203D01*
X73218150Y-106976419D01*
X73238362Y-106983651D01*
X73257768Y-106992830D01*
X73276181Y-107003866D01*
X73293424Y-107016654D01*
X73309330Y-107031070D01*
X73323746Y-107046976D01*
X73336534Y-107064219D01*
X73347570Y-107082632D01*
X73356749Y-107102038D01*
X73363981Y-107122250D01*
X73369197Y-107143074D01*
X73372347Y-107164309D01*
X73373400Y-107185750D01*
X73373400Y-107698250D01*
X73372347Y-107719691D01*
X73369197Y-107740926D01*
X73363981Y-107761750D01*
X73356749Y-107781962D01*
X73347570Y-107801368D01*
X73336534Y-107819781D01*
X73323746Y-107837024D01*
X73309330Y-107852930D01*
X73293424Y-107867346D01*
X73276181Y-107880134D01*
X73257768Y-107891170D01*
X73238362Y-107900349D01*
X73218150Y-107907581D01*
X73197326Y-107912797D01*
X73176091Y-107915947D01*
X73154650Y-107917000D01*
X72717150Y-107917000D01*
X72695709Y-107915947D01*
X72674474Y-107912797D01*
X72653650Y-107907581D01*
X72633438Y-107900349D01*
X72614032Y-107891170D01*
X72595619Y-107880134D01*
X72578376Y-107867346D01*
X72562470Y-107852930D01*
X72548054Y-107837024D01*
X72535266Y-107819781D01*
X72524230Y-107801368D01*
X72515051Y-107781962D01*
X72507819Y-107761750D01*
X72502603Y-107740926D01*
X72499453Y-107719691D01*
X72498400Y-107698250D01*
X72498400Y-107185750D01*
X72499453Y-107164309D01*
X72502603Y-107143074D01*
X72507819Y-107122250D01*
X72515051Y-107102038D01*
X72524230Y-107082632D01*
X72535266Y-107064219D01*
X72548054Y-107046976D01*
X72562470Y-107031070D01*
X72578376Y-107016654D01*
X72595619Y-107003866D01*
X72614032Y-106992830D01*
X72633438Y-106983651D01*
X72653650Y-106976419D01*
X72674474Y-106971203D01*
X72695709Y-106968053D01*
X72717150Y-106967000D01*
X73154650Y-106967000D01*
X73176091Y-106968053D01*
G37*
%TD*%
%TO.C,C2*%
G36*
X71665091Y-106968053D02*
G01*
X71686326Y-106971203D01*
X71707150Y-106976419D01*
X71727362Y-106983651D01*
X71746768Y-106992830D01*
X71765181Y-107003866D01*
X71782424Y-107016654D01*
X71798330Y-107031070D01*
X71812746Y-107046976D01*
X71825534Y-107064219D01*
X71836570Y-107082632D01*
X71845749Y-107102038D01*
X71852981Y-107122250D01*
X71858197Y-107143074D01*
X71861347Y-107164309D01*
X71862400Y-107185750D01*
X71862400Y-107698250D01*
X71861347Y-107719691D01*
X71858197Y-107740926D01*
X71852981Y-107761750D01*
X71845749Y-107781962D01*
X71836570Y-107801368D01*
X71825534Y-107819781D01*
X71812746Y-107837024D01*
X71798330Y-107852930D01*
X71782424Y-107867346D01*
X71765181Y-107880134D01*
X71746768Y-107891170D01*
X71727362Y-107900349D01*
X71707150Y-107907581D01*
X71686326Y-107912797D01*
X71665091Y-107915947D01*
X71643650Y-107917000D01*
X71206150Y-107917000D01*
X71184709Y-107915947D01*
X71163474Y-107912797D01*
X71142650Y-107907581D01*
X71122438Y-107900349D01*
X71103032Y-107891170D01*
X71084619Y-107880134D01*
X71067376Y-107867346D01*
X71051470Y-107852930D01*
X71037054Y-107837024D01*
X71024266Y-107819781D01*
X71013230Y-107801368D01*
X71004051Y-107781962D01*
X70996819Y-107761750D01*
X70991603Y-107740926D01*
X70988453Y-107719691D01*
X70987400Y-107698250D01*
X70987400Y-107185750D01*
X70988453Y-107164309D01*
X70991603Y-107143074D01*
X70996819Y-107122250D01*
X71004051Y-107102038D01*
X71013230Y-107082632D01*
X71024266Y-107064219D01*
X71037054Y-107046976D01*
X71051470Y-107031070D01*
X71067376Y-107016654D01*
X71084619Y-107003866D01*
X71103032Y-106992830D01*
X71122438Y-106983651D01*
X71142650Y-106976419D01*
X71163474Y-106971203D01*
X71184709Y-106968053D01*
X71206150Y-106967000D01*
X71643650Y-106967000D01*
X71665091Y-106968053D01*
G37*
G36*
X70090091Y-106968053D02*
G01*
X70111326Y-106971203D01*
X70132150Y-106976419D01*
X70152362Y-106983651D01*
X70171768Y-106992830D01*
X70190181Y-107003866D01*
X70207424Y-107016654D01*
X70223330Y-107031070D01*
X70237746Y-107046976D01*
X70250534Y-107064219D01*
X70261570Y-107082632D01*
X70270749Y-107102038D01*
X70277981Y-107122250D01*
X70283197Y-107143074D01*
X70286347Y-107164309D01*
X70287400Y-107185750D01*
X70287400Y-107698250D01*
X70286347Y-107719691D01*
X70283197Y-107740926D01*
X70277981Y-107761750D01*
X70270749Y-107781962D01*
X70261570Y-107801368D01*
X70250534Y-107819781D01*
X70237746Y-107837024D01*
X70223330Y-107852930D01*
X70207424Y-107867346D01*
X70190181Y-107880134D01*
X70171768Y-107891170D01*
X70152362Y-107900349D01*
X70132150Y-107907581D01*
X70111326Y-107912797D01*
X70090091Y-107915947D01*
X70068650Y-107917000D01*
X69631150Y-107917000D01*
X69609709Y-107915947D01*
X69588474Y-107912797D01*
X69567650Y-107907581D01*
X69547438Y-107900349D01*
X69528032Y-107891170D01*
X69509619Y-107880134D01*
X69492376Y-107867346D01*
X69476470Y-107852930D01*
X69462054Y-107837024D01*
X69449266Y-107819781D01*
X69438230Y-107801368D01*
X69429051Y-107781962D01*
X69421819Y-107761750D01*
X69416603Y-107740926D01*
X69413453Y-107719691D01*
X69412400Y-107698250D01*
X69412400Y-107185750D01*
X69413453Y-107164309D01*
X69416603Y-107143074D01*
X69421819Y-107122250D01*
X69429051Y-107102038D01*
X69438230Y-107082632D01*
X69449266Y-107064219D01*
X69462054Y-107046976D01*
X69476470Y-107031070D01*
X69492376Y-107016654D01*
X69509619Y-107003866D01*
X69528032Y-106992830D01*
X69547438Y-106983651D01*
X69567650Y-106976419D01*
X69588474Y-106971203D01*
X69609709Y-106968053D01*
X69631150Y-106967000D01*
X70068650Y-106967000D01*
X70090091Y-106968053D01*
G37*
%TD*%
%TO.C,C1*%
G36*
X71664991Y-112505253D02*
G01*
X71686226Y-112508403D01*
X71707050Y-112513619D01*
X71727262Y-112520851D01*
X71746668Y-112530030D01*
X71765081Y-112541066D01*
X71782324Y-112553854D01*
X71798230Y-112568270D01*
X71812646Y-112584176D01*
X71825434Y-112601419D01*
X71836470Y-112619832D01*
X71845649Y-112639238D01*
X71852881Y-112659450D01*
X71858097Y-112680274D01*
X71861247Y-112701509D01*
X71862300Y-112722950D01*
X71862300Y-113235450D01*
X71861247Y-113256891D01*
X71858097Y-113278126D01*
X71852881Y-113298950D01*
X71845649Y-113319162D01*
X71836470Y-113338568D01*
X71825434Y-113356981D01*
X71812646Y-113374224D01*
X71798230Y-113390130D01*
X71782324Y-113404546D01*
X71765081Y-113417334D01*
X71746668Y-113428370D01*
X71727262Y-113437549D01*
X71707050Y-113444781D01*
X71686226Y-113449997D01*
X71664991Y-113453147D01*
X71643550Y-113454200D01*
X71206050Y-113454200D01*
X71184609Y-113453147D01*
X71163374Y-113449997D01*
X71142550Y-113444781D01*
X71122338Y-113437549D01*
X71102932Y-113428370D01*
X71084519Y-113417334D01*
X71067276Y-113404546D01*
X71051370Y-113390130D01*
X71036954Y-113374224D01*
X71024166Y-113356981D01*
X71013130Y-113338568D01*
X71003951Y-113319162D01*
X70996719Y-113298950D01*
X70991503Y-113278126D01*
X70988353Y-113256891D01*
X70987300Y-113235450D01*
X70987300Y-112722950D01*
X70988353Y-112701509D01*
X70991503Y-112680274D01*
X70996719Y-112659450D01*
X71003951Y-112639238D01*
X71013130Y-112619832D01*
X71024166Y-112601419D01*
X71036954Y-112584176D01*
X71051370Y-112568270D01*
X71067276Y-112553854D01*
X71084519Y-112541066D01*
X71102932Y-112530030D01*
X71122338Y-112520851D01*
X71142550Y-112513619D01*
X71163374Y-112508403D01*
X71184609Y-112505253D01*
X71206050Y-112504200D01*
X71643550Y-112504200D01*
X71664991Y-112505253D01*
G37*
G36*
X70089991Y-112505253D02*
G01*
X70111226Y-112508403D01*
X70132050Y-112513619D01*
X70152262Y-112520851D01*
X70171668Y-112530030D01*
X70190081Y-112541066D01*
X70207324Y-112553854D01*
X70223230Y-112568270D01*
X70237646Y-112584176D01*
X70250434Y-112601419D01*
X70261470Y-112619832D01*
X70270649Y-112639238D01*
X70277881Y-112659450D01*
X70283097Y-112680274D01*
X70286247Y-112701509D01*
X70287300Y-112722950D01*
X70287300Y-113235450D01*
X70286247Y-113256891D01*
X70283097Y-113278126D01*
X70277881Y-113298950D01*
X70270649Y-113319162D01*
X70261470Y-113338568D01*
X70250434Y-113356981D01*
X70237646Y-113374224D01*
X70223230Y-113390130D01*
X70207324Y-113404546D01*
X70190081Y-113417334D01*
X70171668Y-113428370D01*
X70152262Y-113437549D01*
X70132050Y-113444781D01*
X70111226Y-113449997D01*
X70089991Y-113453147D01*
X70068550Y-113454200D01*
X69631050Y-113454200D01*
X69609609Y-113453147D01*
X69588374Y-113449997D01*
X69567550Y-113444781D01*
X69547338Y-113437549D01*
X69527932Y-113428370D01*
X69509519Y-113417334D01*
X69492276Y-113404546D01*
X69476370Y-113390130D01*
X69461954Y-113374224D01*
X69449166Y-113356981D01*
X69438130Y-113338568D01*
X69428951Y-113319162D01*
X69421719Y-113298950D01*
X69416503Y-113278126D01*
X69413353Y-113256891D01*
X69412300Y-113235450D01*
X69412300Y-112722950D01*
X69413353Y-112701509D01*
X69416503Y-112680274D01*
X69421719Y-112659450D01*
X69428951Y-112639238D01*
X69438130Y-112619832D01*
X69449166Y-112601419D01*
X69461954Y-112584176D01*
X69476370Y-112568270D01*
X69492276Y-112553854D01*
X69509519Y-112541066D01*
X69527932Y-112530030D01*
X69547338Y-112520851D01*
X69567550Y-112513619D01*
X69588374Y-112508403D01*
X69609609Y-112505253D01*
X69631050Y-112504200D01*
X70068550Y-112504200D01*
X70089991Y-112505253D01*
G37*
%TD*%
%TO.C,R9*%
G36*
X62774791Y-111032053D02*
G01*
X62796026Y-111035203D01*
X62816850Y-111040419D01*
X62837062Y-111047651D01*
X62856468Y-111056830D01*
X62874881Y-111067866D01*
X62892124Y-111080654D01*
X62908030Y-111095070D01*
X62922446Y-111110976D01*
X62935234Y-111128219D01*
X62946270Y-111146632D01*
X62955449Y-111166038D01*
X62962681Y-111186250D01*
X62967897Y-111207074D01*
X62971047Y-111228309D01*
X62972100Y-111249750D01*
X62972100Y-111762250D01*
X62971047Y-111783691D01*
X62967897Y-111804926D01*
X62962681Y-111825750D01*
X62955449Y-111845962D01*
X62946270Y-111865368D01*
X62935234Y-111883781D01*
X62922446Y-111901024D01*
X62908030Y-111916930D01*
X62892124Y-111931346D01*
X62874881Y-111944134D01*
X62856468Y-111955170D01*
X62837062Y-111964349D01*
X62816850Y-111971581D01*
X62796026Y-111976797D01*
X62774791Y-111979947D01*
X62753350Y-111981000D01*
X62315850Y-111981000D01*
X62294409Y-111979947D01*
X62273174Y-111976797D01*
X62252350Y-111971581D01*
X62232138Y-111964349D01*
X62212732Y-111955170D01*
X62194319Y-111944134D01*
X62177076Y-111931346D01*
X62161170Y-111916930D01*
X62146754Y-111901024D01*
X62133966Y-111883781D01*
X62122930Y-111865368D01*
X62113751Y-111845962D01*
X62106519Y-111825750D01*
X62101303Y-111804926D01*
X62098153Y-111783691D01*
X62097100Y-111762250D01*
X62097100Y-111249750D01*
X62098153Y-111228309D01*
X62101303Y-111207074D01*
X62106519Y-111186250D01*
X62113751Y-111166038D01*
X62122930Y-111146632D01*
X62133966Y-111128219D01*
X62146754Y-111110976D01*
X62161170Y-111095070D01*
X62177076Y-111080654D01*
X62194319Y-111067866D01*
X62212732Y-111056830D01*
X62232138Y-111047651D01*
X62252350Y-111040419D01*
X62273174Y-111035203D01*
X62294409Y-111032053D01*
X62315850Y-111031000D01*
X62753350Y-111031000D01*
X62774791Y-111032053D01*
G37*
G36*
X64349791Y-111032053D02*
G01*
X64371026Y-111035203D01*
X64391850Y-111040419D01*
X64412062Y-111047651D01*
X64431468Y-111056830D01*
X64449881Y-111067866D01*
X64467124Y-111080654D01*
X64483030Y-111095070D01*
X64497446Y-111110976D01*
X64510234Y-111128219D01*
X64521270Y-111146632D01*
X64530449Y-111166038D01*
X64537681Y-111186250D01*
X64542897Y-111207074D01*
X64546047Y-111228309D01*
X64547100Y-111249750D01*
X64547100Y-111762250D01*
X64546047Y-111783691D01*
X64542897Y-111804926D01*
X64537681Y-111825750D01*
X64530449Y-111845962D01*
X64521270Y-111865368D01*
X64510234Y-111883781D01*
X64497446Y-111901024D01*
X64483030Y-111916930D01*
X64467124Y-111931346D01*
X64449881Y-111944134D01*
X64431468Y-111955170D01*
X64412062Y-111964349D01*
X64391850Y-111971581D01*
X64371026Y-111976797D01*
X64349791Y-111979947D01*
X64328350Y-111981000D01*
X63890850Y-111981000D01*
X63869409Y-111979947D01*
X63848174Y-111976797D01*
X63827350Y-111971581D01*
X63807138Y-111964349D01*
X63787732Y-111955170D01*
X63769319Y-111944134D01*
X63752076Y-111931346D01*
X63736170Y-111916930D01*
X63721754Y-111901024D01*
X63708966Y-111883781D01*
X63697930Y-111865368D01*
X63688751Y-111845962D01*
X63681519Y-111825750D01*
X63676303Y-111804926D01*
X63673153Y-111783691D01*
X63672100Y-111762250D01*
X63672100Y-111249750D01*
X63673153Y-111228309D01*
X63676303Y-111207074D01*
X63681519Y-111186250D01*
X63688751Y-111166038D01*
X63697930Y-111146632D01*
X63708966Y-111128219D01*
X63721754Y-111110976D01*
X63736170Y-111095070D01*
X63752076Y-111080654D01*
X63769319Y-111067866D01*
X63787732Y-111056830D01*
X63807138Y-111047651D01*
X63827350Y-111040419D01*
X63848174Y-111035203D01*
X63869409Y-111032053D01*
X63890850Y-111031000D01*
X64328350Y-111031000D01*
X64349791Y-111032053D01*
G37*
%TD*%
%TO.C,R8*%
G36*
X88962291Y-109609653D02*
G01*
X88983526Y-109612803D01*
X89004350Y-109618019D01*
X89024562Y-109625251D01*
X89043968Y-109634430D01*
X89062381Y-109645466D01*
X89079624Y-109658254D01*
X89095530Y-109672670D01*
X89109946Y-109688576D01*
X89122734Y-109705819D01*
X89133770Y-109724232D01*
X89142949Y-109743638D01*
X89150181Y-109763850D01*
X89155397Y-109784674D01*
X89158547Y-109805909D01*
X89159600Y-109827350D01*
X89159600Y-110339850D01*
X89158547Y-110361291D01*
X89155397Y-110382526D01*
X89150181Y-110403350D01*
X89142949Y-110423562D01*
X89133770Y-110442968D01*
X89122734Y-110461381D01*
X89109946Y-110478624D01*
X89095530Y-110494530D01*
X89079624Y-110508946D01*
X89062381Y-110521734D01*
X89043968Y-110532770D01*
X89024562Y-110541949D01*
X89004350Y-110549181D01*
X88983526Y-110554397D01*
X88962291Y-110557547D01*
X88940850Y-110558600D01*
X88503350Y-110558600D01*
X88481909Y-110557547D01*
X88460674Y-110554397D01*
X88439850Y-110549181D01*
X88419638Y-110541949D01*
X88400232Y-110532770D01*
X88381819Y-110521734D01*
X88364576Y-110508946D01*
X88348670Y-110494530D01*
X88334254Y-110478624D01*
X88321466Y-110461381D01*
X88310430Y-110442968D01*
X88301251Y-110423562D01*
X88294019Y-110403350D01*
X88288803Y-110382526D01*
X88285653Y-110361291D01*
X88284600Y-110339850D01*
X88284600Y-109827350D01*
X88285653Y-109805909D01*
X88288803Y-109784674D01*
X88294019Y-109763850D01*
X88301251Y-109743638D01*
X88310430Y-109724232D01*
X88321466Y-109705819D01*
X88334254Y-109688576D01*
X88348670Y-109672670D01*
X88364576Y-109658254D01*
X88381819Y-109645466D01*
X88400232Y-109634430D01*
X88419638Y-109625251D01*
X88439850Y-109618019D01*
X88460674Y-109612803D01*
X88481909Y-109609653D01*
X88503350Y-109608600D01*
X88940850Y-109608600D01*
X88962291Y-109609653D01*
G37*
G36*
X90537291Y-109609653D02*
G01*
X90558526Y-109612803D01*
X90579350Y-109618019D01*
X90599562Y-109625251D01*
X90618968Y-109634430D01*
X90637381Y-109645466D01*
X90654624Y-109658254D01*
X90670530Y-109672670D01*
X90684946Y-109688576D01*
X90697734Y-109705819D01*
X90708770Y-109724232D01*
X90717949Y-109743638D01*
X90725181Y-109763850D01*
X90730397Y-109784674D01*
X90733547Y-109805909D01*
X90734600Y-109827350D01*
X90734600Y-110339850D01*
X90733547Y-110361291D01*
X90730397Y-110382526D01*
X90725181Y-110403350D01*
X90717949Y-110423562D01*
X90708770Y-110442968D01*
X90697734Y-110461381D01*
X90684946Y-110478624D01*
X90670530Y-110494530D01*
X90654624Y-110508946D01*
X90637381Y-110521734D01*
X90618968Y-110532770D01*
X90599562Y-110541949D01*
X90579350Y-110549181D01*
X90558526Y-110554397D01*
X90537291Y-110557547D01*
X90515850Y-110558600D01*
X90078350Y-110558600D01*
X90056909Y-110557547D01*
X90035674Y-110554397D01*
X90014850Y-110549181D01*
X89994638Y-110541949D01*
X89975232Y-110532770D01*
X89956819Y-110521734D01*
X89939576Y-110508946D01*
X89923670Y-110494530D01*
X89909254Y-110478624D01*
X89896466Y-110461381D01*
X89885430Y-110442968D01*
X89876251Y-110423562D01*
X89869019Y-110403350D01*
X89863803Y-110382526D01*
X89860653Y-110361291D01*
X89859600Y-110339850D01*
X89859600Y-109827350D01*
X89860653Y-109805909D01*
X89863803Y-109784674D01*
X89869019Y-109763850D01*
X89876251Y-109743638D01*
X89885430Y-109724232D01*
X89896466Y-109705819D01*
X89909254Y-109688576D01*
X89923670Y-109672670D01*
X89939576Y-109658254D01*
X89956819Y-109645466D01*
X89975232Y-109634430D01*
X89994638Y-109625251D01*
X90014850Y-109618019D01*
X90035674Y-109612803D01*
X90056909Y-109609653D01*
X90078350Y-109608600D01*
X90515850Y-109608600D01*
X90537291Y-109609653D01*
G37*
%TD*%
D22*
%TO.C,U7*%
X76336000Y-105156000D03*
X76336000Y-104140000D03*
X76336000Y-103124000D03*
X76336000Y-102108000D03*
X76336000Y-101092000D03*
X76336000Y-100076000D03*
X76336000Y-99060000D03*
X76336000Y-98044000D03*
D23*
X85852000Y-108100000D03*
X91948000Y-108100000D03*
X82804000Y-108100000D03*
X83820000Y-108100000D03*
X90932000Y-108100000D03*
X89916000Y-108100000D03*
X88900000Y-108100000D03*
X87884000Y-108100000D03*
X77724000Y-108100000D03*
X78740000Y-108100000D03*
X84836000Y-108100000D03*
X80772000Y-108100000D03*
X86868000Y-108100000D03*
X81788000Y-108100000D03*
X79756000Y-108100000D03*
X91948000Y-95100000D03*
X90932000Y-95100000D03*
X89916000Y-95100000D03*
X88900000Y-95100000D03*
X87884000Y-95100000D03*
X86868000Y-95100000D03*
X85852000Y-95100000D03*
X84836000Y-95100000D03*
X83836000Y-95100000D03*
X82804000Y-95100000D03*
X81788000Y-95100000D03*
X80772000Y-95100000D03*
X79756000Y-95100000D03*
X78740000Y-95100000D03*
X77724000Y-95100000D03*
%TD*%
M02*
