%TF.GenerationSoftware,KiCad,Pcbnew,5.1.5+dfsg1-2~bpo10+1*%
%TF.CreationDate,Date%
%TF.ProjectId,osw-light,6f73772d-6c69-4676-9874-2e6b69636164,1.0*%
%TF.SameCoordinates,Original*%
%TF.FileFunction,Legend,Top*%
%TF.FilePolarity,Positive*%
%FSLAX46Y46*%
G04 Gerber Fmt 4.6, Leading zero omitted, Abs format (unit mm)*
G04 Created by KiCad*
%MOMM*%
%LPD*%
G04 APERTURE LIST*
%ADD10C,0.100000*%
%ADD11C,0.150000*%
%ADD12C,0.120000*%
G04 APERTURE END LIST*
D10*
X63195247Y-103128000D02*
X63147628Y-103104190D01*
X63076200Y-103104190D01*
X63004771Y-103128000D01*
X62957152Y-103175619D01*
X62933342Y-103223238D01*
X62909533Y-103318476D01*
X62909533Y-103389904D01*
X62933342Y-103485142D01*
X62957152Y-103532761D01*
X63004771Y-103580380D01*
X63076200Y-103604190D01*
X63123819Y-103604190D01*
X63195247Y-103580380D01*
X63219057Y-103556571D01*
X63219057Y-103389904D01*
X63123819Y-103389904D01*
X63433342Y-103604190D02*
X63433342Y-103104190D01*
X63719057Y-103604190D01*
X63719057Y-103104190D01*
X63957152Y-103604190D02*
X63957152Y-103104190D01*
X64076200Y-103104190D01*
X64147628Y-103128000D01*
X64195247Y-103175619D01*
X64219057Y-103223238D01*
X64242866Y-103318476D01*
X64242866Y-103389904D01*
X64219057Y-103485142D01*
X64195247Y-103532761D01*
X64147628Y-103580380D01*
X64076200Y-103604190D01*
X63957152Y-103604190D01*
X62856371Y-105123490D02*
X63023038Y-105623490D01*
X63189704Y-105123490D01*
X63523038Y-105361585D02*
X63594466Y-105385395D01*
X63618276Y-105409204D01*
X63642085Y-105456823D01*
X63642085Y-105528252D01*
X63618276Y-105575871D01*
X63594466Y-105599680D01*
X63546847Y-105623490D01*
X63356371Y-105623490D01*
X63356371Y-105123490D01*
X63523038Y-105123490D01*
X63570657Y-105147300D01*
X63594466Y-105171109D01*
X63618276Y-105218728D01*
X63618276Y-105266347D01*
X63594466Y-105313966D01*
X63570657Y-105337776D01*
X63523038Y-105361585D01*
X63356371Y-105361585D01*
X63832561Y-105480633D02*
X64070657Y-105480633D01*
X63784942Y-105623490D02*
X63951609Y-105123490D01*
X64118276Y-105623490D01*
X64213514Y-105123490D02*
X64499228Y-105123490D01*
X64356371Y-105623490D02*
X64356371Y-105123490D01*
D11*
%TO.C,U5*%
X75200000Y-114165500D02*
X74500000Y-114165500D01*
X74500000Y-114165500D02*
X74500000Y-114665500D01*
X80000000Y-116465500D02*
X80000000Y-114665500D01*
X80000000Y-114665500D02*
X79400000Y-114665500D01*
X72400000Y-116265500D02*
X72400000Y-114665500D01*
X72400000Y-114665500D02*
X73000000Y-114665500D01*
%TO.C,SW2*%
X87312054Y-86044416D02*
X86473310Y-87335968D01*
X85634713Y-84955138D02*
X87312054Y-86044416D01*
X84795968Y-86246690D02*
X85634713Y-84955138D01*
X83504416Y-85407946D02*
X82415138Y-87085287D01*
X87764862Y-88174713D02*
X83504416Y-85407946D01*
X86675584Y-89852054D02*
X87764862Y-88174713D01*
X82415138Y-87085287D02*
X86675584Y-89852054D01*
%TO.C,SW1*%
X66765287Y-84955138D02*
X67604032Y-86246690D01*
X65087946Y-86044416D02*
X66765287Y-84955138D01*
X65926690Y-87335968D02*
X65087946Y-86044416D01*
X64635138Y-88174713D02*
X65724416Y-89852054D01*
X68895584Y-85407946D02*
X64635138Y-88174713D01*
X69984862Y-87085287D02*
X68895584Y-85407946D01*
X65724416Y-89852054D02*
X69984862Y-87085287D01*
%TO.C,SW5*%
X65087946Y-117155584D02*
X65926690Y-115864032D01*
X66765287Y-118244862D02*
X65087946Y-117155584D01*
X67604032Y-116953310D02*
X66765287Y-118244862D01*
X68895584Y-117792054D02*
X69984862Y-116114713D01*
X64635138Y-115025287D02*
X68895584Y-117792054D01*
X65724416Y-113347946D02*
X64635138Y-115025287D01*
X69984862Y-116114713D02*
X65724416Y-113347946D01*
%TO.C,SW4*%
X85634713Y-118244862D02*
X84795968Y-116953310D01*
X87312054Y-117155584D02*
X85634713Y-118244862D01*
X86473310Y-115864032D02*
X87312054Y-117155584D01*
X87764862Y-115025287D02*
X86675584Y-113347946D01*
X83504416Y-117792054D02*
X87764862Y-115025287D01*
X82415138Y-116114713D02*
X83504416Y-117792054D01*
X86675584Y-113347946D02*
X82415138Y-116114713D01*
D12*
%TO.C,R18*%
X71054500Y-89054721D02*
X71054500Y-89380279D01*
X72074500Y-89054721D02*
X72074500Y-89380279D01*
%TO.C,C11*%
X72074500Y-86268779D02*
X72074500Y-85943221D01*
X71054500Y-86268779D02*
X71054500Y-85943221D01*
%TO.C,C22*%
X62609000Y-100548221D02*
X62609000Y-100873779D01*
X63629000Y-100548221D02*
X63629000Y-100873779D01*
%TO.C,U13*%
X70393200Y-96404000D02*
X70393200Y-94604000D01*
X67173200Y-94604000D02*
X67173200Y-97054000D01*
%TO.C,U12*%
X76973000Y-110340500D02*
X75173000Y-110340500D01*
X75173000Y-113560500D02*
X77623000Y-113560500D01*
%TO.C,U10*%
X75016000Y-96404000D02*
X75016000Y-94604000D01*
X71796000Y-94604000D02*
X71796000Y-97054000D01*
%TO.C,R22*%
X59383200Y-100873779D02*
X59383200Y-100548221D01*
X60403200Y-100873779D02*
X60403200Y-100548221D01*
%TO.C,R21*%
X62054200Y-100522721D02*
X62054200Y-100848279D01*
X61034200Y-100522721D02*
X61034200Y-100848279D01*
%TO.C,R20*%
X65580800Y-96073179D02*
X65580800Y-95747621D01*
X66600800Y-96073179D02*
X66600800Y-95747621D01*
%TO.C,C19*%
X69026721Y-90676000D02*
X69352279Y-90676000D01*
X69026721Y-91696000D02*
X69352279Y-91696000D01*
%TO.C,C18*%
X73725821Y-90676000D02*
X74051379Y-90676000D01*
X73725821Y-91696000D02*
X74051379Y-91696000D01*
%TO.C,C17*%
X69026721Y-92263500D02*
X69352279Y-92263500D01*
X69026721Y-93283500D02*
X69352279Y-93283500D01*
%TO.C,C16*%
X73725821Y-92263500D02*
X74051379Y-92263500D01*
X73725821Y-93283500D02*
X74051379Y-93283500D01*
%TO.C,C15*%
X68925221Y-97737200D02*
X69250779Y-97737200D01*
X68925221Y-98757200D02*
X69250779Y-98757200D01*
%TO.C,C14*%
X73548021Y-97737200D02*
X73873579Y-97737200D01*
X73548021Y-98757200D02*
X73873579Y-98757200D01*
%TO.C,C6*%
X67673136Y-99267600D02*
X68877264Y-99267600D01*
X67673136Y-101087600D02*
X68877264Y-101087600D01*
%TO.C,C5*%
X72318336Y-99267600D02*
X73522464Y-99267600D01*
X72318336Y-101087600D02*
X73522464Y-101087600D01*
%TO.C,U2*%
X80144800Y-93360800D02*
X80144800Y-93860800D01*
X80144800Y-93860800D02*
X79644800Y-93860800D01*
X79644800Y-93860800D02*
X79644800Y-93860800D01*
X78444800Y-93860800D02*
X77944800Y-93860800D01*
X77944800Y-93860800D02*
X77944800Y-93360800D01*
X77944800Y-93360800D02*
X77944800Y-93360800D01*
X77944800Y-92160800D02*
X77944800Y-91660800D01*
X77944800Y-91660800D02*
X78444800Y-91660800D01*
X78444800Y-91660800D02*
X78444800Y-91660800D01*
X80144800Y-92160800D02*
X80144800Y-91660800D01*
X80144800Y-91660800D02*
X80144800Y-91660800D01*
%TO.C,U9*%
X71323200Y-103190400D02*
X69123200Y-103190400D01*
X71323200Y-103190400D02*
X73523200Y-103190400D01*
X71323200Y-106410400D02*
X69123200Y-106410400D01*
X71323200Y-106410400D02*
X74923200Y-106410400D01*
%TO.C,R19*%
X73548021Y-102668800D02*
X73873579Y-102668800D01*
X73548021Y-101648800D02*
X73873579Y-101648800D01*
%TO.C,C13*%
X77167200Y-91043979D02*
X77167200Y-90718421D01*
X76147200Y-91043979D02*
X76147200Y-90718421D01*
%TO.C,C12*%
X82585679Y-91234800D02*
X82260121Y-91234800D01*
X82585679Y-92254800D02*
X82260121Y-92254800D01*
%TO.C,C9*%
X86146421Y-112270000D02*
X86471979Y-112270000D01*
X86146421Y-111250000D02*
X86471979Y-111250000D01*
%TO.C,C8*%
X89189679Y-92708000D02*
X88864121Y-92708000D01*
X89189679Y-93728000D02*
X88864121Y-93728000D01*
%TO.C,R17*%
X63510379Y-109421200D02*
X63184821Y-109421200D01*
X63510379Y-110441200D02*
X63184821Y-110441200D01*
%TO.C,R16*%
X63184821Y-108866400D02*
X63510379Y-108866400D01*
X63184821Y-107846400D02*
X63510379Y-107846400D01*
%TO.C,R7*%
X79212121Y-89660000D02*
X79537679Y-89660000D01*
X79212121Y-90680000D02*
X79537679Y-90680000D01*
%TO.C,R6*%
X82611179Y-90680000D02*
X82285621Y-90680000D01*
X82611179Y-89660000D02*
X82285621Y-89660000D01*
D10*
%TO.C,U3*%
X86850400Y-93806000D02*
X86850400Y-93326000D01*
X86850400Y-91586000D02*
X86850400Y-91106000D01*
X86850400Y-91106000D02*
X86210400Y-91106000D01*
X86850400Y-93806000D02*
X86210400Y-93806000D01*
X85290400Y-91106000D02*
X84650400Y-91106000D01*
X84650400Y-91586000D02*
X84650400Y-91106000D01*
X85290400Y-93806000D02*
X84650400Y-93806000D01*
D12*
%TO.C,U1*%
X76136500Y-89224800D02*
X78086500Y-89224800D01*
X76136500Y-89224800D02*
X74186500Y-89224800D01*
X76136500Y-84104800D02*
X78086500Y-84104800D01*
X76136500Y-84104800D02*
X72686500Y-84104800D01*
D11*
%TO.C,U6*%
X79808200Y-110237400D02*
X79808200Y-110462400D01*
X83158200Y-110237400D02*
X83158200Y-110537400D01*
X83158200Y-113587400D02*
X83158200Y-113287400D01*
X79808200Y-113587400D02*
X79808200Y-113287400D01*
X79808200Y-110237400D02*
X83158200Y-110237400D01*
X79808200Y-113587400D02*
X83158200Y-113587400D01*
X79808200Y-110462400D02*
X78583200Y-110462400D01*
D12*
%TO.C,U11*%
X69814800Y-109336000D02*
X69814800Y-111136000D01*
X73034800Y-111136000D02*
X73034800Y-108686000D01*
%TO.C,R11*%
X88864121Y-91133200D02*
X89189679Y-91133200D01*
X88864121Y-92153200D02*
X89189679Y-92153200D01*
%TO.C,R10*%
X63408779Y-92153200D02*
X63083221Y-92153200D01*
X63408779Y-91133200D02*
X63083221Y-91133200D01*
%TO.C,R14*%
X70774779Y-102668800D02*
X70449221Y-102668800D01*
X70774779Y-101648800D02*
X70449221Y-101648800D01*
%TO.C,R4*%
X86146421Y-109599000D02*
X86471979Y-109599000D01*
X86146421Y-110619000D02*
X86471979Y-110619000D01*
%TO.C,R15*%
X67688679Y-107952000D02*
X67363121Y-107952000D01*
X67688679Y-106932000D02*
X67363121Y-106932000D01*
%TO.C,R13*%
X67401221Y-110996000D02*
X67726779Y-110996000D01*
X67401221Y-112016000D02*
X67726779Y-112016000D01*
%TO.C,R1*%
X64822800Y-95747621D02*
X64822800Y-96073179D01*
X63802800Y-95747621D02*
X63802800Y-96073179D01*
%TO.C,Q1*%
X62532800Y-98201600D02*
X62532800Y-97271600D01*
X62532800Y-95041600D02*
X62532800Y-95971600D01*
X62532800Y-95041600D02*
X60372800Y-95041600D01*
X62532800Y-98201600D02*
X61072800Y-98201600D01*
%TO.C,D1*%
X68767200Y-108564800D02*
X66082200Y-108564800D01*
X66082200Y-108564800D02*
X66082200Y-110484800D01*
X66082200Y-110484800D02*
X68767200Y-110484800D01*
%TO.C,C4*%
X64627979Y-107291600D02*
X64302421Y-107291600D01*
X64627979Y-106271600D02*
X64302421Y-106271600D01*
%TO.C,C3*%
X73560621Y-106932000D02*
X73886179Y-106932000D01*
X73560621Y-107952000D02*
X73886179Y-107952000D01*
%TO.C,C2*%
X70474621Y-106932000D02*
X70800179Y-106932000D01*
X70474621Y-107952000D02*
X70800179Y-107952000D01*
%TO.C,C1*%
X70474521Y-112469200D02*
X70800079Y-112469200D01*
X70474521Y-113489200D02*
X70800079Y-113489200D01*
%TO.C,R9*%
X63484879Y-112016000D02*
X63159321Y-112016000D01*
X63484879Y-110996000D02*
X63159321Y-110996000D01*
%TO.C,R8*%
X89672379Y-110593600D02*
X89346821Y-110593600D01*
X89672379Y-109573600D02*
X89346821Y-109573600D01*
D11*
%TO.C,U7*%
X94286000Y-95100000D02*
X94286000Y-108100000D01*
X92586000Y-108100000D02*
X94286000Y-108100000D01*
X92586000Y-95100000D02*
X94286000Y-95100000D01*
X76336000Y-95800000D02*
X76336000Y-95100000D01*
X77036000Y-95100000D02*
X76336000Y-95100000D01*
X76336000Y-107400000D02*
X76336000Y-108100000D01*
X77036000Y-108100000D02*
X76336000Y-108100000D01*
X77787500Y-96330000D02*
X90932000Y-96330000D01*
X77787500Y-106870000D02*
X77787500Y-96330000D01*
X90932000Y-106870000D02*
X77787500Y-106870000D01*
X90932000Y-96330000D02*
X90932000Y-106870000D01*
X92529000Y-105406000D02*
X94053000Y-105406000D01*
X92529000Y-106930000D02*
X92529000Y-105406000D01*
X94053000Y-106930000D02*
X92529000Y-106930000D01*
X94053000Y-105406000D02*
X94053000Y-106930000D01*
X93926000Y-106168000D02*
G75*
G03X93926000Y-106168000I-635000J0D01*
G01*
X93836000Y-102662000D02*
X93836000Y-95931000D01*
X92636000Y-102662000D02*
X93836000Y-102662000D01*
X92636000Y-95931000D02*
X92636000Y-102662000D01*
X93836000Y-95931000D02*
X92636000Y-95931000D01*
%TD*%
%TO.C,U5*%
D10*
X75755547Y-119169690D02*
X75755547Y-119574452D01*
X75779357Y-119622071D01*
X75803166Y-119645880D01*
X75850785Y-119669690D01*
X75946023Y-119669690D01*
X75993642Y-119645880D01*
X76017452Y-119622071D01*
X76041261Y-119574452D01*
X76041261Y-119169690D01*
X76517452Y-119169690D02*
X76279357Y-119169690D01*
X76255547Y-119407785D01*
X76279357Y-119383976D01*
X76326976Y-119360166D01*
X76446023Y-119360166D01*
X76493642Y-119383976D01*
X76517452Y-119407785D01*
X76541261Y-119455404D01*
X76541261Y-119574452D01*
X76517452Y-119622071D01*
X76493642Y-119645880D01*
X76446023Y-119669690D01*
X76326976Y-119669690D01*
X76279357Y-119645880D01*
X76255547Y-119622071D01*
%TO.C,SW2*%
X83601623Y-88676402D02*
X83648561Y-88735273D01*
X83748402Y-88800111D01*
X83801307Y-88806078D01*
X83834243Y-88799077D01*
X83880146Y-88772108D01*
X83906081Y-88732171D01*
X83912048Y-88679267D01*
X83905047Y-88646331D01*
X83878078Y-88600427D01*
X83811173Y-88528589D01*
X83784203Y-88482685D01*
X83777203Y-88449749D01*
X83783170Y-88396845D01*
X83809105Y-88356908D01*
X83855008Y-88329939D01*
X83887944Y-88322938D01*
X83940849Y-88328905D01*
X84040690Y-88393743D01*
X84087628Y-88452614D01*
X84240374Y-88523419D02*
X84067896Y-89007592D01*
X84342283Y-88759938D01*
X84227643Y-89111333D01*
X84599804Y-88756836D01*
X84713647Y-88887546D02*
X84746583Y-88880545D01*
X84799487Y-88886512D01*
X84899329Y-88951350D01*
X84926298Y-88997253D01*
X84933299Y-89030189D01*
X84927332Y-89083094D01*
X84901397Y-89123030D01*
X84842526Y-89169968D01*
X84447295Y-89253977D01*
X84706883Y-89422555D01*
%TO.C,SW1*%
X67814659Y-89320041D02*
X67887532Y-89301107D01*
X67987374Y-89236269D01*
X68014343Y-89190365D01*
X68021344Y-89157429D01*
X68015377Y-89104525D01*
X67989442Y-89064588D01*
X67943538Y-89037619D01*
X67910602Y-89030618D01*
X67857698Y-89036585D01*
X67764857Y-89068487D01*
X67711952Y-89074454D01*
X67679017Y-89067453D01*
X67633113Y-89040484D01*
X67607178Y-89000548D01*
X67601211Y-88947643D01*
X67608212Y-88914707D01*
X67635181Y-88868804D01*
X67735023Y-88803966D01*
X67807895Y-88785031D01*
X67934706Y-88674290D02*
X68306867Y-89028787D01*
X68192227Y-88677392D01*
X68466614Y-88925046D01*
X68294136Y-88440873D01*
X68945854Y-88613824D02*
X68706234Y-88769435D01*
X68826044Y-88691630D02*
X68553725Y-88272294D01*
X68552691Y-88358135D01*
X68538689Y-88424007D01*
X68511720Y-88469910D01*
%TO.C,SW5*%
X67540151Y-114186337D02*
X67587089Y-114245208D01*
X67686930Y-114310046D01*
X67739835Y-114316013D01*
X67772771Y-114309012D01*
X67818674Y-114282043D01*
X67844609Y-114242106D01*
X67850576Y-114189202D01*
X67843575Y-114156266D01*
X67816606Y-114110362D01*
X67749701Y-114038524D01*
X67722731Y-113992620D01*
X67715731Y-113959684D01*
X67721698Y-113906780D01*
X67747633Y-113866843D01*
X67793536Y-113839874D01*
X67826472Y-113832873D01*
X67879377Y-113838840D01*
X67979218Y-113903678D01*
X68026156Y-113962549D01*
X68178902Y-114033354D02*
X68006424Y-114517527D01*
X68280811Y-114269873D01*
X68166171Y-114621268D01*
X68538332Y-114266771D01*
X68897762Y-114500188D02*
X68698079Y-114370512D01*
X68548434Y-114557228D01*
X68581370Y-114550227D01*
X68634275Y-114556194D01*
X68734116Y-114621032D01*
X68761086Y-114666935D01*
X68768086Y-114699871D01*
X68762119Y-114752775D01*
X68697281Y-114852617D01*
X68651378Y-114879586D01*
X68618442Y-114886587D01*
X68565538Y-114880620D01*
X68465696Y-114815782D01*
X68438727Y-114769879D01*
X68431726Y-114736943D01*
%TO.C,SW4*%
X83802910Y-114858223D02*
X83875783Y-114839289D01*
X83975625Y-114774451D01*
X84002594Y-114728547D01*
X84009595Y-114695611D01*
X84003628Y-114642707D01*
X83977693Y-114602770D01*
X83931789Y-114575801D01*
X83898853Y-114568800D01*
X83845949Y-114574767D01*
X83753108Y-114606669D01*
X83700203Y-114612636D01*
X83667268Y-114605635D01*
X83621364Y-114578666D01*
X83595429Y-114538730D01*
X83589462Y-114485825D01*
X83596463Y-114452889D01*
X83623432Y-114406986D01*
X83723274Y-114342148D01*
X83796146Y-114323213D01*
X83922957Y-114212472D02*
X84295118Y-114566969D01*
X84180478Y-114215574D01*
X84454865Y-114463228D01*
X84282387Y-113979055D01*
X84712622Y-113898384D02*
X84894169Y-114177941D01*
X84509040Y-113803476D02*
X84603712Y-114167839D01*
X84863301Y-113999260D01*
%TO.C,R18*%
X69879091Y-85544790D02*
X69712424Y-85306695D01*
X69593377Y-85544790D02*
X69593377Y-85044790D01*
X69783853Y-85044790D01*
X69831472Y-85068600D01*
X69855281Y-85092409D01*
X69879091Y-85140028D01*
X69879091Y-85211457D01*
X69855281Y-85259076D01*
X69831472Y-85282885D01*
X69783853Y-85306695D01*
X69593377Y-85306695D01*
X70355281Y-85544790D02*
X70069567Y-85544790D01*
X70212424Y-85544790D02*
X70212424Y-85044790D01*
X70164805Y-85116219D01*
X70117186Y-85163838D01*
X70069567Y-85187647D01*
X70640996Y-85259076D02*
X70593377Y-85235266D01*
X70569567Y-85211457D01*
X70545758Y-85163838D01*
X70545758Y-85140028D01*
X70569567Y-85092409D01*
X70593377Y-85068600D01*
X70640996Y-85044790D01*
X70736234Y-85044790D01*
X70783853Y-85068600D01*
X70807662Y-85092409D01*
X70831472Y-85140028D01*
X70831472Y-85163838D01*
X70807662Y-85211457D01*
X70783853Y-85235266D01*
X70736234Y-85259076D01*
X70640996Y-85259076D01*
X70593377Y-85282885D01*
X70569567Y-85306695D01*
X70545758Y-85354314D01*
X70545758Y-85449552D01*
X70569567Y-85497171D01*
X70593377Y-85520980D01*
X70640996Y-85544790D01*
X70736234Y-85544790D01*
X70783853Y-85520980D01*
X70807662Y-85497171D01*
X70831472Y-85449552D01*
X70831472Y-85354314D01*
X70807662Y-85306695D01*
X70783853Y-85282885D01*
X70736234Y-85259076D01*
%TO.C,C11*%
X69924811Y-89484971D02*
X69901001Y-89508780D01*
X69829573Y-89532590D01*
X69781954Y-89532590D01*
X69710525Y-89508780D01*
X69662906Y-89461161D01*
X69639097Y-89413542D01*
X69615287Y-89318304D01*
X69615287Y-89246876D01*
X69639097Y-89151638D01*
X69662906Y-89104019D01*
X69710525Y-89056400D01*
X69781954Y-89032590D01*
X69829573Y-89032590D01*
X69901001Y-89056400D01*
X69924811Y-89080209D01*
X70401001Y-89532590D02*
X70115287Y-89532590D01*
X70258144Y-89532590D02*
X70258144Y-89032590D01*
X70210525Y-89104019D01*
X70162906Y-89151638D01*
X70115287Y-89175447D01*
X70877192Y-89532590D02*
X70591478Y-89532590D01*
X70734335Y-89532590D02*
X70734335Y-89032590D01*
X70686716Y-89104019D01*
X70639097Y-89151638D01*
X70591478Y-89175447D01*
%TO.C,C22*%
X62721371Y-99035371D02*
X62697561Y-99059180D01*
X62626133Y-99082990D01*
X62578514Y-99082990D01*
X62507085Y-99059180D01*
X62459466Y-99011561D01*
X62435657Y-98963942D01*
X62411847Y-98868704D01*
X62411847Y-98797276D01*
X62435657Y-98702038D01*
X62459466Y-98654419D01*
X62507085Y-98606800D01*
X62578514Y-98582990D01*
X62626133Y-98582990D01*
X62697561Y-98606800D01*
X62721371Y-98630609D01*
X62911847Y-98630609D02*
X62935657Y-98606800D01*
X62983276Y-98582990D01*
X63102323Y-98582990D01*
X63149942Y-98606800D01*
X63173752Y-98630609D01*
X63197561Y-98678228D01*
X63197561Y-98725847D01*
X63173752Y-98797276D01*
X62888038Y-99082990D01*
X63197561Y-99082990D01*
X63388038Y-98630609D02*
X63411847Y-98606800D01*
X63459466Y-98582990D01*
X63578514Y-98582990D01*
X63626133Y-98606800D01*
X63649942Y-98630609D01*
X63673752Y-98678228D01*
X63673752Y-98725847D01*
X63649942Y-98797276D01*
X63364228Y-99082990D01*
X63673752Y-99082990D01*
%TO.C,U13*%
X70409512Y-93889070D02*
X70409512Y-94293832D01*
X70433321Y-94341451D01*
X70457131Y-94365260D01*
X70504750Y-94389070D01*
X70599988Y-94389070D01*
X70647607Y-94365260D01*
X70671417Y-94341451D01*
X70695226Y-94293832D01*
X70695226Y-93889070D01*
X71195226Y-94389070D02*
X70909512Y-94389070D01*
X71052369Y-94389070D02*
X71052369Y-93889070D01*
X71004750Y-93960499D01*
X70957131Y-94008118D01*
X70909512Y-94031927D01*
X71361893Y-93889070D02*
X71671417Y-93889070D01*
X71504750Y-94079546D01*
X71576179Y-94079546D01*
X71623798Y-94103356D01*
X71647607Y-94127165D01*
X71671417Y-94174784D01*
X71671417Y-94293832D01*
X71647607Y-94341451D01*
X71623798Y-94365260D01*
X71576179Y-94389070D01*
X71433321Y-94389070D01*
X71385702Y-94365260D01*
X71361893Y-94341451D01*
%TO.C,U12*%
X75492052Y-109428790D02*
X75492052Y-109833552D01*
X75515861Y-109881171D01*
X75539671Y-109904980D01*
X75587290Y-109928790D01*
X75682528Y-109928790D01*
X75730147Y-109904980D01*
X75753957Y-109881171D01*
X75777766Y-109833552D01*
X75777766Y-109428790D01*
X76277766Y-109928790D02*
X75992052Y-109928790D01*
X76134909Y-109928790D02*
X76134909Y-109428790D01*
X76087290Y-109500219D01*
X76039671Y-109547838D01*
X75992052Y-109571647D01*
X76468242Y-109476409D02*
X76492052Y-109452600D01*
X76539671Y-109428790D01*
X76658719Y-109428790D01*
X76706338Y-109452600D01*
X76730147Y-109476409D01*
X76753957Y-109524028D01*
X76753957Y-109571647D01*
X76730147Y-109643076D01*
X76444433Y-109928790D01*
X76753957Y-109928790D01*
%TO.C,U10*%
X74984052Y-94000830D02*
X74984052Y-94405592D01*
X75007861Y-94453211D01*
X75031671Y-94477020D01*
X75079290Y-94500830D01*
X75174528Y-94500830D01*
X75222147Y-94477020D01*
X75245957Y-94453211D01*
X75269766Y-94405592D01*
X75269766Y-94000830D01*
X75769766Y-94500830D02*
X75484052Y-94500830D01*
X75626909Y-94500830D02*
X75626909Y-94000830D01*
X75579290Y-94072259D01*
X75531671Y-94119878D01*
X75484052Y-94143687D01*
X76079290Y-94000830D02*
X76126909Y-94000830D01*
X76174528Y-94024640D01*
X76198338Y-94048449D01*
X76222147Y-94096068D01*
X76245957Y-94191306D01*
X76245957Y-94310354D01*
X76222147Y-94405592D01*
X76198338Y-94453211D01*
X76174528Y-94477020D01*
X76126909Y-94500830D01*
X76079290Y-94500830D01*
X76031671Y-94477020D01*
X76007861Y-94453211D01*
X75984052Y-94405592D01*
X75960242Y-94310354D01*
X75960242Y-94191306D01*
X75984052Y-94096068D01*
X76007861Y-94048449D01*
X76031671Y-94024640D01*
X76079290Y-94000830D01*
%TO.C,R22*%
X59622571Y-99082990D02*
X59455904Y-98844895D01*
X59336857Y-99082990D02*
X59336857Y-98582990D01*
X59527333Y-98582990D01*
X59574952Y-98606800D01*
X59598761Y-98630609D01*
X59622571Y-98678228D01*
X59622571Y-98749657D01*
X59598761Y-98797276D01*
X59574952Y-98821085D01*
X59527333Y-98844895D01*
X59336857Y-98844895D01*
X59813047Y-98630609D02*
X59836857Y-98606800D01*
X59884476Y-98582990D01*
X60003523Y-98582990D01*
X60051142Y-98606800D01*
X60074952Y-98630609D01*
X60098761Y-98678228D01*
X60098761Y-98725847D01*
X60074952Y-98797276D01*
X59789238Y-99082990D01*
X60098761Y-99082990D01*
X60289238Y-98630609D02*
X60313047Y-98606800D01*
X60360666Y-98582990D01*
X60479714Y-98582990D01*
X60527333Y-98606800D01*
X60551142Y-98630609D01*
X60574952Y-98678228D01*
X60574952Y-98725847D01*
X60551142Y-98797276D01*
X60265428Y-99082990D01*
X60574952Y-99082990D01*
%TO.C,R21*%
X61197371Y-99082990D02*
X61030704Y-98844895D01*
X60911657Y-99082990D02*
X60911657Y-98582990D01*
X61102133Y-98582990D01*
X61149752Y-98606800D01*
X61173561Y-98630609D01*
X61197371Y-98678228D01*
X61197371Y-98749657D01*
X61173561Y-98797276D01*
X61149752Y-98821085D01*
X61102133Y-98844895D01*
X60911657Y-98844895D01*
X61387847Y-98630609D02*
X61411657Y-98606800D01*
X61459276Y-98582990D01*
X61578323Y-98582990D01*
X61625942Y-98606800D01*
X61649752Y-98630609D01*
X61673561Y-98678228D01*
X61673561Y-98725847D01*
X61649752Y-98797276D01*
X61364038Y-99082990D01*
X61673561Y-99082990D01*
X62149752Y-99082990D02*
X61864038Y-99082990D01*
X62006895Y-99082990D02*
X62006895Y-98582990D01*
X61959276Y-98654419D01*
X61911657Y-98702038D01*
X61864038Y-98725847D01*
%TO.C,R20*%
X65731271Y-94244190D02*
X65564604Y-94006095D01*
X65445557Y-94244190D02*
X65445557Y-93744190D01*
X65636033Y-93744190D01*
X65683652Y-93768000D01*
X65707461Y-93791809D01*
X65731271Y-93839428D01*
X65731271Y-93910857D01*
X65707461Y-93958476D01*
X65683652Y-93982285D01*
X65636033Y-94006095D01*
X65445557Y-94006095D01*
X65921747Y-93791809D02*
X65945557Y-93768000D01*
X65993176Y-93744190D01*
X66112223Y-93744190D01*
X66159842Y-93768000D01*
X66183652Y-93791809D01*
X66207461Y-93839428D01*
X66207461Y-93887047D01*
X66183652Y-93958476D01*
X65897938Y-94244190D01*
X66207461Y-94244190D01*
X66516985Y-93744190D02*
X66564604Y-93744190D01*
X66612223Y-93768000D01*
X66636033Y-93791809D01*
X66659842Y-93839428D01*
X66683652Y-93934666D01*
X66683652Y-94053714D01*
X66659842Y-94148952D01*
X66636033Y-94196571D01*
X66612223Y-94220380D01*
X66564604Y-94244190D01*
X66516985Y-94244190D01*
X66469366Y-94220380D01*
X66445557Y-94196571D01*
X66421747Y-94148952D01*
X66397938Y-94053714D01*
X66397938Y-93934666D01*
X66421747Y-93839428D01*
X66445557Y-93791809D01*
X66469366Y-93768000D01*
X66516985Y-93744190D01*
%TO.C,C19*%
X66645671Y-91453471D02*
X66621861Y-91477280D01*
X66550433Y-91501090D01*
X66502814Y-91501090D01*
X66431385Y-91477280D01*
X66383766Y-91429661D01*
X66359957Y-91382042D01*
X66336147Y-91286804D01*
X66336147Y-91215376D01*
X66359957Y-91120138D01*
X66383766Y-91072519D01*
X66431385Y-91024900D01*
X66502814Y-91001090D01*
X66550433Y-91001090D01*
X66621861Y-91024900D01*
X66645671Y-91048709D01*
X67121861Y-91501090D02*
X66836147Y-91501090D01*
X66979004Y-91501090D02*
X66979004Y-91001090D01*
X66931385Y-91072519D01*
X66883766Y-91120138D01*
X66836147Y-91143947D01*
X67359957Y-91501090D02*
X67455195Y-91501090D01*
X67502814Y-91477280D01*
X67526623Y-91453471D01*
X67574242Y-91382042D01*
X67598052Y-91286804D01*
X67598052Y-91096328D01*
X67574242Y-91048709D01*
X67550433Y-91024900D01*
X67502814Y-91001090D01*
X67407576Y-91001090D01*
X67359957Y-91024900D01*
X67336147Y-91048709D01*
X67312338Y-91096328D01*
X67312338Y-91215376D01*
X67336147Y-91262995D01*
X67359957Y-91286804D01*
X67407576Y-91310614D01*
X67502814Y-91310614D01*
X67550433Y-91286804D01*
X67574242Y-91262995D01*
X67598052Y-91215376D01*
%TO.C,C18*%
X71319271Y-91453471D02*
X71295461Y-91477280D01*
X71224033Y-91501090D01*
X71176414Y-91501090D01*
X71104985Y-91477280D01*
X71057366Y-91429661D01*
X71033557Y-91382042D01*
X71009747Y-91286804D01*
X71009747Y-91215376D01*
X71033557Y-91120138D01*
X71057366Y-91072519D01*
X71104985Y-91024900D01*
X71176414Y-91001090D01*
X71224033Y-91001090D01*
X71295461Y-91024900D01*
X71319271Y-91048709D01*
X71795461Y-91501090D02*
X71509747Y-91501090D01*
X71652604Y-91501090D02*
X71652604Y-91001090D01*
X71604985Y-91072519D01*
X71557366Y-91120138D01*
X71509747Y-91143947D01*
X72081176Y-91215376D02*
X72033557Y-91191566D01*
X72009747Y-91167757D01*
X71985938Y-91120138D01*
X71985938Y-91096328D01*
X72009747Y-91048709D01*
X72033557Y-91024900D01*
X72081176Y-91001090D01*
X72176414Y-91001090D01*
X72224033Y-91024900D01*
X72247842Y-91048709D01*
X72271652Y-91096328D01*
X72271652Y-91120138D01*
X72247842Y-91167757D01*
X72224033Y-91191566D01*
X72176414Y-91215376D01*
X72081176Y-91215376D01*
X72033557Y-91239185D01*
X72009747Y-91262995D01*
X71985938Y-91310614D01*
X71985938Y-91405852D01*
X72009747Y-91453471D01*
X72033557Y-91477280D01*
X72081176Y-91501090D01*
X72176414Y-91501090D01*
X72224033Y-91477280D01*
X72247842Y-91453471D01*
X72271652Y-91405852D01*
X72271652Y-91310614D01*
X72247842Y-91262995D01*
X72224033Y-91239185D01*
X72176414Y-91215376D01*
%TO.C,C17*%
X66645671Y-93015571D02*
X66621861Y-93039380D01*
X66550433Y-93063190D01*
X66502814Y-93063190D01*
X66431385Y-93039380D01*
X66383766Y-92991761D01*
X66359957Y-92944142D01*
X66336147Y-92848904D01*
X66336147Y-92777476D01*
X66359957Y-92682238D01*
X66383766Y-92634619D01*
X66431385Y-92587000D01*
X66502814Y-92563190D01*
X66550433Y-92563190D01*
X66621861Y-92587000D01*
X66645671Y-92610809D01*
X67121861Y-93063190D02*
X66836147Y-93063190D01*
X66979004Y-93063190D02*
X66979004Y-92563190D01*
X66931385Y-92634619D01*
X66883766Y-92682238D01*
X66836147Y-92706047D01*
X67288528Y-92563190D02*
X67621861Y-92563190D01*
X67407576Y-93063190D01*
%TO.C,C16*%
X71281171Y-92952071D02*
X71257361Y-92975880D01*
X71185933Y-92999690D01*
X71138314Y-92999690D01*
X71066885Y-92975880D01*
X71019266Y-92928261D01*
X70995457Y-92880642D01*
X70971647Y-92785404D01*
X70971647Y-92713976D01*
X70995457Y-92618738D01*
X71019266Y-92571119D01*
X71066885Y-92523500D01*
X71138314Y-92499690D01*
X71185933Y-92499690D01*
X71257361Y-92523500D01*
X71281171Y-92547309D01*
X71757361Y-92999690D02*
X71471647Y-92999690D01*
X71614504Y-92999690D02*
X71614504Y-92499690D01*
X71566885Y-92571119D01*
X71519266Y-92618738D01*
X71471647Y-92642547D01*
X72185933Y-92499690D02*
X72090695Y-92499690D01*
X72043076Y-92523500D01*
X72019266Y-92547309D01*
X71971647Y-92618738D01*
X71947838Y-92713976D01*
X71947838Y-92904452D01*
X71971647Y-92952071D01*
X71995457Y-92975880D01*
X72043076Y-92999690D01*
X72138314Y-92999690D01*
X72185933Y-92975880D01*
X72209742Y-92952071D01*
X72233552Y-92904452D01*
X72233552Y-92785404D01*
X72209742Y-92737785D01*
X72185933Y-92713976D01*
X72138314Y-92690166D01*
X72043076Y-92690166D01*
X71995457Y-92713976D01*
X71971647Y-92737785D01*
X71947838Y-92785404D01*
%TO.C,C15*%
X66531371Y-98298771D02*
X66507561Y-98322580D01*
X66436133Y-98346390D01*
X66388514Y-98346390D01*
X66317085Y-98322580D01*
X66269466Y-98274961D01*
X66245657Y-98227342D01*
X66221847Y-98132104D01*
X66221847Y-98060676D01*
X66245657Y-97965438D01*
X66269466Y-97917819D01*
X66317085Y-97870200D01*
X66388514Y-97846390D01*
X66436133Y-97846390D01*
X66507561Y-97870200D01*
X66531371Y-97894009D01*
X67007561Y-98346390D02*
X66721847Y-98346390D01*
X66864704Y-98346390D02*
X66864704Y-97846390D01*
X66817085Y-97917819D01*
X66769466Y-97965438D01*
X66721847Y-97989247D01*
X67459942Y-97846390D02*
X67221847Y-97846390D01*
X67198038Y-98084485D01*
X67221847Y-98060676D01*
X67269466Y-98036866D01*
X67388514Y-98036866D01*
X67436133Y-98060676D01*
X67459942Y-98084485D01*
X67483752Y-98132104D01*
X67483752Y-98251152D01*
X67459942Y-98298771D01*
X67436133Y-98322580D01*
X67388514Y-98346390D01*
X67269466Y-98346390D01*
X67221847Y-98322580D01*
X67198038Y-98298771D01*
%TO.C,C14*%
X71179571Y-98260671D02*
X71155761Y-98284480D01*
X71084333Y-98308290D01*
X71036714Y-98308290D01*
X70965285Y-98284480D01*
X70917666Y-98236861D01*
X70893857Y-98189242D01*
X70870047Y-98094004D01*
X70870047Y-98022576D01*
X70893857Y-97927338D01*
X70917666Y-97879719D01*
X70965285Y-97832100D01*
X71036714Y-97808290D01*
X71084333Y-97808290D01*
X71155761Y-97832100D01*
X71179571Y-97855909D01*
X71655761Y-98308290D02*
X71370047Y-98308290D01*
X71512904Y-98308290D02*
X71512904Y-97808290D01*
X71465285Y-97879719D01*
X71417666Y-97927338D01*
X71370047Y-97951147D01*
X72084333Y-97974957D02*
X72084333Y-98308290D01*
X71965285Y-97784480D02*
X71846238Y-98141623D01*
X72155761Y-98141623D01*
%TO.C,C6*%
X68229966Y-100381571D02*
X68206157Y-100405380D01*
X68134728Y-100429190D01*
X68087109Y-100429190D01*
X68015680Y-100405380D01*
X67968061Y-100357761D01*
X67944252Y-100310142D01*
X67920442Y-100214904D01*
X67920442Y-100143476D01*
X67944252Y-100048238D01*
X67968061Y-100000619D01*
X68015680Y-99953000D01*
X68087109Y-99929190D01*
X68134728Y-99929190D01*
X68206157Y-99953000D01*
X68229966Y-99976809D01*
X68658538Y-99929190D02*
X68563300Y-99929190D01*
X68515680Y-99953000D01*
X68491871Y-99976809D01*
X68444252Y-100048238D01*
X68420442Y-100143476D01*
X68420442Y-100333952D01*
X68444252Y-100381571D01*
X68468061Y-100405380D01*
X68515680Y-100429190D01*
X68610919Y-100429190D01*
X68658538Y-100405380D01*
X68682347Y-100381571D01*
X68706157Y-100333952D01*
X68706157Y-100214904D01*
X68682347Y-100167285D01*
X68658538Y-100143476D01*
X68610919Y-100119666D01*
X68515680Y-100119666D01*
X68468061Y-100143476D01*
X68444252Y-100167285D01*
X68420442Y-100214904D01*
%TO.C,C5*%
X72814666Y-100381571D02*
X72790857Y-100405380D01*
X72719428Y-100429190D01*
X72671809Y-100429190D01*
X72600380Y-100405380D01*
X72552761Y-100357761D01*
X72528952Y-100310142D01*
X72505142Y-100214904D01*
X72505142Y-100143476D01*
X72528952Y-100048238D01*
X72552761Y-100000619D01*
X72600380Y-99953000D01*
X72671809Y-99929190D01*
X72719428Y-99929190D01*
X72790857Y-99953000D01*
X72814666Y-99976809D01*
X73267047Y-99929190D02*
X73028952Y-99929190D01*
X73005142Y-100167285D01*
X73028952Y-100143476D01*
X73076571Y-100119666D01*
X73195619Y-100119666D01*
X73243238Y-100143476D01*
X73267047Y-100167285D01*
X73290857Y-100214904D01*
X73290857Y-100333952D01*
X73267047Y-100381571D01*
X73243238Y-100405380D01*
X73195619Y-100429190D01*
X73076571Y-100429190D01*
X73028952Y-100405380D01*
X73005142Y-100381571D01*
%TO.C,U2*%
X79527447Y-91064590D02*
X79527447Y-91469352D01*
X79551257Y-91516971D01*
X79575066Y-91540780D01*
X79622685Y-91564590D01*
X79717923Y-91564590D01*
X79765542Y-91540780D01*
X79789352Y-91516971D01*
X79813161Y-91469352D01*
X79813161Y-91064590D01*
X80027447Y-91112209D02*
X80051257Y-91088400D01*
X80098876Y-91064590D01*
X80217923Y-91064590D01*
X80265542Y-91088400D01*
X80289352Y-91112209D01*
X80313161Y-91159828D01*
X80313161Y-91207447D01*
X80289352Y-91278876D01*
X80003638Y-91564590D01*
X80313161Y-91564590D01*
%TO.C,U9*%
X67972987Y-102738430D02*
X67972987Y-103143192D01*
X67996797Y-103190811D01*
X68020606Y-103214620D01*
X68068225Y-103238430D01*
X68163463Y-103238430D01*
X68211082Y-103214620D01*
X68234892Y-103190811D01*
X68258701Y-103143192D01*
X68258701Y-102738430D01*
X68520606Y-103238430D02*
X68615844Y-103238430D01*
X68663463Y-103214620D01*
X68687273Y-103190811D01*
X68734892Y-103119382D01*
X68758701Y-103024144D01*
X68758701Y-102833668D01*
X68734892Y-102786049D01*
X68711082Y-102762240D01*
X68663463Y-102738430D01*
X68568225Y-102738430D01*
X68520606Y-102762240D01*
X68496797Y-102786049D01*
X68472987Y-102833668D01*
X68472987Y-102952716D01*
X68496797Y-103000335D01*
X68520606Y-103024144D01*
X68568225Y-103047954D01*
X68663463Y-103047954D01*
X68711082Y-103024144D01*
X68734892Y-103000335D01*
X68758701Y-102952716D01*
%TO.C,R19*%
X74214871Y-103375590D02*
X74048204Y-103137495D01*
X73929157Y-103375590D02*
X73929157Y-102875590D01*
X74119633Y-102875590D01*
X74167252Y-102899400D01*
X74191061Y-102923209D01*
X74214871Y-102970828D01*
X74214871Y-103042257D01*
X74191061Y-103089876D01*
X74167252Y-103113685D01*
X74119633Y-103137495D01*
X73929157Y-103137495D01*
X74691061Y-103375590D02*
X74405347Y-103375590D01*
X74548204Y-103375590D02*
X74548204Y-102875590D01*
X74500585Y-102947019D01*
X74452966Y-102994638D01*
X74405347Y-103018447D01*
X74929157Y-103375590D02*
X75024395Y-103375590D01*
X75072014Y-103351780D01*
X75095823Y-103327971D01*
X75143442Y-103256542D01*
X75167252Y-103161304D01*
X75167252Y-102970828D01*
X75143442Y-102923209D01*
X75119633Y-102899400D01*
X75072014Y-102875590D01*
X74976776Y-102875590D01*
X74929157Y-102899400D01*
X74905347Y-102923209D01*
X74881538Y-102970828D01*
X74881538Y-103089876D01*
X74905347Y-103137495D01*
X74929157Y-103161304D01*
X74976776Y-103185114D01*
X75072014Y-103185114D01*
X75119633Y-103161304D01*
X75143442Y-103137495D01*
X75167252Y-103089876D01*
%TO.C,C13*%
X76334271Y-92936971D02*
X76310461Y-92960780D01*
X76239033Y-92984590D01*
X76191414Y-92984590D01*
X76119985Y-92960780D01*
X76072366Y-92913161D01*
X76048557Y-92865542D01*
X76024747Y-92770304D01*
X76024747Y-92698876D01*
X76048557Y-92603638D01*
X76072366Y-92556019D01*
X76119985Y-92508400D01*
X76191414Y-92484590D01*
X76239033Y-92484590D01*
X76310461Y-92508400D01*
X76334271Y-92532209D01*
X76810461Y-92984590D02*
X76524747Y-92984590D01*
X76667604Y-92984590D02*
X76667604Y-92484590D01*
X76619985Y-92556019D01*
X76572366Y-92603638D01*
X76524747Y-92627447D01*
X76977128Y-92484590D02*
X77286652Y-92484590D01*
X77119985Y-92675066D01*
X77191414Y-92675066D01*
X77239033Y-92698876D01*
X77262842Y-92722685D01*
X77286652Y-92770304D01*
X77286652Y-92889352D01*
X77262842Y-92936971D01*
X77239033Y-92960780D01*
X77191414Y-92984590D01*
X77048557Y-92984590D01*
X77000938Y-92960780D01*
X76977128Y-92936971D01*
%TO.C,C12*%
X81466571Y-93053671D02*
X81442761Y-93077480D01*
X81371333Y-93101290D01*
X81323714Y-93101290D01*
X81252285Y-93077480D01*
X81204666Y-93029861D01*
X81180857Y-92982242D01*
X81157047Y-92887004D01*
X81157047Y-92815576D01*
X81180857Y-92720338D01*
X81204666Y-92672719D01*
X81252285Y-92625100D01*
X81323714Y-92601290D01*
X81371333Y-92601290D01*
X81442761Y-92625100D01*
X81466571Y-92648909D01*
X81942761Y-93101290D02*
X81657047Y-93101290D01*
X81799904Y-93101290D02*
X81799904Y-92601290D01*
X81752285Y-92672719D01*
X81704666Y-92720338D01*
X81657047Y-92744147D01*
X82133238Y-92648909D02*
X82157047Y-92625100D01*
X82204666Y-92601290D01*
X82323714Y-92601290D01*
X82371333Y-92625100D01*
X82395142Y-92648909D01*
X82418952Y-92696528D01*
X82418952Y-92744147D01*
X82395142Y-92815576D01*
X82109428Y-93101290D01*
X82418952Y-93101290D01*
%TO.C,C9*%
X88232466Y-111887771D02*
X88208657Y-111911580D01*
X88137228Y-111935390D01*
X88089609Y-111935390D01*
X88018180Y-111911580D01*
X87970561Y-111863961D01*
X87946752Y-111816342D01*
X87922942Y-111721104D01*
X87922942Y-111649676D01*
X87946752Y-111554438D01*
X87970561Y-111506819D01*
X88018180Y-111459200D01*
X88089609Y-111435390D01*
X88137228Y-111435390D01*
X88208657Y-111459200D01*
X88232466Y-111483009D01*
X88470561Y-111935390D02*
X88565800Y-111935390D01*
X88613419Y-111911580D01*
X88637228Y-111887771D01*
X88684847Y-111816342D01*
X88708657Y-111721104D01*
X88708657Y-111530628D01*
X88684847Y-111483009D01*
X88661038Y-111459200D01*
X88613419Y-111435390D01*
X88518180Y-111435390D01*
X88470561Y-111459200D01*
X88446752Y-111483009D01*
X88422942Y-111530628D01*
X88422942Y-111649676D01*
X88446752Y-111697295D01*
X88470561Y-111721104D01*
X88518180Y-111744914D01*
X88613419Y-111744914D01*
X88661038Y-111721104D01*
X88684847Y-111697295D01*
X88708657Y-111649676D01*
%TO.C,C8*%
X90924866Y-93376251D02*
X90901057Y-93400060D01*
X90829628Y-93423870D01*
X90782009Y-93423870D01*
X90710580Y-93400060D01*
X90662961Y-93352441D01*
X90639152Y-93304822D01*
X90615342Y-93209584D01*
X90615342Y-93138156D01*
X90639152Y-93042918D01*
X90662961Y-92995299D01*
X90710580Y-92947680D01*
X90782009Y-92923870D01*
X90829628Y-92923870D01*
X90901057Y-92947680D01*
X90924866Y-92971489D01*
X91210580Y-93138156D02*
X91162961Y-93114346D01*
X91139152Y-93090537D01*
X91115342Y-93042918D01*
X91115342Y-93019108D01*
X91139152Y-92971489D01*
X91162961Y-92947680D01*
X91210580Y-92923870D01*
X91305819Y-92923870D01*
X91353438Y-92947680D01*
X91377247Y-92971489D01*
X91401057Y-93019108D01*
X91401057Y-93042918D01*
X91377247Y-93090537D01*
X91353438Y-93114346D01*
X91305819Y-93138156D01*
X91210580Y-93138156D01*
X91162961Y-93161965D01*
X91139152Y-93185775D01*
X91115342Y-93233394D01*
X91115342Y-93328632D01*
X91139152Y-93376251D01*
X91162961Y-93400060D01*
X91210580Y-93423870D01*
X91305819Y-93423870D01*
X91353438Y-93400060D01*
X91377247Y-93376251D01*
X91401057Y-93328632D01*
X91401057Y-93233394D01*
X91377247Y-93185775D01*
X91353438Y-93161965D01*
X91305819Y-93138156D01*
%TO.C,R17*%
X60714771Y-109750990D02*
X60548104Y-109512895D01*
X60429057Y-109750990D02*
X60429057Y-109250990D01*
X60619533Y-109250990D01*
X60667152Y-109274800D01*
X60690961Y-109298609D01*
X60714771Y-109346228D01*
X60714771Y-109417657D01*
X60690961Y-109465276D01*
X60667152Y-109489085D01*
X60619533Y-109512895D01*
X60429057Y-109512895D01*
X61190961Y-109750990D02*
X60905247Y-109750990D01*
X61048104Y-109750990D02*
X61048104Y-109250990D01*
X61000485Y-109322419D01*
X60952866Y-109370038D01*
X60905247Y-109393847D01*
X61357628Y-109250990D02*
X61690961Y-109250990D01*
X61476676Y-109750990D01*
%TO.C,R16*%
X60625871Y-108315890D02*
X60459204Y-108077795D01*
X60340157Y-108315890D02*
X60340157Y-107815890D01*
X60530633Y-107815890D01*
X60578252Y-107839700D01*
X60602061Y-107863509D01*
X60625871Y-107911128D01*
X60625871Y-107982557D01*
X60602061Y-108030176D01*
X60578252Y-108053985D01*
X60530633Y-108077795D01*
X60340157Y-108077795D01*
X61102061Y-108315890D02*
X60816347Y-108315890D01*
X60959204Y-108315890D02*
X60959204Y-107815890D01*
X60911585Y-107887319D01*
X60863966Y-107934938D01*
X60816347Y-107958747D01*
X61530633Y-107815890D02*
X61435395Y-107815890D01*
X61387776Y-107839700D01*
X61363966Y-107863509D01*
X61316347Y-107934938D01*
X61292538Y-108030176D01*
X61292538Y-108220652D01*
X61316347Y-108268271D01*
X61340157Y-108292080D01*
X61387776Y-108315890D01*
X61483014Y-108315890D01*
X61530633Y-108292080D01*
X61554442Y-108268271D01*
X61578252Y-108220652D01*
X61578252Y-108101604D01*
X61554442Y-108053985D01*
X61530633Y-108030176D01*
X61483014Y-108006366D01*
X61387776Y-108006366D01*
X61340157Y-108030176D01*
X61316347Y-108053985D01*
X61292538Y-108101604D01*
%TO.C,R7*%
X80335606Y-89298910D02*
X80168940Y-89060815D01*
X80049892Y-89298910D02*
X80049892Y-88798910D01*
X80240368Y-88798910D01*
X80287987Y-88822720D01*
X80311797Y-88846529D01*
X80335606Y-88894148D01*
X80335606Y-88965577D01*
X80311797Y-89013196D01*
X80287987Y-89037005D01*
X80240368Y-89060815D01*
X80049892Y-89060815D01*
X80502273Y-88798910D02*
X80835606Y-88798910D01*
X80621320Y-89298910D01*
%TO.C,R6*%
X82329506Y-89367490D02*
X82162840Y-89129395D01*
X82043792Y-89367490D02*
X82043792Y-88867490D01*
X82234268Y-88867490D01*
X82281887Y-88891300D01*
X82305697Y-88915109D01*
X82329506Y-88962728D01*
X82329506Y-89034157D01*
X82305697Y-89081776D01*
X82281887Y-89105585D01*
X82234268Y-89129395D01*
X82043792Y-89129395D01*
X82758078Y-88867490D02*
X82662840Y-88867490D01*
X82615220Y-88891300D01*
X82591411Y-88915109D01*
X82543792Y-88986538D01*
X82519982Y-89081776D01*
X82519982Y-89272252D01*
X82543792Y-89319871D01*
X82567601Y-89343680D01*
X82615220Y-89367490D01*
X82710459Y-89367490D01*
X82758078Y-89343680D01*
X82781887Y-89319871D01*
X82805697Y-89272252D01*
X82805697Y-89153204D01*
X82781887Y-89105585D01*
X82758078Y-89081776D01*
X82710459Y-89057966D01*
X82615220Y-89057966D01*
X82567601Y-89081776D01*
X82543792Y-89105585D01*
X82519982Y-89153204D01*
%TO.C,U3*%
X86398147Y-90315290D02*
X86398147Y-90720052D01*
X86421957Y-90767671D01*
X86445766Y-90791480D01*
X86493385Y-90815290D01*
X86588623Y-90815290D01*
X86636242Y-90791480D01*
X86660052Y-90767671D01*
X86683861Y-90720052D01*
X86683861Y-90315290D01*
X86874338Y-90315290D02*
X87183861Y-90315290D01*
X87017195Y-90505766D01*
X87088623Y-90505766D01*
X87136242Y-90529576D01*
X87160052Y-90553385D01*
X87183861Y-90601004D01*
X87183861Y-90720052D01*
X87160052Y-90767671D01*
X87136242Y-90791480D01*
X87088623Y-90815290D01*
X86945766Y-90815290D01*
X86898147Y-90791480D01*
X86874338Y-90767671D01*
%TO.C,U1*%
X75747927Y-86365590D02*
X75747927Y-86770352D01*
X75771737Y-86817971D01*
X75795546Y-86841780D01*
X75843165Y-86865590D01*
X75938403Y-86865590D01*
X75986022Y-86841780D01*
X76009832Y-86817971D01*
X76033641Y-86770352D01*
X76033641Y-86365590D01*
X76533641Y-86865590D02*
X76247927Y-86865590D01*
X76390784Y-86865590D02*
X76390784Y-86365590D01*
X76343165Y-86437019D01*
X76295546Y-86484638D01*
X76247927Y-86508447D01*
%TO.C,U6*%
X81076847Y-109377990D02*
X81076847Y-109782752D01*
X81100657Y-109830371D01*
X81124466Y-109854180D01*
X81172085Y-109877990D01*
X81267323Y-109877990D01*
X81314942Y-109854180D01*
X81338752Y-109830371D01*
X81362561Y-109782752D01*
X81362561Y-109377990D01*
X81814942Y-109377990D02*
X81719704Y-109377990D01*
X81672085Y-109401800D01*
X81648276Y-109425609D01*
X81600657Y-109497038D01*
X81576847Y-109592276D01*
X81576847Y-109782752D01*
X81600657Y-109830371D01*
X81624466Y-109854180D01*
X81672085Y-109877990D01*
X81767323Y-109877990D01*
X81814942Y-109854180D01*
X81838752Y-109830371D01*
X81862561Y-109782752D01*
X81862561Y-109663704D01*
X81838752Y-109616085D01*
X81814942Y-109592276D01*
X81767323Y-109568466D01*
X81672085Y-109568466D01*
X81624466Y-109592276D01*
X81600657Y-109616085D01*
X81576847Y-109663704D01*
%TO.C,U11*%
X72492312Y-112291370D02*
X72492312Y-112696132D01*
X72516121Y-112743751D01*
X72539931Y-112767560D01*
X72587550Y-112791370D01*
X72682788Y-112791370D01*
X72730407Y-112767560D01*
X72754217Y-112743751D01*
X72778026Y-112696132D01*
X72778026Y-112291370D01*
X73278026Y-112791370D02*
X72992312Y-112791370D01*
X73135169Y-112791370D02*
X73135169Y-112291370D01*
X73087550Y-112362799D01*
X73039931Y-112410418D01*
X72992312Y-112434227D01*
X73754217Y-112791370D02*
X73468502Y-112791370D01*
X73611360Y-112791370D02*
X73611360Y-112291370D01*
X73563740Y-112362799D01*
X73516121Y-112410418D01*
X73468502Y-112434227D01*
%TO.C,R11*%
X89023071Y-90764490D02*
X88856404Y-90526395D01*
X88737357Y-90764490D02*
X88737357Y-90264490D01*
X88927833Y-90264490D01*
X88975452Y-90288300D01*
X88999261Y-90312109D01*
X89023071Y-90359728D01*
X89023071Y-90431157D01*
X88999261Y-90478776D01*
X88975452Y-90502585D01*
X88927833Y-90526395D01*
X88737357Y-90526395D01*
X89499261Y-90764490D02*
X89213547Y-90764490D01*
X89356404Y-90764490D02*
X89356404Y-90264490D01*
X89308785Y-90335919D01*
X89261166Y-90383538D01*
X89213547Y-90407347D01*
X89975452Y-90764490D02*
X89689738Y-90764490D01*
X89832595Y-90764490D02*
X89832595Y-90264490D01*
X89784976Y-90335919D01*
X89737357Y-90383538D01*
X89689738Y-90407347D01*
%TO.C,R10*%
X65020071Y-91831290D02*
X64853404Y-91593195D01*
X64734357Y-91831290D02*
X64734357Y-91331290D01*
X64924833Y-91331290D01*
X64972452Y-91355100D01*
X64996261Y-91378909D01*
X65020071Y-91426528D01*
X65020071Y-91497957D01*
X64996261Y-91545576D01*
X64972452Y-91569385D01*
X64924833Y-91593195D01*
X64734357Y-91593195D01*
X65496261Y-91831290D02*
X65210547Y-91831290D01*
X65353404Y-91831290D02*
X65353404Y-91331290D01*
X65305785Y-91402719D01*
X65258166Y-91450338D01*
X65210547Y-91474147D01*
X65805785Y-91331290D02*
X65853404Y-91331290D01*
X65901023Y-91355100D01*
X65924833Y-91378909D01*
X65948642Y-91426528D01*
X65972452Y-91521766D01*
X65972452Y-91640814D01*
X65948642Y-91736052D01*
X65924833Y-91783671D01*
X65901023Y-91807480D01*
X65853404Y-91831290D01*
X65805785Y-91831290D01*
X65758166Y-91807480D01*
X65734357Y-91783671D01*
X65710547Y-91736052D01*
X65686738Y-91640814D01*
X65686738Y-91521766D01*
X65710547Y-91426528D01*
X65734357Y-91378909D01*
X65758166Y-91355100D01*
X65805785Y-91331290D01*
%TO.C,R14*%
X68068071Y-102257990D02*
X67901404Y-102019895D01*
X67782357Y-102257990D02*
X67782357Y-101757990D01*
X67972833Y-101757990D01*
X68020452Y-101781800D01*
X68044261Y-101805609D01*
X68068071Y-101853228D01*
X68068071Y-101924657D01*
X68044261Y-101972276D01*
X68020452Y-101996085D01*
X67972833Y-102019895D01*
X67782357Y-102019895D01*
X68544261Y-102257990D02*
X68258547Y-102257990D01*
X68401404Y-102257990D02*
X68401404Y-101757990D01*
X68353785Y-101829419D01*
X68306166Y-101877038D01*
X68258547Y-101900847D01*
X68972833Y-101924657D02*
X68972833Y-102257990D01*
X68853785Y-101734180D02*
X68734738Y-102091323D01*
X69044261Y-102091323D01*
%TO.C,R4*%
X84244666Y-109814490D02*
X84078000Y-109576395D01*
X83958952Y-109814490D02*
X83958952Y-109314490D01*
X84149428Y-109314490D01*
X84197047Y-109338300D01*
X84220857Y-109362109D01*
X84244666Y-109409728D01*
X84244666Y-109481157D01*
X84220857Y-109528776D01*
X84197047Y-109552585D01*
X84149428Y-109576395D01*
X83958952Y-109576395D01*
X84673238Y-109481157D02*
X84673238Y-109814490D01*
X84554190Y-109290680D02*
X84435142Y-109647823D01*
X84744666Y-109647823D01*
%TO.C,R15*%
X65058171Y-108277790D02*
X64891504Y-108039695D01*
X64772457Y-108277790D02*
X64772457Y-107777790D01*
X64962933Y-107777790D01*
X65010552Y-107801600D01*
X65034361Y-107825409D01*
X65058171Y-107873028D01*
X65058171Y-107944457D01*
X65034361Y-107992076D01*
X65010552Y-108015885D01*
X64962933Y-108039695D01*
X64772457Y-108039695D01*
X65534361Y-108277790D02*
X65248647Y-108277790D01*
X65391504Y-108277790D02*
X65391504Y-107777790D01*
X65343885Y-107849219D01*
X65296266Y-107896838D01*
X65248647Y-107920647D01*
X65986742Y-107777790D02*
X65748647Y-107777790D01*
X65724838Y-108015885D01*
X65748647Y-107992076D01*
X65796266Y-107968266D01*
X65915314Y-107968266D01*
X65962933Y-107992076D01*
X65986742Y-108015885D01*
X66010552Y-108063504D01*
X66010552Y-108182552D01*
X65986742Y-108230171D01*
X65962933Y-108253980D01*
X65915314Y-108277790D01*
X65796266Y-108277790D01*
X65748647Y-108253980D01*
X65724838Y-108230171D01*
%TO.C,R13*%
X65083571Y-111655990D02*
X64916904Y-111417895D01*
X64797857Y-111655990D02*
X64797857Y-111155990D01*
X64988333Y-111155990D01*
X65035952Y-111179800D01*
X65059761Y-111203609D01*
X65083571Y-111251228D01*
X65083571Y-111322657D01*
X65059761Y-111370276D01*
X65035952Y-111394085D01*
X64988333Y-111417895D01*
X64797857Y-111417895D01*
X65559761Y-111655990D02*
X65274047Y-111655990D01*
X65416904Y-111655990D02*
X65416904Y-111155990D01*
X65369285Y-111227419D01*
X65321666Y-111275038D01*
X65274047Y-111298847D01*
X65726428Y-111155990D02*
X66035952Y-111155990D01*
X65869285Y-111346466D01*
X65940714Y-111346466D01*
X65988333Y-111370276D01*
X66012142Y-111394085D01*
X66035952Y-111441704D01*
X66035952Y-111560752D01*
X66012142Y-111608371D01*
X65988333Y-111632180D01*
X65940714Y-111655990D01*
X65797857Y-111655990D01*
X65750238Y-111632180D01*
X65726428Y-111608371D01*
%TO.C,R1*%
X64229466Y-94206090D02*
X64062800Y-93967995D01*
X63943752Y-94206090D02*
X63943752Y-93706090D01*
X64134228Y-93706090D01*
X64181847Y-93729900D01*
X64205657Y-93753709D01*
X64229466Y-93801328D01*
X64229466Y-93872757D01*
X64205657Y-93920376D01*
X64181847Y-93944185D01*
X64134228Y-93967995D01*
X63943752Y-93967995D01*
X64705657Y-94206090D02*
X64419942Y-94206090D01*
X64562800Y-94206090D02*
X64562800Y-93706090D01*
X64515180Y-93777519D01*
X64467561Y-93825138D01*
X64419942Y-93848947D01*
%TO.C,Q1*%
X61725180Y-94761809D02*
X61677561Y-94738000D01*
X61629942Y-94690380D01*
X61558514Y-94618952D01*
X61510895Y-94595142D01*
X61463276Y-94595142D01*
X61487085Y-94714190D02*
X61439466Y-94690380D01*
X61391847Y-94642761D01*
X61368038Y-94547523D01*
X61368038Y-94380857D01*
X61391847Y-94285619D01*
X61439466Y-94238000D01*
X61487085Y-94214190D01*
X61582323Y-94214190D01*
X61629942Y-94238000D01*
X61677561Y-94285619D01*
X61701371Y-94380857D01*
X61701371Y-94547523D01*
X61677561Y-94642761D01*
X61629942Y-94690380D01*
X61582323Y-94714190D01*
X61487085Y-94714190D01*
X62177561Y-94714190D02*
X61891847Y-94714190D01*
X62034704Y-94714190D02*
X62034704Y-94214190D01*
X61987085Y-94285619D01*
X61939466Y-94333238D01*
X61891847Y-94357047D01*
%TO.C,D1*%
X65292252Y-109700190D02*
X65292252Y-109200190D01*
X65411300Y-109200190D01*
X65482728Y-109224000D01*
X65530347Y-109271619D01*
X65554157Y-109319238D01*
X65577966Y-109414476D01*
X65577966Y-109485904D01*
X65554157Y-109581142D01*
X65530347Y-109628761D01*
X65482728Y-109676380D01*
X65411300Y-109700190D01*
X65292252Y-109700190D01*
X66054157Y-109700190D02*
X65768442Y-109700190D01*
X65911300Y-109700190D02*
X65911300Y-109200190D01*
X65863680Y-109271619D01*
X65816061Y-109319238D01*
X65768442Y-109343047D01*
%TO.C,C4*%
X65829666Y-105931471D02*
X65805857Y-105955280D01*
X65734428Y-105979090D01*
X65686809Y-105979090D01*
X65615380Y-105955280D01*
X65567761Y-105907661D01*
X65543952Y-105860042D01*
X65520142Y-105764804D01*
X65520142Y-105693376D01*
X65543952Y-105598138D01*
X65567761Y-105550519D01*
X65615380Y-105502900D01*
X65686809Y-105479090D01*
X65734428Y-105479090D01*
X65805857Y-105502900D01*
X65829666Y-105526709D01*
X66258238Y-105645757D02*
X66258238Y-105979090D01*
X66139190Y-105455280D02*
X66020142Y-105812423D01*
X66329666Y-105812423D01*
%TO.C,C3*%
X75621366Y-107557071D02*
X75597557Y-107580880D01*
X75526128Y-107604690D01*
X75478509Y-107604690D01*
X75407080Y-107580880D01*
X75359461Y-107533261D01*
X75335652Y-107485642D01*
X75311842Y-107390404D01*
X75311842Y-107318976D01*
X75335652Y-107223738D01*
X75359461Y-107176119D01*
X75407080Y-107128500D01*
X75478509Y-107104690D01*
X75526128Y-107104690D01*
X75597557Y-107128500D01*
X75621366Y-107152309D01*
X75788033Y-107104690D02*
X76097557Y-107104690D01*
X75930890Y-107295166D01*
X76002319Y-107295166D01*
X76049938Y-107318976D01*
X76073747Y-107342785D01*
X76097557Y-107390404D01*
X76097557Y-107509452D01*
X76073747Y-107557071D01*
X76049938Y-107580880D01*
X76002319Y-107604690D01*
X75859461Y-107604690D01*
X75811842Y-107580880D01*
X75788033Y-107557071D01*
%TO.C,C2*%
X69532986Y-108542591D02*
X69509177Y-108566400D01*
X69437748Y-108590210D01*
X69390129Y-108590210D01*
X69318700Y-108566400D01*
X69271081Y-108518781D01*
X69247272Y-108471162D01*
X69223462Y-108375924D01*
X69223462Y-108304496D01*
X69247272Y-108209258D01*
X69271081Y-108161639D01*
X69318700Y-108114020D01*
X69390129Y-108090210D01*
X69437748Y-108090210D01*
X69509177Y-108114020D01*
X69532986Y-108137829D01*
X69723462Y-108137829D02*
X69747272Y-108114020D01*
X69794891Y-108090210D01*
X69913939Y-108090210D01*
X69961558Y-108114020D01*
X69985367Y-108137829D01*
X70009177Y-108185448D01*
X70009177Y-108233067D01*
X69985367Y-108304496D01*
X69699653Y-108590210D01*
X70009177Y-108590210D01*
%TO.C,C1*%
X68674466Y-113030771D02*
X68650657Y-113054580D01*
X68579228Y-113078390D01*
X68531609Y-113078390D01*
X68460180Y-113054580D01*
X68412561Y-113006961D01*
X68388752Y-112959342D01*
X68364942Y-112864104D01*
X68364942Y-112792676D01*
X68388752Y-112697438D01*
X68412561Y-112649819D01*
X68460180Y-112602200D01*
X68531609Y-112578390D01*
X68579228Y-112578390D01*
X68650657Y-112602200D01*
X68674466Y-112626009D01*
X69150657Y-113078390D02*
X68864942Y-113078390D01*
X69007800Y-113078390D02*
X69007800Y-112578390D01*
X68960180Y-112649819D01*
X68912561Y-112697438D01*
X68864942Y-112721247D01*
%TO.C,R9*%
X61194166Y-111109890D02*
X61027500Y-110871795D01*
X60908452Y-111109890D02*
X60908452Y-110609890D01*
X61098928Y-110609890D01*
X61146547Y-110633700D01*
X61170357Y-110657509D01*
X61194166Y-110705128D01*
X61194166Y-110776557D01*
X61170357Y-110824176D01*
X61146547Y-110847985D01*
X61098928Y-110871795D01*
X60908452Y-110871795D01*
X61432261Y-111109890D02*
X61527500Y-111109890D01*
X61575119Y-111086080D01*
X61598928Y-111062271D01*
X61646547Y-110990842D01*
X61670357Y-110895604D01*
X61670357Y-110705128D01*
X61646547Y-110657509D01*
X61622738Y-110633700D01*
X61575119Y-110609890D01*
X61479880Y-110609890D01*
X61432261Y-110633700D01*
X61408452Y-110657509D01*
X61384642Y-110705128D01*
X61384642Y-110824176D01*
X61408452Y-110871795D01*
X61432261Y-110895604D01*
X61479880Y-110919414D01*
X61575119Y-110919414D01*
X61622738Y-110895604D01*
X61646547Y-110871795D01*
X61670357Y-110824176D01*
%TO.C,R8*%
X91420166Y-109941490D02*
X91253500Y-109703395D01*
X91134452Y-109941490D02*
X91134452Y-109441490D01*
X91324928Y-109441490D01*
X91372547Y-109465300D01*
X91396357Y-109489109D01*
X91420166Y-109536728D01*
X91420166Y-109608157D01*
X91396357Y-109655776D01*
X91372547Y-109679585D01*
X91324928Y-109703395D01*
X91134452Y-109703395D01*
X91705880Y-109655776D02*
X91658261Y-109631966D01*
X91634452Y-109608157D01*
X91610642Y-109560538D01*
X91610642Y-109536728D01*
X91634452Y-109489109D01*
X91658261Y-109465300D01*
X91705880Y-109441490D01*
X91801119Y-109441490D01*
X91848738Y-109465300D01*
X91872547Y-109489109D01*
X91896357Y-109536728D01*
X91896357Y-109560538D01*
X91872547Y-109608157D01*
X91848738Y-109631966D01*
X91801119Y-109655776D01*
X91705880Y-109655776D01*
X91658261Y-109679585D01*
X91634452Y-109703395D01*
X91610642Y-109751014D01*
X91610642Y-109846252D01*
X91634452Y-109893871D01*
X91658261Y-109917680D01*
X91705880Y-109941490D01*
X91801119Y-109941490D01*
X91848738Y-109917680D01*
X91872547Y-109893871D01*
X91896357Y-109846252D01*
X91896357Y-109751014D01*
X91872547Y-109703395D01*
X91848738Y-109679585D01*
X91801119Y-109655776D01*
%TO.C,U7*%
X83955047Y-101326190D02*
X83955047Y-101730952D01*
X83978857Y-101778571D01*
X84002666Y-101802380D01*
X84050285Y-101826190D01*
X84145523Y-101826190D01*
X84193142Y-101802380D01*
X84216952Y-101778571D01*
X84240761Y-101730952D01*
X84240761Y-101326190D01*
X84431238Y-101326190D02*
X84764571Y-101326190D01*
X84550285Y-101826190D01*
%TD*%
M02*
