M48
; DRILL file {KiCad 5.1.5+dfsg1-2~bpo10+1} date Thu Nov 19 20:42:32 2020
; FORMAT={-:-/ absolute / metric / decimal}
; #@! TF.CreationDate,2020-11-19T20:42:32+00:00
; #@! TF.GenerationSoftware,Kicad,Pcbnew,5.1.5+dfsg1-2~bpo10+1
; #@! TF.FileFunction,Plated,1,4,PTH
FMAT,2
METRIC
T1C0.330
T2C0.750
%
G90
G05
T1
X58.991Y-99.035
X59.03Y-101.448
X59.182Y-97.79
X59.842Y-107.62
X60.274Y-108.56
X60.503Y-93.878
X60.833Y-109.652
X60.98Y-98.298
X61.062Y-108.001
X61.265Y-92.558
X61.265Y-110.642
X62.23Y-100.838
X62.738Y-93.726
X62.789Y-112.776
X62.992Y-90.119
X63.119Y-101.498
X63.398Y-103.327
X63.449Y-113.487
X63.562Y-100.028
X63.644Y-104.964
X63.703Y-89.408
X63.703Y-106.883
X63.854Y-98.391
X64.008Y-99.263
X64.618Y-93.066
X65.075Y-111.557
X65.126Y-108.153
X65.329Y-109.982
X65.786Y-91.897
X66.802Y-91.338
X68.123Y-89.916
X68.631Y-108.001
X68.631Y-112.776
X68.783Y-97.155
X69.85Y-107.442
X70.155Y-85.242
X70.206Y-100.178
X70.307Y-117.907
X70.358Y-98.392
X70.714Y-97.536
X70.968Y-116.23
X71.018Y-96.266
X71.069Y-94.437
X71.222Y-118.212
X71.4Y-102.159
X71.425Y-107.137
X71.425Y-107.899
X71.425Y-108.661
X71.425Y-109.423
X71.628Y-114.452
X71.73Y-110.917
X72.781Y-100.548
X73.457Y-97.231
X74.473Y-103.2
X74.498Y-98.247
X74.727Y-91.897
X74.727Y-109.017
X74.778Y-100.127
X75.082Y-87.274
X75.395Y-106.532
X75.614Y-95.273
X76.251Y-109.017
X76.336Y-98.044
X76.336Y-99.06
X76.336Y-100.076
X76.657Y-89.662
X76.911Y-111.963
X77.078Y-93.182
X77.165Y-95.098
X77.165Y-108.001
X77.419Y-88.595
X77.592Y-92.311
X78.588Y-96.825
X78.588Y-101.143
X78.645Y-91.228
X78.74Y-103.892
X78.74Y-109.372
X78.994Y-106.067
X79.045Y-93.167
X80.061Y-109.982
X80.315Y-89.256
X80.366Y-84.684
X80.404Y-111.905
X80.569Y-92.456
X80.857Y-86.275
X80.924Y-118.415
X81.229Y-84.887
X81.432Y-109.88
X81.534Y-116.027
X81.585Y-111.354
X81.636Y-114.198
X81.89Y-118.11
X82.245Y-85.192
X82.245Y-112.585
X82.753Y-96.368
X82.804Y-106.426
X82.956Y-105.342
X83.058Y-91.846
X83.058Y-91.846
X83.464Y-88.544
X83.515Y-114.706
X83.82Y-106.832
X83.871Y-96.876
X84.078Y-110.616
X84.277Y-90.678
X84.836Y-97.333
X85.09Y-89.285
X85.242Y-113.944
X85.446Y-93.777
X85.7Y-106.223
X85.852Y-95.127
X86.157Y-104.496
X86.36Y-97.18
X86.563Y-90.678
X86.867Y-94.484
X87.122Y-110.134
X87.376Y-96.774
X87.528Y-113.132
X87.884Y-103.734
X87.935Y-100.94
X88.189Y-90.526
X88.443Y-113.944
X88.722Y-110.084
X88.798Y-106.172
X88.9Y-108.1
X88.951Y-96.571
X88.951Y-104.597
X89.154Y-113.335
X89.662Y-90.449
X89.865Y-112.497
X90.865Y-96.083
X90.865Y-104.37
X90.932Y-105.715
X91.135Y-110.68
X91.542Y-93.421
X91.592Y-109.626
T2
G00X73.152Y-117.567
M15
G01X73.152Y-118.017
M16
G05
G00X79.248Y-117.567
M15
G01X79.248Y-118.017
M16
G05
T0
M30
