%TF.GenerationSoftware,KiCad,Pcbnew,5.1.7+dfsg1-1~bpo10+1*%
%TF.CreationDate,Date%
%TF.ProjectId,osw-light,6f73772d-6c69-4676-9874-2e6b69636164,3.3*%
%TF.SameCoordinates,Original*%
%TF.FileFunction,Legend,Bot*%
%TF.FilePolarity,Positive*%
%FSLAX46Y46*%
G04 Gerber Fmt 4.6, Leading zero omitted, Abs format (unit mm)*
G04 Created by KiCad*
%MOMM*%
%LPD*%
G01*
G04 APERTURE LIST*
%ADD10C,0.200000*%
%ADD11C,0.300000*%
%ADD12C,0.010000*%
%ADD13C,0.150000*%
%ADD14C,0.100000*%
G04 APERTURE END LIST*
D10*
X86227014Y-113304580D02*
X86322252Y-113256961D01*
X86369871Y-113209342D01*
X86417490Y-113114104D01*
X86417490Y-112828390D01*
X86369871Y-112733152D01*
X86322252Y-112685533D01*
X86227014Y-112637914D01*
X86084157Y-112637914D01*
X85988919Y-112685533D01*
X85941300Y-112733152D01*
X85893680Y-112828390D01*
X85893680Y-113114104D01*
X85941300Y-113209342D01*
X85988919Y-113256961D01*
X86084157Y-113304580D01*
X86227014Y-113304580D01*
X85465109Y-112637914D02*
X85465109Y-113637914D01*
X85465109Y-112685533D02*
X85369871Y-112637914D01*
X85179395Y-112637914D01*
X85084157Y-112685533D01*
X85036538Y-112733152D01*
X84988919Y-112828390D01*
X84988919Y-113114104D01*
X85036538Y-113209342D01*
X85084157Y-113256961D01*
X85179395Y-113304580D01*
X85369871Y-113304580D01*
X85465109Y-113256961D01*
X84179395Y-113256961D02*
X84274633Y-113304580D01*
X84465109Y-113304580D01*
X84560347Y-113256961D01*
X84607966Y-113161723D01*
X84607966Y-112780771D01*
X84560347Y-112685533D01*
X84465109Y-112637914D01*
X84274633Y-112637914D01*
X84179395Y-112685533D01*
X84131776Y-112780771D01*
X84131776Y-112876009D01*
X84607966Y-112971247D01*
X83703204Y-112637914D02*
X83703204Y-113304580D01*
X83703204Y-112733152D02*
X83655585Y-112685533D01*
X83560347Y-112637914D01*
X83417490Y-112637914D01*
X83322252Y-112685533D01*
X83274633Y-112780771D01*
X83274633Y-113304580D01*
X82798442Y-112923628D02*
X82036538Y-112923628D01*
X81607966Y-113256961D02*
X81512728Y-113304580D01*
X81322252Y-113304580D01*
X81227014Y-113256961D01*
X81179395Y-113161723D01*
X81179395Y-113114104D01*
X81227014Y-113018866D01*
X81322252Y-112971247D01*
X81465109Y-112971247D01*
X81560347Y-112923628D01*
X81607966Y-112828390D01*
X81607966Y-112780771D01*
X81560347Y-112685533D01*
X81465109Y-112637914D01*
X81322252Y-112637914D01*
X81227014Y-112685533D01*
X80750823Y-113304580D02*
X80750823Y-112637914D01*
X80750823Y-112733152D02*
X80703204Y-112685533D01*
X80607966Y-112637914D01*
X80465109Y-112637914D01*
X80369871Y-112685533D01*
X80322252Y-112780771D01*
X80322252Y-113304580D01*
X80322252Y-112780771D02*
X80274633Y-112685533D01*
X80179395Y-112637914D01*
X80036538Y-112637914D01*
X79941300Y-112685533D01*
X79893680Y-112780771D01*
X79893680Y-113304580D01*
X78988919Y-113304580D02*
X78988919Y-112780771D01*
X79036538Y-112685533D01*
X79131776Y-112637914D01*
X79322252Y-112637914D01*
X79417490Y-112685533D01*
X78988919Y-113256961D02*
X79084157Y-113304580D01*
X79322252Y-113304580D01*
X79417490Y-113256961D01*
X79465109Y-113161723D01*
X79465109Y-113066485D01*
X79417490Y-112971247D01*
X79322252Y-112923628D01*
X79084157Y-112923628D01*
X78988919Y-112876009D01*
X78512728Y-113304580D02*
X78512728Y-112637914D01*
X78512728Y-112828390D02*
X78465109Y-112733152D01*
X78417490Y-112685533D01*
X78322252Y-112637914D01*
X78227014Y-112637914D01*
X78036538Y-112637914D02*
X77655585Y-112637914D01*
X77893680Y-112304580D02*
X77893680Y-113161723D01*
X77846061Y-113256961D01*
X77750823Y-113304580D01*
X77655585Y-113304580D01*
X77417490Y-112637914D02*
X77227014Y-113304580D01*
X77036538Y-112828390D01*
X76846061Y-113304580D01*
X76655585Y-112637914D01*
X75846061Y-113304580D02*
X75846061Y-112780771D01*
X75893680Y-112685533D01*
X75988919Y-112637914D01*
X76179395Y-112637914D01*
X76274633Y-112685533D01*
X75846061Y-113256961D02*
X75941300Y-113304580D01*
X76179395Y-113304580D01*
X76274633Y-113256961D01*
X76322252Y-113161723D01*
X76322252Y-113066485D01*
X76274633Y-112971247D01*
X76179395Y-112923628D01*
X75941300Y-112923628D01*
X75846061Y-112876009D01*
X75512728Y-112637914D02*
X75131776Y-112637914D01*
X75369871Y-112304580D02*
X75369871Y-113161723D01*
X75322252Y-113256961D01*
X75227014Y-113304580D01*
X75131776Y-113304580D01*
X74369871Y-113256961D02*
X74465109Y-113304580D01*
X74655585Y-113304580D01*
X74750823Y-113256961D01*
X74798442Y-113209342D01*
X74846061Y-113114104D01*
X74846061Y-112828390D01*
X74798442Y-112733152D01*
X74750823Y-112685533D01*
X74655585Y-112637914D01*
X74465109Y-112637914D01*
X74369871Y-112685533D01*
X73941300Y-113304580D02*
X73941300Y-112304580D01*
X73512728Y-113304580D02*
X73512728Y-112780771D01*
X73560347Y-112685533D01*
X73655585Y-112637914D01*
X73798442Y-112637914D01*
X73893680Y-112685533D01*
X73941300Y-112733152D01*
X73036538Y-113209342D02*
X72988919Y-113256961D01*
X73036538Y-113304580D01*
X73084157Y-113256961D01*
X73036538Y-113209342D01*
X73036538Y-113304580D01*
X72131776Y-112637914D02*
X72131776Y-113447438D01*
X72179395Y-113542676D01*
X72227014Y-113590295D01*
X72322252Y-113637914D01*
X72465109Y-113637914D01*
X72560347Y-113590295D01*
X72131776Y-113256961D02*
X72227014Y-113304580D01*
X72417490Y-113304580D01*
X72512728Y-113256961D01*
X72560347Y-113209342D01*
X72607966Y-113114104D01*
X72607966Y-112828390D01*
X72560347Y-112733152D01*
X72512728Y-112685533D01*
X72417490Y-112637914D01*
X72227014Y-112637914D01*
X72131776Y-112685533D01*
X71655585Y-113304580D02*
X71655585Y-112637914D01*
X71655585Y-112304580D02*
X71703204Y-112352200D01*
X71655585Y-112399819D01*
X71607966Y-112352200D01*
X71655585Y-112304580D01*
X71655585Y-112399819D01*
X71322252Y-112637914D02*
X70941300Y-112637914D01*
X71179395Y-112304580D02*
X71179395Y-113161723D01*
X71131776Y-113256961D01*
X71036538Y-113304580D01*
X70941300Y-113304580D01*
X70607966Y-113304580D02*
X70607966Y-112304580D01*
X70179395Y-113304580D02*
X70179395Y-112780771D01*
X70227014Y-112685533D01*
X70322252Y-112637914D01*
X70465109Y-112637914D01*
X70560347Y-112685533D01*
X70607966Y-112733152D01*
X69274633Y-112637914D02*
X69274633Y-113304580D01*
X69703204Y-112637914D02*
X69703204Y-113161723D01*
X69655585Y-113256961D01*
X69560347Y-113304580D01*
X69417490Y-113304580D01*
X69322252Y-113256961D01*
X69274633Y-113209342D01*
X68798442Y-113304580D02*
X68798442Y-112304580D01*
X68798442Y-112685533D02*
X68703204Y-112637914D01*
X68512728Y-112637914D01*
X68417490Y-112685533D01*
X68369871Y-112733152D01*
X68322252Y-112828390D01*
X68322252Y-113114104D01*
X68369871Y-113209342D01*
X68417490Y-113256961D01*
X68512728Y-113304580D01*
X68703204Y-113304580D01*
X68798442Y-113256961D01*
X67893680Y-113209342D02*
X67846061Y-113256961D01*
X67893680Y-113304580D01*
X67941300Y-113256961D01*
X67893680Y-113209342D01*
X67893680Y-113304580D01*
X67417490Y-113304580D02*
X67417490Y-112637914D01*
X67417490Y-112304580D02*
X67465109Y-112352200D01*
X67417490Y-112399819D01*
X67369871Y-112352200D01*
X67417490Y-112304580D01*
X67417490Y-112399819D01*
X66798442Y-113304580D02*
X66893680Y-113256961D01*
X66941300Y-113209342D01*
X66988919Y-113114104D01*
X66988919Y-112828390D01*
X66941300Y-112733152D01*
X66893680Y-112685533D01*
X66798442Y-112637914D01*
X66655585Y-112637914D01*
X66560347Y-112685533D01*
X66512728Y-112733152D01*
X66465109Y-112828390D01*
X66465109Y-113114104D01*
X66512728Y-113209342D01*
X66560347Y-113256961D01*
X66655585Y-113304580D01*
X66798442Y-113304580D01*
D11*
X80710314Y-93515571D02*
X80710314Y-92015571D01*
X80138885Y-92015571D01*
X79996028Y-92087000D01*
X79924600Y-92158428D01*
X79853171Y-92301285D01*
X79853171Y-92515571D01*
X79924600Y-92658428D01*
X79996028Y-92729857D01*
X80138885Y-92801285D01*
X80710314Y-92801285D01*
X79353171Y-92015571D02*
X78424600Y-92015571D01*
X78924600Y-92587000D01*
X78710314Y-92587000D01*
X78567457Y-92658428D01*
X78496028Y-92729857D01*
X78424600Y-92872714D01*
X78424600Y-93229857D01*
X78496028Y-93372714D01*
X78567457Y-93444142D01*
X78710314Y-93515571D01*
X79138885Y-93515571D01*
X79281742Y-93444142D01*
X79353171Y-93372714D01*
X77781742Y-93515571D02*
X77781742Y-92015571D01*
X77424600Y-92015571D01*
X77210314Y-92087000D01*
X77067457Y-92229857D01*
X76996028Y-92372714D01*
X76924600Y-92658428D01*
X76924600Y-92872714D01*
X76996028Y-93158428D01*
X77067457Y-93301285D01*
X77210314Y-93444142D01*
X77424600Y-93515571D01*
X77781742Y-93515571D01*
X76496028Y-92015571D02*
X75638885Y-92015571D01*
X76067457Y-93515571D02*
X76067457Y-92015571D01*
X75138885Y-93372714D02*
X75067457Y-93444142D01*
X75138885Y-93515571D01*
X75210314Y-93444142D01*
X75138885Y-93372714D01*
X75138885Y-93515571D01*
X74424600Y-92515571D02*
X74424600Y-93515571D01*
X74424600Y-92658428D02*
X74353171Y-92587000D01*
X74210314Y-92515571D01*
X73996028Y-92515571D01*
X73853171Y-92587000D01*
X73781742Y-92729857D01*
X73781742Y-93515571D01*
X72496028Y-93444142D02*
X72638885Y-93515571D01*
X72924600Y-93515571D01*
X73067457Y-93444142D01*
X73138885Y-93301285D01*
X73138885Y-92729857D01*
X73067457Y-92587000D01*
X72924600Y-92515571D01*
X72638885Y-92515571D01*
X72496028Y-92587000D01*
X72424600Y-92729857D01*
X72424600Y-92872714D01*
X73138885Y-93015571D01*
X71996028Y-92515571D02*
X71424600Y-92515571D01*
X71781742Y-92015571D02*
X71781742Y-93301285D01*
X71710314Y-93444142D01*
X71567457Y-93515571D01*
X71424600Y-93515571D01*
D10*
X85794811Y-87098274D02*
X85275634Y-86761116D01*
X85347709Y-87262156D01*
X85227899Y-87184351D01*
X85122091Y-87172417D01*
X85056219Y-87186418D01*
X84964412Y-87240357D01*
X84834736Y-87440040D01*
X84822802Y-87545849D01*
X84836804Y-87611721D01*
X84890742Y-87703528D01*
X85130362Y-87859139D01*
X85236171Y-87871073D01*
X85302042Y-87857071D01*
X67176235Y-86840990D02*
X67110363Y-86826988D01*
X67004555Y-86838922D01*
X66804871Y-86968598D01*
X66750933Y-87060405D01*
X66736932Y-87126277D01*
X66748865Y-87232085D01*
X66800736Y-87311959D01*
X66918478Y-87405834D01*
X67708941Y-87573852D01*
X67189764Y-87911009D01*
X66569995Y-115984287D02*
X67049235Y-116295509D01*
X66809615Y-116139898D02*
X67354254Y-115301228D01*
X67356322Y-115472908D01*
X67384325Y-115604652D01*
X67438263Y-115696459D01*
X85203795Y-116371977D02*
X85224000Y-115791064D01*
X85683036Y-116060755D02*
X85138397Y-115222084D01*
X84818903Y-115429566D01*
X84764965Y-115521373D01*
X84750963Y-115587244D01*
X84762897Y-115693053D01*
X84840703Y-115812863D01*
X84932510Y-115866801D01*
X84998382Y-115880803D01*
X85104190Y-115868869D01*
X85423684Y-115661388D01*
D12*
%TO.C,G\u002A\u002A\u002A*%
G36*
X72657856Y-87905237D02*
G01*
X72359233Y-87974698D01*
X72317708Y-88035985D01*
X72355169Y-88303132D01*
X72522755Y-88435184D01*
X72903273Y-88465664D01*
X73328752Y-88445294D01*
X73946523Y-88451120D01*
X74570770Y-88529638D01*
X75102584Y-88659054D01*
X75443056Y-88817576D01*
X75514911Y-88926964D01*
X75370503Y-89063167D01*
X74981350Y-89328085D01*
X74413554Y-89678471D01*
X73974844Y-89934517D01*
X73121481Y-90449870D01*
X72575782Y-90843197D01*
X72343171Y-91109337D01*
X72429070Y-91243129D01*
X72583015Y-91258825D01*
X72849563Y-91171517D01*
X73342142Y-90935214D01*
X73985006Y-90588346D01*
X74551663Y-90260018D01*
X76225400Y-89261210D01*
X77899138Y-90260018D01*
X78856329Y-90805551D01*
X79539463Y-91135172D01*
X79954857Y-91251118D01*
X80108828Y-91155627D01*
X80092194Y-91036797D01*
X79916020Y-90859024D01*
X79498458Y-90559360D01*
X78909976Y-90186048D01*
X78478791Y-89932243D01*
X77829016Y-89548879D01*
X77314308Y-89222939D01*
X77000675Y-88997530D01*
X76935890Y-88924690D01*
X77097142Y-88757570D01*
X77515434Y-88608267D01*
X78092574Y-88497249D01*
X78730365Y-88444985D01*
X79183618Y-88456167D01*
X79856394Y-88478672D01*
X80194292Y-88403968D01*
X80205136Y-88228412D01*
X80039344Y-88057525D01*
X79692516Y-87944462D01*
X79112061Y-87920769D01*
X78405310Y-87976075D01*
X77679592Y-88100013D01*
X77042238Y-88282212D01*
X76841542Y-88366468D01*
X76417137Y-88542248D01*
X76094020Y-88555405D01*
X75686747Y-88402699D01*
X75562422Y-88344133D01*
X75090750Y-88179774D01*
X74475227Y-88045231D01*
X73805083Y-87948977D01*
X73169549Y-87899488D01*
X72657856Y-87905237D01*
G37*
X72657856Y-87905237D02*
X72359233Y-87974698D01*
X72317708Y-88035985D01*
X72355169Y-88303132D01*
X72522755Y-88435184D01*
X72903273Y-88465664D01*
X73328752Y-88445294D01*
X73946523Y-88451120D01*
X74570770Y-88529638D01*
X75102584Y-88659054D01*
X75443056Y-88817576D01*
X75514911Y-88926964D01*
X75370503Y-89063167D01*
X74981350Y-89328085D01*
X74413554Y-89678471D01*
X73974844Y-89934517D01*
X73121481Y-90449870D01*
X72575782Y-90843197D01*
X72343171Y-91109337D01*
X72429070Y-91243129D01*
X72583015Y-91258825D01*
X72849563Y-91171517D01*
X73342142Y-90935214D01*
X73985006Y-90588346D01*
X74551663Y-90260018D01*
X76225400Y-89261210D01*
X77899138Y-90260018D01*
X78856329Y-90805551D01*
X79539463Y-91135172D01*
X79954857Y-91251118D01*
X80108828Y-91155627D01*
X80092194Y-91036797D01*
X79916020Y-90859024D01*
X79498458Y-90559360D01*
X78909976Y-90186048D01*
X78478791Y-89932243D01*
X77829016Y-89548879D01*
X77314308Y-89222939D01*
X77000675Y-88997530D01*
X76935890Y-88924690D01*
X77097142Y-88757570D01*
X77515434Y-88608267D01*
X78092574Y-88497249D01*
X78730365Y-88444985D01*
X79183618Y-88456167D01*
X79856394Y-88478672D01*
X80194292Y-88403968D01*
X80205136Y-88228412D01*
X80039344Y-88057525D01*
X79692516Y-87944462D01*
X79112061Y-87920769D01*
X78405310Y-87976075D01*
X77679592Y-88100013D01*
X77042238Y-88282212D01*
X76841542Y-88366468D01*
X76417137Y-88542248D01*
X76094020Y-88555405D01*
X75686747Y-88402699D01*
X75562422Y-88344133D01*
X75090750Y-88179774D01*
X74475227Y-88045231D01*
X73805083Y-87948977D01*
X73169549Y-87899488D01*
X72657856Y-87905237D01*
G36*
X77703391Y-84554694D02*
G01*
X77157268Y-84673412D01*
X77057430Y-84718095D01*
X76328675Y-84914946D01*
X75487578Y-84805364D01*
X75184712Y-84697172D01*
X74685259Y-84579206D01*
X74038307Y-84539512D01*
X73368524Y-84572039D01*
X72800581Y-84670737D01*
X72459256Y-84829445D01*
X72370491Y-85137318D01*
X72436499Y-85625097D01*
X72622544Y-86172212D01*
X72893891Y-86658094D01*
X73033860Y-86823928D01*
X73648023Y-87227258D01*
X74306709Y-87311672D01*
X74939945Y-87094545D01*
X75477760Y-86593249D01*
X75729382Y-86154654D01*
X75989333Y-85678043D01*
X75514911Y-85678043D01*
X75368058Y-86215684D01*
X74991702Y-86639155D01*
X74482151Y-86904700D01*
X73935709Y-86968560D01*
X73448682Y-86786977D01*
X73324270Y-86673394D01*
X73075603Y-86261702D01*
X72922569Y-85801661D01*
X72941096Y-85320566D01*
X73238996Y-85017178D01*
X73834998Y-84877569D01*
X74182743Y-84864420D01*
X74926024Y-84957651D01*
X75371573Y-85235461D01*
X75514911Y-85678043D01*
X75989333Y-85678043D01*
X76009976Y-85640195D01*
X76253219Y-85475933D01*
X76476715Y-85661096D01*
X76671333Y-86113349D01*
X77053090Y-86760440D01*
X77633143Y-87170204D01*
X78324372Y-87304703D01*
X79019502Y-87135885D01*
X79341932Y-86848427D01*
X79683907Y-86353017D01*
X79969768Y-85783955D01*
X79971268Y-85779003D01*
X79542125Y-85779003D01*
X79518364Y-85898511D01*
X79233716Y-86519850D01*
X78757485Y-86882922D01*
X78167651Y-86960833D01*
X77542198Y-86726686D01*
X77403900Y-86627752D01*
X77052235Y-86195766D01*
X76929448Y-85704099D01*
X77044485Y-85266310D01*
X77279458Y-85048291D01*
X77785703Y-84902255D01*
X78418652Y-84874933D01*
X79008897Y-84962080D01*
X79320858Y-85099431D01*
X79538594Y-85368945D01*
X79542125Y-85779003D01*
X79971268Y-85779003D01*
X80123857Y-85275539D01*
X80133093Y-85159188D01*
X79983862Y-84878268D01*
X79677474Y-84682401D01*
X79114014Y-84557138D01*
X78405813Y-84515252D01*
X77703391Y-84554694D01*
G37*
X77703391Y-84554694D02*
X77157268Y-84673412D01*
X77057430Y-84718095D01*
X76328675Y-84914946D01*
X75487578Y-84805364D01*
X75184712Y-84697172D01*
X74685259Y-84579206D01*
X74038307Y-84539512D01*
X73368524Y-84572039D01*
X72800581Y-84670737D01*
X72459256Y-84829445D01*
X72370491Y-85137318D01*
X72436499Y-85625097D01*
X72622544Y-86172212D01*
X72893891Y-86658094D01*
X73033860Y-86823928D01*
X73648023Y-87227258D01*
X74306709Y-87311672D01*
X74939945Y-87094545D01*
X75477760Y-86593249D01*
X75729382Y-86154654D01*
X75989333Y-85678043D01*
X75514911Y-85678043D01*
X75368058Y-86215684D01*
X74991702Y-86639155D01*
X74482151Y-86904700D01*
X73935709Y-86968560D01*
X73448682Y-86786977D01*
X73324270Y-86673394D01*
X73075603Y-86261702D01*
X72922569Y-85801661D01*
X72941096Y-85320566D01*
X73238996Y-85017178D01*
X73834998Y-84877569D01*
X74182743Y-84864420D01*
X74926024Y-84957651D01*
X75371573Y-85235461D01*
X75514911Y-85678043D01*
X75989333Y-85678043D01*
X76009976Y-85640195D01*
X76253219Y-85475933D01*
X76476715Y-85661096D01*
X76671333Y-86113349D01*
X77053090Y-86760440D01*
X77633143Y-87170204D01*
X78324372Y-87304703D01*
X79019502Y-87135885D01*
X79341932Y-86848427D01*
X79683907Y-86353017D01*
X79969768Y-85783955D01*
X79971268Y-85779003D01*
X79542125Y-85779003D01*
X79518364Y-85898511D01*
X79233716Y-86519850D01*
X78757485Y-86882922D01*
X78167651Y-86960833D01*
X77542198Y-86726686D01*
X77403900Y-86627752D01*
X77052235Y-86195766D01*
X76929448Y-85704099D01*
X77044485Y-85266310D01*
X77279458Y-85048291D01*
X77785703Y-84902255D01*
X78418652Y-84874933D01*
X79008897Y-84962080D01*
X79320858Y-85099431D01*
X79538594Y-85368945D01*
X79542125Y-85779003D01*
X79971268Y-85779003D01*
X80123857Y-85275539D01*
X80133093Y-85159188D01*
X79983862Y-84878268D01*
X79677474Y-84682401D01*
X79114014Y-84557138D01*
X78405813Y-84515252D01*
X77703391Y-84554694D01*
G36*
X75209486Y-96143756D02*
G01*
X75195149Y-96281857D01*
X75267029Y-96426678D01*
X75391697Y-96488388D01*
X75509810Y-96448397D01*
X75545287Y-96391554D01*
X75551026Y-96216367D01*
X75426715Y-96116647D01*
X75329370Y-96104075D01*
X75209486Y-96143756D01*
G37*
X75209486Y-96143756D02*
X75195149Y-96281857D01*
X75267029Y-96426678D01*
X75391697Y-96488388D01*
X75509810Y-96448397D01*
X75545287Y-96391554D01*
X75551026Y-96216367D01*
X75426715Y-96116647D01*
X75329370Y-96104075D01*
X75209486Y-96143756D01*
G36*
X76543817Y-96162356D02*
G01*
X76495636Y-96293258D01*
X76552278Y-96411902D01*
X76657630Y-96491215D01*
X76688950Y-96500950D01*
X76780056Y-96452263D01*
X76825623Y-96411902D01*
X76882335Y-96271032D01*
X76817333Y-96147012D01*
X76688950Y-96104075D01*
X76543817Y-96162356D01*
G37*
X76543817Y-96162356D02*
X76495636Y-96293258D01*
X76552278Y-96411902D01*
X76657630Y-96491215D01*
X76688950Y-96500950D01*
X76780056Y-96452263D01*
X76825623Y-96411902D01*
X76882335Y-96271032D01*
X76817333Y-96147012D01*
X76688950Y-96104075D01*
X76543817Y-96162356D01*
G36*
X73978163Y-96512264D02*
G01*
X73944626Y-96626068D01*
X74004171Y-96743865D01*
X74135460Y-96804959D01*
X74271552Y-96798790D01*
X74299783Y-96695630D01*
X74294210Y-96646209D01*
X74217026Y-96492257D01*
X74109263Y-96461262D01*
X73978163Y-96512264D01*
G37*
X73978163Y-96512264D02*
X73944626Y-96626068D01*
X74004171Y-96743865D01*
X74135460Y-96804959D01*
X74271552Y-96798790D01*
X74299783Y-96695630D01*
X74294210Y-96646209D01*
X74217026Y-96492257D01*
X74109263Y-96461262D01*
X73978163Y-96512264D01*
G36*
X73029044Y-97423941D02*
G01*
X72984894Y-97564126D01*
X73006248Y-97644724D01*
X73114047Y-97757587D01*
X73258904Y-97750368D01*
X73302284Y-97718033D01*
X73361139Y-97578559D01*
X73321597Y-97439489D01*
X73205213Y-97374131D01*
X73201135Y-97374075D01*
X73029044Y-97423941D01*
G37*
X73029044Y-97423941D02*
X72984894Y-97564126D01*
X73006248Y-97644724D01*
X73114047Y-97757587D01*
X73258904Y-97750368D01*
X73302284Y-97718033D01*
X73361139Y-97578559D01*
X73321597Y-97439489D01*
X73205213Y-97374131D01*
X73201135Y-97374075D01*
X73029044Y-97423941D01*
G36*
X74895865Y-97423120D02*
G01*
X74863325Y-97572512D01*
X74900110Y-97727677D01*
X75024567Y-97770950D01*
X75176493Y-97720930D01*
X75230038Y-97655688D01*
X75232941Y-97484091D01*
X75107520Y-97385577D01*
X75017391Y-97374075D01*
X74895865Y-97423120D01*
G37*
X74895865Y-97423120D02*
X74863325Y-97572512D01*
X74900110Y-97727677D01*
X75024567Y-97770950D01*
X75176493Y-97720930D01*
X75230038Y-97655688D01*
X75232941Y-97484091D01*
X75107520Y-97385577D01*
X75017391Y-97374075D01*
X74895865Y-97423120D01*
G36*
X73978163Y-98337889D02*
G01*
X73944626Y-98451693D01*
X74004171Y-98569490D01*
X74135460Y-98630584D01*
X74271552Y-98624415D01*
X74299783Y-98521255D01*
X74294210Y-98471834D01*
X74217026Y-98317882D01*
X74109263Y-98286887D01*
X73978163Y-98337889D01*
G37*
X73978163Y-98337889D02*
X73944626Y-98451693D01*
X74004171Y-98569490D01*
X74135460Y-98630584D01*
X74271552Y-98624415D01*
X74299783Y-98521255D01*
X74294210Y-98471834D01*
X74217026Y-98317882D01*
X74109263Y-98286887D01*
X73978163Y-98337889D01*
G36*
X74809151Y-94549694D02*
G01*
X74199463Y-94742250D01*
X73680905Y-95049811D01*
X73265117Y-95463456D01*
X72963743Y-95974267D01*
X72791599Y-96554939D01*
X72740688Y-96816254D01*
X72680144Y-96968912D01*
X72573049Y-97060644D01*
X72382484Y-97139182D01*
X72323413Y-97160239D01*
X71967077Y-97351049D01*
X71648664Y-97638800D01*
X71390414Y-97988463D01*
X71214568Y-98365004D01*
X71143363Y-98733394D01*
X71170175Y-98976810D01*
X71251917Y-99224062D01*
X71350835Y-99461427D01*
X71446590Y-99646233D01*
X71518841Y-99735809D01*
X71532880Y-99737738D01*
X71609467Y-99677340D01*
X71775898Y-99529392D01*
X72007490Y-99316278D01*
X72273870Y-99065786D01*
X72568739Y-98781256D01*
X72764952Y-98575752D01*
X72882121Y-98422404D01*
X72939857Y-98294339D01*
X72957771Y-98164686D01*
X72958326Y-98127911D01*
X72934812Y-97886297D01*
X72877700Y-97689742D01*
X72872624Y-97679753D01*
X72845886Y-97498413D01*
X72933557Y-97343233D01*
X73091341Y-97244159D01*
X73274944Y-97231136D01*
X73418700Y-97310574D01*
X73495240Y-97462316D01*
X73508615Y-97649621D01*
X73456284Y-97792432D01*
X73434575Y-97810637D01*
X73358022Y-97924396D01*
X73355200Y-97949955D01*
X73404720Y-97953237D01*
X73531449Y-97863108D01*
X73633013Y-97770950D01*
X73848072Y-97476949D01*
X73917815Y-97165739D01*
X73837744Y-96861265D01*
X73812186Y-96817098D01*
X73762361Y-96623610D01*
X73846413Y-96467913D01*
X74039473Y-96386438D01*
X74109263Y-96381887D01*
X74328247Y-96436213D01*
X74445146Y-96574905D01*
X74435094Y-96761531D01*
X74406340Y-96817098D01*
X74318044Y-96979771D01*
X74331587Y-97021396D01*
X74446327Y-96942168D01*
X74661621Y-96742279D01*
X74664888Y-96739074D01*
X74852464Y-96536031D01*
X74981820Y-96359776D01*
X75022075Y-96262173D01*
X75082709Y-96068694D01*
X75233098Y-95968500D01*
X75425977Y-95974706D01*
X75612240Y-96098386D01*
X75705813Y-96296145D01*
X75663229Y-96487273D01*
X75498028Y-96619378D01*
X75475555Y-96627239D01*
X75374441Y-96694710D01*
X75182894Y-96854400D01*
X74917663Y-97090133D01*
X74595497Y-97385735D01*
X74233145Y-97725030D01*
X73847357Y-98091842D01*
X73454881Y-98469996D01*
X73072466Y-98843316D01*
X72716862Y-99195627D01*
X72404817Y-99510753D01*
X72153082Y-99772519D01*
X71978404Y-99964750D01*
X71897532Y-100071268D01*
X71894622Y-100085540D01*
X72031768Y-100202746D01*
X72269407Y-100319813D01*
X72550773Y-100414892D01*
X72819100Y-100466131D01*
X72892628Y-100469700D01*
X73106808Y-100452765D01*
X73280100Y-100382753D01*
X73470970Y-100230855D01*
X73570477Y-100135673D01*
X73750871Y-99951338D01*
X73852671Y-99805772D01*
X73898354Y-99641246D01*
X73910395Y-99400032D01*
X73910825Y-99261471D01*
X73897155Y-98962216D01*
X73861442Y-98710139D01*
X73815130Y-98568063D01*
X73764272Y-98429907D01*
X73827654Y-98297499D01*
X73867120Y-98251640D01*
X74042322Y-98111109D01*
X74199676Y-98119762D01*
X74335086Y-98233606D01*
X74433628Y-98392537D01*
X74464354Y-98545169D01*
X74420318Y-98636649D01*
X74387075Y-98644075D01*
X74340722Y-98715233D01*
X74312129Y-98896188D01*
X74307700Y-99019579D01*
X74307700Y-99395084D01*
X74565669Y-99137175D01*
X74712812Y-98972354D01*
X74792627Y-98813344D01*
X74827459Y-98598683D01*
X74836804Y-98391498D01*
X74823595Y-98038300D01*
X74766655Y-97788118D01*
X74738848Y-97734137D01*
X74669777Y-97586177D01*
X74708706Y-97452756D01*
X74750026Y-97389934D01*
X74926638Y-97240985D01*
X75119966Y-97241277D01*
X75291612Y-97386346D01*
X75367318Y-97577821D01*
X75335801Y-97698628D01*
X75265986Y-97861078D01*
X75293034Y-97900966D01*
X75414344Y-97814788D01*
X75418951Y-97810637D01*
X75550865Y-97587264D01*
X75577700Y-97378632D01*
X75597135Y-97200284D01*
X75672730Y-97037525D01*
X75830419Y-96845968D01*
X75974575Y-96699387D01*
X76173243Y-96485670D01*
X76315600Y-96298116D01*
X76371424Y-96176651D01*
X76371450Y-96175082D01*
X76435287Y-96032416D01*
X76589604Y-95957195D01*
X76778613Y-95955165D01*
X76946526Y-96032071D01*
X77009299Y-96109397D01*
X77035475Y-96298680D01*
X76959150Y-96492964D01*
X76814777Y-96630299D01*
X76703230Y-96659700D01*
X76570501Y-96713560D01*
X76384954Y-96851346D01*
X76268497Y-96960702D01*
X76075077Y-97191081D01*
X75987947Y-97395475D01*
X75974575Y-97539488D01*
X75950075Y-97726863D01*
X75858358Y-97902141D01*
X75672102Y-98113383D01*
X75617388Y-98167825D01*
X75396144Y-98410344D01*
X75285218Y-98605822D01*
X75260200Y-98758328D01*
X75240709Y-98880208D01*
X75170771Y-99019949D01*
X75033193Y-99200447D01*
X74810780Y-99444602D01*
X74527549Y-99733989D01*
X73794898Y-100469700D01*
X80322073Y-100469700D01*
X80747855Y-100248502D01*
X81183560Y-99946945D01*
X81490327Y-99568230D01*
X81658743Y-99126646D01*
X81689575Y-98818915D01*
X81618466Y-98317828D01*
X81418776Y-97862723D01*
X81110965Y-97483263D01*
X80715492Y-97209107D01*
X80525800Y-97131712D01*
X80357128Y-97049571D01*
X80242235Y-96908518D01*
X80141878Y-96660035D01*
X80140196Y-96654982D01*
X79906739Y-96194006D01*
X79549475Y-95805370D01*
X79092935Y-95504869D01*
X78561651Y-95308298D01*
X77980155Y-95231454D01*
X77928588Y-95230950D01*
X77620437Y-95218759D01*
X77425807Y-95175307D01*
X77300854Y-95090270D01*
X77292368Y-95081156D01*
X77151354Y-94971077D01*
X76916956Y-94831452D01*
X76664910Y-94704493D01*
X76383391Y-94586111D01*
X76135286Y-94517696D01*
X75855846Y-94486848D01*
X75498325Y-94481063D01*
X74809151Y-94549694D01*
G37*
X74809151Y-94549694D02*
X74199463Y-94742250D01*
X73680905Y-95049811D01*
X73265117Y-95463456D01*
X72963743Y-95974267D01*
X72791599Y-96554939D01*
X72740688Y-96816254D01*
X72680144Y-96968912D01*
X72573049Y-97060644D01*
X72382484Y-97139182D01*
X72323413Y-97160239D01*
X71967077Y-97351049D01*
X71648664Y-97638800D01*
X71390414Y-97988463D01*
X71214568Y-98365004D01*
X71143363Y-98733394D01*
X71170175Y-98976810D01*
X71251917Y-99224062D01*
X71350835Y-99461427D01*
X71446590Y-99646233D01*
X71518841Y-99735809D01*
X71532880Y-99737738D01*
X71609467Y-99677340D01*
X71775898Y-99529392D01*
X72007490Y-99316278D01*
X72273870Y-99065786D01*
X72568739Y-98781256D01*
X72764952Y-98575752D01*
X72882121Y-98422404D01*
X72939857Y-98294339D01*
X72957771Y-98164686D01*
X72958326Y-98127911D01*
X72934812Y-97886297D01*
X72877700Y-97689742D01*
X72872624Y-97679753D01*
X72845886Y-97498413D01*
X72933557Y-97343233D01*
X73091341Y-97244159D01*
X73274944Y-97231136D01*
X73418700Y-97310574D01*
X73495240Y-97462316D01*
X73508615Y-97649621D01*
X73456284Y-97792432D01*
X73434575Y-97810637D01*
X73358022Y-97924396D01*
X73355200Y-97949955D01*
X73404720Y-97953237D01*
X73531449Y-97863108D01*
X73633013Y-97770950D01*
X73848072Y-97476949D01*
X73917815Y-97165739D01*
X73837744Y-96861265D01*
X73812186Y-96817098D01*
X73762361Y-96623610D01*
X73846413Y-96467913D01*
X74039473Y-96386438D01*
X74109263Y-96381887D01*
X74328247Y-96436213D01*
X74445146Y-96574905D01*
X74435094Y-96761531D01*
X74406340Y-96817098D01*
X74318044Y-96979771D01*
X74331587Y-97021396D01*
X74446327Y-96942168D01*
X74661621Y-96742279D01*
X74664888Y-96739074D01*
X74852464Y-96536031D01*
X74981820Y-96359776D01*
X75022075Y-96262173D01*
X75082709Y-96068694D01*
X75233098Y-95968500D01*
X75425977Y-95974706D01*
X75612240Y-96098386D01*
X75705813Y-96296145D01*
X75663229Y-96487273D01*
X75498028Y-96619378D01*
X75475555Y-96627239D01*
X75374441Y-96694710D01*
X75182894Y-96854400D01*
X74917663Y-97090133D01*
X74595497Y-97385735D01*
X74233145Y-97725030D01*
X73847357Y-98091842D01*
X73454881Y-98469996D01*
X73072466Y-98843316D01*
X72716862Y-99195627D01*
X72404817Y-99510753D01*
X72153082Y-99772519D01*
X71978404Y-99964750D01*
X71897532Y-100071268D01*
X71894622Y-100085540D01*
X72031768Y-100202746D01*
X72269407Y-100319813D01*
X72550773Y-100414892D01*
X72819100Y-100466131D01*
X72892628Y-100469700D01*
X73106808Y-100452765D01*
X73280100Y-100382753D01*
X73470970Y-100230855D01*
X73570477Y-100135673D01*
X73750871Y-99951338D01*
X73852671Y-99805772D01*
X73898354Y-99641246D01*
X73910395Y-99400032D01*
X73910825Y-99261471D01*
X73897155Y-98962216D01*
X73861442Y-98710139D01*
X73815130Y-98568063D01*
X73764272Y-98429907D01*
X73827654Y-98297499D01*
X73867120Y-98251640D01*
X74042322Y-98111109D01*
X74199676Y-98119762D01*
X74335086Y-98233606D01*
X74433628Y-98392537D01*
X74464354Y-98545169D01*
X74420318Y-98636649D01*
X74387075Y-98644075D01*
X74340722Y-98715233D01*
X74312129Y-98896188D01*
X74307700Y-99019579D01*
X74307700Y-99395084D01*
X74565669Y-99137175D01*
X74712812Y-98972354D01*
X74792627Y-98813344D01*
X74827459Y-98598683D01*
X74836804Y-98391498D01*
X74823595Y-98038300D01*
X74766655Y-97788118D01*
X74738848Y-97734137D01*
X74669777Y-97586177D01*
X74708706Y-97452756D01*
X74750026Y-97389934D01*
X74926638Y-97240985D01*
X75119966Y-97241277D01*
X75291612Y-97386346D01*
X75367318Y-97577821D01*
X75335801Y-97698628D01*
X75265986Y-97861078D01*
X75293034Y-97900966D01*
X75414344Y-97814788D01*
X75418951Y-97810637D01*
X75550865Y-97587264D01*
X75577700Y-97378632D01*
X75597135Y-97200284D01*
X75672730Y-97037525D01*
X75830419Y-96845968D01*
X75974575Y-96699387D01*
X76173243Y-96485670D01*
X76315600Y-96298116D01*
X76371424Y-96176651D01*
X76371450Y-96175082D01*
X76435287Y-96032416D01*
X76589604Y-95957195D01*
X76778613Y-95955165D01*
X76946526Y-96032071D01*
X77009299Y-96109397D01*
X77035475Y-96298680D01*
X76959150Y-96492964D01*
X76814777Y-96630299D01*
X76703230Y-96659700D01*
X76570501Y-96713560D01*
X76384954Y-96851346D01*
X76268497Y-96960702D01*
X76075077Y-97191081D01*
X75987947Y-97395475D01*
X75974575Y-97539488D01*
X75950075Y-97726863D01*
X75858358Y-97902141D01*
X75672102Y-98113383D01*
X75617388Y-98167825D01*
X75396144Y-98410344D01*
X75285218Y-98605822D01*
X75260200Y-98758328D01*
X75240709Y-98880208D01*
X75170771Y-99019949D01*
X75033193Y-99200447D01*
X74810780Y-99444602D01*
X74527549Y-99733989D01*
X73794898Y-100469700D01*
X80322073Y-100469700D01*
X80747855Y-100248502D01*
X81183560Y-99946945D01*
X81490327Y-99568230D01*
X81658743Y-99126646D01*
X81689575Y-98818915D01*
X81618466Y-98317828D01*
X81418776Y-97862723D01*
X81110965Y-97483263D01*
X80715492Y-97209107D01*
X80525800Y-97131712D01*
X80357128Y-97049571D01*
X80242235Y-96908518D01*
X80141878Y-96660035D01*
X80140196Y-96654982D01*
X79906739Y-96194006D01*
X79549475Y-95805370D01*
X79092935Y-95504869D01*
X78561651Y-95308298D01*
X77980155Y-95231454D01*
X77928588Y-95230950D01*
X77620437Y-95218759D01*
X77425807Y-95175307D01*
X77300854Y-95090270D01*
X77292368Y-95081156D01*
X77151354Y-94971077D01*
X76916956Y-94831452D01*
X76664910Y-94704493D01*
X76383391Y-94586111D01*
X76135286Y-94517696D01*
X75855846Y-94486848D01*
X75498325Y-94481063D01*
X74809151Y-94549694D01*
G36*
X79784113Y-101917633D02*
G01*
X79748474Y-101971682D01*
X79725370Y-102097318D01*
X79712196Y-102317243D01*
X79706351Y-102654155D01*
X79705200Y-103043567D01*
X79706120Y-103493240D01*
X79711198Y-103808141D01*
X79723909Y-104012250D01*
X79747730Y-104129543D01*
X79786138Y-104183999D01*
X79842608Y-104199595D01*
X79872909Y-104200325D01*
X79938498Y-104194771D01*
X79983243Y-104161950D01*
X80009922Y-104077617D01*
X80021316Y-103917531D01*
X80020204Y-103657449D01*
X80009366Y-103273128D01*
X80002596Y-103069231D01*
X79985036Y-102616484D01*
X79965593Y-102298932D01*
X79940851Y-102093027D01*
X79907396Y-101975222D01*
X79861816Y-101921969D01*
X79834887Y-101912473D01*
X79784113Y-101917633D01*
G37*
X79784113Y-101917633D02*
X79748474Y-101971682D01*
X79725370Y-102097318D01*
X79712196Y-102317243D01*
X79706351Y-102654155D01*
X79705200Y-103043567D01*
X79706120Y-103493240D01*
X79711198Y-103808141D01*
X79723909Y-104012250D01*
X79747730Y-104129543D01*
X79786138Y-104183999D01*
X79842608Y-104199595D01*
X79872909Y-104200325D01*
X79938498Y-104194771D01*
X79983243Y-104161950D01*
X80009922Y-104077617D01*
X80021316Y-103917531D01*
X80020204Y-103657449D01*
X80009366Y-103273128D01*
X80002596Y-103069231D01*
X79985036Y-102616484D01*
X79965593Y-102298932D01*
X79940851Y-102093027D01*
X79907396Y-101975222D01*
X79861816Y-101921969D01*
X79834887Y-101912473D01*
X79784113Y-101917633D01*
G36*
X81822318Y-101998121D02*
G01*
X81694353Y-102205934D01*
X81540033Y-102549868D01*
X81394011Y-102907235D01*
X81239920Y-103289694D01*
X81104206Y-103627606D01*
X80999524Y-103889387D01*
X80938526Y-104043455D01*
X80931594Y-104061418D01*
X80928043Y-104173762D01*
X81026240Y-104199517D01*
X81167686Y-104120803D01*
X81302428Y-103891975D01*
X81306650Y-103882017D01*
X81439661Y-103565325D01*
X82466088Y-103565325D01*
X82593127Y-103882825D01*
X82725165Y-104120597D01*
X82867650Y-104200323D01*
X82868187Y-104200325D01*
X82918682Y-104185070D01*
X82934829Y-104125536D01*
X82910961Y-104001064D01*
X82841413Y-103790996D01*
X82720518Y-103474676D01*
X82668902Y-103345962D01*
X82346735Y-103345962D01*
X82342207Y-103362484D01*
X82241857Y-103391830D01*
X82054339Y-103405018D01*
X81836596Y-103403132D01*
X81645570Y-103387256D01*
X81538203Y-103358472D01*
X81530809Y-103347043D01*
X81556671Y-103230494D01*
X81622482Y-103028835D01*
X81710538Y-102788311D01*
X81803130Y-102555169D01*
X81882553Y-102375655D01*
X81931099Y-102296016D01*
X81933491Y-102295325D01*
X81987590Y-102363303D01*
X82071372Y-102536202D01*
X82167006Y-102767469D01*
X82256664Y-103010554D01*
X82322517Y-103218902D01*
X82346735Y-103345962D01*
X82668902Y-103345962D01*
X82557927Y-103069231D01*
X82351259Y-102567142D01*
X82188397Y-102210940D01*
X82055307Y-101998672D01*
X81937958Y-101928383D01*
X81822318Y-101998121D01*
G37*
X81822318Y-101998121D02*
X81694353Y-102205934D01*
X81540033Y-102549868D01*
X81394011Y-102907235D01*
X81239920Y-103289694D01*
X81104206Y-103627606D01*
X80999524Y-103889387D01*
X80938526Y-104043455D01*
X80931594Y-104061418D01*
X80928043Y-104173762D01*
X81026240Y-104199517D01*
X81167686Y-104120803D01*
X81302428Y-103891975D01*
X81306650Y-103882017D01*
X81439661Y-103565325D01*
X82466088Y-103565325D01*
X82593127Y-103882825D01*
X82725165Y-104120597D01*
X82867650Y-104200323D01*
X82868187Y-104200325D01*
X82918682Y-104185070D01*
X82934829Y-104125536D01*
X82910961Y-104001064D01*
X82841413Y-103790996D01*
X82720518Y-103474676D01*
X82668902Y-103345962D01*
X82346735Y-103345962D01*
X82342207Y-103362484D01*
X82241857Y-103391830D01*
X82054339Y-103405018D01*
X81836596Y-103403132D01*
X81645570Y-103387256D01*
X81538203Y-103358472D01*
X81530809Y-103347043D01*
X81556671Y-103230494D01*
X81622482Y-103028835D01*
X81710538Y-102788311D01*
X81803130Y-102555169D01*
X81882553Y-102375655D01*
X81931099Y-102296016D01*
X81933491Y-102295325D01*
X81987590Y-102363303D01*
X82071372Y-102536202D01*
X82167006Y-102767469D01*
X82256664Y-103010554D01*
X82322517Y-103218902D01*
X82346735Y-103345962D01*
X82668902Y-103345962D01*
X82557927Y-103069231D01*
X82351259Y-102567142D01*
X82188397Y-102210940D01*
X82055307Y-101998672D01*
X81937958Y-101928383D01*
X81822318Y-101998121D01*
G36*
X70941284Y-101910806D02*
G01*
X70531946Y-101953477D01*
X70257195Y-102042187D01*
X70096072Y-102191243D01*
X70027616Y-102414952D01*
X70021450Y-102538696D01*
X70054938Y-102779627D01*
X70181555Y-102966043D01*
X70264785Y-103041590D01*
X70508119Y-103246342D01*
X70141083Y-103723333D01*
X69958201Y-103964397D01*
X69863879Y-104106528D01*
X69848852Y-104175822D01*
X69903855Y-104198372D01*
X69971719Y-104200325D01*
X70179129Y-104126233D01*
X70347013Y-103942356D01*
X70587766Y-103630378D01*
X70817131Y-103401385D01*
X71011238Y-103276663D01*
X71109782Y-103262053D01*
X71191729Y-103307448D01*
X71240867Y-103428061D01*
X71268284Y-103658866D01*
X71275394Y-103784403D01*
X71299748Y-104074309D01*
X71342687Y-104231013D01*
X71411261Y-104279646D01*
X71414301Y-104279700D01*
X71459486Y-104255700D01*
X71491488Y-104169338D01*
X71512378Y-103999070D01*
X71524226Y-103723352D01*
X71529103Y-103320640D01*
X71529575Y-103080399D01*
X71529575Y-102136575D01*
X71291450Y-102136575D01*
X71291450Y-103009700D01*
X70934263Y-103009700D01*
X70627770Y-102973385D01*
X70423470Y-102856020D01*
X70418325Y-102850950D01*
X70285902Y-102640047D01*
X70295139Y-102440305D01*
X70429392Y-102274771D01*
X70672016Y-102166491D01*
X70934263Y-102136575D01*
X71291450Y-102136575D01*
X71529575Y-102136575D01*
X71529575Y-101881098D01*
X70941284Y-101910806D01*
G37*
X70941284Y-101910806D02*
X70531946Y-101953477D01*
X70257195Y-102042187D01*
X70096072Y-102191243D01*
X70027616Y-102414952D01*
X70021450Y-102538696D01*
X70054938Y-102779627D01*
X70181555Y-102966043D01*
X70264785Y-103041590D01*
X70508119Y-103246342D01*
X70141083Y-103723333D01*
X69958201Y-103964397D01*
X69863879Y-104106528D01*
X69848852Y-104175822D01*
X69903855Y-104198372D01*
X69971719Y-104200325D01*
X70179129Y-104126233D01*
X70347013Y-103942356D01*
X70587766Y-103630378D01*
X70817131Y-103401385D01*
X71011238Y-103276663D01*
X71109782Y-103262053D01*
X71191729Y-103307448D01*
X71240867Y-103428061D01*
X71268284Y-103658866D01*
X71275394Y-103784403D01*
X71299748Y-104074309D01*
X71342687Y-104231013D01*
X71411261Y-104279646D01*
X71414301Y-104279700D01*
X71459486Y-104255700D01*
X71491488Y-104169338D01*
X71512378Y-103999070D01*
X71524226Y-103723352D01*
X71529103Y-103320640D01*
X71529575Y-103080399D01*
X71529575Y-102136575D01*
X71291450Y-102136575D01*
X71291450Y-103009700D01*
X70934263Y-103009700D01*
X70627770Y-102973385D01*
X70423470Y-102856020D01*
X70418325Y-102850950D01*
X70285902Y-102640047D01*
X70295139Y-102440305D01*
X70429392Y-102274771D01*
X70672016Y-102166491D01*
X70934263Y-102136575D01*
X71291450Y-102136575D01*
X71529575Y-102136575D01*
X71529575Y-101881098D01*
X70941284Y-101910806D01*
G36*
X72927310Y-101903089D02*
G01*
X72710225Y-101920023D01*
X72597440Y-101953773D01*
X72561827Y-102008860D01*
X72561450Y-102017512D01*
X72594127Y-102082201D01*
X72711619Y-102119224D01*
X72943126Y-102134839D01*
X73117075Y-102136575D01*
X73672700Y-102136575D01*
X73672700Y-102930325D01*
X73236138Y-102930325D01*
X72972865Y-102941014D01*
X72837321Y-102978521D01*
X72799575Y-103049387D01*
X72838769Y-103121189D01*
X72976297Y-103158155D01*
X73236138Y-103168450D01*
X73672700Y-103168450D01*
X73672700Y-103962200D01*
X73111255Y-103962200D01*
X72817592Y-103966756D01*
X72651331Y-103985830D01*
X72581257Y-104027529D01*
X72576150Y-104099959D01*
X72576367Y-104101106D01*
X72612117Y-104169932D01*
X72707889Y-104214723D01*
X72894151Y-104242323D01*
X73201369Y-104259580D01*
X73296562Y-104262946D01*
X73990200Y-104285880D01*
X73990200Y-101898450D01*
X73275825Y-101898450D01*
X72927310Y-101903089D01*
G37*
X72927310Y-101903089D02*
X72710225Y-101920023D01*
X72597440Y-101953773D01*
X72561827Y-102008860D01*
X72561450Y-102017512D01*
X72594127Y-102082201D01*
X72711619Y-102119224D01*
X72943126Y-102134839D01*
X73117075Y-102136575D01*
X73672700Y-102136575D01*
X73672700Y-102930325D01*
X73236138Y-102930325D01*
X72972865Y-102941014D01*
X72837321Y-102978521D01*
X72799575Y-103049387D01*
X72838769Y-103121189D01*
X72976297Y-103158155D01*
X73236138Y-103168450D01*
X73672700Y-103168450D01*
X73672700Y-103962200D01*
X73111255Y-103962200D01*
X72817592Y-103966756D01*
X72651331Y-103985830D01*
X72581257Y-104027529D01*
X72576150Y-104099959D01*
X72576367Y-104101106D01*
X72612117Y-104169932D01*
X72707889Y-104214723D01*
X72894151Y-104242323D01*
X73201369Y-104259580D01*
X73296562Y-104262946D01*
X73990200Y-104285880D01*
X73990200Y-101898450D01*
X73275825Y-101898450D01*
X72927310Y-101903089D01*
G36*
X75989142Y-101907202D02*
G01*
X75944863Y-101950323D01*
X75917222Y-102053114D01*
X75902327Y-102240872D01*
X75896285Y-102538897D01*
X75895200Y-102930325D01*
X75895200Y-103962200D01*
X75379263Y-103962200D01*
X75086840Y-103970796D01*
X74924769Y-104000677D01*
X74865376Y-104057975D01*
X74863325Y-104076578D01*
X74873073Y-104154942D01*
X74922262Y-104202403D01*
X75040812Y-104224677D01*
X75258643Y-104227478D01*
X75597544Y-104216829D01*
X76212700Y-104193647D01*
X76212700Y-103046048D01*
X76211589Y-102598059D01*
X76206040Y-102284803D01*
X76192733Y-102082266D01*
X76168344Y-101966436D01*
X76129553Y-101913297D01*
X76073037Y-101898837D01*
X76053950Y-101898450D01*
X75989142Y-101907202D01*
G37*
X75989142Y-101907202D02*
X75944863Y-101950323D01*
X75917222Y-102053114D01*
X75902327Y-102240872D01*
X75896285Y-102538897D01*
X75895200Y-102930325D01*
X75895200Y-103962200D01*
X75379263Y-103962200D01*
X75086840Y-103970796D01*
X74924769Y-104000677D01*
X74865376Y-104057975D01*
X74863325Y-104076578D01*
X74873073Y-104154942D01*
X74922262Y-104202403D01*
X75040812Y-104224677D01*
X75258643Y-104227478D01*
X75597544Y-104216829D01*
X76212700Y-104193647D01*
X76212700Y-103046048D01*
X76211589Y-102598059D01*
X76206040Y-102284803D01*
X76192733Y-102082266D01*
X76168344Y-101966436D01*
X76129553Y-101913297D01*
X76073037Y-101898837D01*
X76053950Y-101898450D01*
X75989142Y-101907202D01*
G36*
X77711279Y-101911886D02*
G01*
X77489719Y-101978995D01*
X77349962Y-102095755D01*
X77323950Y-102187547D01*
X77364474Y-102272135D01*
X77462857Y-102252034D01*
X77771404Y-102163876D01*
X78044662Y-102168269D01*
X78227874Y-102258088D01*
X78333040Y-102422953D01*
X78297800Y-102578775D01*
X78115867Y-102737209D01*
X77908109Y-102850950D01*
X77589143Y-103016389D01*
X77391021Y-103154358D01*
X77286343Y-103294186D01*
X77247712Y-103465199D01*
X77244575Y-103561207D01*
X77313063Y-103860546D01*
X77499245Y-104082975D01*
X77774203Y-104212455D01*
X78109015Y-104232951D01*
X78354859Y-104176889D01*
X78529767Y-104083820D01*
X78642083Y-103966637D01*
X78671330Y-103861767D01*
X78597033Y-103805639D01*
X78564768Y-103803450D01*
X78427143Y-103849606D01*
X78395513Y-103882825D01*
X78291378Y-103933686D01*
X78094170Y-103960813D01*
X78035471Y-103962200D01*
X77772400Y-103910390D01*
X77597718Y-103779418D01*
X77519893Y-103605962D01*
X77547392Y-103426705D01*
X77688683Y-103278327D01*
X77862277Y-103211936D01*
X78085761Y-103135469D01*
X78325591Y-103016365D01*
X78339187Y-103008214D01*
X78510514Y-102878210D01*
X78581891Y-102724282D01*
X78593950Y-102537708D01*
X78548814Y-102247238D01*
X78420233Y-102060292D01*
X78221192Y-101947350D01*
X77969989Y-101899609D01*
X77711279Y-101911886D01*
G37*
X77711279Y-101911886D02*
X77489719Y-101978995D01*
X77349962Y-102095755D01*
X77323950Y-102187547D01*
X77364474Y-102272135D01*
X77462857Y-102252034D01*
X77771404Y-102163876D01*
X78044662Y-102168269D01*
X78227874Y-102258088D01*
X78333040Y-102422953D01*
X78297800Y-102578775D01*
X78115867Y-102737209D01*
X77908109Y-102850950D01*
X77589143Y-103016389D01*
X77391021Y-103154358D01*
X77286343Y-103294186D01*
X77247712Y-103465199D01*
X77244575Y-103561207D01*
X77313063Y-103860546D01*
X77499245Y-104082975D01*
X77774203Y-104212455D01*
X78109015Y-104232951D01*
X78354859Y-104176889D01*
X78529767Y-104083820D01*
X78642083Y-103966637D01*
X78671330Y-103861767D01*
X78597033Y-103805639D01*
X78564768Y-103803450D01*
X78427143Y-103849606D01*
X78395513Y-103882825D01*
X78291378Y-103933686D01*
X78094170Y-103960813D01*
X78035471Y-103962200D01*
X77772400Y-103910390D01*
X77597718Y-103779418D01*
X77519893Y-103605962D01*
X77547392Y-103426705D01*
X77688683Y-103278327D01*
X77862277Y-103211936D01*
X78085761Y-103135469D01*
X78325591Y-103016365D01*
X78339187Y-103008214D01*
X78510514Y-102878210D01*
X78581891Y-102724282D01*
X78593950Y-102537708D01*
X78548814Y-102247238D01*
X78420233Y-102060292D01*
X78221192Y-101947350D01*
X77969989Y-101899609D01*
X77711279Y-101911886D01*
%TO.C,REF\u002A\u002A*%
G36*
X70047377Y-110440433D02*
G01*
X70015998Y-110462676D01*
X69988289Y-110490385D01*
X69988289Y-110799820D01*
X69988362Y-110891699D01*
X69988705Y-110963740D01*
X69989508Y-111018680D01*
X69990959Y-111059260D01*
X69993248Y-111088217D01*
X69996564Y-111108291D01*
X70001095Y-111122221D01*
X70007031Y-111132745D01*
X70011686Y-111139000D01*
X70042417Y-111163573D01*
X70077704Y-111166241D01*
X70109955Y-111151171D01*
X70120612Y-111142274D01*
X70127736Y-111130457D01*
X70132033Y-111111426D01*
X70134209Y-111080892D01*
X70134972Y-111034562D01*
X70135045Y-110998771D01*
X70135045Y-110863945D01*
X70631756Y-110863945D01*
X70631756Y-110986600D01*
X70632269Y-111042687D01*
X70634324Y-111081233D01*
X70638692Y-111107261D01*
X70646144Y-111125797D01*
X70655153Y-111139000D01*
X70686056Y-111163504D01*
X70721004Y-111166406D01*
X70754462Y-111148989D01*
X70763596Y-111139859D01*
X70770048Y-111127755D01*
X70774303Y-111108901D01*
X70776848Y-111079520D01*
X70778171Y-111035837D01*
X70778757Y-110974075D01*
X70778825Y-110959900D01*
X70779309Y-110843531D01*
X70779559Y-110747627D01*
X70779477Y-110670077D01*
X70778969Y-110608769D01*
X70777938Y-110561590D01*
X70776287Y-110526430D01*
X70773921Y-110501176D01*
X70770743Y-110483717D01*
X70766656Y-110471941D01*
X70761566Y-110463735D01*
X70755934Y-110457545D01*
X70724072Y-110437744D01*
X70690843Y-110440433D01*
X70659465Y-110462676D01*
X70646767Y-110477026D01*
X70638674Y-110492878D01*
X70634158Y-110515454D01*
X70632194Y-110549978D01*
X70631756Y-110601676D01*
X70631756Y-110717189D01*
X70135045Y-110717189D01*
X70135045Y-110598656D01*
X70134538Y-110544048D01*
X70132502Y-110507175D01*
X70128165Y-110483207D01*
X70120753Y-110467315D01*
X70112467Y-110457545D01*
X70080606Y-110437744D01*
X70047377Y-110440433D01*
G37*
X70047377Y-110440433D02*
X70015998Y-110462676D01*
X69988289Y-110490385D01*
X69988289Y-110799820D01*
X69988362Y-110891699D01*
X69988705Y-110963740D01*
X69989508Y-111018680D01*
X69990959Y-111059260D01*
X69993248Y-111088217D01*
X69996564Y-111108291D01*
X70001095Y-111122221D01*
X70007031Y-111132745D01*
X70011686Y-111139000D01*
X70042417Y-111163573D01*
X70077704Y-111166241D01*
X70109955Y-111151171D01*
X70120612Y-111142274D01*
X70127736Y-111130457D01*
X70132033Y-111111426D01*
X70134209Y-111080892D01*
X70134972Y-111034562D01*
X70135045Y-110998771D01*
X70135045Y-110863945D01*
X70631756Y-110863945D01*
X70631756Y-110986600D01*
X70632269Y-111042687D01*
X70634324Y-111081233D01*
X70638692Y-111107261D01*
X70646144Y-111125797D01*
X70655153Y-111139000D01*
X70686056Y-111163504D01*
X70721004Y-111166406D01*
X70754462Y-111148989D01*
X70763596Y-111139859D01*
X70770048Y-111127755D01*
X70774303Y-111108901D01*
X70776848Y-111079520D01*
X70778171Y-111035837D01*
X70778757Y-110974075D01*
X70778825Y-110959900D01*
X70779309Y-110843531D01*
X70779559Y-110747627D01*
X70779477Y-110670077D01*
X70778969Y-110608769D01*
X70777938Y-110561590D01*
X70776287Y-110526430D01*
X70773921Y-110501176D01*
X70770743Y-110483717D01*
X70766656Y-110471941D01*
X70761566Y-110463735D01*
X70755934Y-110457545D01*
X70724072Y-110437744D01*
X70690843Y-110440433D01*
X70659465Y-110462676D01*
X70646767Y-110477026D01*
X70638674Y-110492878D01*
X70634158Y-110515454D01*
X70632194Y-110549978D01*
X70631756Y-110601676D01*
X70631756Y-110717189D01*
X70135045Y-110717189D01*
X70135045Y-110598656D01*
X70134538Y-110544048D01*
X70132502Y-110507175D01*
X70128165Y-110483207D01*
X70120753Y-110467315D01*
X70112467Y-110457545D01*
X70080606Y-110437744D01*
X70047377Y-110440433D01*
G36*
X71313135Y-110435063D02*
G01*
X71234428Y-110435442D01*
X71173337Y-110436233D01*
X71127383Y-110437570D01*
X71094086Y-110439583D01*
X71070964Y-110442406D01*
X71055538Y-110446169D01*
X71045329Y-110451005D01*
X71040387Y-110454722D01*
X71014743Y-110487258D01*
X71011641Y-110521038D01*
X71027489Y-110551726D01*
X71037852Y-110563989D01*
X71049004Y-110572350D01*
X71065165Y-110577557D01*
X71090558Y-110580357D01*
X71129402Y-110581496D01*
X71185920Y-110581721D01*
X71197020Y-110581722D01*
X71342956Y-110581722D01*
X71342956Y-110852656D01*
X71343052Y-110938054D01*
X71343489Y-111003764D01*
X71344488Y-111052674D01*
X71346272Y-111087673D01*
X71349063Y-111111649D01*
X71353083Y-111127493D01*
X71358555Y-111138091D01*
X71365534Y-111146167D01*
X71398466Y-111166012D01*
X71432846Y-111164448D01*
X71464024Y-111141806D01*
X71466314Y-111139000D01*
X71473771Y-111128392D01*
X71479453Y-111115981D01*
X71483599Y-111098750D01*
X71486450Y-111073684D01*
X71488246Y-111037767D01*
X71489228Y-110987983D01*
X71489636Y-110921317D01*
X71489711Y-110845489D01*
X71489711Y-110581722D01*
X71629073Y-110581722D01*
X71688878Y-110581318D01*
X71730282Y-110579740D01*
X71757452Y-110576447D01*
X71774554Y-110570892D01*
X71785757Y-110562531D01*
X71787117Y-110561078D01*
X71803475Y-110527839D01*
X71802028Y-110490262D01*
X71783222Y-110457545D01*
X71775950Y-110451198D01*
X71766573Y-110446166D01*
X71752591Y-110442296D01*
X71731504Y-110439437D01*
X71700811Y-110437435D01*
X71658011Y-110436139D01*
X71600605Y-110435398D01*
X71526090Y-110435058D01*
X71431967Y-110434968D01*
X71411940Y-110434967D01*
X71313135Y-110435063D01*
G37*
X71313135Y-110435063D02*
X71234428Y-110435442D01*
X71173337Y-110436233D01*
X71127383Y-110437570D01*
X71094086Y-110439583D01*
X71070964Y-110442406D01*
X71055538Y-110446169D01*
X71045329Y-110451005D01*
X71040387Y-110454722D01*
X71014743Y-110487258D01*
X71011641Y-110521038D01*
X71027489Y-110551726D01*
X71037852Y-110563989D01*
X71049004Y-110572350D01*
X71065165Y-110577557D01*
X71090558Y-110580357D01*
X71129402Y-110581496D01*
X71185920Y-110581721D01*
X71197020Y-110581722D01*
X71342956Y-110581722D01*
X71342956Y-110852656D01*
X71343052Y-110938054D01*
X71343489Y-111003764D01*
X71344488Y-111052674D01*
X71346272Y-111087673D01*
X71349063Y-111111649D01*
X71353083Y-111127493D01*
X71358555Y-111138091D01*
X71365534Y-111146167D01*
X71398466Y-111166012D01*
X71432846Y-111164448D01*
X71464024Y-111141806D01*
X71466314Y-111139000D01*
X71473771Y-111128392D01*
X71479453Y-111115981D01*
X71483599Y-111098750D01*
X71486450Y-111073684D01*
X71488246Y-111037767D01*
X71489228Y-110987983D01*
X71489636Y-110921317D01*
X71489711Y-110845489D01*
X71489711Y-110581722D01*
X71629073Y-110581722D01*
X71688878Y-110581318D01*
X71730282Y-110579740D01*
X71757452Y-110576447D01*
X71774554Y-110570892D01*
X71785757Y-110562531D01*
X71787117Y-110561078D01*
X71803475Y-110527839D01*
X71802028Y-110490262D01*
X71783222Y-110457545D01*
X71775950Y-110451198D01*
X71766573Y-110446166D01*
X71752591Y-110442296D01*
X71731504Y-110439437D01*
X71700811Y-110437435D01*
X71658011Y-110436139D01*
X71600605Y-110435398D01*
X71526090Y-110435058D01*
X71431967Y-110434968D01*
X71411940Y-110434967D01*
X71313135Y-110435063D01*
G36*
X72087586Y-110441777D02*
G01*
X72063873Y-110456547D01*
X72037222Y-110478127D01*
X72037222Y-110799673D01*
X72037307Y-110893730D01*
X72037671Y-110967832D01*
X72038476Y-111024604D01*
X72039887Y-111066668D01*
X72042067Y-111096648D01*
X72045179Y-111117167D01*
X72049386Y-111130849D01*
X72054852Y-111140316D01*
X72058728Y-111144982D01*
X72090166Y-111165475D01*
X72125967Y-111164639D01*
X72157327Y-111147164D01*
X72183978Y-111125584D01*
X72183978Y-110478127D01*
X72157327Y-110456547D01*
X72131606Y-110440849D01*
X72110600Y-110434967D01*
X72087586Y-110441777D01*
G37*
X72087586Y-110441777D02*
X72063873Y-110456547D01*
X72037222Y-110478127D01*
X72037222Y-110799673D01*
X72037307Y-110893730D01*
X72037671Y-110967832D01*
X72038476Y-111024604D01*
X72039887Y-111066668D01*
X72042067Y-111096648D01*
X72045179Y-111117167D01*
X72049386Y-111130849D01*
X72054852Y-111140316D01*
X72058728Y-111144982D01*
X72090166Y-111165475D01*
X72125967Y-111164639D01*
X72157327Y-111147164D01*
X72183978Y-111125584D01*
X72183978Y-110478127D01*
X72157327Y-110456547D01*
X72131606Y-110440849D01*
X72110600Y-110434967D01*
X72087586Y-110441777D01*
G36*
X72531535Y-110436934D02*
G01*
X72511945Y-110443935D01*
X72511190Y-110444277D01*
X72484587Y-110464578D01*
X72469930Y-110485461D01*
X72467062Y-110495252D01*
X72467204Y-110508261D01*
X72471239Y-110526795D01*
X72480054Y-110553157D01*
X72494531Y-110589652D01*
X72515555Y-110638587D01*
X72544012Y-110702265D01*
X72580785Y-110782993D01*
X72601025Y-110827116D01*
X72637575Y-110905885D01*
X72671885Y-110978323D01*
X72702648Y-111041780D01*
X72728552Y-111093608D01*
X72748290Y-111131159D01*
X72760550Y-111151784D01*
X72762976Y-111154633D01*
X72794017Y-111167202D01*
X72829079Y-111165519D01*
X72857200Y-111150232D01*
X72858346Y-111148989D01*
X72869532Y-111132054D01*
X72888296Y-111099070D01*
X72912325Y-111054280D01*
X72939303Y-111001932D01*
X72948999Y-110982642D01*
X73022186Y-110836050D01*
X73101960Y-110995293D01*
X73130433Y-111050315D01*
X73156850Y-111098032D01*
X73179052Y-111134793D01*
X73194881Y-111156944D01*
X73200246Y-111161641D01*
X73241943Y-111168002D01*
X73276351Y-111154633D01*
X73286472Y-111140346D01*
X73303986Y-111108592D01*
X73327465Y-111062497D01*
X73355480Y-111005185D01*
X73386601Y-110939780D01*
X73419401Y-110869407D01*
X73452450Y-110797191D01*
X73484319Y-110726255D01*
X73513581Y-110659725D01*
X73538805Y-110600726D01*
X73558564Y-110552381D01*
X73571428Y-110517815D01*
X73575969Y-110500153D01*
X73575923Y-110499513D01*
X73564874Y-110477288D01*
X73542790Y-110454653D01*
X73541490Y-110453668D01*
X73514347Y-110438325D01*
X73489242Y-110438474D01*
X73479832Y-110441366D01*
X73468366Y-110447618D01*
X73456190Y-110459914D01*
X73441843Y-110480808D01*
X73423864Y-110512849D01*
X73400793Y-110558588D01*
X73371170Y-110620577D01*
X73344455Y-110677798D01*
X73313720Y-110744126D01*
X73286179Y-110803774D01*
X73263262Y-110853625D01*
X73246402Y-110890564D01*
X73237027Y-110911473D01*
X73235660Y-110914745D01*
X73229511Y-110909397D01*
X73215378Y-110887009D01*
X73195143Y-110850846D01*
X73170685Y-110804177D01*
X73160952Y-110784922D01*
X73127983Y-110719904D01*
X73102557Y-110672554D01*
X73082588Y-110640119D01*
X73065990Y-110619846D01*
X73050676Y-110608982D01*
X73034560Y-110604775D01*
X73024057Y-110604300D01*
X73005530Y-110605942D01*
X72989296Y-110612731D01*
X72973165Y-110627466D01*
X72954949Y-110652944D01*
X72932461Y-110691961D01*
X72903511Y-110747314D01*
X72887538Y-110778803D01*
X72861630Y-110828987D01*
X72839033Y-110870604D01*
X72821742Y-110900142D01*
X72811750Y-110914089D01*
X72810391Y-110914670D01*
X72803939Y-110903693D01*
X72789492Y-110875190D01*
X72768497Y-110832144D01*
X72742403Y-110777538D01*
X72712654Y-110714354D01*
X72698020Y-110682971D01*
X72659950Y-110601978D01*
X72629295Y-110539656D01*
X72604463Y-110493971D01*
X72583863Y-110462889D01*
X72565902Y-110444378D01*
X72548990Y-110436404D01*
X72531535Y-110436934D01*
G37*
X72531535Y-110436934D02*
X72511945Y-110443935D01*
X72511190Y-110444277D01*
X72484587Y-110464578D01*
X72469930Y-110485461D01*
X72467062Y-110495252D01*
X72467204Y-110508261D01*
X72471239Y-110526795D01*
X72480054Y-110553157D01*
X72494531Y-110589652D01*
X72515555Y-110638587D01*
X72544012Y-110702265D01*
X72580785Y-110782993D01*
X72601025Y-110827116D01*
X72637575Y-110905885D01*
X72671885Y-110978323D01*
X72702648Y-111041780D01*
X72728552Y-111093608D01*
X72748290Y-111131159D01*
X72760550Y-111151784D01*
X72762976Y-111154633D01*
X72794017Y-111167202D01*
X72829079Y-111165519D01*
X72857200Y-111150232D01*
X72858346Y-111148989D01*
X72869532Y-111132054D01*
X72888296Y-111099070D01*
X72912325Y-111054280D01*
X72939303Y-111001932D01*
X72948999Y-110982642D01*
X73022186Y-110836050D01*
X73101960Y-110995293D01*
X73130433Y-111050315D01*
X73156850Y-111098032D01*
X73179052Y-111134793D01*
X73194881Y-111156944D01*
X73200246Y-111161641D01*
X73241943Y-111168002D01*
X73276351Y-111154633D01*
X73286472Y-111140346D01*
X73303986Y-111108592D01*
X73327465Y-111062497D01*
X73355480Y-111005185D01*
X73386601Y-110939780D01*
X73419401Y-110869407D01*
X73452450Y-110797191D01*
X73484319Y-110726255D01*
X73513581Y-110659725D01*
X73538805Y-110600726D01*
X73558564Y-110552381D01*
X73571428Y-110517815D01*
X73575969Y-110500153D01*
X73575923Y-110499513D01*
X73564874Y-110477288D01*
X73542790Y-110454653D01*
X73541490Y-110453668D01*
X73514347Y-110438325D01*
X73489242Y-110438474D01*
X73479832Y-110441366D01*
X73468366Y-110447618D01*
X73456190Y-110459914D01*
X73441843Y-110480808D01*
X73423864Y-110512849D01*
X73400793Y-110558588D01*
X73371170Y-110620577D01*
X73344455Y-110677798D01*
X73313720Y-110744126D01*
X73286179Y-110803774D01*
X73263262Y-110853625D01*
X73246402Y-110890564D01*
X73237027Y-110911473D01*
X73235660Y-110914745D01*
X73229511Y-110909397D01*
X73215378Y-110887009D01*
X73195143Y-110850846D01*
X73170685Y-110804177D01*
X73160952Y-110784922D01*
X73127983Y-110719904D01*
X73102557Y-110672554D01*
X73082588Y-110640119D01*
X73065990Y-110619846D01*
X73050676Y-110608982D01*
X73034560Y-110604775D01*
X73024057Y-110604300D01*
X73005530Y-110605942D01*
X72989296Y-110612731D01*
X72973165Y-110627466D01*
X72954949Y-110652944D01*
X72932461Y-110691961D01*
X72903511Y-110747314D01*
X72887538Y-110778803D01*
X72861630Y-110828987D01*
X72839033Y-110870604D01*
X72821742Y-110900142D01*
X72811750Y-110914089D01*
X72810391Y-110914670D01*
X72803939Y-110903693D01*
X72789492Y-110875190D01*
X72768497Y-110832144D01*
X72742403Y-110777538D01*
X72712654Y-110714354D01*
X72698020Y-110682971D01*
X72659950Y-110601978D01*
X72629295Y-110539656D01*
X72604463Y-110493971D01*
X72583863Y-110462889D01*
X72565902Y-110444378D01*
X72548990Y-110436404D01*
X72531535Y-110436934D01*
G36*
X75257891Y-110435175D02*
G01*
X75128912Y-110439536D01*
X75019209Y-110452761D01*
X74926974Y-110475641D01*
X74850398Y-110508970D01*
X74787673Y-110553538D01*
X74736988Y-110610136D01*
X74696537Y-110679558D01*
X74695741Y-110681251D01*
X74671599Y-110743383D01*
X74662997Y-110798409D01*
X74669969Y-110853787D01*
X74692546Y-110916973D01*
X74696828Y-110926589D01*
X74726028Y-110982866D01*
X74758844Y-111026351D01*
X74801198Y-111063317D01*
X74859010Y-111100035D01*
X74862369Y-111101952D01*
X74912696Y-111126127D01*
X74969579Y-111144182D01*
X75036673Y-111156739D01*
X75117635Y-111164422D01*
X75216118Y-111167853D01*
X75250914Y-111168151D01*
X75416606Y-111168745D01*
X75440003Y-111139000D01*
X75446943Y-111129219D01*
X75452358Y-111117797D01*
X75456435Y-111101995D01*
X75459363Y-111079075D01*
X75461333Y-111046296D01*
X75461975Y-111021989D01*
X75305356Y-111021989D01*
X75211474Y-111021989D01*
X75156536Y-111020383D01*
X75100140Y-111016155D01*
X75053855Y-111010192D01*
X75051061Y-111009690D01*
X74968852Y-110987636D01*
X74905086Y-110954500D01*
X74857748Y-110908747D01*
X74824818Y-110848839D01*
X74819092Y-110832961D01*
X74813479Y-110808233D01*
X74815909Y-110783802D01*
X74827733Y-110751300D01*
X74834860Y-110735334D01*
X74858200Y-110692906D01*
X74886320Y-110663140D01*
X74917260Y-110642411D01*
X74979234Y-110615437D01*
X75058549Y-110595898D01*
X75150947Y-110584646D01*
X75217867Y-110582170D01*
X75305356Y-110581722D01*
X75305356Y-111021989D01*
X75461975Y-111021989D01*
X75462532Y-111000921D01*
X75463150Y-110940211D01*
X75463375Y-110861426D01*
X75463400Y-110799820D01*
X75463400Y-110490385D01*
X75435691Y-110462676D01*
X75423394Y-110451444D01*
X75410097Y-110443753D01*
X75391528Y-110438940D01*
X75363414Y-110436346D01*
X75321483Y-110435310D01*
X75261463Y-110435170D01*
X75257891Y-110435175D01*
G37*
X75257891Y-110435175D02*
X75128912Y-110439536D01*
X75019209Y-110452761D01*
X74926974Y-110475641D01*
X74850398Y-110508970D01*
X74787673Y-110553538D01*
X74736988Y-110610136D01*
X74696537Y-110679558D01*
X74695741Y-110681251D01*
X74671599Y-110743383D01*
X74662997Y-110798409D01*
X74669969Y-110853787D01*
X74692546Y-110916973D01*
X74696828Y-110926589D01*
X74726028Y-110982866D01*
X74758844Y-111026351D01*
X74801198Y-111063317D01*
X74859010Y-111100035D01*
X74862369Y-111101952D01*
X74912696Y-111126127D01*
X74969579Y-111144182D01*
X75036673Y-111156739D01*
X75117635Y-111164422D01*
X75216118Y-111167853D01*
X75250914Y-111168151D01*
X75416606Y-111168745D01*
X75440003Y-111139000D01*
X75446943Y-111129219D01*
X75452358Y-111117797D01*
X75456435Y-111101995D01*
X75459363Y-111079075D01*
X75461333Y-111046296D01*
X75461975Y-111021989D01*
X75305356Y-111021989D01*
X75211474Y-111021989D01*
X75156536Y-111020383D01*
X75100140Y-111016155D01*
X75053855Y-111010192D01*
X75051061Y-111009690D01*
X74968852Y-110987636D01*
X74905086Y-110954500D01*
X74857748Y-110908747D01*
X74824818Y-110848839D01*
X74819092Y-110832961D01*
X74813479Y-110808233D01*
X74815909Y-110783802D01*
X74827733Y-110751300D01*
X74834860Y-110735334D01*
X74858200Y-110692906D01*
X74886320Y-110663140D01*
X74917260Y-110642411D01*
X74979234Y-110615437D01*
X75058549Y-110595898D01*
X75150947Y-110584646D01*
X75217867Y-110582170D01*
X75305356Y-110581722D01*
X75305356Y-111021989D01*
X75461975Y-111021989D01*
X75462532Y-111000921D01*
X75463150Y-110940211D01*
X75463375Y-110861426D01*
X75463400Y-110799820D01*
X75463400Y-110490385D01*
X75435691Y-110462676D01*
X75423394Y-110451444D01*
X75410097Y-110443753D01*
X75391528Y-110438940D01*
X75363414Y-110436346D01*
X75321483Y-110435310D01*
X75261463Y-110435170D01*
X75257891Y-110435175D01*
G36*
X76045857Y-110435160D02*
G01*
X75969499Y-110436074D01*
X75910983Y-110438211D01*
X75867945Y-110442075D01*
X75838017Y-110448167D01*
X75818832Y-110456990D01*
X75808024Y-110469046D01*
X75803227Y-110484839D01*
X75802073Y-110504870D01*
X75802067Y-110507235D01*
X75803069Y-110529892D01*
X75807804Y-110547403D01*
X75818867Y-110560474D01*
X75838852Y-110569813D01*
X75870354Y-110576127D01*
X75915968Y-110580122D01*
X75978287Y-110582506D01*
X76059907Y-110583986D01*
X76084923Y-110584314D01*
X76327000Y-110587367D01*
X76330386Y-110652278D01*
X76333771Y-110717189D01*
X76165624Y-110717189D01*
X76099934Y-110717431D01*
X76053028Y-110718456D01*
X76021117Y-110720711D01*
X76000409Y-110724642D01*
X75987116Y-110730698D01*
X75977445Y-110739324D01*
X75977383Y-110739393D01*
X75959844Y-110773012D01*
X75960478Y-110809348D01*
X75978886Y-110840323D01*
X75982529Y-110843507D01*
X75995459Y-110851712D01*
X76013176Y-110857421D01*
X76039630Y-110861062D01*
X76078768Y-110863067D01*
X76134538Y-110863864D01*
X76170206Y-110863945D01*
X76332645Y-110863945D01*
X76332645Y-111021989D01*
X76086039Y-111021989D01*
X76004620Y-111022131D01*
X75942790Y-111022714D01*
X75897563Y-111023968D01*
X75865952Y-111026127D01*
X75844969Y-111029423D01*
X75831627Y-111034089D01*
X75822939Y-111040357D01*
X75820750Y-111042633D01*
X75804586Y-111074180D01*
X75803403Y-111110068D01*
X75816664Y-111141185D01*
X75827157Y-111151171D01*
X75838071Y-111156669D01*
X75854983Y-111160922D01*
X75880567Y-111164080D01*
X75917499Y-111166292D01*
X75968454Y-111167706D01*
X76036106Y-111168472D01*
X76123131Y-111168738D01*
X76142806Y-111168745D01*
X76231289Y-111168687D01*
X76299973Y-111168367D01*
X76351636Y-111167567D01*
X76389055Y-111166067D01*
X76415010Y-111163649D01*
X76432278Y-111160094D01*
X76443638Y-111155182D01*
X76451868Y-111148695D01*
X76456383Y-111144038D01*
X76463179Y-111135789D01*
X76468488Y-111125569D01*
X76472494Y-111110700D01*
X76475379Y-111088502D01*
X76477326Y-111056293D01*
X76478519Y-111011396D01*
X76479139Y-110951128D01*
X76479371Y-110872811D01*
X76479400Y-110806894D01*
X76479329Y-110714528D01*
X76478992Y-110642017D01*
X76478202Y-110586637D01*
X76476774Y-110545665D01*
X76474521Y-110516378D01*
X76471257Y-110496053D01*
X76466796Y-110481966D01*
X76460952Y-110471395D01*
X76456003Y-110464711D01*
X76432606Y-110434967D01*
X76142426Y-110434967D01*
X76045857Y-110435160D01*
G37*
X76045857Y-110435160D02*
X75969499Y-110436074D01*
X75910983Y-110438211D01*
X75867945Y-110442075D01*
X75838017Y-110448167D01*
X75818832Y-110456990D01*
X75808024Y-110469046D01*
X75803227Y-110484839D01*
X75802073Y-110504870D01*
X75802067Y-110507235D01*
X75803069Y-110529892D01*
X75807804Y-110547403D01*
X75818867Y-110560474D01*
X75838852Y-110569813D01*
X75870354Y-110576127D01*
X75915968Y-110580122D01*
X75978287Y-110582506D01*
X76059907Y-110583986D01*
X76084923Y-110584314D01*
X76327000Y-110587367D01*
X76330386Y-110652278D01*
X76333771Y-110717189D01*
X76165624Y-110717189D01*
X76099934Y-110717431D01*
X76053028Y-110718456D01*
X76021117Y-110720711D01*
X76000409Y-110724642D01*
X75987116Y-110730698D01*
X75977445Y-110739324D01*
X75977383Y-110739393D01*
X75959844Y-110773012D01*
X75960478Y-110809348D01*
X75978886Y-110840323D01*
X75982529Y-110843507D01*
X75995459Y-110851712D01*
X76013176Y-110857421D01*
X76039630Y-110861062D01*
X76078768Y-110863067D01*
X76134538Y-110863864D01*
X76170206Y-110863945D01*
X76332645Y-110863945D01*
X76332645Y-111021989D01*
X76086039Y-111021989D01*
X76004620Y-111022131D01*
X75942790Y-111022714D01*
X75897563Y-111023968D01*
X75865952Y-111026127D01*
X75844969Y-111029423D01*
X75831627Y-111034089D01*
X75822939Y-111040357D01*
X75820750Y-111042633D01*
X75804586Y-111074180D01*
X75803403Y-111110068D01*
X75816664Y-111141185D01*
X75827157Y-111151171D01*
X75838071Y-111156669D01*
X75854983Y-111160922D01*
X75880567Y-111164080D01*
X75917499Y-111166292D01*
X75968454Y-111167706D01*
X76036106Y-111168472D01*
X76123131Y-111168738D01*
X76142806Y-111168745D01*
X76231289Y-111168687D01*
X76299973Y-111168367D01*
X76351636Y-111167567D01*
X76389055Y-111166067D01*
X76415010Y-111163649D01*
X76432278Y-111160094D01*
X76443638Y-111155182D01*
X76451868Y-111148695D01*
X76456383Y-111144038D01*
X76463179Y-111135789D01*
X76468488Y-111125569D01*
X76472494Y-111110700D01*
X76475379Y-111088502D01*
X76477326Y-111056293D01*
X76478519Y-111011396D01*
X76479139Y-110951128D01*
X76479371Y-110872811D01*
X76479400Y-110806894D01*
X76479329Y-110714528D01*
X76478992Y-110642017D01*
X76478202Y-110586637D01*
X76476774Y-110545665D01*
X76474521Y-110516378D01*
X76471257Y-110496053D01*
X76466796Y-110481966D01*
X76460952Y-110471395D01*
X76456003Y-110464711D01*
X76432606Y-110434967D01*
X76142426Y-110434967D01*
X76045857Y-110435160D01*
G36*
X77576314Y-110439348D02*
G01*
X77552748Y-110453173D01*
X77521935Y-110475781D01*
X77482278Y-110508238D01*
X77432180Y-110551608D01*
X77370043Y-110606958D01*
X77294272Y-110675351D01*
X77207534Y-110753984D01*
X77026911Y-110917778D01*
X77021267Y-110697929D01*
X77019229Y-110622251D01*
X77017263Y-110565894D01*
X77014934Y-110525606D01*
X77011806Y-110498135D01*
X77007445Y-110480229D01*
X77001416Y-110468637D01*
X76993284Y-110460108D01*
X76988972Y-110456523D01*
X76954441Y-110437570D01*
X76921583Y-110440341D01*
X76895518Y-110456533D01*
X76868867Y-110478099D01*
X76865552Y-110793051D01*
X76864635Y-110885679D01*
X76864168Y-110958444D01*
X76864313Y-111014061D01*
X76865232Y-111055242D01*
X76867087Y-111084703D01*
X76870039Y-111105155D01*
X76874250Y-111119313D01*
X76879882Y-111129891D01*
X76886127Y-111138374D01*
X76899639Y-111154107D01*
X76913083Y-111164536D01*
X76928324Y-111168539D01*
X76947226Y-111164994D01*
X76971655Y-111152779D01*
X77003473Y-111130771D01*
X77044548Y-111097849D01*
X77096742Y-111052891D01*
X77161922Y-110994775D01*
X77235756Y-110927999D01*
X77501045Y-110687358D01*
X77506689Y-110906489D01*
X77508731Y-110982028D01*
X77510702Y-111038254D01*
X77513039Y-111078424D01*
X77516181Y-111105796D01*
X77520564Y-111123628D01*
X77526624Y-111135179D01*
X77534800Y-111143707D01*
X77538984Y-111147182D01*
X77575965Y-111166272D01*
X77610908Y-111163393D01*
X77641336Y-111139000D01*
X77648297Y-111129186D01*
X77653723Y-111117726D01*
X77657803Y-111101868D01*
X77660729Y-111078863D01*
X77662692Y-111045962D01*
X77663883Y-111000416D01*
X77664492Y-110939473D01*
X77664711Y-110860386D01*
X77664734Y-110801856D01*
X77664660Y-110710307D01*
X77664313Y-110638587D01*
X77663501Y-110583945D01*
X77662033Y-110543632D01*
X77659719Y-110514898D01*
X77656367Y-110494993D01*
X77651788Y-110481168D01*
X77645789Y-110470672D01*
X77641336Y-110464711D01*
X77630050Y-110450591D01*
X77619501Y-110439929D01*
X77608093Y-110433792D01*
X77594230Y-110433243D01*
X77576314Y-110439348D01*
G37*
X77576314Y-110439348D02*
X77552748Y-110453173D01*
X77521935Y-110475781D01*
X77482278Y-110508238D01*
X77432180Y-110551608D01*
X77370043Y-110606958D01*
X77294272Y-110675351D01*
X77207534Y-110753984D01*
X77026911Y-110917778D01*
X77021267Y-110697929D01*
X77019229Y-110622251D01*
X77017263Y-110565894D01*
X77014934Y-110525606D01*
X77011806Y-110498135D01*
X77007445Y-110480229D01*
X77001416Y-110468637D01*
X76993284Y-110460108D01*
X76988972Y-110456523D01*
X76954441Y-110437570D01*
X76921583Y-110440341D01*
X76895518Y-110456533D01*
X76868867Y-110478099D01*
X76865552Y-110793051D01*
X76864635Y-110885679D01*
X76864168Y-110958444D01*
X76864313Y-111014061D01*
X76865232Y-111055242D01*
X76867087Y-111084703D01*
X76870039Y-111105155D01*
X76874250Y-111119313D01*
X76879882Y-111129891D01*
X76886127Y-111138374D01*
X76899639Y-111154107D01*
X76913083Y-111164536D01*
X76928324Y-111168539D01*
X76947226Y-111164994D01*
X76971655Y-111152779D01*
X77003473Y-111130771D01*
X77044548Y-111097849D01*
X77096742Y-111052891D01*
X77161922Y-110994775D01*
X77235756Y-110927999D01*
X77501045Y-110687358D01*
X77506689Y-110906489D01*
X77508731Y-110982028D01*
X77510702Y-111038254D01*
X77513039Y-111078424D01*
X77516181Y-111105796D01*
X77520564Y-111123628D01*
X77526624Y-111135179D01*
X77534800Y-111143707D01*
X77538984Y-111147182D01*
X77575965Y-111166272D01*
X77610908Y-111163393D01*
X77641336Y-111139000D01*
X77648297Y-111129186D01*
X77653723Y-111117726D01*
X77657803Y-111101868D01*
X77660729Y-111078863D01*
X77662692Y-111045962D01*
X77663883Y-111000416D01*
X77664492Y-110939473D01*
X77664711Y-110860386D01*
X77664734Y-110801856D01*
X77664660Y-110710307D01*
X77664313Y-110638587D01*
X77663501Y-110583945D01*
X77662033Y-110543632D01*
X77659719Y-110514898D01*
X77656367Y-110494993D01*
X77651788Y-110481168D01*
X77645789Y-110470672D01*
X77641336Y-110464711D01*
X77630050Y-110450591D01*
X77619501Y-110439929D01*
X77608093Y-110433792D01*
X77594230Y-110433243D01*
X77576314Y-110439348D01*
G36*
X78226281Y-110440499D02*
G01*
X78157765Y-110451995D01*
X78105143Y-110469867D01*
X78070908Y-110493399D01*
X78061579Y-110506824D01*
X78052093Y-110538048D01*
X78058477Y-110566295D01*
X78078630Y-110593082D01*
X78109945Y-110605613D01*
X78155383Y-110604596D01*
X78190526Y-110597806D01*
X78268619Y-110584871D01*
X78348426Y-110583642D01*
X78437755Y-110594141D01*
X78462429Y-110598590D01*
X78545491Y-110622008D01*
X78610473Y-110656845D01*
X78656661Y-110702504D01*
X78683345Y-110758394D01*
X78688863Y-110787288D01*
X78685251Y-110845912D01*
X78661929Y-110897779D01*
X78621024Y-110941878D01*
X78564659Y-110977199D01*
X78494960Y-111002729D01*
X78414052Y-111017459D01*
X78324060Y-111020378D01*
X78227110Y-111010475D01*
X78221636Y-111009541D01*
X78183075Y-111002359D01*
X78161694Y-110995421D01*
X78152427Y-110985127D01*
X78150206Y-110967876D01*
X78150156Y-110958741D01*
X78150156Y-110920389D01*
X78218631Y-110920389D01*
X78279100Y-110916247D01*
X78320365Y-110903047D01*
X78344375Y-110879630D01*
X78353077Y-110844836D01*
X78353183Y-110840294D01*
X78348092Y-110810554D01*
X78330633Y-110789319D01*
X78298139Y-110775266D01*
X78247943Y-110767073D01*
X78199323Y-110764061D01*
X78128656Y-110762333D01*
X78077398Y-110764970D01*
X78042439Y-110774700D01*
X78020670Y-110794253D01*
X78008980Y-110826356D01*
X78004260Y-110873738D01*
X78003400Y-110935971D01*
X78004809Y-111005435D01*
X78009048Y-111052686D01*
X78016136Y-111077912D01*
X78017511Y-111079888D01*
X78056428Y-111111408D01*
X78113486Y-111136370D01*
X78185069Y-111154240D01*
X78267558Y-111164486D01*
X78357339Y-111166573D01*
X78450792Y-111159968D01*
X78505756Y-111151856D01*
X78591966Y-111127454D01*
X78672092Y-111087562D01*
X78739177Y-111035787D01*
X78749373Y-111025439D01*
X78782502Y-110981935D01*
X78812394Y-110928018D01*
X78835557Y-110871492D01*
X78848498Y-110820159D01*
X78850058Y-110800444D01*
X78843418Y-110759319D01*
X78825768Y-110708152D01*
X78800497Y-110654294D01*
X78770989Y-110605095D01*
X78744919Y-110572234D01*
X78683965Y-110523352D01*
X78605169Y-110484445D01*
X78511357Y-110456394D01*
X78405350Y-110440079D01*
X78308200Y-110436092D01*
X78226281Y-110440499D01*
G37*
X78226281Y-110440499D02*
X78157765Y-110451995D01*
X78105143Y-110469867D01*
X78070908Y-110493399D01*
X78061579Y-110506824D01*
X78052093Y-110538048D01*
X78058477Y-110566295D01*
X78078630Y-110593082D01*
X78109945Y-110605613D01*
X78155383Y-110604596D01*
X78190526Y-110597806D01*
X78268619Y-110584871D01*
X78348426Y-110583642D01*
X78437755Y-110594141D01*
X78462429Y-110598590D01*
X78545491Y-110622008D01*
X78610473Y-110656845D01*
X78656661Y-110702504D01*
X78683345Y-110758394D01*
X78688863Y-110787288D01*
X78685251Y-110845912D01*
X78661929Y-110897779D01*
X78621024Y-110941878D01*
X78564659Y-110977199D01*
X78494960Y-111002729D01*
X78414052Y-111017459D01*
X78324060Y-111020378D01*
X78227110Y-111010475D01*
X78221636Y-111009541D01*
X78183075Y-111002359D01*
X78161694Y-110995421D01*
X78152427Y-110985127D01*
X78150206Y-110967876D01*
X78150156Y-110958741D01*
X78150156Y-110920389D01*
X78218631Y-110920389D01*
X78279100Y-110916247D01*
X78320365Y-110903047D01*
X78344375Y-110879630D01*
X78353077Y-110844836D01*
X78353183Y-110840294D01*
X78348092Y-110810554D01*
X78330633Y-110789319D01*
X78298139Y-110775266D01*
X78247943Y-110767073D01*
X78199323Y-110764061D01*
X78128656Y-110762333D01*
X78077398Y-110764970D01*
X78042439Y-110774700D01*
X78020670Y-110794253D01*
X78008980Y-110826356D01*
X78004260Y-110873738D01*
X78003400Y-110935971D01*
X78004809Y-111005435D01*
X78009048Y-111052686D01*
X78016136Y-111077912D01*
X78017511Y-111079888D01*
X78056428Y-111111408D01*
X78113486Y-111136370D01*
X78185069Y-111154240D01*
X78267558Y-111164486D01*
X78357339Y-111166573D01*
X78450792Y-111159968D01*
X78505756Y-111151856D01*
X78591966Y-111127454D01*
X78672092Y-111087562D01*
X78739177Y-111035787D01*
X78749373Y-111025439D01*
X78782502Y-110981935D01*
X78812394Y-110928018D01*
X78835557Y-110871492D01*
X78848498Y-110820159D01*
X78850058Y-110800444D01*
X78843418Y-110759319D01*
X78825768Y-110708152D01*
X78800497Y-110654294D01*
X78770989Y-110605095D01*
X78744919Y-110572234D01*
X78683965Y-110523352D01*
X78605169Y-110484445D01*
X78511357Y-110456394D01*
X78405350Y-110440079D01*
X78308200Y-110436092D01*
X78226281Y-110440499D01*
G36*
X79200022Y-110457545D02*
G01*
X79193442Y-110465118D01*
X79188279Y-110474887D01*
X79184364Y-110489471D01*
X79181524Y-110511485D01*
X79179587Y-110543548D01*
X79178383Y-110588275D01*
X79177739Y-110648285D01*
X79177484Y-110726194D01*
X79177445Y-110801856D01*
X79177514Y-110895702D01*
X79177838Y-110969589D01*
X79178586Y-111026132D01*
X79179932Y-111067949D01*
X79182046Y-111097657D01*
X79185100Y-111117873D01*
X79189266Y-111131214D01*
X79194716Y-111140298D01*
X79200022Y-111146167D01*
X79233026Y-111165847D01*
X79268191Y-111164081D01*
X79299655Y-111142617D01*
X79306884Y-111134237D01*
X79312534Y-111124514D01*
X79316799Y-111110761D01*
X79319873Y-111090289D01*
X79321952Y-111060412D01*
X79323230Y-111018441D01*
X79323901Y-110961689D01*
X79324159Y-110887467D01*
X79324200Y-110803437D01*
X79324200Y-110490385D01*
X79296491Y-110462676D01*
X79262337Y-110439363D01*
X79229206Y-110438523D01*
X79200022Y-110457545D01*
G37*
X79200022Y-110457545D02*
X79193442Y-110465118D01*
X79188279Y-110474887D01*
X79184364Y-110489471D01*
X79181524Y-110511485D01*
X79179587Y-110543548D01*
X79178383Y-110588275D01*
X79177739Y-110648285D01*
X79177484Y-110726194D01*
X79177445Y-110801856D01*
X79177514Y-110895702D01*
X79177838Y-110969589D01*
X79178586Y-111026132D01*
X79179932Y-111067949D01*
X79182046Y-111097657D01*
X79185100Y-111117873D01*
X79189266Y-111131214D01*
X79194716Y-111140298D01*
X79200022Y-111146167D01*
X79233026Y-111165847D01*
X79268191Y-111164081D01*
X79299655Y-111142617D01*
X79306884Y-111134237D01*
X79312534Y-111124514D01*
X79316799Y-111110761D01*
X79319873Y-111090289D01*
X79321952Y-111060412D01*
X79323230Y-111018441D01*
X79323901Y-110961689D01*
X79324159Y-110887467D01*
X79324200Y-110803437D01*
X79324200Y-110490385D01*
X79296491Y-110462676D01*
X79262337Y-110439363D01*
X79229206Y-110438523D01*
X79200022Y-110457545D01*
G36*
X79967903Y-110436251D02*
G01*
X79893088Y-110441481D01*
X79823506Y-110449650D01*
X79763202Y-110460450D01*
X79716220Y-110473573D01*
X79686606Y-110488713D01*
X79682060Y-110493169D01*
X79666254Y-110527750D01*
X79671047Y-110563251D01*
X79695564Y-110593625D01*
X79696734Y-110594496D01*
X79711154Y-110603854D01*
X79726208Y-110608776D01*
X79747205Y-110609373D01*
X79779457Y-110605761D01*
X79828273Y-110598054D01*
X79832200Y-110597405D01*
X79904939Y-110588469D01*
X79983417Y-110584061D01*
X80062127Y-110584019D01*
X80135561Y-110588179D01*
X80198211Y-110596379D01*
X80244570Y-110608457D01*
X80247616Y-110609671D01*
X80281248Y-110628515D01*
X80293064Y-110647585D01*
X80283814Y-110666339D01*
X80254247Y-110684237D01*
X80205111Y-110700737D01*
X80137157Y-110715296D01*
X80091845Y-110722306D01*
X79997656Y-110735789D01*
X79922744Y-110748114D01*
X79863917Y-110760349D01*
X79817985Y-110773561D01*
X79781755Y-110788817D01*
X79752038Y-110807185D01*
X79725642Y-110829731D01*
X79704430Y-110851871D01*
X79679265Y-110882719D01*
X79666881Y-110909245D01*
X79663008Y-110941926D01*
X79662867Y-110953895D01*
X79665776Y-110993612D01*
X79677402Y-111023159D01*
X79697523Y-111049386D01*
X79738416Y-111089476D01*
X79784017Y-111120049D01*
X79837713Y-111142103D01*
X79902892Y-111156635D01*
X79982944Y-111164641D01*
X80081257Y-111167118D01*
X80097489Y-111167077D01*
X80163049Y-111165718D01*
X80228066Y-111162630D01*
X80285452Y-111158256D01*
X80328122Y-111153040D01*
X80331572Y-111152441D01*
X80373996Y-111142391D01*
X80409980Y-111129696D01*
X80430350Y-111118090D01*
X80449307Y-111087472D01*
X80450627Y-111051818D01*
X80434285Y-111020044D01*
X80430629Y-111016451D01*
X80415515Y-111005776D01*
X80396615Y-111001176D01*
X80367362Y-111001959D01*
X80331851Y-111006027D01*
X80292170Y-111009662D01*
X80236545Y-111012728D01*
X80171606Y-111014953D01*
X80103985Y-111016064D01*
X80086200Y-111016137D01*
X80018328Y-111015864D01*
X79968654Y-111014546D01*
X79932810Y-111011727D01*
X79906424Y-111006950D01*
X79885126Y-110999757D01*
X79872326Y-110993767D01*
X79844200Y-110977133D01*
X79826268Y-110962068D01*
X79823647Y-110957797D01*
X79829176Y-110940163D01*
X79855460Y-110923092D01*
X79900678Y-110907358D01*
X79963008Y-110893738D01*
X79981371Y-110890704D01*
X80077290Y-110875638D01*
X80153841Y-110863046D01*
X80213980Y-110852011D01*
X80260660Y-110841620D01*
X80296837Y-110830956D01*
X80325465Y-110819105D01*
X80349498Y-110805151D01*
X80371892Y-110788181D01*
X80395602Y-110767278D01*
X80403580Y-110759949D01*
X80431553Y-110732599D01*
X80446360Y-110710929D01*
X80452152Y-110686132D01*
X80453089Y-110654883D01*
X80442775Y-110593605D01*
X80411952Y-110541540D01*
X80360795Y-110498858D01*
X80289483Y-110465725D01*
X80238600Y-110450864D01*
X80183300Y-110441266D01*
X80117053Y-110435836D01*
X80043906Y-110434267D01*
X79967903Y-110436251D01*
G37*
X79967903Y-110436251D02*
X79893088Y-110441481D01*
X79823506Y-110449650D01*
X79763202Y-110460450D01*
X79716220Y-110473573D01*
X79686606Y-110488713D01*
X79682060Y-110493169D01*
X79666254Y-110527750D01*
X79671047Y-110563251D01*
X79695564Y-110593625D01*
X79696734Y-110594496D01*
X79711154Y-110603854D01*
X79726208Y-110608776D01*
X79747205Y-110609373D01*
X79779457Y-110605761D01*
X79828273Y-110598054D01*
X79832200Y-110597405D01*
X79904939Y-110588469D01*
X79983417Y-110584061D01*
X80062127Y-110584019D01*
X80135561Y-110588179D01*
X80198211Y-110596379D01*
X80244570Y-110608457D01*
X80247616Y-110609671D01*
X80281248Y-110628515D01*
X80293064Y-110647585D01*
X80283814Y-110666339D01*
X80254247Y-110684237D01*
X80205111Y-110700737D01*
X80137157Y-110715296D01*
X80091845Y-110722306D01*
X79997656Y-110735789D01*
X79922744Y-110748114D01*
X79863917Y-110760349D01*
X79817985Y-110773561D01*
X79781755Y-110788817D01*
X79752038Y-110807185D01*
X79725642Y-110829731D01*
X79704430Y-110851871D01*
X79679265Y-110882719D01*
X79666881Y-110909245D01*
X79663008Y-110941926D01*
X79662867Y-110953895D01*
X79665776Y-110993612D01*
X79677402Y-111023159D01*
X79697523Y-111049386D01*
X79738416Y-111089476D01*
X79784017Y-111120049D01*
X79837713Y-111142103D01*
X79902892Y-111156635D01*
X79982944Y-111164641D01*
X80081257Y-111167118D01*
X80097489Y-111167077D01*
X80163049Y-111165718D01*
X80228066Y-111162630D01*
X80285452Y-111158256D01*
X80328122Y-111153040D01*
X80331572Y-111152441D01*
X80373996Y-111142391D01*
X80409980Y-111129696D01*
X80430350Y-111118090D01*
X80449307Y-111087472D01*
X80450627Y-111051818D01*
X80434285Y-111020044D01*
X80430629Y-111016451D01*
X80415515Y-111005776D01*
X80396615Y-111001176D01*
X80367362Y-111001959D01*
X80331851Y-111006027D01*
X80292170Y-111009662D01*
X80236545Y-111012728D01*
X80171606Y-111014953D01*
X80103985Y-111016064D01*
X80086200Y-111016137D01*
X80018328Y-111015864D01*
X79968654Y-111014546D01*
X79932810Y-111011727D01*
X79906424Y-111006950D01*
X79885126Y-110999757D01*
X79872326Y-110993767D01*
X79844200Y-110977133D01*
X79826268Y-110962068D01*
X79823647Y-110957797D01*
X79829176Y-110940163D01*
X79855460Y-110923092D01*
X79900678Y-110907358D01*
X79963008Y-110893738D01*
X79981371Y-110890704D01*
X80077290Y-110875638D01*
X80153841Y-110863046D01*
X80213980Y-110852011D01*
X80260660Y-110841620D01*
X80296837Y-110830956D01*
X80325465Y-110819105D01*
X80349498Y-110805151D01*
X80371892Y-110788181D01*
X80395602Y-110767278D01*
X80403580Y-110759949D01*
X80431553Y-110732599D01*
X80446360Y-110710929D01*
X80452152Y-110686132D01*
X80453089Y-110654883D01*
X80442775Y-110593605D01*
X80411952Y-110541540D01*
X80360795Y-110498858D01*
X80289483Y-110465725D01*
X80238600Y-110450864D01*
X80183300Y-110441266D01*
X80117053Y-110435836D01*
X80043906Y-110434267D01*
X79967903Y-110436251D01*
G36*
X80988994Y-110435046D02*
G01*
X80919586Y-110435418D01*
X80867197Y-110436285D01*
X80829047Y-110437846D01*
X80802359Y-110440303D01*
X80784353Y-110443857D01*
X80772249Y-110448710D01*
X80763269Y-110455061D01*
X80760018Y-110457984D01*
X80740243Y-110489042D01*
X80736682Y-110524728D01*
X80749691Y-110556410D01*
X80755706Y-110562813D01*
X80765435Y-110569021D01*
X80781101Y-110573810D01*
X80805608Y-110577414D01*
X80841861Y-110580064D01*
X80892765Y-110581995D01*
X80961226Y-110583439D01*
X81023817Y-110584318D01*
X81271534Y-110587367D01*
X81274919Y-110652278D01*
X81278305Y-110717189D01*
X81110158Y-110717189D01*
X81037159Y-110717819D01*
X80983717Y-110720453D01*
X80946828Y-110726209D01*
X80923488Y-110736204D01*
X80910694Y-110751556D01*
X80905442Y-110773382D01*
X80904645Y-110793638D01*
X80907123Y-110818492D01*
X80916477Y-110836806D01*
X80935583Y-110849537D01*
X80967318Y-110857641D01*
X81014559Y-110862076D01*
X81080183Y-110863799D01*
X81116001Y-110863945D01*
X81277178Y-110863945D01*
X81277178Y-111021989D01*
X81028822Y-111021989D01*
X80947413Y-111022102D01*
X80885542Y-111022612D01*
X80840168Y-111023770D01*
X80808254Y-111025830D01*
X80786759Y-111029046D01*
X80772643Y-111033672D01*
X80762868Y-111039959D01*
X80757889Y-111044567D01*
X80740810Y-111071460D01*
X80735311Y-111095367D01*
X80743163Y-111124567D01*
X80757889Y-111146167D01*
X80765746Y-111152966D01*
X80775888Y-111158246D01*
X80791044Y-111162198D01*
X80813941Y-111165013D01*
X80847309Y-111166882D01*
X80893875Y-111167998D01*
X80956367Y-111168551D01*
X81037514Y-111168733D01*
X81079622Y-111168745D01*
X81169798Y-111168665D01*
X81240124Y-111168298D01*
X81293329Y-111167452D01*
X81332140Y-111165936D01*
X81359287Y-111163559D01*
X81377498Y-111160129D01*
X81389500Y-111155454D01*
X81398022Y-111149344D01*
X81401356Y-111146167D01*
X81407955Y-111138570D01*
X81413127Y-111128770D01*
X81417046Y-111114139D01*
X81419884Y-111092052D01*
X81421815Y-111059882D01*
X81423012Y-111015003D01*
X81423648Y-110954789D01*
X81423897Y-110876613D01*
X81423934Y-110803823D01*
X81423900Y-110710607D01*
X81423665Y-110637331D01*
X81423030Y-110581358D01*
X81421794Y-110540051D01*
X81419756Y-110510772D01*
X81416717Y-110490884D01*
X81412477Y-110477750D01*
X81406835Y-110468732D01*
X81399591Y-110461193D01*
X81397806Y-110459512D01*
X81389145Y-110452072D01*
X81379082Y-110446309D01*
X81364825Y-110442012D01*
X81343583Y-110438964D01*
X81312564Y-110436951D01*
X81268977Y-110435760D01*
X81210031Y-110435175D01*
X81132934Y-110434983D01*
X81078201Y-110434967D01*
X80988994Y-110435046D01*
G37*
X80988994Y-110435046D02*
X80919586Y-110435418D01*
X80867197Y-110436285D01*
X80829047Y-110437846D01*
X80802359Y-110440303D01*
X80784353Y-110443857D01*
X80772249Y-110448710D01*
X80763269Y-110455061D01*
X80760018Y-110457984D01*
X80740243Y-110489042D01*
X80736682Y-110524728D01*
X80749691Y-110556410D01*
X80755706Y-110562813D01*
X80765435Y-110569021D01*
X80781101Y-110573810D01*
X80805608Y-110577414D01*
X80841861Y-110580064D01*
X80892765Y-110581995D01*
X80961226Y-110583439D01*
X81023817Y-110584318D01*
X81271534Y-110587367D01*
X81274919Y-110652278D01*
X81278305Y-110717189D01*
X81110158Y-110717189D01*
X81037159Y-110717819D01*
X80983717Y-110720453D01*
X80946828Y-110726209D01*
X80923488Y-110736204D01*
X80910694Y-110751556D01*
X80905442Y-110773382D01*
X80904645Y-110793638D01*
X80907123Y-110818492D01*
X80916477Y-110836806D01*
X80935583Y-110849537D01*
X80967318Y-110857641D01*
X81014559Y-110862076D01*
X81080183Y-110863799D01*
X81116001Y-110863945D01*
X81277178Y-110863945D01*
X81277178Y-111021989D01*
X81028822Y-111021989D01*
X80947413Y-111022102D01*
X80885542Y-111022612D01*
X80840168Y-111023770D01*
X80808254Y-111025830D01*
X80786759Y-111029046D01*
X80772643Y-111033672D01*
X80762868Y-111039959D01*
X80757889Y-111044567D01*
X80740810Y-111071460D01*
X80735311Y-111095367D01*
X80743163Y-111124567D01*
X80757889Y-111146167D01*
X80765746Y-111152966D01*
X80775888Y-111158246D01*
X80791044Y-111162198D01*
X80813941Y-111165013D01*
X80847309Y-111166882D01*
X80893875Y-111167998D01*
X80956367Y-111168551D01*
X81037514Y-111168733D01*
X81079622Y-111168745D01*
X81169798Y-111168665D01*
X81240124Y-111168298D01*
X81293329Y-111167452D01*
X81332140Y-111165936D01*
X81359287Y-111163559D01*
X81377498Y-111160129D01*
X81389500Y-111155454D01*
X81398022Y-111149344D01*
X81401356Y-111146167D01*
X81407955Y-111138570D01*
X81413127Y-111128770D01*
X81417046Y-111114139D01*
X81419884Y-111092052D01*
X81421815Y-111059882D01*
X81423012Y-111015003D01*
X81423648Y-110954789D01*
X81423897Y-110876613D01*
X81423934Y-110803823D01*
X81423900Y-110710607D01*
X81423665Y-110637331D01*
X81423030Y-110581358D01*
X81421794Y-110540051D01*
X81419756Y-110510772D01*
X81416717Y-110490884D01*
X81412477Y-110477750D01*
X81406835Y-110468732D01*
X81399591Y-110461193D01*
X81397806Y-110459512D01*
X81389145Y-110452072D01*
X81379082Y-110446309D01*
X81364825Y-110442012D01*
X81343583Y-110438964D01*
X81312564Y-110436951D01*
X81268977Y-110435760D01*
X81210031Y-110435175D01*
X81132934Y-110434983D01*
X81078201Y-110434967D01*
X80988994Y-110435046D01*
G36*
X82397571Y-110434966D02*
G01*
X82358089Y-110435367D01*
X82242400Y-110438159D01*
X82145511Y-110446450D01*
X82064119Y-110461132D01*
X81994923Y-110483093D01*
X81934620Y-110513222D01*
X81879908Y-110552410D01*
X81860367Y-110569432D01*
X81827950Y-110609263D01*
X81798720Y-110663313D01*
X81776191Y-110723223D01*
X81763879Y-110780639D01*
X81762600Y-110801856D01*
X81770617Y-110860669D01*
X81792099Y-110924913D01*
X81823199Y-110985721D01*
X81860066Y-111034230D01*
X81866054Y-111040082D01*
X81916779Y-111081221D01*
X81972325Y-111113335D01*
X82035896Y-111137265D01*
X82110694Y-111153853D01*
X82199922Y-111163941D01*
X82306782Y-111168369D01*
X82355728Y-111168745D01*
X82417962Y-111168445D01*
X82461728Y-111167192D01*
X82491131Y-111164454D01*
X82510279Y-111159701D01*
X82523277Y-111152401D01*
X82530245Y-111146167D01*
X82536826Y-111138594D01*
X82541988Y-111128824D01*
X82545903Y-111114240D01*
X82548743Y-111092226D01*
X82550680Y-111060164D01*
X82551884Y-111015436D01*
X82552528Y-110955426D01*
X82552783Y-110877517D01*
X82552822Y-110801856D01*
X82553070Y-110700941D01*
X82553017Y-110620327D01*
X82552057Y-110581722D01*
X82406067Y-110581722D01*
X82406067Y-111021989D01*
X82312934Y-111021904D01*
X82256893Y-111020296D01*
X82198199Y-111016156D01*
X82149228Y-111010364D01*
X82147738Y-111010126D01*
X82068592Y-110990990D01*
X82007202Y-110961187D01*
X81960505Y-110918778D01*
X81930835Y-110872861D01*
X81912553Y-110821926D01*
X81913971Y-110774100D01*
X81935188Y-110722833D01*
X81976689Y-110669799D01*
X82034198Y-110630500D01*
X82108950Y-110604231D01*
X82158908Y-110594935D01*
X82215616Y-110588407D01*
X82275719Y-110583682D01*
X82326839Y-110581717D01*
X82329867Y-110581708D01*
X82406067Y-110581722D01*
X82552057Y-110581722D01*
X82551460Y-110557751D01*
X82547198Y-110510955D01*
X82539030Y-110477678D01*
X82525756Y-110455659D01*
X82506174Y-110442639D01*
X82479083Y-110436357D01*
X82443282Y-110434553D01*
X82397571Y-110434966D01*
G37*
X82397571Y-110434966D02*
X82358089Y-110435367D01*
X82242400Y-110438159D01*
X82145511Y-110446450D01*
X82064119Y-110461132D01*
X81994923Y-110483093D01*
X81934620Y-110513222D01*
X81879908Y-110552410D01*
X81860367Y-110569432D01*
X81827950Y-110609263D01*
X81798720Y-110663313D01*
X81776191Y-110723223D01*
X81763879Y-110780639D01*
X81762600Y-110801856D01*
X81770617Y-110860669D01*
X81792099Y-110924913D01*
X81823199Y-110985721D01*
X81860066Y-111034230D01*
X81866054Y-111040082D01*
X81916779Y-111081221D01*
X81972325Y-111113335D01*
X82035896Y-111137265D01*
X82110694Y-111153853D01*
X82199922Y-111163941D01*
X82306782Y-111168369D01*
X82355728Y-111168745D01*
X82417962Y-111168445D01*
X82461728Y-111167192D01*
X82491131Y-111164454D01*
X82510279Y-111159701D01*
X82523277Y-111152401D01*
X82530245Y-111146167D01*
X82536826Y-111138594D01*
X82541988Y-111128824D01*
X82545903Y-111114240D01*
X82548743Y-111092226D01*
X82550680Y-111060164D01*
X82551884Y-111015436D01*
X82552528Y-110955426D01*
X82552783Y-110877517D01*
X82552822Y-110801856D01*
X82553070Y-110700941D01*
X82553017Y-110620327D01*
X82552057Y-110581722D01*
X82406067Y-110581722D01*
X82406067Y-111021989D01*
X82312934Y-111021904D01*
X82256893Y-111020296D01*
X82198199Y-111016156D01*
X82149228Y-111010364D01*
X82147738Y-111010126D01*
X82068592Y-110990990D01*
X82007202Y-110961187D01*
X81960505Y-110918778D01*
X81930835Y-110872861D01*
X81912553Y-110821926D01*
X81913971Y-110774100D01*
X81935188Y-110722833D01*
X81976689Y-110669799D01*
X82034198Y-110630500D01*
X82108950Y-110604231D01*
X82158908Y-110594935D01*
X82215616Y-110588407D01*
X82275719Y-110583682D01*
X82326839Y-110581717D01*
X82329867Y-110581708D01*
X82406067Y-110581722D01*
X82552057Y-110581722D01*
X82551460Y-110557751D01*
X82547198Y-110510955D01*
X82539030Y-110477678D01*
X82525756Y-110455659D01*
X82506174Y-110442639D01*
X82479083Y-110436357D01*
X82443282Y-110434553D01*
X82397571Y-110434966D01*
G36*
X78549243Y-105192471D02*
G01*
X78452968Y-105216709D01*
X78366384Y-105259541D01*
X78291573Y-105319319D01*
X78230618Y-105394394D01*
X78185599Y-105483120D01*
X78159336Y-105579430D01*
X78153486Y-105676695D01*
X78168340Y-105770554D01*
X78202040Y-105858411D01*
X78252728Y-105937670D01*
X78318545Y-106005736D01*
X78397634Y-106060012D01*
X78488134Y-106097902D01*
X78539400Y-106110326D01*
X78583898Y-106117847D01*
X78618199Y-106120819D01*
X78651160Y-106118994D01*
X78691634Y-106112125D01*
X78724731Y-106105150D01*
X78818147Y-106073641D01*
X78901819Y-106022517D01*
X78973865Y-105953329D01*
X79032400Y-105867628D01*
X79046348Y-105840389D01*
X79062786Y-105804022D01*
X79073094Y-105773482D01*
X79078660Y-105741350D01*
X79080869Y-105700207D01*
X79081148Y-105654122D01*
X79077061Y-105569765D01*
X79063646Y-105500486D01*
X79038456Y-105439861D01*
X78999046Y-105381467D01*
X78960498Y-105337202D01*
X78888606Y-105271384D01*
X78813513Y-105225953D01*
X78730762Y-105198750D01*
X78653128Y-105188476D01*
X78549243Y-105192471D01*
G37*
X78549243Y-105192471D02*
X78452968Y-105216709D01*
X78366384Y-105259541D01*
X78291573Y-105319319D01*
X78230618Y-105394394D01*
X78185599Y-105483120D01*
X78159336Y-105579430D01*
X78153486Y-105676695D01*
X78168340Y-105770554D01*
X78202040Y-105858411D01*
X78252728Y-105937670D01*
X78318545Y-106005736D01*
X78397634Y-106060012D01*
X78488134Y-106097902D01*
X78539400Y-106110326D01*
X78583898Y-106117847D01*
X78618199Y-106120819D01*
X78651160Y-106118994D01*
X78691634Y-106112125D01*
X78724731Y-106105150D01*
X78818147Y-106073641D01*
X78901819Y-106022517D01*
X78973865Y-105953329D01*
X79032400Y-105867628D01*
X79046348Y-105840389D01*
X79062786Y-105804022D01*
X79073094Y-105773482D01*
X79078660Y-105741350D01*
X79080869Y-105700207D01*
X79081148Y-105654122D01*
X79077061Y-105569765D01*
X79063646Y-105500486D01*
X79038456Y-105439861D01*
X78999046Y-105381467D01*
X78960498Y-105337202D01*
X78888606Y-105271384D01*
X78813513Y-105225953D01*
X78730762Y-105198750D01*
X78653128Y-105188476D01*
X78549243Y-105192471D01*
G36*
X70089693Y-107638145D02*
G01*
X70089674Y-107872562D01*
X70089648Y-108085503D01*
X70089575Y-108278068D01*
X70089418Y-108451359D01*
X70089136Y-108606476D01*
X70088691Y-108744520D01*
X70088044Y-108866592D01*
X70087155Y-108973794D01*
X70085987Y-109067226D01*
X70084499Y-109147990D01*
X70082654Y-109217186D01*
X70080411Y-109275915D01*
X70077731Y-109325279D01*
X70074577Y-109366378D01*
X70070908Y-109400313D01*
X70066687Y-109428186D01*
X70061873Y-109451098D01*
X70056427Y-109470149D01*
X70050312Y-109486440D01*
X70043488Y-109501073D01*
X70035915Y-109515149D01*
X70027555Y-109529768D01*
X70022361Y-109538874D01*
X69988096Y-109599589D01*
X70846245Y-109599589D01*
X70846245Y-109503633D01*
X70846976Y-109460270D01*
X70848928Y-109427105D01*
X70851737Y-109409324D01*
X70852979Y-109407678D01*
X70864401Y-109414562D01*
X70887116Y-109432405D01*
X70909815Y-109451779D01*
X70964400Y-109492514D01*
X71033879Y-109533517D01*
X71110930Y-109571023D01*
X71188235Y-109601264D01*
X71219087Y-109610912D01*
X71287584Y-109625478D01*
X71370436Y-109635439D01*
X71459829Y-109640483D01*
X71547952Y-109640296D01*
X71626993Y-109634566D01*
X71664689Y-109628758D01*
X71802786Y-109590697D01*
X71930087Y-109532973D01*
X72045908Y-109456111D01*
X72149563Y-109360639D01*
X72240367Y-109247079D01*
X72307169Y-109136281D01*
X72362036Y-109019525D01*
X72404037Y-108900176D01*
X72434033Y-108774183D01*
X72452889Y-108637494D01*
X72461468Y-108486058D01*
X72462194Y-108408611D01*
X72460100Y-108351834D01*
X71630983Y-108351834D01*
X71630776Y-108444902D01*
X71627863Y-108532592D01*
X71622200Y-108609672D01*
X71613745Y-108670909D01*
X71611162Y-108683250D01*
X71579360Y-108790533D01*
X71537702Y-108877558D01*
X71485837Y-108944542D01*
X71423419Y-108991705D01*
X71350100Y-109019265D01*
X71265531Y-109027441D01*
X71169365Y-109016451D01*
X71105889Y-109000729D01*
X71056746Y-108982539D01*
X71002617Y-108956691D01*
X70961956Y-108932989D01*
X70891400Y-108886621D01*
X70891400Y-107736430D01*
X70958808Y-107692862D01*
X71037333Y-107651940D01*
X71121519Y-107625289D01*
X71206643Y-107613365D01*
X71287984Y-107616622D01*
X71360820Y-107635515D01*
X71392774Y-107651084D01*
X71450699Y-107694081D01*
X71499656Y-107750853D01*
X71540810Y-107823475D01*
X71575326Y-107914021D01*
X71604367Y-108024566D01*
X71605648Y-108030433D01*
X71615819Y-108092688D01*
X71623461Y-108170494D01*
X71628530Y-108258620D01*
X71630983Y-108351834D01*
X72460100Y-108351834D01*
X72454343Y-108195795D01*
X72432398Y-107999959D01*
X72396414Y-107821232D01*
X72346441Y-107659745D01*
X72282532Y-107515626D01*
X72204738Y-107389006D01*
X72113111Y-107280015D01*
X72007703Y-107188783D01*
X71962538Y-107157832D01*
X71861589Y-107101685D01*
X71758299Y-107062074D01*
X71648211Y-107037914D01*
X71526870Y-107028119D01*
X71434364Y-107029165D01*
X71304710Y-107040131D01*
X71192116Y-107061946D01*
X71093325Y-107095614D01*
X71005079Y-107142136D01*
X70956214Y-107176348D01*
X70926847Y-107198262D01*
X70905157Y-107213233D01*
X70896947Y-107217633D01*
X70895332Y-107206804D01*
X70894041Y-107176151D01*
X70893062Y-107128426D01*
X70892383Y-107066379D01*
X70891990Y-106992762D01*
X70891870Y-106910327D01*
X70892012Y-106821825D01*
X70892403Y-106730007D01*
X70893029Y-106637624D01*
X70893880Y-106547428D01*
X70894940Y-106462171D01*
X70896199Y-106384603D01*
X70897644Y-106317476D01*
X70899262Y-106263541D01*
X70901039Y-106225550D01*
X70901531Y-106218567D01*
X70909108Y-106148151D01*
X70920669Y-106093002D01*
X70938408Y-106045881D01*
X70964518Y-105999547D01*
X70970785Y-105989967D01*
X70995217Y-105953278D01*
X70089889Y-105953278D01*
X70089693Y-107638145D01*
G37*
X70089693Y-107638145D02*
X70089674Y-107872562D01*
X70089648Y-108085503D01*
X70089575Y-108278068D01*
X70089418Y-108451359D01*
X70089136Y-108606476D01*
X70088691Y-108744520D01*
X70088044Y-108866592D01*
X70087155Y-108973794D01*
X70085987Y-109067226D01*
X70084499Y-109147990D01*
X70082654Y-109217186D01*
X70080411Y-109275915D01*
X70077731Y-109325279D01*
X70074577Y-109366378D01*
X70070908Y-109400313D01*
X70066687Y-109428186D01*
X70061873Y-109451098D01*
X70056427Y-109470149D01*
X70050312Y-109486440D01*
X70043488Y-109501073D01*
X70035915Y-109515149D01*
X70027555Y-109529768D01*
X70022361Y-109538874D01*
X69988096Y-109599589D01*
X70846245Y-109599589D01*
X70846245Y-109503633D01*
X70846976Y-109460270D01*
X70848928Y-109427105D01*
X70851737Y-109409324D01*
X70852979Y-109407678D01*
X70864401Y-109414562D01*
X70887116Y-109432405D01*
X70909815Y-109451779D01*
X70964400Y-109492514D01*
X71033879Y-109533517D01*
X71110930Y-109571023D01*
X71188235Y-109601264D01*
X71219087Y-109610912D01*
X71287584Y-109625478D01*
X71370436Y-109635439D01*
X71459829Y-109640483D01*
X71547952Y-109640296D01*
X71626993Y-109634566D01*
X71664689Y-109628758D01*
X71802786Y-109590697D01*
X71930087Y-109532973D01*
X72045908Y-109456111D01*
X72149563Y-109360639D01*
X72240367Y-109247079D01*
X72307169Y-109136281D01*
X72362036Y-109019525D01*
X72404037Y-108900176D01*
X72434033Y-108774183D01*
X72452889Y-108637494D01*
X72461468Y-108486058D01*
X72462194Y-108408611D01*
X72460100Y-108351834D01*
X71630983Y-108351834D01*
X71630776Y-108444902D01*
X71627863Y-108532592D01*
X71622200Y-108609672D01*
X71613745Y-108670909D01*
X71611162Y-108683250D01*
X71579360Y-108790533D01*
X71537702Y-108877558D01*
X71485837Y-108944542D01*
X71423419Y-108991705D01*
X71350100Y-109019265D01*
X71265531Y-109027441D01*
X71169365Y-109016451D01*
X71105889Y-109000729D01*
X71056746Y-108982539D01*
X71002617Y-108956691D01*
X70961956Y-108932989D01*
X70891400Y-108886621D01*
X70891400Y-107736430D01*
X70958808Y-107692862D01*
X71037333Y-107651940D01*
X71121519Y-107625289D01*
X71206643Y-107613365D01*
X71287984Y-107616622D01*
X71360820Y-107635515D01*
X71392774Y-107651084D01*
X71450699Y-107694081D01*
X71499656Y-107750853D01*
X71540810Y-107823475D01*
X71575326Y-107914021D01*
X71604367Y-108024566D01*
X71605648Y-108030433D01*
X71615819Y-108092688D01*
X71623461Y-108170494D01*
X71628530Y-108258620D01*
X71630983Y-108351834D01*
X72460100Y-108351834D01*
X72454343Y-108195795D01*
X72432398Y-107999959D01*
X72396414Y-107821232D01*
X72346441Y-107659745D01*
X72282532Y-107515626D01*
X72204738Y-107389006D01*
X72113111Y-107280015D01*
X72007703Y-107188783D01*
X71962538Y-107157832D01*
X71861589Y-107101685D01*
X71758299Y-107062074D01*
X71648211Y-107037914D01*
X71526870Y-107028119D01*
X71434364Y-107029165D01*
X71304710Y-107040131D01*
X71192116Y-107061946D01*
X71093325Y-107095614D01*
X71005079Y-107142136D01*
X70956214Y-107176348D01*
X70926847Y-107198262D01*
X70905157Y-107213233D01*
X70896947Y-107217633D01*
X70895332Y-107206804D01*
X70894041Y-107176151D01*
X70893062Y-107128426D01*
X70892383Y-107066379D01*
X70891990Y-106992762D01*
X70891870Y-106910327D01*
X70892012Y-106821825D01*
X70892403Y-106730007D01*
X70893029Y-106637624D01*
X70893880Y-106547428D01*
X70894940Y-106462171D01*
X70896199Y-106384603D01*
X70897644Y-106317476D01*
X70899262Y-106263541D01*
X70901039Y-106225550D01*
X70901531Y-106218567D01*
X70909108Y-106148151D01*
X70920669Y-106093002D01*
X70938408Y-106045881D01*
X70964518Y-105999547D01*
X70970785Y-105989967D01*
X70995217Y-105953278D01*
X70089889Y-105953278D01*
X70089693Y-107638145D01*
G36*
X73602626Y-107032452D02*
G01*
X73450708Y-107052467D01*
X73315444Y-107086102D01*
X73195961Y-107133625D01*
X73091385Y-107195305D01*
X73013776Y-107258865D01*
X72944935Y-107332999D01*
X72891194Y-107412771D01*
X72848290Y-107504991D01*
X72832816Y-107548061D01*
X72819956Y-107587042D01*
X72808754Y-107623189D01*
X72799080Y-107658334D01*
X72790804Y-107694310D01*
X72783797Y-107732950D01*
X72777928Y-107776085D01*
X72773069Y-107825549D01*
X72769090Y-107883173D01*
X72765860Y-107950791D01*
X72763251Y-108030234D01*
X72761133Y-108123336D01*
X72759376Y-108231927D01*
X72757851Y-108357842D01*
X72756428Y-108502912D01*
X72755175Y-108645678D01*
X72753849Y-108801868D01*
X72752644Y-108937139D01*
X72751434Y-109053146D01*
X72750094Y-109151545D01*
X72748500Y-109233993D01*
X72746525Y-109302146D01*
X72744044Y-109357660D01*
X72740931Y-109402192D01*
X72737062Y-109437398D01*
X72732311Y-109464934D01*
X72726552Y-109486456D01*
X72719661Y-109503622D01*
X72711511Y-109518086D01*
X72701977Y-109531506D01*
X72690934Y-109545538D01*
X72686634Y-109550971D01*
X72670814Y-109573810D01*
X72663778Y-109589363D01*
X72663756Y-109589822D01*
X72674633Y-109592021D01*
X72705618Y-109594047D01*
X72754243Y-109595842D01*
X72818037Y-109597351D01*
X72894531Y-109598516D01*
X72981256Y-109599280D01*
X73075743Y-109599586D01*
X73086650Y-109599589D01*
X73509543Y-109599589D01*
X73512805Y-109503522D01*
X73516067Y-109407456D01*
X73578156Y-109458443D01*
X73675486Y-109525957D01*
X73785387Y-109580649D01*
X73871851Y-109610878D01*
X73940922Y-109625566D01*
X74024275Y-109635559D01*
X74114041Y-109640546D01*
X74202355Y-109640213D01*
X74281349Y-109634251D01*
X74317578Y-109628538D01*
X74457597Y-109590676D01*
X74584022Y-109535832D01*
X74695940Y-109464824D01*
X74792438Y-109378468D01*
X74872600Y-109277579D01*
X74935513Y-109162976D01*
X74979888Y-109036884D01*
X74992222Y-108980301D01*
X74999832Y-108918102D01*
X75003461Y-108843263D01*
X75003955Y-108809367D01*
X75003890Y-108806182D01*
X74243952Y-108806182D01*
X74234659Y-108881233D01*
X74206472Y-108945060D01*
X74158003Y-109000698D01*
X74152946Y-109005111D01*
X74104652Y-109039937D01*
X74052943Y-109062520D01*
X73992211Y-109074440D01*
X73916848Y-109077283D01*
X73898741Y-109076878D01*
X73844922Y-109074225D01*
X73804892Y-109068809D01*
X73769876Y-109058645D01*
X73731097Y-109041750D01*
X73720455Y-109036572D01*
X73659804Y-109000744D01*
X73612985Y-108958112D01*
X73600248Y-108942873D01*
X73555578Y-108886362D01*
X73555578Y-108690486D01*
X73556114Y-108611839D01*
X73557804Y-108553888D01*
X73560772Y-108514775D01*
X73565143Y-108492641D01*
X73569228Y-108486174D01*
X73585153Y-108483011D01*
X73618936Y-108480388D01*
X73665860Y-108478555D01*
X73721207Y-108477757D01*
X73730094Y-108477742D01*
X73850870Y-108482996D01*
X73953540Y-108499163D01*
X74040094Y-108526861D01*
X74112519Y-108566708D01*
X74167449Y-108613658D01*
X74211996Y-108671545D01*
X74236720Y-108734593D01*
X74243952Y-108806182D01*
X75003890Y-108806182D01*
X75002022Y-108715612D01*
X74993678Y-108636712D01*
X74977432Y-108565490D01*
X74951795Y-108494764D01*
X74927799Y-108442393D01*
X74869180Y-108347096D01*
X74791083Y-108259070D01*
X74695885Y-108179917D01*
X74585962Y-108111240D01*
X74463690Y-108054641D01*
X74331445Y-108011721D01*
X74266778Y-107996782D01*
X74130596Y-107974677D01*
X73982151Y-107960094D01*
X73830695Y-107953713D01*
X73704136Y-107955345D01*
X73542250Y-107962124D01*
X73549670Y-107903145D01*
X73568962Y-107803992D01*
X73600096Y-107723272D01*
X73643931Y-107660366D01*
X73701329Y-107614656D01*
X73773152Y-107585522D01*
X73860259Y-107572347D01*
X73963514Y-107574511D01*
X74001489Y-107578512D01*
X74142680Y-107603680D01*
X74279493Y-107644714D01*
X74374022Y-107682715D01*
X74419182Y-107702090D01*
X74457615Y-107717660D01*
X74483966Y-107727305D01*
X74491654Y-107729352D01*
X74501398Y-107720274D01*
X74518117Y-107691305D01*
X74541968Y-107642117D01*
X74573107Y-107572384D01*
X74611693Y-107481779D01*
X74618290Y-107465989D01*
X74648347Y-107393672D01*
X74675326Y-107328325D01*
X74698064Y-107272806D01*
X74715394Y-107229972D01*
X74726152Y-107202681D01*
X74729259Y-107193842D01*
X74719260Y-107189087D01*
X74692983Y-107183810D01*
X74664711Y-107180131D01*
X74634554Y-107175374D01*
X74586767Y-107165928D01*
X74525588Y-107152720D01*
X74455254Y-107136676D01*
X74380006Y-107118720D01*
X74351445Y-107111697D01*
X74246384Y-107086109D01*
X74158720Y-107066047D01*
X74084132Y-107050869D01*
X74018297Y-107039935D01*
X73956893Y-107032604D01*
X73895598Y-107028235D01*
X73830090Y-107026187D01*
X73772072Y-107025789D01*
X73602626Y-107032452D01*
G37*
X73602626Y-107032452D02*
X73450708Y-107052467D01*
X73315444Y-107086102D01*
X73195961Y-107133625D01*
X73091385Y-107195305D01*
X73013776Y-107258865D01*
X72944935Y-107332999D01*
X72891194Y-107412771D01*
X72848290Y-107504991D01*
X72832816Y-107548061D01*
X72819956Y-107587042D01*
X72808754Y-107623189D01*
X72799080Y-107658334D01*
X72790804Y-107694310D01*
X72783797Y-107732950D01*
X72777928Y-107776085D01*
X72773069Y-107825549D01*
X72769090Y-107883173D01*
X72765860Y-107950791D01*
X72763251Y-108030234D01*
X72761133Y-108123336D01*
X72759376Y-108231927D01*
X72757851Y-108357842D01*
X72756428Y-108502912D01*
X72755175Y-108645678D01*
X72753849Y-108801868D01*
X72752644Y-108937139D01*
X72751434Y-109053146D01*
X72750094Y-109151545D01*
X72748500Y-109233993D01*
X72746525Y-109302146D01*
X72744044Y-109357660D01*
X72740931Y-109402192D01*
X72737062Y-109437398D01*
X72732311Y-109464934D01*
X72726552Y-109486456D01*
X72719661Y-109503622D01*
X72711511Y-109518086D01*
X72701977Y-109531506D01*
X72690934Y-109545538D01*
X72686634Y-109550971D01*
X72670814Y-109573810D01*
X72663778Y-109589363D01*
X72663756Y-109589822D01*
X72674633Y-109592021D01*
X72705618Y-109594047D01*
X72754243Y-109595842D01*
X72818037Y-109597351D01*
X72894531Y-109598516D01*
X72981256Y-109599280D01*
X73075743Y-109599586D01*
X73086650Y-109599589D01*
X73509543Y-109599589D01*
X73512805Y-109503522D01*
X73516067Y-109407456D01*
X73578156Y-109458443D01*
X73675486Y-109525957D01*
X73785387Y-109580649D01*
X73871851Y-109610878D01*
X73940922Y-109625566D01*
X74024275Y-109635559D01*
X74114041Y-109640546D01*
X74202355Y-109640213D01*
X74281349Y-109634251D01*
X74317578Y-109628538D01*
X74457597Y-109590676D01*
X74584022Y-109535832D01*
X74695940Y-109464824D01*
X74792438Y-109378468D01*
X74872600Y-109277579D01*
X74935513Y-109162976D01*
X74979888Y-109036884D01*
X74992222Y-108980301D01*
X74999832Y-108918102D01*
X75003461Y-108843263D01*
X75003955Y-108809367D01*
X75003890Y-108806182D01*
X74243952Y-108806182D01*
X74234659Y-108881233D01*
X74206472Y-108945060D01*
X74158003Y-109000698D01*
X74152946Y-109005111D01*
X74104652Y-109039937D01*
X74052943Y-109062520D01*
X73992211Y-109074440D01*
X73916848Y-109077283D01*
X73898741Y-109076878D01*
X73844922Y-109074225D01*
X73804892Y-109068809D01*
X73769876Y-109058645D01*
X73731097Y-109041750D01*
X73720455Y-109036572D01*
X73659804Y-109000744D01*
X73612985Y-108958112D01*
X73600248Y-108942873D01*
X73555578Y-108886362D01*
X73555578Y-108690486D01*
X73556114Y-108611839D01*
X73557804Y-108553888D01*
X73560772Y-108514775D01*
X73565143Y-108492641D01*
X73569228Y-108486174D01*
X73585153Y-108483011D01*
X73618936Y-108480388D01*
X73665860Y-108478555D01*
X73721207Y-108477757D01*
X73730094Y-108477742D01*
X73850870Y-108482996D01*
X73953540Y-108499163D01*
X74040094Y-108526861D01*
X74112519Y-108566708D01*
X74167449Y-108613658D01*
X74211996Y-108671545D01*
X74236720Y-108734593D01*
X74243952Y-108806182D01*
X75003890Y-108806182D01*
X75002022Y-108715612D01*
X74993678Y-108636712D01*
X74977432Y-108565490D01*
X74951795Y-108494764D01*
X74927799Y-108442393D01*
X74869180Y-108347096D01*
X74791083Y-108259070D01*
X74695885Y-108179917D01*
X74585962Y-108111240D01*
X74463690Y-108054641D01*
X74331445Y-108011721D01*
X74266778Y-107996782D01*
X74130596Y-107974677D01*
X73982151Y-107960094D01*
X73830695Y-107953713D01*
X73704136Y-107955345D01*
X73542250Y-107962124D01*
X73549670Y-107903145D01*
X73568962Y-107803992D01*
X73600096Y-107723272D01*
X73643931Y-107660366D01*
X73701329Y-107614656D01*
X73773152Y-107585522D01*
X73860259Y-107572347D01*
X73963514Y-107574511D01*
X74001489Y-107578512D01*
X74142680Y-107603680D01*
X74279493Y-107644714D01*
X74374022Y-107682715D01*
X74419182Y-107702090D01*
X74457615Y-107717660D01*
X74483966Y-107727305D01*
X74491654Y-107729352D01*
X74501398Y-107720274D01*
X74518117Y-107691305D01*
X74541968Y-107642117D01*
X74573107Y-107572384D01*
X74611693Y-107481779D01*
X74618290Y-107465989D01*
X74648347Y-107393672D01*
X74675326Y-107328325D01*
X74698064Y-107272806D01*
X74715394Y-107229972D01*
X74726152Y-107202681D01*
X74729259Y-107193842D01*
X74719260Y-107189087D01*
X74692983Y-107183810D01*
X74664711Y-107180131D01*
X74634554Y-107175374D01*
X74586767Y-107165928D01*
X74525588Y-107152720D01*
X74455254Y-107136676D01*
X74380006Y-107118720D01*
X74351445Y-107111697D01*
X74246384Y-107086109D01*
X74158720Y-107066047D01*
X74084132Y-107050869D01*
X74018297Y-107039935D01*
X73956893Y-107032604D01*
X73895598Y-107028235D01*
X73830090Y-107026187D01*
X73772072Y-107025789D01*
X73602626Y-107032452D01*
G36*
X75947771Y-106114971D02*
G01*
X75787630Y-106136145D01*
X75623690Y-106176285D01*
X75453887Y-106235789D01*
X75276157Y-106315054D01*
X75264890Y-106320599D01*
X75207195Y-106348625D01*
X75155648Y-106372702D01*
X75114009Y-106391149D01*
X75086038Y-106402286D01*
X75076467Y-106404833D01*
X75057250Y-106409841D01*
X75052639Y-106414047D01*
X75057742Y-106424480D01*
X75073782Y-106450768D01*
X75098912Y-106490157D01*
X75131286Y-106539891D01*
X75169057Y-106597215D01*
X75210378Y-106659376D01*
X75253402Y-106723618D01*
X75296283Y-106787185D01*
X75337174Y-106847325D01*
X75374229Y-106901280D01*
X75405600Y-106946297D01*
X75429441Y-106979621D01*
X75443906Y-106998497D01*
X75445891Y-107000687D01*
X75456009Y-106996038D01*
X75478350Y-106978862D01*
X75508920Y-106952340D01*
X75524664Y-106937864D01*
X75621153Y-106862582D01*
X75727864Y-106807141D01*
X75843368Y-106772041D01*
X75966238Y-106757780D01*
X76035639Y-106758951D01*
X76156777Y-106776112D01*
X76265995Y-106811994D01*
X76363618Y-106866859D01*
X76449972Y-106940970D01*
X76525385Y-107034588D01*
X76590182Y-107147976D01*
X76627599Y-107234567D01*
X76671452Y-107370266D01*
X76703772Y-107517750D01*
X76724643Y-107673214D01*
X76734149Y-107832856D01*
X76732373Y-107992873D01*
X76719397Y-108149461D01*
X76695306Y-108298818D01*
X76660182Y-108437140D01*
X76614108Y-108560624D01*
X76597827Y-108594878D01*
X76529580Y-108708964D01*
X76449121Y-108805457D01*
X76357630Y-108883570D01*
X76256289Y-108942517D01*
X76146280Y-108981512D01*
X76028785Y-108999768D01*
X75987317Y-109001111D01*
X75865759Y-108990190D01*
X75745322Y-108957374D01*
X75627534Y-108903339D01*
X75513923Y-108828765D01*
X75422515Y-108750439D01*
X75375985Y-108705908D01*
X75194717Y-109003171D01*
X75149620Y-109077333D01*
X75108381Y-109145546D01*
X75072465Y-109205359D01*
X75043334Y-109254320D01*
X75022450Y-109289979D01*
X75011276Y-109309884D01*
X75009825Y-109312979D01*
X75018054Y-109322618D01*
X75043633Y-109339899D01*
X75083327Y-109363183D01*
X75133903Y-109390834D01*
X75192126Y-109421215D01*
X75254763Y-109452690D01*
X75318579Y-109483622D01*
X75380340Y-109512373D01*
X75436812Y-109537308D01*
X75484762Y-109556789D01*
X75508214Y-109565218D01*
X75641979Y-109603033D01*
X75779873Y-109628036D01*
X75927578Y-109641040D01*
X76054367Y-109643368D01*
X76122322Y-109642273D01*
X76187923Y-109640175D01*
X76245353Y-109637334D01*
X76288797Y-109634006D01*
X76302902Y-109632322D01*
X76441916Y-109603487D01*
X76583443Y-109558368D01*
X76720925Y-109499650D01*
X76847806Y-109430020D01*
X76925311Y-109377341D01*
X77052719Y-109269139D01*
X77171022Y-109142571D01*
X77278028Y-109000766D01*
X77371548Y-108846851D01*
X77449390Y-108683953D01*
X77493244Y-108566656D01*
X77543492Y-108383028D01*
X77576991Y-108188481D01*
X77593751Y-107987225D01*
X77593784Y-107783468D01*
X77577099Y-107581421D01*
X77543707Y-107385292D01*
X77493620Y-107199291D01*
X77489803Y-107187703D01*
X77426919Y-107025650D01*
X77350172Y-106877732D01*
X77256958Y-106739765D01*
X77144673Y-106607561D01*
X77100808Y-106562299D01*
X76964666Y-106438357D01*
X76824709Y-106335815D01*
X76678789Y-106253556D01*
X76524758Y-106190464D01*
X76360468Y-106145423D01*
X76264911Y-106127933D01*
X76106177Y-106112366D01*
X75947771Y-106114971D01*
G37*
X75947771Y-106114971D02*
X75787630Y-106136145D01*
X75623690Y-106176285D01*
X75453887Y-106235789D01*
X75276157Y-106315054D01*
X75264890Y-106320599D01*
X75207195Y-106348625D01*
X75155648Y-106372702D01*
X75114009Y-106391149D01*
X75086038Y-106402286D01*
X75076467Y-106404833D01*
X75057250Y-106409841D01*
X75052639Y-106414047D01*
X75057742Y-106424480D01*
X75073782Y-106450768D01*
X75098912Y-106490157D01*
X75131286Y-106539891D01*
X75169057Y-106597215D01*
X75210378Y-106659376D01*
X75253402Y-106723618D01*
X75296283Y-106787185D01*
X75337174Y-106847325D01*
X75374229Y-106901280D01*
X75405600Y-106946297D01*
X75429441Y-106979621D01*
X75443906Y-106998497D01*
X75445891Y-107000687D01*
X75456009Y-106996038D01*
X75478350Y-106978862D01*
X75508920Y-106952340D01*
X75524664Y-106937864D01*
X75621153Y-106862582D01*
X75727864Y-106807141D01*
X75843368Y-106772041D01*
X75966238Y-106757780D01*
X76035639Y-106758951D01*
X76156777Y-106776112D01*
X76265995Y-106811994D01*
X76363618Y-106866859D01*
X76449972Y-106940970D01*
X76525385Y-107034588D01*
X76590182Y-107147976D01*
X76627599Y-107234567D01*
X76671452Y-107370266D01*
X76703772Y-107517750D01*
X76724643Y-107673214D01*
X76734149Y-107832856D01*
X76732373Y-107992873D01*
X76719397Y-108149461D01*
X76695306Y-108298818D01*
X76660182Y-108437140D01*
X76614108Y-108560624D01*
X76597827Y-108594878D01*
X76529580Y-108708964D01*
X76449121Y-108805457D01*
X76357630Y-108883570D01*
X76256289Y-108942517D01*
X76146280Y-108981512D01*
X76028785Y-108999768D01*
X75987317Y-109001111D01*
X75865759Y-108990190D01*
X75745322Y-108957374D01*
X75627534Y-108903339D01*
X75513923Y-108828765D01*
X75422515Y-108750439D01*
X75375985Y-108705908D01*
X75194717Y-109003171D01*
X75149620Y-109077333D01*
X75108381Y-109145546D01*
X75072465Y-109205359D01*
X75043334Y-109254320D01*
X75022450Y-109289979D01*
X75011276Y-109309884D01*
X75009825Y-109312979D01*
X75018054Y-109322618D01*
X75043633Y-109339899D01*
X75083327Y-109363183D01*
X75133903Y-109390834D01*
X75192126Y-109421215D01*
X75254763Y-109452690D01*
X75318579Y-109483622D01*
X75380340Y-109512373D01*
X75436812Y-109537308D01*
X75484762Y-109556789D01*
X75508214Y-109565218D01*
X75641979Y-109603033D01*
X75779873Y-109628036D01*
X75927578Y-109641040D01*
X76054367Y-109643368D01*
X76122322Y-109642273D01*
X76187923Y-109640175D01*
X76245353Y-109637334D01*
X76288797Y-109634006D01*
X76302902Y-109632322D01*
X76441916Y-109603487D01*
X76583443Y-109558368D01*
X76720925Y-109499650D01*
X76847806Y-109430020D01*
X76925311Y-109377341D01*
X77052719Y-109269139D01*
X77171022Y-109142571D01*
X77278028Y-109000766D01*
X77371548Y-108846851D01*
X77449390Y-108683953D01*
X77493244Y-108566656D01*
X77543492Y-108383028D01*
X77576991Y-108188481D01*
X77593751Y-107987225D01*
X77593784Y-107783468D01*
X77577099Y-107581421D01*
X77543707Y-107385292D01*
X77493620Y-107199291D01*
X77489803Y-107187703D01*
X77426919Y-107025650D01*
X77350172Y-106877732D01*
X77256958Y-106739765D01*
X77144673Y-106607561D01*
X77100808Y-106562299D01*
X76964666Y-106438357D01*
X76824709Y-106335815D01*
X76678789Y-106253556D01*
X76524758Y-106190464D01*
X76360468Y-106145423D01*
X76264911Y-106127933D01*
X76106177Y-106112366D01*
X75947771Y-106114971D01*
G36*
X79222600Y-105654954D02*
G01*
X79211735Y-105768893D01*
X79180118Y-105876516D01*
X79129215Y-105975515D01*
X79060493Y-106063584D01*
X78975419Y-106138416D01*
X78878432Y-106196284D01*
X78772164Y-106235905D01*
X78665150Y-106254473D01*
X78559500Y-106253334D01*
X78457325Y-106233830D01*
X78360734Y-106197306D01*
X78271838Y-106145105D01*
X78192746Y-106078573D01*
X78125569Y-105999052D01*
X78072417Y-105907887D01*
X78035399Y-105806423D01*
X78016627Y-105696002D01*
X78014689Y-105646106D01*
X78014689Y-105558167D01*
X77962760Y-105558167D01*
X77926453Y-105561011D01*
X77899555Y-105572811D01*
X77872449Y-105596549D01*
X77834067Y-105634931D01*
X77834067Y-107826502D01*
X77834076Y-108088639D01*
X77834108Y-108329141D01*
X77834172Y-108548948D01*
X77834276Y-108749001D01*
X77834427Y-108930244D01*
X77834634Y-109093616D01*
X77834906Y-109240060D01*
X77835250Y-109370517D01*
X77835674Y-109485929D01*
X77836187Y-109587238D01*
X77836797Y-109675384D01*
X77837512Y-109751310D01*
X77838340Y-109815957D01*
X77839289Y-109870267D01*
X77840367Y-109915180D01*
X77841583Y-109951640D01*
X77842945Y-109980587D01*
X77844461Y-110002963D01*
X77846138Y-110019709D01*
X77847986Y-110031768D01*
X77850013Y-110040080D01*
X77852225Y-110045587D01*
X77853308Y-110047437D01*
X77857471Y-110054449D01*
X77861005Y-110060896D01*
X77864835Y-110066800D01*
X77869882Y-110072186D01*
X77877071Y-110077078D01*
X77887323Y-110081498D01*
X77901564Y-110085472D01*
X77920714Y-110089021D01*
X77945699Y-110092170D01*
X77977440Y-110094942D01*
X78016862Y-110097361D01*
X78064886Y-110099451D01*
X78122437Y-110101235D01*
X78190437Y-110102737D01*
X78269810Y-110103980D01*
X78361479Y-110104989D01*
X78466366Y-110105785D01*
X78585396Y-110106394D01*
X78719490Y-110106839D01*
X78869573Y-110107143D01*
X79036567Y-110107330D01*
X79221396Y-110107424D01*
X79424983Y-110107448D01*
X79648250Y-110107425D01*
X79892122Y-110107380D01*
X80157521Y-110107337D01*
X80195904Y-110107332D01*
X80462882Y-110107289D01*
X80708202Y-110107218D01*
X80932783Y-110107113D01*
X81137545Y-110106966D01*
X81323406Y-110106769D01*
X81491288Y-110106516D01*
X81642108Y-110106200D01*
X81776787Y-110105813D01*
X81896244Y-110105347D01*
X82001399Y-110104797D01*
X82093171Y-110104153D01*
X82172479Y-110103411D01*
X82240243Y-110102561D01*
X82297382Y-110101597D01*
X82344817Y-110100511D01*
X82383466Y-110099297D01*
X82414249Y-110097947D01*
X82438085Y-110096455D01*
X82455894Y-110094811D01*
X82468595Y-110093011D01*
X82477108Y-110091045D01*
X82481466Y-110089377D01*
X82489928Y-110085806D01*
X82497697Y-110083170D01*
X82504802Y-110080534D01*
X82511273Y-110076962D01*
X82517139Y-110071521D01*
X82522429Y-110063275D01*
X82527174Y-110051290D01*
X82531402Y-110034631D01*
X82535143Y-110012363D01*
X82538427Y-109983552D01*
X82541283Y-109947263D01*
X82543740Y-109902561D01*
X82545829Y-109848511D01*
X82547578Y-109784179D01*
X82549017Y-109708630D01*
X82550176Y-109620930D01*
X82551083Y-109520143D01*
X82551769Y-109405334D01*
X82552263Y-109275570D01*
X82552595Y-109129915D01*
X82552793Y-108967435D01*
X82552887Y-108787195D01*
X82552908Y-108588260D01*
X82552885Y-108369696D01*
X82552846Y-108130568D01*
X82552822Y-107869940D01*
X82552822Y-107827789D01*
X82552836Y-107564892D01*
X82552861Y-107323632D01*
X82552871Y-107103065D01*
X82552842Y-106902252D01*
X82552748Y-106720249D01*
X82552562Y-106556116D01*
X82552259Y-106408911D01*
X82551814Y-106277692D01*
X82551234Y-106167767D01*
X82248397Y-106167767D01*
X82208607Y-106225611D01*
X82197436Y-106241379D01*
X82187366Y-106255341D01*
X82178338Y-106268684D01*
X82170297Y-106282593D01*
X82163186Y-106298256D01*
X82156947Y-106316858D01*
X82151525Y-106339586D01*
X82146862Y-106367627D01*
X82142901Y-106402167D01*
X82139585Y-106444392D01*
X82136859Y-106495489D01*
X82134664Y-106556644D01*
X82132945Y-106629044D01*
X82131644Y-106713875D01*
X82130705Y-106812322D01*
X82130070Y-106925574D01*
X82129684Y-107054816D01*
X82129488Y-107201234D01*
X82129427Y-107366016D01*
X82129443Y-107550347D01*
X82129480Y-107755413D01*
X82129489Y-107878033D01*
X82129465Y-108094982D01*
X82129431Y-108290542D01*
X82129443Y-108465899D01*
X82129558Y-108622241D01*
X82129830Y-108760757D01*
X82130318Y-108882634D01*
X82131076Y-108989060D01*
X82132162Y-109081222D01*
X82133631Y-109160309D01*
X82135540Y-109227508D01*
X82137944Y-109284007D01*
X82140901Y-109330993D01*
X82144466Y-109369655D01*
X82148695Y-109401180D01*
X82153646Y-109426755D01*
X82159373Y-109447570D01*
X82165933Y-109464811D01*
X82173383Y-109479665D01*
X82181779Y-109493322D01*
X82191176Y-109506969D01*
X82201632Y-109521793D01*
X82207723Y-109530683D01*
X82246496Y-109588300D01*
X81714932Y-109588300D01*
X81591683Y-109588265D01*
X81489187Y-109588115D01*
X81405620Y-109587778D01*
X81339156Y-109587186D01*
X81287971Y-109586267D01*
X81250241Y-109584951D01*
X81224140Y-109583169D01*
X81207844Y-109580851D01*
X81199528Y-109577926D01*
X81197368Y-109574324D01*
X81199539Y-109569975D01*
X81200735Y-109568545D01*
X81225885Y-109531473D01*
X81251783Y-109478672D01*
X81275392Y-109416670D01*
X81283661Y-109390257D01*
X81288278Y-109372316D01*
X81292179Y-109351255D01*
X81295448Y-109324989D01*
X81298166Y-109291432D01*
X81300415Y-109248499D01*
X81302277Y-109194104D01*
X81303836Y-109126162D01*
X81305172Y-109042588D01*
X81306369Y-108941295D01*
X81307508Y-108820200D01*
X81307885Y-108775500D01*
X81308902Y-108650349D01*
X81309660Y-108545982D01*
X81310103Y-108460607D01*
X81310170Y-108392433D01*
X81309805Y-108339665D01*
X81308948Y-108300514D01*
X81307541Y-108273185D01*
X81305525Y-108255886D01*
X81302843Y-108246826D01*
X81299436Y-108244212D01*
X81295244Y-108246251D01*
X81290771Y-108250567D01*
X81280416Y-108263502D01*
X81258358Y-108292576D01*
X81226157Y-108335659D01*
X81185374Y-108390618D01*
X81137570Y-108455323D01*
X81084305Y-108527642D01*
X81027140Y-108605444D01*
X80967637Y-108686598D01*
X80907355Y-108768972D01*
X80847855Y-108850436D01*
X80790698Y-108928857D01*
X80737445Y-109002104D01*
X80689657Y-109068047D01*
X80648893Y-109124554D01*
X80616716Y-109169493D01*
X80594685Y-109200734D01*
X80590117Y-109207366D01*
X80567196Y-109244269D01*
X80540388Y-109292259D01*
X80514989Y-109341797D01*
X80511768Y-109348477D01*
X80490090Y-109396672D01*
X80477504Y-109434234D01*
X80471774Y-109470060D01*
X80470656Y-109512100D01*
X80471290Y-109588300D01*
X79316851Y-109588300D01*
X79408015Y-109494569D01*
X79454812Y-109444675D01*
X79505099Y-109388195D01*
X79551144Y-109333926D01*
X79571569Y-109308573D01*
X79602007Y-109269028D01*
X79642062Y-109215816D01*
X79690561Y-109150567D01*
X79746335Y-109074911D01*
X79808211Y-108990477D01*
X79875019Y-108898894D01*
X79945587Y-108801792D01*
X80018745Y-108700801D01*
X80093321Y-108597550D01*
X80168144Y-108493668D01*
X80242043Y-108390785D01*
X80313846Y-108290531D01*
X80382384Y-108194536D01*
X80446484Y-108104427D01*
X80504975Y-108021836D01*
X80556686Y-107948392D01*
X80600447Y-107885724D01*
X80635085Y-107835461D01*
X80659430Y-107799234D01*
X80672311Y-107778671D01*
X80674069Y-107774568D01*
X80666110Y-107763242D01*
X80645315Y-107736062D01*
X80613047Y-107694729D01*
X80570670Y-107640944D01*
X80519547Y-107576406D01*
X80461041Y-107502818D01*
X80396514Y-107421878D01*
X80327331Y-107335288D01*
X80254853Y-107244748D01*
X80180446Y-107151960D01*
X80120717Y-107077602D01*
X79109711Y-107077602D01*
X79103802Y-107090559D01*
X79089472Y-107112808D01*
X79088425Y-107114291D01*
X79069638Y-107144444D01*
X79049991Y-107181275D01*
X79046092Y-107189411D01*
X79042556Y-107197840D01*
X79039430Y-107207959D01*
X79036686Y-107221160D01*
X79034292Y-107238838D01*
X79032219Y-107262384D01*
X79030435Y-107293193D01*
X79028912Y-107332657D01*
X79027619Y-107382169D01*
X79026526Y-107443123D01*
X79025603Y-107516911D01*
X79024819Y-107604928D01*
X79024145Y-107708565D01*
X79023550Y-107829216D01*
X79023005Y-107968274D01*
X79022479Y-108127132D01*
X79021945Y-108305989D01*
X79021406Y-108491107D01*
X79020972Y-108655045D01*
X79020709Y-108799203D01*
X79020684Y-108924979D01*
X79020965Y-109033771D01*
X79021619Y-109126977D01*
X79022714Y-109205997D01*
X79024318Y-109272228D01*
X79026497Y-109327070D01*
X79029319Y-109371921D01*
X79032851Y-109408178D01*
X79037161Y-109437241D01*
X79042317Y-109460509D01*
X79048385Y-109479379D01*
X79055433Y-109495251D01*
X79063529Y-109509522D01*
X79072740Y-109523591D01*
X79081240Y-109536058D01*
X79098376Y-109562352D01*
X79108522Y-109579937D01*
X79109711Y-109583157D01*
X79098804Y-109584234D01*
X79067611Y-109585235D01*
X79018423Y-109586135D01*
X78953533Y-109586910D01*
X78875230Y-109587537D01*
X78785807Y-109587991D01*
X78687556Y-109588249D01*
X78618645Y-109588300D01*
X78513652Y-109588080D01*
X78416810Y-109587448D01*
X78330307Y-109586449D01*
X78256332Y-109585127D01*
X78197074Y-109583526D01*
X78154720Y-109581691D01*
X78131460Y-109579665D01*
X78127578Y-109578393D01*
X78135276Y-109563491D01*
X78143274Y-109555460D01*
X78156446Y-109538334D01*
X78173685Y-109508083D01*
X78185607Y-109483522D01*
X78212245Y-109424611D01*
X78215320Y-108247745D01*
X78218395Y-107070878D01*
X78664053Y-107070878D01*
X78761870Y-107071042D01*
X78852264Y-107071511D01*
X78932830Y-107072247D01*
X79001162Y-107073216D01*
X79054856Y-107074380D01*
X79091505Y-107075703D01*
X79108704Y-107077149D01*
X79109711Y-107077602D01*
X80120717Y-107077602D01*
X80105470Y-107058622D01*
X80031290Y-106966437D01*
X79959269Y-106877104D01*
X79890769Y-106792324D01*
X79827155Y-106713798D01*
X79769788Y-106643226D01*
X79720033Y-106582309D01*
X79679252Y-106532747D01*
X79662088Y-106512078D01*
X79575796Y-106411416D01*
X79499197Y-106328159D01*
X79430383Y-106260338D01*
X79367448Y-106205989D01*
X79358067Y-106198622D01*
X79318556Y-106168017D01*
X80450316Y-106167767D01*
X80445027Y-106215744D01*
X80448330Y-106273088D01*
X80469861Y-106341363D01*
X80509835Y-106421112D01*
X80555143Y-106493395D01*
X80571361Y-106516040D01*
X80599414Y-106553596D01*
X80637630Y-106603921D01*
X80684337Y-106664873D01*
X80737861Y-106734311D01*
X80796531Y-106810094D01*
X80858675Y-106890080D01*
X80922621Y-106972128D01*
X80986695Y-107054096D01*
X81049227Y-107133843D01*
X81108543Y-107209227D01*
X81162971Y-107278107D01*
X81210839Y-107338342D01*
X81250475Y-107387789D01*
X81280206Y-107424308D01*
X81298361Y-107445758D01*
X81301420Y-107449056D01*
X81304279Y-107441049D01*
X81306493Y-107410755D01*
X81308057Y-107358456D01*
X81308967Y-107284431D01*
X81309220Y-107188963D01*
X81308813Y-107072334D01*
X81307904Y-106952345D01*
X81306582Y-106820233D01*
X81305057Y-106708494D01*
X81303081Y-106614925D01*
X81300406Y-106537319D01*
X81296782Y-106473474D01*
X81291961Y-106421183D01*
X81285694Y-106378244D01*
X81277732Y-106342451D01*
X81267827Y-106311600D01*
X81255731Y-106283486D01*
X81241193Y-106255905D01*
X81226511Y-106230866D01*
X81188514Y-106167767D01*
X82248397Y-106167767D01*
X82551234Y-106167767D01*
X82551201Y-106161517D01*
X82550395Y-106059444D01*
X82549370Y-105970533D01*
X82548100Y-105893841D01*
X82546560Y-105828427D01*
X82544724Y-105773349D01*
X82542567Y-105727665D01*
X82540063Y-105690434D01*
X82537187Y-105660713D01*
X82533913Y-105637562D01*
X82530215Y-105620039D01*
X82526069Y-105607201D01*
X82521447Y-105598108D01*
X82516326Y-105591818D01*
X82510678Y-105587388D01*
X82504479Y-105583878D01*
X82497704Y-105580345D01*
X82491708Y-105576776D01*
X82486475Y-105574200D01*
X82478299Y-105571872D01*
X82466086Y-105569778D01*
X82448741Y-105567907D01*
X82425169Y-105566247D01*
X82394277Y-105564784D01*
X82354968Y-105563508D01*
X82306150Y-105562404D01*
X82246727Y-105561461D01*
X82175604Y-105560667D01*
X82091688Y-105560009D01*
X81993883Y-105559475D01*
X81881094Y-105559053D01*
X81752229Y-105558729D01*
X81606191Y-105558492D01*
X81441886Y-105558330D01*
X81258220Y-105558230D01*
X81054097Y-105558180D01*
X80842953Y-105558167D01*
X79222600Y-105558167D01*
X79222600Y-105654954D01*
G37*
X79222600Y-105654954D02*
X79211735Y-105768893D01*
X79180118Y-105876516D01*
X79129215Y-105975515D01*
X79060493Y-106063584D01*
X78975419Y-106138416D01*
X78878432Y-106196284D01*
X78772164Y-106235905D01*
X78665150Y-106254473D01*
X78559500Y-106253334D01*
X78457325Y-106233830D01*
X78360734Y-106197306D01*
X78271838Y-106145105D01*
X78192746Y-106078573D01*
X78125569Y-105999052D01*
X78072417Y-105907887D01*
X78035399Y-105806423D01*
X78016627Y-105696002D01*
X78014689Y-105646106D01*
X78014689Y-105558167D01*
X77962760Y-105558167D01*
X77926453Y-105561011D01*
X77899555Y-105572811D01*
X77872449Y-105596549D01*
X77834067Y-105634931D01*
X77834067Y-107826502D01*
X77834076Y-108088639D01*
X77834108Y-108329141D01*
X77834172Y-108548948D01*
X77834276Y-108749001D01*
X77834427Y-108930244D01*
X77834634Y-109093616D01*
X77834906Y-109240060D01*
X77835250Y-109370517D01*
X77835674Y-109485929D01*
X77836187Y-109587238D01*
X77836797Y-109675384D01*
X77837512Y-109751310D01*
X77838340Y-109815957D01*
X77839289Y-109870267D01*
X77840367Y-109915180D01*
X77841583Y-109951640D01*
X77842945Y-109980587D01*
X77844461Y-110002963D01*
X77846138Y-110019709D01*
X77847986Y-110031768D01*
X77850013Y-110040080D01*
X77852225Y-110045587D01*
X77853308Y-110047437D01*
X77857471Y-110054449D01*
X77861005Y-110060896D01*
X77864835Y-110066800D01*
X77869882Y-110072186D01*
X77877071Y-110077078D01*
X77887323Y-110081498D01*
X77901564Y-110085472D01*
X77920714Y-110089021D01*
X77945699Y-110092170D01*
X77977440Y-110094942D01*
X78016862Y-110097361D01*
X78064886Y-110099451D01*
X78122437Y-110101235D01*
X78190437Y-110102737D01*
X78269810Y-110103980D01*
X78361479Y-110104989D01*
X78466366Y-110105785D01*
X78585396Y-110106394D01*
X78719490Y-110106839D01*
X78869573Y-110107143D01*
X79036567Y-110107330D01*
X79221396Y-110107424D01*
X79424983Y-110107448D01*
X79648250Y-110107425D01*
X79892122Y-110107380D01*
X80157521Y-110107337D01*
X80195904Y-110107332D01*
X80462882Y-110107289D01*
X80708202Y-110107218D01*
X80932783Y-110107113D01*
X81137545Y-110106966D01*
X81323406Y-110106769D01*
X81491288Y-110106516D01*
X81642108Y-110106200D01*
X81776787Y-110105813D01*
X81896244Y-110105347D01*
X82001399Y-110104797D01*
X82093171Y-110104153D01*
X82172479Y-110103411D01*
X82240243Y-110102561D01*
X82297382Y-110101597D01*
X82344817Y-110100511D01*
X82383466Y-110099297D01*
X82414249Y-110097947D01*
X82438085Y-110096455D01*
X82455894Y-110094811D01*
X82468595Y-110093011D01*
X82477108Y-110091045D01*
X82481466Y-110089377D01*
X82489928Y-110085806D01*
X82497697Y-110083170D01*
X82504802Y-110080534D01*
X82511273Y-110076962D01*
X82517139Y-110071521D01*
X82522429Y-110063275D01*
X82527174Y-110051290D01*
X82531402Y-110034631D01*
X82535143Y-110012363D01*
X82538427Y-109983552D01*
X82541283Y-109947263D01*
X82543740Y-109902561D01*
X82545829Y-109848511D01*
X82547578Y-109784179D01*
X82549017Y-109708630D01*
X82550176Y-109620930D01*
X82551083Y-109520143D01*
X82551769Y-109405334D01*
X82552263Y-109275570D01*
X82552595Y-109129915D01*
X82552793Y-108967435D01*
X82552887Y-108787195D01*
X82552908Y-108588260D01*
X82552885Y-108369696D01*
X82552846Y-108130568D01*
X82552822Y-107869940D01*
X82552822Y-107827789D01*
X82552836Y-107564892D01*
X82552861Y-107323632D01*
X82552871Y-107103065D01*
X82552842Y-106902252D01*
X82552748Y-106720249D01*
X82552562Y-106556116D01*
X82552259Y-106408911D01*
X82551814Y-106277692D01*
X82551234Y-106167767D01*
X82248397Y-106167767D01*
X82208607Y-106225611D01*
X82197436Y-106241379D01*
X82187366Y-106255341D01*
X82178338Y-106268684D01*
X82170297Y-106282593D01*
X82163186Y-106298256D01*
X82156947Y-106316858D01*
X82151525Y-106339586D01*
X82146862Y-106367627D01*
X82142901Y-106402167D01*
X82139585Y-106444392D01*
X82136859Y-106495489D01*
X82134664Y-106556644D01*
X82132945Y-106629044D01*
X82131644Y-106713875D01*
X82130705Y-106812322D01*
X82130070Y-106925574D01*
X82129684Y-107054816D01*
X82129488Y-107201234D01*
X82129427Y-107366016D01*
X82129443Y-107550347D01*
X82129480Y-107755413D01*
X82129489Y-107878033D01*
X82129465Y-108094982D01*
X82129431Y-108290542D01*
X82129443Y-108465899D01*
X82129558Y-108622241D01*
X82129830Y-108760757D01*
X82130318Y-108882634D01*
X82131076Y-108989060D01*
X82132162Y-109081222D01*
X82133631Y-109160309D01*
X82135540Y-109227508D01*
X82137944Y-109284007D01*
X82140901Y-109330993D01*
X82144466Y-109369655D01*
X82148695Y-109401180D01*
X82153646Y-109426755D01*
X82159373Y-109447570D01*
X82165933Y-109464811D01*
X82173383Y-109479665D01*
X82181779Y-109493322D01*
X82191176Y-109506969D01*
X82201632Y-109521793D01*
X82207723Y-109530683D01*
X82246496Y-109588300D01*
X81714932Y-109588300D01*
X81591683Y-109588265D01*
X81489187Y-109588115D01*
X81405620Y-109587778D01*
X81339156Y-109587186D01*
X81287971Y-109586267D01*
X81250241Y-109584951D01*
X81224140Y-109583169D01*
X81207844Y-109580851D01*
X81199528Y-109577926D01*
X81197368Y-109574324D01*
X81199539Y-109569975D01*
X81200735Y-109568545D01*
X81225885Y-109531473D01*
X81251783Y-109478672D01*
X81275392Y-109416670D01*
X81283661Y-109390257D01*
X81288278Y-109372316D01*
X81292179Y-109351255D01*
X81295448Y-109324989D01*
X81298166Y-109291432D01*
X81300415Y-109248499D01*
X81302277Y-109194104D01*
X81303836Y-109126162D01*
X81305172Y-109042588D01*
X81306369Y-108941295D01*
X81307508Y-108820200D01*
X81307885Y-108775500D01*
X81308902Y-108650349D01*
X81309660Y-108545982D01*
X81310103Y-108460607D01*
X81310170Y-108392433D01*
X81309805Y-108339665D01*
X81308948Y-108300514D01*
X81307541Y-108273185D01*
X81305525Y-108255886D01*
X81302843Y-108246826D01*
X81299436Y-108244212D01*
X81295244Y-108246251D01*
X81290771Y-108250567D01*
X81280416Y-108263502D01*
X81258358Y-108292576D01*
X81226157Y-108335659D01*
X81185374Y-108390618D01*
X81137570Y-108455323D01*
X81084305Y-108527642D01*
X81027140Y-108605444D01*
X80967637Y-108686598D01*
X80907355Y-108768972D01*
X80847855Y-108850436D01*
X80790698Y-108928857D01*
X80737445Y-109002104D01*
X80689657Y-109068047D01*
X80648893Y-109124554D01*
X80616716Y-109169493D01*
X80594685Y-109200734D01*
X80590117Y-109207366D01*
X80567196Y-109244269D01*
X80540388Y-109292259D01*
X80514989Y-109341797D01*
X80511768Y-109348477D01*
X80490090Y-109396672D01*
X80477504Y-109434234D01*
X80471774Y-109470060D01*
X80470656Y-109512100D01*
X80471290Y-109588300D01*
X79316851Y-109588300D01*
X79408015Y-109494569D01*
X79454812Y-109444675D01*
X79505099Y-109388195D01*
X79551144Y-109333926D01*
X79571569Y-109308573D01*
X79602007Y-109269028D01*
X79642062Y-109215816D01*
X79690561Y-109150567D01*
X79746335Y-109074911D01*
X79808211Y-108990477D01*
X79875019Y-108898894D01*
X79945587Y-108801792D01*
X80018745Y-108700801D01*
X80093321Y-108597550D01*
X80168144Y-108493668D01*
X80242043Y-108390785D01*
X80313846Y-108290531D01*
X80382384Y-108194536D01*
X80446484Y-108104427D01*
X80504975Y-108021836D01*
X80556686Y-107948392D01*
X80600447Y-107885724D01*
X80635085Y-107835461D01*
X80659430Y-107799234D01*
X80672311Y-107778671D01*
X80674069Y-107774568D01*
X80666110Y-107763242D01*
X80645315Y-107736062D01*
X80613047Y-107694729D01*
X80570670Y-107640944D01*
X80519547Y-107576406D01*
X80461041Y-107502818D01*
X80396514Y-107421878D01*
X80327331Y-107335288D01*
X80254853Y-107244748D01*
X80180446Y-107151960D01*
X80120717Y-107077602D01*
X79109711Y-107077602D01*
X79103802Y-107090559D01*
X79089472Y-107112808D01*
X79088425Y-107114291D01*
X79069638Y-107144444D01*
X79049991Y-107181275D01*
X79046092Y-107189411D01*
X79042556Y-107197840D01*
X79039430Y-107207959D01*
X79036686Y-107221160D01*
X79034292Y-107238838D01*
X79032219Y-107262384D01*
X79030435Y-107293193D01*
X79028912Y-107332657D01*
X79027619Y-107382169D01*
X79026526Y-107443123D01*
X79025603Y-107516911D01*
X79024819Y-107604928D01*
X79024145Y-107708565D01*
X79023550Y-107829216D01*
X79023005Y-107968274D01*
X79022479Y-108127132D01*
X79021945Y-108305989D01*
X79021406Y-108491107D01*
X79020972Y-108655045D01*
X79020709Y-108799203D01*
X79020684Y-108924979D01*
X79020965Y-109033771D01*
X79021619Y-109126977D01*
X79022714Y-109205997D01*
X79024318Y-109272228D01*
X79026497Y-109327070D01*
X79029319Y-109371921D01*
X79032851Y-109408178D01*
X79037161Y-109437241D01*
X79042317Y-109460509D01*
X79048385Y-109479379D01*
X79055433Y-109495251D01*
X79063529Y-109509522D01*
X79072740Y-109523591D01*
X79081240Y-109536058D01*
X79098376Y-109562352D01*
X79108522Y-109579937D01*
X79109711Y-109583157D01*
X79098804Y-109584234D01*
X79067611Y-109585235D01*
X79018423Y-109586135D01*
X78953533Y-109586910D01*
X78875230Y-109587537D01*
X78785807Y-109587991D01*
X78687556Y-109588249D01*
X78618645Y-109588300D01*
X78513652Y-109588080D01*
X78416810Y-109587448D01*
X78330307Y-109586449D01*
X78256332Y-109585127D01*
X78197074Y-109583526D01*
X78154720Y-109581691D01*
X78131460Y-109579665D01*
X78127578Y-109578393D01*
X78135276Y-109563491D01*
X78143274Y-109555460D01*
X78156446Y-109538334D01*
X78173685Y-109508083D01*
X78185607Y-109483522D01*
X78212245Y-109424611D01*
X78215320Y-108247745D01*
X78218395Y-107070878D01*
X78664053Y-107070878D01*
X78761870Y-107071042D01*
X78852264Y-107071511D01*
X78932830Y-107072247D01*
X79001162Y-107073216D01*
X79054856Y-107074380D01*
X79091505Y-107075703D01*
X79108704Y-107077149D01*
X79109711Y-107077602D01*
X80120717Y-107077602D01*
X80105470Y-107058622D01*
X80031290Y-106966437D01*
X79959269Y-106877104D01*
X79890769Y-106792324D01*
X79827155Y-106713798D01*
X79769788Y-106643226D01*
X79720033Y-106582309D01*
X79679252Y-106532747D01*
X79662088Y-106512078D01*
X79575796Y-106411416D01*
X79499197Y-106328159D01*
X79430383Y-106260338D01*
X79367448Y-106205989D01*
X79358067Y-106198622D01*
X79318556Y-106168017D01*
X80450316Y-106167767D01*
X80445027Y-106215744D01*
X80448330Y-106273088D01*
X80469861Y-106341363D01*
X80509835Y-106421112D01*
X80555143Y-106493395D01*
X80571361Y-106516040D01*
X80599414Y-106553596D01*
X80637630Y-106603921D01*
X80684337Y-106664873D01*
X80737861Y-106734311D01*
X80796531Y-106810094D01*
X80858675Y-106890080D01*
X80922621Y-106972128D01*
X80986695Y-107054096D01*
X81049227Y-107133843D01*
X81108543Y-107209227D01*
X81162971Y-107278107D01*
X81210839Y-107338342D01*
X81250475Y-107387789D01*
X81280206Y-107424308D01*
X81298361Y-107445758D01*
X81301420Y-107449056D01*
X81304279Y-107441049D01*
X81306493Y-107410755D01*
X81308057Y-107358456D01*
X81308967Y-107284431D01*
X81309220Y-107188963D01*
X81308813Y-107072334D01*
X81307904Y-106952345D01*
X81306582Y-106820233D01*
X81305057Y-106708494D01*
X81303081Y-106614925D01*
X81300406Y-106537319D01*
X81296782Y-106473474D01*
X81291961Y-106421183D01*
X81285694Y-106378244D01*
X81277732Y-106342451D01*
X81267827Y-106311600D01*
X81255731Y-106283486D01*
X81241193Y-106255905D01*
X81226511Y-106230866D01*
X81188514Y-106167767D01*
X82248397Y-106167767D01*
X82551234Y-106167767D01*
X82551201Y-106161517D01*
X82550395Y-106059444D01*
X82549370Y-105970533D01*
X82548100Y-105893841D01*
X82546560Y-105828427D01*
X82544724Y-105773349D01*
X82542567Y-105727665D01*
X82540063Y-105690434D01*
X82537187Y-105660713D01*
X82533913Y-105637562D01*
X82530215Y-105620039D01*
X82526069Y-105607201D01*
X82521447Y-105598108D01*
X82516326Y-105591818D01*
X82510678Y-105587388D01*
X82504479Y-105583878D01*
X82497704Y-105580345D01*
X82491708Y-105576776D01*
X82486475Y-105574200D01*
X82478299Y-105571872D01*
X82466086Y-105569778D01*
X82448741Y-105567907D01*
X82425169Y-105566247D01*
X82394277Y-105564784D01*
X82354968Y-105563508D01*
X82306150Y-105562404D01*
X82246727Y-105561461D01*
X82175604Y-105560667D01*
X82091688Y-105560009D01*
X81993883Y-105559475D01*
X81881094Y-105559053D01*
X81752229Y-105558729D01*
X81606191Y-105558492D01*
X81441886Y-105558330D01*
X81258220Y-105558230D01*
X81054097Y-105558180D01*
X80842953Y-105558167D01*
X79222600Y-105558167D01*
X79222600Y-105654954D01*
D13*
%TO.C,U4*%
X66478000Y-97427000D02*
X66478000Y-96427000D01*
X56078000Y-95627000D02*
X56078000Y-107027000D01*
X56478000Y-95227000D02*
X62728000Y-95227000D01*
X66478000Y-107027000D02*
X66478000Y-106027000D01*
X62728000Y-96427000D02*
G75*
G03*
X62728000Y-96427000I-500000J0D01*
G01*
X62728000Y-106427000D02*
G75*
G03*
X62728000Y-106427000I-500000J0D01*
G01*
X56478000Y-107427000D02*
X66078000Y-107427000D01*
X63528000Y-96027000D02*
X66128000Y-96027000D01*
X56078000Y-95627000D02*
G75*
G02*
X56478000Y-95227000I400000J0D01*
G01*
X56478000Y-107427000D02*
G75*
G02*
X56078000Y-107027000I0J400000D01*
G01*
X62728000Y-95227000D02*
G75*
G02*
X63128000Y-95627000I0J-400000D01*
G01*
X63528000Y-96027000D02*
G75*
G02*
X63128000Y-95627000I0J400000D01*
G01*
X66478000Y-107027000D02*
G75*
G02*
X66078000Y-107427000I-400000J0D01*
G01*
X66078000Y-96027000D02*
G75*
G02*
X66478000Y-96427000I0J-400000D01*
G01*
%TD*%
%TO.C,U4*%
D14*
X59554190Y-101346047D02*
X59958952Y-101346047D01*
X60006571Y-101369857D01*
X60030380Y-101393666D01*
X60054190Y-101441285D01*
X60054190Y-101536523D01*
X60030380Y-101584142D01*
X60006571Y-101607952D01*
X59958952Y-101631761D01*
X59554190Y-101631761D01*
X59720857Y-102084142D02*
X60054190Y-102084142D01*
X59530380Y-101965095D02*
X59887523Y-101846047D01*
X59887523Y-102155571D01*
X63554190Y-104981761D02*
X63554190Y-104696047D01*
X63554190Y-104838904D02*
X63054190Y-104838904D01*
X63125619Y-104791285D01*
X63173238Y-104743666D01*
X63197047Y-104696047D01*
X63101809Y-105172238D02*
X63078000Y-105196047D01*
X63054190Y-105243666D01*
X63054190Y-105362714D01*
X63078000Y-105410333D01*
X63101809Y-105434142D01*
X63149428Y-105457952D01*
X63197047Y-105457952D01*
X63268476Y-105434142D01*
X63554190Y-105148428D01*
X63554190Y-105457952D01*
X63504190Y-98019857D02*
X63504190Y-97734142D01*
X63504190Y-97877000D02*
X63004190Y-97877000D01*
X63075619Y-97829380D01*
X63123238Y-97781761D01*
X63147047Y-97734142D01*
%TD*%
M02*
