%TF.GenerationSoftware,KiCad,Pcbnew,5.1.7+dfsg1-1~bpo10+1*%
%TF.CreationDate,Date%
%TF.ProjectId,osw-light,6f73772d-6c69-4676-9874-2e6b69636164,3.0*%
%TF.SameCoordinates,Original*%
%TF.FileFunction,Soldermask,Top*%
%TF.FilePolarity,Negative*%
%FSLAX46Y46*%
G04 Gerber Fmt 4.6, Leading zero omitted, Abs format (unit mm)*
G04 Created by KiCad*
%MOMM*%
%LPD*%
G01*
G04 APERTURE LIST*
%ADD10O,1.100000X1.100000*%
%ADD11O,1.600000X2.100000*%
%ADD12C,0.652000*%
G04 APERTURE END LIST*
D10*
%TO.C,U5*%
X78486000Y-115570000D03*
X73914000Y-115570000D03*
G36*
G01*
X77250000Y-115665500D02*
X77250000Y-114315500D01*
G75*
G02*
X77300000Y-114265500I50000J0D01*
G01*
X77700000Y-114265500D01*
G75*
G02*
X77750000Y-114315500I0J-50000D01*
G01*
X77750000Y-115665500D01*
G75*
G02*
X77700000Y-115715500I-50000J0D01*
G01*
X77300000Y-115715500D01*
G75*
G02*
X77250000Y-115665500I0J50000D01*
G01*
G37*
G36*
G01*
X76600000Y-115665500D02*
X76600000Y-114315500D01*
G75*
G02*
X76650000Y-114265500I50000J0D01*
G01*
X77050000Y-114265500D01*
G75*
G02*
X77100000Y-114315500I0J-50000D01*
G01*
X77100000Y-115665500D01*
G75*
G02*
X77050000Y-115715500I-50000J0D01*
G01*
X76650000Y-115715500D01*
G75*
G02*
X76600000Y-115665500I0J50000D01*
G01*
G37*
G36*
G01*
X75950000Y-115665500D02*
X75950000Y-114315500D01*
G75*
G02*
X76000000Y-114265500I50000J0D01*
G01*
X76400000Y-114265500D01*
G75*
G02*
X76450000Y-114315500I0J-50000D01*
G01*
X76450000Y-115665500D01*
G75*
G02*
X76400000Y-115715500I-50000J0D01*
G01*
X76000000Y-115715500D01*
G75*
G02*
X75950000Y-115665500I0J50000D01*
G01*
G37*
G36*
G01*
X75300000Y-115665500D02*
X75300000Y-114315500D01*
G75*
G02*
X75350000Y-114265500I50000J0D01*
G01*
X75750000Y-114265500D01*
G75*
G02*
X75800000Y-114315500I0J-50000D01*
G01*
X75800000Y-115665500D01*
G75*
G02*
X75750000Y-115715500I-50000J0D01*
G01*
X75350000Y-115715500D01*
G75*
G02*
X75300000Y-115665500I0J50000D01*
G01*
G37*
G36*
G01*
X74650000Y-115665500D02*
X74650000Y-114315500D01*
G75*
G02*
X74700000Y-114265500I50000J0D01*
G01*
X75100000Y-114265500D01*
G75*
G02*
X75150000Y-114315500I0J-50000D01*
G01*
X75150000Y-115665500D01*
G75*
G02*
X75100000Y-115715500I-50000J0D01*
G01*
X74700000Y-115715500D01*
G75*
G02*
X74650000Y-115665500I0J50000D01*
G01*
G37*
D11*
X79248000Y-117792500D03*
G36*
G01*
X75150000Y-118665500D02*
X75150000Y-116665500D01*
G75*
G02*
X75200000Y-116615500I50000J0D01*
G01*
X77200000Y-116615500D01*
G75*
G02*
X77250000Y-116665500I0J-50000D01*
G01*
X77250000Y-118665500D01*
G75*
G02*
X77200000Y-118715500I-50000J0D01*
G01*
X75200000Y-118715500D01*
G75*
G02*
X75150000Y-118665500I0J50000D01*
G01*
G37*
X73152000Y-117792500D03*
%TD*%
%TO.C,J1*%
G36*
G01*
X62711000Y-102477200D02*
X62711000Y-104177200D01*
G75*
G02*
X62660000Y-104228200I-51000J0D01*
G01*
X59260000Y-104228200D01*
G75*
G02*
X59209000Y-104177200I0J51000D01*
G01*
X59209000Y-102477200D01*
G75*
G02*
X59260000Y-102426200I51000J0D01*
G01*
X62660000Y-102426200D01*
G75*
G02*
X62711000Y-102477200I0J-51000D01*
G01*
G37*
G36*
G01*
X62711000Y-105017200D02*
X62711000Y-106717200D01*
G75*
G02*
X62660000Y-106768200I-51000J0D01*
G01*
X59260000Y-106768200D01*
G75*
G02*
X59209000Y-106717200I0J51000D01*
G01*
X59209000Y-105017200D01*
G75*
G02*
X59260000Y-104966200I51000J0D01*
G01*
X62660000Y-104966200D01*
G75*
G02*
X62711000Y-105017200I0J-51000D01*
G01*
G37*
%TD*%
D12*
%TO.C,SW2*%
X85888834Y-88148769D03*
X84344422Y-87145816D03*
G36*
G01*
X82744888Y-88624742D02*
X82325553Y-88352423D01*
G75*
G02*
X82310558Y-88281874I27777J42772D01*
G01*
X82964125Y-87275469D01*
G75*
G02*
X83034674Y-87260474I42772J-27777D01*
G01*
X83454009Y-87532793D01*
G75*
G02*
X83469004Y-87603342I-27777J-42772D01*
G01*
X82815437Y-88609747D01*
G75*
G02*
X82744888Y-88624742I-42772J27777D01*
G01*
G37*
G36*
G01*
X85554435Y-90449283D02*
X85135100Y-90176964D01*
G75*
G02*
X85120105Y-90106415I27777J42772D01*
G01*
X85773672Y-89100010D01*
G75*
G02*
X85844221Y-89085015I42772J-27777D01*
G01*
X86263556Y-89357334D01*
G75*
G02*
X86278551Y-89427883I-27777J-42772D01*
G01*
X85624984Y-90434288D01*
G75*
G02*
X85554435Y-90449283I-42772J27777D01*
G01*
G37*
G36*
G01*
X83528950Y-86938180D02*
X82522544Y-86284612D01*
G75*
G02*
X82507549Y-86214065I27776J42771D01*
G01*
X83161117Y-85207659D01*
G75*
G02*
X83231664Y-85192664I42771J-27776D01*
G01*
X84238070Y-85846232D01*
G75*
G02*
X84253065Y-85916779I-27776J-42771D01*
G01*
X83599497Y-86923185D01*
G75*
G02*
X83528950Y-86938180I-42771J27776D01*
G01*
G37*
G36*
G01*
X87363351Y-89428269D02*
X86356945Y-88774701D01*
G75*
G02*
X86341950Y-88704154I27776J42771D01*
G01*
X86995518Y-87697748D01*
G75*
G02*
X87066065Y-87682753I42771J-27776D01*
G01*
X88072471Y-88336321D01*
G75*
G02*
X88087466Y-88406868I-27776J-42771D01*
G01*
X87433898Y-89413274D01*
G75*
G02*
X87363351Y-89428269I-42771J27776D01*
G01*
G37*
%TD*%
%TO.C,SW1*%
X68108834Y-87111231D03*
X66564422Y-88114184D03*
G36*
G01*
X67264900Y-90176964D02*
X66845565Y-90449283D01*
G75*
G02*
X66775016Y-90434288I-27777J42772D01*
G01*
X66121449Y-89427883D01*
G75*
G02*
X66136444Y-89357334I42772J27777D01*
G01*
X66555779Y-89085015D01*
G75*
G02*
X66626328Y-89100010I27777J-42772D01*
G01*
X67279895Y-90106415D01*
G75*
G02*
X67264900Y-90176964I-42772J-27777D01*
G01*
G37*
G36*
G01*
X70074447Y-88352423D02*
X69655112Y-88624742D01*
G75*
G02*
X69584563Y-88609747I-27777J42772D01*
G01*
X68930996Y-87603342D01*
G75*
G02*
X68945991Y-87532793I42772J27777D01*
G01*
X69365326Y-87260474D01*
G75*
G02*
X69435875Y-87275469I27777J-42772D01*
G01*
X70089442Y-88281874D01*
G75*
G02*
X70074447Y-88352423I-42772J-27777D01*
G01*
G37*
G36*
G01*
X66043055Y-88774701D02*
X65036649Y-89428269D01*
G75*
G02*
X64966102Y-89413274I-27776J42771D01*
G01*
X64312534Y-88406868D01*
G75*
G02*
X64327529Y-88336321I42771J27776D01*
G01*
X65333935Y-87682753D01*
G75*
G02*
X65404482Y-87697748I27776J-42771D01*
G01*
X66058050Y-88704154D01*
G75*
G02*
X66043055Y-88774701I-42771J-27776D01*
G01*
G37*
G36*
G01*
X69877456Y-86284612D02*
X68871050Y-86938180D01*
G75*
G02*
X68800503Y-86923185I-27776J42771D01*
G01*
X68146935Y-85916779D01*
G75*
G02*
X68161930Y-85846232I42771J27776D01*
G01*
X69168336Y-85192664D01*
G75*
G02*
X69238883Y-85207659I27776J-42771D01*
G01*
X69892451Y-86214065D01*
G75*
G02*
X69877456Y-86284612I-42771J-27776D01*
G01*
G37*
%TD*%
%TO.C,SW5*%
X66511166Y-115051231D03*
X68055578Y-116054184D03*
G36*
G01*
X69655112Y-114575258D02*
X70074447Y-114847577D01*
G75*
G02*
X70089442Y-114918126I-27777J-42772D01*
G01*
X69435875Y-115924531D01*
G75*
G02*
X69365326Y-115939526I-42772J27777D01*
G01*
X68945991Y-115667207D01*
G75*
G02*
X68930996Y-115596658I27777J42772D01*
G01*
X69584563Y-114590253D01*
G75*
G02*
X69655112Y-114575258I42772J-27777D01*
G01*
G37*
G36*
G01*
X66845565Y-112750717D02*
X67264900Y-113023036D01*
G75*
G02*
X67279895Y-113093585I-27777J-42772D01*
G01*
X66626328Y-114099990D01*
G75*
G02*
X66555779Y-114114985I-42772J27777D01*
G01*
X66136444Y-113842666D01*
G75*
G02*
X66121449Y-113772117I27777J42772D01*
G01*
X66775016Y-112765712D01*
G75*
G02*
X66845565Y-112750717I42772J-27777D01*
G01*
G37*
G36*
G01*
X68871050Y-116261820D02*
X69877456Y-116915388D01*
G75*
G02*
X69892451Y-116985935I-27776J-42771D01*
G01*
X69238883Y-117992341D01*
G75*
G02*
X69168336Y-118007336I-42771J27776D01*
G01*
X68161930Y-117353768D01*
G75*
G02*
X68146935Y-117283221I27776J42771D01*
G01*
X68800503Y-116276815D01*
G75*
G02*
X68871050Y-116261820I42771J-27776D01*
G01*
G37*
G36*
G01*
X65036649Y-113771731D02*
X66043055Y-114425299D01*
G75*
G02*
X66058050Y-114495846I-27776J-42771D01*
G01*
X65404482Y-115502252D01*
G75*
G02*
X65333935Y-115517247I-42771J27776D01*
G01*
X64327529Y-114863679D01*
G75*
G02*
X64312534Y-114793132I27776J42771D01*
G01*
X64966102Y-113786726D01*
G75*
G02*
X65036649Y-113771731I42771J-27776D01*
G01*
G37*
%TD*%
%TO.C,SW4*%
X84291166Y-116088769D03*
X85835578Y-115085816D03*
G36*
G01*
X85135100Y-113023036D02*
X85554435Y-112750717D01*
G75*
G02*
X85624984Y-112765712I27777J-42772D01*
G01*
X86278551Y-113772117D01*
G75*
G02*
X86263556Y-113842666I-42772J-27777D01*
G01*
X85844221Y-114114985D01*
G75*
G02*
X85773672Y-114099990I-27777J42772D01*
G01*
X85120105Y-113093585D01*
G75*
G02*
X85135100Y-113023036I42772J27777D01*
G01*
G37*
G36*
G01*
X82325553Y-114847577D02*
X82744888Y-114575258D01*
G75*
G02*
X82815437Y-114590253I27777J-42772D01*
G01*
X83469004Y-115596658D01*
G75*
G02*
X83454009Y-115667207I-42772J-27777D01*
G01*
X83034674Y-115939526D01*
G75*
G02*
X82964125Y-115924531I-27777J42772D01*
G01*
X82310558Y-114918126D01*
G75*
G02*
X82325553Y-114847577I42772J27777D01*
G01*
G37*
G36*
G01*
X86356945Y-114425299D02*
X87363351Y-113771731D01*
G75*
G02*
X87433898Y-113786726I27776J-42771D01*
G01*
X88087466Y-114793132D01*
G75*
G02*
X88072471Y-114863679I-42771J-27776D01*
G01*
X87066065Y-115517247D01*
G75*
G02*
X86995518Y-115502252I-27776J42771D01*
G01*
X86341950Y-114495846D01*
G75*
G02*
X86356945Y-114425299I42771J27776D01*
G01*
G37*
G36*
G01*
X82522544Y-116915388D02*
X83528950Y-116261820D01*
G75*
G02*
X83599497Y-116276815I27776J-42771D01*
G01*
X84253065Y-117283221D01*
G75*
G02*
X84238070Y-117353768I-42771J-27776D01*
G01*
X83231664Y-118007336D01*
G75*
G02*
X83161117Y-117992341I-27776J42771D01*
G01*
X82507549Y-116985935D01*
G75*
G02*
X82522544Y-116915388I42771J27776D01*
G01*
G37*
%TD*%
%TO.C,R18*%
G36*
G01*
X71282750Y-89516500D02*
X71846250Y-89516500D01*
G75*
G02*
X72090500Y-89760750I0J-244250D01*
G01*
X72090500Y-90249250D01*
G75*
G02*
X71846250Y-90493500I-244250J0D01*
G01*
X71282750Y-90493500D01*
G75*
G02*
X71038500Y-90249250I0J244250D01*
G01*
X71038500Y-89760750D01*
G75*
G02*
X71282750Y-89516500I244250J0D01*
G01*
G37*
G36*
G01*
X71282750Y-87941500D02*
X71846250Y-87941500D01*
G75*
G02*
X72090500Y-88185750I0J-244250D01*
G01*
X72090500Y-88674250D01*
G75*
G02*
X71846250Y-88918500I-244250J0D01*
G01*
X71282750Y-88918500D01*
G75*
G02*
X71038500Y-88674250I0J244250D01*
G01*
X71038500Y-88185750D01*
G75*
G02*
X71282750Y-87941500I244250J0D01*
G01*
G37*
%TD*%
%TO.C,C11*%
G36*
G01*
X71846250Y-85807000D02*
X71282750Y-85807000D01*
G75*
G02*
X71038500Y-85562750I0J244250D01*
G01*
X71038500Y-85074250D01*
G75*
G02*
X71282750Y-84830000I244250J0D01*
G01*
X71846250Y-84830000D01*
G75*
G02*
X72090500Y-85074250I0J-244250D01*
G01*
X72090500Y-85562750D01*
G75*
G02*
X71846250Y-85807000I-244250J0D01*
G01*
G37*
G36*
G01*
X71846250Y-87382000D02*
X71282750Y-87382000D01*
G75*
G02*
X71038500Y-87137750I0J244250D01*
G01*
X71038500Y-86649250D01*
G75*
G02*
X71282750Y-86405000I244250J0D01*
G01*
X71846250Y-86405000D01*
G75*
G02*
X72090500Y-86649250I0J-244250D01*
G01*
X72090500Y-87137750D01*
G75*
G02*
X71846250Y-87382000I-244250J0D01*
G01*
G37*
%TD*%
%TO.C,C22*%
G36*
G01*
X62837250Y-101010000D02*
X63400750Y-101010000D01*
G75*
G02*
X63645000Y-101254250I0J-244250D01*
G01*
X63645000Y-101742750D01*
G75*
G02*
X63400750Y-101987000I-244250J0D01*
G01*
X62837250Y-101987000D01*
G75*
G02*
X62593000Y-101742750I0J244250D01*
G01*
X62593000Y-101254250D01*
G75*
G02*
X62837250Y-101010000I244250J0D01*
G01*
G37*
G36*
G01*
X62837250Y-99435000D02*
X63400750Y-99435000D01*
G75*
G02*
X63645000Y-99679250I0J-244250D01*
G01*
X63645000Y-100167750D01*
G75*
G02*
X63400750Y-100412000I-244250J0D01*
G01*
X62837250Y-100412000D01*
G75*
G02*
X62593000Y-100167750I0J244250D01*
G01*
X62593000Y-99679250D01*
G75*
G02*
X62837250Y-99435000I244250J0D01*
G01*
G37*
%TD*%
%TO.C,U13*%
G36*
G01*
X68158201Y-94985000D02*
X67508199Y-94985000D01*
G75*
G02*
X67457200Y-94934001I0J50999D01*
G01*
X67457200Y-93873999D01*
G75*
G02*
X67508199Y-93823000I50999J0D01*
G01*
X68158201Y-93823000D01*
G75*
G02*
X68209200Y-93873999I0J-50999D01*
G01*
X68209200Y-94934001D01*
G75*
G02*
X68158201Y-94985000I-50999J0D01*
G01*
G37*
G36*
G01*
X70058201Y-94985000D02*
X69408199Y-94985000D01*
G75*
G02*
X69357200Y-94934001I0J50999D01*
G01*
X69357200Y-93873999D01*
G75*
G02*
X69408199Y-93823000I50999J0D01*
G01*
X70058201Y-93823000D01*
G75*
G02*
X70109200Y-93873999I0J-50999D01*
G01*
X70109200Y-94934001D01*
G75*
G02*
X70058201Y-94985000I-50999J0D01*
G01*
G37*
G36*
G01*
X70058201Y-97185000D02*
X69408199Y-97185000D01*
G75*
G02*
X69357200Y-97134001I0J50999D01*
G01*
X69357200Y-96073999D01*
G75*
G02*
X69408199Y-96023000I50999J0D01*
G01*
X70058201Y-96023000D01*
G75*
G02*
X70109200Y-96073999I0J-50999D01*
G01*
X70109200Y-97134001D01*
G75*
G02*
X70058201Y-97185000I-50999J0D01*
G01*
G37*
G36*
G01*
X69108201Y-97185000D02*
X68458199Y-97185000D01*
G75*
G02*
X68407200Y-97134001I0J50999D01*
G01*
X68407200Y-96073999D01*
G75*
G02*
X68458199Y-96023000I50999J0D01*
G01*
X69108201Y-96023000D01*
G75*
G02*
X69159200Y-96073999I0J-50999D01*
G01*
X69159200Y-97134001D01*
G75*
G02*
X69108201Y-97185000I-50999J0D01*
G01*
G37*
G36*
G01*
X68158201Y-97185000D02*
X67508199Y-97185000D01*
G75*
G02*
X67457200Y-97134001I0J50999D01*
G01*
X67457200Y-96073999D01*
G75*
G02*
X67508199Y-96023000I50999J0D01*
G01*
X68158201Y-96023000D01*
G75*
G02*
X68209200Y-96073999I0J-50999D01*
G01*
X68209200Y-97134001D01*
G75*
G02*
X68158201Y-97185000I-50999J0D01*
G01*
G37*
%TD*%
%TO.C,U10*%
G36*
G01*
X72781001Y-94985000D02*
X72130999Y-94985000D01*
G75*
G02*
X72080000Y-94934001I0J50999D01*
G01*
X72080000Y-93873999D01*
G75*
G02*
X72130999Y-93823000I50999J0D01*
G01*
X72781001Y-93823000D01*
G75*
G02*
X72832000Y-93873999I0J-50999D01*
G01*
X72832000Y-94934001D01*
G75*
G02*
X72781001Y-94985000I-50999J0D01*
G01*
G37*
G36*
G01*
X74681001Y-94985000D02*
X74030999Y-94985000D01*
G75*
G02*
X73980000Y-94934001I0J50999D01*
G01*
X73980000Y-93873999D01*
G75*
G02*
X74030999Y-93823000I50999J0D01*
G01*
X74681001Y-93823000D01*
G75*
G02*
X74732000Y-93873999I0J-50999D01*
G01*
X74732000Y-94934001D01*
G75*
G02*
X74681001Y-94985000I-50999J0D01*
G01*
G37*
G36*
G01*
X74681001Y-97185000D02*
X74030999Y-97185000D01*
G75*
G02*
X73980000Y-97134001I0J50999D01*
G01*
X73980000Y-96073999D01*
G75*
G02*
X74030999Y-96023000I50999J0D01*
G01*
X74681001Y-96023000D01*
G75*
G02*
X74732000Y-96073999I0J-50999D01*
G01*
X74732000Y-97134001D01*
G75*
G02*
X74681001Y-97185000I-50999J0D01*
G01*
G37*
G36*
G01*
X73731001Y-97185000D02*
X73080999Y-97185000D01*
G75*
G02*
X73030000Y-97134001I0J50999D01*
G01*
X73030000Y-96073999D01*
G75*
G02*
X73080999Y-96023000I50999J0D01*
G01*
X73731001Y-96023000D01*
G75*
G02*
X73782000Y-96073999I0J-50999D01*
G01*
X73782000Y-97134001D01*
G75*
G02*
X73731001Y-97185000I-50999J0D01*
G01*
G37*
G36*
G01*
X72781001Y-97185000D02*
X72130999Y-97185000D01*
G75*
G02*
X72080000Y-97134001I0J50999D01*
G01*
X72080000Y-96073999D01*
G75*
G02*
X72130999Y-96023000I50999J0D01*
G01*
X72781001Y-96023000D01*
G75*
G02*
X72832000Y-96073999I0J-50999D01*
G01*
X72832000Y-97134001D01*
G75*
G02*
X72781001Y-97185000I-50999J0D01*
G01*
G37*
%TD*%
%TO.C,R22*%
G36*
G01*
X60174950Y-100412000D02*
X59611450Y-100412000D01*
G75*
G02*
X59367200Y-100167750I0J244250D01*
G01*
X59367200Y-99679250D01*
G75*
G02*
X59611450Y-99435000I244250J0D01*
G01*
X60174950Y-99435000D01*
G75*
G02*
X60419200Y-99679250I0J-244250D01*
G01*
X60419200Y-100167750D01*
G75*
G02*
X60174950Y-100412000I-244250J0D01*
G01*
G37*
G36*
G01*
X60174950Y-101987000D02*
X59611450Y-101987000D01*
G75*
G02*
X59367200Y-101742750I0J244250D01*
G01*
X59367200Y-101254250D01*
G75*
G02*
X59611450Y-101010000I244250J0D01*
G01*
X60174950Y-101010000D01*
G75*
G02*
X60419200Y-101254250I0J-244250D01*
G01*
X60419200Y-101742750D01*
G75*
G02*
X60174950Y-101987000I-244250J0D01*
G01*
G37*
%TD*%
%TO.C,R21*%
G36*
G01*
X61262450Y-100984500D02*
X61825950Y-100984500D01*
G75*
G02*
X62070200Y-101228750I0J-244250D01*
G01*
X62070200Y-101717250D01*
G75*
G02*
X61825950Y-101961500I-244250J0D01*
G01*
X61262450Y-101961500D01*
G75*
G02*
X61018200Y-101717250I0J244250D01*
G01*
X61018200Y-101228750D01*
G75*
G02*
X61262450Y-100984500I244250J0D01*
G01*
G37*
G36*
G01*
X61262450Y-99409500D02*
X61825950Y-99409500D01*
G75*
G02*
X62070200Y-99653750I0J-244250D01*
G01*
X62070200Y-100142250D01*
G75*
G02*
X61825950Y-100386500I-244250J0D01*
G01*
X61262450Y-100386500D01*
G75*
G02*
X61018200Y-100142250I0J244250D01*
G01*
X61018200Y-99653750D01*
G75*
G02*
X61262450Y-99409500I244250J0D01*
G01*
G37*
%TD*%
%TO.C,C19*%
G36*
G01*
X69488500Y-91467750D02*
X69488500Y-90904250D01*
G75*
G02*
X69732750Y-90660000I244250J0D01*
G01*
X70221250Y-90660000D01*
G75*
G02*
X70465500Y-90904250I0J-244250D01*
G01*
X70465500Y-91467750D01*
G75*
G02*
X70221250Y-91712000I-244250J0D01*
G01*
X69732750Y-91712000D01*
G75*
G02*
X69488500Y-91467750I0J244250D01*
G01*
G37*
G36*
G01*
X67913500Y-91467750D02*
X67913500Y-90904250D01*
G75*
G02*
X68157750Y-90660000I244250J0D01*
G01*
X68646250Y-90660000D01*
G75*
G02*
X68890500Y-90904250I0J-244250D01*
G01*
X68890500Y-91467750D01*
G75*
G02*
X68646250Y-91712000I-244250J0D01*
G01*
X68157750Y-91712000D01*
G75*
G02*
X67913500Y-91467750I0J244250D01*
G01*
G37*
%TD*%
%TO.C,C18*%
G36*
G01*
X74187600Y-91467750D02*
X74187600Y-90904250D01*
G75*
G02*
X74431850Y-90660000I244250J0D01*
G01*
X74920350Y-90660000D01*
G75*
G02*
X75164600Y-90904250I0J-244250D01*
G01*
X75164600Y-91467750D01*
G75*
G02*
X74920350Y-91712000I-244250J0D01*
G01*
X74431850Y-91712000D01*
G75*
G02*
X74187600Y-91467750I0J244250D01*
G01*
G37*
G36*
G01*
X72612600Y-91467750D02*
X72612600Y-90904250D01*
G75*
G02*
X72856850Y-90660000I244250J0D01*
G01*
X73345350Y-90660000D01*
G75*
G02*
X73589600Y-90904250I0J-244250D01*
G01*
X73589600Y-91467750D01*
G75*
G02*
X73345350Y-91712000I-244250J0D01*
G01*
X72856850Y-91712000D01*
G75*
G02*
X72612600Y-91467750I0J244250D01*
G01*
G37*
%TD*%
%TO.C,C17*%
G36*
G01*
X69488500Y-93055250D02*
X69488500Y-92491750D01*
G75*
G02*
X69732750Y-92247500I244250J0D01*
G01*
X70221250Y-92247500D01*
G75*
G02*
X70465500Y-92491750I0J-244250D01*
G01*
X70465500Y-93055250D01*
G75*
G02*
X70221250Y-93299500I-244250J0D01*
G01*
X69732750Y-93299500D01*
G75*
G02*
X69488500Y-93055250I0J244250D01*
G01*
G37*
G36*
G01*
X67913500Y-93055250D02*
X67913500Y-92491750D01*
G75*
G02*
X68157750Y-92247500I244250J0D01*
G01*
X68646250Y-92247500D01*
G75*
G02*
X68890500Y-92491750I0J-244250D01*
G01*
X68890500Y-93055250D01*
G75*
G02*
X68646250Y-93299500I-244250J0D01*
G01*
X68157750Y-93299500D01*
G75*
G02*
X67913500Y-93055250I0J244250D01*
G01*
G37*
%TD*%
%TO.C,C16*%
G36*
G01*
X74187600Y-93055250D02*
X74187600Y-92491750D01*
G75*
G02*
X74431850Y-92247500I244250J0D01*
G01*
X74920350Y-92247500D01*
G75*
G02*
X75164600Y-92491750I0J-244250D01*
G01*
X75164600Y-93055250D01*
G75*
G02*
X74920350Y-93299500I-244250J0D01*
G01*
X74431850Y-93299500D01*
G75*
G02*
X74187600Y-93055250I0J244250D01*
G01*
G37*
G36*
G01*
X72612600Y-93055250D02*
X72612600Y-92491750D01*
G75*
G02*
X72856850Y-92247500I244250J0D01*
G01*
X73345350Y-92247500D01*
G75*
G02*
X73589600Y-92491750I0J-244250D01*
G01*
X73589600Y-93055250D01*
G75*
G02*
X73345350Y-93299500I-244250J0D01*
G01*
X72856850Y-93299500D01*
G75*
G02*
X72612600Y-93055250I0J244250D01*
G01*
G37*
%TD*%
%TO.C,C15*%
G36*
G01*
X69387000Y-98528950D02*
X69387000Y-97965450D01*
G75*
G02*
X69631250Y-97721200I244250J0D01*
G01*
X70119750Y-97721200D01*
G75*
G02*
X70364000Y-97965450I0J-244250D01*
G01*
X70364000Y-98528950D01*
G75*
G02*
X70119750Y-98773200I-244250J0D01*
G01*
X69631250Y-98773200D01*
G75*
G02*
X69387000Y-98528950I0J244250D01*
G01*
G37*
G36*
G01*
X67812000Y-98528950D02*
X67812000Y-97965450D01*
G75*
G02*
X68056250Y-97721200I244250J0D01*
G01*
X68544750Y-97721200D01*
G75*
G02*
X68789000Y-97965450I0J-244250D01*
G01*
X68789000Y-98528950D01*
G75*
G02*
X68544750Y-98773200I-244250J0D01*
G01*
X68056250Y-98773200D01*
G75*
G02*
X67812000Y-98528950I0J244250D01*
G01*
G37*
%TD*%
%TO.C,C14*%
G36*
G01*
X74009800Y-98528950D02*
X74009800Y-97965450D01*
G75*
G02*
X74254050Y-97721200I244250J0D01*
G01*
X74742550Y-97721200D01*
G75*
G02*
X74986800Y-97965450I0J-244250D01*
G01*
X74986800Y-98528950D01*
G75*
G02*
X74742550Y-98773200I-244250J0D01*
G01*
X74254050Y-98773200D01*
G75*
G02*
X74009800Y-98528950I0J244250D01*
G01*
G37*
G36*
G01*
X72434800Y-98528950D02*
X72434800Y-97965450D01*
G75*
G02*
X72679050Y-97721200I244250J0D01*
G01*
X73167550Y-97721200D01*
G75*
G02*
X73411800Y-97965450I0J-244250D01*
G01*
X73411800Y-98528950D01*
G75*
G02*
X73167550Y-98773200I-244250J0D01*
G01*
X72679050Y-98773200D01*
G75*
G02*
X72434800Y-98528950I0J244250D01*
G01*
G37*
%TD*%
%TO.C,C6*%
G36*
G01*
X68999200Y-100833200D02*
X68999200Y-99522000D01*
G75*
G02*
X69269600Y-99251600I270400J0D01*
G01*
X70080800Y-99251600D01*
G75*
G02*
X70351200Y-99522000I0J-270400D01*
G01*
X70351200Y-100833200D01*
G75*
G02*
X70080800Y-101103600I-270400J0D01*
G01*
X69269600Y-101103600D01*
G75*
G02*
X68999200Y-100833200I0J270400D01*
G01*
G37*
G36*
G01*
X66199200Y-100833200D02*
X66199200Y-99522000D01*
G75*
G02*
X66469600Y-99251600I270400J0D01*
G01*
X67280800Y-99251600D01*
G75*
G02*
X67551200Y-99522000I0J-270400D01*
G01*
X67551200Y-100833200D01*
G75*
G02*
X67280800Y-101103600I-270400J0D01*
G01*
X66469600Y-101103600D01*
G75*
G02*
X66199200Y-100833200I0J270400D01*
G01*
G37*
%TD*%
%TO.C,C5*%
G36*
G01*
X73644400Y-100833200D02*
X73644400Y-99522000D01*
G75*
G02*
X73914800Y-99251600I270400J0D01*
G01*
X74726000Y-99251600D01*
G75*
G02*
X74996400Y-99522000I0J-270400D01*
G01*
X74996400Y-100833200D01*
G75*
G02*
X74726000Y-101103600I-270400J0D01*
G01*
X73914800Y-101103600D01*
G75*
G02*
X73644400Y-100833200I0J270400D01*
G01*
G37*
G36*
G01*
X70844400Y-100833200D02*
X70844400Y-99522000D01*
G75*
G02*
X71114800Y-99251600I270400J0D01*
G01*
X71926000Y-99251600D01*
G75*
G02*
X72196400Y-99522000I0J-270400D01*
G01*
X72196400Y-100833200D01*
G75*
G02*
X71926000Y-101103600I-270400J0D01*
G01*
X71114800Y-101103600D01*
G75*
G02*
X70844400Y-100833200I0J270400D01*
G01*
G37*
%TD*%
%TO.C,U2*%
G36*
G01*
X79259500Y-91582000D02*
X79609500Y-91582000D01*
G75*
G02*
X79660500Y-91633000I0J-51000D01*
G01*
X79660500Y-92008000D01*
G75*
G02*
X79609500Y-92059000I-51000J0D01*
G01*
X79259500Y-92059000D01*
G75*
G02*
X79208500Y-92008000I0J51000D01*
G01*
X79208500Y-91633000D01*
G75*
G02*
X79259500Y-91582000I51000J0D01*
G01*
G37*
G36*
G01*
X78759500Y-91582000D02*
X79109500Y-91582000D01*
G75*
G02*
X79160500Y-91633000I0J-51000D01*
G01*
X79160500Y-92008000D01*
G75*
G02*
X79109500Y-92059000I-51000J0D01*
G01*
X78759500Y-92059000D01*
G75*
G02*
X78708500Y-92008000I0J51000D01*
G01*
X78708500Y-91633000D01*
G75*
G02*
X78759500Y-91582000I51000J0D01*
G01*
G37*
G36*
G01*
X79259500Y-93107000D02*
X79609500Y-93107000D01*
G75*
G02*
X79660500Y-93158000I0J-51000D01*
G01*
X79660500Y-93533000D01*
G75*
G02*
X79609500Y-93584000I-51000J0D01*
G01*
X79259500Y-93584000D01*
G75*
G02*
X79208500Y-93533000I0J51000D01*
G01*
X79208500Y-93158000D01*
G75*
G02*
X79259500Y-93107000I51000J0D01*
G01*
G37*
G36*
G01*
X78759500Y-93107000D02*
X79109500Y-93107000D01*
G75*
G02*
X79160500Y-93158000I0J-51000D01*
G01*
X79160500Y-93533000D01*
G75*
G02*
X79109500Y-93584000I-51000J0D01*
G01*
X78759500Y-93584000D01*
G75*
G02*
X78708500Y-93533000I0J51000D01*
G01*
X78708500Y-93158000D01*
G75*
G02*
X78759500Y-93107000I51000J0D01*
G01*
G37*
G36*
G01*
X78259500Y-91582000D02*
X78609500Y-91582000D01*
G75*
G02*
X78660500Y-91633000I0J-51000D01*
G01*
X78660500Y-92008000D01*
G75*
G02*
X78609500Y-92059000I-51000J0D01*
G01*
X78259500Y-92059000D01*
G75*
G02*
X78208500Y-92008000I0J51000D01*
G01*
X78208500Y-91633000D01*
G75*
G02*
X78259500Y-91582000I51000J0D01*
G01*
G37*
G36*
G01*
X78259500Y-93107000D02*
X78609500Y-93107000D01*
G75*
G02*
X78660500Y-93158000I0J-51000D01*
G01*
X78660500Y-93533000D01*
G75*
G02*
X78609500Y-93584000I-51000J0D01*
G01*
X78259500Y-93584000D01*
G75*
G02*
X78208500Y-93533000I0J51000D01*
G01*
X78208500Y-93158000D01*
G75*
G02*
X78259500Y-93107000I51000J0D01*
G01*
G37*
G36*
G01*
X79759500Y-91582000D02*
X80109500Y-91582000D01*
G75*
G02*
X80160500Y-91633000I0J-51000D01*
G01*
X80160500Y-92008000D01*
G75*
G02*
X80109500Y-92059000I-51000J0D01*
G01*
X79759500Y-92059000D01*
G75*
G02*
X79708500Y-92008000I0J51000D01*
G01*
X79708500Y-91633000D01*
G75*
G02*
X79759500Y-91582000I51000J0D01*
G01*
G37*
G36*
G01*
X79759500Y-93107000D02*
X80109500Y-93107000D01*
G75*
G02*
X80160500Y-93158000I0J-51000D01*
G01*
X80160500Y-93533000D01*
G75*
G02*
X80109500Y-93584000I-51000J0D01*
G01*
X79759500Y-93584000D01*
G75*
G02*
X79708500Y-93533000I0J51000D01*
G01*
X79708500Y-93158000D01*
G75*
G02*
X79759500Y-93107000I51000J0D01*
G01*
G37*
G36*
G01*
X78183500Y-92508000D02*
X78183500Y-92158000D01*
G75*
G02*
X78234500Y-92107000I51000J0D01*
G01*
X78609500Y-92107000D01*
G75*
G02*
X78660500Y-92158000I0J-51000D01*
G01*
X78660500Y-92508000D01*
G75*
G02*
X78609500Y-92559000I-51000J0D01*
G01*
X78234500Y-92559000D01*
G75*
G02*
X78183500Y-92508000I0J51000D01*
G01*
G37*
G36*
G01*
X78183500Y-93008000D02*
X78183500Y-92658000D01*
G75*
G02*
X78234500Y-92607000I51000J0D01*
G01*
X78609500Y-92607000D01*
G75*
G02*
X78660500Y-92658000I0J-51000D01*
G01*
X78660500Y-93008000D01*
G75*
G02*
X78609500Y-93059000I-51000J0D01*
G01*
X78234500Y-93059000D01*
G75*
G02*
X78183500Y-93008000I0J51000D01*
G01*
G37*
G36*
G01*
X79708500Y-93008000D02*
X79708500Y-92658000D01*
G75*
G02*
X79759500Y-92607000I51000J0D01*
G01*
X80134500Y-92607000D01*
G75*
G02*
X80185500Y-92658000I0J-51000D01*
G01*
X80185500Y-93008000D01*
G75*
G02*
X80134500Y-93059000I-51000J0D01*
G01*
X79759500Y-93059000D01*
G75*
G02*
X79708500Y-93008000I0J51000D01*
G01*
G37*
G36*
G01*
X79708500Y-92508000D02*
X79708500Y-92158000D01*
G75*
G02*
X79759500Y-92107000I51000J0D01*
G01*
X80134500Y-92107000D01*
G75*
G02*
X80185500Y-92158000I0J-51000D01*
G01*
X80185500Y-92508000D01*
G75*
G02*
X80134500Y-92559000I-51000J0D01*
G01*
X79759500Y-92559000D01*
G75*
G02*
X79708500Y-92508000I0J51000D01*
G01*
G37*
%TD*%
%TO.C,U9*%
G36*
G01*
X74974200Y-105649900D02*
X74974200Y-105900900D01*
G75*
G02*
X74848700Y-106026400I-125500J0D01*
G01*
X73522700Y-106026400D01*
G75*
G02*
X73397200Y-105900900I0J125500D01*
G01*
X73397200Y-105649900D01*
G75*
G02*
X73522700Y-105524400I125500J0D01*
G01*
X74848700Y-105524400D01*
G75*
G02*
X74974200Y-105649900I0J-125500D01*
G01*
G37*
G36*
G01*
X74974200Y-104999900D02*
X74974200Y-105250900D01*
G75*
G02*
X74848700Y-105376400I-125500J0D01*
G01*
X73522700Y-105376400D01*
G75*
G02*
X73397200Y-105250900I0J125500D01*
G01*
X73397200Y-104999900D01*
G75*
G02*
X73522700Y-104874400I125500J0D01*
G01*
X74848700Y-104874400D01*
G75*
G02*
X74974200Y-104999900I0J-125500D01*
G01*
G37*
G36*
G01*
X74974200Y-104349900D02*
X74974200Y-104600900D01*
G75*
G02*
X74848700Y-104726400I-125500J0D01*
G01*
X73522700Y-104726400D01*
G75*
G02*
X73397200Y-104600900I0J125500D01*
G01*
X73397200Y-104349900D01*
G75*
G02*
X73522700Y-104224400I125500J0D01*
G01*
X74848700Y-104224400D01*
G75*
G02*
X74974200Y-104349900I0J-125500D01*
G01*
G37*
G36*
G01*
X74974200Y-103699900D02*
X74974200Y-103950900D01*
G75*
G02*
X74848700Y-104076400I-125500J0D01*
G01*
X73522700Y-104076400D01*
G75*
G02*
X73397200Y-103950900I0J125500D01*
G01*
X73397200Y-103699900D01*
G75*
G02*
X73522700Y-103574400I125500J0D01*
G01*
X74848700Y-103574400D01*
G75*
G02*
X74974200Y-103699900I0J-125500D01*
G01*
G37*
G36*
G01*
X69249200Y-103699900D02*
X69249200Y-103950900D01*
G75*
G02*
X69123700Y-104076400I-125500J0D01*
G01*
X67797700Y-104076400D01*
G75*
G02*
X67672200Y-103950900I0J125500D01*
G01*
X67672200Y-103699900D01*
G75*
G02*
X67797700Y-103574400I125500J0D01*
G01*
X69123700Y-103574400D01*
G75*
G02*
X69249200Y-103699900I0J-125500D01*
G01*
G37*
G36*
G01*
X69249200Y-104349900D02*
X69249200Y-104600900D01*
G75*
G02*
X69123700Y-104726400I-125500J0D01*
G01*
X67797700Y-104726400D01*
G75*
G02*
X67672200Y-104600900I0J125500D01*
G01*
X67672200Y-104349900D01*
G75*
G02*
X67797700Y-104224400I125500J0D01*
G01*
X69123700Y-104224400D01*
G75*
G02*
X69249200Y-104349900I0J-125500D01*
G01*
G37*
G36*
G01*
X69249200Y-104999900D02*
X69249200Y-105250900D01*
G75*
G02*
X69123700Y-105376400I-125500J0D01*
G01*
X67797700Y-105376400D01*
G75*
G02*
X67672200Y-105250900I0J125500D01*
G01*
X67672200Y-104999900D01*
G75*
G02*
X67797700Y-104874400I125500J0D01*
G01*
X69123700Y-104874400D01*
G75*
G02*
X69249200Y-104999900I0J-125500D01*
G01*
G37*
G36*
G01*
X69249200Y-105649900D02*
X69249200Y-105900900D01*
G75*
G02*
X69123700Y-106026400I-125500J0D01*
G01*
X67797700Y-106026400D01*
G75*
G02*
X67672200Y-105900900I0J125500D01*
G01*
X67672200Y-105649900D01*
G75*
G02*
X67797700Y-105524400I125500J0D01*
G01*
X69123700Y-105524400D01*
G75*
G02*
X69249200Y-105649900I0J-125500D01*
G01*
G37*
%TD*%
%TO.C,R19*%
G36*
G01*
X74009800Y-102440550D02*
X74009800Y-101877050D01*
G75*
G02*
X74254050Y-101632800I244250J0D01*
G01*
X74742550Y-101632800D01*
G75*
G02*
X74986800Y-101877050I0J-244250D01*
G01*
X74986800Y-102440550D01*
G75*
G02*
X74742550Y-102684800I-244250J0D01*
G01*
X74254050Y-102684800D01*
G75*
G02*
X74009800Y-102440550I0J244250D01*
G01*
G37*
G36*
G01*
X72434800Y-102440550D02*
X72434800Y-101877050D01*
G75*
G02*
X72679050Y-101632800I244250J0D01*
G01*
X73167550Y-101632800D01*
G75*
G02*
X73411800Y-101877050I0J-244250D01*
G01*
X73411800Y-102440550D01*
G75*
G02*
X73167550Y-102684800I-244250J0D01*
G01*
X72679050Y-102684800D01*
G75*
G02*
X72434800Y-102440550I0J244250D01*
G01*
G37*
%TD*%
%TO.C,C13*%
G36*
G01*
X76938950Y-90582200D02*
X76375450Y-90582200D01*
G75*
G02*
X76131200Y-90337950I0J244250D01*
G01*
X76131200Y-89849450D01*
G75*
G02*
X76375450Y-89605200I244250J0D01*
G01*
X76938950Y-89605200D01*
G75*
G02*
X77183200Y-89849450I0J-244250D01*
G01*
X77183200Y-90337950D01*
G75*
G02*
X76938950Y-90582200I-244250J0D01*
G01*
G37*
G36*
G01*
X76938950Y-92157200D02*
X76375450Y-92157200D01*
G75*
G02*
X76131200Y-91912950I0J244250D01*
G01*
X76131200Y-91424450D01*
G75*
G02*
X76375450Y-91180200I244250J0D01*
G01*
X76938950Y-91180200D01*
G75*
G02*
X77183200Y-91424450I0J-244250D01*
G01*
X77183200Y-91912950D01*
G75*
G02*
X76938950Y-92157200I-244250J0D01*
G01*
G37*
%TD*%
%TO.C,C12*%
G36*
G01*
X82123900Y-91463050D02*
X82123900Y-92026550D01*
G75*
G02*
X81879650Y-92270800I-244250J0D01*
G01*
X81391150Y-92270800D01*
G75*
G02*
X81146900Y-92026550I0J244250D01*
G01*
X81146900Y-91463050D01*
G75*
G02*
X81391150Y-91218800I244250J0D01*
G01*
X81879650Y-91218800D01*
G75*
G02*
X82123900Y-91463050I0J-244250D01*
G01*
G37*
G36*
G01*
X83698900Y-91463050D02*
X83698900Y-92026550D01*
G75*
G02*
X83454650Y-92270800I-244250J0D01*
G01*
X82966150Y-92270800D01*
G75*
G02*
X82721900Y-92026550I0J244250D01*
G01*
X82721900Y-91463050D01*
G75*
G02*
X82966150Y-91218800I244250J0D01*
G01*
X83454650Y-91218800D01*
G75*
G02*
X83698900Y-91463050I0J-244250D01*
G01*
G37*
%TD*%
%TO.C,C9*%
G36*
G01*
X86608200Y-112041750D02*
X86608200Y-111478250D01*
G75*
G02*
X86852450Y-111234000I244250J0D01*
G01*
X87340950Y-111234000D01*
G75*
G02*
X87585200Y-111478250I0J-244250D01*
G01*
X87585200Y-112041750D01*
G75*
G02*
X87340950Y-112286000I-244250J0D01*
G01*
X86852450Y-112286000D01*
G75*
G02*
X86608200Y-112041750I0J244250D01*
G01*
G37*
G36*
G01*
X85033200Y-112041750D02*
X85033200Y-111478250D01*
G75*
G02*
X85277450Y-111234000I244250J0D01*
G01*
X85765950Y-111234000D01*
G75*
G02*
X86010200Y-111478250I0J-244250D01*
G01*
X86010200Y-112041750D01*
G75*
G02*
X85765950Y-112286000I-244250J0D01*
G01*
X85277450Y-112286000D01*
G75*
G02*
X85033200Y-112041750I0J244250D01*
G01*
G37*
%TD*%
%TO.C,C8*%
G36*
G01*
X88727900Y-92936250D02*
X88727900Y-93499750D01*
G75*
G02*
X88483650Y-93744000I-244250J0D01*
G01*
X87995150Y-93744000D01*
G75*
G02*
X87750900Y-93499750I0J244250D01*
G01*
X87750900Y-92936250D01*
G75*
G02*
X87995150Y-92692000I244250J0D01*
G01*
X88483650Y-92692000D01*
G75*
G02*
X88727900Y-92936250I0J-244250D01*
G01*
G37*
G36*
G01*
X90302900Y-92936250D02*
X90302900Y-93499750D01*
G75*
G02*
X90058650Y-93744000I-244250J0D01*
G01*
X89570150Y-93744000D01*
G75*
G02*
X89325900Y-93499750I0J244250D01*
G01*
X89325900Y-92936250D01*
G75*
G02*
X89570150Y-92692000I244250J0D01*
G01*
X90058650Y-92692000D01*
G75*
G02*
X90302900Y-92936250I0J-244250D01*
G01*
G37*
%TD*%
%TO.C,R17*%
G36*
G01*
X63048600Y-109649450D02*
X63048600Y-110212950D01*
G75*
G02*
X62804350Y-110457200I-244250J0D01*
G01*
X62315850Y-110457200D01*
G75*
G02*
X62071600Y-110212950I0J244250D01*
G01*
X62071600Y-109649450D01*
G75*
G02*
X62315850Y-109405200I244250J0D01*
G01*
X62804350Y-109405200D01*
G75*
G02*
X63048600Y-109649450I0J-244250D01*
G01*
G37*
G36*
G01*
X64623600Y-109649450D02*
X64623600Y-110212950D01*
G75*
G02*
X64379350Y-110457200I-244250J0D01*
G01*
X63890850Y-110457200D01*
G75*
G02*
X63646600Y-110212950I0J244250D01*
G01*
X63646600Y-109649450D01*
G75*
G02*
X63890850Y-109405200I244250J0D01*
G01*
X64379350Y-109405200D01*
G75*
G02*
X64623600Y-109649450I0J-244250D01*
G01*
G37*
%TD*%
%TO.C,R16*%
G36*
G01*
X63646600Y-108638150D02*
X63646600Y-108074650D01*
G75*
G02*
X63890850Y-107830400I244250J0D01*
G01*
X64379350Y-107830400D01*
G75*
G02*
X64623600Y-108074650I0J-244250D01*
G01*
X64623600Y-108638150D01*
G75*
G02*
X64379350Y-108882400I-244250J0D01*
G01*
X63890850Y-108882400D01*
G75*
G02*
X63646600Y-108638150I0J244250D01*
G01*
G37*
G36*
G01*
X62071600Y-108638150D02*
X62071600Y-108074650D01*
G75*
G02*
X62315850Y-107830400I244250J0D01*
G01*
X62804350Y-107830400D01*
G75*
G02*
X63048600Y-108074650I0J-244250D01*
G01*
X63048600Y-108638150D01*
G75*
G02*
X62804350Y-108882400I-244250J0D01*
G01*
X62315850Y-108882400D01*
G75*
G02*
X62071600Y-108638150I0J244250D01*
G01*
G37*
%TD*%
%TO.C,R7*%
G36*
G01*
X79673900Y-90451750D02*
X79673900Y-89888250D01*
G75*
G02*
X79918150Y-89644000I244250J0D01*
G01*
X80406650Y-89644000D01*
G75*
G02*
X80650900Y-89888250I0J-244250D01*
G01*
X80650900Y-90451750D01*
G75*
G02*
X80406650Y-90696000I-244250J0D01*
G01*
X79918150Y-90696000D01*
G75*
G02*
X79673900Y-90451750I0J244250D01*
G01*
G37*
G36*
G01*
X78098900Y-90451750D02*
X78098900Y-89888250D01*
G75*
G02*
X78343150Y-89644000I244250J0D01*
G01*
X78831650Y-89644000D01*
G75*
G02*
X79075900Y-89888250I0J-244250D01*
G01*
X79075900Y-90451750D01*
G75*
G02*
X78831650Y-90696000I-244250J0D01*
G01*
X78343150Y-90696000D01*
G75*
G02*
X78098900Y-90451750I0J244250D01*
G01*
G37*
%TD*%
%TO.C,R6*%
G36*
G01*
X82149400Y-89888250D02*
X82149400Y-90451750D01*
G75*
G02*
X81905150Y-90696000I-244250J0D01*
G01*
X81416650Y-90696000D01*
G75*
G02*
X81172400Y-90451750I0J244250D01*
G01*
X81172400Y-89888250D01*
G75*
G02*
X81416650Y-89644000I244250J0D01*
G01*
X81905150Y-89644000D01*
G75*
G02*
X82149400Y-89888250I0J-244250D01*
G01*
G37*
G36*
G01*
X83724400Y-89888250D02*
X83724400Y-90451750D01*
G75*
G02*
X83480150Y-90696000I-244250J0D01*
G01*
X82991650Y-90696000D01*
G75*
G02*
X82747400Y-90451750I0J244250D01*
G01*
X82747400Y-89888250D01*
G75*
G02*
X82991650Y-89644000I244250J0D01*
G01*
X83480150Y-89644000D01*
G75*
G02*
X83724400Y-89888250I0J-244250D01*
G01*
G37*
%TD*%
%TO.C,U3*%
G36*
G01*
X85251400Y-93256000D02*
X85251400Y-93606000D01*
G75*
G02*
X85200400Y-93657000I-51000J0D01*
G01*
X84700400Y-93657000D01*
G75*
G02*
X84649400Y-93606000I0J51000D01*
G01*
X84649400Y-93256000D01*
G75*
G02*
X84700400Y-93205000I51000J0D01*
G01*
X85200400Y-93205000D01*
G75*
G02*
X85251400Y-93256000I0J-51000D01*
G01*
G37*
G36*
G01*
X86851400Y-91306000D02*
X86851400Y-91656000D01*
G75*
G02*
X86800400Y-91707000I-51000J0D01*
G01*
X86300400Y-91707000D01*
G75*
G02*
X86249400Y-91656000I0J51000D01*
G01*
X86249400Y-91306000D01*
G75*
G02*
X86300400Y-91255000I51000J0D01*
G01*
X86800400Y-91255000D01*
G75*
G02*
X86851400Y-91306000I0J-51000D01*
G01*
G37*
G36*
G01*
X86851400Y-91956000D02*
X86851400Y-92306000D01*
G75*
G02*
X86800400Y-92357000I-51000J0D01*
G01*
X86300400Y-92357000D01*
G75*
G02*
X86249400Y-92306000I0J51000D01*
G01*
X86249400Y-91956000D01*
G75*
G02*
X86300400Y-91905000I51000J0D01*
G01*
X86800400Y-91905000D01*
G75*
G02*
X86851400Y-91956000I0J-51000D01*
G01*
G37*
G36*
G01*
X86851400Y-92606000D02*
X86851400Y-92956000D01*
G75*
G02*
X86800400Y-93007000I-51000J0D01*
G01*
X86300400Y-93007000D01*
G75*
G02*
X86249400Y-92956000I0J51000D01*
G01*
X86249400Y-92606000D01*
G75*
G02*
X86300400Y-92555000I51000J0D01*
G01*
X86800400Y-92555000D01*
G75*
G02*
X86851400Y-92606000I0J-51000D01*
G01*
G37*
G36*
G01*
X85251400Y-91306000D02*
X85251400Y-91656000D01*
G75*
G02*
X85200400Y-91707000I-51000J0D01*
G01*
X84700400Y-91707000D01*
G75*
G02*
X84649400Y-91656000I0J51000D01*
G01*
X84649400Y-91306000D01*
G75*
G02*
X84700400Y-91255000I51000J0D01*
G01*
X85200400Y-91255000D01*
G75*
G02*
X85251400Y-91306000I0J-51000D01*
G01*
G37*
G36*
G01*
X85251400Y-91956000D02*
X85251400Y-92306000D01*
G75*
G02*
X85200400Y-92357000I-51000J0D01*
G01*
X84700400Y-92357000D01*
G75*
G02*
X84649400Y-92306000I0J51000D01*
G01*
X84649400Y-91956000D01*
G75*
G02*
X84700400Y-91905000I51000J0D01*
G01*
X85200400Y-91905000D01*
G75*
G02*
X85251400Y-91956000I0J-51000D01*
G01*
G37*
G36*
G01*
X85251400Y-92606000D02*
X85251400Y-92956000D01*
G75*
G02*
X85200400Y-93007000I-51000J0D01*
G01*
X84700400Y-93007000D01*
G75*
G02*
X84649400Y-92956000I0J51000D01*
G01*
X84649400Y-92606000D01*
G75*
G02*
X84700400Y-92555000I51000J0D01*
G01*
X85200400Y-92555000D01*
G75*
G02*
X85251400Y-92606000I0J-51000D01*
G01*
G37*
G36*
G01*
X86851400Y-93256000D02*
X86851400Y-93606000D01*
G75*
G02*
X86800400Y-93657000I-51000J0D01*
G01*
X86300400Y-93657000D01*
G75*
G02*
X86249400Y-93606000I0J51000D01*
G01*
X86249400Y-93256000D01*
G75*
G02*
X86300400Y-93205000I51000J0D01*
G01*
X86800400Y-93205000D01*
G75*
G02*
X86851400Y-93256000I0J-51000D01*
G01*
G37*
%TD*%
%TO.C,U1*%
G36*
G01*
X77585500Y-84935300D02*
X77585500Y-84584300D01*
G75*
G02*
X77761000Y-84408800I175500J0D01*
G01*
X79462000Y-84408800D01*
G75*
G02*
X79637500Y-84584300I0J-175500D01*
G01*
X79637500Y-84935300D01*
G75*
G02*
X79462000Y-85110800I-175500J0D01*
G01*
X77761000Y-85110800D01*
G75*
G02*
X77585500Y-84935300I0J175500D01*
G01*
G37*
G36*
G01*
X77585500Y-86205300D02*
X77585500Y-85854300D01*
G75*
G02*
X77761000Y-85678800I175500J0D01*
G01*
X79462000Y-85678800D01*
G75*
G02*
X79637500Y-85854300I0J-175500D01*
G01*
X79637500Y-86205300D01*
G75*
G02*
X79462000Y-86380800I-175500J0D01*
G01*
X77761000Y-86380800D01*
G75*
G02*
X77585500Y-86205300I0J175500D01*
G01*
G37*
G36*
G01*
X77585500Y-87475300D02*
X77585500Y-87124300D01*
G75*
G02*
X77761000Y-86948800I175500J0D01*
G01*
X79462000Y-86948800D01*
G75*
G02*
X79637500Y-87124300I0J-175500D01*
G01*
X79637500Y-87475300D01*
G75*
G02*
X79462000Y-87650800I-175500J0D01*
G01*
X77761000Y-87650800D01*
G75*
G02*
X77585500Y-87475300I0J175500D01*
G01*
G37*
G36*
G01*
X77585500Y-88745300D02*
X77585500Y-88394300D01*
G75*
G02*
X77761000Y-88218800I175500J0D01*
G01*
X79462000Y-88218800D01*
G75*
G02*
X79637500Y-88394300I0J-175500D01*
G01*
X79637500Y-88745300D01*
G75*
G02*
X79462000Y-88920800I-175500J0D01*
G01*
X77761000Y-88920800D01*
G75*
G02*
X77585500Y-88745300I0J175500D01*
G01*
G37*
G36*
G01*
X72635500Y-88745300D02*
X72635500Y-88394300D01*
G75*
G02*
X72811000Y-88218800I175500J0D01*
G01*
X74512000Y-88218800D01*
G75*
G02*
X74687500Y-88394300I0J-175500D01*
G01*
X74687500Y-88745300D01*
G75*
G02*
X74512000Y-88920800I-175500J0D01*
G01*
X72811000Y-88920800D01*
G75*
G02*
X72635500Y-88745300I0J175500D01*
G01*
G37*
G36*
G01*
X72635500Y-87475300D02*
X72635500Y-87124300D01*
G75*
G02*
X72811000Y-86948800I175500J0D01*
G01*
X74512000Y-86948800D01*
G75*
G02*
X74687500Y-87124300I0J-175500D01*
G01*
X74687500Y-87475300D01*
G75*
G02*
X74512000Y-87650800I-175500J0D01*
G01*
X72811000Y-87650800D01*
G75*
G02*
X72635500Y-87475300I0J175500D01*
G01*
G37*
G36*
G01*
X72635500Y-86205300D02*
X72635500Y-85854300D01*
G75*
G02*
X72811000Y-85678800I175500J0D01*
G01*
X74512000Y-85678800D01*
G75*
G02*
X74687500Y-85854300I0J-175500D01*
G01*
X74687500Y-86205300D01*
G75*
G02*
X74512000Y-86380800I-175500J0D01*
G01*
X72811000Y-86380800D01*
G75*
G02*
X72635500Y-86205300I0J175500D01*
G01*
G37*
G36*
G01*
X72635500Y-84935300D02*
X72635500Y-84584300D01*
G75*
G02*
X72811000Y-84408800I175500J0D01*
G01*
X74512000Y-84408800D01*
G75*
G02*
X74687500Y-84584300I0J-175500D01*
G01*
X74687500Y-84935300D01*
G75*
G02*
X74512000Y-85110800I-175500J0D01*
G01*
X72811000Y-85110800D01*
G75*
G02*
X72635500Y-84935300I0J175500D01*
G01*
G37*
%TD*%
%TO.C,U6*%
G36*
G01*
X78532200Y-111062400D02*
X78532200Y-110762400D01*
G75*
G02*
X78583200Y-110711400I51000J0D01*
G01*
X79983200Y-110711400D01*
G75*
G02*
X80034200Y-110762400I0J-51000D01*
G01*
X80034200Y-111062400D01*
G75*
G02*
X79983200Y-111113400I-51000J0D01*
G01*
X78583200Y-111113400D01*
G75*
G02*
X78532200Y-111062400I0J51000D01*
G01*
G37*
G36*
G01*
X78532200Y-111562400D02*
X78532200Y-111262400D01*
G75*
G02*
X78583200Y-111211400I51000J0D01*
G01*
X79983200Y-111211400D01*
G75*
G02*
X80034200Y-111262400I0J-51000D01*
G01*
X80034200Y-111562400D01*
G75*
G02*
X79983200Y-111613400I-51000J0D01*
G01*
X78583200Y-111613400D01*
G75*
G02*
X78532200Y-111562400I0J51000D01*
G01*
G37*
G36*
G01*
X78532200Y-112062400D02*
X78532200Y-111762400D01*
G75*
G02*
X78583200Y-111711400I51000J0D01*
G01*
X79983200Y-111711400D01*
G75*
G02*
X80034200Y-111762400I0J-51000D01*
G01*
X80034200Y-112062400D01*
G75*
G02*
X79983200Y-112113400I-51000J0D01*
G01*
X78583200Y-112113400D01*
G75*
G02*
X78532200Y-112062400I0J51000D01*
G01*
G37*
G36*
G01*
X78532200Y-112562400D02*
X78532200Y-112262400D01*
G75*
G02*
X78583200Y-112211400I51000J0D01*
G01*
X79983200Y-112211400D01*
G75*
G02*
X80034200Y-112262400I0J-51000D01*
G01*
X80034200Y-112562400D01*
G75*
G02*
X79983200Y-112613400I-51000J0D01*
G01*
X78583200Y-112613400D01*
G75*
G02*
X78532200Y-112562400I0J51000D01*
G01*
G37*
G36*
G01*
X78532200Y-113062400D02*
X78532200Y-112762400D01*
G75*
G02*
X78583200Y-112711400I51000J0D01*
G01*
X79983200Y-112711400D01*
G75*
G02*
X80034200Y-112762400I0J-51000D01*
G01*
X80034200Y-113062400D01*
G75*
G02*
X79983200Y-113113400I-51000J0D01*
G01*
X78583200Y-113113400D01*
G75*
G02*
X78532200Y-113062400I0J51000D01*
G01*
G37*
G36*
G01*
X82932200Y-113062400D02*
X82932200Y-112762400D01*
G75*
G02*
X82983200Y-112711400I51000J0D01*
G01*
X84383200Y-112711400D01*
G75*
G02*
X84434200Y-112762400I0J-51000D01*
G01*
X84434200Y-113062400D01*
G75*
G02*
X84383200Y-113113400I-51000J0D01*
G01*
X82983200Y-113113400D01*
G75*
G02*
X82932200Y-113062400I0J51000D01*
G01*
G37*
G36*
G01*
X82932200Y-112562400D02*
X82932200Y-112262400D01*
G75*
G02*
X82983200Y-112211400I51000J0D01*
G01*
X84383200Y-112211400D01*
G75*
G02*
X84434200Y-112262400I0J-51000D01*
G01*
X84434200Y-112562400D01*
G75*
G02*
X84383200Y-112613400I-51000J0D01*
G01*
X82983200Y-112613400D01*
G75*
G02*
X82932200Y-112562400I0J51000D01*
G01*
G37*
G36*
G01*
X82932200Y-112062400D02*
X82932200Y-111762400D01*
G75*
G02*
X82983200Y-111711400I51000J0D01*
G01*
X84383200Y-111711400D01*
G75*
G02*
X84434200Y-111762400I0J-51000D01*
G01*
X84434200Y-112062400D01*
G75*
G02*
X84383200Y-112113400I-51000J0D01*
G01*
X82983200Y-112113400D01*
G75*
G02*
X82932200Y-112062400I0J51000D01*
G01*
G37*
G36*
G01*
X82932200Y-111562400D02*
X82932200Y-111262400D01*
G75*
G02*
X82983200Y-111211400I51000J0D01*
G01*
X84383200Y-111211400D01*
G75*
G02*
X84434200Y-111262400I0J-51000D01*
G01*
X84434200Y-111562400D01*
G75*
G02*
X84383200Y-111613400I-51000J0D01*
G01*
X82983200Y-111613400D01*
G75*
G02*
X82932200Y-111562400I0J51000D01*
G01*
G37*
G36*
G01*
X82932200Y-111062400D02*
X82932200Y-110762400D01*
G75*
G02*
X82983200Y-110711400I51000J0D01*
G01*
X84383200Y-110711400D01*
G75*
G02*
X84434200Y-110762400I0J-51000D01*
G01*
X84434200Y-111062400D01*
G75*
G02*
X84383200Y-111113400I-51000J0D01*
G01*
X82983200Y-111113400D01*
G75*
G02*
X82932200Y-111062400I0J51000D01*
G01*
G37*
%TD*%
%TO.C,U11*%
G36*
G01*
X72049799Y-108555000D02*
X72699801Y-108555000D01*
G75*
G02*
X72750800Y-108605999I0J-50999D01*
G01*
X72750800Y-109666001D01*
G75*
G02*
X72699801Y-109717000I-50999J0D01*
G01*
X72049799Y-109717000D01*
G75*
G02*
X71998800Y-109666001I0J50999D01*
G01*
X71998800Y-108605999D01*
G75*
G02*
X72049799Y-108555000I50999J0D01*
G01*
G37*
G36*
G01*
X71099799Y-108555000D02*
X71749801Y-108555000D01*
G75*
G02*
X71800800Y-108605999I0J-50999D01*
G01*
X71800800Y-109666001D01*
G75*
G02*
X71749801Y-109717000I-50999J0D01*
G01*
X71099799Y-109717000D01*
G75*
G02*
X71048800Y-109666001I0J50999D01*
G01*
X71048800Y-108605999D01*
G75*
G02*
X71099799Y-108555000I50999J0D01*
G01*
G37*
G36*
G01*
X70149799Y-108555000D02*
X70799801Y-108555000D01*
G75*
G02*
X70850800Y-108605999I0J-50999D01*
G01*
X70850800Y-109666001D01*
G75*
G02*
X70799801Y-109717000I-50999J0D01*
G01*
X70149799Y-109717000D01*
G75*
G02*
X70098800Y-109666001I0J50999D01*
G01*
X70098800Y-108605999D01*
G75*
G02*
X70149799Y-108555000I50999J0D01*
G01*
G37*
G36*
G01*
X70149799Y-110755000D02*
X70799801Y-110755000D01*
G75*
G02*
X70850800Y-110805999I0J-50999D01*
G01*
X70850800Y-111866001D01*
G75*
G02*
X70799801Y-111917000I-50999J0D01*
G01*
X70149799Y-111917000D01*
G75*
G02*
X70098800Y-111866001I0J50999D01*
G01*
X70098800Y-110805999D01*
G75*
G02*
X70149799Y-110755000I50999J0D01*
G01*
G37*
G36*
G01*
X72049799Y-110755000D02*
X72699801Y-110755000D01*
G75*
G02*
X72750800Y-110805999I0J-50999D01*
G01*
X72750800Y-111866001D01*
G75*
G02*
X72699801Y-111917000I-50999J0D01*
G01*
X72049799Y-111917000D01*
G75*
G02*
X71998800Y-111866001I0J50999D01*
G01*
X71998800Y-110805999D01*
G75*
G02*
X72049799Y-110755000I50999J0D01*
G01*
G37*
%TD*%
%TO.C,R11*%
G36*
G01*
X89325900Y-91924950D02*
X89325900Y-91361450D01*
G75*
G02*
X89570150Y-91117200I244250J0D01*
G01*
X90058650Y-91117200D01*
G75*
G02*
X90302900Y-91361450I0J-244250D01*
G01*
X90302900Y-91924950D01*
G75*
G02*
X90058650Y-92169200I-244250J0D01*
G01*
X89570150Y-92169200D01*
G75*
G02*
X89325900Y-91924950I0J244250D01*
G01*
G37*
G36*
G01*
X87750900Y-91924950D02*
X87750900Y-91361450D01*
G75*
G02*
X87995150Y-91117200I244250J0D01*
G01*
X88483650Y-91117200D01*
G75*
G02*
X88727900Y-91361450I0J-244250D01*
G01*
X88727900Y-91924950D01*
G75*
G02*
X88483650Y-92169200I-244250J0D01*
G01*
X87995150Y-92169200D01*
G75*
G02*
X87750900Y-91924950I0J244250D01*
G01*
G37*
%TD*%
%TO.C,R10*%
G36*
G01*
X62947000Y-91361450D02*
X62947000Y-91924950D01*
G75*
G02*
X62702750Y-92169200I-244250J0D01*
G01*
X62214250Y-92169200D01*
G75*
G02*
X61970000Y-91924950I0J244250D01*
G01*
X61970000Y-91361450D01*
G75*
G02*
X62214250Y-91117200I244250J0D01*
G01*
X62702750Y-91117200D01*
G75*
G02*
X62947000Y-91361450I0J-244250D01*
G01*
G37*
G36*
G01*
X64522000Y-91361450D02*
X64522000Y-91924950D01*
G75*
G02*
X64277750Y-92169200I-244250J0D01*
G01*
X63789250Y-92169200D01*
G75*
G02*
X63545000Y-91924950I0J244250D01*
G01*
X63545000Y-91361450D01*
G75*
G02*
X63789250Y-91117200I244250J0D01*
G01*
X64277750Y-91117200D01*
G75*
G02*
X64522000Y-91361450I0J-244250D01*
G01*
G37*
%TD*%
%TO.C,R14*%
G36*
G01*
X70313000Y-101877050D02*
X70313000Y-102440550D01*
G75*
G02*
X70068750Y-102684800I-244250J0D01*
G01*
X69580250Y-102684800D01*
G75*
G02*
X69336000Y-102440550I0J244250D01*
G01*
X69336000Y-101877050D01*
G75*
G02*
X69580250Y-101632800I244250J0D01*
G01*
X70068750Y-101632800D01*
G75*
G02*
X70313000Y-101877050I0J-244250D01*
G01*
G37*
G36*
G01*
X71888000Y-101877050D02*
X71888000Y-102440550D01*
G75*
G02*
X71643750Y-102684800I-244250J0D01*
G01*
X71155250Y-102684800D01*
G75*
G02*
X70911000Y-102440550I0J244250D01*
G01*
X70911000Y-101877050D01*
G75*
G02*
X71155250Y-101632800I244250J0D01*
G01*
X71643750Y-101632800D01*
G75*
G02*
X71888000Y-101877050I0J-244250D01*
G01*
G37*
%TD*%
%TO.C,R4*%
G36*
G01*
X86608200Y-110390750D02*
X86608200Y-109827250D01*
G75*
G02*
X86852450Y-109583000I244250J0D01*
G01*
X87340950Y-109583000D01*
G75*
G02*
X87585200Y-109827250I0J-244250D01*
G01*
X87585200Y-110390750D01*
G75*
G02*
X87340950Y-110635000I-244250J0D01*
G01*
X86852450Y-110635000D01*
G75*
G02*
X86608200Y-110390750I0J244250D01*
G01*
G37*
G36*
G01*
X85033200Y-110390750D02*
X85033200Y-109827250D01*
G75*
G02*
X85277450Y-109583000I244250J0D01*
G01*
X85765950Y-109583000D01*
G75*
G02*
X86010200Y-109827250I0J-244250D01*
G01*
X86010200Y-110390750D01*
G75*
G02*
X85765950Y-110635000I-244250J0D01*
G01*
X85277450Y-110635000D01*
G75*
G02*
X85033200Y-110390750I0J244250D01*
G01*
G37*
%TD*%
%TO.C,R15*%
G36*
G01*
X67226900Y-107160250D02*
X67226900Y-107723750D01*
G75*
G02*
X66982650Y-107968000I-244250J0D01*
G01*
X66494150Y-107968000D01*
G75*
G02*
X66249900Y-107723750I0J244250D01*
G01*
X66249900Y-107160250D01*
G75*
G02*
X66494150Y-106916000I244250J0D01*
G01*
X66982650Y-106916000D01*
G75*
G02*
X67226900Y-107160250I0J-244250D01*
G01*
G37*
G36*
G01*
X68801900Y-107160250D02*
X68801900Y-107723750D01*
G75*
G02*
X68557650Y-107968000I-244250J0D01*
G01*
X68069150Y-107968000D01*
G75*
G02*
X67824900Y-107723750I0J244250D01*
G01*
X67824900Y-107160250D01*
G75*
G02*
X68069150Y-106916000I244250J0D01*
G01*
X68557650Y-106916000D01*
G75*
G02*
X68801900Y-107160250I0J-244250D01*
G01*
G37*
%TD*%
%TO.C,R13*%
G36*
G01*
X67863000Y-111787750D02*
X67863000Y-111224250D01*
G75*
G02*
X68107250Y-110980000I244250J0D01*
G01*
X68595750Y-110980000D01*
G75*
G02*
X68840000Y-111224250I0J-244250D01*
G01*
X68840000Y-111787750D01*
G75*
G02*
X68595750Y-112032000I-244250J0D01*
G01*
X68107250Y-112032000D01*
G75*
G02*
X67863000Y-111787750I0J244250D01*
G01*
G37*
G36*
G01*
X66288000Y-111787750D02*
X66288000Y-111224250D01*
G75*
G02*
X66532250Y-110980000I244250J0D01*
G01*
X67020750Y-110980000D01*
G75*
G02*
X67265000Y-111224250I0J-244250D01*
G01*
X67265000Y-111787750D01*
G75*
G02*
X67020750Y-112032000I-244250J0D01*
G01*
X66532250Y-112032000D01*
G75*
G02*
X66288000Y-111787750I0J244250D01*
G01*
G37*
%TD*%
%TO.C,R1*%
G36*
G01*
X64031050Y-96209400D02*
X64594550Y-96209400D01*
G75*
G02*
X64838800Y-96453650I0J-244250D01*
G01*
X64838800Y-96942150D01*
G75*
G02*
X64594550Y-97186400I-244250J0D01*
G01*
X64031050Y-97186400D01*
G75*
G02*
X63786800Y-96942150I0J244250D01*
G01*
X63786800Y-96453650D01*
G75*
G02*
X64031050Y-96209400I244250J0D01*
G01*
G37*
G36*
G01*
X64031050Y-94634400D02*
X64594550Y-94634400D01*
G75*
G02*
X64838800Y-94878650I0J-244250D01*
G01*
X64838800Y-95367150D01*
G75*
G02*
X64594550Y-95611400I-244250J0D01*
G01*
X64031050Y-95611400D01*
G75*
G02*
X63786800Y-95367150I0J244250D01*
G01*
X63786800Y-94878650D01*
G75*
G02*
X64031050Y-94634400I244250J0D01*
G01*
G37*
%TD*%
%TO.C,Q1*%
G36*
G01*
X62271800Y-97021600D02*
X62271800Y-96221600D01*
G75*
G02*
X62322800Y-96170600I51000J0D01*
G01*
X63222800Y-96170600D01*
G75*
G02*
X63273800Y-96221600I0J-51000D01*
G01*
X63273800Y-97021600D01*
G75*
G02*
X63222800Y-97072600I-51000J0D01*
G01*
X62322800Y-97072600D01*
G75*
G02*
X62271800Y-97021600I0J51000D01*
G01*
G37*
G36*
G01*
X60271800Y-97971600D02*
X60271800Y-97171600D01*
G75*
G02*
X60322800Y-97120600I51000J0D01*
G01*
X61222800Y-97120600D01*
G75*
G02*
X61273800Y-97171600I0J-51000D01*
G01*
X61273800Y-97971600D01*
G75*
G02*
X61222800Y-98022600I-51000J0D01*
G01*
X60322800Y-98022600D01*
G75*
G02*
X60271800Y-97971600I0J51000D01*
G01*
G37*
G36*
G01*
X60271800Y-96071600D02*
X60271800Y-95271600D01*
G75*
G02*
X60322800Y-95220600I51000J0D01*
G01*
X61222800Y-95220600D01*
G75*
G02*
X61273800Y-95271600I0J-51000D01*
G01*
X61273800Y-96071600D01*
G75*
G02*
X61222800Y-96122600I-51000J0D01*
G01*
X60322800Y-96122600D01*
G75*
G02*
X60271800Y-96071600I0J51000D01*
G01*
G37*
%TD*%
%TO.C,D1*%
G36*
G01*
X68166200Y-110006550D02*
X68166200Y-109043050D01*
G75*
G02*
X68435450Y-108773800I269250J0D01*
G01*
X68973950Y-108773800D01*
G75*
G02*
X69243200Y-109043050I0J-269250D01*
G01*
X69243200Y-110006550D01*
G75*
G02*
X68973950Y-110275800I-269250J0D01*
G01*
X68435450Y-110275800D01*
G75*
G02*
X68166200Y-110006550I0J269250D01*
G01*
G37*
G36*
G01*
X66291200Y-110006550D02*
X66291200Y-109043050D01*
G75*
G02*
X66560450Y-108773800I269250J0D01*
G01*
X67098950Y-108773800D01*
G75*
G02*
X67368200Y-109043050I0J-269250D01*
G01*
X67368200Y-110006550D01*
G75*
G02*
X67098950Y-110275800I-269250J0D01*
G01*
X66560450Y-110275800D01*
G75*
G02*
X66291200Y-110006550I0J269250D01*
G01*
G37*
%TD*%
%TO.C,C4*%
G36*
G01*
X64166200Y-106499850D02*
X64166200Y-107063350D01*
G75*
G02*
X63921950Y-107307600I-244250J0D01*
G01*
X63433450Y-107307600D01*
G75*
G02*
X63189200Y-107063350I0J244250D01*
G01*
X63189200Y-106499850D01*
G75*
G02*
X63433450Y-106255600I244250J0D01*
G01*
X63921950Y-106255600D01*
G75*
G02*
X64166200Y-106499850I0J-244250D01*
G01*
G37*
G36*
G01*
X65741200Y-106499850D02*
X65741200Y-107063350D01*
G75*
G02*
X65496950Y-107307600I-244250J0D01*
G01*
X65008450Y-107307600D01*
G75*
G02*
X64764200Y-107063350I0J244250D01*
G01*
X64764200Y-106499850D01*
G75*
G02*
X65008450Y-106255600I244250J0D01*
G01*
X65496950Y-106255600D01*
G75*
G02*
X65741200Y-106499850I0J-244250D01*
G01*
G37*
%TD*%
%TO.C,C3*%
G36*
G01*
X74022400Y-107723750D02*
X74022400Y-107160250D01*
G75*
G02*
X74266650Y-106916000I244250J0D01*
G01*
X74755150Y-106916000D01*
G75*
G02*
X74999400Y-107160250I0J-244250D01*
G01*
X74999400Y-107723750D01*
G75*
G02*
X74755150Y-107968000I-244250J0D01*
G01*
X74266650Y-107968000D01*
G75*
G02*
X74022400Y-107723750I0J244250D01*
G01*
G37*
G36*
G01*
X72447400Y-107723750D02*
X72447400Y-107160250D01*
G75*
G02*
X72691650Y-106916000I244250J0D01*
G01*
X73180150Y-106916000D01*
G75*
G02*
X73424400Y-107160250I0J-244250D01*
G01*
X73424400Y-107723750D01*
G75*
G02*
X73180150Y-107968000I-244250J0D01*
G01*
X72691650Y-107968000D01*
G75*
G02*
X72447400Y-107723750I0J244250D01*
G01*
G37*
%TD*%
%TO.C,C2*%
G36*
G01*
X70936400Y-107723750D02*
X70936400Y-107160250D01*
G75*
G02*
X71180650Y-106916000I244250J0D01*
G01*
X71669150Y-106916000D01*
G75*
G02*
X71913400Y-107160250I0J-244250D01*
G01*
X71913400Y-107723750D01*
G75*
G02*
X71669150Y-107968000I-244250J0D01*
G01*
X71180650Y-107968000D01*
G75*
G02*
X70936400Y-107723750I0J244250D01*
G01*
G37*
G36*
G01*
X69361400Y-107723750D02*
X69361400Y-107160250D01*
G75*
G02*
X69605650Y-106916000I244250J0D01*
G01*
X70094150Y-106916000D01*
G75*
G02*
X70338400Y-107160250I0J-244250D01*
G01*
X70338400Y-107723750D01*
G75*
G02*
X70094150Y-107968000I-244250J0D01*
G01*
X69605650Y-107968000D01*
G75*
G02*
X69361400Y-107723750I0J244250D01*
G01*
G37*
%TD*%
%TO.C,C1*%
G36*
G01*
X70936300Y-113260950D02*
X70936300Y-112697450D01*
G75*
G02*
X71180550Y-112453200I244250J0D01*
G01*
X71669050Y-112453200D01*
G75*
G02*
X71913300Y-112697450I0J-244250D01*
G01*
X71913300Y-113260950D01*
G75*
G02*
X71669050Y-113505200I-244250J0D01*
G01*
X71180550Y-113505200D01*
G75*
G02*
X70936300Y-113260950I0J244250D01*
G01*
G37*
G36*
G01*
X69361300Y-113260950D02*
X69361300Y-112697450D01*
G75*
G02*
X69605550Y-112453200I244250J0D01*
G01*
X70094050Y-112453200D01*
G75*
G02*
X70338300Y-112697450I0J-244250D01*
G01*
X70338300Y-113260950D01*
G75*
G02*
X70094050Y-113505200I-244250J0D01*
G01*
X69605550Y-113505200D01*
G75*
G02*
X69361300Y-113260950I0J244250D01*
G01*
G37*
%TD*%
%TO.C,R9*%
G36*
G01*
X63023100Y-111224250D02*
X63023100Y-111787750D01*
G75*
G02*
X62778850Y-112032000I-244250J0D01*
G01*
X62290350Y-112032000D01*
G75*
G02*
X62046100Y-111787750I0J244250D01*
G01*
X62046100Y-111224250D01*
G75*
G02*
X62290350Y-110980000I244250J0D01*
G01*
X62778850Y-110980000D01*
G75*
G02*
X63023100Y-111224250I0J-244250D01*
G01*
G37*
G36*
G01*
X64598100Y-111224250D02*
X64598100Y-111787750D01*
G75*
G02*
X64353850Y-112032000I-244250J0D01*
G01*
X63865350Y-112032000D01*
G75*
G02*
X63621100Y-111787750I0J244250D01*
G01*
X63621100Y-111224250D01*
G75*
G02*
X63865350Y-110980000I244250J0D01*
G01*
X64353850Y-110980000D01*
G75*
G02*
X64598100Y-111224250I0J-244250D01*
G01*
G37*
%TD*%
%TO.C,R8*%
G36*
G01*
X89210600Y-109801850D02*
X89210600Y-110365350D01*
G75*
G02*
X88966350Y-110609600I-244250J0D01*
G01*
X88477850Y-110609600D01*
G75*
G02*
X88233600Y-110365350I0J244250D01*
G01*
X88233600Y-109801850D01*
G75*
G02*
X88477850Y-109557600I244250J0D01*
G01*
X88966350Y-109557600D01*
G75*
G02*
X89210600Y-109801850I0J-244250D01*
G01*
G37*
G36*
G01*
X90785600Y-109801850D02*
X90785600Y-110365350D01*
G75*
G02*
X90541350Y-110609600I-244250J0D01*
G01*
X90052850Y-110609600D01*
G75*
G02*
X89808600Y-110365350I0J244250D01*
G01*
X89808600Y-109801850D01*
G75*
G02*
X90052850Y-109557600I244250J0D01*
G01*
X90541350Y-109557600D01*
G75*
G02*
X90785600Y-109801850I0J-244250D01*
G01*
G37*
%TD*%
%TO.C,U7*%
G36*
G01*
X75523000Y-105456000D02*
X75523000Y-104856000D01*
G75*
G02*
X75574000Y-104805000I51000J0D01*
G01*
X77098000Y-104805000D01*
G75*
G02*
X77149000Y-104856000I0J-51000D01*
G01*
X77149000Y-105456000D01*
G75*
G02*
X77098000Y-105507000I-51000J0D01*
G01*
X75574000Y-105507000D01*
G75*
G02*
X75523000Y-105456000I0J51000D01*
G01*
G37*
G36*
G01*
X75523000Y-104440000D02*
X75523000Y-103840000D01*
G75*
G02*
X75574000Y-103789000I51000J0D01*
G01*
X77098000Y-103789000D01*
G75*
G02*
X77149000Y-103840000I0J-51000D01*
G01*
X77149000Y-104440000D01*
G75*
G02*
X77098000Y-104491000I-51000J0D01*
G01*
X75574000Y-104491000D01*
G75*
G02*
X75523000Y-104440000I0J51000D01*
G01*
G37*
G36*
G01*
X75523000Y-103424000D02*
X75523000Y-102824000D01*
G75*
G02*
X75574000Y-102773000I51000J0D01*
G01*
X77098000Y-102773000D01*
G75*
G02*
X77149000Y-102824000I0J-51000D01*
G01*
X77149000Y-103424000D01*
G75*
G02*
X77098000Y-103475000I-51000J0D01*
G01*
X75574000Y-103475000D01*
G75*
G02*
X75523000Y-103424000I0J51000D01*
G01*
G37*
G36*
G01*
X75523000Y-102408000D02*
X75523000Y-101808000D01*
G75*
G02*
X75574000Y-101757000I51000J0D01*
G01*
X77098000Y-101757000D01*
G75*
G02*
X77149000Y-101808000I0J-51000D01*
G01*
X77149000Y-102408000D01*
G75*
G02*
X77098000Y-102459000I-51000J0D01*
G01*
X75574000Y-102459000D01*
G75*
G02*
X75523000Y-102408000I0J51000D01*
G01*
G37*
G36*
G01*
X75523000Y-101392000D02*
X75523000Y-100792000D01*
G75*
G02*
X75574000Y-100741000I51000J0D01*
G01*
X77098000Y-100741000D01*
G75*
G02*
X77149000Y-100792000I0J-51000D01*
G01*
X77149000Y-101392000D01*
G75*
G02*
X77098000Y-101443000I-51000J0D01*
G01*
X75574000Y-101443000D01*
G75*
G02*
X75523000Y-101392000I0J51000D01*
G01*
G37*
G36*
G01*
X75523000Y-100376000D02*
X75523000Y-99776000D01*
G75*
G02*
X75574000Y-99725000I51000J0D01*
G01*
X77098000Y-99725000D01*
G75*
G02*
X77149000Y-99776000I0J-51000D01*
G01*
X77149000Y-100376000D01*
G75*
G02*
X77098000Y-100427000I-51000J0D01*
G01*
X75574000Y-100427000D01*
G75*
G02*
X75523000Y-100376000I0J51000D01*
G01*
G37*
G36*
G01*
X75523000Y-99360000D02*
X75523000Y-98760000D01*
G75*
G02*
X75574000Y-98709000I51000J0D01*
G01*
X77098000Y-98709000D01*
G75*
G02*
X77149000Y-98760000I0J-51000D01*
G01*
X77149000Y-99360000D01*
G75*
G02*
X77098000Y-99411000I-51000J0D01*
G01*
X75574000Y-99411000D01*
G75*
G02*
X75523000Y-99360000I0J51000D01*
G01*
G37*
G36*
G01*
X75523000Y-98344000D02*
X75523000Y-97744000D01*
G75*
G02*
X75574000Y-97693000I51000J0D01*
G01*
X77098000Y-97693000D01*
G75*
G02*
X77149000Y-97744000I0J-51000D01*
G01*
X77149000Y-98344000D01*
G75*
G02*
X77098000Y-98395000I-51000J0D01*
G01*
X75574000Y-98395000D01*
G75*
G02*
X75523000Y-98344000I0J51000D01*
G01*
G37*
G36*
G01*
X85552000Y-107287000D02*
X86152000Y-107287000D01*
G75*
G02*
X86203000Y-107338000I0J-51000D01*
G01*
X86203000Y-108862000D01*
G75*
G02*
X86152000Y-108913000I-51000J0D01*
G01*
X85552000Y-108913000D01*
G75*
G02*
X85501000Y-108862000I0J51000D01*
G01*
X85501000Y-107338000D01*
G75*
G02*
X85552000Y-107287000I51000J0D01*
G01*
G37*
G36*
G01*
X91648000Y-107287000D02*
X92248000Y-107287000D01*
G75*
G02*
X92299000Y-107338000I0J-51000D01*
G01*
X92299000Y-108862000D01*
G75*
G02*
X92248000Y-108913000I-51000J0D01*
G01*
X91648000Y-108913000D01*
G75*
G02*
X91597000Y-108862000I0J51000D01*
G01*
X91597000Y-107338000D01*
G75*
G02*
X91648000Y-107287000I51000J0D01*
G01*
G37*
G36*
G01*
X82504000Y-107287000D02*
X83104000Y-107287000D01*
G75*
G02*
X83155000Y-107338000I0J-51000D01*
G01*
X83155000Y-108862000D01*
G75*
G02*
X83104000Y-108913000I-51000J0D01*
G01*
X82504000Y-108913000D01*
G75*
G02*
X82453000Y-108862000I0J51000D01*
G01*
X82453000Y-107338000D01*
G75*
G02*
X82504000Y-107287000I51000J0D01*
G01*
G37*
G36*
G01*
X83520000Y-107287000D02*
X84120000Y-107287000D01*
G75*
G02*
X84171000Y-107338000I0J-51000D01*
G01*
X84171000Y-108862000D01*
G75*
G02*
X84120000Y-108913000I-51000J0D01*
G01*
X83520000Y-108913000D01*
G75*
G02*
X83469000Y-108862000I0J51000D01*
G01*
X83469000Y-107338000D01*
G75*
G02*
X83520000Y-107287000I51000J0D01*
G01*
G37*
G36*
G01*
X90632000Y-107287000D02*
X91232000Y-107287000D01*
G75*
G02*
X91283000Y-107338000I0J-51000D01*
G01*
X91283000Y-108862000D01*
G75*
G02*
X91232000Y-108913000I-51000J0D01*
G01*
X90632000Y-108913000D01*
G75*
G02*
X90581000Y-108862000I0J51000D01*
G01*
X90581000Y-107338000D01*
G75*
G02*
X90632000Y-107287000I51000J0D01*
G01*
G37*
G36*
G01*
X89616000Y-107287000D02*
X90216000Y-107287000D01*
G75*
G02*
X90267000Y-107338000I0J-51000D01*
G01*
X90267000Y-108862000D01*
G75*
G02*
X90216000Y-108913000I-51000J0D01*
G01*
X89616000Y-108913000D01*
G75*
G02*
X89565000Y-108862000I0J51000D01*
G01*
X89565000Y-107338000D01*
G75*
G02*
X89616000Y-107287000I51000J0D01*
G01*
G37*
G36*
G01*
X88600000Y-107287000D02*
X89200000Y-107287000D01*
G75*
G02*
X89251000Y-107338000I0J-51000D01*
G01*
X89251000Y-108862000D01*
G75*
G02*
X89200000Y-108913000I-51000J0D01*
G01*
X88600000Y-108913000D01*
G75*
G02*
X88549000Y-108862000I0J51000D01*
G01*
X88549000Y-107338000D01*
G75*
G02*
X88600000Y-107287000I51000J0D01*
G01*
G37*
G36*
G01*
X87584000Y-107287000D02*
X88184000Y-107287000D01*
G75*
G02*
X88235000Y-107338000I0J-51000D01*
G01*
X88235000Y-108862000D01*
G75*
G02*
X88184000Y-108913000I-51000J0D01*
G01*
X87584000Y-108913000D01*
G75*
G02*
X87533000Y-108862000I0J51000D01*
G01*
X87533000Y-107338000D01*
G75*
G02*
X87584000Y-107287000I51000J0D01*
G01*
G37*
G36*
G01*
X77424000Y-107287000D02*
X78024000Y-107287000D01*
G75*
G02*
X78075000Y-107338000I0J-51000D01*
G01*
X78075000Y-108862000D01*
G75*
G02*
X78024000Y-108913000I-51000J0D01*
G01*
X77424000Y-108913000D01*
G75*
G02*
X77373000Y-108862000I0J51000D01*
G01*
X77373000Y-107338000D01*
G75*
G02*
X77424000Y-107287000I51000J0D01*
G01*
G37*
G36*
G01*
X78440000Y-107287000D02*
X79040000Y-107287000D01*
G75*
G02*
X79091000Y-107338000I0J-51000D01*
G01*
X79091000Y-108862000D01*
G75*
G02*
X79040000Y-108913000I-51000J0D01*
G01*
X78440000Y-108913000D01*
G75*
G02*
X78389000Y-108862000I0J51000D01*
G01*
X78389000Y-107338000D01*
G75*
G02*
X78440000Y-107287000I51000J0D01*
G01*
G37*
G36*
G01*
X84536000Y-107287000D02*
X85136000Y-107287000D01*
G75*
G02*
X85187000Y-107338000I0J-51000D01*
G01*
X85187000Y-108862000D01*
G75*
G02*
X85136000Y-108913000I-51000J0D01*
G01*
X84536000Y-108913000D01*
G75*
G02*
X84485000Y-108862000I0J51000D01*
G01*
X84485000Y-107338000D01*
G75*
G02*
X84536000Y-107287000I51000J0D01*
G01*
G37*
G36*
G01*
X80472000Y-107287000D02*
X81072000Y-107287000D01*
G75*
G02*
X81123000Y-107338000I0J-51000D01*
G01*
X81123000Y-108862000D01*
G75*
G02*
X81072000Y-108913000I-51000J0D01*
G01*
X80472000Y-108913000D01*
G75*
G02*
X80421000Y-108862000I0J51000D01*
G01*
X80421000Y-107338000D01*
G75*
G02*
X80472000Y-107287000I51000J0D01*
G01*
G37*
G36*
G01*
X86568000Y-107287000D02*
X87168000Y-107287000D01*
G75*
G02*
X87219000Y-107338000I0J-51000D01*
G01*
X87219000Y-108862000D01*
G75*
G02*
X87168000Y-108913000I-51000J0D01*
G01*
X86568000Y-108913000D01*
G75*
G02*
X86517000Y-108862000I0J51000D01*
G01*
X86517000Y-107338000D01*
G75*
G02*
X86568000Y-107287000I51000J0D01*
G01*
G37*
G36*
G01*
X81488000Y-107287000D02*
X82088000Y-107287000D01*
G75*
G02*
X82139000Y-107338000I0J-51000D01*
G01*
X82139000Y-108862000D01*
G75*
G02*
X82088000Y-108913000I-51000J0D01*
G01*
X81488000Y-108913000D01*
G75*
G02*
X81437000Y-108862000I0J51000D01*
G01*
X81437000Y-107338000D01*
G75*
G02*
X81488000Y-107287000I51000J0D01*
G01*
G37*
G36*
G01*
X79456000Y-107287000D02*
X80056000Y-107287000D01*
G75*
G02*
X80107000Y-107338000I0J-51000D01*
G01*
X80107000Y-108862000D01*
G75*
G02*
X80056000Y-108913000I-51000J0D01*
G01*
X79456000Y-108913000D01*
G75*
G02*
X79405000Y-108862000I0J51000D01*
G01*
X79405000Y-107338000D01*
G75*
G02*
X79456000Y-107287000I51000J0D01*
G01*
G37*
G36*
G01*
X91648000Y-94287000D02*
X92248000Y-94287000D01*
G75*
G02*
X92299000Y-94338000I0J-51000D01*
G01*
X92299000Y-95862000D01*
G75*
G02*
X92248000Y-95913000I-51000J0D01*
G01*
X91648000Y-95913000D01*
G75*
G02*
X91597000Y-95862000I0J51000D01*
G01*
X91597000Y-94338000D01*
G75*
G02*
X91648000Y-94287000I51000J0D01*
G01*
G37*
G36*
G01*
X90632000Y-94287000D02*
X91232000Y-94287000D01*
G75*
G02*
X91283000Y-94338000I0J-51000D01*
G01*
X91283000Y-95862000D01*
G75*
G02*
X91232000Y-95913000I-51000J0D01*
G01*
X90632000Y-95913000D01*
G75*
G02*
X90581000Y-95862000I0J51000D01*
G01*
X90581000Y-94338000D01*
G75*
G02*
X90632000Y-94287000I51000J0D01*
G01*
G37*
G36*
G01*
X89616000Y-94287000D02*
X90216000Y-94287000D01*
G75*
G02*
X90267000Y-94338000I0J-51000D01*
G01*
X90267000Y-95862000D01*
G75*
G02*
X90216000Y-95913000I-51000J0D01*
G01*
X89616000Y-95913000D01*
G75*
G02*
X89565000Y-95862000I0J51000D01*
G01*
X89565000Y-94338000D01*
G75*
G02*
X89616000Y-94287000I51000J0D01*
G01*
G37*
G36*
G01*
X88600000Y-94287000D02*
X89200000Y-94287000D01*
G75*
G02*
X89251000Y-94338000I0J-51000D01*
G01*
X89251000Y-95862000D01*
G75*
G02*
X89200000Y-95913000I-51000J0D01*
G01*
X88600000Y-95913000D01*
G75*
G02*
X88549000Y-95862000I0J51000D01*
G01*
X88549000Y-94338000D01*
G75*
G02*
X88600000Y-94287000I51000J0D01*
G01*
G37*
G36*
G01*
X87584000Y-94287000D02*
X88184000Y-94287000D01*
G75*
G02*
X88235000Y-94338000I0J-51000D01*
G01*
X88235000Y-95862000D01*
G75*
G02*
X88184000Y-95913000I-51000J0D01*
G01*
X87584000Y-95913000D01*
G75*
G02*
X87533000Y-95862000I0J51000D01*
G01*
X87533000Y-94338000D01*
G75*
G02*
X87584000Y-94287000I51000J0D01*
G01*
G37*
G36*
G01*
X86568000Y-94287000D02*
X87168000Y-94287000D01*
G75*
G02*
X87219000Y-94338000I0J-51000D01*
G01*
X87219000Y-95862000D01*
G75*
G02*
X87168000Y-95913000I-51000J0D01*
G01*
X86568000Y-95913000D01*
G75*
G02*
X86517000Y-95862000I0J51000D01*
G01*
X86517000Y-94338000D01*
G75*
G02*
X86568000Y-94287000I51000J0D01*
G01*
G37*
G36*
G01*
X85552000Y-94287000D02*
X86152000Y-94287000D01*
G75*
G02*
X86203000Y-94338000I0J-51000D01*
G01*
X86203000Y-95862000D01*
G75*
G02*
X86152000Y-95913000I-51000J0D01*
G01*
X85552000Y-95913000D01*
G75*
G02*
X85501000Y-95862000I0J51000D01*
G01*
X85501000Y-94338000D01*
G75*
G02*
X85552000Y-94287000I51000J0D01*
G01*
G37*
G36*
G01*
X84536000Y-94287000D02*
X85136000Y-94287000D01*
G75*
G02*
X85187000Y-94338000I0J-51000D01*
G01*
X85187000Y-95862000D01*
G75*
G02*
X85136000Y-95913000I-51000J0D01*
G01*
X84536000Y-95913000D01*
G75*
G02*
X84485000Y-95862000I0J51000D01*
G01*
X84485000Y-94338000D01*
G75*
G02*
X84536000Y-94287000I51000J0D01*
G01*
G37*
G36*
G01*
X83536000Y-94287000D02*
X84136000Y-94287000D01*
G75*
G02*
X84187000Y-94338000I0J-51000D01*
G01*
X84187000Y-95862000D01*
G75*
G02*
X84136000Y-95913000I-51000J0D01*
G01*
X83536000Y-95913000D01*
G75*
G02*
X83485000Y-95862000I0J51000D01*
G01*
X83485000Y-94338000D01*
G75*
G02*
X83536000Y-94287000I51000J0D01*
G01*
G37*
G36*
G01*
X82504000Y-94287000D02*
X83104000Y-94287000D01*
G75*
G02*
X83155000Y-94338000I0J-51000D01*
G01*
X83155000Y-95862000D01*
G75*
G02*
X83104000Y-95913000I-51000J0D01*
G01*
X82504000Y-95913000D01*
G75*
G02*
X82453000Y-95862000I0J51000D01*
G01*
X82453000Y-94338000D01*
G75*
G02*
X82504000Y-94287000I51000J0D01*
G01*
G37*
G36*
G01*
X81488000Y-94287000D02*
X82088000Y-94287000D01*
G75*
G02*
X82139000Y-94338000I0J-51000D01*
G01*
X82139000Y-95862000D01*
G75*
G02*
X82088000Y-95913000I-51000J0D01*
G01*
X81488000Y-95913000D01*
G75*
G02*
X81437000Y-95862000I0J51000D01*
G01*
X81437000Y-94338000D01*
G75*
G02*
X81488000Y-94287000I51000J0D01*
G01*
G37*
G36*
G01*
X80472000Y-94287000D02*
X81072000Y-94287000D01*
G75*
G02*
X81123000Y-94338000I0J-51000D01*
G01*
X81123000Y-95862000D01*
G75*
G02*
X81072000Y-95913000I-51000J0D01*
G01*
X80472000Y-95913000D01*
G75*
G02*
X80421000Y-95862000I0J51000D01*
G01*
X80421000Y-94338000D01*
G75*
G02*
X80472000Y-94287000I51000J0D01*
G01*
G37*
G36*
G01*
X79456000Y-94287000D02*
X80056000Y-94287000D01*
G75*
G02*
X80107000Y-94338000I0J-51000D01*
G01*
X80107000Y-95862000D01*
G75*
G02*
X80056000Y-95913000I-51000J0D01*
G01*
X79456000Y-95913000D01*
G75*
G02*
X79405000Y-95862000I0J51000D01*
G01*
X79405000Y-94338000D01*
G75*
G02*
X79456000Y-94287000I51000J0D01*
G01*
G37*
G36*
G01*
X78440000Y-94287000D02*
X79040000Y-94287000D01*
G75*
G02*
X79091000Y-94338000I0J-51000D01*
G01*
X79091000Y-95862000D01*
G75*
G02*
X79040000Y-95913000I-51000J0D01*
G01*
X78440000Y-95913000D01*
G75*
G02*
X78389000Y-95862000I0J51000D01*
G01*
X78389000Y-94338000D01*
G75*
G02*
X78440000Y-94287000I51000J0D01*
G01*
G37*
G36*
G01*
X77424000Y-94287000D02*
X78024000Y-94287000D01*
G75*
G02*
X78075000Y-94338000I0J-51000D01*
G01*
X78075000Y-95862000D01*
G75*
G02*
X78024000Y-95913000I-51000J0D01*
G01*
X77424000Y-95913000D01*
G75*
G02*
X77373000Y-95862000I0J51000D01*
G01*
X77373000Y-94338000D01*
G75*
G02*
X77424000Y-94287000I51000J0D01*
G01*
G37*
G36*
G01*
X80336000Y-99049000D02*
X85336000Y-99049000D01*
G75*
G02*
X85387000Y-99100000I0J-51000D01*
G01*
X85387000Y-104100000D01*
G75*
G02*
X85336000Y-104151000I-51000J0D01*
G01*
X80336000Y-104151000D01*
G75*
G02*
X80285000Y-104100000I0J51000D01*
G01*
X80285000Y-99100000D01*
G75*
G02*
X80336000Y-99049000I51000J0D01*
G01*
G37*
%TD*%
M02*
